%TF.GenerationSoftware,KiCad,Pcbnew,8.0.4*%
%TF.CreationDate,2024-08-11T19:45:59+02:00*%
%TF.ProjectId,esp32vga-keypad,65737033-3276-4676-912d-6b6579706164,rev?*%
%TF.SameCoordinates,Original*%
%TF.FileFunction,Copper,L1,Top*%
%TF.FilePolarity,Positive*%
%FSLAX46Y46*%
G04 Gerber Fmt 4.6, Leading zero omitted, Abs format (unit mm)*
G04 Created by KiCad (PCBNEW 8.0.4) date 2024-08-11 19:45:59*
%MOMM*%
%LPD*%
G01*
G04 APERTURE LIST*
G04 Aperture macros list*
%AMRoundRect*
0 Rectangle with rounded corners*
0 $1 Rounding radius*
0 $2 $3 $4 $5 $6 $7 $8 $9 X,Y pos of 4 corners*
0 Add a 4 corners polygon primitive as box body*
4,1,4,$2,$3,$4,$5,$6,$7,$8,$9,$2,$3,0*
0 Add four circle primitives for the rounded corners*
1,1,$1+$1,$2,$3*
1,1,$1+$1,$4,$5*
1,1,$1+$1,$6,$7*
1,1,$1+$1,$8,$9*
0 Add four rect primitives between the rounded corners*
20,1,$1+$1,$2,$3,$4,$5,0*
20,1,$1+$1,$4,$5,$6,$7,0*
20,1,$1+$1,$6,$7,$8,$9,0*
20,1,$1+$1,$8,$9,$2,$3,0*%
G04 Aperture macros list end*
%TA.AperFunction,SMDPad,CuDef*%
%ADD10R,1.550000X1.300000*%
%TD*%
%TA.AperFunction,ComponentPad*%
%ADD11RoundRect,0.250000X0.600000X0.600000X-0.600000X0.600000X-0.600000X-0.600000X0.600000X-0.600000X0*%
%TD*%
%TA.AperFunction,ComponentPad*%
%ADD12C,1.700000*%
%TD*%
%TA.AperFunction,SMDPad,CuDef*%
%ADD13RoundRect,0.237500X-0.287500X-0.237500X0.287500X-0.237500X0.287500X0.237500X-0.287500X0.237500X0*%
%TD*%
%TA.AperFunction,ComponentPad*%
%ADD14C,5.700000*%
%TD*%
%TA.AperFunction,ViaPad*%
%ADD15C,0.600000*%
%TD*%
%TA.AperFunction,Conductor*%
%ADD16C,0.200000*%
%TD*%
G04 APERTURE END LIST*
D10*
%TO.P,SW5,1,1*%
%TO.N,/RST*%
X147975000Y-99350000D03*
X140025000Y-99350000D03*
%TO.P,SW5,2,2*%
%TO.N,GND*%
X147975000Y-94850000D03*
X140025000Y-94850000D03*
%TD*%
D11*
%TO.P,J1,1,Pin_1*%
%TO.N,/K_DOWN*%
X198120000Y-104140000D03*
D12*
%TO.P,J1,2,Pin_2*%
%TO.N,/K_RIGHT*%
X195580000Y-104140000D03*
%TO.P,J1,3,Pin_3*%
%TO.N,/K_UP*%
X198120000Y-106680000D03*
%TO.P,J1,4,Pin_4*%
%TO.N,/K_LEFT*%
X195580000Y-106680000D03*
%TO.P,J1,5,Pin_5*%
%TO.N,/L_STAT*%
X198120000Y-109220000D03*
%TO.P,J1,6,Pin_6*%
%TO.N,/L_SYNC*%
X195580000Y-109220000D03*
%TO.P,J1,7,Pin_7*%
%TO.N,/RST*%
X198120000Y-111760000D03*
%TO.P,J1,8,Pin_8*%
%TO.N,unconnected-(J1-Pin_8-Pad8)*%
X195580000Y-111760000D03*
%TO.P,J1,9,Pin_9*%
%TO.N,+3.3V*%
X198120000Y-114300000D03*
%TO.P,J1,10,Pin_10*%
%TO.N,GND*%
X195580000Y-114300000D03*
%TD*%
D13*
%TO.P,D3,1,K*%
%TO.N,GND*%
X133600000Y-111300000D03*
%TO.P,D3,2,A*%
%TO.N,/L_SYNC*%
X135350000Y-111300000D03*
%TD*%
%TO.P,D2,1,K*%
%TO.N,GND*%
X133600000Y-108690000D03*
%TO.P,D2,2,A*%
%TO.N,/L_STAT*%
X135350000Y-108690000D03*
%TD*%
%TO.P,D1,1,K*%
%TO.N,GND*%
X133600000Y-106100000D03*
%TO.P,D1,2,A*%
%TO.N,Net-(D1-A)*%
X135350000Y-106100000D03*
%TD*%
D10*
%TO.P,SW2,1,1*%
%TO.N,/K_UP*%
X173465000Y-101090000D03*
X165515000Y-101090000D03*
%TO.P,SW2,2,2*%
%TO.N,GND*%
X173465000Y-96590000D03*
X165515000Y-96590000D03*
%TD*%
D14*
%TO.P,H1,1*%
%TO.N,N/C*%
X135000000Y-97000000D03*
%TD*%
%TO.P,H3,1*%
%TO.N,N/C*%
X204000000Y-121000000D03*
%TD*%
D10*
%TO.P,SW4,1,1*%
%TO.N,/K_DOWN*%
X165515000Y-116910000D03*
X173465000Y-116910000D03*
%TO.P,SW4,2,2*%
%TO.N,GND*%
X165515000Y-121410000D03*
X173465000Y-121410000D03*
%TD*%
D14*
%TO.P,H4,1*%
%TO.N,N/C*%
X135000000Y-121000000D03*
%TD*%
%TO.P,H2,1*%
%TO.N,N/C*%
X204000000Y-97000000D03*
%TD*%
D10*
%TO.P,SW3,1,1*%
%TO.N,/K_RIGHT*%
X180755000Y-106750000D03*
X188705000Y-106750000D03*
%TO.P,SW3,2,2*%
%TO.N,GND*%
X180755000Y-111250000D03*
X188705000Y-111250000D03*
%TD*%
%TO.P,SW1,1,1*%
%TO.N,/K_LEFT*%
X150275000Y-106750000D03*
X158225000Y-106750000D03*
%TO.P,SW1,2,2*%
%TO.N,GND*%
X150275000Y-111250000D03*
X158225000Y-111250000D03*
%TD*%
D15*
%TO.N,GND*%
X154300000Y-101800000D03*
X154250000Y-119250000D03*
X184750000Y-119250000D03*
X184750000Y-101800000D03*
%TO.N,Net-(D1-A)*%
X136700000Y-106100000D03*
%TD*%
D16*
%TO.N,Net-(D1-A)*%
X136700000Y-106100000D02*
X135350000Y-106100000D01*
%TO.N,/RST*%
X200400000Y-109480000D02*
X198120000Y-111760000D01*
X200400000Y-102600000D02*
X200400000Y-109480000D01*
X197150000Y-99350000D02*
X200400000Y-102600000D01*
X147975000Y-99350000D02*
X197150000Y-99350000D01*
%TO.N,/K_DOWN*%
X173465000Y-115955000D02*
X173465000Y-116910000D01*
X191300000Y-109620000D02*
X179800000Y-109620000D01*
X199270000Y-109830000D02*
X198490000Y-110610000D01*
X179800000Y-109620000D02*
X173465000Y-115955000D01*
X198490000Y-110610000D02*
X192290000Y-110610000D01*
X199270000Y-105290000D02*
X199270000Y-109830000D01*
X192290000Y-110610000D02*
X191300000Y-109620000D01*
X198120000Y-104140000D02*
X199270000Y-105290000D01*
%TO.N,/K_UP*%
X173465000Y-101365000D02*
X173465000Y-101090000D01*
X179800000Y-107700000D02*
X173465000Y-101365000D01*
X189780000Y-107700000D02*
X179800000Y-107700000D01*
X191950000Y-105530000D02*
X189780000Y-107700000D01*
X196970000Y-105530000D02*
X191950000Y-105530000D01*
X198120000Y-106680000D02*
X196970000Y-105530000D01*
%TO.N,/L_SYNC*%
X195580000Y-109220000D02*
X137430000Y-109220000D01*
X137430000Y-109220000D02*
X135350000Y-111300000D01*
%TO.N,/L_STAT*%
X135460000Y-108800000D02*
X135350000Y-108690000D01*
X191565686Y-108800000D02*
X135460000Y-108800000D01*
X196970000Y-108070000D02*
X192295686Y-108070000D01*
X192295686Y-108070000D02*
X191565686Y-108800000D01*
X198120000Y-109220000D02*
X196970000Y-108070000D01*
%TO.N,/K_LEFT*%
X191400000Y-108400000D02*
X193120000Y-106680000D01*
X159875000Y-108400000D02*
X191400000Y-108400000D01*
X193120000Y-106680000D02*
X195580000Y-106680000D01*
X158225000Y-106750000D02*
X159875000Y-108400000D01*
%TO.N,/K_RIGHT*%
X191315000Y-104140000D02*
X188705000Y-106750000D01*
X195580000Y-104140000D02*
X191315000Y-104140000D01*
%TO.N,/K_DOWN*%
X173465000Y-116910000D02*
X165515000Y-116910000D01*
%TO.N,/K_RIGHT*%
X188705000Y-106750000D02*
X188815000Y-106750000D01*
X180755000Y-106750000D02*
X188705000Y-106750000D01*
%TO.N,/K_LEFT*%
X150275000Y-106750000D02*
X158225000Y-106750000D01*
%TD*%
%TA.AperFunction,Conductor*%
%TO.N,GND*%
G36*
X196934855Y-112426546D02*
G01*
X196951575Y-112445842D01*
X197081501Y-112631396D01*
X197081506Y-112631402D01*
X197248597Y-112798493D01*
X197248603Y-112798498D01*
X197434158Y-112928425D01*
X197477783Y-112983002D01*
X197484977Y-113052500D01*
X197453454Y-113114855D01*
X197434158Y-113131575D01*
X197248597Y-113261505D01*
X197081505Y-113428597D01*
X196951269Y-113614595D01*
X196896692Y-113658220D01*
X196827194Y-113665414D01*
X196764839Y-113633891D01*
X196748119Y-113614595D01*
X196694925Y-113538626D01*
X196694925Y-113538625D01*
X196062962Y-114170589D01*
X196045925Y-114107007D01*
X195980099Y-113992993D01*
X195887007Y-113899901D01*
X195772993Y-113834075D01*
X195709410Y-113817037D01*
X196341373Y-113185073D01*
X196341373Y-113185072D01*
X196265405Y-113131880D01*
X196221780Y-113077304D01*
X196214586Y-113007805D01*
X196246108Y-112945451D01*
X196265399Y-112928734D01*
X196451401Y-112798495D01*
X196618495Y-112631401D01*
X196748425Y-112445842D01*
X196803002Y-112402217D01*
X196872500Y-112395023D01*
X196934855Y-112426546D01*
G37*
%TD.AperFunction*%
%TA.AperFunction,Conductor*%
G36*
X196916942Y-99970185D02*
G01*
X196937584Y-99986819D01*
X199763181Y-102812416D01*
X199796666Y-102873739D01*
X199799500Y-102900097D01*
X199799500Y-104670902D01*
X199779815Y-104737941D01*
X199727011Y-104783696D01*
X199657853Y-104793640D01*
X199594297Y-104764615D01*
X199587819Y-104758583D01*
X199506818Y-104677582D01*
X199473333Y-104616259D01*
X199470499Y-104589901D01*
X199470499Y-103489998D01*
X199470498Y-103489981D01*
X199459999Y-103387203D01*
X199459998Y-103387200D01*
X199426699Y-103286711D01*
X199404814Y-103220666D01*
X199312712Y-103071344D01*
X199188656Y-102947288D01*
X199095888Y-102890069D01*
X199039336Y-102855187D01*
X199039331Y-102855185D01*
X199019866Y-102848735D01*
X198872797Y-102800001D01*
X198872795Y-102800000D01*
X198770010Y-102789500D01*
X197469998Y-102789500D01*
X197469981Y-102789501D01*
X197367203Y-102800000D01*
X197367200Y-102800001D01*
X197200668Y-102855185D01*
X197200663Y-102855187D01*
X197051342Y-102947289D01*
X196927289Y-103071342D01*
X196835187Y-103220663D01*
X196835183Y-103220673D01*
X196832335Y-103229268D01*
X196792560Y-103286711D01*
X196728044Y-103313531D01*
X196659268Y-103301214D01*
X196622517Y-103272233D01*
X196622324Y-103272427D01*
X196620682Y-103270785D01*
X196619642Y-103269965D01*
X196618494Y-103268597D01*
X196451402Y-103101506D01*
X196451395Y-103101501D01*
X196257834Y-102965967D01*
X196257830Y-102965965D01*
X196217777Y-102947288D01*
X196043663Y-102866097D01*
X196043659Y-102866096D01*
X196043655Y-102866094D01*
X195815413Y-102804938D01*
X195815403Y-102804936D01*
X195580001Y-102784341D01*
X195579999Y-102784341D01*
X195344596Y-102804936D01*
X195344586Y-102804938D01*
X195116344Y-102866094D01*
X195116335Y-102866098D01*
X194902171Y-102965964D01*
X194902169Y-102965965D01*
X194708597Y-103101505D01*
X194541506Y-103268596D01*
X194405965Y-103462170D01*
X194405962Y-103462175D01*
X194403289Y-103467909D01*
X194357115Y-103520346D01*
X194290909Y-103539500D01*
X191235940Y-103539500D01*
X191195019Y-103550464D01*
X191195019Y-103550465D01*
X191157751Y-103560451D01*
X191083214Y-103580423D01*
X191083209Y-103580426D01*
X190946290Y-103659475D01*
X190946282Y-103659481D01*
X190834478Y-103771286D01*
X189042582Y-105563181D01*
X188981259Y-105596666D01*
X188954901Y-105599500D01*
X187882129Y-105599500D01*
X187882123Y-105599501D01*
X187822516Y-105605908D01*
X187687671Y-105656202D01*
X187687664Y-105656206D01*
X187572455Y-105742452D01*
X187572452Y-105742455D01*
X187486206Y-105857664D01*
X187486202Y-105857671D01*
X187435910Y-105992513D01*
X187435909Y-105992517D01*
X187430937Y-106038757D01*
X187404201Y-106103306D01*
X187346809Y-106143154D01*
X187307649Y-106149500D01*
X182152351Y-106149500D01*
X182085312Y-106129815D01*
X182039557Y-106077011D01*
X182029061Y-106038752D01*
X182024091Y-105992516D01*
X181973797Y-105857671D01*
X181973793Y-105857664D01*
X181887547Y-105742455D01*
X181887544Y-105742452D01*
X181772335Y-105656206D01*
X181772328Y-105656202D01*
X181637482Y-105605908D01*
X181637483Y-105605908D01*
X181577883Y-105599501D01*
X181577881Y-105599500D01*
X181577873Y-105599500D01*
X181577864Y-105599500D01*
X179932129Y-105599500D01*
X179932123Y-105599501D01*
X179872516Y-105605908D01*
X179737671Y-105656202D01*
X179737664Y-105656206D01*
X179622455Y-105742452D01*
X179622452Y-105742455D01*
X179536206Y-105857664D01*
X179536202Y-105857671D01*
X179485908Y-105992517D01*
X179479501Y-106052116D01*
X179479501Y-106052123D01*
X179479500Y-106052135D01*
X179479500Y-106230903D01*
X179459815Y-106297942D01*
X179407011Y-106343697D01*
X179337853Y-106353641D01*
X179274297Y-106324616D01*
X179267819Y-106318584D01*
X174776818Y-101827583D01*
X174743333Y-101766260D01*
X174740499Y-101739910D01*
X174740499Y-100392128D01*
X174734091Y-100332517D01*
X174700455Y-100242335D01*
X174683797Y-100197671D01*
X174683795Y-100197668D01*
X174647221Y-100148811D01*
X174622804Y-100083347D01*
X174637656Y-100015074D01*
X174687061Y-99965668D01*
X174746488Y-99950500D01*
X196849903Y-99950500D01*
X196916942Y-99970185D01*
G37*
%TD.AperFunction*%
%TA.AperFunction,Conductor*%
G36*
X207961952Y-91509939D02*
G01*
X208026119Y-91536517D01*
X208045212Y-91544426D01*
X208045215Y-91544427D01*
X208057737Y-91550456D01*
X208340006Y-91706461D01*
X208351779Y-91713859D01*
X208614789Y-91900475D01*
X208625649Y-91909135D01*
X208866127Y-92124039D01*
X208875960Y-92133872D01*
X209090859Y-92374344D01*
X209099528Y-92385216D01*
X209286139Y-92648219D01*
X209293538Y-92659993D01*
X209449539Y-92942255D01*
X209455572Y-92954783D01*
X209490061Y-93038046D01*
X209499500Y-93085499D01*
X209499500Y-124914499D01*
X209490061Y-124961952D01*
X209455572Y-125045216D01*
X209449539Y-125057744D01*
X209293538Y-125340006D01*
X209286139Y-125351780D01*
X209099528Y-125614783D01*
X209090859Y-125625655D01*
X208875960Y-125866127D01*
X208866127Y-125875960D01*
X208625655Y-126090859D01*
X208614783Y-126099528D01*
X208351780Y-126286139D01*
X208340006Y-126293538D01*
X208057744Y-126449539D01*
X208045216Y-126455572D01*
X207961953Y-126490061D01*
X207914500Y-126499500D01*
X131085500Y-126499500D01*
X131038047Y-126490061D01*
X130954783Y-126455572D01*
X130942255Y-126449539D01*
X130659993Y-126293538D01*
X130648219Y-126286139D01*
X130385216Y-126099528D01*
X130374344Y-126090859D01*
X130133872Y-125875960D01*
X130124039Y-125866127D01*
X129909140Y-125625655D01*
X129900475Y-125614789D01*
X129713859Y-125351779D01*
X129706461Y-125340006D01*
X129550460Y-125057744D01*
X129544431Y-125045224D01*
X129509938Y-124961950D01*
X129500500Y-124914499D01*
X129500500Y-120999997D01*
X131644579Y-120999997D01*
X131644579Y-121000002D01*
X131664248Y-121362782D01*
X131664250Y-121362799D01*
X131723024Y-121721303D01*
X131723030Y-121721329D01*
X131820221Y-122071381D01*
X131820226Y-122071396D01*
X131954700Y-122408901D01*
X131954706Y-122408913D01*
X132124878Y-122729892D01*
X132124881Y-122729897D01*
X132124883Y-122729900D01*
X132328773Y-123030614D01*
X132563979Y-123307521D01*
X132827746Y-123557375D01*
X133116981Y-123777245D01*
X133428292Y-123964555D01*
X133428294Y-123964556D01*
X133428296Y-123964557D01*
X133428300Y-123964559D01*
X133758020Y-124117103D01*
X133758031Y-124117108D01*
X134102330Y-124233116D01*
X134457153Y-124311218D01*
X134818341Y-124350500D01*
X134818347Y-124350500D01*
X135181653Y-124350500D01*
X135181659Y-124350500D01*
X135542847Y-124311218D01*
X135897670Y-124233116D01*
X136241969Y-124117108D01*
X136571708Y-123964555D01*
X136883019Y-123777245D01*
X137172254Y-123557375D01*
X137436021Y-123307521D01*
X137671227Y-123030614D01*
X137875117Y-122729900D01*
X138045298Y-122408905D01*
X138165251Y-122107844D01*
X164240000Y-122107844D01*
X164246401Y-122167372D01*
X164246403Y-122167379D01*
X164296645Y-122302086D01*
X164296649Y-122302093D01*
X164382809Y-122417187D01*
X164382812Y-122417190D01*
X164497906Y-122503350D01*
X164497913Y-122503354D01*
X164632620Y-122553596D01*
X164632627Y-122553598D01*
X164692155Y-122559999D01*
X164692172Y-122560000D01*
X165265000Y-122560000D01*
X165765000Y-122560000D01*
X166337828Y-122560000D01*
X166337844Y-122559999D01*
X166397372Y-122553598D01*
X166397379Y-122553596D01*
X166532086Y-122503354D01*
X166532093Y-122503350D01*
X166647187Y-122417190D01*
X166647190Y-122417187D01*
X166733350Y-122302093D01*
X166733354Y-122302086D01*
X166783596Y-122167379D01*
X166783598Y-122167372D01*
X166789999Y-122107844D01*
X172190000Y-122107844D01*
X172196401Y-122167372D01*
X172196403Y-122167379D01*
X172246645Y-122302086D01*
X172246649Y-122302093D01*
X172332809Y-122417187D01*
X172332812Y-122417190D01*
X172447906Y-122503350D01*
X172447913Y-122503354D01*
X172582620Y-122553596D01*
X172582627Y-122553598D01*
X172642155Y-122559999D01*
X172642172Y-122560000D01*
X173215000Y-122560000D01*
X173715000Y-122560000D01*
X174287828Y-122560000D01*
X174287844Y-122559999D01*
X174347372Y-122553598D01*
X174347379Y-122553596D01*
X174482086Y-122503354D01*
X174482093Y-122503350D01*
X174597187Y-122417190D01*
X174597190Y-122417187D01*
X174683350Y-122302093D01*
X174683354Y-122302086D01*
X174733596Y-122167379D01*
X174733598Y-122167372D01*
X174739999Y-122107844D01*
X174740000Y-122107827D01*
X174740000Y-121660000D01*
X173715000Y-121660000D01*
X173715000Y-122560000D01*
X173215000Y-122560000D01*
X173215000Y-121660000D01*
X172190000Y-121660000D01*
X172190000Y-122107844D01*
X166789999Y-122107844D01*
X166790000Y-122107827D01*
X166790000Y-121660000D01*
X165765000Y-121660000D01*
X165765000Y-122560000D01*
X165265000Y-122560000D01*
X165265000Y-121660000D01*
X164240000Y-121660000D01*
X164240000Y-122107844D01*
X138165251Y-122107844D01*
X138179775Y-122071391D01*
X138276973Y-121721316D01*
X138335751Y-121362785D01*
X138355421Y-121000000D01*
X138339814Y-120712155D01*
X164240000Y-120712155D01*
X164240000Y-121160000D01*
X165265000Y-121160000D01*
X165765000Y-121160000D01*
X166790000Y-121160000D01*
X166790000Y-120712172D01*
X166789999Y-120712155D01*
X172190000Y-120712155D01*
X172190000Y-121160000D01*
X173215000Y-121160000D01*
X173715000Y-121160000D01*
X174740000Y-121160000D01*
X174740000Y-120999997D01*
X200644579Y-120999997D01*
X200644579Y-121000002D01*
X200664248Y-121362782D01*
X200664250Y-121362799D01*
X200723024Y-121721303D01*
X200723030Y-121721329D01*
X200820221Y-122071381D01*
X200820226Y-122071396D01*
X200954700Y-122408901D01*
X200954706Y-122408913D01*
X201124878Y-122729892D01*
X201124881Y-122729897D01*
X201124883Y-122729900D01*
X201328773Y-123030614D01*
X201563979Y-123307521D01*
X201827746Y-123557375D01*
X202116981Y-123777245D01*
X202428292Y-123964555D01*
X202428294Y-123964556D01*
X202428296Y-123964557D01*
X202428300Y-123964559D01*
X202758020Y-124117103D01*
X202758031Y-124117108D01*
X203102330Y-124233116D01*
X203457153Y-124311218D01*
X203818341Y-124350500D01*
X203818347Y-124350500D01*
X204181653Y-124350500D01*
X204181659Y-124350500D01*
X204542847Y-124311218D01*
X204897670Y-124233116D01*
X205241969Y-124117108D01*
X205571708Y-123964555D01*
X205883019Y-123777245D01*
X206172254Y-123557375D01*
X206436021Y-123307521D01*
X206671227Y-123030614D01*
X206875117Y-122729900D01*
X207045298Y-122408905D01*
X207179775Y-122071391D01*
X207276973Y-121721316D01*
X207335751Y-121362785D01*
X207355421Y-121000000D01*
X207335751Y-120637215D01*
X207316192Y-120517913D01*
X207276975Y-120278696D01*
X207276974Y-120278695D01*
X207276973Y-120278684D01*
X207259097Y-120214303D01*
X207179778Y-119928618D01*
X207179773Y-119928603D01*
X207045299Y-119591098D01*
X207045298Y-119591095D01*
X206875117Y-119270100D01*
X206671227Y-118969386D01*
X206436021Y-118692479D01*
X206172254Y-118442625D01*
X206172244Y-118442617D01*
X206103635Y-118390462D01*
X205883019Y-118222755D01*
X205571708Y-118035445D01*
X205571707Y-118035444D01*
X205571703Y-118035442D01*
X205571699Y-118035440D01*
X205241979Y-117882896D01*
X205241974Y-117882894D01*
X205241969Y-117882892D01*
X205002885Y-117802335D01*
X204897669Y-117766883D01*
X204542845Y-117688781D01*
X204181660Y-117649500D01*
X204181659Y-117649500D01*
X203818341Y-117649500D01*
X203818339Y-117649500D01*
X203457154Y-117688781D01*
X203102330Y-117766883D01*
X202836178Y-117856560D01*
X202758031Y-117882892D01*
X202758028Y-117882893D01*
X202758020Y-117882896D01*
X202428300Y-118035440D01*
X202428296Y-118035442D01*
X202386650Y-118060500D01*
X202116981Y-118222755D01*
X202027332Y-118290903D01*
X201827755Y-118442617D01*
X201827745Y-118442625D01*
X201563978Y-118692479D01*
X201328772Y-118969386D01*
X201124884Y-119270098D01*
X201124878Y-119270107D01*
X200954706Y-119591086D01*
X200954700Y-119591098D01*
X200820226Y-119928603D01*
X200820221Y-119928618D01*
X200723030Y-120278670D01*
X200723024Y-120278696D01*
X200664250Y-120637200D01*
X200664248Y-120637217D01*
X200644579Y-120999997D01*
X174740000Y-120999997D01*
X174740000Y-120712172D01*
X174739999Y-120712155D01*
X174733598Y-120652627D01*
X174733596Y-120652620D01*
X174683354Y-120517913D01*
X174683350Y-120517906D01*
X174597190Y-120402812D01*
X174597187Y-120402809D01*
X174482093Y-120316649D01*
X174482086Y-120316645D01*
X174347379Y-120266403D01*
X174347372Y-120266401D01*
X174287844Y-120260000D01*
X173715000Y-120260000D01*
X173715000Y-121160000D01*
X173215000Y-121160000D01*
X173215000Y-120260000D01*
X172642155Y-120260000D01*
X172582627Y-120266401D01*
X172582620Y-120266403D01*
X172447913Y-120316645D01*
X172447906Y-120316649D01*
X172332812Y-120402809D01*
X172332809Y-120402812D01*
X172246649Y-120517906D01*
X172246645Y-120517913D01*
X172196403Y-120652620D01*
X172196401Y-120652627D01*
X172190000Y-120712155D01*
X166789999Y-120712155D01*
X166783598Y-120652627D01*
X166783596Y-120652620D01*
X166733354Y-120517913D01*
X166733350Y-120517906D01*
X166647190Y-120402812D01*
X166647187Y-120402809D01*
X166532093Y-120316649D01*
X166532086Y-120316645D01*
X166397379Y-120266403D01*
X166397372Y-120266401D01*
X166337844Y-120260000D01*
X165765000Y-120260000D01*
X165765000Y-121160000D01*
X165265000Y-121160000D01*
X165265000Y-120260000D01*
X164692155Y-120260000D01*
X164632627Y-120266401D01*
X164632620Y-120266403D01*
X164497913Y-120316645D01*
X164497906Y-120316649D01*
X164382812Y-120402809D01*
X164382809Y-120402812D01*
X164296649Y-120517906D01*
X164296645Y-120517913D01*
X164246403Y-120652620D01*
X164246401Y-120652627D01*
X164240000Y-120712155D01*
X138339814Y-120712155D01*
X138335751Y-120637215D01*
X138316192Y-120517913D01*
X138276975Y-120278696D01*
X138276974Y-120278695D01*
X138276973Y-120278684D01*
X138259097Y-120214303D01*
X138179778Y-119928618D01*
X138179773Y-119928603D01*
X138045299Y-119591098D01*
X138045298Y-119591095D01*
X137875117Y-119270100D01*
X137671227Y-118969386D01*
X137436021Y-118692479D01*
X137172254Y-118442625D01*
X137172244Y-118442617D01*
X137103635Y-118390462D01*
X136883019Y-118222755D01*
X136571708Y-118035445D01*
X136571707Y-118035444D01*
X136571703Y-118035442D01*
X136571699Y-118035440D01*
X136241979Y-117882896D01*
X136241974Y-117882894D01*
X136241969Y-117882892D01*
X136002885Y-117802335D01*
X135897669Y-117766883D01*
X135542845Y-117688781D01*
X135181660Y-117649500D01*
X135181659Y-117649500D01*
X134818341Y-117649500D01*
X134818339Y-117649500D01*
X134457154Y-117688781D01*
X134102330Y-117766883D01*
X133836178Y-117856560D01*
X133758031Y-117882892D01*
X133758028Y-117882893D01*
X133758020Y-117882896D01*
X133428300Y-118035440D01*
X133428296Y-118035442D01*
X133386650Y-118060500D01*
X133116981Y-118222755D01*
X133027332Y-118290903D01*
X132827755Y-118442617D01*
X132827745Y-118442625D01*
X132563978Y-118692479D01*
X132328772Y-118969386D01*
X132124884Y-119270098D01*
X132124878Y-119270107D01*
X131954706Y-119591086D01*
X131954700Y-119591098D01*
X131820226Y-119928603D01*
X131820221Y-119928618D01*
X131723030Y-120278670D01*
X131723024Y-120278696D01*
X131664250Y-120637200D01*
X131664248Y-120637217D01*
X131644579Y-120999997D01*
X129500500Y-120999997D01*
X129500500Y-111586654D01*
X132575001Y-111586654D01*
X132585319Y-111687652D01*
X132639546Y-111851300D01*
X132639551Y-111851311D01*
X132730052Y-111998034D01*
X132730055Y-111998038D01*
X132851961Y-112119944D01*
X132851965Y-112119947D01*
X132998688Y-112210448D01*
X132998699Y-112210453D01*
X133162347Y-112264680D01*
X133263351Y-112274999D01*
X133350000Y-112274998D01*
X133350000Y-111550000D01*
X132575001Y-111550000D01*
X132575001Y-111586654D01*
X129500500Y-111586654D01*
X129500500Y-111013345D01*
X132575000Y-111013345D01*
X132575000Y-111050000D01*
X133350000Y-111050000D01*
X133350000Y-110325000D01*
X133349999Y-110324999D01*
X133263360Y-110325000D01*
X133263343Y-110325001D01*
X133162347Y-110335319D01*
X132998699Y-110389546D01*
X132998688Y-110389551D01*
X132851965Y-110480052D01*
X132851961Y-110480055D01*
X132730055Y-110601961D01*
X132730052Y-110601965D01*
X132639551Y-110748688D01*
X132639546Y-110748699D01*
X132585319Y-110912347D01*
X132575000Y-111013345D01*
X129500500Y-111013345D01*
X129500500Y-108976654D01*
X132575001Y-108976654D01*
X132585319Y-109077652D01*
X132639546Y-109241300D01*
X132639551Y-109241311D01*
X132730052Y-109388034D01*
X132730055Y-109388038D01*
X132851961Y-109509944D01*
X132851965Y-109509947D01*
X132998688Y-109600448D01*
X132998699Y-109600453D01*
X133162347Y-109654680D01*
X133263351Y-109664999D01*
X133350000Y-109664998D01*
X133350000Y-108940000D01*
X132575001Y-108940000D01*
X132575001Y-108976654D01*
X129500500Y-108976654D01*
X129500500Y-108403345D01*
X132575000Y-108403345D01*
X132575000Y-108440000D01*
X133350000Y-108440000D01*
X133350000Y-107715000D01*
X133850000Y-107715000D01*
X133850000Y-109664999D01*
X133936640Y-109664999D01*
X133936654Y-109664998D01*
X134037652Y-109654680D01*
X134201300Y-109600453D01*
X134201311Y-109600448D01*
X134348034Y-109509947D01*
X134348037Y-109509945D01*
X134386964Y-109471018D01*
X134448287Y-109437532D01*
X134517978Y-109442516D01*
X134562327Y-109471017D01*
X134601650Y-109510340D01*
X134748484Y-109600908D01*
X134912247Y-109655174D01*
X135013323Y-109665500D01*
X135686676Y-109665499D01*
X135686684Y-109665498D01*
X135686687Y-109665498D01*
X135742030Y-109659844D01*
X135787753Y-109655174D01*
X135826287Y-109642404D01*
X135896112Y-109640001D01*
X135956155Y-109675731D01*
X135987349Y-109738251D01*
X135979791Y-109807711D01*
X135952972Y-109847791D01*
X135512582Y-110288181D01*
X135451259Y-110321666D01*
X135424901Y-110324500D01*
X135013330Y-110324500D01*
X135013312Y-110324501D01*
X134912247Y-110334825D01*
X134748484Y-110389092D01*
X134748481Y-110389093D01*
X134601648Y-110479661D01*
X134562326Y-110518983D01*
X134501003Y-110552468D01*
X134431311Y-110547482D01*
X134386965Y-110518982D01*
X134348038Y-110480055D01*
X134348034Y-110480052D01*
X134201311Y-110389551D01*
X134201300Y-110389546D01*
X134037652Y-110335319D01*
X133936654Y-110325000D01*
X133850000Y-110325000D01*
X133850000Y-112274999D01*
X133936640Y-112274999D01*
X133936654Y-112274998D01*
X134037652Y-112264680D01*
X134201300Y-112210453D01*
X134201311Y-112210448D01*
X134348034Y-112119947D01*
X134348037Y-112119945D01*
X134386964Y-112081018D01*
X134448287Y-112047532D01*
X134517978Y-112052516D01*
X134562327Y-112081017D01*
X134601650Y-112120340D01*
X134748484Y-112210908D01*
X134912247Y-112265174D01*
X135013323Y-112275500D01*
X135686676Y-112275499D01*
X135686684Y-112275498D01*
X135686687Y-112275498D01*
X135742030Y-112269844D01*
X135787753Y-112265174D01*
X135951516Y-112210908D01*
X136098350Y-112120340D01*
X136220340Y-111998350D01*
X136251492Y-111947844D01*
X149000000Y-111947844D01*
X149006401Y-112007372D01*
X149006403Y-112007379D01*
X149056645Y-112142086D01*
X149056649Y-112142093D01*
X149142809Y-112257187D01*
X149142812Y-112257190D01*
X149257906Y-112343350D01*
X149257913Y-112343354D01*
X149392620Y-112393596D01*
X149392627Y-112393598D01*
X149452155Y-112399999D01*
X149452172Y-112400000D01*
X150025000Y-112400000D01*
X150525000Y-112400000D01*
X151097828Y-112400000D01*
X151097844Y-112399999D01*
X151157372Y-112393598D01*
X151157379Y-112393596D01*
X151292086Y-112343354D01*
X151292093Y-112343350D01*
X151407187Y-112257190D01*
X151407190Y-112257187D01*
X151493350Y-112142093D01*
X151493354Y-112142086D01*
X151543596Y-112007379D01*
X151543598Y-112007372D01*
X151549999Y-111947844D01*
X156950000Y-111947844D01*
X156956401Y-112007372D01*
X156956403Y-112007379D01*
X157006645Y-112142086D01*
X157006649Y-112142093D01*
X157092809Y-112257187D01*
X157092812Y-112257190D01*
X157207906Y-112343350D01*
X157207913Y-112343354D01*
X157342620Y-112393596D01*
X157342627Y-112393598D01*
X157402155Y-112399999D01*
X157402172Y-112400000D01*
X157975000Y-112400000D01*
X158475000Y-112400000D01*
X159047828Y-112400000D01*
X159047844Y-112399999D01*
X159107372Y-112393598D01*
X159107379Y-112393596D01*
X159242086Y-112343354D01*
X159242093Y-112343350D01*
X159357187Y-112257190D01*
X159357190Y-112257187D01*
X159443350Y-112142093D01*
X159443354Y-112142086D01*
X159493596Y-112007379D01*
X159493598Y-112007372D01*
X159499999Y-111947844D01*
X159500000Y-111947827D01*
X159500000Y-111500000D01*
X158475000Y-111500000D01*
X158475000Y-112400000D01*
X157975000Y-112400000D01*
X157975000Y-111500000D01*
X156950000Y-111500000D01*
X156950000Y-111947844D01*
X151549999Y-111947844D01*
X151550000Y-111947827D01*
X151550000Y-111500000D01*
X150525000Y-111500000D01*
X150525000Y-112400000D01*
X150025000Y-112400000D01*
X150025000Y-111500000D01*
X149000000Y-111500000D01*
X149000000Y-111947844D01*
X136251492Y-111947844D01*
X136310908Y-111851516D01*
X136365174Y-111687753D01*
X136375500Y-111586677D01*
X136375499Y-111175095D01*
X136395183Y-111108057D01*
X136411813Y-111087420D01*
X136947079Y-110552155D01*
X149000000Y-110552155D01*
X149000000Y-111000000D01*
X150025000Y-111000000D01*
X150525000Y-111000000D01*
X151550000Y-111000000D01*
X151550000Y-110552172D01*
X151549999Y-110552155D01*
X156950000Y-110552155D01*
X156950000Y-111000000D01*
X157975000Y-111000000D01*
X158475000Y-111000000D01*
X159500000Y-111000000D01*
X159500000Y-110552172D01*
X159499999Y-110552155D01*
X159493598Y-110492627D01*
X159493596Y-110492620D01*
X159443354Y-110357913D01*
X159443350Y-110357906D01*
X159357190Y-110242812D01*
X159357187Y-110242809D01*
X159242093Y-110156649D01*
X159242086Y-110156645D01*
X159107379Y-110106403D01*
X159107372Y-110106401D01*
X159047844Y-110100000D01*
X158475000Y-110100000D01*
X158475000Y-111000000D01*
X157975000Y-111000000D01*
X157975000Y-110100000D01*
X157402155Y-110100000D01*
X157342627Y-110106401D01*
X157342620Y-110106403D01*
X157207913Y-110156645D01*
X157207906Y-110156649D01*
X157092812Y-110242809D01*
X157092809Y-110242812D01*
X157006649Y-110357906D01*
X157006645Y-110357913D01*
X156956403Y-110492620D01*
X156956401Y-110492627D01*
X156950000Y-110552155D01*
X151549999Y-110552155D01*
X151543598Y-110492627D01*
X151543596Y-110492620D01*
X151493354Y-110357913D01*
X151493350Y-110357906D01*
X151407190Y-110242812D01*
X151407187Y-110242809D01*
X151292093Y-110156649D01*
X151292086Y-110156645D01*
X151157379Y-110106403D01*
X151157372Y-110106401D01*
X151097844Y-110100000D01*
X150525000Y-110100000D01*
X150525000Y-111000000D01*
X150025000Y-111000000D01*
X150025000Y-110100000D01*
X149452155Y-110100000D01*
X149392627Y-110106401D01*
X149392620Y-110106403D01*
X149257913Y-110156645D01*
X149257906Y-110156649D01*
X149142812Y-110242809D01*
X149142809Y-110242812D01*
X149056649Y-110357906D01*
X149056645Y-110357913D01*
X149006403Y-110492620D01*
X149006401Y-110492627D01*
X149000000Y-110552155D01*
X136947079Y-110552155D01*
X137642416Y-109856819D01*
X137703739Y-109823334D01*
X137730097Y-109820500D01*
X178450903Y-109820500D01*
X178517942Y-109840185D01*
X178563697Y-109892989D01*
X178573641Y-109962147D01*
X178544616Y-110025703D01*
X178538584Y-110032181D01*
X173096286Y-115474478D01*
X172984481Y-115586282D01*
X172984479Y-115586284D01*
X172964685Y-115620570D01*
X172956320Y-115635061D01*
X172956319Y-115635062D01*
X172956317Y-115635064D01*
X172920268Y-115697501D01*
X172869701Y-115745716D01*
X172812883Y-115759500D01*
X172642130Y-115759500D01*
X172642123Y-115759501D01*
X172582516Y-115765908D01*
X172447671Y-115816202D01*
X172447664Y-115816206D01*
X172332455Y-115902452D01*
X172332452Y-115902455D01*
X172246206Y-116017664D01*
X172246202Y-116017671D01*
X172195910Y-116152513D01*
X172195909Y-116152517D01*
X172190937Y-116198757D01*
X172164201Y-116263306D01*
X172106809Y-116303154D01*
X172067649Y-116309500D01*
X166912351Y-116309500D01*
X166845312Y-116289815D01*
X166799557Y-116237011D01*
X166789061Y-116198752D01*
X166784091Y-116152516D01*
X166733797Y-116017671D01*
X166733793Y-116017664D01*
X166647547Y-115902455D01*
X166647544Y-115902452D01*
X166532335Y-115816206D01*
X166532328Y-115816202D01*
X166397482Y-115765908D01*
X166397483Y-115765908D01*
X166337883Y-115759501D01*
X166337881Y-115759500D01*
X166337873Y-115759500D01*
X166337864Y-115759500D01*
X164692129Y-115759500D01*
X164692123Y-115759501D01*
X164632516Y-115765908D01*
X164497671Y-115816202D01*
X164497664Y-115816206D01*
X164382455Y-115902452D01*
X164382452Y-115902455D01*
X164296206Y-116017664D01*
X164296202Y-116017671D01*
X164245908Y-116152517D01*
X164239501Y-116212116D01*
X164239501Y-116212123D01*
X164239500Y-116212135D01*
X164239500Y-117607870D01*
X164239501Y-117607876D01*
X164245908Y-117667483D01*
X164296202Y-117802328D01*
X164296206Y-117802335D01*
X164382452Y-117917544D01*
X164382455Y-117917547D01*
X164497664Y-118003793D01*
X164497671Y-118003797D01*
X164632517Y-118054091D01*
X164632516Y-118054091D01*
X164639444Y-118054835D01*
X164692127Y-118060500D01*
X166337872Y-118060499D01*
X166397483Y-118054091D01*
X166532331Y-118003796D01*
X166647546Y-117917546D01*
X166733796Y-117802331D01*
X166784091Y-117667483D01*
X166789062Y-117621242D01*
X166815799Y-117556694D01*
X166873191Y-117516846D01*
X166912351Y-117510500D01*
X172067649Y-117510500D01*
X172134688Y-117530185D01*
X172180443Y-117582989D01*
X172190939Y-117621248D01*
X172195908Y-117667483D01*
X172246202Y-117802328D01*
X172246206Y-117802335D01*
X172332452Y-117917544D01*
X172332455Y-117917547D01*
X172447664Y-118003793D01*
X172447671Y-118003797D01*
X172582517Y-118054091D01*
X172582516Y-118054091D01*
X172589444Y-118054835D01*
X172642127Y-118060500D01*
X174287872Y-118060499D01*
X174347483Y-118054091D01*
X174482331Y-118003796D01*
X174597546Y-117917546D01*
X174683796Y-117802331D01*
X174734091Y-117667483D01*
X174740500Y-117607873D01*
X174740499Y-116212128D01*
X174734091Y-116152517D01*
X174683796Y-116017669D01*
X174683795Y-116017668D01*
X174683793Y-116017664D01*
X174597548Y-115902457D01*
X174597546Y-115902454D01*
X174580130Y-115889416D01*
X174538261Y-115833486D01*
X174533277Y-115763795D01*
X174566758Y-115702475D01*
X178321389Y-111947844D01*
X179480000Y-111947844D01*
X179486401Y-112007372D01*
X179486403Y-112007379D01*
X179536645Y-112142086D01*
X179536649Y-112142093D01*
X179622809Y-112257187D01*
X179622812Y-112257190D01*
X179737906Y-112343350D01*
X179737913Y-112343354D01*
X179872620Y-112393596D01*
X179872627Y-112393598D01*
X179932155Y-112399999D01*
X179932172Y-112400000D01*
X180505000Y-112400000D01*
X181005000Y-112400000D01*
X181577828Y-112400000D01*
X181577844Y-112399999D01*
X181637372Y-112393598D01*
X181637379Y-112393596D01*
X181772086Y-112343354D01*
X181772093Y-112343350D01*
X181887187Y-112257190D01*
X181887190Y-112257187D01*
X181973350Y-112142093D01*
X181973354Y-112142086D01*
X182023596Y-112007379D01*
X182023598Y-112007372D01*
X182029999Y-111947844D01*
X187430000Y-111947844D01*
X187436401Y-112007372D01*
X187436403Y-112007379D01*
X187486645Y-112142086D01*
X187486649Y-112142093D01*
X187572809Y-112257187D01*
X187572812Y-112257190D01*
X187687906Y-112343350D01*
X187687913Y-112343354D01*
X187822620Y-112393596D01*
X187822627Y-112393598D01*
X187882155Y-112399999D01*
X187882172Y-112400000D01*
X188455000Y-112400000D01*
X188955000Y-112400000D01*
X189527828Y-112400000D01*
X189527844Y-112399999D01*
X189587372Y-112393598D01*
X189587379Y-112393596D01*
X189722086Y-112343354D01*
X189722093Y-112343350D01*
X189837187Y-112257190D01*
X189837190Y-112257187D01*
X189923350Y-112142093D01*
X189923354Y-112142086D01*
X189973596Y-112007379D01*
X189973598Y-112007372D01*
X189979999Y-111947844D01*
X189980000Y-111947827D01*
X189980000Y-111500000D01*
X188955000Y-111500000D01*
X188955000Y-112400000D01*
X188455000Y-112400000D01*
X188455000Y-111500000D01*
X187430000Y-111500000D01*
X187430000Y-111947844D01*
X182029999Y-111947844D01*
X182030000Y-111947827D01*
X182030000Y-111500000D01*
X181005000Y-111500000D01*
X181005000Y-112400000D01*
X180505000Y-112400000D01*
X180505000Y-111500000D01*
X179480000Y-111500000D01*
X179480000Y-111947844D01*
X178321389Y-111947844D01*
X179286937Y-110982296D01*
X179348259Y-110948813D01*
X179417951Y-110953797D01*
X179462298Y-110982298D01*
X179480000Y-111000000D01*
X182030000Y-111000000D01*
X182030000Y-110552172D01*
X182029999Y-110552155D01*
X182023598Y-110492627D01*
X182023596Y-110492619D01*
X181984514Y-110387833D01*
X181979530Y-110318141D01*
X182013015Y-110256818D01*
X182074339Y-110223334D01*
X182100696Y-110220500D01*
X187359304Y-110220500D01*
X187426343Y-110240185D01*
X187472098Y-110292989D01*
X187482042Y-110362147D01*
X187475486Y-110387833D01*
X187436403Y-110492619D01*
X187436401Y-110492627D01*
X187430000Y-110552155D01*
X187430000Y-111000000D01*
X189980000Y-111000000D01*
X189980000Y-110552172D01*
X189979999Y-110552155D01*
X189973598Y-110492627D01*
X189973596Y-110492619D01*
X189934514Y-110387833D01*
X189929530Y-110318141D01*
X189963015Y-110256818D01*
X190024339Y-110223334D01*
X190050696Y-110220500D01*
X190999903Y-110220500D01*
X191066942Y-110240185D01*
X191087584Y-110256819D01*
X191805139Y-110974374D01*
X191805149Y-110974385D01*
X191809479Y-110978715D01*
X191809480Y-110978716D01*
X191921284Y-111090520D01*
X191921286Y-111090521D01*
X191921290Y-111090524D01*
X192058209Y-111169573D01*
X192058216Y-111169577D01*
X192170019Y-111199534D01*
X192210942Y-111210500D01*
X192210943Y-111210500D01*
X194167497Y-111210500D01*
X194234536Y-111230185D01*
X194280291Y-111282989D01*
X194290235Y-111352147D01*
X194287272Y-111366593D01*
X194244938Y-111524586D01*
X194244936Y-111524596D01*
X194224341Y-111759999D01*
X194224341Y-111760000D01*
X194244936Y-111995403D01*
X194244938Y-111995413D01*
X194306094Y-112223655D01*
X194306096Y-112223659D01*
X194306097Y-112223663D01*
X194330269Y-112275499D01*
X194405965Y-112437830D01*
X194405967Y-112437834D01*
X194514281Y-112592521D01*
X194541505Y-112631401D01*
X194708599Y-112798495D01*
X194894158Y-112928425D01*
X194894594Y-112928730D01*
X194938218Y-112983307D01*
X194945411Y-113052806D01*
X194913889Y-113115160D01*
X194894593Y-113131880D01*
X194818626Y-113185072D01*
X194818625Y-113185072D01*
X195450590Y-113817037D01*
X195387007Y-113834075D01*
X195272993Y-113899901D01*
X195179901Y-113992993D01*
X195114075Y-114107007D01*
X195097037Y-114170589D01*
X194465073Y-113538625D01*
X194465072Y-113538625D01*
X194406401Y-113622419D01*
X194306570Y-113836507D01*
X194306566Y-113836516D01*
X194245432Y-114064673D01*
X194245430Y-114064684D01*
X194224843Y-114299998D01*
X194224843Y-114300001D01*
X194245430Y-114535315D01*
X194245432Y-114535326D01*
X194306566Y-114763483D01*
X194306570Y-114763492D01*
X194406400Y-114977579D01*
X194406402Y-114977583D01*
X194465072Y-115061373D01*
X194465073Y-115061373D01*
X195097037Y-114429409D01*
X195114075Y-114492993D01*
X195179901Y-114607007D01*
X195272993Y-114700099D01*
X195387007Y-114765925D01*
X195450590Y-114782962D01*
X194818625Y-115414925D01*
X194902421Y-115473599D01*
X195116507Y-115573429D01*
X195116516Y-115573433D01*
X195344673Y-115634567D01*
X195344684Y-115634569D01*
X195579998Y-115655157D01*
X195580002Y-115655157D01*
X195815315Y-115634569D01*
X195815326Y-115634567D01*
X196043483Y-115573433D01*
X196043492Y-115573429D01*
X196257578Y-115473600D01*
X196257582Y-115473598D01*
X196341373Y-115414926D01*
X196341373Y-115414925D01*
X195709409Y-114782962D01*
X195772993Y-114765925D01*
X195887007Y-114700099D01*
X195980099Y-114607007D01*
X196045925Y-114492993D01*
X196062962Y-114429409D01*
X196694925Y-115061373D01*
X196748119Y-114985405D01*
X196802696Y-114941781D01*
X196872195Y-114934588D01*
X196934549Y-114966110D01*
X196951269Y-114985405D01*
X197081505Y-115171401D01*
X197248599Y-115338495D01*
X197345384Y-115406265D01*
X197442165Y-115474032D01*
X197442167Y-115474033D01*
X197442170Y-115474035D01*
X197656337Y-115573903D01*
X197884592Y-115635063D01*
X198072918Y-115651539D01*
X198119999Y-115655659D01*
X198120000Y-115655659D01*
X198120001Y-115655659D01*
X198159234Y-115652226D01*
X198355408Y-115635063D01*
X198583663Y-115573903D01*
X198797830Y-115474035D01*
X198991401Y-115338495D01*
X199158495Y-115171401D01*
X199294035Y-114977830D01*
X199393903Y-114763663D01*
X199455063Y-114535408D01*
X199475659Y-114300000D01*
X199455063Y-114064592D01*
X199393903Y-113836337D01*
X199294035Y-113622171D01*
X199288731Y-113614595D01*
X199158494Y-113428597D01*
X198991402Y-113261506D01*
X198991396Y-113261501D01*
X198805842Y-113131575D01*
X198762217Y-113076998D01*
X198755023Y-113007500D01*
X198786546Y-112945145D01*
X198805842Y-112928425D01*
X198828026Y-112912891D01*
X198991401Y-112798495D01*
X199158495Y-112631401D01*
X199294035Y-112437830D01*
X199393903Y-112223663D01*
X199455063Y-111995408D01*
X199475659Y-111760000D01*
X199455063Y-111524592D01*
X199420671Y-111396239D01*
X199422334Y-111326393D01*
X199452763Y-111276470D01*
X200758506Y-109970728D01*
X200758511Y-109970724D01*
X200768714Y-109960520D01*
X200768716Y-109960520D01*
X200880520Y-109848716D01*
X200936969Y-109750942D01*
X200959577Y-109711785D01*
X201000501Y-109559057D01*
X201000501Y-109400943D01*
X201000501Y-109393348D01*
X201000500Y-109393330D01*
X201000500Y-102520945D01*
X201000500Y-102520943D01*
X200959577Y-102368216D01*
X200959577Y-102368215D01*
X200959577Y-102368214D01*
X200930639Y-102318095D01*
X200930637Y-102318092D01*
X200897204Y-102260183D01*
X200880520Y-102231284D01*
X200768716Y-102119480D01*
X200768715Y-102119479D01*
X200764385Y-102115149D01*
X200764374Y-102115139D01*
X197637590Y-98988355D01*
X197637588Y-98988352D01*
X197518717Y-98869481D01*
X197518716Y-98869480D01*
X197431904Y-98819360D01*
X197431904Y-98819359D01*
X197431900Y-98819358D01*
X197381785Y-98790423D01*
X197229057Y-98749499D01*
X197070943Y-98749499D01*
X197063347Y-98749499D01*
X197063331Y-98749500D01*
X149372351Y-98749500D01*
X149305312Y-98729815D01*
X149259557Y-98677011D01*
X149249061Y-98638752D01*
X149244091Y-98592516D01*
X149193797Y-98457671D01*
X149193793Y-98457664D01*
X149107547Y-98342455D01*
X149107544Y-98342452D01*
X148992335Y-98256206D01*
X148992328Y-98256202D01*
X148857482Y-98205908D01*
X148857483Y-98205908D01*
X148797883Y-98199501D01*
X148797881Y-98199500D01*
X148797873Y-98199500D01*
X148797864Y-98199500D01*
X147152129Y-98199500D01*
X147152123Y-98199501D01*
X147092516Y-98205908D01*
X146957671Y-98256202D01*
X146957664Y-98256206D01*
X146842455Y-98342452D01*
X146842452Y-98342455D01*
X146756206Y-98457664D01*
X146756202Y-98457671D01*
X146705908Y-98592517D01*
X146700938Y-98638752D01*
X146699501Y-98652123D01*
X146699500Y-98652135D01*
X146699500Y-100047870D01*
X146699501Y-100047876D01*
X146705908Y-100107483D01*
X146756202Y-100242328D01*
X146756206Y-100242335D01*
X146842452Y-100357544D01*
X146842455Y-100357547D01*
X146957664Y-100443793D01*
X146957671Y-100443797D01*
X147092517Y-100494091D01*
X147092516Y-100494091D01*
X147099444Y-100494835D01*
X147152127Y-100500500D01*
X148797872Y-100500499D01*
X148857483Y-100494091D01*
X148992331Y-100443796D01*
X149107546Y-100357546D01*
X149193796Y-100242331D01*
X149244091Y-100107483D01*
X149249062Y-100061242D01*
X149275799Y-99996694D01*
X149333191Y-99956846D01*
X149372351Y-99950500D01*
X164233512Y-99950500D01*
X164300551Y-99970185D01*
X164346306Y-100022989D01*
X164356250Y-100092147D01*
X164332779Y-100148811D01*
X164296204Y-100197668D01*
X164296202Y-100197671D01*
X164245908Y-100332517D01*
X164239501Y-100392116D01*
X164239501Y-100392123D01*
X164239500Y-100392135D01*
X164239500Y-101787870D01*
X164239501Y-101787876D01*
X164245908Y-101847483D01*
X164296202Y-101982328D01*
X164296206Y-101982335D01*
X164382452Y-102097544D01*
X164382455Y-102097547D01*
X164497664Y-102183793D01*
X164497671Y-102183797D01*
X164632517Y-102234091D01*
X164632516Y-102234091D01*
X164639444Y-102234835D01*
X164692127Y-102240500D01*
X166337872Y-102240499D01*
X166397483Y-102234091D01*
X166532331Y-102183796D01*
X166647546Y-102097546D01*
X166733796Y-101982331D01*
X166784091Y-101847483D01*
X166790500Y-101787873D01*
X166790499Y-100392128D01*
X166784091Y-100332517D01*
X166750455Y-100242335D01*
X166733797Y-100197671D01*
X166733795Y-100197668D01*
X166697221Y-100148811D01*
X166672804Y-100083347D01*
X166687656Y-100015074D01*
X166737061Y-99965668D01*
X166796488Y-99950500D01*
X172183512Y-99950500D01*
X172250551Y-99970185D01*
X172296306Y-100022989D01*
X172306250Y-100092147D01*
X172282779Y-100148811D01*
X172246204Y-100197668D01*
X172246202Y-100197671D01*
X172195908Y-100332517D01*
X172189501Y-100392116D01*
X172189501Y-100392123D01*
X172189500Y-100392135D01*
X172189500Y-101787870D01*
X172189501Y-101787876D01*
X172195908Y-101847483D01*
X172246202Y-101982328D01*
X172246206Y-101982335D01*
X172332452Y-102097544D01*
X172332455Y-102097547D01*
X172447664Y-102183793D01*
X172447671Y-102183797D01*
X172582517Y-102234091D01*
X172582516Y-102234091D01*
X172589444Y-102234835D01*
X172642127Y-102240500D01*
X173439902Y-102240499D01*
X173506941Y-102260183D01*
X173527583Y-102276818D01*
X178838584Y-107587819D01*
X178872069Y-107649142D01*
X178867085Y-107718834D01*
X178825213Y-107774767D01*
X178759749Y-107799184D01*
X178750903Y-107799500D01*
X160175097Y-107799500D01*
X160108058Y-107779815D01*
X160087416Y-107763181D01*
X159536818Y-107212583D01*
X159503333Y-107151260D01*
X159500499Y-107124902D01*
X159500499Y-106052129D01*
X159500498Y-106052123D01*
X159500497Y-106052116D01*
X159494091Y-105992517D01*
X159443796Y-105857669D01*
X159443795Y-105857668D01*
X159443793Y-105857664D01*
X159357547Y-105742455D01*
X159357544Y-105742452D01*
X159242335Y-105656206D01*
X159242328Y-105656202D01*
X159107482Y-105605908D01*
X159107483Y-105605908D01*
X159047883Y-105599501D01*
X159047881Y-105599500D01*
X159047873Y-105599500D01*
X159047864Y-105599500D01*
X157402129Y-105599500D01*
X157402123Y-105599501D01*
X157342516Y-105605908D01*
X157207671Y-105656202D01*
X157207664Y-105656206D01*
X157092455Y-105742452D01*
X157092452Y-105742455D01*
X157006206Y-105857664D01*
X157006202Y-105857671D01*
X156955910Y-105992513D01*
X156955909Y-105992517D01*
X156950937Y-106038757D01*
X156924201Y-106103306D01*
X156866809Y-106143154D01*
X156827649Y-106149500D01*
X151672351Y-106149500D01*
X151605312Y-106129815D01*
X151559557Y-106077011D01*
X151549061Y-106038752D01*
X151544091Y-105992516D01*
X151493797Y-105857671D01*
X151493793Y-105857664D01*
X151407547Y-105742455D01*
X151407544Y-105742452D01*
X151292335Y-105656206D01*
X151292328Y-105656202D01*
X151157482Y-105605908D01*
X151157483Y-105605908D01*
X151097883Y-105599501D01*
X151097881Y-105599500D01*
X151097873Y-105599500D01*
X151097864Y-105599500D01*
X149452129Y-105599500D01*
X149452123Y-105599501D01*
X149392516Y-105605908D01*
X149257671Y-105656202D01*
X149257664Y-105656206D01*
X149142455Y-105742452D01*
X149142452Y-105742455D01*
X149056206Y-105857664D01*
X149056202Y-105857671D01*
X149005908Y-105992517D01*
X148999501Y-106052116D01*
X148999501Y-106052123D01*
X148999500Y-106052135D01*
X148999500Y-107447870D01*
X148999501Y-107447876D01*
X149005908Y-107507483D01*
X149056202Y-107642328D01*
X149056206Y-107642335D01*
X149142452Y-107757544D01*
X149142455Y-107757547D01*
X149257664Y-107843793D01*
X149257671Y-107843797D01*
X149392517Y-107894091D01*
X149392516Y-107894091D01*
X149399444Y-107894835D01*
X149452127Y-107900500D01*
X151097872Y-107900499D01*
X151157483Y-107894091D01*
X151292331Y-107843796D01*
X151407546Y-107757546D01*
X151493796Y-107642331D01*
X151544091Y-107507483D01*
X151549062Y-107461242D01*
X151575799Y-107396694D01*
X151633191Y-107356846D01*
X151672351Y-107350500D01*
X156827649Y-107350500D01*
X156894688Y-107370185D01*
X156940443Y-107422989D01*
X156950939Y-107461248D01*
X156955908Y-107507483D01*
X157006202Y-107642328D01*
X157006206Y-107642335D01*
X157092452Y-107757544D01*
X157092455Y-107757547D01*
X157207664Y-107843793D01*
X157207671Y-107843797D01*
X157342517Y-107894091D01*
X157342516Y-107894091D01*
X157349444Y-107894835D01*
X157402127Y-107900500D01*
X158474902Y-107900499D01*
X158541941Y-107920183D01*
X158562583Y-107936818D01*
X158613584Y-107987819D01*
X158647069Y-108049142D01*
X158642085Y-108118834D01*
X158600213Y-108174767D01*
X158534749Y-108199184D01*
X158525903Y-108199500D01*
X136417750Y-108199500D01*
X136350711Y-108179815D01*
X136312211Y-108140597D01*
X136310908Y-108138484D01*
X136220340Y-107991650D01*
X136098350Y-107869660D01*
X135980008Y-107796666D01*
X135951518Y-107779093D01*
X135951513Y-107779091D01*
X135938464Y-107774767D01*
X135787753Y-107724826D01*
X135787751Y-107724825D01*
X135686678Y-107714500D01*
X135013330Y-107714500D01*
X135013312Y-107714501D01*
X134912247Y-107724825D01*
X134748484Y-107779092D01*
X134748481Y-107779093D01*
X134601648Y-107869661D01*
X134562326Y-107908983D01*
X134501003Y-107942468D01*
X134431311Y-107937482D01*
X134386965Y-107908982D01*
X134348038Y-107870055D01*
X134348034Y-107870052D01*
X134201311Y-107779551D01*
X134201300Y-107779546D01*
X134037652Y-107725319D01*
X133936654Y-107715000D01*
X133850000Y-107715000D01*
X133350000Y-107715000D01*
X133349999Y-107714999D01*
X133263360Y-107715000D01*
X133263343Y-107715001D01*
X133162347Y-107725319D01*
X132998699Y-107779546D01*
X132998688Y-107779551D01*
X132851965Y-107870052D01*
X132851961Y-107870055D01*
X132730055Y-107991961D01*
X132730052Y-107991965D01*
X132639551Y-108138688D01*
X132639546Y-108138699D01*
X132585319Y-108302347D01*
X132575000Y-108403345D01*
X129500500Y-108403345D01*
X129500500Y-106386654D01*
X132575001Y-106386654D01*
X132585319Y-106487652D01*
X132639546Y-106651300D01*
X132639551Y-106651311D01*
X132730052Y-106798034D01*
X132730055Y-106798038D01*
X132851961Y-106919944D01*
X132851965Y-106919947D01*
X132998688Y-107010448D01*
X132998699Y-107010453D01*
X133162347Y-107064680D01*
X133263351Y-107074999D01*
X133350000Y-107074998D01*
X133350000Y-106350000D01*
X132575001Y-106350000D01*
X132575001Y-106386654D01*
X129500500Y-106386654D01*
X129500500Y-105813345D01*
X132575000Y-105813345D01*
X132575000Y-105850000D01*
X133350000Y-105850000D01*
X133350000Y-105125000D01*
X133850000Y-105125000D01*
X133850000Y-107074999D01*
X133936640Y-107074999D01*
X133936654Y-107074998D01*
X134037652Y-107064680D01*
X134201300Y-107010453D01*
X134201311Y-107010448D01*
X134348034Y-106919947D01*
X134348037Y-106919945D01*
X134386964Y-106881018D01*
X134448287Y-106847532D01*
X134517978Y-106852516D01*
X134562327Y-106881017D01*
X134601650Y-106920340D01*
X134748484Y-107010908D01*
X134912247Y-107065174D01*
X135013323Y-107075500D01*
X135686676Y-107075499D01*
X135686684Y-107075498D01*
X135686687Y-107075498D01*
X135742030Y-107069844D01*
X135787753Y-107065174D01*
X135951516Y-107010908D01*
X136098350Y-106920340D01*
X136183783Y-106834907D01*
X136245106Y-106801422D01*
X136314798Y-106806406D01*
X136337434Y-106817593D01*
X136350476Y-106825788D01*
X136350478Y-106825789D01*
X136520745Y-106885368D01*
X136520750Y-106885369D01*
X136699996Y-106905565D01*
X136700000Y-106905565D01*
X136700004Y-106905565D01*
X136879249Y-106885369D01*
X136879252Y-106885368D01*
X136879255Y-106885368D01*
X137049522Y-106825789D01*
X137202262Y-106729816D01*
X137329816Y-106602262D01*
X137425789Y-106449522D01*
X137485368Y-106279255D01*
X137493961Y-106202989D01*
X137505565Y-106100003D01*
X137505565Y-106099996D01*
X137485369Y-105920750D01*
X137485368Y-105920745D01*
X137425788Y-105750476D01*
X137334950Y-105605909D01*
X137329816Y-105597738D01*
X137202262Y-105470184D01*
X137049523Y-105374211D01*
X136879254Y-105314631D01*
X136879249Y-105314630D01*
X136700004Y-105294435D01*
X136699996Y-105294435D01*
X136520750Y-105314630D01*
X136520737Y-105314633D01*
X136350479Y-105374209D01*
X136337435Y-105382406D01*
X136270198Y-105401406D01*
X136203363Y-105381038D01*
X136183783Y-105365093D01*
X136098351Y-105279661D01*
X136098350Y-105279660D01*
X136007129Y-105223395D01*
X135951518Y-105189093D01*
X135951513Y-105189091D01*
X135950069Y-105188612D01*
X135787753Y-105134826D01*
X135787751Y-105134825D01*
X135686678Y-105124500D01*
X135013330Y-105124500D01*
X135013312Y-105124501D01*
X134912247Y-105134825D01*
X134748484Y-105189092D01*
X134748481Y-105189093D01*
X134601648Y-105279661D01*
X134562326Y-105318983D01*
X134501003Y-105352468D01*
X134431311Y-105347482D01*
X134386965Y-105318982D01*
X134348038Y-105280055D01*
X134348034Y-105280052D01*
X134201311Y-105189551D01*
X134201300Y-105189546D01*
X134037652Y-105135319D01*
X133936654Y-105125000D01*
X133850000Y-105125000D01*
X133350000Y-105125000D01*
X133349999Y-105124999D01*
X133263360Y-105125000D01*
X133263343Y-105125001D01*
X133162347Y-105135319D01*
X132998699Y-105189546D01*
X132998688Y-105189551D01*
X132851965Y-105280052D01*
X132851961Y-105280055D01*
X132730055Y-105401961D01*
X132730052Y-105401965D01*
X132639551Y-105548688D01*
X132639546Y-105548699D01*
X132585319Y-105712347D01*
X132575000Y-105813345D01*
X129500500Y-105813345D01*
X129500500Y-96999997D01*
X131644579Y-96999997D01*
X131644579Y-97000002D01*
X131664248Y-97362782D01*
X131664250Y-97362799D01*
X131723024Y-97721303D01*
X131723030Y-97721329D01*
X131820221Y-98071381D01*
X131820226Y-98071396D01*
X131954700Y-98408901D01*
X131954706Y-98408913D01*
X132124878Y-98729892D01*
X132124884Y-98729901D01*
X132300120Y-98988355D01*
X132328773Y-99030614D01*
X132563979Y-99307521D01*
X132827746Y-99557375D01*
X133116981Y-99777245D01*
X133428292Y-99964555D01*
X133428294Y-99964556D01*
X133428296Y-99964557D01*
X133428300Y-99964559D01*
X133737227Y-100107483D01*
X133758031Y-100117108D01*
X134102330Y-100233116D01*
X134457153Y-100311218D01*
X134818341Y-100350500D01*
X134818347Y-100350500D01*
X135181653Y-100350500D01*
X135181659Y-100350500D01*
X135542847Y-100311218D01*
X135897670Y-100233116D01*
X136241969Y-100117108D01*
X136571708Y-99964555D01*
X136883019Y-99777245D01*
X137172254Y-99557375D01*
X137436021Y-99307521D01*
X137671227Y-99030614D01*
X137875117Y-98729900D01*
X137916345Y-98652135D01*
X138749500Y-98652135D01*
X138749500Y-100047870D01*
X138749501Y-100047876D01*
X138755908Y-100107483D01*
X138806202Y-100242328D01*
X138806206Y-100242335D01*
X138892452Y-100357544D01*
X138892455Y-100357547D01*
X139007664Y-100443793D01*
X139007671Y-100443797D01*
X139142517Y-100494091D01*
X139142516Y-100494091D01*
X139149444Y-100494835D01*
X139202127Y-100500500D01*
X140847872Y-100500499D01*
X140907483Y-100494091D01*
X141042331Y-100443796D01*
X141157546Y-100357546D01*
X141243796Y-100242331D01*
X141294091Y-100107483D01*
X141300500Y-100047873D01*
X141300499Y-98652128D01*
X141294091Y-98592517D01*
X141243796Y-98457669D01*
X141243795Y-98457668D01*
X141243793Y-98457664D01*
X141157547Y-98342455D01*
X141157544Y-98342452D01*
X141042335Y-98256206D01*
X141042328Y-98256202D01*
X140907482Y-98205908D01*
X140907483Y-98205908D01*
X140847883Y-98199501D01*
X140847881Y-98199500D01*
X140847873Y-98199500D01*
X140847864Y-98199500D01*
X139202129Y-98199500D01*
X139202123Y-98199501D01*
X139142516Y-98205908D01*
X139007671Y-98256202D01*
X139007664Y-98256206D01*
X138892455Y-98342452D01*
X138892452Y-98342455D01*
X138806206Y-98457664D01*
X138806202Y-98457671D01*
X138755908Y-98592517D01*
X138750938Y-98638752D01*
X138749501Y-98652123D01*
X138749500Y-98652135D01*
X137916345Y-98652135D01*
X138045298Y-98408905D01*
X138179775Y-98071391D01*
X138276973Y-97721316D01*
X138335751Y-97362785D01*
X138339814Y-97287844D01*
X164240000Y-97287844D01*
X164246401Y-97347372D01*
X164246403Y-97347379D01*
X164296645Y-97482086D01*
X164296649Y-97482093D01*
X164382809Y-97597187D01*
X164382812Y-97597190D01*
X164497906Y-97683350D01*
X164497913Y-97683354D01*
X164632620Y-97733596D01*
X164632627Y-97733598D01*
X164692155Y-97739999D01*
X164692172Y-97740000D01*
X165265000Y-97740000D01*
X165765000Y-97740000D01*
X166337828Y-97740000D01*
X166337844Y-97739999D01*
X166397372Y-97733598D01*
X166397379Y-97733596D01*
X166532086Y-97683354D01*
X166532093Y-97683350D01*
X166647187Y-97597190D01*
X166647190Y-97597187D01*
X166733350Y-97482093D01*
X166733354Y-97482086D01*
X166783596Y-97347379D01*
X166783598Y-97347372D01*
X166789999Y-97287844D01*
X172190000Y-97287844D01*
X172196401Y-97347372D01*
X172196403Y-97347379D01*
X172246645Y-97482086D01*
X172246649Y-97482093D01*
X172332809Y-97597187D01*
X172332812Y-97597190D01*
X172447906Y-97683350D01*
X172447913Y-97683354D01*
X172582620Y-97733596D01*
X172582627Y-97733598D01*
X172642155Y-97739999D01*
X172642172Y-97740000D01*
X173215000Y-97740000D01*
X173715000Y-97740000D01*
X174287828Y-97740000D01*
X174287844Y-97739999D01*
X174347372Y-97733598D01*
X174347379Y-97733596D01*
X174482086Y-97683354D01*
X174482093Y-97683350D01*
X174597187Y-97597190D01*
X174597190Y-97597187D01*
X174683350Y-97482093D01*
X174683354Y-97482086D01*
X174733596Y-97347379D01*
X174733598Y-97347372D01*
X174739999Y-97287844D01*
X174740000Y-97287827D01*
X174740000Y-96999997D01*
X200644579Y-96999997D01*
X200644579Y-97000002D01*
X200664248Y-97362782D01*
X200664250Y-97362799D01*
X200723024Y-97721303D01*
X200723030Y-97721329D01*
X200820221Y-98071381D01*
X200820226Y-98071396D01*
X200954700Y-98408901D01*
X200954706Y-98408913D01*
X201124878Y-98729892D01*
X201124884Y-98729901D01*
X201300120Y-98988355D01*
X201328773Y-99030614D01*
X201563979Y-99307521D01*
X201827746Y-99557375D01*
X202116981Y-99777245D01*
X202428292Y-99964555D01*
X202428294Y-99964556D01*
X202428296Y-99964557D01*
X202428300Y-99964559D01*
X202737227Y-100107483D01*
X202758031Y-100117108D01*
X203102330Y-100233116D01*
X203457153Y-100311218D01*
X203818341Y-100350500D01*
X203818347Y-100350500D01*
X204181653Y-100350500D01*
X204181659Y-100350500D01*
X204542847Y-100311218D01*
X204897670Y-100233116D01*
X205241969Y-100117108D01*
X205571708Y-99964555D01*
X205883019Y-99777245D01*
X206172254Y-99557375D01*
X206436021Y-99307521D01*
X206671227Y-99030614D01*
X206875117Y-98729900D01*
X207045298Y-98408905D01*
X207179775Y-98071391D01*
X207276973Y-97721316D01*
X207335751Y-97362785D01*
X207355421Y-97000000D01*
X207335751Y-96637215D01*
X207276973Y-96278684D01*
X207199597Y-96000000D01*
X207179778Y-95928618D01*
X207179773Y-95928603D01*
X207045299Y-95591098D01*
X207045298Y-95591095D01*
X206875117Y-95270100D01*
X206671227Y-94969386D01*
X206436021Y-94692479D01*
X206172254Y-94442625D01*
X206172244Y-94442617D01*
X206103635Y-94390462D01*
X205883019Y-94222755D01*
X205571708Y-94035445D01*
X205571707Y-94035444D01*
X205571703Y-94035442D01*
X205571699Y-94035440D01*
X205241979Y-93882896D01*
X205241974Y-93882894D01*
X205241969Y-93882892D01*
X205074143Y-93826344D01*
X204897669Y-93766883D01*
X204542845Y-93688781D01*
X204181660Y-93649500D01*
X204181659Y-93649500D01*
X203818341Y-93649500D01*
X203818339Y-93649500D01*
X203457154Y-93688781D01*
X203102330Y-93766883D01*
X202876984Y-93842812D01*
X202758031Y-93882892D01*
X202758028Y-93882893D01*
X202758020Y-93882896D01*
X202428300Y-94035440D01*
X202428296Y-94035442D01*
X202196453Y-94174937D01*
X202116981Y-94222755D01*
X202027332Y-94290903D01*
X201827755Y-94442617D01*
X201827745Y-94442625D01*
X201563978Y-94692479D01*
X201328772Y-94969386D01*
X201124884Y-95270098D01*
X201124878Y-95270107D01*
X200954706Y-95591086D01*
X200954700Y-95591098D01*
X200820226Y-95928603D01*
X200820221Y-95928618D01*
X200723030Y-96278670D01*
X200723024Y-96278696D01*
X200664250Y-96637200D01*
X200664248Y-96637217D01*
X200644579Y-96999997D01*
X174740000Y-96999997D01*
X174740000Y-96840000D01*
X173715000Y-96840000D01*
X173715000Y-97740000D01*
X173215000Y-97740000D01*
X173215000Y-96840000D01*
X172190000Y-96840000D01*
X172190000Y-97287844D01*
X166789999Y-97287844D01*
X166790000Y-97287827D01*
X166790000Y-96840000D01*
X165765000Y-96840000D01*
X165765000Y-97740000D01*
X165265000Y-97740000D01*
X165265000Y-96840000D01*
X164240000Y-96840000D01*
X164240000Y-97287844D01*
X138339814Y-97287844D01*
X138355421Y-97000000D01*
X138335751Y-96637215D01*
X138276973Y-96278684D01*
X138199597Y-96000000D01*
X138179778Y-95928618D01*
X138179773Y-95928603D01*
X138045299Y-95591098D01*
X138045298Y-95591095D01*
X138022368Y-95547844D01*
X138750000Y-95547844D01*
X138756401Y-95607372D01*
X138756403Y-95607379D01*
X138806645Y-95742086D01*
X138806649Y-95742093D01*
X138892809Y-95857187D01*
X138892812Y-95857190D01*
X139007906Y-95943350D01*
X139007913Y-95943354D01*
X139142620Y-95993596D01*
X139142627Y-95993598D01*
X139202155Y-95999999D01*
X139202172Y-96000000D01*
X139775000Y-96000000D01*
X140275000Y-96000000D01*
X140847828Y-96000000D01*
X140847844Y-95999999D01*
X140907372Y-95993598D01*
X140907379Y-95993596D01*
X141042086Y-95943354D01*
X141042093Y-95943350D01*
X141157187Y-95857190D01*
X141157190Y-95857187D01*
X141243350Y-95742093D01*
X141243354Y-95742086D01*
X141293596Y-95607379D01*
X141293598Y-95607372D01*
X141299999Y-95547844D01*
X146700000Y-95547844D01*
X146706401Y-95607372D01*
X146706403Y-95607379D01*
X146756645Y-95742086D01*
X146756649Y-95742093D01*
X146842809Y-95857187D01*
X146842812Y-95857190D01*
X146957906Y-95943350D01*
X146957913Y-95943354D01*
X147092620Y-95993596D01*
X147092627Y-95993598D01*
X147152155Y-95999999D01*
X147152172Y-96000000D01*
X147725000Y-96000000D01*
X148225000Y-96000000D01*
X148797828Y-96000000D01*
X148797844Y-95999999D01*
X148857372Y-95993598D01*
X148857379Y-95993596D01*
X148992086Y-95943354D01*
X148992093Y-95943350D01*
X149060480Y-95892155D01*
X164240000Y-95892155D01*
X164240000Y-96340000D01*
X165265000Y-96340000D01*
X165765000Y-96340000D01*
X166790000Y-96340000D01*
X166790000Y-95892172D01*
X166789999Y-95892155D01*
X172190000Y-95892155D01*
X172190000Y-96340000D01*
X173215000Y-96340000D01*
X173715000Y-96340000D01*
X174740000Y-96340000D01*
X174740000Y-95892172D01*
X174739999Y-95892155D01*
X174733598Y-95832627D01*
X174733596Y-95832620D01*
X174683354Y-95697913D01*
X174683350Y-95697906D01*
X174597190Y-95582812D01*
X174597187Y-95582809D01*
X174482093Y-95496649D01*
X174482086Y-95496645D01*
X174347379Y-95446403D01*
X174347372Y-95446401D01*
X174287844Y-95440000D01*
X173715000Y-95440000D01*
X173715000Y-96340000D01*
X173215000Y-96340000D01*
X173215000Y-95440000D01*
X172642155Y-95440000D01*
X172582627Y-95446401D01*
X172582620Y-95446403D01*
X172447913Y-95496645D01*
X172447906Y-95496649D01*
X172332812Y-95582809D01*
X172332809Y-95582812D01*
X172246649Y-95697906D01*
X172246645Y-95697913D01*
X172196403Y-95832620D01*
X172196401Y-95832627D01*
X172190000Y-95892155D01*
X166789999Y-95892155D01*
X166783598Y-95832627D01*
X166783596Y-95832620D01*
X166733354Y-95697913D01*
X166733350Y-95697906D01*
X166647190Y-95582812D01*
X166647187Y-95582809D01*
X166532093Y-95496649D01*
X166532086Y-95496645D01*
X166397379Y-95446403D01*
X166397372Y-95446401D01*
X166337844Y-95440000D01*
X165765000Y-95440000D01*
X165765000Y-96340000D01*
X165265000Y-96340000D01*
X165265000Y-95440000D01*
X164692155Y-95440000D01*
X164632627Y-95446401D01*
X164632620Y-95446403D01*
X164497913Y-95496645D01*
X164497906Y-95496649D01*
X164382812Y-95582809D01*
X164382809Y-95582812D01*
X164296649Y-95697906D01*
X164296645Y-95697913D01*
X164246403Y-95832620D01*
X164246401Y-95832627D01*
X164240000Y-95892155D01*
X149060480Y-95892155D01*
X149107187Y-95857190D01*
X149107190Y-95857187D01*
X149193350Y-95742093D01*
X149193354Y-95742086D01*
X149243596Y-95607379D01*
X149243598Y-95607372D01*
X149249999Y-95547844D01*
X149250000Y-95547827D01*
X149250000Y-95100000D01*
X148225000Y-95100000D01*
X148225000Y-96000000D01*
X147725000Y-96000000D01*
X147725000Y-95100000D01*
X146700000Y-95100000D01*
X146700000Y-95547844D01*
X141299999Y-95547844D01*
X141300000Y-95547827D01*
X141300000Y-95100000D01*
X140275000Y-95100000D01*
X140275000Y-96000000D01*
X139775000Y-96000000D01*
X139775000Y-95100000D01*
X138750000Y-95100000D01*
X138750000Y-95547844D01*
X138022368Y-95547844D01*
X137875117Y-95270100D01*
X137671227Y-94969386D01*
X137436021Y-94692479D01*
X137172254Y-94442625D01*
X137172244Y-94442617D01*
X137103635Y-94390462D01*
X136883019Y-94222755D01*
X136765681Y-94152155D01*
X138750000Y-94152155D01*
X138750000Y-94600000D01*
X139775000Y-94600000D01*
X140275000Y-94600000D01*
X141300000Y-94600000D01*
X141300000Y-94152172D01*
X141299999Y-94152155D01*
X146700000Y-94152155D01*
X146700000Y-94600000D01*
X147725000Y-94600000D01*
X148225000Y-94600000D01*
X149250000Y-94600000D01*
X149250000Y-94152172D01*
X149249999Y-94152155D01*
X149243598Y-94092627D01*
X149243596Y-94092620D01*
X149193354Y-93957913D01*
X149193350Y-93957906D01*
X149107190Y-93842812D01*
X149107187Y-93842809D01*
X148992093Y-93756649D01*
X148992086Y-93756645D01*
X148857379Y-93706403D01*
X148857372Y-93706401D01*
X148797844Y-93700000D01*
X148225000Y-93700000D01*
X148225000Y-94600000D01*
X147725000Y-94600000D01*
X147725000Y-93700000D01*
X147152155Y-93700000D01*
X147092627Y-93706401D01*
X147092620Y-93706403D01*
X146957913Y-93756645D01*
X146957906Y-93756649D01*
X146842812Y-93842809D01*
X146842809Y-93842812D01*
X146756649Y-93957906D01*
X146756645Y-93957913D01*
X146706403Y-94092620D01*
X146706401Y-94092627D01*
X146700000Y-94152155D01*
X141299999Y-94152155D01*
X141293598Y-94092627D01*
X141293596Y-94092620D01*
X141243354Y-93957913D01*
X141243350Y-93957906D01*
X141157190Y-93842812D01*
X141157187Y-93842809D01*
X141042093Y-93756649D01*
X141042086Y-93756645D01*
X140907379Y-93706403D01*
X140907372Y-93706401D01*
X140847844Y-93700000D01*
X140275000Y-93700000D01*
X140275000Y-94600000D01*
X139775000Y-94600000D01*
X139775000Y-93700000D01*
X139202155Y-93700000D01*
X139142627Y-93706401D01*
X139142620Y-93706403D01*
X139007913Y-93756645D01*
X139007906Y-93756649D01*
X138892812Y-93842809D01*
X138892809Y-93842812D01*
X138806649Y-93957906D01*
X138806645Y-93957913D01*
X138756403Y-94092620D01*
X138756401Y-94092627D01*
X138750000Y-94152155D01*
X136765681Y-94152155D01*
X136571708Y-94035445D01*
X136571707Y-94035444D01*
X136571703Y-94035442D01*
X136571699Y-94035440D01*
X136241979Y-93882896D01*
X136241974Y-93882894D01*
X136241969Y-93882892D01*
X136074143Y-93826344D01*
X135897669Y-93766883D01*
X135542845Y-93688781D01*
X135181660Y-93649500D01*
X135181659Y-93649500D01*
X134818341Y-93649500D01*
X134818339Y-93649500D01*
X134457154Y-93688781D01*
X134102330Y-93766883D01*
X133876984Y-93842812D01*
X133758031Y-93882892D01*
X133758028Y-93882893D01*
X133758020Y-93882896D01*
X133428300Y-94035440D01*
X133428296Y-94035442D01*
X133196453Y-94174937D01*
X133116981Y-94222755D01*
X133027332Y-94290903D01*
X132827755Y-94442617D01*
X132827745Y-94442625D01*
X132563978Y-94692479D01*
X132328772Y-94969386D01*
X132124884Y-95270098D01*
X132124878Y-95270107D01*
X131954706Y-95591086D01*
X131954700Y-95591098D01*
X131820226Y-95928603D01*
X131820221Y-95928618D01*
X131723030Y-96278670D01*
X131723024Y-96278696D01*
X131664250Y-96637200D01*
X131664248Y-96637217D01*
X131644579Y-96999997D01*
X129500500Y-96999997D01*
X129500500Y-93085499D01*
X129509939Y-93038047D01*
X129511171Y-93035072D01*
X129544430Y-92954775D01*
X129550452Y-92942269D01*
X129706467Y-92659983D01*
X129713854Y-92648228D01*
X129900482Y-92385201D01*
X129909128Y-92374358D01*
X130124049Y-92133861D01*
X130133861Y-92124049D01*
X130374358Y-91909128D01*
X130385201Y-91900482D01*
X130648228Y-91713854D01*
X130659983Y-91706467D01*
X130942269Y-91550452D01*
X130954768Y-91544434D01*
X131038049Y-91509937D01*
X131085500Y-91500500D01*
X207914500Y-91500500D01*
X207961952Y-91509939D01*
G37*
%TD.AperFunction*%
%TD*%
M02*
