%TF.GenerationSoftware,KiCad,Pcbnew,9.0.0*%
%TF.CreationDate,2025-03-04T20:01:11+01:00*%
%TF.ProjectId,esp32vga-keypad,65737033-3276-4676-912d-6b6579706164,2*%
%TF.SameCoordinates,Original*%
%TF.FileFunction,Soldermask,Top*%
%TF.FilePolarity,Negative*%
%FSLAX46Y46*%
G04 Gerber Fmt 4.6, Leading zero omitted, Abs format (unit mm)*
G04 Created by KiCad (PCBNEW 9.0.0) date 2025-03-04 20:01:11*
%MOMM*%
%LPD*%
G01*
G04 APERTURE LIST*
G04 Aperture macros list*
%AMRoundRect*
0 Rectangle with rounded corners*
0 $1 Rounding radius*
0 $2 $3 $4 $5 $6 $7 $8 $9 X,Y pos of 4 corners*
0 Add a 4 corners polygon primitive as box body*
4,1,4,$2,$3,$4,$5,$6,$7,$8,$9,$2,$3,0*
0 Add four circle primitives for the rounded corners*
1,1,$1+$1,$2,$3*
1,1,$1+$1,$4,$5*
1,1,$1+$1,$6,$7*
1,1,$1+$1,$8,$9*
0 Add four rect primitives between the rounded corners*
20,1,$1+$1,$2,$3,$4,$5,0*
20,1,$1+$1,$4,$5,$6,$7,0*
20,1,$1+$1,$6,$7,$8,$9,0*
20,1,$1+$1,$8,$9,$2,$3,0*%
G04 Aperture macros list end*
%ADD10R,2.400000X1.300000*%
%ADD11C,5.700000*%
%ADD12RoundRect,0.237500X-0.287500X-0.237500X0.287500X-0.237500X0.287500X0.237500X-0.287500X0.237500X0*%
%ADD13RoundRect,0.250000X0.350000X0.450000X-0.350000X0.450000X-0.350000X-0.450000X0.350000X-0.450000X0*%
%ADD14RoundRect,0.250000X0.600000X0.600000X-0.600000X0.600000X-0.600000X-0.600000X0.600000X-0.600000X0*%
%ADD15C,1.700000*%
G04 APERTURE END LIST*
D10*
%TO.C,SW2*%
X173890000Y-101090000D03*
X165090000Y-101090000D03*
X173890000Y-96590000D03*
X165090000Y-96590000D03*
%TD*%
D11*
%TO.C,H1*%
X135000000Y-97000000D03*
%TD*%
%TO.C,H3*%
X204000000Y-121000000D03*
%TD*%
D10*
%TO.C,SW4*%
X165090000Y-116910000D03*
X173890000Y-116910000D03*
X165090000Y-121410000D03*
X173890000Y-121410000D03*
%TD*%
D11*
%TO.C,H4*%
X135000000Y-121000000D03*
%TD*%
%TO.C,H2*%
X204000000Y-97000000D03*
%TD*%
D12*
%TO.C,D2*%
X133600000Y-108690000D03*
X135350000Y-108690000D03*
%TD*%
D10*
%TO.C,SW3*%
X180330000Y-106750000D03*
X189130000Y-106750000D03*
X180330000Y-111250000D03*
X189130000Y-111250000D03*
%TD*%
D12*
%TO.C,D1*%
X133600000Y-106100000D03*
X135350000Y-106100000D03*
%TD*%
D10*
%TO.C,SW1*%
X149850000Y-106750000D03*
X158650000Y-106750000D03*
X149850000Y-111250000D03*
X158650000Y-111250000D03*
%TD*%
D12*
%TO.C,D3*%
X133600000Y-111300000D03*
X135350000Y-111300000D03*
%TD*%
D13*
%TO.C,R1*%
X135467600Y-114884200D03*
X133467600Y-114884200D03*
%TD*%
D10*
%TO.C,SW5*%
X149865800Y-99354200D03*
X141065800Y-99354200D03*
X149865800Y-94854200D03*
X141065800Y-94854200D03*
%TD*%
D14*
%TO.C,J1*%
X198120000Y-104140000D03*
D15*
X195580000Y-104140000D03*
X198120000Y-106680000D03*
X195580000Y-106680000D03*
X198120000Y-109220000D03*
X195580000Y-109220000D03*
X198120000Y-111760000D03*
X195580000Y-111760000D03*
X198120000Y-114300000D03*
X195580000Y-114300000D03*
%TD*%
M02*
