%TF.GenerationSoftware,KiCad,Pcbnew,8.0.4*%
%TF.CreationDate,2024-08-11T19:45:59+02:00*%
%TF.ProjectId,esp32vga-keypad,65737033-3276-4676-912d-6b6579706164,rev?*%
%TF.SameCoordinates,Original*%
%TF.FileFunction,Copper,L2,Bot*%
%TF.FilePolarity,Positive*%
%FSLAX46Y46*%
G04 Gerber Fmt 4.6, Leading zero omitted, Abs format (unit mm)*
G04 Created by KiCad (PCBNEW 8.0.4) date 2024-08-11 19:45:59*
%MOMM*%
%LPD*%
G01*
G04 APERTURE LIST*
G04 Aperture macros list*
%AMRoundRect*
0 Rectangle with rounded corners*
0 $1 Rounding radius*
0 $2 $3 $4 $5 $6 $7 $8 $9 X,Y pos of 4 corners*
0 Add a 4 corners polygon primitive as box body*
4,1,4,$2,$3,$4,$5,$6,$7,$8,$9,$2,$3,0*
0 Add four circle primitives for the rounded corners*
1,1,$1+$1,$2,$3*
1,1,$1+$1,$4,$5*
1,1,$1+$1,$6,$7*
1,1,$1+$1,$8,$9*
0 Add four rect primitives between the rounded corners*
20,1,$1+$1,$2,$3,$4,$5,0*
20,1,$1+$1,$4,$5,$6,$7,0*
20,1,$1+$1,$6,$7,$8,$9,0*
20,1,$1+$1,$8,$9,$2,$3,0*%
G04 Aperture macros list end*
%TA.AperFunction,SMDPad,CuDef*%
%ADD10RoundRect,0.250000X-0.350000X-0.450000X0.350000X-0.450000X0.350000X0.450000X-0.350000X0.450000X0*%
%TD*%
%TA.AperFunction,ComponentPad*%
%ADD11RoundRect,0.250000X0.600000X0.600000X-0.600000X0.600000X-0.600000X-0.600000X0.600000X-0.600000X0*%
%TD*%
%TA.AperFunction,ComponentPad*%
%ADD12C,1.700000*%
%TD*%
%TA.AperFunction,ComponentPad*%
%ADD13C,5.700000*%
%TD*%
%TA.AperFunction,ViaPad*%
%ADD14C,0.600000*%
%TD*%
%TA.AperFunction,Conductor*%
%ADD15C,0.200000*%
%TD*%
G04 APERTURE END LIST*
D10*
%TO.P,R1,1*%
%TO.N,Net-(D1-A)*%
X194800000Y-123200000D03*
%TO.P,R1,2*%
%TO.N,+3.3V*%
X196800000Y-123200000D03*
%TD*%
D11*
%TO.P,J1,1,Pin_1*%
%TO.N,/K_DOWN*%
X198120000Y-104140000D03*
D12*
%TO.P,J1,2,Pin_2*%
%TO.N,/K_RIGHT*%
X195580000Y-104140000D03*
%TO.P,J1,3,Pin_3*%
%TO.N,/K_UP*%
X198120000Y-106680000D03*
%TO.P,J1,4,Pin_4*%
%TO.N,/K_LEFT*%
X195580000Y-106680000D03*
%TO.P,J1,5,Pin_5*%
%TO.N,/L_STAT*%
X198120000Y-109220000D03*
%TO.P,J1,6,Pin_6*%
%TO.N,/L_SYNC*%
X195580000Y-109220000D03*
%TO.P,J1,7,Pin_7*%
%TO.N,/RST*%
X198120000Y-111760000D03*
%TO.P,J1,8,Pin_8*%
%TO.N,unconnected-(J1-Pin_8-Pad8)*%
X195580000Y-111760000D03*
%TO.P,J1,9,Pin_9*%
%TO.N,+3.3V*%
X198120000Y-114300000D03*
%TO.P,J1,10,Pin_10*%
%TO.N,GND*%
X195580000Y-114300000D03*
%TD*%
D13*
%TO.P,H1,1*%
%TO.N,N/C*%
X135000000Y-97000000D03*
%TD*%
%TO.P,H3,1*%
%TO.N,N/C*%
X204000000Y-121000000D03*
%TD*%
%TO.P,H4,1*%
%TO.N,N/C*%
X135000000Y-121000000D03*
%TD*%
%TO.P,H2,1*%
%TO.N,N/C*%
X204000000Y-97000000D03*
%TD*%
D14*
%TO.N,GND*%
X154300000Y-101800000D03*
X154250000Y-119250000D03*
X184750000Y-119250000D03*
X184750000Y-101800000D03*
%TO.N,Net-(D1-A)*%
X136700000Y-106100000D03*
%TD*%
D15*
%TO.N,Net-(D1-A)*%
X153800000Y-123200000D02*
X136700000Y-106100000D01*
X194800000Y-123200000D02*
X153800000Y-123200000D01*
%TO.N,+3.3V*%
X196800000Y-115620000D02*
X198120000Y-114300000D01*
X196800000Y-123200000D02*
X196800000Y-115620000D01*
%TD*%
%TA.AperFunction,Conductor*%
%TO.N,GND*%
G36*
X196934855Y-112426546D02*
G01*
X196951575Y-112445842D01*
X197081501Y-112631396D01*
X197081506Y-112631402D01*
X197248597Y-112798493D01*
X197248603Y-112798498D01*
X197434158Y-112928425D01*
X197477783Y-112983002D01*
X197484977Y-113052500D01*
X197453454Y-113114855D01*
X197434158Y-113131575D01*
X197248597Y-113261505D01*
X197081505Y-113428597D01*
X196951269Y-113614595D01*
X196896692Y-113658220D01*
X196827194Y-113665414D01*
X196764839Y-113633891D01*
X196748119Y-113614595D01*
X196694925Y-113538626D01*
X196694925Y-113538625D01*
X196062962Y-114170589D01*
X196045925Y-114107007D01*
X195980099Y-113992993D01*
X195887007Y-113899901D01*
X195772993Y-113834075D01*
X195709410Y-113817037D01*
X196341373Y-113185073D01*
X196341373Y-113185072D01*
X196265405Y-113131880D01*
X196221780Y-113077304D01*
X196214586Y-113007805D01*
X196246108Y-112945451D01*
X196265399Y-112928734D01*
X196451401Y-112798495D01*
X196618495Y-112631401D01*
X196748425Y-112445842D01*
X196803002Y-112402217D01*
X196872500Y-112395023D01*
X196934855Y-112426546D01*
G37*
%TD.AperFunction*%
%TA.AperFunction,Conductor*%
G36*
X207961952Y-91509939D02*
G01*
X208026119Y-91536517D01*
X208045212Y-91544426D01*
X208045215Y-91544427D01*
X208057737Y-91550456D01*
X208340006Y-91706461D01*
X208351779Y-91713859D01*
X208614789Y-91900475D01*
X208625649Y-91909135D01*
X208866127Y-92124039D01*
X208875960Y-92133872D01*
X209090859Y-92374344D01*
X209099528Y-92385216D01*
X209286139Y-92648219D01*
X209293538Y-92659993D01*
X209449539Y-92942255D01*
X209455572Y-92954783D01*
X209490061Y-93038046D01*
X209499500Y-93085499D01*
X209499500Y-124914499D01*
X209490061Y-124961952D01*
X209455572Y-125045216D01*
X209449539Y-125057744D01*
X209293538Y-125340006D01*
X209286139Y-125351780D01*
X209099528Y-125614783D01*
X209090859Y-125625655D01*
X208875960Y-125866127D01*
X208866127Y-125875960D01*
X208625655Y-126090859D01*
X208614783Y-126099528D01*
X208351780Y-126286139D01*
X208340006Y-126293538D01*
X208057744Y-126449539D01*
X208045216Y-126455572D01*
X207961953Y-126490061D01*
X207914500Y-126499500D01*
X131085500Y-126499500D01*
X131038047Y-126490061D01*
X130954783Y-126455572D01*
X130942255Y-126449539D01*
X130659993Y-126293538D01*
X130648219Y-126286139D01*
X130385216Y-126099528D01*
X130374344Y-126090859D01*
X130133872Y-125875960D01*
X130124039Y-125866127D01*
X129909140Y-125625655D01*
X129900475Y-125614789D01*
X129713859Y-125351779D01*
X129706461Y-125340006D01*
X129550460Y-125057744D01*
X129544431Y-125045224D01*
X129509938Y-124961950D01*
X129500500Y-124914499D01*
X129500500Y-120999997D01*
X131644579Y-120999997D01*
X131644579Y-121000002D01*
X131664248Y-121362782D01*
X131664250Y-121362799D01*
X131723024Y-121721303D01*
X131723030Y-121721329D01*
X131820221Y-122071381D01*
X131820226Y-122071396D01*
X131954700Y-122408901D01*
X131954706Y-122408913D01*
X132124878Y-122729892D01*
X132124884Y-122729901D01*
X132328772Y-123030613D01*
X132563978Y-123307520D01*
X132827745Y-123557374D01*
X132827755Y-123557382D01*
X132842661Y-123568713D01*
X133116981Y-123777245D01*
X133428292Y-123964555D01*
X133428294Y-123964556D01*
X133428296Y-123964557D01*
X133428300Y-123964559D01*
X133758020Y-124117103D01*
X133758031Y-124117108D01*
X134102330Y-124233116D01*
X134457153Y-124311218D01*
X134818341Y-124350500D01*
X134818347Y-124350500D01*
X135181653Y-124350500D01*
X135181659Y-124350500D01*
X135542847Y-124311218D01*
X135897670Y-124233116D01*
X136241969Y-124117108D01*
X136571708Y-123964555D01*
X136883019Y-123777245D01*
X137172254Y-123557375D01*
X137436021Y-123307521D01*
X137671227Y-123030614D01*
X137875117Y-122729900D01*
X138045298Y-122408905D01*
X138179775Y-122071391D01*
X138182551Y-122061395D01*
X138276969Y-121721329D01*
X138276973Y-121721316D01*
X138335751Y-121362785D01*
X138355421Y-121000000D01*
X138335751Y-120637215D01*
X138276973Y-120278684D01*
X138259097Y-120214303D01*
X138179778Y-119928618D01*
X138179773Y-119928603D01*
X138045299Y-119591098D01*
X138045298Y-119591095D01*
X137875117Y-119270100D01*
X137671227Y-118969386D01*
X137436021Y-118692479D01*
X137172254Y-118442625D01*
X137172244Y-118442617D01*
X137103635Y-118390462D01*
X136883019Y-118222755D01*
X136571708Y-118035445D01*
X136571707Y-118035444D01*
X136571703Y-118035442D01*
X136571699Y-118035440D01*
X136241979Y-117882896D01*
X136241974Y-117882894D01*
X136241969Y-117882892D01*
X136074143Y-117826344D01*
X135897669Y-117766883D01*
X135542845Y-117688781D01*
X135181660Y-117649500D01*
X135181659Y-117649500D01*
X134818341Y-117649500D01*
X134818339Y-117649500D01*
X134457154Y-117688781D01*
X134102330Y-117766883D01*
X133836178Y-117856560D01*
X133758031Y-117882892D01*
X133758028Y-117882893D01*
X133758020Y-117882896D01*
X133428300Y-118035440D01*
X133428296Y-118035442D01*
X133196453Y-118174937D01*
X133116981Y-118222755D01*
X133027332Y-118290903D01*
X132827755Y-118442617D01*
X132827745Y-118442625D01*
X132563978Y-118692479D01*
X132328772Y-118969386D01*
X132124884Y-119270098D01*
X132124878Y-119270107D01*
X131954706Y-119591086D01*
X131954700Y-119591098D01*
X131820226Y-119928603D01*
X131820221Y-119928618D01*
X131723030Y-120278670D01*
X131723024Y-120278696D01*
X131664250Y-120637200D01*
X131664248Y-120637217D01*
X131644579Y-120999997D01*
X129500500Y-120999997D01*
X129500500Y-106099996D01*
X135894435Y-106099996D01*
X135894435Y-106100003D01*
X135914630Y-106279249D01*
X135914631Y-106279254D01*
X135974211Y-106449523D01*
X136070184Y-106602262D01*
X136197738Y-106729816D01*
X136350478Y-106825789D01*
X136520745Y-106885368D01*
X136607669Y-106895161D01*
X136672080Y-106922226D01*
X136681465Y-106930700D01*
X153315139Y-123564374D01*
X153315149Y-123564385D01*
X153319479Y-123568715D01*
X153319480Y-123568716D01*
X153431284Y-123680520D01*
X153518095Y-123730639D01*
X153518097Y-123730641D01*
X153556151Y-123752611D01*
X153568215Y-123759577D01*
X153720943Y-123800501D01*
X153720946Y-123800501D01*
X153886653Y-123800501D01*
X153886669Y-123800500D01*
X193619699Y-123800500D01*
X193686738Y-123820185D01*
X193732493Y-123872989D01*
X193737403Y-123885492D01*
X193765186Y-123969334D01*
X193857288Y-124118656D01*
X193981344Y-124242712D01*
X194130666Y-124334814D01*
X194297203Y-124389999D01*
X194399991Y-124400500D01*
X195200008Y-124400499D01*
X195200016Y-124400498D01*
X195200019Y-124400498D01*
X195256302Y-124394748D01*
X195302797Y-124389999D01*
X195469334Y-124334814D01*
X195618656Y-124242712D01*
X195712319Y-124149049D01*
X195773642Y-124115564D01*
X195843334Y-124120548D01*
X195887681Y-124149049D01*
X195981344Y-124242712D01*
X196130666Y-124334814D01*
X196297203Y-124389999D01*
X196399991Y-124400500D01*
X197200008Y-124400499D01*
X197200016Y-124400498D01*
X197200019Y-124400498D01*
X197256302Y-124394748D01*
X197302797Y-124389999D01*
X197469334Y-124334814D01*
X197618656Y-124242712D01*
X197742712Y-124118656D01*
X197834814Y-123969334D01*
X197889999Y-123802797D01*
X197900500Y-123700009D01*
X197900499Y-122699992D01*
X197889999Y-122597203D01*
X197834814Y-122430666D01*
X197742712Y-122281344D01*
X197618656Y-122157288D01*
X197469334Y-122065186D01*
X197469332Y-122065185D01*
X197463187Y-122061395D01*
X197464290Y-122059605D01*
X197419649Y-122020290D01*
X197400500Y-121954091D01*
X197400500Y-120999997D01*
X200644579Y-120999997D01*
X200644579Y-121000002D01*
X200664248Y-121362782D01*
X200664250Y-121362799D01*
X200723024Y-121721303D01*
X200723030Y-121721329D01*
X200820221Y-122071381D01*
X200820226Y-122071396D01*
X200954700Y-122408901D01*
X200954706Y-122408913D01*
X201124878Y-122729892D01*
X201124884Y-122729901D01*
X201328772Y-123030613D01*
X201563978Y-123307520D01*
X201827745Y-123557374D01*
X201827755Y-123557382D01*
X201842661Y-123568713D01*
X202116981Y-123777245D01*
X202428292Y-123964555D01*
X202428294Y-123964556D01*
X202428296Y-123964557D01*
X202428300Y-123964559D01*
X202758020Y-124117103D01*
X202758031Y-124117108D01*
X203102330Y-124233116D01*
X203457153Y-124311218D01*
X203818341Y-124350500D01*
X203818347Y-124350500D01*
X204181653Y-124350500D01*
X204181659Y-124350500D01*
X204542847Y-124311218D01*
X204897670Y-124233116D01*
X205241969Y-124117108D01*
X205571708Y-123964555D01*
X205883019Y-123777245D01*
X206172254Y-123557375D01*
X206436021Y-123307521D01*
X206671227Y-123030614D01*
X206875117Y-122729900D01*
X207045298Y-122408905D01*
X207179775Y-122071391D01*
X207182551Y-122061395D01*
X207276969Y-121721329D01*
X207276973Y-121721316D01*
X207335751Y-121362785D01*
X207355421Y-121000000D01*
X207335751Y-120637215D01*
X207276973Y-120278684D01*
X207259097Y-120214303D01*
X207179778Y-119928618D01*
X207179773Y-119928603D01*
X207045299Y-119591098D01*
X207045298Y-119591095D01*
X206875117Y-119270100D01*
X206671227Y-118969386D01*
X206436021Y-118692479D01*
X206172254Y-118442625D01*
X206172244Y-118442617D01*
X206103635Y-118390462D01*
X205883019Y-118222755D01*
X205571708Y-118035445D01*
X205571707Y-118035444D01*
X205571703Y-118035442D01*
X205571699Y-118035440D01*
X205241979Y-117882896D01*
X205241974Y-117882894D01*
X205241969Y-117882892D01*
X205074143Y-117826344D01*
X204897669Y-117766883D01*
X204542845Y-117688781D01*
X204181660Y-117649500D01*
X204181659Y-117649500D01*
X203818341Y-117649500D01*
X203818339Y-117649500D01*
X203457154Y-117688781D01*
X203102330Y-117766883D01*
X202836178Y-117856560D01*
X202758031Y-117882892D01*
X202758028Y-117882893D01*
X202758020Y-117882896D01*
X202428300Y-118035440D01*
X202428296Y-118035442D01*
X202196453Y-118174937D01*
X202116981Y-118222755D01*
X202027332Y-118290903D01*
X201827755Y-118442617D01*
X201827745Y-118442625D01*
X201563978Y-118692479D01*
X201328772Y-118969386D01*
X201124884Y-119270098D01*
X201124878Y-119270107D01*
X200954706Y-119591086D01*
X200954700Y-119591098D01*
X200820226Y-119928603D01*
X200820221Y-119928618D01*
X200723030Y-120278670D01*
X200723024Y-120278696D01*
X200664250Y-120637200D01*
X200664248Y-120637217D01*
X200644579Y-120999997D01*
X197400500Y-120999997D01*
X197400500Y-115920096D01*
X197420185Y-115853057D01*
X197436815Y-115832419D01*
X197636470Y-115632763D01*
X197697791Y-115599280D01*
X197756238Y-115600670D01*
X197884592Y-115635063D01*
X198072918Y-115651539D01*
X198119999Y-115655659D01*
X198120000Y-115655659D01*
X198120001Y-115655659D01*
X198159234Y-115652226D01*
X198355408Y-115635063D01*
X198583663Y-115573903D01*
X198797830Y-115474035D01*
X198991401Y-115338495D01*
X199158495Y-115171401D01*
X199294035Y-114977830D01*
X199393903Y-114763663D01*
X199455063Y-114535408D01*
X199475659Y-114300000D01*
X199455063Y-114064592D01*
X199393903Y-113836337D01*
X199294035Y-113622171D01*
X199288731Y-113614595D01*
X199158494Y-113428597D01*
X198991402Y-113261506D01*
X198991396Y-113261501D01*
X198805842Y-113131575D01*
X198762217Y-113076998D01*
X198755023Y-113007500D01*
X198786546Y-112945145D01*
X198805842Y-112928425D01*
X198828026Y-112912891D01*
X198991401Y-112798495D01*
X199158495Y-112631401D01*
X199294035Y-112437830D01*
X199393903Y-112223663D01*
X199455063Y-111995408D01*
X199475659Y-111760000D01*
X199455063Y-111524592D01*
X199393903Y-111296337D01*
X199294035Y-111082171D01*
X199288425Y-111074158D01*
X199158494Y-110888597D01*
X198991402Y-110721506D01*
X198991396Y-110721501D01*
X198805842Y-110591575D01*
X198762217Y-110536998D01*
X198755023Y-110467500D01*
X198786546Y-110405145D01*
X198805842Y-110388425D01*
X198828026Y-110372891D01*
X198991401Y-110258495D01*
X199158495Y-110091401D01*
X199294035Y-109897830D01*
X199393903Y-109683663D01*
X199455063Y-109455408D01*
X199475659Y-109220000D01*
X199455063Y-108984592D01*
X199393903Y-108756337D01*
X199294035Y-108542171D01*
X199288425Y-108534158D01*
X199158494Y-108348597D01*
X198991402Y-108181506D01*
X198991396Y-108181501D01*
X198805842Y-108051575D01*
X198762217Y-107996998D01*
X198755023Y-107927500D01*
X198786546Y-107865145D01*
X198805842Y-107848425D01*
X198828026Y-107832891D01*
X198991401Y-107718495D01*
X199158495Y-107551401D01*
X199294035Y-107357830D01*
X199393903Y-107143663D01*
X199455063Y-106915408D01*
X199475659Y-106680000D01*
X199455063Y-106444592D01*
X199393903Y-106216337D01*
X199294035Y-106002171D01*
X199288425Y-105994158D01*
X199158494Y-105808597D01*
X198991398Y-105641501D01*
X198990030Y-105640354D01*
X198989592Y-105639696D01*
X198987573Y-105637677D01*
X198987978Y-105637271D01*
X198951330Y-105582182D01*
X198950224Y-105512321D01*
X198987063Y-105452952D01*
X199030737Y-105427662D01*
X199039334Y-105424814D01*
X199188656Y-105332712D01*
X199312712Y-105208656D01*
X199404814Y-105059334D01*
X199459999Y-104892797D01*
X199470500Y-104790009D01*
X199470499Y-103489992D01*
X199459999Y-103387203D01*
X199404814Y-103220666D01*
X199312712Y-103071344D01*
X199188656Y-102947288D01*
X199095888Y-102890069D01*
X199039336Y-102855187D01*
X199039331Y-102855185D01*
X199037862Y-102854698D01*
X198872797Y-102800001D01*
X198872795Y-102800000D01*
X198770010Y-102789500D01*
X197469998Y-102789500D01*
X197469981Y-102789501D01*
X197367203Y-102800000D01*
X197367200Y-102800001D01*
X197200668Y-102855185D01*
X197200663Y-102855187D01*
X197051342Y-102947289D01*
X196927289Y-103071342D01*
X196835187Y-103220663D01*
X196835183Y-103220673D01*
X196832335Y-103229268D01*
X196792560Y-103286711D01*
X196728044Y-103313531D01*
X196659268Y-103301214D01*
X196622517Y-103272233D01*
X196622324Y-103272427D01*
X196620682Y-103270785D01*
X196619642Y-103269965D01*
X196618494Y-103268597D01*
X196451402Y-103101506D01*
X196451395Y-103101501D01*
X196257834Y-102965967D01*
X196257830Y-102965965D01*
X196217777Y-102947288D01*
X196043663Y-102866097D01*
X196043659Y-102866096D01*
X196043655Y-102866094D01*
X195815413Y-102804938D01*
X195815403Y-102804936D01*
X195580001Y-102784341D01*
X195579999Y-102784341D01*
X195344596Y-102804936D01*
X195344586Y-102804938D01*
X195116344Y-102866094D01*
X195116335Y-102866098D01*
X194902171Y-102965964D01*
X194902169Y-102965965D01*
X194708597Y-103101505D01*
X194541505Y-103268597D01*
X194405965Y-103462169D01*
X194405964Y-103462171D01*
X194306098Y-103676335D01*
X194306094Y-103676344D01*
X194244938Y-103904586D01*
X194244936Y-103904596D01*
X194224341Y-104139999D01*
X194224341Y-104140000D01*
X194244936Y-104375403D01*
X194244938Y-104375413D01*
X194306094Y-104603655D01*
X194306096Y-104603659D01*
X194306097Y-104603663D01*
X194390499Y-104784663D01*
X194405965Y-104817830D01*
X194405967Y-104817834D01*
X194512670Y-104970220D01*
X194540245Y-105009602D01*
X194541501Y-105011395D01*
X194541506Y-105011402D01*
X194708597Y-105178493D01*
X194708603Y-105178498D01*
X194894158Y-105308425D01*
X194937783Y-105363002D01*
X194944977Y-105432500D01*
X194913454Y-105494855D01*
X194894158Y-105511575D01*
X194708597Y-105641505D01*
X194541505Y-105808597D01*
X194405965Y-106002169D01*
X194405964Y-106002171D01*
X194306098Y-106216335D01*
X194306094Y-106216344D01*
X194244938Y-106444586D01*
X194244936Y-106444596D01*
X194224341Y-106679999D01*
X194224341Y-106680000D01*
X194244936Y-106915403D01*
X194244938Y-106915413D01*
X194306094Y-107143655D01*
X194306096Y-107143659D01*
X194306097Y-107143663D01*
X194310000Y-107152032D01*
X194405965Y-107357830D01*
X194405967Y-107357834D01*
X194514281Y-107512521D01*
X194541501Y-107551396D01*
X194541506Y-107551402D01*
X194708597Y-107718493D01*
X194708603Y-107718498D01*
X194894158Y-107848425D01*
X194937783Y-107903002D01*
X194944977Y-107972500D01*
X194913454Y-108034855D01*
X194894158Y-108051575D01*
X194708597Y-108181505D01*
X194541505Y-108348597D01*
X194405965Y-108542169D01*
X194405964Y-108542171D01*
X194306098Y-108756335D01*
X194306094Y-108756344D01*
X194244938Y-108984586D01*
X194244936Y-108984596D01*
X194224341Y-109219999D01*
X194224341Y-109220000D01*
X194244936Y-109455403D01*
X194244938Y-109455413D01*
X194306094Y-109683655D01*
X194306096Y-109683659D01*
X194306097Y-109683663D01*
X194310000Y-109692032D01*
X194405965Y-109897830D01*
X194405967Y-109897834D01*
X194514281Y-110052521D01*
X194541501Y-110091396D01*
X194541506Y-110091402D01*
X194708597Y-110258493D01*
X194708603Y-110258498D01*
X194894158Y-110388425D01*
X194937783Y-110443002D01*
X194944977Y-110512500D01*
X194913454Y-110574855D01*
X194894158Y-110591575D01*
X194708597Y-110721505D01*
X194541505Y-110888597D01*
X194405965Y-111082169D01*
X194405964Y-111082171D01*
X194306098Y-111296335D01*
X194306094Y-111296344D01*
X194244938Y-111524586D01*
X194244936Y-111524596D01*
X194224341Y-111759999D01*
X194224341Y-111760000D01*
X194244936Y-111995403D01*
X194244938Y-111995413D01*
X194306094Y-112223655D01*
X194306096Y-112223659D01*
X194306097Y-112223663D01*
X194310000Y-112232032D01*
X194405965Y-112437830D01*
X194405967Y-112437834D01*
X194514281Y-112592521D01*
X194541505Y-112631401D01*
X194708599Y-112798495D01*
X194894158Y-112928425D01*
X194894594Y-112928730D01*
X194938218Y-112983307D01*
X194945411Y-113052806D01*
X194913889Y-113115160D01*
X194894593Y-113131880D01*
X194818626Y-113185072D01*
X194818625Y-113185072D01*
X195450590Y-113817037D01*
X195387007Y-113834075D01*
X195272993Y-113899901D01*
X195179901Y-113992993D01*
X195114075Y-114107007D01*
X195097037Y-114170589D01*
X194465073Y-113538625D01*
X194465072Y-113538625D01*
X194406401Y-113622419D01*
X194306570Y-113836507D01*
X194306566Y-113836516D01*
X194245432Y-114064673D01*
X194245430Y-114064684D01*
X194224843Y-114299998D01*
X194224843Y-114300001D01*
X194245430Y-114535315D01*
X194245432Y-114535326D01*
X194306566Y-114763483D01*
X194306570Y-114763492D01*
X194406400Y-114977579D01*
X194406402Y-114977583D01*
X194465072Y-115061373D01*
X194465073Y-115061373D01*
X195097037Y-114429409D01*
X195114075Y-114492993D01*
X195179901Y-114607007D01*
X195272993Y-114700099D01*
X195387007Y-114765925D01*
X195450590Y-114782962D01*
X194818625Y-115414925D01*
X194902421Y-115473599D01*
X195116507Y-115573429D01*
X195116516Y-115573433D01*
X195344673Y-115634567D01*
X195344684Y-115634569D01*
X195579998Y-115655157D01*
X195580002Y-115655157D01*
X195815315Y-115634569D01*
X195815326Y-115634567D01*
X196043406Y-115573454D01*
X196113255Y-115575117D01*
X196171118Y-115614280D01*
X196198622Y-115678508D01*
X196199499Y-115693229D01*
X196199499Y-115709046D01*
X196199500Y-115709059D01*
X196199500Y-121954091D01*
X196179815Y-122021130D01*
X196135731Y-122059641D01*
X196136813Y-122061395D01*
X196130667Y-122065185D01*
X196130666Y-122065186D01*
X196032419Y-122125784D01*
X195981342Y-122157289D01*
X195887681Y-122250951D01*
X195826358Y-122284436D01*
X195756666Y-122279452D01*
X195712319Y-122250951D01*
X195618657Y-122157289D01*
X195618656Y-122157288D01*
X195469334Y-122065186D01*
X195302797Y-122010001D01*
X195302795Y-122010000D01*
X195200010Y-121999500D01*
X194399998Y-121999500D01*
X194399980Y-121999501D01*
X194297203Y-122010000D01*
X194297200Y-122010001D01*
X194130668Y-122065185D01*
X194130663Y-122065187D01*
X193981342Y-122157289D01*
X193857289Y-122281342D01*
X193765187Y-122430663D01*
X193765185Y-122430668D01*
X193737405Y-122514504D01*
X193697632Y-122571949D01*
X193633116Y-122598772D01*
X193619699Y-122599500D01*
X154100097Y-122599500D01*
X154033058Y-122579815D01*
X154012416Y-122563181D01*
X137530700Y-106081465D01*
X137497215Y-106020142D01*
X137495163Y-106007686D01*
X137485368Y-105920745D01*
X137425789Y-105750478D01*
X137329816Y-105597738D01*
X137202262Y-105470184D01*
X137181277Y-105456998D01*
X137049523Y-105374211D01*
X136879254Y-105314631D01*
X136879249Y-105314630D01*
X136700004Y-105294435D01*
X136699996Y-105294435D01*
X136520750Y-105314630D01*
X136520745Y-105314631D01*
X136350476Y-105374211D01*
X136197737Y-105470184D01*
X136070184Y-105597737D01*
X135974211Y-105750476D01*
X135914631Y-105920745D01*
X135914630Y-105920750D01*
X135894435Y-106099996D01*
X129500500Y-106099996D01*
X129500500Y-96999997D01*
X131644579Y-96999997D01*
X131644579Y-97000002D01*
X131664248Y-97362782D01*
X131664250Y-97362799D01*
X131723024Y-97721303D01*
X131723030Y-97721329D01*
X131820221Y-98071381D01*
X131820226Y-98071396D01*
X131954700Y-98408901D01*
X131954706Y-98408913D01*
X132124878Y-98729892D01*
X132124881Y-98729897D01*
X132124883Y-98729900D01*
X132328773Y-99030614D01*
X132563979Y-99307521D01*
X132827746Y-99557375D01*
X133116981Y-99777245D01*
X133428292Y-99964555D01*
X133428294Y-99964556D01*
X133428296Y-99964557D01*
X133428300Y-99964559D01*
X133758020Y-100117103D01*
X133758031Y-100117108D01*
X134102330Y-100233116D01*
X134457153Y-100311218D01*
X134818341Y-100350500D01*
X134818347Y-100350500D01*
X135181653Y-100350500D01*
X135181659Y-100350500D01*
X135542847Y-100311218D01*
X135897670Y-100233116D01*
X136241969Y-100117108D01*
X136571708Y-99964555D01*
X136883019Y-99777245D01*
X137172254Y-99557375D01*
X137436021Y-99307521D01*
X137671227Y-99030614D01*
X137875117Y-98729900D01*
X138045298Y-98408905D01*
X138179775Y-98071391D01*
X138276973Y-97721316D01*
X138335751Y-97362785D01*
X138355421Y-97000000D01*
X138355421Y-96999997D01*
X200644579Y-96999997D01*
X200644579Y-97000002D01*
X200664248Y-97362782D01*
X200664250Y-97362799D01*
X200723024Y-97721303D01*
X200723030Y-97721329D01*
X200820221Y-98071381D01*
X200820226Y-98071396D01*
X200954700Y-98408901D01*
X200954706Y-98408913D01*
X201124878Y-98729892D01*
X201124881Y-98729897D01*
X201124883Y-98729900D01*
X201328773Y-99030614D01*
X201563979Y-99307521D01*
X201827746Y-99557375D01*
X202116981Y-99777245D01*
X202428292Y-99964555D01*
X202428294Y-99964556D01*
X202428296Y-99964557D01*
X202428300Y-99964559D01*
X202758020Y-100117103D01*
X202758031Y-100117108D01*
X203102330Y-100233116D01*
X203457153Y-100311218D01*
X203818341Y-100350500D01*
X203818347Y-100350500D01*
X204181653Y-100350500D01*
X204181659Y-100350500D01*
X204542847Y-100311218D01*
X204897670Y-100233116D01*
X205241969Y-100117108D01*
X205571708Y-99964555D01*
X205883019Y-99777245D01*
X206172254Y-99557375D01*
X206436021Y-99307521D01*
X206671227Y-99030614D01*
X206875117Y-98729900D01*
X207045298Y-98408905D01*
X207179775Y-98071391D01*
X207276973Y-97721316D01*
X207335751Y-97362785D01*
X207355421Y-97000000D01*
X207335751Y-96637215D01*
X207276973Y-96278684D01*
X207259097Y-96214303D01*
X207179778Y-95928618D01*
X207179773Y-95928603D01*
X207045299Y-95591098D01*
X207045298Y-95591095D01*
X206875117Y-95270100D01*
X206671227Y-94969386D01*
X206436021Y-94692479D01*
X206172254Y-94442625D01*
X206172244Y-94442617D01*
X206103635Y-94390462D01*
X205883019Y-94222755D01*
X205571708Y-94035445D01*
X205571707Y-94035444D01*
X205571703Y-94035442D01*
X205571699Y-94035440D01*
X205241979Y-93882896D01*
X205241974Y-93882894D01*
X205241969Y-93882892D01*
X205074143Y-93826344D01*
X204897669Y-93766883D01*
X204542845Y-93688781D01*
X204181660Y-93649500D01*
X204181659Y-93649500D01*
X203818341Y-93649500D01*
X203818339Y-93649500D01*
X203457154Y-93688781D01*
X203102330Y-93766883D01*
X202836178Y-93856560D01*
X202758031Y-93882892D01*
X202758028Y-93882893D01*
X202758020Y-93882896D01*
X202428300Y-94035440D01*
X202428296Y-94035442D01*
X202196453Y-94174937D01*
X202116981Y-94222755D01*
X202027332Y-94290903D01*
X201827755Y-94442617D01*
X201827745Y-94442625D01*
X201563978Y-94692479D01*
X201328772Y-94969386D01*
X201124884Y-95270098D01*
X201124878Y-95270107D01*
X200954706Y-95591086D01*
X200954700Y-95591098D01*
X200820226Y-95928603D01*
X200820221Y-95928618D01*
X200723030Y-96278670D01*
X200723024Y-96278696D01*
X200664250Y-96637200D01*
X200664248Y-96637217D01*
X200644579Y-96999997D01*
X138355421Y-96999997D01*
X138335751Y-96637215D01*
X138276973Y-96278684D01*
X138259097Y-96214303D01*
X138179778Y-95928618D01*
X138179773Y-95928603D01*
X138045299Y-95591098D01*
X138045298Y-95591095D01*
X137875117Y-95270100D01*
X137671227Y-94969386D01*
X137436021Y-94692479D01*
X137172254Y-94442625D01*
X137172244Y-94442617D01*
X137103635Y-94390462D01*
X136883019Y-94222755D01*
X136571708Y-94035445D01*
X136571707Y-94035444D01*
X136571703Y-94035442D01*
X136571699Y-94035440D01*
X136241979Y-93882896D01*
X136241974Y-93882894D01*
X136241969Y-93882892D01*
X136074143Y-93826344D01*
X135897669Y-93766883D01*
X135542845Y-93688781D01*
X135181660Y-93649500D01*
X135181659Y-93649500D01*
X134818341Y-93649500D01*
X134818339Y-93649500D01*
X134457154Y-93688781D01*
X134102330Y-93766883D01*
X133836178Y-93856560D01*
X133758031Y-93882892D01*
X133758028Y-93882893D01*
X133758020Y-93882896D01*
X133428300Y-94035440D01*
X133428296Y-94035442D01*
X133196453Y-94174937D01*
X133116981Y-94222755D01*
X133027332Y-94290903D01*
X132827755Y-94442617D01*
X132827745Y-94442625D01*
X132563978Y-94692479D01*
X132328772Y-94969386D01*
X132124884Y-95270098D01*
X132124878Y-95270107D01*
X131954706Y-95591086D01*
X131954700Y-95591098D01*
X131820226Y-95928603D01*
X131820221Y-95928618D01*
X131723030Y-96278670D01*
X131723024Y-96278696D01*
X131664250Y-96637200D01*
X131664248Y-96637217D01*
X131644579Y-96999997D01*
X129500500Y-96999997D01*
X129500500Y-93085499D01*
X129509939Y-93038047D01*
X129511171Y-93035072D01*
X129544430Y-92954775D01*
X129550452Y-92942269D01*
X129706467Y-92659983D01*
X129713854Y-92648228D01*
X129900482Y-92385201D01*
X129909128Y-92374358D01*
X130124049Y-92133861D01*
X130133861Y-92124049D01*
X130374358Y-91909128D01*
X130385201Y-91900482D01*
X130648228Y-91713854D01*
X130659983Y-91706467D01*
X130942269Y-91550452D01*
X130954768Y-91544434D01*
X131038049Y-91509937D01*
X131085500Y-91500500D01*
X207914500Y-91500500D01*
X207961952Y-91509939D01*
G37*
%TD.AperFunction*%
%TD*%
M02*
