%TF.GenerationSoftware,KiCad,Pcbnew,9.0.0*%
%TF.CreationDate,2025-03-04T20:01:11+01:00*%
%TF.ProjectId,esp32vga-keypad,65737033-3276-4676-912d-6b6579706164,2*%
%TF.SameCoordinates,Original*%
%TF.FileFunction,Copper,L1,Top*%
%TF.FilePolarity,Positive*%
%FSLAX46Y46*%
G04 Gerber Fmt 4.6, Leading zero omitted, Abs format (unit mm)*
G04 Created by KiCad (PCBNEW 9.0.0) date 2025-03-04 20:01:11*
%MOMM*%
%LPD*%
G01*
G04 APERTURE LIST*
G04 Aperture macros list*
%AMRoundRect*
0 Rectangle with rounded corners*
0 $1 Rounding radius*
0 $2 $3 $4 $5 $6 $7 $8 $9 X,Y pos of 4 corners*
0 Add a 4 corners polygon primitive as box body*
4,1,4,$2,$3,$4,$5,$6,$7,$8,$9,$2,$3,0*
0 Add four circle primitives for the rounded corners*
1,1,$1+$1,$2,$3*
1,1,$1+$1,$4,$5*
1,1,$1+$1,$6,$7*
1,1,$1+$1,$8,$9*
0 Add four rect primitives between the rounded corners*
20,1,$1+$1,$2,$3,$4,$5,0*
20,1,$1+$1,$4,$5,$6,$7,0*
20,1,$1+$1,$6,$7,$8,$9,0*
20,1,$1+$1,$8,$9,$2,$3,0*%
G04 Aperture macros list end*
%TA.AperFunction,SMDPad,CuDef*%
%ADD10R,2.400000X1.300000*%
%TD*%
%TA.AperFunction,ComponentPad*%
%ADD11C,5.700000*%
%TD*%
%TA.AperFunction,SMDPad,CuDef*%
%ADD12RoundRect,0.237500X-0.287500X-0.237500X0.287500X-0.237500X0.287500X0.237500X-0.287500X0.237500X0*%
%TD*%
%TA.AperFunction,SMDPad,CuDef*%
%ADD13RoundRect,0.250000X0.350000X0.450000X-0.350000X0.450000X-0.350000X-0.450000X0.350000X-0.450000X0*%
%TD*%
%TA.AperFunction,ComponentPad*%
%ADD14RoundRect,0.250000X0.600000X0.600000X-0.600000X0.600000X-0.600000X-0.600000X0.600000X-0.600000X0*%
%TD*%
%TA.AperFunction,ComponentPad*%
%ADD15C,1.700000*%
%TD*%
%TA.AperFunction,ViaPad*%
%ADD16C,0.600000*%
%TD*%
%TA.AperFunction,Conductor*%
%ADD17C,0.200000*%
%TD*%
G04 APERTURE END LIST*
D10*
%TO.P,SW2,1,1*%
%TO.N,/K_UP*%
X173890000Y-101090000D03*
X165090000Y-101090000D03*
%TO.P,SW2,2,2*%
%TO.N,GND*%
X173890000Y-96590000D03*
X165090000Y-96590000D03*
%TD*%
D11*
%TO.P,H1,1,1*%
%TO.N,GND*%
X135000000Y-97000000D03*
%TD*%
%TO.P,H3,1,1*%
%TO.N,GND*%
X204000000Y-121000000D03*
%TD*%
D10*
%TO.P,SW4,1,1*%
%TO.N,/K_DOWN*%
X165090000Y-116910000D03*
X173890000Y-116910000D03*
%TO.P,SW4,2,2*%
%TO.N,GND*%
X165090000Y-121410000D03*
X173890000Y-121410000D03*
%TD*%
D11*
%TO.P,H4,1,1*%
%TO.N,GND*%
X135000000Y-121000000D03*
%TD*%
%TO.P,H2,1,1*%
%TO.N,GND*%
X204000000Y-97000000D03*
%TD*%
D12*
%TO.P,D2,1,K*%
%TO.N,GND*%
X133600000Y-108690000D03*
%TO.P,D2,2,A*%
%TO.N,/L_STAT*%
X135350000Y-108690000D03*
%TD*%
D10*
%TO.P,SW3,1,1*%
%TO.N,/K_RIGHT*%
X180330000Y-106750000D03*
X189130000Y-106750000D03*
%TO.P,SW3,2,2*%
%TO.N,GND*%
X180330000Y-111250000D03*
X189130000Y-111250000D03*
%TD*%
D12*
%TO.P,D1,1,K*%
%TO.N,GND*%
X133600000Y-106100000D03*
%TO.P,D1,2,A*%
%TO.N,Net-(D1-A)*%
X135350000Y-106100000D03*
%TD*%
D10*
%TO.P,SW1,1,1*%
%TO.N,/K_LEFT*%
X149850000Y-106750000D03*
X158650000Y-106750000D03*
%TO.P,SW1,2,2*%
%TO.N,GND*%
X149850000Y-111250000D03*
X158650000Y-111250000D03*
%TD*%
D12*
%TO.P,D3,1,K*%
%TO.N,GND*%
X133600000Y-111300000D03*
%TO.P,D3,2,A*%
%TO.N,/L_SYNC*%
X135350000Y-111300000D03*
%TD*%
D13*
%TO.P,R1,1*%
%TO.N,Net-(D1-A)*%
X135467600Y-114884200D03*
%TO.P,R1,2*%
%TO.N,+3.3V*%
X133467600Y-114884200D03*
%TD*%
D10*
%TO.P,SW5,1,1*%
%TO.N,/RST*%
X149865800Y-99354200D03*
X141065800Y-99354200D03*
%TO.P,SW5,2,2*%
%TO.N,GND*%
X149865800Y-94854200D03*
X141065800Y-94854200D03*
%TD*%
D14*
%TO.P,J1,1,Pin_1*%
%TO.N,/K_DOWN*%
X198120000Y-104140000D03*
D15*
%TO.P,J1,2,Pin_2*%
%TO.N,/K_RIGHT*%
X195580000Y-104140000D03*
%TO.P,J1,3,Pin_3*%
%TO.N,/K_UP*%
X198120000Y-106680000D03*
%TO.P,J1,4,Pin_4*%
%TO.N,/K_LEFT*%
X195580000Y-106680000D03*
%TO.P,J1,5,Pin_5*%
%TO.N,/L_STAT*%
X198120000Y-109220000D03*
%TO.P,J1,6,Pin_6*%
%TO.N,/L_SYNC*%
X195580000Y-109220000D03*
%TO.P,J1,7,Pin_7*%
%TO.N,/RST*%
X198120000Y-111760000D03*
%TO.P,J1,8,Pin_8*%
%TO.N,unconnected-(J1-Pin_8-Pad8)*%
X195580000Y-111760000D03*
%TO.P,J1,9,Pin_9*%
%TO.N,+3.3V*%
X198120000Y-114300000D03*
%TO.P,J1,10,Pin_10*%
%TO.N,GND*%
X195580000Y-114300000D03*
%TD*%
D16*
%TO.N,GND*%
X154300000Y-101800000D03*
X154254200Y-121462800D03*
X184708800Y-121412000D03*
X184750000Y-101800000D03*
%TD*%
D17*
%TO.N,/K_DOWN*%
X191300000Y-109620000D02*
X178466800Y-109620000D01*
X173465000Y-115955000D02*
X173465000Y-116910000D01*
X198490000Y-110610000D02*
X192290000Y-110610000D01*
X178308000Y-109778800D02*
X178308000Y-111112000D01*
X178466800Y-109620000D02*
X178308000Y-109778800D01*
X199270000Y-109830000D02*
X198490000Y-110610000D01*
X192290000Y-110610000D02*
X191300000Y-109620000D01*
X198120000Y-104140000D02*
X199270000Y-105290000D01*
X199270000Y-105290000D02*
X199270000Y-109830000D01*
X173465000Y-116910000D02*
X165515000Y-116910000D01*
X178308000Y-111112000D02*
X173465000Y-115955000D01*
%TO.N,/K_RIGHT*%
X188705000Y-106750000D02*
X188815000Y-106750000D01*
X195580000Y-104140000D02*
X191315000Y-104140000D01*
X180755000Y-106750000D02*
X188705000Y-106750000D01*
X191315000Y-104140000D02*
X188705000Y-106750000D01*
%TO.N,/K_LEFT*%
X191400000Y-108400000D02*
X193120000Y-106680000D01*
X193120000Y-106680000D02*
X195580000Y-106680000D01*
X150275000Y-106750000D02*
X158225000Y-106750000D01*
X158225000Y-106750000D02*
X159875000Y-108400000D01*
X159875000Y-108400000D02*
X191400000Y-108400000D01*
%TO.N,/K_UP*%
X198120000Y-106680000D02*
X196970000Y-105530000D01*
X178566000Y-107700000D02*
X178333400Y-107467400D01*
X178333400Y-106233400D02*
X173465000Y-101365000D01*
X191084200Y-106395800D02*
X191084200Y-107340400D01*
X173465000Y-101365000D02*
X173465000Y-101090000D01*
X190724600Y-107700000D02*
X178566000Y-107700000D01*
X196970000Y-105530000D02*
X191950000Y-105530000D01*
X191084200Y-107340400D02*
X190724600Y-107700000D01*
X191950000Y-105530000D02*
X191084200Y-106395800D01*
X178333400Y-107467400D02*
X178333400Y-106233400D01*
X173465000Y-101090000D02*
X165515000Y-101090000D01*
%TO.N,Net-(D1-A)*%
X134525000Y-106925000D02*
X134525000Y-113941600D01*
X135350000Y-106100000D02*
X134525000Y-106925000D01*
X134525000Y-113941600D02*
X135467600Y-114884200D01*
%TO.N,/L_STAT*%
X196970000Y-108070000D02*
X192295686Y-108070000D01*
X135460000Y-108800000D02*
X135350000Y-108690000D01*
X198120000Y-109220000D02*
X196970000Y-108070000D01*
X191565686Y-108800000D02*
X135460000Y-108800000D01*
X192295686Y-108070000D02*
X191565686Y-108800000D01*
%TO.N,/L_SYNC*%
X137430000Y-109220000D02*
X135350000Y-111300000D01*
X195580000Y-109220000D02*
X137430000Y-109220000D01*
%TO.N,/RST*%
X200400000Y-109480000D02*
X198120000Y-111760000D01*
X147975000Y-99350000D02*
X197150000Y-99350000D01*
X147975000Y-99350000D02*
X140025000Y-99350000D01*
X200400000Y-102600000D02*
X200400000Y-109480000D01*
X197150000Y-99350000D02*
X200400000Y-102600000D01*
%TO.N,+3.3V*%
X160197800Y-116992400D02*
X162356800Y-119151400D01*
X135575800Y-116992400D02*
X160197800Y-116992400D01*
X162356800Y-119151400D02*
X193268600Y-119151400D01*
X133467600Y-114884200D02*
X135575800Y-116992400D01*
X193268600Y-119151400D02*
X198120000Y-114300000D01*
%TD*%
%TA.AperFunction,Conductor*%
%TO.N,GND*%
G36*
X177650539Y-109840185D02*
G01*
X177696294Y-109892989D01*
X177707500Y-109944500D01*
X177707500Y-110811902D01*
X177687815Y-110878941D01*
X177671181Y-110899583D01*
X172984481Y-115586282D01*
X172984475Y-115586290D01*
X172947407Y-115650494D01*
X172947405Y-115650499D01*
X172947405Y-115650500D01*
X172920269Y-115697501D01*
X172869701Y-115745716D01*
X172812883Y-115759500D01*
X172642130Y-115759500D01*
X172642123Y-115759501D01*
X172582516Y-115765908D01*
X172447671Y-115816202D01*
X172447664Y-115816206D01*
X172332455Y-115902452D01*
X172332452Y-115902455D01*
X172246206Y-116017664D01*
X172246202Y-116017671D01*
X172207657Y-116121018D01*
X172195909Y-116152517D01*
X172190937Y-116198757D01*
X172164201Y-116263306D01*
X172106809Y-116303154D01*
X172067649Y-116309500D01*
X166912351Y-116309500D01*
X166845312Y-116289815D01*
X166799557Y-116237011D01*
X166789061Y-116198752D01*
X166784091Y-116152516D01*
X166733797Y-116017671D01*
X166733793Y-116017664D01*
X166647547Y-115902455D01*
X166647544Y-115902452D01*
X166532335Y-115816206D01*
X166532328Y-115816202D01*
X166397482Y-115765908D01*
X166397483Y-115765908D01*
X166337883Y-115759501D01*
X166337881Y-115759500D01*
X166337873Y-115759500D01*
X166337864Y-115759500D01*
X163842129Y-115759500D01*
X163842123Y-115759501D01*
X163782516Y-115765908D01*
X163647671Y-115816202D01*
X163647664Y-115816206D01*
X163532455Y-115902452D01*
X163532452Y-115902455D01*
X163446206Y-116017664D01*
X163446202Y-116017671D01*
X163395908Y-116152517D01*
X163389501Y-116212116D01*
X163389501Y-116212123D01*
X163389500Y-116212135D01*
X163389500Y-117607870D01*
X163389501Y-117607876D01*
X163395908Y-117667483D01*
X163446202Y-117802328D01*
X163446206Y-117802335D01*
X163532452Y-117917544D01*
X163532455Y-117917547D01*
X163647664Y-118003793D01*
X163647671Y-118003797D01*
X163782517Y-118054091D01*
X163782516Y-118054091D01*
X163789444Y-118054835D01*
X163842127Y-118060500D01*
X166337872Y-118060499D01*
X166397483Y-118054091D01*
X166532331Y-118003796D01*
X166647546Y-117917546D01*
X166733796Y-117802331D01*
X166784091Y-117667483D01*
X166789062Y-117621242D01*
X166815799Y-117556694D01*
X166873191Y-117516846D01*
X166912351Y-117510500D01*
X172067649Y-117510500D01*
X172134688Y-117530185D01*
X172180443Y-117582989D01*
X172190939Y-117621248D01*
X172195908Y-117667483D01*
X172246202Y-117802328D01*
X172246206Y-117802335D01*
X172332452Y-117917544D01*
X172332455Y-117917547D01*
X172447664Y-118003793D01*
X172447671Y-118003797D01*
X172582517Y-118054091D01*
X172582516Y-118054091D01*
X172589444Y-118054835D01*
X172642127Y-118060500D01*
X175137872Y-118060499D01*
X175197483Y-118054091D01*
X175332331Y-118003796D01*
X175447546Y-117917546D01*
X175533796Y-117802331D01*
X175584091Y-117667483D01*
X175590500Y-117607873D01*
X175590499Y-116212128D01*
X175584091Y-116152517D01*
X175568021Y-116109432D01*
X175533797Y-116017671D01*
X175533793Y-116017664D01*
X175447547Y-115902455D01*
X175447544Y-115902452D01*
X175332335Y-115816206D01*
X175332328Y-115816202D01*
X175197482Y-115765908D01*
X175197483Y-115765908D01*
X175137883Y-115759501D01*
X175137881Y-115759500D01*
X175137873Y-115759500D01*
X175137865Y-115759500D01*
X174809096Y-115759500D01*
X174742057Y-115739815D01*
X174696302Y-115687011D01*
X174686358Y-115617853D01*
X174715383Y-115554297D01*
X174721415Y-115547819D01*
X178418319Y-111850915D01*
X178479642Y-111817430D01*
X178549334Y-111822414D01*
X178605267Y-111864286D01*
X178629684Y-111929750D01*
X178630000Y-111938596D01*
X178630000Y-111947844D01*
X178636401Y-112007372D01*
X178636403Y-112007379D01*
X178686645Y-112142086D01*
X178686649Y-112142093D01*
X178772809Y-112257187D01*
X178772812Y-112257190D01*
X178887906Y-112343350D01*
X178887913Y-112343354D01*
X179022620Y-112393596D01*
X179022627Y-112393598D01*
X179082155Y-112399999D01*
X179082172Y-112400000D01*
X180080000Y-112400000D01*
X180580000Y-112400000D01*
X181577828Y-112400000D01*
X181577844Y-112399999D01*
X181637372Y-112393598D01*
X181637379Y-112393596D01*
X181772086Y-112343354D01*
X181772093Y-112343350D01*
X181887187Y-112257190D01*
X181887190Y-112257187D01*
X181973350Y-112142093D01*
X181973354Y-112142086D01*
X182023596Y-112007379D01*
X182023598Y-112007372D01*
X182029999Y-111947844D01*
X187430000Y-111947844D01*
X187436401Y-112007372D01*
X187436403Y-112007379D01*
X187486645Y-112142086D01*
X187486649Y-112142093D01*
X187572809Y-112257187D01*
X187572812Y-112257190D01*
X187687906Y-112343350D01*
X187687913Y-112343354D01*
X187822620Y-112393596D01*
X187822627Y-112393598D01*
X187882155Y-112399999D01*
X187882172Y-112400000D01*
X188880000Y-112400000D01*
X189380000Y-112400000D01*
X190377828Y-112400000D01*
X190377844Y-112399999D01*
X190437372Y-112393598D01*
X190437379Y-112393596D01*
X190572086Y-112343354D01*
X190572093Y-112343350D01*
X190687187Y-112257190D01*
X190687190Y-112257187D01*
X190773350Y-112142093D01*
X190773354Y-112142086D01*
X190823596Y-112007379D01*
X190823598Y-112007372D01*
X190829999Y-111947844D01*
X190830000Y-111947827D01*
X190830000Y-111500000D01*
X189380000Y-111500000D01*
X189380000Y-112400000D01*
X188880000Y-112400000D01*
X188880000Y-111500000D01*
X187430000Y-111500000D01*
X187430000Y-111947844D01*
X182029999Y-111947844D01*
X182030000Y-111947827D01*
X182030000Y-111500000D01*
X180580000Y-111500000D01*
X180580000Y-112400000D01*
X180080000Y-112400000D01*
X180080000Y-111374000D01*
X180099685Y-111306961D01*
X180152489Y-111261206D01*
X180204000Y-111250000D01*
X180330000Y-111250000D01*
X180330000Y-111124000D01*
X180349685Y-111056961D01*
X180402489Y-111011206D01*
X180454000Y-111000000D01*
X182030000Y-111000000D01*
X182030000Y-110552172D01*
X182029999Y-110552155D01*
X182023598Y-110492627D01*
X182023596Y-110492619D01*
X181984514Y-110387833D01*
X181979530Y-110318141D01*
X182013015Y-110256818D01*
X182074339Y-110223334D01*
X182100696Y-110220500D01*
X187359304Y-110220500D01*
X187426343Y-110240185D01*
X187472098Y-110292989D01*
X187482042Y-110362147D01*
X187475486Y-110387833D01*
X187436403Y-110492619D01*
X187436401Y-110492627D01*
X187430000Y-110552155D01*
X187430000Y-111000000D01*
X190830000Y-111000000D01*
X190830000Y-110552172D01*
X190829999Y-110552155D01*
X190823598Y-110492627D01*
X190823596Y-110492619D01*
X190784514Y-110387833D01*
X190782325Y-110357224D01*
X190777958Y-110326853D01*
X190779855Y-110322697D01*
X190779530Y-110318141D01*
X190794236Y-110291208D01*
X190806983Y-110263297D01*
X190810825Y-110260827D01*
X190813015Y-110256818D01*
X190839945Y-110242113D01*
X190865761Y-110225523D01*
X190871963Y-110224631D01*
X190874339Y-110223334D01*
X190900696Y-110220500D01*
X190999903Y-110220500D01*
X191066942Y-110240185D01*
X191087584Y-110256819D01*
X191805139Y-110974374D01*
X191805149Y-110974385D01*
X191809479Y-110978715D01*
X191809480Y-110978716D01*
X191921284Y-111090520D01*
X191921286Y-111090521D01*
X191921290Y-111090524D01*
X192058209Y-111169573D01*
X192058216Y-111169577D01*
X192170019Y-111199534D01*
X192210942Y-111210500D01*
X192210943Y-111210500D01*
X194167873Y-111210500D01*
X194234912Y-111230185D01*
X194280667Y-111282989D01*
X194290611Y-111352147D01*
X194285805Y-111372813D01*
X194276492Y-111401476D01*
X194262753Y-111443760D01*
X194240116Y-111586684D01*
X194229500Y-111653713D01*
X194229500Y-111866287D01*
X194262754Y-112076243D01*
X194327496Y-112275498D01*
X194328444Y-112278414D01*
X194424951Y-112467820D01*
X194549890Y-112639786D01*
X194700213Y-112790109D01*
X194872179Y-112915048D01*
X194872181Y-112915049D01*
X194872184Y-112915051D01*
X194881493Y-112919794D01*
X194932290Y-112967766D01*
X194949087Y-113035587D01*
X194926552Y-113101722D01*
X194881505Y-113140760D01*
X194872446Y-113145376D01*
X194872440Y-113145380D01*
X194818282Y-113184727D01*
X194818282Y-113184728D01*
X195450591Y-113817037D01*
X195387007Y-113834075D01*
X195272993Y-113899901D01*
X195179901Y-113992993D01*
X195114075Y-114107007D01*
X195097037Y-114170591D01*
X194464728Y-113538282D01*
X194464727Y-113538282D01*
X194425380Y-113592439D01*
X194328904Y-113781782D01*
X194263242Y-113983869D01*
X194263242Y-113983872D01*
X194230000Y-114193753D01*
X194230000Y-114406246D01*
X194263242Y-114616127D01*
X194263242Y-114616130D01*
X194328904Y-114818217D01*
X194425375Y-115007550D01*
X194464728Y-115061716D01*
X195097037Y-114429408D01*
X195114075Y-114492993D01*
X195179901Y-114607007D01*
X195272993Y-114700099D01*
X195387007Y-114765925D01*
X195450590Y-114782962D01*
X194818282Y-115415269D01*
X194818282Y-115415270D01*
X194872449Y-115454624D01*
X195061782Y-115551095D01*
X195263870Y-115616757D01*
X195473754Y-115650000D01*
X195621402Y-115650000D01*
X195688441Y-115669685D01*
X195734196Y-115722489D01*
X195744140Y-115791647D01*
X195715115Y-115855203D01*
X195709083Y-115861681D01*
X193056184Y-118514581D01*
X192994861Y-118548066D01*
X192968503Y-118550900D01*
X162656897Y-118550900D01*
X162589858Y-118531215D01*
X162569216Y-118514581D01*
X160685390Y-116630755D01*
X160685388Y-116630752D01*
X160566517Y-116511881D01*
X160566516Y-116511880D01*
X160479704Y-116461760D01*
X160479704Y-116461759D01*
X160479700Y-116461758D01*
X160429585Y-116432823D01*
X160276857Y-116391899D01*
X160118743Y-116391899D01*
X160111147Y-116391899D01*
X160111131Y-116391900D01*
X135875897Y-116391900D01*
X135846456Y-116383255D01*
X135816470Y-116376732D01*
X135811454Y-116372977D01*
X135808858Y-116372215D01*
X135788216Y-116355581D01*
X135729015Y-116296380D01*
X135695530Y-116235057D01*
X135700514Y-116165365D01*
X135742386Y-116109432D01*
X135807850Y-116085015D01*
X135816696Y-116084699D01*
X135867602Y-116084699D01*
X135867608Y-116084699D01*
X135970397Y-116074199D01*
X136136934Y-116019014D01*
X136286256Y-115926912D01*
X136410312Y-115802856D01*
X136502414Y-115653534D01*
X136557599Y-115486997D01*
X136568100Y-115384209D01*
X136568099Y-114384192D01*
X136557599Y-114281403D01*
X136502414Y-114114866D01*
X136410312Y-113965544D01*
X136286256Y-113841488D01*
X136136934Y-113749386D01*
X135970397Y-113694201D01*
X135970395Y-113694200D01*
X135867616Y-113683700D01*
X135867609Y-113683700D01*
X135249500Y-113683700D01*
X135182461Y-113664015D01*
X135136706Y-113611211D01*
X135125500Y-113559700D01*
X135125500Y-112399499D01*
X135145185Y-112332460D01*
X135197989Y-112286705D01*
X135249500Y-112275499D01*
X135686670Y-112275499D01*
X135686676Y-112275499D01*
X135787753Y-112265174D01*
X135951516Y-112210908D01*
X136098350Y-112120340D01*
X136220340Y-111998350D01*
X136251492Y-111947844D01*
X148150000Y-111947844D01*
X148156401Y-112007372D01*
X148156403Y-112007379D01*
X148206645Y-112142086D01*
X148206649Y-112142093D01*
X148292809Y-112257187D01*
X148292812Y-112257190D01*
X148407906Y-112343350D01*
X148407913Y-112343354D01*
X148542620Y-112393596D01*
X148542627Y-112393598D01*
X148602155Y-112399999D01*
X148602172Y-112400000D01*
X149600000Y-112400000D01*
X150100000Y-112400000D01*
X151097828Y-112400000D01*
X151097844Y-112399999D01*
X151157372Y-112393598D01*
X151157379Y-112393596D01*
X151292086Y-112343354D01*
X151292093Y-112343350D01*
X151407187Y-112257190D01*
X151407190Y-112257187D01*
X151493350Y-112142093D01*
X151493354Y-112142086D01*
X151543596Y-112007379D01*
X151543598Y-112007372D01*
X151549999Y-111947844D01*
X156950000Y-111947844D01*
X156956401Y-112007372D01*
X156956403Y-112007379D01*
X157006645Y-112142086D01*
X157006649Y-112142093D01*
X157092809Y-112257187D01*
X157092812Y-112257190D01*
X157207906Y-112343350D01*
X157207913Y-112343354D01*
X157342620Y-112393596D01*
X157342627Y-112393598D01*
X157402155Y-112399999D01*
X157402172Y-112400000D01*
X158400000Y-112400000D01*
X158900000Y-112400000D01*
X159897828Y-112400000D01*
X159897844Y-112399999D01*
X159957372Y-112393598D01*
X159957379Y-112393596D01*
X160092086Y-112343354D01*
X160092093Y-112343350D01*
X160207187Y-112257190D01*
X160207190Y-112257187D01*
X160293350Y-112142093D01*
X160293354Y-112142086D01*
X160343596Y-112007379D01*
X160343598Y-112007372D01*
X160349999Y-111947844D01*
X160350000Y-111947827D01*
X160350000Y-111500000D01*
X158900000Y-111500000D01*
X158900000Y-112400000D01*
X158400000Y-112400000D01*
X158400000Y-111500000D01*
X156950000Y-111500000D01*
X156950000Y-111947844D01*
X151549999Y-111947844D01*
X151550000Y-111947827D01*
X151550000Y-111500000D01*
X150100000Y-111500000D01*
X150100000Y-112400000D01*
X149600000Y-112400000D01*
X149600000Y-111500000D01*
X148150000Y-111500000D01*
X148150000Y-111947844D01*
X136251492Y-111947844D01*
X136310908Y-111851516D01*
X136365174Y-111687753D01*
X136375500Y-111586677D01*
X136375499Y-111352147D01*
X136375499Y-111175096D01*
X136395183Y-111108057D01*
X136411813Y-111087420D01*
X136947079Y-110552155D01*
X148150000Y-110552155D01*
X148150000Y-111000000D01*
X149600000Y-111000000D01*
X150100000Y-111000000D01*
X151550000Y-111000000D01*
X151550000Y-110552172D01*
X151549999Y-110552155D01*
X156950000Y-110552155D01*
X156950000Y-111000000D01*
X158400000Y-111000000D01*
X158900000Y-111000000D01*
X160350000Y-111000000D01*
X160350000Y-110552172D01*
X160349999Y-110552155D01*
X160343598Y-110492627D01*
X160343596Y-110492620D01*
X160293354Y-110357913D01*
X160293350Y-110357906D01*
X160207190Y-110242812D01*
X160207187Y-110242809D01*
X160092093Y-110156649D01*
X160092086Y-110156645D01*
X159957379Y-110106403D01*
X159957372Y-110106401D01*
X159897844Y-110100000D01*
X158900000Y-110100000D01*
X158900000Y-111000000D01*
X158400000Y-111000000D01*
X158400000Y-110100000D01*
X157402155Y-110100000D01*
X157342627Y-110106401D01*
X157342620Y-110106403D01*
X157207913Y-110156645D01*
X157207906Y-110156649D01*
X157092812Y-110242809D01*
X157092809Y-110242812D01*
X157006649Y-110357906D01*
X157006645Y-110357913D01*
X156956403Y-110492620D01*
X156956401Y-110492627D01*
X156950000Y-110552155D01*
X151549999Y-110552155D01*
X151543598Y-110492627D01*
X151543596Y-110492620D01*
X151493354Y-110357913D01*
X151493350Y-110357906D01*
X151407190Y-110242812D01*
X151407187Y-110242809D01*
X151292093Y-110156649D01*
X151292086Y-110156645D01*
X151157379Y-110106403D01*
X151157372Y-110106401D01*
X151097844Y-110100000D01*
X150100000Y-110100000D01*
X150100000Y-111000000D01*
X149600000Y-111000000D01*
X149600000Y-110100000D01*
X148602155Y-110100000D01*
X148542627Y-110106401D01*
X148542620Y-110106403D01*
X148407913Y-110156645D01*
X148407906Y-110156649D01*
X148292812Y-110242809D01*
X148292809Y-110242812D01*
X148206649Y-110357906D01*
X148206645Y-110357913D01*
X148156403Y-110492620D01*
X148156401Y-110492627D01*
X148150000Y-110552155D01*
X136947079Y-110552155D01*
X137642416Y-109856819D01*
X137703739Y-109823334D01*
X137730097Y-109820500D01*
X177583500Y-109820500D01*
X177650539Y-109840185D01*
G37*
%TD.AperFunction*%
%TA.AperFunction,Conductor*%
G36*
X196921444Y-112413999D02*
G01*
X196960486Y-112459056D01*
X196964951Y-112467820D01*
X197089890Y-112639786D01*
X197240213Y-112790109D01*
X197412182Y-112915050D01*
X197420946Y-112919516D01*
X197471742Y-112967491D01*
X197488536Y-113035312D01*
X197465998Y-113101447D01*
X197420946Y-113140484D01*
X197412182Y-113144949D01*
X197240213Y-113269890D01*
X197089890Y-113420213D01*
X196964949Y-113592182D01*
X196960202Y-113601499D01*
X196912227Y-113652293D01*
X196844405Y-113669087D01*
X196778271Y-113646548D01*
X196739234Y-113601495D01*
X196734626Y-113592452D01*
X196695270Y-113538282D01*
X196695269Y-113538282D01*
X196062962Y-114170590D01*
X196045925Y-114107007D01*
X195980099Y-113992993D01*
X195887007Y-113899901D01*
X195772993Y-113834075D01*
X195709409Y-113817037D01*
X196341716Y-113184728D01*
X196287547Y-113145373D01*
X196287547Y-113145372D01*
X196278500Y-113140763D01*
X196227706Y-113092788D01*
X196210912Y-113024966D01*
X196233451Y-112958832D01*
X196278508Y-112919793D01*
X196287816Y-112915051D01*
X196367007Y-112857515D01*
X196459786Y-112790109D01*
X196459788Y-112790106D01*
X196459792Y-112790104D01*
X196610104Y-112639792D01*
X196610106Y-112639788D01*
X196610109Y-112639786D01*
X196735048Y-112467820D01*
X196735047Y-112467820D01*
X196735051Y-112467816D01*
X196739514Y-112459054D01*
X196787488Y-112408259D01*
X196855308Y-112391463D01*
X196921444Y-112413999D01*
G37*
%TD.AperFunction*%
%TA.AperFunction,Conductor*%
G36*
X196916942Y-99970185D02*
G01*
X196937584Y-99986819D01*
X199763181Y-102812416D01*
X199796666Y-102873739D01*
X199799500Y-102900097D01*
X199799500Y-104670902D01*
X199793261Y-104692147D01*
X199791682Y-104714236D01*
X199783609Y-104725019D01*
X199779815Y-104737941D01*
X199763081Y-104752440D01*
X199749810Y-104770169D01*
X199737189Y-104774876D01*
X199727011Y-104783696D01*
X199705093Y-104786847D01*
X199684346Y-104794586D01*
X199671185Y-104791723D01*
X199657853Y-104793640D01*
X199637709Y-104784440D01*
X199616073Y-104779734D01*
X199598347Y-104766465D01*
X199594297Y-104764615D01*
X199587819Y-104758583D01*
X199506818Y-104677582D01*
X199473333Y-104616259D01*
X199470499Y-104589901D01*
X199470499Y-103489998D01*
X199470498Y-103489981D01*
X199459999Y-103387203D01*
X199459998Y-103387200D01*
X199404814Y-103220666D01*
X199312712Y-103071344D01*
X199188656Y-102947288D01*
X199093253Y-102888443D01*
X199039336Y-102855187D01*
X199039331Y-102855185D01*
X199019866Y-102848735D01*
X198872797Y-102800001D01*
X198872795Y-102800000D01*
X198770010Y-102789500D01*
X197469998Y-102789500D01*
X197469981Y-102789501D01*
X197367203Y-102800000D01*
X197367200Y-102800001D01*
X197200668Y-102855185D01*
X197200663Y-102855187D01*
X197051342Y-102947289D01*
X196927289Y-103071342D01*
X196835187Y-103220663D01*
X196835183Y-103220673D01*
X196831685Y-103231229D01*
X196791910Y-103288672D01*
X196727393Y-103315493D01*
X196658618Y-103303174D01*
X196613663Y-103265106D01*
X196610105Y-103260209D01*
X196459786Y-103109890D01*
X196287820Y-102984951D01*
X196098414Y-102888444D01*
X196098413Y-102888443D01*
X196098412Y-102888443D01*
X195896243Y-102822754D01*
X195896241Y-102822753D01*
X195896240Y-102822753D01*
X195734957Y-102797208D01*
X195686287Y-102789500D01*
X195473713Y-102789500D01*
X195425042Y-102797208D01*
X195263760Y-102822753D01*
X195061585Y-102888444D01*
X194872179Y-102984951D01*
X194700213Y-103109890D01*
X194549890Y-103260213D01*
X194424948Y-103432184D01*
X194424947Y-103432185D01*
X194404765Y-103471795D01*
X194356791Y-103522591D01*
X194294281Y-103539500D01*
X191235940Y-103539500D01*
X191195019Y-103550464D01*
X191195019Y-103550465D01*
X191157751Y-103560451D01*
X191083214Y-103580423D01*
X191083209Y-103580426D01*
X190946290Y-103659475D01*
X190946282Y-103659481D01*
X190834478Y-103771286D01*
X189042582Y-105563181D01*
X188981259Y-105596666D01*
X188954901Y-105599500D01*
X187882129Y-105599500D01*
X187882123Y-105599501D01*
X187822516Y-105605908D01*
X187687671Y-105656202D01*
X187687664Y-105656206D01*
X187572455Y-105742452D01*
X187572452Y-105742455D01*
X187486206Y-105857664D01*
X187486202Y-105857671D01*
X187435910Y-105992513D01*
X187435909Y-105992517D01*
X187430937Y-106038757D01*
X187404201Y-106103306D01*
X187346809Y-106143154D01*
X187307649Y-106149500D01*
X182152351Y-106149500D01*
X182085312Y-106129815D01*
X182039557Y-106077011D01*
X182029061Y-106038752D01*
X182024091Y-105992516D01*
X181973797Y-105857671D01*
X181973793Y-105857664D01*
X181887547Y-105742455D01*
X181887544Y-105742452D01*
X181772335Y-105656206D01*
X181772328Y-105656202D01*
X181637482Y-105605908D01*
X181637483Y-105605908D01*
X181577883Y-105599501D01*
X181577881Y-105599500D01*
X181577873Y-105599500D01*
X181577864Y-105599500D01*
X179082129Y-105599500D01*
X179082123Y-105599501D01*
X179022516Y-105605908D01*
X178887671Y-105656202D01*
X178887664Y-105656206D01*
X178812279Y-105712639D01*
X178746815Y-105737056D01*
X178678542Y-105722204D01*
X178650288Y-105701053D01*
X175319543Y-102370308D01*
X175286058Y-102308985D01*
X175291042Y-102239293D01*
X175332913Y-102183360D01*
X175447546Y-102097546D01*
X175533796Y-101982331D01*
X175584091Y-101847483D01*
X175590500Y-101787873D01*
X175590499Y-100392128D01*
X175584091Y-100332517D01*
X175552020Y-100246531D01*
X175533797Y-100197671D01*
X175533795Y-100197668D01*
X175497221Y-100148811D01*
X175472804Y-100083347D01*
X175487656Y-100015074D01*
X175537061Y-99965668D01*
X175596488Y-99950500D01*
X196849903Y-99950500D01*
X196916942Y-99970185D01*
G37*
%TD.AperFunction*%
%TA.AperFunction,Conductor*%
G36*
X207922675Y-91502126D02*
G01*
X207927754Y-91501210D01*
X207961952Y-91509939D01*
X208026119Y-91536517D01*
X208045212Y-91544426D01*
X208045215Y-91544427D01*
X208057737Y-91550456D01*
X208340006Y-91706461D01*
X208351779Y-91713859D01*
X208614789Y-91900475D01*
X208625649Y-91909135D01*
X208866127Y-92124039D01*
X208875960Y-92133872D01*
X209090859Y-92374344D01*
X209099528Y-92385216D01*
X209286139Y-92648219D01*
X209293538Y-92659993D01*
X209449539Y-92942255D01*
X209455572Y-92954783D01*
X209490061Y-93038046D01*
X209499500Y-93085499D01*
X209499500Y-124914499D01*
X209490061Y-124961952D01*
X209455572Y-125045216D01*
X209449539Y-125057744D01*
X209293538Y-125340006D01*
X209286139Y-125351780D01*
X209099528Y-125614783D01*
X209090859Y-125625655D01*
X208875960Y-125866127D01*
X208866127Y-125875960D01*
X208625655Y-126090859D01*
X208614783Y-126099528D01*
X208351780Y-126286139D01*
X208340006Y-126293538D01*
X208057744Y-126449539D01*
X208045216Y-126455572D01*
X207961953Y-126490061D01*
X207914500Y-126499500D01*
X131085500Y-126499500D01*
X131038047Y-126490061D01*
X130954783Y-126455572D01*
X130942255Y-126449539D01*
X130659993Y-126293538D01*
X130648219Y-126286139D01*
X130385216Y-126099528D01*
X130374344Y-126090859D01*
X130133872Y-125875960D01*
X130124039Y-125866127D01*
X129909140Y-125625655D01*
X129900475Y-125614789D01*
X129713859Y-125351779D01*
X129706461Y-125340006D01*
X129550460Y-125057744D01*
X129544431Y-125045224D01*
X129509938Y-124961950D01*
X129500500Y-124914499D01*
X129500500Y-120835428D01*
X131650000Y-120835428D01*
X131650000Y-121164571D01*
X131682261Y-121492139D01*
X131746474Y-121814956D01*
X131746475Y-121814961D01*
X131842025Y-122129946D01*
X131967985Y-122434039D01*
X131967987Y-122434044D01*
X132123137Y-122724309D01*
X132123148Y-122724327D01*
X132306007Y-122997995D01*
X132306010Y-122997999D01*
X132460364Y-123186081D01*
X132460365Y-123186081D01*
X133705748Y-121940698D01*
X133779588Y-122042330D01*
X133957670Y-122220412D01*
X134059300Y-122294251D01*
X132813917Y-123539633D01*
X132813917Y-123539634D01*
X133002000Y-123693989D01*
X133002004Y-123693992D01*
X133275672Y-123876851D01*
X133275690Y-123876862D01*
X133565955Y-124032012D01*
X133565960Y-124032014D01*
X133870053Y-124157974D01*
X134185038Y-124253524D01*
X134185043Y-124253525D01*
X134507860Y-124317738D01*
X134835428Y-124350000D01*
X135164572Y-124350000D01*
X135492139Y-124317738D01*
X135814956Y-124253525D01*
X135814961Y-124253524D01*
X136129946Y-124157974D01*
X136434039Y-124032014D01*
X136434044Y-124032012D01*
X136724309Y-123876862D01*
X136724327Y-123876851D01*
X136998004Y-123693986D01*
X137186081Y-123539635D01*
X137186082Y-123539634D01*
X135940698Y-122294251D01*
X136042330Y-122220412D01*
X136220412Y-122042330D01*
X136294251Y-121940699D01*
X137539634Y-123186082D01*
X137539635Y-123186081D01*
X137693986Y-122998004D01*
X137876851Y-122724327D01*
X137876862Y-122724309D01*
X138032012Y-122434044D01*
X138032014Y-122434039D01*
X138157974Y-122129946D01*
X138164679Y-122107844D01*
X163390000Y-122107844D01*
X163396401Y-122167372D01*
X163396403Y-122167379D01*
X163446645Y-122302086D01*
X163446649Y-122302093D01*
X163532809Y-122417187D01*
X163532812Y-122417190D01*
X163647906Y-122503350D01*
X163647913Y-122503354D01*
X163782620Y-122553596D01*
X163782627Y-122553598D01*
X163842155Y-122559999D01*
X163842172Y-122560000D01*
X164840000Y-122560000D01*
X165340000Y-122560000D01*
X166337828Y-122560000D01*
X166337844Y-122559999D01*
X166397372Y-122553598D01*
X166397379Y-122553596D01*
X166532086Y-122503354D01*
X166532093Y-122503350D01*
X166647187Y-122417190D01*
X166647190Y-122417187D01*
X166733350Y-122302093D01*
X166733354Y-122302086D01*
X166783596Y-122167379D01*
X166783598Y-122167372D01*
X166789999Y-122107844D01*
X172190000Y-122107844D01*
X172196401Y-122167372D01*
X172196403Y-122167379D01*
X172246645Y-122302086D01*
X172246649Y-122302093D01*
X172332809Y-122417187D01*
X172332812Y-122417190D01*
X172447906Y-122503350D01*
X172447913Y-122503354D01*
X172582620Y-122553596D01*
X172582627Y-122553598D01*
X172642155Y-122559999D01*
X172642172Y-122560000D01*
X173640000Y-122560000D01*
X174140000Y-122560000D01*
X175137828Y-122560000D01*
X175137844Y-122559999D01*
X175197372Y-122553598D01*
X175197379Y-122553596D01*
X175332086Y-122503354D01*
X175332093Y-122503350D01*
X175447187Y-122417190D01*
X175447190Y-122417187D01*
X175533350Y-122302093D01*
X175533354Y-122302086D01*
X175583596Y-122167379D01*
X175583598Y-122167372D01*
X175589999Y-122107844D01*
X175590000Y-122107827D01*
X175590000Y-121660000D01*
X174140000Y-121660000D01*
X174140000Y-122560000D01*
X173640000Y-122560000D01*
X173640000Y-121660000D01*
X172190000Y-121660000D01*
X172190000Y-122107844D01*
X166789999Y-122107844D01*
X166790000Y-122107827D01*
X166790000Y-121660000D01*
X165340000Y-121660000D01*
X165340000Y-122560000D01*
X164840000Y-122560000D01*
X164840000Y-121660000D01*
X163390000Y-121660000D01*
X163390000Y-122107844D01*
X138164679Y-122107844D01*
X138253524Y-121814961D01*
X138253525Y-121814956D01*
X138299377Y-121584447D01*
X138317738Y-121492139D01*
X138350000Y-121164571D01*
X138350000Y-120835427D01*
X138338731Y-120721004D01*
X138337859Y-120712155D01*
X163390000Y-120712155D01*
X163390000Y-121160000D01*
X164840000Y-121160000D01*
X165340000Y-121160000D01*
X166790000Y-121160000D01*
X166790000Y-120712172D01*
X166789999Y-120712155D01*
X172190000Y-120712155D01*
X172190000Y-121160000D01*
X173640000Y-121160000D01*
X174140000Y-121160000D01*
X175590000Y-121160000D01*
X175590000Y-120835428D01*
X200650000Y-120835428D01*
X200650000Y-121164571D01*
X200682261Y-121492139D01*
X200746474Y-121814956D01*
X200746475Y-121814961D01*
X200842025Y-122129946D01*
X200967985Y-122434039D01*
X200967987Y-122434044D01*
X201123137Y-122724309D01*
X201123148Y-122724327D01*
X201306007Y-122997995D01*
X201306010Y-122997999D01*
X201460364Y-123186081D01*
X201460365Y-123186081D01*
X202705748Y-121940698D01*
X202779588Y-122042330D01*
X202957670Y-122220412D01*
X203059300Y-122294251D01*
X201813917Y-123539633D01*
X201813917Y-123539634D01*
X202002000Y-123693989D01*
X202002004Y-123693992D01*
X202275672Y-123876851D01*
X202275690Y-123876862D01*
X202565955Y-124032012D01*
X202565960Y-124032014D01*
X202870053Y-124157974D01*
X203185038Y-124253524D01*
X203185043Y-124253525D01*
X203507860Y-124317738D01*
X203835428Y-124350000D01*
X204164572Y-124350000D01*
X204492139Y-124317738D01*
X204814956Y-124253525D01*
X204814961Y-124253524D01*
X205129946Y-124157974D01*
X205434039Y-124032014D01*
X205434044Y-124032012D01*
X205724309Y-123876862D01*
X205724327Y-123876851D01*
X205998004Y-123693986D01*
X206186081Y-123539635D01*
X206186082Y-123539634D01*
X204940698Y-122294251D01*
X205042330Y-122220412D01*
X205220412Y-122042330D01*
X205294251Y-121940699D01*
X206539634Y-123186082D01*
X206539635Y-123186081D01*
X206693986Y-122998004D01*
X206876851Y-122724327D01*
X206876862Y-122724309D01*
X207032012Y-122434044D01*
X207032014Y-122434039D01*
X207157974Y-122129946D01*
X207253524Y-121814961D01*
X207253525Y-121814956D01*
X207317738Y-121492139D01*
X207350000Y-121164571D01*
X207350000Y-120835428D01*
X207317738Y-120507860D01*
X207253525Y-120185043D01*
X207253524Y-120185038D01*
X207157974Y-119870053D01*
X207032014Y-119565960D01*
X207032012Y-119565955D01*
X206876862Y-119275690D01*
X206876851Y-119275672D01*
X206693992Y-119002004D01*
X206693989Y-119002000D01*
X206539634Y-118813917D01*
X206539633Y-118813917D01*
X205294250Y-120059299D01*
X205220412Y-119957670D01*
X205042330Y-119779588D01*
X204940697Y-119705747D01*
X206186081Y-118460365D01*
X206186081Y-118460364D01*
X205997999Y-118306010D01*
X205997995Y-118306007D01*
X205724327Y-118123148D01*
X205724309Y-118123137D01*
X205434044Y-117967987D01*
X205434039Y-117967985D01*
X205129946Y-117842025D01*
X204814961Y-117746475D01*
X204814956Y-117746474D01*
X204492139Y-117682261D01*
X204164572Y-117650000D01*
X203835428Y-117650000D01*
X203507860Y-117682261D01*
X203185043Y-117746474D01*
X203185038Y-117746475D01*
X202870053Y-117842025D01*
X202565960Y-117967985D01*
X202565955Y-117967987D01*
X202275690Y-118123137D01*
X202275672Y-118123148D01*
X202002004Y-118306007D01*
X202001999Y-118306010D01*
X201813917Y-118460364D01*
X201813917Y-118460365D01*
X203059301Y-119705748D01*
X202957670Y-119779588D01*
X202779588Y-119957670D01*
X202705748Y-120059301D01*
X201460365Y-118813917D01*
X201460364Y-118813917D01*
X201306010Y-119001999D01*
X201306007Y-119002004D01*
X201123148Y-119275672D01*
X201123137Y-119275690D01*
X200967987Y-119565955D01*
X200967985Y-119565960D01*
X200842025Y-119870053D01*
X200746475Y-120185038D01*
X200746474Y-120185043D01*
X200682261Y-120507860D01*
X200650000Y-120835428D01*
X175590000Y-120835428D01*
X175590000Y-120712172D01*
X175589999Y-120712155D01*
X175583598Y-120652627D01*
X175583596Y-120652620D01*
X175533354Y-120517913D01*
X175533350Y-120517906D01*
X175447190Y-120402812D01*
X175447187Y-120402809D01*
X175332093Y-120316649D01*
X175332086Y-120316645D01*
X175197379Y-120266403D01*
X175197372Y-120266401D01*
X175137844Y-120260000D01*
X174140000Y-120260000D01*
X174140000Y-121160000D01*
X173640000Y-121160000D01*
X173640000Y-120260000D01*
X172642155Y-120260000D01*
X172582627Y-120266401D01*
X172582620Y-120266403D01*
X172447913Y-120316645D01*
X172447906Y-120316649D01*
X172332812Y-120402809D01*
X172332809Y-120402812D01*
X172246649Y-120517906D01*
X172246645Y-120517913D01*
X172196403Y-120652620D01*
X172196401Y-120652627D01*
X172190000Y-120712155D01*
X166789999Y-120712155D01*
X166783598Y-120652627D01*
X166783596Y-120652620D01*
X166733354Y-120517913D01*
X166733350Y-120517906D01*
X166647190Y-120402812D01*
X166647187Y-120402809D01*
X166532093Y-120316649D01*
X166532086Y-120316645D01*
X166397379Y-120266403D01*
X166397372Y-120266401D01*
X166337844Y-120260000D01*
X165340000Y-120260000D01*
X165340000Y-121160000D01*
X164840000Y-121160000D01*
X164840000Y-120260000D01*
X163842155Y-120260000D01*
X163782627Y-120266401D01*
X163782620Y-120266403D01*
X163647913Y-120316645D01*
X163647906Y-120316649D01*
X163532812Y-120402809D01*
X163532809Y-120402812D01*
X163446649Y-120517906D01*
X163446645Y-120517913D01*
X163396403Y-120652620D01*
X163396401Y-120652627D01*
X163390000Y-120712155D01*
X138337859Y-120712155D01*
X138317738Y-120507860D01*
X138253525Y-120185043D01*
X138253524Y-120185038D01*
X138157974Y-119870053D01*
X138032014Y-119565960D01*
X138032012Y-119565955D01*
X137876862Y-119275690D01*
X137876851Y-119275672D01*
X137693992Y-119002004D01*
X137693989Y-119002000D01*
X137539634Y-118813917D01*
X137539633Y-118813917D01*
X136294250Y-120059300D01*
X136220412Y-119957670D01*
X136042330Y-119779588D01*
X135940697Y-119705747D01*
X137186081Y-118460365D01*
X137186081Y-118460364D01*
X136997999Y-118306010D01*
X136997995Y-118306007D01*
X136724327Y-118123148D01*
X136724309Y-118123137D01*
X136434044Y-117967987D01*
X136434039Y-117967985D01*
X136129943Y-117842024D01*
X136108635Y-117835561D01*
X136050196Y-117797263D01*
X136021740Y-117733451D01*
X136032300Y-117664384D01*
X136078524Y-117611991D01*
X136144630Y-117592900D01*
X159897703Y-117592900D01*
X159964742Y-117612585D01*
X159985384Y-117629219D01*
X161871939Y-119515774D01*
X161871949Y-119515785D01*
X161876279Y-119520115D01*
X161876280Y-119520116D01*
X161988084Y-119631920D01*
X162074895Y-119682039D01*
X162074897Y-119682041D01*
X162112951Y-119704011D01*
X162125015Y-119710977D01*
X162277743Y-119751900D01*
X193181931Y-119751900D01*
X193181947Y-119751901D01*
X193189543Y-119751901D01*
X193347654Y-119751901D01*
X193347657Y-119751901D01*
X193500385Y-119710977D01*
X193550504Y-119682039D01*
X193637316Y-119631920D01*
X193749120Y-119520116D01*
X193749120Y-119520114D01*
X193759328Y-119509907D01*
X193759330Y-119509904D01*
X197635478Y-115633755D01*
X197696799Y-115600272D01*
X197761473Y-115603506D01*
X197803757Y-115617246D01*
X198013713Y-115650500D01*
X198013714Y-115650500D01*
X198226286Y-115650500D01*
X198226287Y-115650500D01*
X198436243Y-115617246D01*
X198638412Y-115551557D01*
X198827816Y-115455051D01*
X198925313Y-115384216D01*
X198999786Y-115330109D01*
X198999788Y-115330106D01*
X198999792Y-115330104D01*
X199150104Y-115179792D01*
X199150106Y-115179788D01*
X199150109Y-115179786D01*
X199275048Y-115007820D01*
X199275047Y-115007820D01*
X199275051Y-115007816D01*
X199371557Y-114818412D01*
X199437246Y-114616243D01*
X199470500Y-114406287D01*
X199470500Y-114193713D01*
X199437246Y-113983757D01*
X199371557Y-113781588D01*
X199275051Y-113592184D01*
X199275049Y-113592181D01*
X199275048Y-113592179D01*
X199150109Y-113420213D01*
X198999786Y-113269890D01*
X198827820Y-113144951D01*
X198819600Y-113140763D01*
X198819054Y-113140485D01*
X198768259Y-113092512D01*
X198751463Y-113024692D01*
X198773999Y-112958556D01*
X198819054Y-112919515D01*
X198827816Y-112915051D01*
X198849789Y-112899086D01*
X198999786Y-112790109D01*
X198999788Y-112790106D01*
X198999792Y-112790104D01*
X199150104Y-112639792D01*
X199150106Y-112639788D01*
X199150109Y-112639786D01*
X199275048Y-112467820D01*
X199275047Y-112467820D01*
X199275051Y-112467816D01*
X199371557Y-112278412D01*
X199437246Y-112076243D01*
X199470500Y-111866287D01*
X199470500Y-111653713D01*
X199437246Y-111443757D01*
X199423506Y-111401473D01*
X199421512Y-111331635D01*
X199453755Y-111275478D01*
X200758506Y-109970728D01*
X200758511Y-109970724D01*
X200768714Y-109960520D01*
X200768716Y-109960520D01*
X200880520Y-109848716D01*
X200936969Y-109750942D01*
X200959577Y-109711785D01*
X201000501Y-109559057D01*
X201000501Y-109400943D01*
X201000501Y-109393348D01*
X201000500Y-109393330D01*
X201000500Y-102520945D01*
X201000500Y-102520943D01*
X200959577Y-102368216D01*
X200959577Y-102368215D01*
X200959577Y-102368214D01*
X200930639Y-102318095D01*
X200930637Y-102318092D01*
X200897204Y-102260183D01*
X200880520Y-102231284D01*
X200768716Y-102119480D01*
X200768715Y-102119479D01*
X200764385Y-102115149D01*
X200764374Y-102115139D01*
X197637590Y-98988355D01*
X197637588Y-98988352D01*
X197518717Y-98869481D01*
X197518716Y-98869480D01*
X197431904Y-98819360D01*
X197431904Y-98819359D01*
X197431900Y-98819358D01*
X197381785Y-98790423D01*
X197229057Y-98749499D01*
X197070943Y-98749499D01*
X197063347Y-98749499D01*
X197063331Y-98749500D01*
X151687700Y-98749500D01*
X151620661Y-98729815D01*
X151574906Y-98677011D01*
X151564410Y-98638754D01*
X151563755Y-98632664D01*
X151559891Y-98596717D01*
X151509596Y-98461869D01*
X151509595Y-98461868D01*
X151509593Y-98461864D01*
X151423347Y-98346655D01*
X151423344Y-98346652D01*
X151308135Y-98260406D01*
X151308128Y-98260402D01*
X151173282Y-98210108D01*
X151173283Y-98210108D01*
X151113683Y-98203701D01*
X151113681Y-98203700D01*
X151113673Y-98203700D01*
X151113664Y-98203700D01*
X148617929Y-98203700D01*
X148617923Y-98203701D01*
X148558316Y-98210108D01*
X148423471Y-98260402D01*
X148423464Y-98260406D01*
X148308255Y-98346652D01*
X148308252Y-98346655D01*
X148222006Y-98461864D01*
X148222002Y-98461871D01*
X148171708Y-98596716D01*
X148167189Y-98638756D01*
X148140451Y-98703307D01*
X148083059Y-98743155D01*
X148043900Y-98749500D01*
X142887700Y-98749500D01*
X142820661Y-98729815D01*
X142774906Y-98677011D01*
X142764410Y-98638754D01*
X142763755Y-98632664D01*
X142759891Y-98596717D01*
X142709596Y-98461869D01*
X142709595Y-98461868D01*
X142709593Y-98461864D01*
X142623347Y-98346655D01*
X142623344Y-98346652D01*
X142508135Y-98260406D01*
X142508128Y-98260402D01*
X142373282Y-98210108D01*
X142373283Y-98210108D01*
X142313683Y-98203701D01*
X142313681Y-98203700D01*
X142313673Y-98203700D01*
X142313664Y-98203700D01*
X139817929Y-98203700D01*
X139817923Y-98203701D01*
X139758316Y-98210108D01*
X139623471Y-98260402D01*
X139623464Y-98260406D01*
X139508255Y-98346652D01*
X139508252Y-98346655D01*
X139422006Y-98461864D01*
X139422002Y-98461871D01*
X139371708Y-98596717D01*
X139365301Y-98656316D01*
X139365300Y-98656335D01*
X139365300Y-100052070D01*
X139365301Y-100052076D01*
X139371708Y-100111683D01*
X139422002Y-100246528D01*
X139422006Y-100246535D01*
X139508252Y-100361744D01*
X139508255Y-100361747D01*
X139623464Y-100447993D01*
X139623471Y-100447997D01*
X139758317Y-100498291D01*
X139758316Y-100498291D01*
X139765244Y-100499035D01*
X139817927Y-100504700D01*
X142313672Y-100504699D01*
X142373283Y-100498291D01*
X142508131Y-100447996D01*
X142623346Y-100361746D01*
X142709596Y-100246531D01*
X142759891Y-100111683D01*
X142765314Y-100061245D01*
X142792052Y-99996694D01*
X142849444Y-99956846D01*
X142888603Y-99950500D01*
X147895943Y-99950500D01*
X148042997Y-99950500D01*
X148110036Y-99970185D01*
X148155791Y-100022989D01*
X148166287Y-100061246D01*
X148171709Y-100111683D01*
X148222002Y-100246528D01*
X148222006Y-100246535D01*
X148308252Y-100361744D01*
X148308255Y-100361747D01*
X148423464Y-100447993D01*
X148423471Y-100447997D01*
X148558317Y-100498291D01*
X148558316Y-100498291D01*
X148565244Y-100499035D01*
X148617927Y-100504700D01*
X151113672Y-100504699D01*
X151173283Y-100498291D01*
X151308131Y-100447996D01*
X151423346Y-100361746D01*
X151509596Y-100246531D01*
X151559891Y-100111683D01*
X151565314Y-100061245D01*
X151592052Y-99996694D01*
X151649444Y-99956846D01*
X151688603Y-99950500D01*
X163383512Y-99950500D01*
X163450551Y-99970185D01*
X163496306Y-100022989D01*
X163506250Y-100092147D01*
X163482779Y-100148811D01*
X163446204Y-100197668D01*
X163446202Y-100197671D01*
X163395908Y-100332517D01*
X163389501Y-100392116D01*
X163389501Y-100392123D01*
X163389500Y-100392135D01*
X163389500Y-101787870D01*
X163389501Y-101787876D01*
X163395908Y-101847483D01*
X163446202Y-101982328D01*
X163446206Y-101982335D01*
X163532452Y-102097544D01*
X163532455Y-102097547D01*
X163647664Y-102183793D01*
X163647671Y-102183797D01*
X163782517Y-102234091D01*
X163782516Y-102234091D01*
X163789444Y-102234835D01*
X163842127Y-102240500D01*
X166337872Y-102240499D01*
X166397483Y-102234091D01*
X166532331Y-102183796D01*
X166647546Y-102097546D01*
X166733796Y-101982331D01*
X166784091Y-101847483D01*
X166789062Y-101801242D01*
X166815799Y-101736694D01*
X166873191Y-101696846D01*
X166912351Y-101690500D01*
X172067649Y-101690500D01*
X172134688Y-101710185D01*
X172180443Y-101762989D01*
X172190939Y-101801248D01*
X172195908Y-101847483D01*
X172246202Y-101982328D01*
X172246206Y-101982335D01*
X172332452Y-102097544D01*
X172332455Y-102097547D01*
X172447664Y-102183793D01*
X172447671Y-102183797D01*
X172582517Y-102234091D01*
X172582516Y-102234091D01*
X172589444Y-102234835D01*
X172642127Y-102240500D01*
X173439902Y-102240499D01*
X173506941Y-102260183D01*
X173527583Y-102276818D01*
X177696581Y-106445816D01*
X177730066Y-106507139D01*
X177732900Y-106533497D01*
X177732900Y-107380730D01*
X177732899Y-107380748D01*
X177732899Y-107388343D01*
X177732899Y-107546457D01*
X177752320Y-107618937D01*
X177758877Y-107643407D01*
X177757214Y-107713256D01*
X177718052Y-107771119D01*
X177653823Y-107798623D01*
X177639102Y-107799500D01*
X160413769Y-107799500D01*
X160346730Y-107779815D01*
X160300975Y-107727011D01*
X160291031Y-107657853D01*
X160297587Y-107632167D01*
X160313128Y-107590500D01*
X160344091Y-107507483D01*
X160350500Y-107447873D01*
X160350499Y-106052128D01*
X160344091Y-105992517D01*
X160293796Y-105857669D01*
X160293795Y-105857668D01*
X160293793Y-105857664D01*
X160207547Y-105742455D01*
X160207544Y-105742452D01*
X160092335Y-105656206D01*
X160092328Y-105656202D01*
X159957482Y-105605908D01*
X159957483Y-105605908D01*
X159897883Y-105599501D01*
X159897881Y-105599500D01*
X159897873Y-105599500D01*
X159897864Y-105599500D01*
X157402129Y-105599500D01*
X157402123Y-105599501D01*
X157342516Y-105605908D01*
X157207671Y-105656202D01*
X157207664Y-105656206D01*
X157092455Y-105742452D01*
X157092452Y-105742455D01*
X157006206Y-105857664D01*
X157006202Y-105857671D01*
X156955910Y-105992513D01*
X156955909Y-105992517D01*
X156950937Y-106038757D01*
X156924201Y-106103306D01*
X156866809Y-106143154D01*
X156827649Y-106149500D01*
X151672351Y-106149500D01*
X151605312Y-106129815D01*
X151559557Y-106077011D01*
X151549061Y-106038752D01*
X151544091Y-105992516D01*
X151493797Y-105857671D01*
X151493793Y-105857664D01*
X151407547Y-105742455D01*
X151407544Y-105742452D01*
X151292335Y-105656206D01*
X151292328Y-105656202D01*
X151157482Y-105605908D01*
X151157483Y-105605908D01*
X151097883Y-105599501D01*
X151097881Y-105599500D01*
X151097873Y-105599500D01*
X151097864Y-105599500D01*
X148602129Y-105599500D01*
X148602123Y-105599501D01*
X148542516Y-105605908D01*
X148407671Y-105656202D01*
X148407664Y-105656206D01*
X148292455Y-105742452D01*
X148292452Y-105742455D01*
X148206206Y-105857664D01*
X148206202Y-105857671D01*
X148155908Y-105992517D01*
X148149501Y-106052116D01*
X148149501Y-106052123D01*
X148149500Y-106052135D01*
X148149500Y-107447870D01*
X148149501Y-107447876D01*
X148155908Y-107507483D01*
X148206202Y-107642328D01*
X148206206Y-107642335D01*
X148292452Y-107757544D01*
X148292455Y-107757547D01*
X148407664Y-107843793D01*
X148407671Y-107843797D01*
X148542517Y-107894091D01*
X148542516Y-107894091D01*
X148549444Y-107894835D01*
X148602127Y-107900500D01*
X151097872Y-107900499D01*
X151157483Y-107894091D01*
X151292331Y-107843796D01*
X151407546Y-107757546D01*
X151493796Y-107642331D01*
X151544091Y-107507483D01*
X151549062Y-107461242D01*
X151575799Y-107396694D01*
X151633191Y-107356846D01*
X151672351Y-107350500D01*
X156827649Y-107350500D01*
X156894688Y-107370185D01*
X156940443Y-107422989D01*
X156950939Y-107461248D01*
X156955908Y-107507483D01*
X157006202Y-107642328D01*
X157006206Y-107642335D01*
X157092452Y-107757544D01*
X157092455Y-107757547D01*
X157207664Y-107843793D01*
X157207671Y-107843797D01*
X157342517Y-107894091D01*
X157342516Y-107894091D01*
X157349444Y-107894835D01*
X157402127Y-107900500D01*
X158474902Y-107900499D01*
X158504348Y-107909145D01*
X158534329Y-107915667D01*
X158539342Y-107919419D01*
X158541941Y-107920183D01*
X158562583Y-107936818D01*
X158613584Y-107987819D01*
X158647069Y-108049142D01*
X158642085Y-108118834D01*
X158600213Y-108174767D01*
X158534749Y-108199184D01*
X158525903Y-108199500D01*
X136417750Y-108199500D01*
X136350711Y-108179815D01*
X136312211Y-108140597D01*
X136310908Y-108138484D01*
X136220340Y-107991650D01*
X136098350Y-107869660D01*
X135983181Y-107798623D01*
X135951518Y-107779093D01*
X135951513Y-107779091D01*
X135927455Y-107771119D01*
X135787753Y-107724826D01*
X135787751Y-107724825D01*
X135686684Y-107714500D01*
X135686677Y-107714500D01*
X135249500Y-107714500D01*
X135182461Y-107694815D01*
X135136706Y-107642011D01*
X135125500Y-107590500D01*
X135125500Y-107225097D01*
X135134144Y-107195656D01*
X135140668Y-107165670D01*
X135144422Y-107160654D01*
X135145185Y-107158058D01*
X135161819Y-107137416D01*
X135187417Y-107111818D01*
X135248740Y-107078333D01*
X135275098Y-107075499D01*
X135686670Y-107075499D01*
X135686676Y-107075499D01*
X135787753Y-107065174D01*
X135951516Y-107010908D01*
X136098350Y-106920340D01*
X136220340Y-106798350D01*
X136310908Y-106651516D01*
X136365174Y-106487753D01*
X136375500Y-106386677D01*
X136375499Y-105813324D01*
X136369324Y-105752878D01*
X136365174Y-105712247D01*
X136357342Y-105688612D01*
X136310908Y-105548484D01*
X136220340Y-105401650D01*
X136098350Y-105279660D01*
X136007129Y-105223395D01*
X135951518Y-105189093D01*
X135951513Y-105189091D01*
X135950069Y-105188612D01*
X135787753Y-105134826D01*
X135787751Y-105134825D01*
X135686678Y-105124500D01*
X135013330Y-105124500D01*
X135013312Y-105124501D01*
X134912247Y-105134825D01*
X134748484Y-105189092D01*
X134748481Y-105189093D01*
X134601648Y-105279661D01*
X134562326Y-105318983D01*
X134501003Y-105352468D01*
X134431311Y-105347482D01*
X134386965Y-105318982D01*
X134348038Y-105280055D01*
X134348034Y-105280052D01*
X134201311Y-105189551D01*
X134201300Y-105189546D01*
X134037652Y-105135319D01*
X133936654Y-105125000D01*
X133850000Y-105125000D01*
X133850000Y-107074999D01*
X133886319Y-107111318D01*
X133883979Y-107113657D01*
X133913294Y-107147488D01*
X133924500Y-107198999D01*
X133924500Y-107591000D01*
X133904815Y-107658039D01*
X133883846Y-107676208D01*
X133886319Y-107678681D01*
X133850000Y-107715000D01*
X133850000Y-109664999D01*
X133886319Y-109701318D01*
X133883979Y-109703657D01*
X133913294Y-109737488D01*
X133924500Y-109788999D01*
X133924500Y-110201000D01*
X133904815Y-110268039D01*
X133883846Y-110286208D01*
X133886319Y-110288681D01*
X133850000Y-110325000D01*
X133850000Y-112274999D01*
X133886319Y-112311318D01*
X133883979Y-112313657D01*
X133913294Y-112347488D01*
X133924500Y-112398999D01*
X133924500Y-113559700D01*
X133904815Y-113626739D01*
X133852011Y-113672494D01*
X133800500Y-113683700D01*
X133067598Y-113683700D01*
X133067580Y-113683701D01*
X132964803Y-113694200D01*
X132964800Y-113694201D01*
X132798268Y-113749385D01*
X132798263Y-113749387D01*
X132648942Y-113841489D01*
X132524889Y-113965542D01*
X132432787Y-114114863D01*
X132432786Y-114114866D01*
X132377601Y-114281403D01*
X132377601Y-114281404D01*
X132377600Y-114281404D01*
X132367100Y-114384183D01*
X132367100Y-115384201D01*
X132367101Y-115384219D01*
X132377600Y-115486996D01*
X132377601Y-115486999D01*
X132431615Y-115650000D01*
X132432786Y-115653534D01*
X132524888Y-115802856D01*
X132648944Y-115926912D01*
X132798266Y-116019014D01*
X132964803Y-116074199D01*
X133067591Y-116084700D01*
X133767502Y-116084699D01*
X133834541Y-116104383D01*
X133855183Y-116121018D01*
X135095278Y-117361113D01*
X135095280Y-117361116D01*
X135172484Y-117438320D01*
X135205968Y-117499641D01*
X135205967Y-117499642D01*
X135205968Y-117499643D01*
X135200984Y-117569334D01*
X135174623Y-117604548D01*
X135162122Y-117621248D01*
X135159112Y-117625268D01*
X135129215Y-117636418D01*
X135093649Y-117649684D01*
X135084802Y-117650000D01*
X134835428Y-117650000D01*
X134507860Y-117682261D01*
X134185043Y-117746474D01*
X134185038Y-117746475D01*
X133870053Y-117842025D01*
X133565960Y-117967985D01*
X133565955Y-117967987D01*
X133275690Y-118123137D01*
X133275672Y-118123148D01*
X133002004Y-118306007D01*
X133001999Y-118306010D01*
X132813917Y-118460364D01*
X132813917Y-118460365D01*
X134059301Y-119705748D01*
X133957670Y-119779588D01*
X133779588Y-119957670D01*
X133705748Y-120059301D01*
X132460365Y-118813917D01*
X132460364Y-118813917D01*
X132306010Y-119001999D01*
X132306007Y-119002004D01*
X132123148Y-119275672D01*
X132123137Y-119275690D01*
X131967987Y-119565955D01*
X131967985Y-119565960D01*
X131842025Y-119870053D01*
X131746475Y-120185038D01*
X131746474Y-120185043D01*
X131682261Y-120507860D01*
X131650000Y-120835428D01*
X129500500Y-120835428D01*
X129500500Y-111586654D01*
X132575001Y-111586654D01*
X132585319Y-111687652D01*
X132639546Y-111851300D01*
X132639551Y-111851311D01*
X132730052Y-111998034D01*
X132730055Y-111998038D01*
X132851961Y-112119944D01*
X132851965Y-112119947D01*
X132998688Y-112210448D01*
X132998699Y-112210453D01*
X133162347Y-112264680D01*
X133263351Y-112274999D01*
X133350000Y-112274998D01*
X133350000Y-111550000D01*
X132575001Y-111550000D01*
X132575001Y-111586654D01*
X129500500Y-111586654D01*
X129500500Y-111013345D01*
X132575000Y-111013345D01*
X132575000Y-111050000D01*
X133350000Y-111050000D01*
X133350000Y-110325000D01*
X133349999Y-110324999D01*
X133263360Y-110325000D01*
X133263343Y-110325001D01*
X133162347Y-110335319D01*
X132998699Y-110389546D01*
X132998688Y-110389551D01*
X132851965Y-110480052D01*
X132851961Y-110480055D01*
X132730055Y-110601961D01*
X132730052Y-110601965D01*
X132639551Y-110748688D01*
X132639546Y-110748699D01*
X132585319Y-110912347D01*
X132575000Y-111013345D01*
X129500500Y-111013345D01*
X129500500Y-108976654D01*
X132575001Y-108976654D01*
X132585319Y-109077652D01*
X132639546Y-109241300D01*
X132639551Y-109241311D01*
X132730052Y-109388034D01*
X132730055Y-109388038D01*
X132851961Y-109509944D01*
X132851965Y-109509947D01*
X132998688Y-109600448D01*
X132998699Y-109600453D01*
X133162347Y-109654680D01*
X133263351Y-109664999D01*
X133350000Y-109664998D01*
X133350000Y-108940000D01*
X132575001Y-108940000D01*
X132575001Y-108976654D01*
X129500500Y-108976654D01*
X129500500Y-108403345D01*
X132575000Y-108403345D01*
X132575000Y-108440000D01*
X133350000Y-108440000D01*
X133350000Y-107715000D01*
X133349999Y-107714999D01*
X133263360Y-107715000D01*
X133263343Y-107715001D01*
X133162347Y-107725319D01*
X132998699Y-107779546D01*
X132998688Y-107779551D01*
X132851965Y-107870052D01*
X132851961Y-107870055D01*
X132730055Y-107991961D01*
X132730052Y-107991965D01*
X132639551Y-108138688D01*
X132639546Y-108138699D01*
X132585319Y-108302347D01*
X132575000Y-108403345D01*
X129500500Y-108403345D01*
X129500500Y-106386654D01*
X132575001Y-106386654D01*
X132585319Y-106487652D01*
X132639546Y-106651300D01*
X132639551Y-106651311D01*
X132730052Y-106798034D01*
X132730055Y-106798038D01*
X132851961Y-106919944D01*
X132851965Y-106919947D01*
X132998688Y-107010448D01*
X132998699Y-107010453D01*
X133162347Y-107064680D01*
X133263351Y-107074999D01*
X133350000Y-107074998D01*
X133350000Y-106350000D01*
X132575001Y-106350000D01*
X132575001Y-106386654D01*
X129500500Y-106386654D01*
X129500500Y-105813345D01*
X132575000Y-105813345D01*
X132575000Y-105850000D01*
X133350000Y-105850000D01*
X133350000Y-105125000D01*
X133349999Y-105124999D01*
X133263360Y-105125000D01*
X133263343Y-105125001D01*
X133162347Y-105135319D01*
X132998699Y-105189546D01*
X132998688Y-105189551D01*
X132851965Y-105280052D01*
X132851961Y-105280055D01*
X132730055Y-105401961D01*
X132730052Y-105401965D01*
X132639551Y-105548688D01*
X132639546Y-105548699D01*
X132585319Y-105712347D01*
X132575000Y-105813345D01*
X129500500Y-105813345D01*
X129500500Y-96835428D01*
X131650000Y-96835428D01*
X131650000Y-97164571D01*
X131682261Y-97492139D01*
X131746474Y-97814956D01*
X131746475Y-97814961D01*
X131842025Y-98129946D01*
X131967985Y-98434039D01*
X131967987Y-98434044D01*
X132123137Y-98724309D01*
X132123148Y-98724327D01*
X132306007Y-98997995D01*
X132306010Y-98997999D01*
X132460364Y-99186081D01*
X132460365Y-99186081D01*
X133705748Y-97940698D01*
X133779588Y-98042330D01*
X133957670Y-98220412D01*
X134059300Y-98294251D01*
X132813917Y-99539633D01*
X132813917Y-99539634D01*
X133002000Y-99693989D01*
X133002004Y-99693992D01*
X133275672Y-99876851D01*
X133275690Y-99876862D01*
X133565955Y-100032012D01*
X133565960Y-100032014D01*
X133870053Y-100157974D01*
X134185038Y-100253524D01*
X134185043Y-100253525D01*
X134507860Y-100317738D01*
X134835428Y-100350000D01*
X135164572Y-100350000D01*
X135492139Y-100317738D01*
X135814956Y-100253525D01*
X135814961Y-100253524D01*
X136129946Y-100157974D01*
X136434039Y-100032014D01*
X136434044Y-100032012D01*
X136724309Y-99876862D01*
X136724327Y-99876851D01*
X136998004Y-99693986D01*
X137186081Y-99539635D01*
X137186082Y-99539634D01*
X135940698Y-98294251D01*
X136042330Y-98220412D01*
X136220412Y-98042330D01*
X136294251Y-97940699D01*
X137539634Y-99186082D01*
X137539635Y-99186081D01*
X137693986Y-98998004D01*
X137876851Y-98724327D01*
X137876862Y-98724309D01*
X138032012Y-98434044D01*
X138032014Y-98434039D01*
X138157974Y-98129946D01*
X138253524Y-97814961D01*
X138253525Y-97814956D01*
X138317738Y-97492139D01*
X138337859Y-97287844D01*
X163390000Y-97287844D01*
X163396401Y-97347372D01*
X163396403Y-97347379D01*
X163446645Y-97482086D01*
X163446649Y-97482093D01*
X163532809Y-97597187D01*
X163532812Y-97597190D01*
X163647906Y-97683350D01*
X163647913Y-97683354D01*
X163782620Y-97733596D01*
X163782627Y-97733598D01*
X163842155Y-97739999D01*
X163842172Y-97740000D01*
X164840000Y-97740000D01*
X165340000Y-97740000D01*
X166337828Y-97740000D01*
X166337844Y-97739999D01*
X166397372Y-97733598D01*
X166397379Y-97733596D01*
X166532086Y-97683354D01*
X166532093Y-97683350D01*
X166647187Y-97597190D01*
X166647190Y-97597187D01*
X166733350Y-97482093D01*
X166733354Y-97482086D01*
X166783596Y-97347379D01*
X166783598Y-97347372D01*
X166789999Y-97287844D01*
X172190000Y-97287844D01*
X172196401Y-97347372D01*
X172196403Y-97347379D01*
X172246645Y-97482086D01*
X172246649Y-97482093D01*
X172332809Y-97597187D01*
X172332812Y-97597190D01*
X172447906Y-97683350D01*
X172447913Y-97683354D01*
X172582620Y-97733596D01*
X172582627Y-97733598D01*
X172642155Y-97739999D01*
X172642172Y-97740000D01*
X173640000Y-97740000D01*
X174140000Y-97740000D01*
X175137828Y-97740000D01*
X175137844Y-97739999D01*
X175197372Y-97733598D01*
X175197379Y-97733596D01*
X175332086Y-97683354D01*
X175332093Y-97683350D01*
X175447187Y-97597190D01*
X175447190Y-97597187D01*
X175533350Y-97482093D01*
X175533354Y-97482086D01*
X175583596Y-97347379D01*
X175583598Y-97347372D01*
X175589999Y-97287844D01*
X175590000Y-97287827D01*
X175590000Y-96840000D01*
X174140000Y-96840000D01*
X174140000Y-97740000D01*
X173640000Y-97740000D01*
X173640000Y-96840000D01*
X172190000Y-96840000D01*
X172190000Y-97287844D01*
X166789999Y-97287844D01*
X166790000Y-97287827D01*
X166790000Y-96840000D01*
X165340000Y-96840000D01*
X165340000Y-97740000D01*
X164840000Y-97740000D01*
X164840000Y-96840000D01*
X163390000Y-96840000D01*
X163390000Y-97287844D01*
X138337859Y-97287844D01*
X138350000Y-97164571D01*
X138350000Y-96835428D01*
X200650000Y-96835428D01*
X200650000Y-97164571D01*
X200682261Y-97492139D01*
X200746474Y-97814956D01*
X200746475Y-97814961D01*
X200842025Y-98129946D01*
X200967985Y-98434039D01*
X200967987Y-98434044D01*
X201123137Y-98724309D01*
X201123148Y-98724327D01*
X201306007Y-98997995D01*
X201306010Y-98997999D01*
X201460364Y-99186081D01*
X201460365Y-99186081D01*
X202705748Y-97940698D01*
X202779588Y-98042330D01*
X202957670Y-98220412D01*
X203059300Y-98294251D01*
X201813917Y-99539633D01*
X201813917Y-99539634D01*
X202002000Y-99693989D01*
X202002004Y-99693992D01*
X202275672Y-99876851D01*
X202275690Y-99876862D01*
X202565955Y-100032012D01*
X202565960Y-100032014D01*
X202870053Y-100157974D01*
X203185038Y-100253524D01*
X203185043Y-100253525D01*
X203507860Y-100317738D01*
X203835428Y-100350000D01*
X204164572Y-100350000D01*
X204492139Y-100317738D01*
X204814956Y-100253525D01*
X204814961Y-100253524D01*
X205129946Y-100157974D01*
X205434039Y-100032014D01*
X205434044Y-100032012D01*
X205724309Y-99876862D01*
X205724327Y-99876851D01*
X205998004Y-99693986D01*
X206186081Y-99539635D01*
X206186082Y-99539634D01*
X204940698Y-98294251D01*
X205042330Y-98220412D01*
X205220412Y-98042330D01*
X205294251Y-97940699D01*
X206539634Y-99186082D01*
X206539635Y-99186081D01*
X206693986Y-98998004D01*
X206876851Y-98724327D01*
X206876862Y-98724309D01*
X207032012Y-98434044D01*
X207032014Y-98434039D01*
X207157974Y-98129946D01*
X207253524Y-97814961D01*
X207253525Y-97814956D01*
X207317738Y-97492139D01*
X207350000Y-97164571D01*
X207350000Y-96835428D01*
X207317738Y-96507860D01*
X207253525Y-96185043D01*
X207253524Y-96185038D01*
X207157974Y-95870053D01*
X207032014Y-95565960D01*
X207032012Y-95565955D01*
X206876862Y-95275690D01*
X206876851Y-95275672D01*
X206693992Y-95002004D01*
X206693989Y-95002000D01*
X206539634Y-94813917D01*
X206539633Y-94813917D01*
X205294250Y-96059299D01*
X205220412Y-95957670D01*
X205042330Y-95779588D01*
X204940697Y-95705747D01*
X206186081Y-94460365D01*
X206186081Y-94460364D01*
X205997999Y-94306010D01*
X205997995Y-94306007D01*
X205724327Y-94123148D01*
X205724309Y-94123137D01*
X205434044Y-93967987D01*
X205434039Y-93967985D01*
X205129946Y-93842025D01*
X204814961Y-93746475D01*
X204814956Y-93746474D01*
X204492139Y-93682261D01*
X204164572Y-93650000D01*
X203835428Y-93650000D01*
X203507860Y-93682261D01*
X203185043Y-93746474D01*
X203185038Y-93746475D01*
X202870053Y-93842025D01*
X202565960Y-93967985D01*
X202565955Y-93967987D01*
X202275690Y-94123137D01*
X202275672Y-94123148D01*
X202002004Y-94306007D01*
X202001999Y-94306010D01*
X201813917Y-94460364D01*
X201813917Y-94460365D01*
X203059301Y-95705748D01*
X202957670Y-95779588D01*
X202779588Y-95957670D01*
X202705748Y-96059301D01*
X201460365Y-94813917D01*
X201460364Y-94813917D01*
X201306010Y-95001999D01*
X201306007Y-95002004D01*
X201123148Y-95275672D01*
X201123137Y-95275690D01*
X200967987Y-95565955D01*
X200967985Y-95565960D01*
X200842025Y-95870053D01*
X200746475Y-96185038D01*
X200746474Y-96185043D01*
X200682261Y-96507860D01*
X200650000Y-96835428D01*
X138350000Y-96835428D01*
X138350000Y-96835427D01*
X138346589Y-96800791D01*
X138317738Y-96507860D01*
X138253525Y-96185043D01*
X138253524Y-96185038D01*
X138157974Y-95870053D01*
X138032014Y-95565960D01*
X138032012Y-95565955D01*
X138024576Y-95552044D01*
X139365800Y-95552044D01*
X139372201Y-95611572D01*
X139372203Y-95611579D01*
X139422445Y-95746286D01*
X139422449Y-95746293D01*
X139508609Y-95861387D01*
X139508612Y-95861390D01*
X139623706Y-95947550D01*
X139623713Y-95947554D01*
X139758420Y-95997796D01*
X139758427Y-95997798D01*
X139817955Y-96004199D01*
X139817972Y-96004200D01*
X140815800Y-96004200D01*
X141315800Y-96004200D01*
X142313628Y-96004200D01*
X142313644Y-96004199D01*
X142373172Y-95997798D01*
X142373179Y-95997796D01*
X142507886Y-95947554D01*
X142507893Y-95947550D01*
X142622987Y-95861390D01*
X142622990Y-95861387D01*
X142709150Y-95746293D01*
X142709154Y-95746286D01*
X142759396Y-95611579D01*
X142759398Y-95611572D01*
X142765799Y-95552044D01*
X148165800Y-95552044D01*
X148172201Y-95611572D01*
X148172203Y-95611579D01*
X148222445Y-95746286D01*
X148222449Y-95746293D01*
X148308609Y-95861387D01*
X148308612Y-95861390D01*
X148423706Y-95947550D01*
X148423713Y-95947554D01*
X148558420Y-95997796D01*
X148558427Y-95997798D01*
X148617955Y-96004199D01*
X148617972Y-96004200D01*
X149615800Y-96004200D01*
X150115800Y-96004200D01*
X151113628Y-96004200D01*
X151113644Y-96004199D01*
X151173172Y-95997798D01*
X151173179Y-95997796D01*
X151307886Y-95947554D01*
X151307893Y-95947550D01*
X151381891Y-95892155D01*
X163390000Y-95892155D01*
X163390000Y-96340000D01*
X164840000Y-96340000D01*
X165340000Y-96340000D01*
X166790000Y-96340000D01*
X166790000Y-95892172D01*
X166789999Y-95892155D01*
X172190000Y-95892155D01*
X172190000Y-96340000D01*
X173640000Y-96340000D01*
X174140000Y-96340000D01*
X175590000Y-96340000D01*
X175590000Y-95892172D01*
X175589999Y-95892155D01*
X175583598Y-95832627D01*
X175583596Y-95832620D01*
X175533354Y-95697913D01*
X175533350Y-95697906D01*
X175447190Y-95582812D01*
X175447187Y-95582809D01*
X175332093Y-95496649D01*
X175332086Y-95496645D01*
X175197379Y-95446403D01*
X175197372Y-95446401D01*
X175137844Y-95440000D01*
X174140000Y-95440000D01*
X174140000Y-96340000D01*
X173640000Y-96340000D01*
X173640000Y-95440000D01*
X172642155Y-95440000D01*
X172582627Y-95446401D01*
X172582620Y-95446403D01*
X172447913Y-95496645D01*
X172447906Y-95496649D01*
X172332812Y-95582809D01*
X172332809Y-95582812D01*
X172246649Y-95697906D01*
X172246645Y-95697913D01*
X172196403Y-95832620D01*
X172196401Y-95832627D01*
X172190000Y-95892155D01*
X166789999Y-95892155D01*
X166783598Y-95832627D01*
X166783596Y-95832620D01*
X166733354Y-95697913D01*
X166733350Y-95697906D01*
X166647190Y-95582812D01*
X166647187Y-95582809D01*
X166532093Y-95496649D01*
X166532086Y-95496645D01*
X166397379Y-95446403D01*
X166397372Y-95446401D01*
X166337844Y-95440000D01*
X165340000Y-95440000D01*
X165340000Y-96340000D01*
X164840000Y-96340000D01*
X164840000Y-95440000D01*
X163842155Y-95440000D01*
X163782627Y-95446401D01*
X163782620Y-95446403D01*
X163647913Y-95496645D01*
X163647906Y-95496649D01*
X163532812Y-95582809D01*
X163532809Y-95582812D01*
X163446649Y-95697906D01*
X163446645Y-95697913D01*
X163396403Y-95832620D01*
X163396401Y-95832627D01*
X163390000Y-95892155D01*
X151381891Y-95892155D01*
X151422987Y-95861390D01*
X151458061Y-95814539D01*
X151509153Y-95746288D01*
X151509154Y-95746286D01*
X151559396Y-95611579D01*
X151559398Y-95611572D01*
X151565799Y-95552044D01*
X151565800Y-95552027D01*
X151565800Y-95104200D01*
X150115800Y-95104200D01*
X150115800Y-96004200D01*
X149615800Y-96004200D01*
X149615800Y-95104200D01*
X148165800Y-95104200D01*
X148165800Y-95552044D01*
X142765799Y-95552044D01*
X142765800Y-95552027D01*
X142765800Y-95104200D01*
X141315800Y-95104200D01*
X141315800Y-96004200D01*
X140815800Y-96004200D01*
X140815800Y-95104200D01*
X139365800Y-95104200D01*
X139365800Y-95552044D01*
X138024576Y-95552044D01*
X137876862Y-95275690D01*
X137876851Y-95275672D01*
X137773990Y-95121729D01*
X137693992Y-95002004D01*
X137693989Y-95002000D01*
X137539634Y-94813917D01*
X137539633Y-94813917D01*
X136294250Y-96059300D01*
X136220412Y-95957670D01*
X136042330Y-95779588D01*
X135940697Y-95705747D01*
X137186081Y-94460365D01*
X137186081Y-94460364D01*
X136997999Y-94306010D01*
X136997995Y-94306007D01*
X136923383Y-94256153D01*
X136774025Y-94156355D01*
X139365800Y-94156355D01*
X139365800Y-94604200D01*
X140815800Y-94604200D01*
X141315800Y-94604200D01*
X142765800Y-94604200D01*
X142765800Y-94156372D01*
X142765799Y-94156355D01*
X148165800Y-94156355D01*
X148165800Y-94604200D01*
X149615800Y-94604200D01*
X150115800Y-94604200D01*
X151565800Y-94604200D01*
X151565800Y-94156372D01*
X151565799Y-94156355D01*
X151559398Y-94096827D01*
X151559396Y-94096820D01*
X151509154Y-93962113D01*
X151509150Y-93962106D01*
X151422990Y-93847012D01*
X151422987Y-93847009D01*
X151307893Y-93760849D01*
X151307886Y-93760845D01*
X151173179Y-93710603D01*
X151173172Y-93710601D01*
X151113644Y-93704200D01*
X150115800Y-93704200D01*
X150115800Y-94604200D01*
X149615800Y-94604200D01*
X149615800Y-93704200D01*
X148617955Y-93704200D01*
X148558427Y-93710601D01*
X148558420Y-93710603D01*
X148423713Y-93760845D01*
X148423706Y-93760849D01*
X148308612Y-93847009D01*
X148308609Y-93847012D01*
X148222449Y-93962106D01*
X148222445Y-93962113D01*
X148172203Y-94096820D01*
X148172201Y-94096827D01*
X148165800Y-94156355D01*
X142765799Y-94156355D01*
X142759398Y-94096827D01*
X142759396Y-94096820D01*
X142709154Y-93962113D01*
X142709150Y-93962106D01*
X142622990Y-93847012D01*
X142622987Y-93847009D01*
X142507893Y-93760849D01*
X142507886Y-93760845D01*
X142373179Y-93710603D01*
X142373172Y-93710601D01*
X142313644Y-93704200D01*
X141315800Y-93704200D01*
X141315800Y-94604200D01*
X140815800Y-94604200D01*
X140815800Y-93704200D01*
X139817955Y-93704200D01*
X139758427Y-93710601D01*
X139758420Y-93710603D01*
X139623713Y-93760845D01*
X139623706Y-93760849D01*
X139508612Y-93847009D01*
X139508609Y-93847012D01*
X139422449Y-93962106D01*
X139422445Y-93962113D01*
X139372203Y-94096820D01*
X139372201Y-94096827D01*
X139365800Y-94156355D01*
X136774025Y-94156355D01*
X136724327Y-94123148D01*
X136724309Y-94123137D01*
X136434044Y-93967987D01*
X136434039Y-93967985D01*
X136129946Y-93842025D01*
X135814961Y-93746475D01*
X135814956Y-93746474D01*
X135492139Y-93682261D01*
X135164572Y-93650000D01*
X134835428Y-93650000D01*
X134507860Y-93682261D01*
X134185043Y-93746474D01*
X134185038Y-93746475D01*
X133870053Y-93842025D01*
X133565960Y-93967985D01*
X133565955Y-93967987D01*
X133275690Y-94123137D01*
X133275672Y-94123148D01*
X133002004Y-94306007D01*
X133001999Y-94306010D01*
X132813917Y-94460364D01*
X132813917Y-94460365D01*
X134059301Y-95705748D01*
X133957670Y-95779588D01*
X133779588Y-95957670D01*
X133705748Y-96059301D01*
X132460365Y-94813917D01*
X132460364Y-94813917D01*
X132306010Y-95001999D01*
X132306007Y-95002004D01*
X132123148Y-95275672D01*
X132123137Y-95275690D01*
X131967987Y-95565955D01*
X131967985Y-95565960D01*
X131842025Y-95870053D01*
X131746475Y-96185038D01*
X131746474Y-96185043D01*
X131682261Y-96507860D01*
X131650000Y-96835428D01*
X129500500Y-96835428D01*
X129500500Y-93085499D01*
X129502126Y-93077323D01*
X129501210Y-93072245D01*
X129509939Y-93038047D01*
X129511171Y-93035072D01*
X129544430Y-92954775D01*
X129550452Y-92942269D01*
X129706467Y-92659983D01*
X129713854Y-92648228D01*
X129900482Y-92385201D01*
X129909128Y-92374358D01*
X130124049Y-92133861D01*
X130133861Y-92124049D01*
X130374358Y-91909128D01*
X130385201Y-91900482D01*
X130648228Y-91713854D01*
X130659983Y-91706467D01*
X130942269Y-91550452D01*
X130954768Y-91544434D01*
X131038049Y-91509937D01*
X131085500Y-91500500D01*
X207914500Y-91500500D01*
X207922675Y-91502126D01*
G37*
%TD.AperFunction*%
%TD*%
M02*
