%TF.GenerationSoftware,KiCad,Pcbnew,9.0.0*%
%TF.CreationDate,2025-03-04T20:01:11+01:00*%
%TF.ProjectId,esp32vga-keypad,65737033-3276-4676-912d-6b6579706164,2*%
%TF.SameCoordinates,Original*%
%TF.FileFunction,Legend,Bot*%
%TF.FilePolarity,Positive*%
%FSLAX46Y46*%
G04 Gerber Fmt 4.6, Leading zero omitted, Abs format (unit mm)*
G04 Created by KiCad (PCBNEW 9.0.0) date 2025-03-04 20:01:11*
%MOMM*%
%LPD*%
G01*
G04 APERTURE LIST*
%ADD10C,0.100000*%
%ADD11C,0.150000*%
%ADD12C,0.120000*%
G04 APERTURE END LIST*
D10*
X192191819Y-104780398D02*
X192906104Y-104780398D01*
X192906104Y-104780398D02*
X193048961Y-104732779D01*
X193048961Y-104732779D02*
X193144200Y-104637541D01*
X193144200Y-104637541D02*
X193191819Y-104494684D01*
X193191819Y-104494684D02*
X193191819Y-104399446D01*
X193191819Y-105732779D02*
X193191819Y-105256589D01*
X193191819Y-105256589D02*
X192191819Y-105256589D01*
X193096580Y-106637541D02*
X193144200Y-106589922D01*
X193144200Y-106589922D02*
X193191819Y-106447065D01*
X193191819Y-106447065D02*
X193191819Y-106351827D01*
X193191819Y-106351827D02*
X193144200Y-106208970D01*
X193144200Y-106208970D02*
X193048961Y-106113732D01*
X193048961Y-106113732D02*
X192953723Y-106066113D01*
X192953723Y-106066113D02*
X192763247Y-106018494D01*
X192763247Y-106018494D02*
X192620390Y-106018494D01*
X192620390Y-106018494D02*
X192429914Y-106066113D01*
X192429914Y-106066113D02*
X192334676Y-106113732D01*
X192334676Y-106113732D02*
X192239438Y-106208970D01*
X192239438Y-106208970D02*
X192191819Y-106351827D01*
X192191819Y-106351827D02*
X192191819Y-106447065D01*
X192191819Y-106447065D02*
X192239438Y-106589922D01*
X192239438Y-106589922D02*
X192287057Y-106637541D01*
X192191819Y-107351827D02*
X192906104Y-107351827D01*
X192906104Y-107351827D02*
X193048961Y-107304208D01*
X193048961Y-107304208D02*
X193144200Y-107208970D01*
X193144200Y-107208970D02*
X193191819Y-107066113D01*
X193191819Y-107066113D02*
X193191819Y-106970875D01*
X193191819Y-108304208D02*
X193191819Y-107828018D01*
X193191819Y-107828018D02*
X192191819Y-107828018D01*
X193096580Y-109208970D02*
X193144200Y-109161351D01*
X193144200Y-109161351D02*
X193191819Y-109018494D01*
X193191819Y-109018494D02*
X193191819Y-108923256D01*
X193191819Y-108923256D02*
X193144200Y-108780399D01*
X193144200Y-108780399D02*
X193048961Y-108685161D01*
X193048961Y-108685161D02*
X192953723Y-108637542D01*
X192953723Y-108637542D02*
X192763247Y-108589923D01*
X192763247Y-108589923D02*
X192620390Y-108589923D01*
X192620390Y-108589923D02*
X192429914Y-108637542D01*
X192429914Y-108637542D02*
X192334676Y-108685161D01*
X192334676Y-108685161D02*
X192239438Y-108780399D01*
X192239438Y-108780399D02*
X192191819Y-108923256D01*
X192191819Y-108923256D02*
X192191819Y-109018494D01*
X192191819Y-109018494D02*
X192239438Y-109161351D01*
X192239438Y-109161351D02*
X192287057Y-109208970D01*
X192191819Y-109923256D02*
X192906104Y-109923256D01*
X192906104Y-109923256D02*
X193048961Y-109875637D01*
X193048961Y-109875637D02*
X193144200Y-109780399D01*
X193144200Y-109780399D02*
X193191819Y-109637542D01*
X193191819Y-109637542D02*
X193191819Y-109542304D01*
X193191819Y-110875637D02*
X193191819Y-110399447D01*
X193191819Y-110399447D02*
X192191819Y-110399447D01*
X193096580Y-111780399D02*
X193144200Y-111732780D01*
X193144200Y-111732780D02*
X193191819Y-111589923D01*
X193191819Y-111589923D02*
X193191819Y-111494685D01*
X193191819Y-111494685D02*
X193144200Y-111351828D01*
X193144200Y-111351828D02*
X193048961Y-111256590D01*
X193048961Y-111256590D02*
X192953723Y-111208971D01*
X192953723Y-111208971D02*
X192763247Y-111161352D01*
X192763247Y-111161352D02*
X192620390Y-111161352D01*
X192620390Y-111161352D02*
X192429914Y-111208971D01*
X192429914Y-111208971D02*
X192334676Y-111256590D01*
X192334676Y-111256590D02*
X192239438Y-111351828D01*
X192239438Y-111351828D02*
X192191819Y-111494685D01*
X192191819Y-111494685D02*
X192191819Y-111589923D01*
X192191819Y-111589923D02*
X192239438Y-111732780D01*
X192239438Y-111732780D02*
X192287057Y-111780399D01*
X192191819Y-112494685D02*
X192906104Y-112494685D01*
X192906104Y-112494685D02*
X193048961Y-112447066D01*
X193048961Y-112447066D02*
X193144200Y-112351828D01*
X193144200Y-112351828D02*
X193191819Y-112208971D01*
X193191819Y-112208971D02*
X193191819Y-112113733D01*
X193191819Y-113447066D02*
X193191819Y-112970876D01*
X193191819Y-112970876D02*
X192191819Y-112970876D01*
X193096580Y-114351828D02*
X193144200Y-114304209D01*
X193144200Y-114304209D02*
X193191819Y-114161352D01*
X193191819Y-114161352D02*
X193191819Y-114066114D01*
X193191819Y-114066114D02*
X193144200Y-113923257D01*
X193144200Y-113923257D02*
X193048961Y-113828019D01*
X193048961Y-113828019D02*
X192953723Y-113780400D01*
X192953723Y-113780400D02*
X192763247Y-113732781D01*
X192763247Y-113732781D02*
X192620390Y-113732781D01*
X192620390Y-113732781D02*
X192429914Y-113780400D01*
X192429914Y-113780400D02*
X192334676Y-113828019D01*
X192334676Y-113828019D02*
X192239438Y-113923257D01*
X192239438Y-113923257D02*
X192191819Y-114066114D01*
X192191819Y-114066114D02*
X192191819Y-114161352D01*
X192191819Y-114161352D02*
X192239438Y-114304209D01*
X192239438Y-114304209D02*
X192287057Y-114351828D01*
D11*
X192238333Y-97494819D02*
X192238333Y-98209104D01*
X192238333Y-98209104D02*
X192285952Y-98351961D01*
X192285952Y-98351961D02*
X192381190Y-98447200D01*
X192381190Y-98447200D02*
X192524047Y-98494819D01*
X192524047Y-98494819D02*
X192619285Y-98494819D01*
X191238333Y-98494819D02*
X191809761Y-98494819D01*
X191524047Y-98494819D02*
X191524047Y-97494819D01*
X191524047Y-97494819D02*
X191619285Y-97637676D01*
X191619285Y-97637676D02*
X191714523Y-97732914D01*
X191714523Y-97732914D02*
X191809761Y-97780533D01*
D12*
%TO.C,J1*%
X184730000Y-98930000D02*
X193850000Y-98930000D01*
X184730000Y-107170000D02*
X193850000Y-107170000D01*
X184730000Y-111270000D02*
X193850000Y-111270000D01*
X184730000Y-119510000D02*
X184730000Y-98930000D01*
X193850000Y-98930000D02*
X193850000Y-119510000D01*
X193850000Y-119510000D02*
X184730000Y-119510000D01*
X199470000Y-104140000D02*
X200470000Y-104640000D01*
X200470000Y-103640000D02*
X199470000Y-104140000D01*
X200470000Y-104640000D02*
X200470000Y-103640000D01*
%TD*%
M02*
