%TF.GenerationSoftware,KiCad,Pcbnew,9.0.0*%
%TF.CreationDate,2025-03-04T20:01:11+01:00*%
%TF.ProjectId,esp32vga-keypad,65737033-3276-4676-912d-6b6579706164,2*%
%TF.SameCoordinates,Original*%
%TF.FileFunction,Legend,Top*%
%TF.FilePolarity,Positive*%
%FSLAX46Y46*%
G04 Gerber Fmt 4.6, Leading zero omitted, Abs format (unit mm)*
G04 Created by KiCad (PCBNEW 9.0.0) date 2025-03-04 20:01:11*
%MOMM*%
%LPD*%
G01*
G04 APERTURE LIST*
%ADD10C,0.100000*%
%ADD11C,0.150000*%
%ADD12C,0.120000*%
G04 APERTURE END LIST*
D10*
X140479095Y-117886577D02*
X140812428Y-117886577D01*
X140955285Y-118410387D02*
X140479095Y-118410387D01*
X140479095Y-118410387D02*
X140479095Y-117410387D01*
X140479095Y-117410387D02*
X140955285Y-117410387D01*
X141336238Y-118362768D02*
X141479095Y-118410387D01*
X141479095Y-118410387D02*
X141717190Y-118410387D01*
X141717190Y-118410387D02*
X141812428Y-118362768D01*
X141812428Y-118362768D02*
X141860047Y-118315148D01*
X141860047Y-118315148D02*
X141907666Y-118219910D01*
X141907666Y-118219910D02*
X141907666Y-118124672D01*
X141907666Y-118124672D02*
X141860047Y-118029434D01*
X141860047Y-118029434D02*
X141812428Y-117981815D01*
X141812428Y-117981815D02*
X141717190Y-117934196D01*
X141717190Y-117934196D02*
X141526714Y-117886577D01*
X141526714Y-117886577D02*
X141431476Y-117838958D01*
X141431476Y-117838958D02*
X141383857Y-117791339D01*
X141383857Y-117791339D02*
X141336238Y-117696101D01*
X141336238Y-117696101D02*
X141336238Y-117600863D01*
X141336238Y-117600863D02*
X141383857Y-117505625D01*
X141383857Y-117505625D02*
X141431476Y-117458006D01*
X141431476Y-117458006D02*
X141526714Y-117410387D01*
X141526714Y-117410387D02*
X141764809Y-117410387D01*
X141764809Y-117410387D02*
X141907666Y-117458006D01*
X142336238Y-118410387D02*
X142336238Y-117410387D01*
X142336238Y-117410387D02*
X142717190Y-117410387D01*
X142717190Y-117410387D02*
X142812428Y-117458006D01*
X142812428Y-117458006D02*
X142860047Y-117505625D01*
X142860047Y-117505625D02*
X142907666Y-117600863D01*
X142907666Y-117600863D02*
X142907666Y-117743720D01*
X142907666Y-117743720D02*
X142860047Y-117838958D01*
X142860047Y-117838958D02*
X142812428Y-117886577D01*
X142812428Y-117886577D02*
X142717190Y-117934196D01*
X142717190Y-117934196D02*
X142336238Y-117934196D01*
X143241000Y-117410387D02*
X143860047Y-117410387D01*
X143860047Y-117410387D02*
X143526714Y-117791339D01*
X143526714Y-117791339D02*
X143669571Y-117791339D01*
X143669571Y-117791339D02*
X143764809Y-117838958D01*
X143764809Y-117838958D02*
X143812428Y-117886577D01*
X143812428Y-117886577D02*
X143860047Y-117981815D01*
X143860047Y-117981815D02*
X143860047Y-118219910D01*
X143860047Y-118219910D02*
X143812428Y-118315148D01*
X143812428Y-118315148D02*
X143764809Y-118362768D01*
X143764809Y-118362768D02*
X143669571Y-118410387D01*
X143669571Y-118410387D02*
X143383857Y-118410387D01*
X143383857Y-118410387D02*
X143288619Y-118362768D01*
X143288619Y-118362768D02*
X143241000Y-118315148D01*
X144241000Y-117505625D02*
X144288619Y-117458006D01*
X144288619Y-117458006D02*
X144383857Y-117410387D01*
X144383857Y-117410387D02*
X144621952Y-117410387D01*
X144621952Y-117410387D02*
X144717190Y-117458006D01*
X144717190Y-117458006D02*
X144764809Y-117505625D01*
X144764809Y-117505625D02*
X144812428Y-117600863D01*
X144812428Y-117600863D02*
X144812428Y-117696101D01*
X144812428Y-117696101D02*
X144764809Y-117838958D01*
X144764809Y-117838958D02*
X144193381Y-118410387D01*
X144193381Y-118410387D02*
X144812428Y-118410387D01*
X145193381Y-118362768D02*
X145336238Y-118410387D01*
X145336238Y-118410387D02*
X145574333Y-118410387D01*
X145574333Y-118410387D02*
X145669571Y-118362768D01*
X145669571Y-118362768D02*
X145717190Y-118315148D01*
X145717190Y-118315148D02*
X145764809Y-118219910D01*
X145764809Y-118219910D02*
X145764809Y-118124672D01*
X145764809Y-118124672D02*
X145717190Y-118029434D01*
X145717190Y-118029434D02*
X145669571Y-117981815D01*
X145669571Y-117981815D02*
X145574333Y-117934196D01*
X145574333Y-117934196D02*
X145383857Y-117886577D01*
X145383857Y-117886577D02*
X145288619Y-117838958D01*
X145288619Y-117838958D02*
X145241000Y-117791339D01*
X145241000Y-117791339D02*
X145193381Y-117696101D01*
X145193381Y-117696101D02*
X145193381Y-117600863D01*
X145193381Y-117600863D02*
X145241000Y-117505625D01*
X145241000Y-117505625D02*
X145288619Y-117458006D01*
X145288619Y-117458006D02*
X145383857Y-117410387D01*
X145383857Y-117410387D02*
X145621952Y-117410387D01*
X145621952Y-117410387D02*
X145764809Y-117458006D01*
X146098143Y-117410387D02*
X146717190Y-117410387D01*
X146717190Y-117410387D02*
X146383857Y-117791339D01*
X146383857Y-117791339D02*
X146526714Y-117791339D01*
X146526714Y-117791339D02*
X146621952Y-117838958D01*
X146621952Y-117838958D02*
X146669571Y-117886577D01*
X146669571Y-117886577D02*
X146717190Y-117981815D01*
X146717190Y-117981815D02*
X146717190Y-118219910D01*
X146717190Y-118219910D02*
X146669571Y-118315148D01*
X146669571Y-118315148D02*
X146621952Y-118362768D01*
X146621952Y-118362768D02*
X146526714Y-118410387D01*
X146526714Y-118410387D02*
X146241000Y-118410387D01*
X146241000Y-118410387D02*
X146145762Y-118362768D01*
X146145762Y-118362768D02*
X146098143Y-118315148D01*
X147145762Y-118029434D02*
X147907667Y-118029434D01*
X148955285Y-118410387D02*
X148621952Y-117934196D01*
X148383857Y-118410387D02*
X148383857Y-117410387D01*
X148383857Y-117410387D02*
X148764809Y-117410387D01*
X148764809Y-117410387D02*
X148860047Y-117458006D01*
X148860047Y-117458006D02*
X148907666Y-117505625D01*
X148907666Y-117505625D02*
X148955285Y-117600863D01*
X148955285Y-117600863D02*
X148955285Y-117743720D01*
X148955285Y-117743720D02*
X148907666Y-117838958D01*
X148907666Y-117838958D02*
X148860047Y-117886577D01*
X148860047Y-117886577D02*
X148764809Y-117934196D01*
X148764809Y-117934196D02*
X148383857Y-117934196D01*
X149241000Y-117410387D02*
X149812428Y-117410387D01*
X149526714Y-118410387D02*
X149526714Y-117410387D01*
X150145762Y-118029434D02*
X150907667Y-118029434D01*
X151241000Y-117410387D02*
X151574333Y-118410387D01*
X151574333Y-118410387D02*
X151907666Y-117410387D01*
X152764809Y-117458006D02*
X152669571Y-117410387D01*
X152669571Y-117410387D02*
X152526714Y-117410387D01*
X152526714Y-117410387D02*
X152383857Y-117458006D01*
X152383857Y-117458006D02*
X152288619Y-117553244D01*
X152288619Y-117553244D02*
X152241000Y-117648482D01*
X152241000Y-117648482D02*
X152193381Y-117838958D01*
X152193381Y-117838958D02*
X152193381Y-117981815D01*
X152193381Y-117981815D02*
X152241000Y-118172291D01*
X152241000Y-118172291D02*
X152288619Y-118267529D01*
X152288619Y-118267529D02*
X152383857Y-118362768D01*
X152383857Y-118362768D02*
X152526714Y-118410387D01*
X152526714Y-118410387D02*
X152621952Y-118410387D01*
X152621952Y-118410387D02*
X152764809Y-118362768D01*
X152764809Y-118362768D02*
X152812428Y-118315148D01*
X152812428Y-118315148D02*
X152812428Y-117981815D01*
X152812428Y-117981815D02*
X152621952Y-117981815D01*
X153193381Y-118124672D02*
X153669571Y-118124672D01*
X153098143Y-118410387D02*
X153431476Y-117410387D01*
X153431476Y-117410387D02*
X153764809Y-118410387D01*
X154860048Y-118410387D02*
X154860048Y-117410387D01*
X155431476Y-118410387D02*
X155002905Y-117838958D01*
X155431476Y-117410387D02*
X154860048Y-117981815D01*
X155860048Y-117886577D02*
X156193381Y-117886577D01*
X156336238Y-118410387D02*
X155860048Y-118410387D01*
X155860048Y-118410387D02*
X155860048Y-117410387D01*
X155860048Y-117410387D02*
X156336238Y-117410387D01*
X156955286Y-117934196D02*
X156955286Y-118410387D01*
X156621953Y-117410387D02*
X156955286Y-117934196D01*
X156955286Y-117934196D02*
X157288619Y-117410387D01*
X157621953Y-118410387D02*
X157621953Y-117410387D01*
X157621953Y-117410387D02*
X158002905Y-117410387D01*
X158002905Y-117410387D02*
X158098143Y-117458006D01*
X158098143Y-117458006D02*
X158145762Y-117505625D01*
X158145762Y-117505625D02*
X158193381Y-117600863D01*
X158193381Y-117600863D02*
X158193381Y-117743720D01*
X158193381Y-117743720D02*
X158145762Y-117838958D01*
X158145762Y-117838958D02*
X158098143Y-117886577D01*
X158098143Y-117886577D02*
X158002905Y-117934196D01*
X158002905Y-117934196D02*
X157621953Y-117934196D01*
X158574334Y-118124672D02*
X159050524Y-118124672D01*
X158479096Y-118410387D02*
X158812429Y-117410387D01*
X158812429Y-117410387D02*
X159145762Y-118410387D01*
X159479096Y-118410387D02*
X159479096Y-117410387D01*
X159479096Y-117410387D02*
X159717191Y-117410387D01*
X159717191Y-117410387D02*
X159860048Y-117458006D01*
X159860048Y-117458006D02*
X159955286Y-117553244D01*
X159955286Y-117553244D02*
X160002905Y-117648482D01*
X160002905Y-117648482D02*
X160050524Y-117838958D01*
X160050524Y-117838958D02*
X160050524Y-117981815D01*
X160050524Y-117981815D02*
X160002905Y-118172291D01*
X160002905Y-118172291D02*
X159955286Y-118267529D01*
X159955286Y-118267529D02*
X159860048Y-118362768D01*
X159860048Y-118362768D02*
X159717191Y-118410387D01*
X159717191Y-118410387D02*
X159479096Y-118410387D01*
X147383856Y-120401283D02*
X147336237Y-120353664D01*
X147336237Y-120353664D02*
X147240999Y-120210807D01*
X147240999Y-120210807D02*
X147193380Y-120115569D01*
X147193380Y-120115569D02*
X147145761Y-119972712D01*
X147145761Y-119972712D02*
X147098142Y-119734616D01*
X147098142Y-119734616D02*
X147098142Y-119544140D01*
X147098142Y-119544140D02*
X147145761Y-119306045D01*
X147145761Y-119306045D02*
X147193380Y-119163188D01*
X147193380Y-119163188D02*
X147240999Y-119067950D01*
X147240999Y-119067950D02*
X147336237Y-118925092D01*
X147336237Y-118925092D02*
X147383856Y-118877473D01*
X148193380Y-119972712D02*
X148098142Y-120020331D01*
X148098142Y-120020331D02*
X147907666Y-120020331D01*
X147907666Y-120020331D02*
X147812428Y-119972712D01*
X147812428Y-119972712D02*
X147764809Y-119925092D01*
X147764809Y-119925092D02*
X147717190Y-119829854D01*
X147717190Y-119829854D02*
X147717190Y-119544140D01*
X147717190Y-119544140D02*
X147764809Y-119448902D01*
X147764809Y-119448902D02*
X147812428Y-119401283D01*
X147812428Y-119401283D02*
X147907666Y-119353664D01*
X147907666Y-119353664D02*
X148098142Y-119353664D01*
X148098142Y-119353664D02*
X148193380Y-119401283D01*
X148526714Y-120401283D02*
X148574333Y-120353664D01*
X148574333Y-120353664D02*
X148669571Y-120210807D01*
X148669571Y-120210807D02*
X148717190Y-120115569D01*
X148717190Y-120115569D02*
X148764809Y-119972712D01*
X148764809Y-119972712D02*
X148812428Y-119734616D01*
X148812428Y-119734616D02*
X148812428Y-119544140D01*
X148812428Y-119544140D02*
X148764809Y-119306045D01*
X148764809Y-119306045D02*
X148717190Y-119163188D01*
X148717190Y-119163188D02*
X148669571Y-119067950D01*
X148669571Y-119067950D02*
X148574333Y-118925092D01*
X148574333Y-118925092D02*
X148526714Y-118877473D01*
X149241000Y-119115569D02*
X149288619Y-119067950D01*
X149288619Y-119067950D02*
X149383857Y-119020331D01*
X149383857Y-119020331D02*
X149621952Y-119020331D01*
X149621952Y-119020331D02*
X149717190Y-119067950D01*
X149717190Y-119067950D02*
X149764809Y-119115569D01*
X149764809Y-119115569D02*
X149812428Y-119210807D01*
X149812428Y-119210807D02*
X149812428Y-119306045D01*
X149812428Y-119306045D02*
X149764809Y-119448902D01*
X149764809Y-119448902D02*
X149193381Y-120020331D01*
X149193381Y-120020331D02*
X149812428Y-120020331D01*
X150431476Y-119020331D02*
X150526714Y-119020331D01*
X150526714Y-119020331D02*
X150621952Y-119067950D01*
X150621952Y-119067950D02*
X150669571Y-119115569D01*
X150669571Y-119115569D02*
X150717190Y-119210807D01*
X150717190Y-119210807D02*
X150764809Y-119401283D01*
X150764809Y-119401283D02*
X150764809Y-119639378D01*
X150764809Y-119639378D02*
X150717190Y-119829854D01*
X150717190Y-119829854D02*
X150669571Y-119925092D01*
X150669571Y-119925092D02*
X150621952Y-119972712D01*
X150621952Y-119972712D02*
X150526714Y-120020331D01*
X150526714Y-120020331D02*
X150431476Y-120020331D01*
X150431476Y-120020331D02*
X150336238Y-119972712D01*
X150336238Y-119972712D02*
X150288619Y-119925092D01*
X150288619Y-119925092D02*
X150241000Y-119829854D01*
X150241000Y-119829854D02*
X150193381Y-119639378D01*
X150193381Y-119639378D02*
X150193381Y-119401283D01*
X150193381Y-119401283D02*
X150241000Y-119210807D01*
X150241000Y-119210807D02*
X150288619Y-119115569D01*
X150288619Y-119115569D02*
X150336238Y-119067950D01*
X150336238Y-119067950D02*
X150431476Y-119020331D01*
X151145762Y-119115569D02*
X151193381Y-119067950D01*
X151193381Y-119067950D02*
X151288619Y-119020331D01*
X151288619Y-119020331D02*
X151526714Y-119020331D01*
X151526714Y-119020331D02*
X151621952Y-119067950D01*
X151621952Y-119067950D02*
X151669571Y-119115569D01*
X151669571Y-119115569D02*
X151717190Y-119210807D01*
X151717190Y-119210807D02*
X151717190Y-119306045D01*
X151717190Y-119306045D02*
X151669571Y-119448902D01*
X151669571Y-119448902D02*
X151098143Y-120020331D01*
X151098143Y-120020331D02*
X151717190Y-120020331D01*
X152574333Y-119353664D02*
X152574333Y-120020331D01*
X152336238Y-118972712D02*
X152098143Y-119686997D01*
X152098143Y-119686997D02*
X152717190Y-119686997D01*
X145550523Y-121630275D02*
X145550523Y-120630275D01*
X145550523Y-120630275D02*
X145883856Y-121344560D01*
X145883856Y-121344560D02*
X146217189Y-120630275D01*
X146217189Y-120630275D02*
X146217189Y-121630275D01*
X147121951Y-121630275D02*
X147121951Y-121106465D01*
X147121951Y-121106465D02*
X147074332Y-121011227D01*
X147074332Y-121011227D02*
X146979094Y-120963608D01*
X146979094Y-120963608D02*
X146788618Y-120963608D01*
X146788618Y-120963608D02*
X146693380Y-121011227D01*
X147121951Y-121582656D02*
X147026713Y-121630275D01*
X147026713Y-121630275D02*
X146788618Y-121630275D01*
X146788618Y-121630275D02*
X146693380Y-121582656D01*
X146693380Y-121582656D02*
X146645761Y-121487417D01*
X146645761Y-121487417D02*
X146645761Y-121392179D01*
X146645761Y-121392179D02*
X146693380Y-121296941D01*
X146693380Y-121296941D02*
X146788618Y-121249322D01*
X146788618Y-121249322D02*
X147026713Y-121249322D01*
X147026713Y-121249322D02*
X147121951Y-121201703D01*
X147598142Y-121630275D02*
X147598142Y-120963608D01*
X147598142Y-121154084D02*
X147645761Y-121058846D01*
X147645761Y-121058846D02*
X147693380Y-121011227D01*
X147693380Y-121011227D02*
X147788618Y-120963608D01*
X147788618Y-120963608D02*
X147883856Y-120963608D01*
X148217190Y-121630275D02*
X148217190Y-120963608D01*
X148217190Y-120630275D02*
X148169571Y-120677894D01*
X148169571Y-120677894D02*
X148217190Y-120725513D01*
X148217190Y-120725513D02*
X148264809Y-120677894D01*
X148264809Y-120677894D02*
X148217190Y-120630275D01*
X148217190Y-120630275D02*
X148217190Y-120725513D01*
X148836237Y-121630275D02*
X148740999Y-121582656D01*
X148740999Y-121582656D02*
X148693380Y-121535036D01*
X148693380Y-121535036D02*
X148645761Y-121439798D01*
X148645761Y-121439798D02*
X148645761Y-121154084D01*
X148645761Y-121154084D02*
X148693380Y-121058846D01*
X148693380Y-121058846D02*
X148740999Y-121011227D01*
X148740999Y-121011227D02*
X148836237Y-120963608D01*
X148836237Y-120963608D02*
X148979094Y-120963608D01*
X148979094Y-120963608D02*
X149074332Y-121011227D01*
X149074332Y-121011227D02*
X149121951Y-121058846D01*
X149121951Y-121058846D02*
X149169570Y-121154084D01*
X149169570Y-121154084D02*
X149169570Y-121439798D01*
X149169570Y-121439798D02*
X149121951Y-121535036D01*
X149121951Y-121535036D02*
X149074332Y-121582656D01*
X149074332Y-121582656D02*
X148979094Y-121630275D01*
X148979094Y-121630275D02*
X148836237Y-121630275D01*
X150883856Y-120677894D02*
X150788618Y-120630275D01*
X150788618Y-120630275D02*
X150645761Y-120630275D01*
X150645761Y-120630275D02*
X150502904Y-120677894D01*
X150502904Y-120677894D02*
X150407666Y-120773132D01*
X150407666Y-120773132D02*
X150360047Y-120868370D01*
X150360047Y-120868370D02*
X150312428Y-121058846D01*
X150312428Y-121058846D02*
X150312428Y-121201703D01*
X150312428Y-121201703D02*
X150360047Y-121392179D01*
X150360047Y-121392179D02*
X150407666Y-121487417D01*
X150407666Y-121487417D02*
X150502904Y-121582656D01*
X150502904Y-121582656D02*
X150645761Y-121630275D01*
X150645761Y-121630275D02*
X150740999Y-121630275D01*
X150740999Y-121630275D02*
X150883856Y-121582656D01*
X150883856Y-121582656D02*
X150931475Y-121535036D01*
X150931475Y-121535036D02*
X150931475Y-121201703D01*
X150931475Y-121201703D02*
X150740999Y-121201703D01*
X151502904Y-121630275D02*
X151407666Y-121582656D01*
X151407666Y-121582656D02*
X151360047Y-121535036D01*
X151360047Y-121535036D02*
X151312428Y-121439798D01*
X151312428Y-121439798D02*
X151312428Y-121154084D01*
X151312428Y-121154084D02*
X151360047Y-121058846D01*
X151360047Y-121058846D02*
X151407666Y-121011227D01*
X151407666Y-121011227D02*
X151502904Y-120963608D01*
X151502904Y-120963608D02*
X151645761Y-120963608D01*
X151645761Y-120963608D02*
X151740999Y-121011227D01*
X151740999Y-121011227D02*
X151788618Y-121058846D01*
X151788618Y-121058846D02*
X151836237Y-121154084D01*
X151836237Y-121154084D02*
X151836237Y-121439798D01*
X151836237Y-121439798D02*
X151788618Y-121535036D01*
X151788618Y-121535036D02*
X151740999Y-121582656D01*
X151740999Y-121582656D02*
X151645761Y-121630275D01*
X151645761Y-121630275D02*
X151502904Y-121630275D01*
X152645761Y-121582656D02*
X152550523Y-121630275D01*
X152550523Y-121630275D02*
X152360047Y-121630275D01*
X152360047Y-121630275D02*
X152264809Y-121582656D01*
X152264809Y-121582656D02*
X152217190Y-121487417D01*
X152217190Y-121487417D02*
X152217190Y-121106465D01*
X152217190Y-121106465D02*
X152264809Y-121011227D01*
X152264809Y-121011227D02*
X152360047Y-120963608D01*
X152360047Y-120963608D02*
X152550523Y-120963608D01*
X152550523Y-120963608D02*
X152645761Y-121011227D01*
X152645761Y-121011227D02*
X152693380Y-121106465D01*
X152693380Y-121106465D02*
X152693380Y-121201703D01*
X152693380Y-121201703D02*
X152217190Y-121296941D01*
X153550523Y-120963608D02*
X153550523Y-121773132D01*
X153550523Y-121773132D02*
X153502904Y-121868370D01*
X153502904Y-121868370D02*
X153455285Y-121915989D01*
X153455285Y-121915989D02*
X153360047Y-121963608D01*
X153360047Y-121963608D02*
X153217190Y-121963608D01*
X153217190Y-121963608D02*
X153121952Y-121915989D01*
X153550523Y-121582656D02*
X153455285Y-121630275D01*
X153455285Y-121630275D02*
X153264809Y-121630275D01*
X153264809Y-121630275D02*
X153169571Y-121582656D01*
X153169571Y-121582656D02*
X153121952Y-121535036D01*
X153121952Y-121535036D02*
X153074333Y-121439798D01*
X153074333Y-121439798D02*
X153074333Y-121154084D01*
X153074333Y-121154084D02*
X153121952Y-121058846D01*
X153121952Y-121058846D02*
X153169571Y-121011227D01*
X153169571Y-121011227D02*
X153264809Y-120963608D01*
X153264809Y-120963608D02*
X153455285Y-120963608D01*
X153455285Y-120963608D02*
X153550523Y-121011227D01*
X154407666Y-121582656D02*
X154312428Y-121630275D01*
X154312428Y-121630275D02*
X154121952Y-121630275D01*
X154121952Y-121630275D02*
X154026714Y-121582656D01*
X154026714Y-121582656D02*
X153979095Y-121487417D01*
X153979095Y-121487417D02*
X153979095Y-121106465D01*
X153979095Y-121106465D02*
X154026714Y-121011227D01*
X154026714Y-121011227D02*
X154121952Y-120963608D01*
X154121952Y-120963608D02*
X154312428Y-120963608D01*
X154312428Y-120963608D02*
X154407666Y-121011227D01*
X154407666Y-121011227D02*
X154455285Y-121106465D01*
X154455285Y-121106465D02*
X154455285Y-121201703D01*
X154455285Y-121201703D02*
X153979095Y-121296941D01*
X155026714Y-121630275D02*
X154931476Y-121582656D01*
X154931476Y-121582656D02*
X154883857Y-121487417D01*
X154883857Y-121487417D02*
X154883857Y-120630275D01*
X148502904Y-123240219D02*
X148502904Y-122573552D01*
X148502904Y-122764028D02*
X148550523Y-122668790D01*
X148550523Y-122668790D02*
X148598142Y-122621171D01*
X148598142Y-122621171D02*
X148693380Y-122573552D01*
X148693380Y-122573552D02*
X148788618Y-122573552D01*
X149502904Y-123192600D02*
X149407666Y-123240219D01*
X149407666Y-123240219D02*
X149217190Y-123240219D01*
X149217190Y-123240219D02*
X149121952Y-123192600D01*
X149121952Y-123192600D02*
X149074333Y-123097361D01*
X149074333Y-123097361D02*
X149074333Y-122716409D01*
X149074333Y-122716409D02*
X149121952Y-122621171D01*
X149121952Y-122621171D02*
X149217190Y-122573552D01*
X149217190Y-122573552D02*
X149407666Y-122573552D01*
X149407666Y-122573552D02*
X149502904Y-122621171D01*
X149502904Y-122621171D02*
X149550523Y-122716409D01*
X149550523Y-122716409D02*
X149550523Y-122811647D01*
X149550523Y-122811647D02*
X149074333Y-122906885D01*
X149883857Y-122573552D02*
X150121952Y-123240219D01*
X150121952Y-123240219D02*
X150360047Y-122573552D01*
X151455286Y-122335457D02*
X151502905Y-122287838D01*
X151502905Y-122287838D02*
X151598143Y-122240219D01*
X151598143Y-122240219D02*
X151836238Y-122240219D01*
X151836238Y-122240219D02*
X151931476Y-122287838D01*
X151931476Y-122287838D02*
X151979095Y-122335457D01*
X151979095Y-122335457D02*
X152026714Y-122430695D01*
X152026714Y-122430695D02*
X152026714Y-122525933D01*
X152026714Y-122525933D02*
X151979095Y-122668790D01*
X151979095Y-122668790D02*
X151407667Y-123240219D01*
X151407667Y-123240219D02*
X152026714Y-123240219D01*
X132803884Y-104972419D02*
X132803884Y-103972419D01*
X133375312Y-104972419D02*
X132946741Y-104400990D01*
X133375312Y-103972419D02*
X132803884Y-104543847D01*
D11*
X168156667Y-103297200D02*
X168299524Y-103344819D01*
X168299524Y-103344819D02*
X168537619Y-103344819D01*
X168537619Y-103344819D02*
X168632857Y-103297200D01*
X168632857Y-103297200D02*
X168680476Y-103249580D01*
X168680476Y-103249580D02*
X168728095Y-103154342D01*
X168728095Y-103154342D02*
X168728095Y-103059104D01*
X168728095Y-103059104D02*
X168680476Y-102963866D01*
X168680476Y-102963866D02*
X168632857Y-102916247D01*
X168632857Y-102916247D02*
X168537619Y-102868628D01*
X168537619Y-102868628D02*
X168347143Y-102821009D01*
X168347143Y-102821009D02*
X168251905Y-102773390D01*
X168251905Y-102773390D02*
X168204286Y-102725771D01*
X168204286Y-102725771D02*
X168156667Y-102630533D01*
X168156667Y-102630533D02*
X168156667Y-102535295D01*
X168156667Y-102535295D02*
X168204286Y-102440057D01*
X168204286Y-102440057D02*
X168251905Y-102392438D01*
X168251905Y-102392438D02*
X168347143Y-102344819D01*
X168347143Y-102344819D02*
X168585238Y-102344819D01*
X168585238Y-102344819D02*
X168728095Y-102392438D01*
X169061429Y-102344819D02*
X169299524Y-103344819D01*
X169299524Y-103344819D02*
X169490000Y-102630533D01*
X169490000Y-102630533D02*
X169680476Y-103344819D01*
X169680476Y-103344819D02*
X169918572Y-102344819D01*
X170251905Y-102440057D02*
X170299524Y-102392438D01*
X170299524Y-102392438D02*
X170394762Y-102344819D01*
X170394762Y-102344819D02*
X170632857Y-102344819D01*
X170632857Y-102344819D02*
X170728095Y-102392438D01*
X170728095Y-102392438D02*
X170775714Y-102440057D01*
X170775714Y-102440057D02*
X170823333Y-102535295D01*
X170823333Y-102535295D02*
X170823333Y-102630533D01*
X170823333Y-102630533D02*
X170775714Y-102773390D01*
X170775714Y-102773390D02*
X170204286Y-103344819D01*
X170204286Y-103344819D02*
X170823333Y-103344819D01*
X168704286Y-94144819D02*
X168704286Y-94954342D01*
X168704286Y-94954342D02*
X168751905Y-95049580D01*
X168751905Y-95049580D02*
X168799524Y-95097200D01*
X168799524Y-95097200D02*
X168894762Y-95144819D01*
X168894762Y-95144819D02*
X169085238Y-95144819D01*
X169085238Y-95144819D02*
X169180476Y-95097200D01*
X169180476Y-95097200D02*
X169228095Y-95049580D01*
X169228095Y-95049580D02*
X169275714Y-94954342D01*
X169275714Y-94954342D02*
X169275714Y-94144819D01*
X169751905Y-95144819D02*
X169751905Y-94144819D01*
X169751905Y-94144819D02*
X170132857Y-94144819D01*
X170132857Y-94144819D02*
X170228095Y-94192438D01*
X170228095Y-94192438D02*
X170275714Y-94240057D01*
X170275714Y-94240057D02*
X170323333Y-94335295D01*
X170323333Y-94335295D02*
X170323333Y-94478152D01*
X170323333Y-94478152D02*
X170275714Y-94573390D01*
X170275714Y-94573390D02*
X170228095Y-94621009D01*
X170228095Y-94621009D02*
X170132857Y-94668628D01*
X170132857Y-94668628D02*
X169751905Y-94668628D01*
X168156667Y-115517200D02*
X168299524Y-115564819D01*
X168299524Y-115564819D02*
X168537619Y-115564819D01*
X168537619Y-115564819D02*
X168632857Y-115517200D01*
X168632857Y-115517200D02*
X168680476Y-115469580D01*
X168680476Y-115469580D02*
X168728095Y-115374342D01*
X168728095Y-115374342D02*
X168728095Y-115279104D01*
X168728095Y-115279104D02*
X168680476Y-115183866D01*
X168680476Y-115183866D02*
X168632857Y-115136247D01*
X168632857Y-115136247D02*
X168537619Y-115088628D01*
X168537619Y-115088628D02*
X168347143Y-115041009D01*
X168347143Y-115041009D02*
X168251905Y-114993390D01*
X168251905Y-114993390D02*
X168204286Y-114945771D01*
X168204286Y-114945771D02*
X168156667Y-114850533D01*
X168156667Y-114850533D02*
X168156667Y-114755295D01*
X168156667Y-114755295D02*
X168204286Y-114660057D01*
X168204286Y-114660057D02*
X168251905Y-114612438D01*
X168251905Y-114612438D02*
X168347143Y-114564819D01*
X168347143Y-114564819D02*
X168585238Y-114564819D01*
X168585238Y-114564819D02*
X168728095Y-114612438D01*
X169061429Y-114564819D02*
X169299524Y-115564819D01*
X169299524Y-115564819D02*
X169490000Y-114850533D01*
X169490000Y-114850533D02*
X169680476Y-115564819D01*
X169680476Y-115564819D02*
X169918572Y-114564819D01*
X170728095Y-114898152D02*
X170728095Y-115564819D01*
X170490000Y-114517200D02*
X170251905Y-115231485D01*
X170251905Y-115231485D02*
X170870952Y-115231485D01*
X167609048Y-123764819D02*
X167609048Y-122764819D01*
X167609048Y-122764819D02*
X167847143Y-122764819D01*
X167847143Y-122764819D02*
X167990000Y-122812438D01*
X167990000Y-122812438D02*
X168085238Y-122907676D01*
X168085238Y-122907676D02*
X168132857Y-123002914D01*
X168132857Y-123002914D02*
X168180476Y-123193390D01*
X168180476Y-123193390D02*
X168180476Y-123336247D01*
X168180476Y-123336247D02*
X168132857Y-123526723D01*
X168132857Y-123526723D02*
X168085238Y-123621961D01*
X168085238Y-123621961D02*
X167990000Y-123717200D01*
X167990000Y-123717200D02*
X167847143Y-123764819D01*
X167847143Y-123764819D02*
X167609048Y-123764819D01*
X168799524Y-122764819D02*
X168990000Y-122764819D01*
X168990000Y-122764819D02*
X169085238Y-122812438D01*
X169085238Y-122812438D02*
X169180476Y-122907676D01*
X169180476Y-122907676D02*
X169228095Y-123098152D01*
X169228095Y-123098152D02*
X169228095Y-123431485D01*
X169228095Y-123431485D02*
X169180476Y-123621961D01*
X169180476Y-123621961D02*
X169085238Y-123717200D01*
X169085238Y-123717200D02*
X168990000Y-123764819D01*
X168990000Y-123764819D02*
X168799524Y-123764819D01*
X168799524Y-123764819D02*
X168704286Y-123717200D01*
X168704286Y-123717200D02*
X168609048Y-123621961D01*
X168609048Y-123621961D02*
X168561429Y-123431485D01*
X168561429Y-123431485D02*
X168561429Y-123098152D01*
X168561429Y-123098152D02*
X168609048Y-122907676D01*
X168609048Y-122907676D02*
X168704286Y-122812438D01*
X168704286Y-122812438D02*
X168799524Y-122764819D01*
X169561429Y-122764819D02*
X169799524Y-123764819D01*
X169799524Y-123764819D02*
X169990000Y-123050533D01*
X169990000Y-123050533D02*
X170180476Y-123764819D01*
X170180476Y-123764819D02*
X170418572Y-122764819D01*
X170799524Y-123764819D02*
X170799524Y-122764819D01*
X170799524Y-122764819D02*
X171370952Y-123764819D01*
X171370952Y-123764819D02*
X171370952Y-122764819D01*
X130961905Y-109154819D02*
X130961905Y-108154819D01*
X130961905Y-108154819D02*
X131200000Y-108154819D01*
X131200000Y-108154819D02*
X131342857Y-108202438D01*
X131342857Y-108202438D02*
X131438095Y-108297676D01*
X131438095Y-108297676D02*
X131485714Y-108392914D01*
X131485714Y-108392914D02*
X131533333Y-108583390D01*
X131533333Y-108583390D02*
X131533333Y-108726247D01*
X131533333Y-108726247D02*
X131485714Y-108916723D01*
X131485714Y-108916723D02*
X131438095Y-109011961D01*
X131438095Y-109011961D02*
X131342857Y-109107200D01*
X131342857Y-109107200D02*
X131200000Y-109154819D01*
X131200000Y-109154819D02*
X130961905Y-109154819D01*
X131914286Y-108250057D02*
X131961905Y-108202438D01*
X131961905Y-108202438D02*
X132057143Y-108154819D01*
X132057143Y-108154819D02*
X132295238Y-108154819D01*
X132295238Y-108154819D02*
X132390476Y-108202438D01*
X132390476Y-108202438D02*
X132438095Y-108250057D01*
X132438095Y-108250057D02*
X132485714Y-108345295D01*
X132485714Y-108345295D02*
X132485714Y-108440533D01*
X132485714Y-108440533D02*
X132438095Y-108583390D01*
X132438095Y-108583390D02*
X131866667Y-109154819D01*
X131866667Y-109154819D02*
X132485714Y-109154819D01*
X137123809Y-109107200D02*
X137266666Y-109154819D01*
X137266666Y-109154819D02*
X137504761Y-109154819D01*
X137504761Y-109154819D02*
X137599999Y-109107200D01*
X137599999Y-109107200D02*
X137647618Y-109059580D01*
X137647618Y-109059580D02*
X137695237Y-108964342D01*
X137695237Y-108964342D02*
X137695237Y-108869104D01*
X137695237Y-108869104D02*
X137647618Y-108773866D01*
X137647618Y-108773866D02*
X137599999Y-108726247D01*
X137599999Y-108726247D02*
X137504761Y-108678628D01*
X137504761Y-108678628D02*
X137314285Y-108631009D01*
X137314285Y-108631009D02*
X137219047Y-108583390D01*
X137219047Y-108583390D02*
X137171428Y-108535771D01*
X137171428Y-108535771D02*
X137123809Y-108440533D01*
X137123809Y-108440533D02*
X137123809Y-108345295D01*
X137123809Y-108345295D02*
X137171428Y-108250057D01*
X137171428Y-108250057D02*
X137219047Y-108202438D01*
X137219047Y-108202438D02*
X137314285Y-108154819D01*
X137314285Y-108154819D02*
X137552380Y-108154819D01*
X137552380Y-108154819D02*
X137695237Y-108202438D01*
X137980952Y-108154819D02*
X138552380Y-108154819D01*
X138266666Y-109154819D02*
X138266666Y-108154819D01*
X138838095Y-108869104D02*
X139314285Y-108869104D01*
X138742857Y-109154819D02*
X139076190Y-108154819D01*
X139076190Y-108154819D02*
X139409523Y-109154819D01*
X139600000Y-108154819D02*
X140171428Y-108154819D01*
X139885714Y-109154819D02*
X139885714Y-108154819D01*
X140504762Y-108154819D02*
X140504762Y-108964342D01*
X140504762Y-108964342D02*
X140552381Y-109059580D01*
X140552381Y-109059580D02*
X140600000Y-109107200D01*
X140600000Y-109107200D02*
X140695238Y-109154819D01*
X140695238Y-109154819D02*
X140885714Y-109154819D01*
X140885714Y-109154819D02*
X140980952Y-109107200D01*
X140980952Y-109107200D02*
X141028571Y-109059580D01*
X141028571Y-109059580D02*
X141076190Y-108964342D01*
X141076190Y-108964342D02*
X141076190Y-108154819D01*
X141504762Y-109107200D02*
X141647619Y-109154819D01*
X141647619Y-109154819D02*
X141885714Y-109154819D01*
X141885714Y-109154819D02*
X141980952Y-109107200D01*
X141980952Y-109107200D02*
X142028571Y-109059580D01*
X142028571Y-109059580D02*
X142076190Y-108964342D01*
X142076190Y-108964342D02*
X142076190Y-108869104D01*
X142076190Y-108869104D02*
X142028571Y-108773866D01*
X142028571Y-108773866D02*
X141980952Y-108726247D01*
X141980952Y-108726247D02*
X141885714Y-108678628D01*
X141885714Y-108678628D02*
X141695238Y-108631009D01*
X141695238Y-108631009D02*
X141600000Y-108583390D01*
X141600000Y-108583390D02*
X141552381Y-108535771D01*
X141552381Y-108535771D02*
X141504762Y-108440533D01*
X141504762Y-108440533D02*
X141504762Y-108345295D01*
X141504762Y-108345295D02*
X141552381Y-108250057D01*
X141552381Y-108250057D02*
X141600000Y-108202438D01*
X141600000Y-108202438D02*
X141695238Y-108154819D01*
X141695238Y-108154819D02*
X141933333Y-108154819D01*
X141933333Y-108154819D02*
X142076190Y-108202438D01*
X183396667Y-105357200D02*
X183539524Y-105404819D01*
X183539524Y-105404819D02*
X183777619Y-105404819D01*
X183777619Y-105404819D02*
X183872857Y-105357200D01*
X183872857Y-105357200D02*
X183920476Y-105309580D01*
X183920476Y-105309580D02*
X183968095Y-105214342D01*
X183968095Y-105214342D02*
X183968095Y-105119104D01*
X183968095Y-105119104D02*
X183920476Y-105023866D01*
X183920476Y-105023866D02*
X183872857Y-104976247D01*
X183872857Y-104976247D02*
X183777619Y-104928628D01*
X183777619Y-104928628D02*
X183587143Y-104881009D01*
X183587143Y-104881009D02*
X183491905Y-104833390D01*
X183491905Y-104833390D02*
X183444286Y-104785771D01*
X183444286Y-104785771D02*
X183396667Y-104690533D01*
X183396667Y-104690533D02*
X183396667Y-104595295D01*
X183396667Y-104595295D02*
X183444286Y-104500057D01*
X183444286Y-104500057D02*
X183491905Y-104452438D01*
X183491905Y-104452438D02*
X183587143Y-104404819D01*
X183587143Y-104404819D02*
X183825238Y-104404819D01*
X183825238Y-104404819D02*
X183968095Y-104452438D01*
X184301429Y-104404819D02*
X184539524Y-105404819D01*
X184539524Y-105404819D02*
X184730000Y-104690533D01*
X184730000Y-104690533D02*
X184920476Y-105404819D01*
X184920476Y-105404819D02*
X185158572Y-104404819D01*
X185444286Y-104404819D02*
X186063333Y-104404819D01*
X186063333Y-104404819D02*
X185730000Y-104785771D01*
X185730000Y-104785771D02*
X185872857Y-104785771D01*
X185872857Y-104785771D02*
X185968095Y-104833390D01*
X185968095Y-104833390D02*
X186015714Y-104881009D01*
X186015714Y-104881009D02*
X186063333Y-104976247D01*
X186063333Y-104976247D02*
X186063333Y-105214342D01*
X186063333Y-105214342D02*
X186015714Y-105309580D01*
X186015714Y-105309580D02*
X185968095Y-105357200D01*
X185968095Y-105357200D02*
X185872857Y-105404819D01*
X185872857Y-105404819D02*
X185587143Y-105404819D01*
X185587143Y-105404819D02*
X185491905Y-105357200D01*
X185491905Y-105357200D02*
X185444286Y-105309580D01*
X183396666Y-113604819D02*
X183063333Y-113128628D01*
X182825238Y-113604819D02*
X182825238Y-112604819D01*
X182825238Y-112604819D02*
X183206190Y-112604819D01*
X183206190Y-112604819D02*
X183301428Y-112652438D01*
X183301428Y-112652438D02*
X183349047Y-112700057D01*
X183349047Y-112700057D02*
X183396666Y-112795295D01*
X183396666Y-112795295D02*
X183396666Y-112938152D01*
X183396666Y-112938152D02*
X183349047Y-113033390D01*
X183349047Y-113033390D02*
X183301428Y-113081009D01*
X183301428Y-113081009D02*
X183206190Y-113128628D01*
X183206190Y-113128628D02*
X182825238Y-113128628D01*
X183825238Y-113604819D02*
X183825238Y-112604819D01*
X184825237Y-112652438D02*
X184729999Y-112604819D01*
X184729999Y-112604819D02*
X184587142Y-112604819D01*
X184587142Y-112604819D02*
X184444285Y-112652438D01*
X184444285Y-112652438D02*
X184349047Y-112747676D01*
X184349047Y-112747676D02*
X184301428Y-112842914D01*
X184301428Y-112842914D02*
X184253809Y-113033390D01*
X184253809Y-113033390D02*
X184253809Y-113176247D01*
X184253809Y-113176247D02*
X184301428Y-113366723D01*
X184301428Y-113366723D02*
X184349047Y-113461961D01*
X184349047Y-113461961D02*
X184444285Y-113557200D01*
X184444285Y-113557200D02*
X184587142Y-113604819D01*
X184587142Y-113604819D02*
X184682380Y-113604819D01*
X184682380Y-113604819D02*
X184825237Y-113557200D01*
X184825237Y-113557200D02*
X184872856Y-113509580D01*
X184872856Y-113509580D02*
X184872856Y-113176247D01*
X184872856Y-113176247D02*
X184682380Y-113176247D01*
X185301428Y-113604819D02*
X185301428Y-112604819D01*
X185301428Y-113081009D02*
X185872856Y-113081009D01*
X185872856Y-113604819D02*
X185872856Y-112604819D01*
X186206190Y-112604819D02*
X186777618Y-112604819D01*
X186491904Y-113604819D02*
X186491904Y-112604819D01*
X130961905Y-106554819D02*
X130961905Y-105554819D01*
X130961905Y-105554819D02*
X131200000Y-105554819D01*
X131200000Y-105554819D02*
X131342857Y-105602438D01*
X131342857Y-105602438D02*
X131438095Y-105697676D01*
X131438095Y-105697676D02*
X131485714Y-105792914D01*
X131485714Y-105792914D02*
X131533333Y-105983390D01*
X131533333Y-105983390D02*
X131533333Y-106126247D01*
X131533333Y-106126247D02*
X131485714Y-106316723D01*
X131485714Y-106316723D02*
X131438095Y-106411961D01*
X131438095Y-106411961D02*
X131342857Y-106507200D01*
X131342857Y-106507200D02*
X131200000Y-106554819D01*
X131200000Y-106554819D02*
X130961905Y-106554819D01*
X132485714Y-106554819D02*
X131914286Y-106554819D01*
X132200000Y-106554819D02*
X132200000Y-105554819D01*
X132200000Y-105554819D02*
X132104762Y-105697676D01*
X132104762Y-105697676D02*
X132009524Y-105792914D01*
X132009524Y-105792914D02*
X131914286Y-105840533D01*
X137166667Y-106554819D02*
X137166667Y-105554819D01*
X137166667Y-105554819D02*
X137547619Y-105554819D01*
X137547619Y-105554819D02*
X137642857Y-105602438D01*
X137642857Y-105602438D02*
X137690476Y-105650057D01*
X137690476Y-105650057D02*
X137738095Y-105745295D01*
X137738095Y-105745295D02*
X137738095Y-105888152D01*
X137738095Y-105888152D02*
X137690476Y-105983390D01*
X137690476Y-105983390D02*
X137642857Y-106031009D01*
X137642857Y-106031009D02*
X137547619Y-106078628D01*
X137547619Y-106078628D02*
X137166667Y-106078628D01*
X138071429Y-105554819D02*
X138309524Y-106554819D01*
X138309524Y-106554819D02*
X138500000Y-105840533D01*
X138500000Y-105840533D02*
X138690476Y-106554819D01*
X138690476Y-106554819D02*
X138928572Y-105554819D01*
X139880952Y-106554819D02*
X139547619Y-106078628D01*
X139309524Y-106554819D02*
X139309524Y-105554819D01*
X139309524Y-105554819D02*
X139690476Y-105554819D01*
X139690476Y-105554819D02*
X139785714Y-105602438D01*
X139785714Y-105602438D02*
X139833333Y-105650057D01*
X139833333Y-105650057D02*
X139880952Y-105745295D01*
X139880952Y-105745295D02*
X139880952Y-105888152D01*
X139880952Y-105888152D02*
X139833333Y-105983390D01*
X139833333Y-105983390D02*
X139785714Y-106031009D01*
X139785714Y-106031009D02*
X139690476Y-106078628D01*
X139690476Y-106078628D02*
X139309524Y-106078628D01*
X152916667Y-105357200D02*
X153059524Y-105404819D01*
X153059524Y-105404819D02*
X153297619Y-105404819D01*
X153297619Y-105404819D02*
X153392857Y-105357200D01*
X153392857Y-105357200D02*
X153440476Y-105309580D01*
X153440476Y-105309580D02*
X153488095Y-105214342D01*
X153488095Y-105214342D02*
X153488095Y-105119104D01*
X153488095Y-105119104D02*
X153440476Y-105023866D01*
X153440476Y-105023866D02*
X153392857Y-104976247D01*
X153392857Y-104976247D02*
X153297619Y-104928628D01*
X153297619Y-104928628D02*
X153107143Y-104881009D01*
X153107143Y-104881009D02*
X153011905Y-104833390D01*
X153011905Y-104833390D02*
X152964286Y-104785771D01*
X152964286Y-104785771D02*
X152916667Y-104690533D01*
X152916667Y-104690533D02*
X152916667Y-104595295D01*
X152916667Y-104595295D02*
X152964286Y-104500057D01*
X152964286Y-104500057D02*
X153011905Y-104452438D01*
X153011905Y-104452438D02*
X153107143Y-104404819D01*
X153107143Y-104404819D02*
X153345238Y-104404819D01*
X153345238Y-104404819D02*
X153488095Y-104452438D01*
X153821429Y-104404819D02*
X154059524Y-105404819D01*
X154059524Y-105404819D02*
X154250000Y-104690533D01*
X154250000Y-104690533D02*
X154440476Y-105404819D01*
X154440476Y-105404819D02*
X154678572Y-104404819D01*
X155583333Y-105404819D02*
X155011905Y-105404819D01*
X155297619Y-105404819D02*
X155297619Y-104404819D01*
X155297619Y-104404819D02*
X155202381Y-104547676D01*
X155202381Y-104547676D02*
X155107143Y-104642914D01*
X155107143Y-104642914D02*
X155011905Y-104690533D01*
X153297618Y-113604819D02*
X152821428Y-113604819D01*
X152821428Y-113604819D02*
X152821428Y-112604819D01*
X153630952Y-113081009D02*
X153964285Y-113081009D01*
X154107142Y-113604819D02*
X153630952Y-113604819D01*
X153630952Y-113604819D02*
X153630952Y-112604819D01*
X153630952Y-112604819D02*
X154107142Y-112604819D01*
X154869047Y-113081009D02*
X154535714Y-113081009D01*
X154535714Y-113604819D02*
X154535714Y-112604819D01*
X154535714Y-112604819D02*
X155011904Y-112604819D01*
X155250000Y-112604819D02*
X155821428Y-112604819D01*
X155535714Y-113604819D02*
X155535714Y-112604819D01*
X130961905Y-111754819D02*
X130961905Y-110754819D01*
X130961905Y-110754819D02*
X131200000Y-110754819D01*
X131200000Y-110754819D02*
X131342857Y-110802438D01*
X131342857Y-110802438D02*
X131438095Y-110897676D01*
X131438095Y-110897676D02*
X131485714Y-110992914D01*
X131485714Y-110992914D02*
X131533333Y-111183390D01*
X131533333Y-111183390D02*
X131533333Y-111326247D01*
X131533333Y-111326247D02*
X131485714Y-111516723D01*
X131485714Y-111516723D02*
X131438095Y-111611961D01*
X131438095Y-111611961D02*
X131342857Y-111707200D01*
X131342857Y-111707200D02*
X131200000Y-111754819D01*
X131200000Y-111754819D02*
X130961905Y-111754819D01*
X131866667Y-110754819D02*
X132485714Y-110754819D01*
X132485714Y-110754819D02*
X132152381Y-111135771D01*
X132152381Y-111135771D02*
X132295238Y-111135771D01*
X132295238Y-111135771D02*
X132390476Y-111183390D01*
X132390476Y-111183390D02*
X132438095Y-111231009D01*
X132438095Y-111231009D02*
X132485714Y-111326247D01*
X132485714Y-111326247D02*
X132485714Y-111564342D01*
X132485714Y-111564342D02*
X132438095Y-111659580D01*
X132438095Y-111659580D02*
X132390476Y-111707200D01*
X132390476Y-111707200D02*
X132295238Y-111754819D01*
X132295238Y-111754819D02*
X132009524Y-111754819D01*
X132009524Y-111754819D02*
X131914286Y-111707200D01*
X131914286Y-111707200D02*
X131866667Y-111659580D01*
X137061905Y-111707200D02*
X137204762Y-111754819D01*
X137204762Y-111754819D02*
X137442857Y-111754819D01*
X137442857Y-111754819D02*
X137538095Y-111707200D01*
X137538095Y-111707200D02*
X137585714Y-111659580D01*
X137585714Y-111659580D02*
X137633333Y-111564342D01*
X137633333Y-111564342D02*
X137633333Y-111469104D01*
X137633333Y-111469104D02*
X137585714Y-111373866D01*
X137585714Y-111373866D02*
X137538095Y-111326247D01*
X137538095Y-111326247D02*
X137442857Y-111278628D01*
X137442857Y-111278628D02*
X137252381Y-111231009D01*
X137252381Y-111231009D02*
X137157143Y-111183390D01*
X137157143Y-111183390D02*
X137109524Y-111135771D01*
X137109524Y-111135771D02*
X137061905Y-111040533D01*
X137061905Y-111040533D02*
X137061905Y-110945295D01*
X137061905Y-110945295D02*
X137109524Y-110850057D01*
X137109524Y-110850057D02*
X137157143Y-110802438D01*
X137157143Y-110802438D02*
X137252381Y-110754819D01*
X137252381Y-110754819D02*
X137490476Y-110754819D01*
X137490476Y-110754819D02*
X137633333Y-110802438D01*
X138252381Y-111278628D02*
X138252381Y-111754819D01*
X137919048Y-110754819D02*
X138252381Y-111278628D01*
X138252381Y-111278628D02*
X138585714Y-110754819D01*
X138919048Y-111754819D02*
X138919048Y-110754819D01*
X138919048Y-110754819D02*
X139490476Y-111754819D01*
X139490476Y-111754819D02*
X139490476Y-110754819D01*
X140538095Y-111659580D02*
X140490476Y-111707200D01*
X140490476Y-111707200D02*
X140347619Y-111754819D01*
X140347619Y-111754819D02*
X140252381Y-111754819D01*
X140252381Y-111754819D02*
X140109524Y-111707200D01*
X140109524Y-111707200D02*
X140014286Y-111611961D01*
X140014286Y-111611961D02*
X139966667Y-111516723D01*
X139966667Y-111516723D02*
X139919048Y-111326247D01*
X139919048Y-111326247D02*
X139919048Y-111183390D01*
X139919048Y-111183390D02*
X139966667Y-110992914D01*
X139966667Y-110992914D02*
X140014286Y-110897676D01*
X140014286Y-110897676D02*
X140109524Y-110802438D01*
X140109524Y-110802438D02*
X140252381Y-110754819D01*
X140252381Y-110754819D02*
X140347619Y-110754819D01*
X140347619Y-110754819D02*
X140490476Y-110802438D01*
X140490476Y-110802438D02*
X140538095Y-110850057D01*
X131557733Y-115339019D02*
X131224400Y-114862828D01*
X130986305Y-115339019D02*
X130986305Y-114339019D01*
X130986305Y-114339019D02*
X131367257Y-114339019D01*
X131367257Y-114339019D02*
X131462495Y-114386638D01*
X131462495Y-114386638D02*
X131510114Y-114434257D01*
X131510114Y-114434257D02*
X131557733Y-114529495D01*
X131557733Y-114529495D02*
X131557733Y-114672352D01*
X131557733Y-114672352D02*
X131510114Y-114767590D01*
X131510114Y-114767590D02*
X131462495Y-114815209D01*
X131462495Y-114815209D02*
X131367257Y-114862828D01*
X131367257Y-114862828D02*
X130986305Y-114862828D01*
X132510114Y-115339019D02*
X131938686Y-115339019D01*
X132224400Y-115339019D02*
X132224400Y-114339019D01*
X132224400Y-114339019D02*
X132129162Y-114481876D01*
X132129162Y-114481876D02*
X132033924Y-114577114D01*
X132033924Y-114577114D02*
X131938686Y-114624733D01*
X137220486Y-114364419D02*
X137839533Y-114364419D01*
X137839533Y-114364419D02*
X137506200Y-114745371D01*
X137506200Y-114745371D02*
X137649057Y-114745371D01*
X137649057Y-114745371D02*
X137744295Y-114792990D01*
X137744295Y-114792990D02*
X137791914Y-114840609D01*
X137791914Y-114840609D02*
X137839533Y-114935847D01*
X137839533Y-114935847D02*
X137839533Y-115173942D01*
X137839533Y-115173942D02*
X137791914Y-115269180D01*
X137791914Y-115269180D02*
X137744295Y-115316800D01*
X137744295Y-115316800D02*
X137649057Y-115364419D01*
X137649057Y-115364419D02*
X137363343Y-115364419D01*
X137363343Y-115364419D02*
X137268105Y-115316800D01*
X137268105Y-115316800D02*
X137220486Y-115269180D01*
X138172867Y-114364419D02*
X138791914Y-114364419D01*
X138791914Y-114364419D02*
X138458581Y-114745371D01*
X138458581Y-114745371D02*
X138601438Y-114745371D01*
X138601438Y-114745371D02*
X138696676Y-114792990D01*
X138696676Y-114792990D02*
X138744295Y-114840609D01*
X138744295Y-114840609D02*
X138791914Y-114935847D01*
X138791914Y-114935847D02*
X138791914Y-115173942D01*
X138791914Y-115173942D02*
X138744295Y-115269180D01*
X138744295Y-115269180D02*
X138696676Y-115316800D01*
X138696676Y-115316800D02*
X138601438Y-115364419D01*
X138601438Y-115364419D02*
X138315724Y-115364419D01*
X138315724Y-115364419D02*
X138220486Y-115316800D01*
X138220486Y-115316800D02*
X138172867Y-115269180D01*
X139410962Y-114364419D02*
X139506200Y-114364419D01*
X139506200Y-114364419D02*
X139601438Y-114412038D01*
X139601438Y-114412038D02*
X139649057Y-114459657D01*
X139649057Y-114459657D02*
X139696676Y-114554895D01*
X139696676Y-114554895D02*
X139744295Y-114745371D01*
X139744295Y-114745371D02*
X139744295Y-114983466D01*
X139744295Y-114983466D02*
X139696676Y-115173942D01*
X139696676Y-115173942D02*
X139649057Y-115269180D01*
X139649057Y-115269180D02*
X139601438Y-115316800D01*
X139601438Y-115316800D02*
X139506200Y-115364419D01*
X139506200Y-115364419D02*
X139410962Y-115364419D01*
X139410962Y-115364419D02*
X139315724Y-115316800D01*
X139315724Y-115316800D02*
X139268105Y-115269180D01*
X139268105Y-115269180D02*
X139220486Y-115173942D01*
X139220486Y-115173942D02*
X139172867Y-114983466D01*
X139172867Y-114983466D02*
X139172867Y-114745371D01*
X139172867Y-114745371D02*
X139220486Y-114554895D01*
X139220486Y-114554895D02*
X139268105Y-114459657D01*
X139268105Y-114459657D02*
X139315724Y-114412038D01*
X139315724Y-114412038D02*
X139410962Y-114364419D01*
X144132467Y-101561400D02*
X144275324Y-101609019D01*
X144275324Y-101609019D02*
X144513419Y-101609019D01*
X144513419Y-101609019D02*
X144608657Y-101561400D01*
X144608657Y-101561400D02*
X144656276Y-101513780D01*
X144656276Y-101513780D02*
X144703895Y-101418542D01*
X144703895Y-101418542D02*
X144703895Y-101323304D01*
X144703895Y-101323304D02*
X144656276Y-101228066D01*
X144656276Y-101228066D02*
X144608657Y-101180447D01*
X144608657Y-101180447D02*
X144513419Y-101132828D01*
X144513419Y-101132828D02*
X144322943Y-101085209D01*
X144322943Y-101085209D02*
X144227705Y-101037590D01*
X144227705Y-101037590D02*
X144180086Y-100989971D01*
X144180086Y-100989971D02*
X144132467Y-100894733D01*
X144132467Y-100894733D02*
X144132467Y-100799495D01*
X144132467Y-100799495D02*
X144180086Y-100704257D01*
X144180086Y-100704257D02*
X144227705Y-100656638D01*
X144227705Y-100656638D02*
X144322943Y-100609019D01*
X144322943Y-100609019D02*
X144561038Y-100609019D01*
X144561038Y-100609019D02*
X144703895Y-100656638D01*
X145037229Y-100609019D02*
X145275324Y-101609019D01*
X145275324Y-101609019D02*
X145465800Y-100894733D01*
X145465800Y-100894733D02*
X145656276Y-101609019D01*
X145656276Y-101609019D02*
X145894372Y-100609019D01*
X146751514Y-100609019D02*
X146275324Y-100609019D01*
X146275324Y-100609019D02*
X146227705Y-101085209D01*
X146227705Y-101085209D02*
X146275324Y-101037590D01*
X146275324Y-101037590D02*
X146370562Y-100989971D01*
X146370562Y-100989971D02*
X146608657Y-100989971D01*
X146608657Y-100989971D02*
X146703895Y-101037590D01*
X146703895Y-101037590D02*
X146751514Y-101085209D01*
X146751514Y-101085209D02*
X146799133Y-101180447D01*
X146799133Y-101180447D02*
X146799133Y-101418542D01*
X146799133Y-101418542D02*
X146751514Y-101513780D01*
X146751514Y-101513780D02*
X146703895Y-101561400D01*
X146703895Y-101561400D02*
X146608657Y-101609019D01*
X146608657Y-101609019D02*
X146370562Y-101609019D01*
X146370562Y-101609019D02*
X146275324Y-101561400D01*
X146275324Y-101561400D02*
X146227705Y-101513780D01*
X144918180Y-93409019D02*
X144584847Y-92932828D01*
X144346752Y-93409019D02*
X144346752Y-92409019D01*
X144346752Y-92409019D02*
X144727704Y-92409019D01*
X144727704Y-92409019D02*
X144822942Y-92456638D01*
X144822942Y-92456638D02*
X144870561Y-92504257D01*
X144870561Y-92504257D02*
X144918180Y-92599495D01*
X144918180Y-92599495D02*
X144918180Y-92742352D01*
X144918180Y-92742352D02*
X144870561Y-92837590D01*
X144870561Y-92837590D02*
X144822942Y-92885209D01*
X144822942Y-92885209D02*
X144727704Y-92932828D01*
X144727704Y-92932828D02*
X144346752Y-92932828D01*
X145299133Y-93361400D02*
X145441990Y-93409019D01*
X145441990Y-93409019D02*
X145680085Y-93409019D01*
X145680085Y-93409019D02*
X145775323Y-93361400D01*
X145775323Y-93361400D02*
X145822942Y-93313780D01*
X145822942Y-93313780D02*
X145870561Y-93218542D01*
X145870561Y-93218542D02*
X145870561Y-93123304D01*
X145870561Y-93123304D02*
X145822942Y-93028066D01*
X145822942Y-93028066D02*
X145775323Y-92980447D01*
X145775323Y-92980447D02*
X145680085Y-92932828D01*
X145680085Y-92932828D02*
X145489609Y-92885209D01*
X145489609Y-92885209D02*
X145394371Y-92837590D01*
X145394371Y-92837590D02*
X145346752Y-92789971D01*
X145346752Y-92789971D02*
X145299133Y-92694733D01*
X145299133Y-92694733D02*
X145299133Y-92599495D01*
X145299133Y-92599495D02*
X145346752Y-92504257D01*
X145346752Y-92504257D02*
X145394371Y-92456638D01*
X145394371Y-92456638D02*
X145489609Y-92409019D01*
X145489609Y-92409019D02*
X145727704Y-92409019D01*
X145727704Y-92409019D02*
X145870561Y-92456638D01*
X146156276Y-92409019D02*
X146727704Y-92409019D01*
X146441990Y-93409019D02*
X146441990Y-92409019D01*
D12*
%TO.C,SW2*%
X166260000Y-95610000D02*
X166260000Y-95640000D01*
X166260000Y-100140000D02*
X166260000Y-97540000D01*
X166260000Y-102070000D02*
X166260000Y-102040000D01*
X172720000Y-95610000D02*
X166260000Y-95610000D01*
X172720000Y-95610000D02*
X172720000Y-95640000D01*
X172720000Y-100140000D02*
X172720000Y-97540000D01*
X172720000Y-102040000D02*
X172720000Y-102070000D01*
X172720000Y-102070000D02*
X166260000Y-102070000D01*
%TO.C,SW4*%
X166260000Y-115930000D02*
X172720000Y-115930000D01*
X166260000Y-115960000D02*
X166260000Y-115930000D01*
X166260000Y-117860000D02*
X166260000Y-120460000D01*
X166260000Y-122390000D02*
X166260000Y-122360000D01*
X166260000Y-122390000D02*
X172720000Y-122390000D01*
X172720000Y-115930000D02*
X172720000Y-115960000D01*
X172720000Y-117860000D02*
X172720000Y-120460000D01*
X172720000Y-122390000D02*
X172720000Y-122360000D01*
%TO.C,D2*%
X132815000Y-107955000D02*
X132815000Y-109425000D01*
X132815000Y-109425000D02*
X135275000Y-109425000D01*
X135275000Y-107955000D02*
X132815000Y-107955000D01*
%TO.C,SW3*%
X181500000Y-105770000D02*
X187960000Y-105770000D01*
X181500000Y-105800000D02*
X181500000Y-105770000D01*
X181500000Y-107700000D02*
X181500000Y-110300000D01*
X181500000Y-112230000D02*
X181500000Y-112200000D01*
X181500000Y-112230000D02*
X187960000Y-112230000D01*
X187960000Y-105770000D02*
X187960000Y-105800000D01*
X187960000Y-107700000D02*
X187960000Y-110300000D01*
X187960000Y-112230000D02*
X187960000Y-112200000D01*
%TO.C,D1*%
X132815000Y-105365000D02*
X132815000Y-106835000D01*
X132815000Y-106835000D02*
X135275000Y-106835000D01*
X135275000Y-105365000D02*
X132815000Y-105365000D01*
%TO.C,SW1*%
X151020000Y-105770000D02*
X157480000Y-105770000D01*
X151020000Y-105800000D02*
X151020000Y-105770000D01*
X151020000Y-107700000D02*
X151020000Y-110300000D01*
X151020000Y-112230000D02*
X151020000Y-112200000D01*
X151020000Y-112230000D02*
X157480000Y-112230000D01*
X157480000Y-105770000D02*
X157480000Y-105800000D01*
X157480000Y-107700000D02*
X157480000Y-110300000D01*
X157480000Y-112230000D02*
X157480000Y-112200000D01*
%TO.C,D3*%
X132815000Y-110565000D02*
X132815000Y-112035000D01*
X132815000Y-112035000D02*
X135275000Y-112035000D01*
X135275000Y-110565000D02*
X132815000Y-110565000D01*
%TO.C,R1*%
X134694664Y-114149200D02*
X134240536Y-114149200D01*
X134694664Y-115619200D02*
X134240536Y-115619200D01*
%TO.C,SW5*%
X142235800Y-93874200D02*
X142235800Y-93904200D01*
X142235800Y-98404200D02*
X142235800Y-95804200D01*
X142235800Y-100334200D02*
X142235800Y-100304200D01*
X148695800Y-93874200D02*
X142235800Y-93874200D01*
X148695800Y-93874200D02*
X148695800Y-93904200D01*
X148695800Y-98404200D02*
X148695800Y-95804200D01*
X148695800Y-100304200D02*
X148695800Y-100334200D01*
X148695800Y-100334200D02*
X142235800Y-100334200D01*
%TD*%
M02*
