%TF.GenerationSoftware,KiCad,Pcbnew,8.0.4*%
%TF.CreationDate,2024-08-04T15:04:20+02:00*%
%TF.ProjectId,pc1715-esp32vga,70633137-3135-42d6-9573-703332766761,2*%
%TF.SameCoordinates,Original*%
%TF.FileFunction,Copper,L2,Bot*%
%TF.FilePolarity,Positive*%
%FSLAX46Y46*%
G04 Gerber Fmt 4.6, Leading zero omitted, Abs format (unit mm)*
G04 Created by KiCad (PCBNEW 8.0.4) date 2024-08-04 15:04:20*
%MOMM*%
%LPD*%
G01*
G04 APERTURE LIST*
G04 Aperture macros list*
%AMRoundRect*
0 Rectangle with rounded corners*
0 $1 Rounding radius*
0 $2 $3 $4 $5 $6 $7 $8 $9 X,Y pos of 4 corners*
0 Add a 4 corners polygon primitive as box body*
4,1,4,$2,$3,$4,$5,$6,$7,$8,$9,$2,$3,0*
0 Add four circle primitives for the rounded corners*
1,1,$1+$1,$2,$3*
1,1,$1+$1,$4,$5*
1,1,$1+$1,$6,$7*
1,1,$1+$1,$8,$9*
0 Add four rect primitives between the rounded corners*
20,1,$1+$1,$2,$3,$4,$5,0*
20,1,$1+$1,$4,$5,$6,$7,0*
20,1,$1+$1,$6,$7,$8,$9,0*
20,1,$1+$1,$8,$9,$2,$3,0*%
G04 Aperture macros list end*
%TA.AperFunction,ComponentPad*%
%ADD10O,1.000000X2.100000*%
%TD*%
%TA.AperFunction,ComponentPad*%
%ADD11O,1.000000X1.800000*%
%TD*%
%TA.AperFunction,ComponentPad*%
%ADD12R,1.700000X1.700000*%
%TD*%
%TA.AperFunction,ComponentPad*%
%ADD13O,1.700000X1.700000*%
%TD*%
%TA.AperFunction,ComponentPad*%
%ADD14C,5.700000*%
%TD*%
%TA.AperFunction,ComponentPad*%
%ADD15RoundRect,0.250000X0.600000X-0.600000X0.600000X0.600000X-0.600000X0.600000X-0.600000X-0.600000X0*%
%TD*%
%TA.AperFunction,ComponentPad*%
%ADD16C,1.700000*%
%TD*%
%TA.AperFunction,ComponentPad*%
%ADD17R,1.600000X1.600000*%
%TD*%
%TA.AperFunction,ComponentPad*%
%ADD18C,1.600000*%
%TD*%
%TA.AperFunction,ComponentPad*%
%ADD19C,4.000000*%
%TD*%
%TA.AperFunction,ComponentPad*%
%ADD20R,1.785000X1.785000*%
%TD*%
%TA.AperFunction,ComponentPad*%
%ADD21C,1.785000*%
%TD*%
%TA.AperFunction,ComponentPad*%
%ADD22C,4.196000*%
%TD*%
%TA.AperFunction,SMDPad,CuDef*%
%ADD23RoundRect,0.250000X0.350000X0.450000X-0.350000X0.450000X-0.350000X-0.450000X0.350000X-0.450000X0*%
%TD*%
%TA.AperFunction,SMDPad,CuDef*%
%ADD24RoundRect,0.250000X-0.350000X-0.450000X0.350000X-0.450000X0.350000X0.450000X-0.350000X0.450000X0*%
%TD*%
%TA.AperFunction,SMDPad,CuDef*%
%ADD25RoundRect,0.250000X-0.450000X0.350000X-0.450000X-0.350000X0.450000X-0.350000X0.450000X0.350000X0*%
%TD*%
%TA.AperFunction,SMDPad,CuDef*%
%ADD26RoundRect,0.375000X0.375000X-0.625000X0.375000X0.625000X-0.375000X0.625000X-0.375000X-0.625000X0*%
%TD*%
%TA.AperFunction,SMDPad,CuDef*%
%ADD27RoundRect,0.500000X1.400000X-0.500000X1.400000X0.500000X-1.400000X0.500000X-1.400000X-0.500000X0*%
%TD*%
%TA.AperFunction,SMDPad,CuDef*%
%ADD28RoundRect,0.150000X-0.587500X-0.150000X0.587500X-0.150000X0.587500X0.150000X-0.587500X0.150000X0*%
%TD*%
%TA.AperFunction,ViaPad*%
%ADD29C,0.800000*%
%TD*%
%TA.AperFunction,Conductor*%
%ADD30C,0.250000*%
%TD*%
%TA.AperFunction,Conductor*%
%ADD31C,0.700000*%
%TD*%
%TA.AperFunction,Conductor*%
%ADD32C,0.750000*%
%TD*%
%TA.AperFunction,Conductor*%
%ADD33C,0.500000*%
%TD*%
%TA.AperFunction,Conductor*%
%ADD34C,0.200000*%
%TD*%
G04 APERTURE END LIST*
D10*
%TO.P,J6,S1,SHIELD*%
%TO.N,GND*%
X116786000Y-106742000D03*
D11*
X116786000Y-102562000D03*
D10*
X108146000Y-106742000D03*
D11*
X108146000Y-102562000D03*
%TD*%
D12*
%TO.P,J7,1,Pin_1*%
%TO.N,/TP_SPI*%
X160300000Y-134100000D03*
D13*
%TO.P,J7,2,Pin_2*%
%TO.N,/TP_CPY*%
X157760000Y-134100000D03*
%TO.P,J7,3,Pin_3*%
%TO.N,/TP_11*%
X155220000Y-134100000D03*
%TO.P,J7,4,Pin_4*%
%TO.N,/TP_12*%
X152680000Y-134100000D03*
%TO.P,J7,5,Pin_5*%
%TO.N,/INTENS*%
X150140000Y-134100000D03*
%TO.P,J7,6,Pin_6*%
%TO.N,/VIDEO*%
X147600000Y-134100000D03*
%TO.P,J7,7,Pin_7*%
%TO.N,/BSYNC*%
X145060000Y-134100000D03*
%TD*%
D14*
%TO.P,H1003,1*%
%TO.N,N/C*%
X166000000Y-106000000D03*
%TD*%
D15*
%TO.P,J1,1,Pin_1*%
%TO.N,/5V_VID*%
X107672500Y-132000000D03*
D16*
%TO.P,J1,2,Pin_2*%
X107672500Y-129460000D03*
%TO.P,J1,3,Pin_3*%
%TO.N,+3.3V*%
X110212500Y-132000000D03*
%TO.P,J1,4,Pin_4*%
%TO.N,/VIDEO*%
X110212500Y-129460000D03*
%TO.P,J1,5,Pin_5*%
%TO.N,GND*%
X112752500Y-132000000D03*
%TO.P,J1,6,Pin_6*%
%TO.N,/INTENS*%
X112752500Y-129460000D03*
%TO.P,J1,7,Pin_7*%
%TO.N,GND*%
X115292500Y-132000000D03*
%TO.P,J1,8,Pin_8*%
X115292500Y-129460000D03*
%TO.P,J1,9,Pin_9*%
X117832500Y-132000000D03*
%TO.P,J1,10,Pin_10*%
%TO.N,/BSYNC*%
X117832500Y-129460000D03*
%TD*%
D14*
%TO.P,H1001,1*%
%TO.N,N/C*%
X66000000Y-106000000D03*
%TD*%
D17*
%TO.P,J3,1,VBUS*%
%TO.N,/VBUS*%
X111214000Y-115445500D03*
D18*
%TO.P,J3,2,D-*%
%TO.N,/USB_DN*%
X113714000Y-115445500D03*
%TO.P,J3,3,D+*%
%TO.N,/USB_DP*%
X113714000Y-113445500D03*
%TO.P,J3,4,GND*%
%TO.N,GND*%
X111214000Y-113445500D03*
D19*
%TO.P,J3,5,Shield*%
X106464000Y-110585500D03*
X118464000Y-110585500D03*
%TD*%
D14*
%TO.P,H1002,1*%
%TO.N,N/C*%
X66000000Y-131000000D03*
%TD*%
%TO.P,H1004,1*%
%TO.N,N/C*%
X166000000Y-131000000D03*
%TD*%
D15*
%TO.P,J5,1,Pin_1*%
%TO.N,/RED*%
X76380000Y-132040000D03*
D16*
%TO.P,J5,2,Pin_2*%
%TO.N,/GREEN*%
X76380000Y-129500000D03*
%TO.P,J5,3,Pin_3*%
%TO.N,/BLUE*%
X78920000Y-132040000D03*
%TO.P,J5,4,Pin_4*%
%TO.N,unconnected-(J5-Pin_4-Pad4)*%
X78920000Y-129500000D03*
%TO.P,J5,5,Pin_5*%
%TO.N,GND*%
X81460000Y-132040000D03*
%TO.P,J5,6,Pin_6*%
X81460000Y-129500000D03*
%TO.P,J5,7,Pin_7*%
X84000000Y-132040000D03*
%TO.P,J5,8,Pin_8*%
X84000000Y-129500000D03*
%TO.P,J5,9,Pin_9*%
X86540000Y-132040000D03*
%TO.P,J5,10,Pin_10*%
X86540000Y-129500000D03*
%TO.P,J5,11,Pin_11*%
%TO.N,unconnected-(J5-Pin_11-Pad11)*%
X89080000Y-132040000D03*
%TO.P,J5,12,Pin_12*%
%TO.N,unconnected-(J5-Pin_12-Pad12)*%
X89080000Y-129500000D03*
%TO.P,J5,13,Pin_13*%
%TO.N,/HSYNC*%
X91620000Y-132040000D03*
%TO.P,J5,14,Pin_14*%
%TO.N,/VSYNC*%
X91620000Y-129500000D03*
%TO.P,J5,15,Pin_15*%
%TO.N,unconnected-(J5-Pin_15-Pad15)*%
X94160000Y-132040000D03*
%TO.P,J5,16,Pin_16*%
%TO.N,unconnected-(J5-Pin_16-Pad16)*%
X94160000Y-129500000D03*
%TD*%
D20*
%TO.P,J2,1*%
%TO.N,/RED*%
X81685000Y-114040000D03*
D21*
%TO.P,J2,2*%
%TO.N,/GREEN*%
X83965000Y-114040000D03*
%TO.P,J2,3*%
%TO.N,/BLUE*%
X86245000Y-114040000D03*
%TO.P,J2,4*%
%TO.N,unconnected-(J2-Pad4)*%
X88525000Y-114040000D03*
%TO.P,J2,5*%
%TO.N,GND*%
X90805000Y-114040000D03*
%TO.P,J2,6*%
X80545000Y-111500000D03*
%TO.P,J2,7*%
X82825000Y-111500000D03*
%TO.P,J2,8*%
X85105000Y-111500000D03*
%TO.P,J2,9*%
%TO.N,unconnected-(J2-Pad9)*%
X87385000Y-111500000D03*
%TO.P,J2,10*%
%TO.N,GND*%
X89665000Y-111500000D03*
%TO.P,J2,11*%
%TO.N,unconnected-(J2-Pad11)*%
X81685000Y-108960000D03*
%TO.P,J2,12*%
%TO.N,unconnected-(J2-Pad12)*%
X83965000Y-108960000D03*
%TO.P,J2,13*%
%TO.N,/HSYNC*%
X86245000Y-108960000D03*
%TO.P,J2,14*%
%TO.N,/VSYNC*%
X88525000Y-108960000D03*
%TO.P,J2,15*%
%TO.N,unconnected-(J2-Pad15)*%
X90805000Y-108960000D03*
D22*
%TO.P,J2,SH1*%
%TO.N,N/C*%
X98500000Y-111500000D03*
%TO.P,J2,SH2*%
X73500000Y-111500000D03*
%TD*%
D12*
%TO.P,JP1,1,A*%
%TO.N,Net-(JP1-A)*%
X160978000Y-105356000D03*
D13*
%TO.P,JP1,2,B*%
%TO.N,+3.3V*%
X160978000Y-102816000D03*
%TD*%
D23*
%TO.P,R8,1*%
%TO.N,/G2*%
X136086000Y-109110000D03*
%TO.P,R8,2*%
%TO.N,/GREEN*%
X134086000Y-109110000D03*
%TD*%
%TO.P,R6,1*%
%TO.N,/B2*%
X136086000Y-105610000D03*
%TO.P,R6,2*%
%TO.N,/BLUE*%
X134086000Y-105610000D03*
%TD*%
%TO.P,R1,1*%
%TO.N,Net-(U2-EN)*%
X138380000Y-130775000D03*
%TO.P,R1,2*%
%TO.N,+3.3V*%
X136380000Y-130775000D03*
%TD*%
D24*
%TO.P,R9,1*%
%TO.N,/R1*%
X143960000Y-112610000D03*
%TO.P,R9,2*%
%TO.N,/RED*%
X145960000Y-112610000D03*
%TD*%
D25*
%TO.P,R13,1*%
%TO.N,+3.3V*%
X116274000Y-122914000D03*
%TO.P,R13,2*%
%TO.N,/BSYNC*%
X116274000Y-124914000D03*
%TD*%
D26*
%TO.P,U1,1,GND*%
%TO.N,GND*%
X128950500Y-111591500D03*
%TO.P,U1,2,VO*%
%TO.N,+3.3V*%
X126650500Y-111591500D03*
D27*
X126650500Y-105291500D03*
D26*
%TO.P,U1,3,VI*%
%TO.N,+5V*%
X124350500Y-111591500D03*
%TD*%
D24*
%TO.P,R7,1*%
%TO.N,/G1*%
X144010000Y-109110000D03*
%TO.P,R7,2*%
%TO.N,/GREEN*%
X146010000Y-109110000D03*
%TD*%
%TO.P,R5,1*%
%TO.N,/B1*%
X144010000Y-105610000D03*
%TO.P,R5,2*%
%TO.N,/BLUE*%
X146010000Y-105610000D03*
%TD*%
D25*
%TO.P,R12,1*%
%TO.N,+3.3V*%
X114086000Y-122914000D03*
%TO.P,R12,2*%
%TO.N,/INTENS*%
X114086000Y-124914000D03*
%TD*%
D23*
%TO.P,R4,1*%
%TO.N,GND*%
X129825000Y-131160000D03*
%TO.P,R4,2*%
%TO.N,Net-(D4-K)*%
X127825000Y-131160000D03*
%TD*%
%TO.P,R3,1*%
%TO.N,GND*%
X129825000Y-133700000D03*
%TO.P,R3,2*%
%TO.N,Net-(D3-K)*%
X127825000Y-133700000D03*
%TD*%
%TO.P,R10,1*%
%TO.N,/R2*%
X136086000Y-112610000D03*
%TO.P,R10,2*%
%TO.N,/RED*%
X134086000Y-112610000D03*
%TD*%
D28*
%TO.P,D1,1*%
%TO.N,/5V_VID*%
X105001000Y-116466000D03*
%TO.P,D1,2*%
%TO.N,/VBUS*%
X105001000Y-114566000D03*
%TO.P,D1,3*%
%TO.N,+5V*%
X106876000Y-115516000D03*
%TD*%
D23*
%TO.P,R2,1*%
%TO.N,GND*%
X129841000Y-128620000D03*
%TO.P,R2,2*%
%TO.N,Net-(D2-K)*%
X127841000Y-128620000D03*
%TD*%
D25*
%TO.P,R11,1*%
%TO.N,+3.3V*%
X111956000Y-122898000D03*
%TO.P,R11,2*%
%TO.N,/VIDEO*%
X111956000Y-124898000D03*
%TD*%
D12*
%TO.P,J4,1,Pin_1*%
%TO.N,/K_RIGHT*%
X161600000Y-113300000D03*
D13*
%TO.P,J4,2,Pin_2*%
%TO.N,/K_DOWN*%
X161600000Y-115840000D03*
%TO.P,J4,3,Pin_3*%
%TO.N,GND*%
X161600000Y-118380000D03*
%TO.P,J4,4,Pin_4*%
%TO.N,/K_UP*%
X161600000Y-120920000D03*
%TO.P,J4,5,Pin_5*%
%TO.N,/K_LEFT*%
X161600000Y-123460000D03*
%TD*%
D29*
%TO.N,/RED*%
X132530000Y-112468000D03*
X81685000Y-118310000D03*
%TO.N,/GREEN*%
X132530000Y-109166000D03*
X83965000Y-117548000D03*
%TO.N,/BLUE*%
X132530000Y-105610000D03*
X86245000Y-116786000D03*
%TO.N,/VBUS*%
X110100000Y-108500000D03*
%TO.N,GND*%
X100526000Y-131518000D03*
X139300000Y-124600000D03*
X148278000Y-105864000D03*
X115200000Y-108500000D03*
X102558000Y-117040000D03*
X147600000Y-122100000D03*
X130244000Y-113992000D03*
X109600000Y-120500000D03*
X127196000Y-109420000D03*
X76396000Y-104086000D03*
X145300000Y-122100000D03*
X134600000Y-136000000D03*
X124200000Y-120500000D03*
X142000000Y-101500000D03*
X161900000Y-130400000D03*
X68776000Y-120342000D03*
X73094000Y-131518000D03*
X134600000Y-131900000D03*
X161900000Y-111000000D03*
X68776000Y-112468000D03*
X85300000Y-120500000D03*
X122300000Y-128700000D03*
X124200000Y-124600000D03*
X142400000Y-131900000D03*
X127704000Y-109928000D03*
X132500000Y-103700000D03*
X134600000Y-120500000D03*
X89400000Y-120500000D03*
X144468000Y-115516000D03*
X152200000Y-114700000D03*
X124100000Y-136000000D03*
X152500000Y-127800000D03*
X156000000Y-101500000D03*
X152088000Y-104086000D03*
X112600000Y-101900000D03*
X82900000Y-120500000D03*
X134600000Y-117800000D03*
X106800000Y-106400000D03*
X124200000Y-126500000D03*
X124200000Y-117800000D03*
X143000000Y-122100000D03*
X156406000Y-122120000D03*
X134600000Y-129500000D03*
%TO.N,+3.3V*%
X142000000Y-102800000D03*
X126942000Y-113484000D03*
X126688000Y-102308000D03*
X132100000Y-129600000D03*
%TO.N,+5V*%
X124148000Y-113484000D03*
%TO.N,/HSYNC*%
X97478000Y-106626000D03*
X92906000Y-106626000D03*
%TO.N,/VSYNC*%
X97230049Y-105616049D03*
%TO.N,/USB_DN*%
X113200000Y-108500000D03*
%TO.N,/B1*%
X142436000Y-105610000D03*
%TO.N,/B2*%
X138372000Y-106626000D03*
%TO.N,/G1*%
X142436000Y-108912000D03*
%TO.N,/G2*%
X138372000Y-109166000D03*
%TO.N,/R1*%
X142436000Y-112468000D03*
%TO.N,/R2*%
X138372000Y-110690000D03*
%TO.N,/TP_11*%
X147100000Y-118000000D03*
%TO.N,/USB_DP*%
X111800000Y-108500000D03*
%TO.N,/VIDEO*%
X153500000Y-117500000D03*
X153000000Y-125500000D03*
X147600000Y-125500000D03*
%TO.N,/INTENS*%
X154000000Y-124500000D03*
X154500000Y-118000000D03*
%TO.N,/BSYNC*%
X152175000Y-117325000D03*
X145060000Y-128400000D03*
X145100000Y-124600000D03*
X151725000Y-124500000D03*
%TO.N,Net-(D3-A)*%
X144100000Y-131900000D03*
X144100000Y-117800000D03*
%TO.N,/TP_CPY*%
X151300000Y-131300000D03*
X151000000Y-117000000D03*
%TO.N,/TP_SPI*%
X151000000Y-132300000D03*
X149500000Y-117000000D03*
%TO.N,Net-(D3-K)*%
X126100000Y-133700000D03*
%TO.N,Net-(D4-A)*%
X155100000Y-127800000D03*
X156369000Y-108000000D03*
%TO.N,Net-(D4-K)*%
X126100000Y-131100000D03*
%TO.N,/TP_12*%
X148400000Y-118000000D03*
%TO.N,Net-(D2-K)*%
X126100000Y-128600000D03*
%TO.N,Net-(JP1-A)*%
X155644000Y-105356000D03*
%TO.N,Net-(U2-EN)*%
X144100000Y-116700000D03*
X139400000Y-134800000D03*
X139600000Y-126800000D03*
%TD*%
D30*
%TO.N,/RED*%
X135111000Y-113635000D02*
X134086000Y-112610000D01*
X132530000Y-112468000D02*
X133944000Y-112468000D01*
X75205000Y-130865000D02*
X75205000Y-129013299D01*
X145960000Y-112610000D02*
X144935000Y-113635000D01*
X144935000Y-113635000D02*
X135111000Y-113635000D01*
X81685000Y-122533299D02*
X81685000Y-118310000D01*
X76380000Y-132040000D02*
X75205000Y-130865000D01*
X133944000Y-112468000D02*
X134086000Y-112610000D01*
X75205000Y-129013299D02*
X81685000Y-122533299D01*
X81685000Y-118310000D02*
X81685000Y-114040000D01*
%TO.N,/GREEN*%
X83965000Y-121915000D02*
X83965000Y-114040000D01*
X134030000Y-109166000D02*
X134086000Y-109110000D01*
X135111000Y-108085000D02*
X134086000Y-109110000D01*
X146010000Y-109110000D02*
X144985000Y-108085000D01*
X144985000Y-108085000D02*
X135111000Y-108085000D01*
X132530000Y-109166000D02*
X134030000Y-109166000D01*
X76380000Y-129500000D02*
X83965000Y-121915000D01*
%TO.N,/BLUE*%
X132530000Y-105610000D02*
X134086000Y-105610000D01*
X80095000Y-130865000D02*
X80095000Y-129203299D01*
X135111000Y-104585000D02*
X134086000Y-105610000D01*
X78920000Y-132040000D02*
X80095000Y-130865000D01*
X86245000Y-116786000D02*
X86245000Y-114040000D01*
X86500000Y-114295000D02*
X86245000Y-114040000D01*
X86245000Y-123053299D02*
X86245000Y-116786000D01*
X146010000Y-105610000D02*
X144985000Y-104585000D01*
X80095000Y-129203299D02*
X86245000Y-123053299D01*
X144985000Y-104585000D02*
X135111000Y-104585000D01*
%TO.N,/VBUS*%
X110089000Y-114320500D02*
X110089000Y-108511000D01*
X110089000Y-108511000D02*
X110100000Y-108500000D01*
X111214000Y-115445500D02*
X110089000Y-114320500D01*
X105001000Y-114566000D02*
X110334500Y-114566000D01*
X110334500Y-114566000D02*
X111214000Y-115445500D01*
%TO.N,GND*%
X89665000Y-112900000D02*
X90805000Y-114040000D01*
X86322500Y-110282500D02*
X88447500Y-110282500D01*
D31*
X127704000Y-109928000D02*
X128950500Y-111174500D01*
D30*
X80545000Y-111500000D02*
X82825000Y-111500000D01*
D31*
X128950500Y-112698500D02*
X130244000Y-113992000D01*
D30*
X88447500Y-110282500D02*
X89665000Y-111500000D01*
D31*
X127196000Y-109420000D02*
X127704000Y-109928000D01*
D30*
X85105000Y-111500000D02*
X86322500Y-110282500D01*
D31*
X128950500Y-111174500D02*
X128950500Y-111591500D01*
D30*
X82825000Y-111500000D02*
X85105000Y-111500000D01*
D31*
X128950500Y-111591500D02*
X128950500Y-112698500D01*
D30*
X89665000Y-111500000D02*
X89665000Y-112900000D01*
%TO.N,+3.3V*%
X109037500Y-125816500D02*
X111956000Y-122898000D01*
X109037500Y-130825000D02*
X109037500Y-125816500D01*
X133275000Y-130775000D02*
X132100000Y-129600000D01*
X136380000Y-130775000D02*
X135875000Y-130775000D01*
D32*
X126650500Y-105291500D02*
X125650500Y-106291500D01*
D30*
X135875000Y-130775000D02*
X133275000Y-130775000D01*
D33*
X111956000Y-122898000D02*
X114070000Y-122898000D01*
D30*
X160978000Y-102816000D02*
X142016000Y-102816000D01*
X126650500Y-111591500D02*
X126650500Y-113192500D01*
D33*
X126650500Y-102345500D02*
X126688000Y-102308000D01*
X114070000Y-122898000D02*
X114086000Y-122914000D01*
X126186000Y-122914000D02*
X126942000Y-122158000D01*
D32*
X125650500Y-106291500D02*
X125650500Y-110591500D01*
D30*
X110212500Y-132000000D02*
X109037500Y-130825000D01*
X142016000Y-102816000D02*
X142000000Y-102800000D01*
D33*
X126650500Y-105291500D02*
X126650500Y-102345500D01*
X116274000Y-122914000D02*
X126186000Y-122914000D01*
D32*
X125650500Y-110591500D02*
X126650500Y-111591500D01*
D30*
X126650500Y-113192500D02*
X126942000Y-113484000D01*
D33*
X126942000Y-122158000D02*
X126942000Y-113484000D01*
X114086000Y-122914000D02*
X116274000Y-122914000D01*
%TO.N,+5V*%
X106876000Y-115516000D02*
X108055500Y-116695500D01*
X124148000Y-115847500D02*
X123300000Y-116695500D01*
X124148000Y-113484000D02*
X124148000Y-115847500D01*
X124350500Y-113281500D02*
X124148000Y-113484000D01*
X124350500Y-111591500D02*
X124350500Y-113281500D01*
X108055500Y-116695500D02*
X123300000Y-116695500D01*
D30*
%TO.N,/HSYNC*%
X97478000Y-106626000D02*
X92906000Y-106626000D01*
X92795000Y-106737000D02*
X92906000Y-106626000D01*
X92795000Y-130865000D02*
X92795000Y-106737000D01*
X91620000Y-132040000D02*
X92795000Y-130865000D01*
%TO.N,/VSYNC*%
X92181000Y-105833049D02*
X92398000Y-105616049D01*
X92398000Y-105616049D02*
X89851951Y-105616049D01*
X88525000Y-106943000D02*
X88525000Y-107134000D01*
X92181000Y-128939000D02*
X92181000Y-105833049D01*
X88525000Y-107134000D02*
X88525000Y-108960000D01*
X91620000Y-129500000D02*
X92181000Y-128939000D01*
X88960000Y-108960000D02*
X88525000Y-108960000D01*
X97230049Y-105616049D02*
X92398000Y-105616049D01*
X89851951Y-105616049D02*
X88525000Y-106943000D01*
D34*
%TO.N,/USB_DN*%
X113324135Y-111500000D02*
X113200000Y-111375865D01*
X113714000Y-115445500D02*
X114814000Y-114345500D01*
X114814000Y-114345500D02*
X114814000Y-112989865D01*
X114814000Y-112989865D02*
X113324135Y-111500000D01*
X113200000Y-111375865D02*
X113200000Y-108500000D01*
D30*
%TO.N,/B1*%
X142436000Y-105610000D02*
X144010000Y-105610000D01*
%TO.N,/B2*%
X137864000Y-106626000D02*
X136848000Y-105610000D01*
X138372000Y-106626000D02*
X137864000Y-106626000D01*
X136848000Y-105610000D02*
X136086000Y-105610000D01*
%TO.N,/G1*%
X142436000Y-108912000D02*
X143812000Y-108912000D01*
X143812000Y-108912000D02*
X144010000Y-109110000D01*
%TO.N,/G2*%
X138372000Y-109166000D02*
X136142000Y-109166000D01*
X136142000Y-109166000D02*
X136086000Y-109110000D01*
%TO.N,/R1*%
X142436000Y-112468000D02*
X143818000Y-112468000D01*
X143818000Y-112468000D02*
X143960000Y-112610000D01*
%TO.N,/R2*%
X138372000Y-110690000D02*
X137864000Y-111198000D01*
X137864000Y-111198000D02*
X137498000Y-111198000D01*
X137498000Y-111198000D02*
X136086000Y-112610000D01*
%TO.N,/5V_VID*%
X107672500Y-129460000D02*
X107672500Y-119137500D01*
X107672500Y-119137500D02*
X105001000Y-116466000D01*
%TO.N,/TP_11*%
X147100000Y-118000000D02*
X146425000Y-118675000D01*
X154300000Y-136400000D02*
X155220000Y-135480000D01*
X146425000Y-135825000D02*
X147000000Y-136400000D01*
X155220000Y-135480000D02*
X155220000Y-134100000D01*
X146425000Y-118675000D02*
X146425000Y-135825000D01*
X147000000Y-136400000D02*
X154300000Y-136400000D01*
D34*
%TO.N,/USB_DP*%
X111800000Y-111531500D02*
X111800000Y-108500000D01*
X113714000Y-113445500D02*
X111800000Y-111531500D01*
D30*
%TO.N,/VIDEO*%
X153000000Y-125500000D02*
X153000000Y-118000000D01*
X110212500Y-129460000D02*
X110212500Y-126641500D01*
X153000000Y-118000000D02*
X153500000Y-117500000D01*
X147600000Y-134100000D02*
X147600000Y-125500000D01*
X110212500Y-126641500D02*
X111956000Y-124898000D01*
%TO.N,/INTENS*%
X112752500Y-126247500D02*
X114086000Y-124914000D01*
X112752500Y-129460000D02*
X112752500Y-126247500D01*
X150140000Y-134100000D02*
X150900000Y-134100000D01*
X154000000Y-124500000D02*
X154000000Y-118500000D01*
X154000000Y-118500000D02*
X154500000Y-118000000D01*
X150900000Y-134100000D02*
X154000000Y-131000000D01*
X154000000Y-131000000D02*
X154000000Y-124500000D01*
%TO.N,/BSYNC*%
X116274000Y-127901500D02*
X116274000Y-124914000D01*
X145060000Y-124640000D02*
X145100000Y-124600000D01*
X151725000Y-117775000D02*
X152175000Y-117325000D01*
X151725000Y-124500000D02*
X151725000Y-117775000D01*
X145060000Y-134100000D02*
X145060000Y-128400000D01*
X145060000Y-128400000D02*
X145060000Y-124640000D01*
X117832500Y-129460000D02*
X116274000Y-127901500D01*
%TO.N,Net-(D3-A)*%
X144100000Y-117800000D02*
X144100000Y-131900000D01*
%TO.N,/TP_CPY*%
X151300000Y-131300000D02*
X151100000Y-131300000D01*
X151000000Y-131200000D02*
X151000000Y-117000000D01*
X151100000Y-131300000D02*
X151000000Y-131200000D01*
%TO.N,/TP_SPI*%
X149500000Y-130800000D02*
X149500000Y-117000000D01*
X151000000Y-132300000D02*
X149500000Y-130800000D01*
%TO.N,Net-(D3-K)*%
X127825000Y-133700000D02*
X126100000Y-133700000D01*
%TO.N,Net-(D4-A)*%
X155225000Y-118300305D02*
X156369000Y-117156305D01*
X155100000Y-127800000D02*
X155225000Y-127675000D01*
X155225000Y-127675000D02*
X155225000Y-118300305D01*
X156369000Y-117156305D02*
X156369000Y-108000000D01*
%TO.N,Net-(D4-K)*%
X126160000Y-131160000D02*
X126100000Y-131100000D01*
X127825000Y-131160000D02*
X126160000Y-131160000D01*
%TO.N,/TP_12*%
X148775000Y-118375000D02*
X148775000Y-134475000D01*
X149900000Y-135600000D02*
X151180000Y-135600000D01*
X148775000Y-134475000D02*
X149900000Y-135600000D01*
X148400000Y-118000000D02*
X148775000Y-118375000D01*
X151180000Y-135600000D02*
X152680000Y-134100000D01*
%TO.N,Net-(D2-K)*%
X127841000Y-128620000D02*
X126120000Y-128620000D01*
X126120000Y-128620000D02*
X126100000Y-128600000D01*
%TO.N,Net-(JP1-A)*%
X155644000Y-105356000D02*
X160978000Y-105356000D01*
%TO.N,Net-(U2-EN)*%
X138380000Y-130780000D02*
X138380000Y-128020000D01*
X141900000Y-118900000D02*
X141900000Y-126500000D01*
X141900000Y-126500000D02*
X141600000Y-126800000D01*
X138380000Y-133780000D02*
X139400000Y-134800000D01*
X141600000Y-126800000D02*
X139600000Y-126800000D01*
X144100000Y-116700000D02*
X141900000Y-118900000D01*
X138380000Y-130775000D02*
X138380000Y-133780000D01*
X138380000Y-130775000D02*
X138380000Y-130780000D01*
X138380000Y-128020000D02*
X139600000Y-126800000D01*
%TD*%
%TA.AperFunction,Conductor*%
%TO.N,GND*%
G36*
X152014426Y-125379222D02*
G01*
X152070160Y-125421359D01*
X152094265Y-125486939D01*
X152094540Y-125495196D01*
X152094540Y-125499997D01*
X152094540Y-125500000D01*
X152114326Y-125688256D01*
X152114327Y-125688259D01*
X152172818Y-125868277D01*
X152172821Y-125868284D01*
X152267467Y-126032216D01*
X152394129Y-126172888D01*
X152547265Y-126284148D01*
X152547270Y-126284151D01*
X152720192Y-126361142D01*
X152720197Y-126361144D01*
X152905354Y-126400500D01*
X152905355Y-126400500D01*
X153094644Y-126400500D01*
X153094646Y-126400500D01*
X153224720Y-126372852D01*
X153294386Y-126378168D01*
X153350120Y-126420305D01*
X153374225Y-126485885D01*
X153374500Y-126494142D01*
X153374500Y-130689547D01*
X153354815Y-130756586D01*
X153338181Y-130777228D01*
X152338405Y-131777003D01*
X152277082Y-131810488D01*
X152207390Y-131805504D01*
X152151457Y-131763632D01*
X152127040Y-131698168D01*
X152132792Y-131651007D01*
X152185674Y-131488256D01*
X152205460Y-131300000D01*
X152185674Y-131111744D01*
X152127179Y-130931716D01*
X152032533Y-130767784D01*
X151905871Y-130627112D01*
X151905870Y-130627111D01*
X151752732Y-130515849D01*
X151699063Y-130491954D01*
X151645827Y-130446703D01*
X151625506Y-130379854D01*
X151625500Y-130378675D01*
X151625500Y-125524500D01*
X151645185Y-125457461D01*
X151697989Y-125411706D01*
X151749500Y-125400500D01*
X151819644Y-125400500D01*
X151819646Y-125400500D01*
X151944761Y-125373906D01*
X152014426Y-125379222D01*
G37*
%TD.AperFunction*%
%TA.AperFunction,Conductor*%
G36*
X147810975Y-118686125D02*
G01*
X147822872Y-118693771D01*
X147947270Y-118784151D01*
X148075939Y-118841439D01*
X148129173Y-118886687D01*
X148149494Y-118953536D01*
X148149500Y-118954716D01*
X148149500Y-124567990D01*
X148129815Y-124635029D01*
X148077011Y-124680784D01*
X148007853Y-124690728D01*
X147975064Y-124681269D01*
X147879807Y-124638857D01*
X147879802Y-124638855D01*
X147705424Y-124601791D01*
X147694646Y-124599500D01*
X147505354Y-124599500D01*
X147494576Y-124601791D01*
X147320197Y-124638855D01*
X147320192Y-124638857D01*
X147224936Y-124681269D01*
X147155686Y-124690554D01*
X147092409Y-124660926D01*
X147055196Y-124601791D01*
X147050500Y-124567990D01*
X147050500Y-119024500D01*
X147070185Y-118957461D01*
X147122989Y-118911706D01*
X147174500Y-118900500D01*
X147194644Y-118900500D01*
X147194646Y-118900500D01*
X147379803Y-118861144D01*
X147552730Y-118784151D01*
X147677116Y-118693778D01*
X147742921Y-118670300D01*
X147810975Y-118686125D01*
G37*
%TD.AperFunction*%
%TA.AperFunction,Conductor*%
G36*
X83534075Y-129692993D02*
G01*
X83599901Y-129807007D01*
X83692993Y-129900099D01*
X83807007Y-129965925D01*
X83870590Y-129982962D01*
X83238625Y-130614925D01*
X83315031Y-130668425D01*
X83358655Y-130723002D01*
X83365848Y-130792501D01*
X83334326Y-130854855D01*
X83315029Y-130871576D01*
X83238625Y-130925072D01*
X83870590Y-131557037D01*
X83807007Y-131574075D01*
X83692993Y-131639901D01*
X83599901Y-131732993D01*
X83534075Y-131847007D01*
X83517037Y-131910590D01*
X82885072Y-131278625D01*
X82885072Y-131278626D01*
X82831574Y-131355030D01*
X82776998Y-131398655D01*
X82707499Y-131405849D01*
X82645144Y-131374326D01*
X82628424Y-131355030D01*
X82574925Y-131278626D01*
X82574925Y-131278625D01*
X81942962Y-131910589D01*
X81925925Y-131847007D01*
X81860099Y-131732993D01*
X81767007Y-131639901D01*
X81652993Y-131574075D01*
X81589408Y-131557037D01*
X82221373Y-130925073D01*
X82144969Y-130871576D01*
X82101344Y-130816999D01*
X82094150Y-130747501D01*
X82125672Y-130685146D01*
X82144968Y-130668425D01*
X82221373Y-130614925D01*
X81589410Y-129982962D01*
X81652993Y-129965925D01*
X81767007Y-129900099D01*
X81860099Y-129807007D01*
X81925925Y-129692993D01*
X81942962Y-129629410D01*
X82574925Y-130261373D01*
X82628425Y-130184968D01*
X82683002Y-130141344D01*
X82752501Y-130134151D01*
X82814855Y-130165673D01*
X82831576Y-130184969D01*
X82885073Y-130261372D01*
X83517037Y-129629409D01*
X83534075Y-129692993D01*
G37*
%TD.AperFunction*%
%TA.AperFunction,Conductor*%
G36*
X86074075Y-129692993D02*
G01*
X86139901Y-129807007D01*
X86232993Y-129900099D01*
X86347007Y-129965925D01*
X86410590Y-129982962D01*
X85778625Y-130614925D01*
X85855031Y-130668425D01*
X85898655Y-130723002D01*
X85905848Y-130792501D01*
X85874326Y-130854855D01*
X85855029Y-130871576D01*
X85778625Y-130925072D01*
X86410590Y-131557037D01*
X86347007Y-131574075D01*
X86232993Y-131639901D01*
X86139901Y-131732993D01*
X86074075Y-131847007D01*
X86057037Y-131910590D01*
X85425072Y-131278625D01*
X85425072Y-131278626D01*
X85371574Y-131355030D01*
X85316998Y-131398655D01*
X85247499Y-131405849D01*
X85185144Y-131374326D01*
X85168424Y-131355030D01*
X85114925Y-131278626D01*
X85114925Y-131278625D01*
X84482962Y-131910589D01*
X84465925Y-131847007D01*
X84400099Y-131732993D01*
X84307007Y-131639901D01*
X84192993Y-131574075D01*
X84129410Y-131557037D01*
X84761373Y-130925073D01*
X84684969Y-130871576D01*
X84641344Y-130816999D01*
X84634150Y-130747501D01*
X84665672Y-130685146D01*
X84684968Y-130668425D01*
X84761373Y-130614925D01*
X84129409Y-129982962D01*
X84192993Y-129965925D01*
X84307007Y-129900099D01*
X84400099Y-129807007D01*
X84465925Y-129692993D01*
X84482962Y-129629409D01*
X85114925Y-130261373D01*
X85168425Y-130184968D01*
X85223002Y-130141344D01*
X85292501Y-130134151D01*
X85354855Y-130165673D01*
X85371576Y-130184969D01*
X85425073Y-130261372D01*
X86057037Y-129629409D01*
X86074075Y-129692993D01*
G37*
%TD.AperFunction*%
%TA.AperFunction,Conductor*%
G36*
X87654925Y-130261373D02*
G01*
X87708119Y-130185405D01*
X87762696Y-130141781D01*
X87832195Y-130134588D01*
X87894549Y-130166110D01*
X87911269Y-130185405D01*
X87924180Y-130203844D01*
X88041505Y-130371401D01*
X88041506Y-130371402D01*
X88208597Y-130538493D01*
X88208603Y-130538498D01*
X88394158Y-130668425D01*
X88437783Y-130723002D01*
X88444977Y-130792500D01*
X88413454Y-130854855D01*
X88394158Y-130871575D01*
X88208597Y-131001505D01*
X88041505Y-131168597D01*
X87911269Y-131354595D01*
X87856692Y-131398220D01*
X87787194Y-131405414D01*
X87724839Y-131373891D01*
X87708119Y-131354595D01*
X87654925Y-131278626D01*
X87654925Y-131278625D01*
X87022962Y-131910589D01*
X87005925Y-131847007D01*
X86940099Y-131732993D01*
X86847007Y-131639901D01*
X86732993Y-131574075D01*
X86669410Y-131557037D01*
X87301373Y-130925073D01*
X87224969Y-130871576D01*
X87181344Y-130816999D01*
X87174150Y-130747501D01*
X87205672Y-130685146D01*
X87224968Y-130668425D01*
X87301373Y-130614925D01*
X86669409Y-129982962D01*
X86732993Y-129965925D01*
X86847007Y-129900099D01*
X86940099Y-129807007D01*
X87005925Y-129692993D01*
X87022962Y-129629409D01*
X87654925Y-130261373D01*
G37*
%TD.AperFunction*%
%TA.AperFunction,Conductor*%
G36*
X90250548Y-114269661D02*
G01*
X90328882Y-114405338D01*
X90439662Y-114516118D01*
X90575339Y-114594452D01*
X90598020Y-114600529D01*
X90011544Y-115187006D01*
X90011545Y-115187007D01*
X90040762Y-115209747D01*
X90040764Y-115209748D01*
X90243720Y-115319583D01*
X90243729Y-115319586D01*
X90461987Y-115394515D01*
X90689615Y-115432500D01*
X90920385Y-115432500D01*
X91148012Y-115394515D01*
X91366270Y-115319586D01*
X91366286Y-115319579D01*
X91372480Y-115316228D01*
X91440808Y-115301631D01*
X91506181Y-115326292D01*
X91547843Y-115382382D01*
X91555500Y-115425281D01*
X91555500Y-128036359D01*
X91535815Y-128103398D01*
X91483011Y-128149153D01*
X91442309Y-128159887D01*
X91384596Y-128164936D01*
X91384586Y-128164938D01*
X91156344Y-128226094D01*
X91156335Y-128226098D01*
X90942171Y-128325964D01*
X90942169Y-128325965D01*
X90748597Y-128461505D01*
X90581505Y-128628597D01*
X90451575Y-128814158D01*
X90396998Y-128857783D01*
X90327500Y-128864977D01*
X90265145Y-128833454D01*
X90248425Y-128814158D01*
X90118494Y-128628597D01*
X89951402Y-128461506D01*
X89951395Y-128461501D01*
X89757834Y-128325967D01*
X89757830Y-128325965D01*
X89727558Y-128311849D01*
X89543663Y-128226097D01*
X89543659Y-128226096D01*
X89543655Y-128226094D01*
X89315413Y-128164938D01*
X89315403Y-128164936D01*
X89080001Y-128144341D01*
X89079999Y-128144341D01*
X88844596Y-128164936D01*
X88844586Y-128164938D01*
X88616344Y-128226094D01*
X88616335Y-128226098D01*
X88402171Y-128325964D01*
X88402169Y-128325965D01*
X88208597Y-128461505D01*
X88041505Y-128628597D01*
X87911269Y-128814595D01*
X87856692Y-128858220D01*
X87787194Y-128865414D01*
X87724839Y-128833891D01*
X87708119Y-128814595D01*
X87654925Y-128738626D01*
X87654925Y-128738625D01*
X87022962Y-129370589D01*
X87005925Y-129307007D01*
X86940099Y-129192993D01*
X86847007Y-129099901D01*
X86732993Y-129034075D01*
X86669410Y-129017037D01*
X87301373Y-128385073D01*
X87301373Y-128385072D01*
X87217583Y-128326402D01*
X87217579Y-128326400D01*
X87003492Y-128226570D01*
X87003483Y-128226566D01*
X86775326Y-128165432D01*
X86775315Y-128165430D01*
X86540002Y-128144843D01*
X86539998Y-128144843D01*
X86304684Y-128165430D01*
X86304673Y-128165432D01*
X86076516Y-128226566D01*
X86076507Y-128226570D01*
X85862419Y-128326401D01*
X85778625Y-128385072D01*
X86410590Y-129017037D01*
X86347007Y-129034075D01*
X86232993Y-129099901D01*
X86139901Y-129192993D01*
X86074075Y-129307007D01*
X86057037Y-129370590D01*
X85425072Y-128738625D01*
X85425072Y-128738626D01*
X85371574Y-128815030D01*
X85316998Y-128858655D01*
X85247499Y-128865849D01*
X85185144Y-128834326D01*
X85168424Y-128815030D01*
X85114925Y-128738626D01*
X85114925Y-128738625D01*
X84482962Y-129370589D01*
X84465925Y-129307007D01*
X84400099Y-129192993D01*
X84307007Y-129099901D01*
X84192993Y-129034075D01*
X84129410Y-129017037D01*
X84761373Y-128385073D01*
X84761373Y-128385072D01*
X84677583Y-128326402D01*
X84677579Y-128326400D01*
X84463492Y-128226570D01*
X84463483Y-128226566D01*
X84235326Y-128165432D01*
X84235315Y-128165430D01*
X84000002Y-128144843D01*
X83999998Y-128144843D01*
X83764684Y-128165430D01*
X83764673Y-128165432D01*
X83536516Y-128226566D01*
X83536507Y-128226570D01*
X83322419Y-128326401D01*
X83238625Y-128385072D01*
X83870590Y-129017037D01*
X83807007Y-129034075D01*
X83692993Y-129099901D01*
X83599901Y-129192993D01*
X83534075Y-129307007D01*
X83517037Y-129370590D01*
X82885072Y-128738625D01*
X82885072Y-128738626D01*
X82831574Y-128815030D01*
X82776998Y-128858655D01*
X82707499Y-128865849D01*
X82645144Y-128834326D01*
X82628424Y-128815030D01*
X82574925Y-128738626D01*
X82574925Y-128738625D01*
X81942962Y-129370589D01*
X81925925Y-129307007D01*
X81860099Y-129192993D01*
X81767007Y-129099901D01*
X81652993Y-129034075D01*
X81589409Y-129017037D01*
X82221373Y-128385073D01*
X82221373Y-128385072D01*
X82137583Y-128326402D01*
X82137573Y-128326397D01*
X82106376Y-128311849D01*
X82053937Y-128265676D01*
X82034786Y-128198483D01*
X82055003Y-128131602D01*
X82071095Y-128111793D01*
X86730857Y-123452033D01*
X86799311Y-123349585D01*
X86846463Y-123235751D01*
X86870500Y-123114906D01*
X86870500Y-122991693D01*
X86870500Y-117484687D01*
X86890185Y-117417648D01*
X86902350Y-117401715D01*
X86928633Y-117372524D01*
X86977533Y-117318216D01*
X87072179Y-117154284D01*
X87130674Y-116974256D01*
X87150460Y-116786000D01*
X87130674Y-116597744D01*
X87072179Y-116417716D01*
X86977533Y-116253784D01*
X86943378Y-116215851D01*
X86902350Y-116170284D01*
X86872120Y-116107292D01*
X86870500Y-116087312D01*
X86870500Y-115359285D01*
X86890185Y-115292246D01*
X86935484Y-115250230D01*
X86938753Y-115248461D01*
X87009510Y-115210170D01*
X87191687Y-115068376D01*
X87293772Y-114957481D01*
X87353656Y-114921492D01*
X87423495Y-114923591D01*
X87476227Y-114957481D01*
X87558308Y-115046644D01*
X87578310Y-115068373D01*
X87578319Y-115068381D01*
X87760481Y-115210164D01*
X87760488Y-115210168D01*
X87760490Y-115210170D01*
X87963521Y-115320044D01*
X88181867Y-115395002D01*
X88409573Y-115433000D01*
X88409574Y-115433000D01*
X88640426Y-115433000D01*
X88640427Y-115433000D01*
X88868133Y-115395002D01*
X89086479Y-115320044D01*
X89289510Y-115210170D01*
X89290054Y-115209747D01*
X89351182Y-115162169D01*
X89471687Y-115068376D01*
X89628040Y-114898531D01*
X89687210Y-114807964D01*
X89703329Y-114788116D01*
X90244469Y-114246976D01*
X90250548Y-114269661D01*
G37*
%TD.AperFunction*%
%TA.AperFunction,Conductor*%
G36*
X85143495Y-114923591D02*
G01*
X85196227Y-114957481D01*
X85278308Y-115046644D01*
X85298310Y-115068373D01*
X85298319Y-115068381D01*
X85480480Y-115210163D01*
X85480482Y-115210164D01*
X85480490Y-115210170D01*
X85524676Y-115234082D01*
X85554516Y-115250230D01*
X85604107Y-115299448D01*
X85619500Y-115359285D01*
X85619500Y-116087312D01*
X85599815Y-116154351D01*
X85587650Y-116170284D01*
X85512466Y-116253784D01*
X85417821Y-116417715D01*
X85417818Y-116417722D01*
X85359327Y-116597740D01*
X85359326Y-116597744D01*
X85339540Y-116786000D01*
X85359326Y-116974256D01*
X85359327Y-116974259D01*
X85417818Y-117154277D01*
X85417821Y-117154284D01*
X85512467Y-117318216D01*
X85535704Y-117344023D01*
X85587650Y-117401715D01*
X85617880Y-117464706D01*
X85619500Y-117484687D01*
X85619500Y-122742846D01*
X85599815Y-122809885D01*
X85583181Y-122830527D01*
X79959181Y-128454526D01*
X79897858Y-128488011D01*
X79828166Y-128483027D01*
X79796044Y-128464311D01*
X79795836Y-128464610D01*
X79792264Y-128462109D01*
X79791799Y-128461838D01*
X79791404Y-128461507D01*
X79597834Y-128325967D01*
X79597830Y-128325965D01*
X79567558Y-128311849D01*
X79383663Y-128226097D01*
X79383659Y-128226096D01*
X79383655Y-128226094D01*
X79155413Y-128164938D01*
X79155403Y-128164936D01*
X78920001Y-128144341D01*
X78919610Y-128144341D01*
X78919444Y-128144292D01*
X78914606Y-128143869D01*
X78914691Y-128142896D01*
X78852571Y-128124656D01*
X78806816Y-128071852D01*
X78796872Y-128002694D01*
X78825897Y-127939138D01*
X78831929Y-127932660D01*
X81550681Y-125213908D01*
X84363729Y-122400860D01*
X84363733Y-122400858D01*
X84450858Y-122313733D01*
X84519311Y-122211286D01*
X84519312Y-122211285D01*
X84519313Y-122211282D01*
X84519315Y-122211279D01*
X84519315Y-122211277D01*
X84547259Y-122143815D01*
X84566463Y-122097451D01*
X84567143Y-122094035D01*
X84578481Y-122037029D01*
X84590500Y-121976607D01*
X84590500Y-121853393D01*
X84590500Y-118246687D01*
X84610185Y-118179648D01*
X84622350Y-118163715D01*
X84640891Y-118143122D01*
X84697533Y-118080216D01*
X84792179Y-117916284D01*
X84850674Y-117736256D01*
X84870460Y-117548000D01*
X84850674Y-117359744D01*
X84792179Y-117179716D01*
X84697533Y-117015784D01*
X84660141Y-116974256D01*
X84622350Y-116932284D01*
X84592120Y-116869292D01*
X84590500Y-116849312D01*
X84590500Y-115359285D01*
X84610185Y-115292246D01*
X84655484Y-115250230D01*
X84658753Y-115248461D01*
X84729510Y-115210170D01*
X84911687Y-115068376D01*
X85013772Y-114957481D01*
X85073656Y-114921492D01*
X85143495Y-114923591D01*
G37*
%TD.AperFunction*%
%TA.AperFunction,Conductor*%
G36*
X83170260Y-115186641D02*
G01*
X83199947Y-115209748D01*
X83200490Y-115210170D01*
X83244676Y-115234082D01*
X83274516Y-115250230D01*
X83324107Y-115299448D01*
X83339500Y-115359285D01*
X83339500Y-116849312D01*
X83319815Y-116916351D01*
X83307650Y-116932284D01*
X83232466Y-117015784D01*
X83137821Y-117179715D01*
X83137818Y-117179722D01*
X83084434Y-117344023D01*
X83079326Y-117359744D01*
X83059540Y-117548000D01*
X83079326Y-117736256D01*
X83079327Y-117736259D01*
X83137818Y-117916277D01*
X83137821Y-117916284D01*
X83232467Y-118080216D01*
X83269856Y-118121740D01*
X83307650Y-118163715D01*
X83337880Y-118226706D01*
X83339500Y-118246687D01*
X83339500Y-121604547D01*
X83319815Y-121671586D01*
X83303181Y-121692228D01*
X82522181Y-122473228D01*
X82460858Y-122506713D01*
X82391166Y-122501729D01*
X82335233Y-122459857D01*
X82310816Y-122394393D01*
X82310500Y-122385547D01*
X82310500Y-119008687D01*
X82330185Y-118941648D01*
X82342350Y-118925715D01*
X82365053Y-118900500D01*
X82417533Y-118842216D01*
X82512179Y-118678284D01*
X82570674Y-118498256D01*
X82590460Y-118310000D01*
X82570674Y-118121744D01*
X82512179Y-117941716D01*
X82417533Y-117777784D01*
X82349677Y-117702422D01*
X82342350Y-117694284D01*
X82312120Y-117631292D01*
X82310500Y-117611312D01*
X82310500Y-115556999D01*
X82330185Y-115489960D01*
X82382989Y-115444205D01*
X82434500Y-115432999D01*
X82625371Y-115432999D01*
X82625372Y-115432999D01*
X82684983Y-115426591D01*
X82819831Y-115376296D01*
X82935046Y-115290046D01*
X82994831Y-115210182D01*
X83050763Y-115168312D01*
X83120455Y-115163328D01*
X83170260Y-115186641D01*
G37*
%TD.AperFunction*%
%TA.AperFunction,Conductor*%
G36*
X89984471Y-112878398D02*
G01*
X90023198Y-112904645D01*
X90598022Y-113479469D01*
X90575339Y-113485548D01*
X90439662Y-113563882D01*
X90328882Y-113674662D01*
X90250548Y-113810339D01*
X90244469Y-113833022D01*
X89703331Y-113291884D01*
X89687203Y-113272025D01*
X89675496Y-113254106D01*
X89628040Y-113181469D01*
X89553486Y-113100482D01*
X89522565Y-113037828D01*
X89530425Y-112968402D01*
X89574572Y-112914247D01*
X89640990Y-112892556D01*
X89644717Y-112892500D01*
X89780381Y-112892500D01*
X89780387Y-112892499D01*
X89915106Y-112870017D01*
X89984471Y-112878398D01*
G37*
%TD.AperFunction*%
%TA.AperFunction,Conductor*%
G36*
X91506182Y-110246862D02*
G01*
X91547843Y-110302952D01*
X91555500Y-110345850D01*
X91555500Y-112654718D01*
X91535815Y-112721757D01*
X91483011Y-112767512D01*
X91413853Y-112777456D01*
X91372488Y-112763776D01*
X91366284Y-112760419D01*
X91366270Y-112760413D01*
X91148012Y-112685484D01*
X90920385Y-112647500D01*
X90689614Y-112647500D01*
X90554890Y-112669981D01*
X90485525Y-112661599D01*
X90446800Y-112635353D01*
X89871977Y-112060530D01*
X89894661Y-112054452D01*
X90030338Y-111976118D01*
X90141118Y-111865338D01*
X90219452Y-111729661D01*
X90225529Y-111706977D01*
X90810767Y-112292215D01*
X90893863Y-112165029D01*
X90986564Y-111953691D01*
X91043215Y-111729979D01*
X91062272Y-111500005D01*
X91062272Y-111499994D01*
X91043215Y-111270020D01*
X90986564Y-111046308D01*
X90893865Y-110834975D01*
X90810767Y-110707783D01*
X90225529Y-111293021D01*
X90219452Y-111270339D01*
X90141118Y-111134662D01*
X90030338Y-111023882D01*
X89894661Y-110945548D01*
X89871977Y-110939469D01*
X90446366Y-110365080D01*
X90507689Y-110331595D01*
X90554453Y-110330452D01*
X90689573Y-110353000D01*
X90689575Y-110353000D01*
X90920426Y-110353000D01*
X90920427Y-110353000D01*
X91148133Y-110315002D01*
X91366479Y-110240044D01*
X91369314Y-110238509D01*
X91372482Y-110236796D01*
X91440810Y-110222200D01*
X91506182Y-110246862D01*
G37*
%TD.AperFunction*%
%TA.AperFunction,Conductor*%
G36*
X84550548Y-111729661D02*
G01*
X84628882Y-111865338D01*
X84739662Y-111976118D01*
X84875339Y-112054452D01*
X84898022Y-112060529D01*
X84323632Y-112634918D01*
X84262309Y-112668403D01*
X84215542Y-112669546D01*
X84080427Y-112647000D01*
X83849573Y-112647000D01*
X83811167Y-112653409D01*
X83714457Y-112669547D01*
X83645092Y-112661165D01*
X83606366Y-112634919D01*
X83031977Y-112060530D01*
X83054661Y-112054452D01*
X83190338Y-111976118D01*
X83301118Y-111865338D01*
X83379452Y-111729661D01*
X83385530Y-111706977D01*
X83965000Y-112286447D01*
X84544469Y-111706977D01*
X84550548Y-111729661D01*
G37*
%TD.AperFunction*%
%TA.AperFunction,Conductor*%
G36*
X86206670Y-112248117D02*
G01*
X86222797Y-112267976D01*
X86281463Y-112357771D01*
X86281960Y-112358531D01*
X86356053Y-112439018D01*
X86386975Y-112501672D01*
X86379115Y-112571098D01*
X86334968Y-112625253D01*
X86268550Y-112646944D01*
X86264823Y-112647000D01*
X86129573Y-112647000D01*
X86091167Y-112653409D01*
X85994457Y-112669547D01*
X85925092Y-112661165D01*
X85886366Y-112634919D01*
X85311977Y-112060530D01*
X85334661Y-112054452D01*
X85470338Y-111976118D01*
X85581118Y-111865338D01*
X85659452Y-111729661D01*
X85665530Y-111706977D01*
X86206670Y-112248117D01*
G37*
%TD.AperFunction*%
%TA.AperFunction,Conductor*%
G36*
X89110548Y-111729661D02*
G01*
X89188882Y-111865338D01*
X89299662Y-111976118D01*
X89435339Y-112054452D01*
X89458022Y-112060529D01*
X88883632Y-112634918D01*
X88822309Y-112668403D01*
X88775542Y-112669546D01*
X88640427Y-112647000D01*
X88505177Y-112647000D01*
X88438138Y-112627315D01*
X88392383Y-112574511D01*
X88382439Y-112505353D01*
X88411464Y-112441797D01*
X88413947Y-112439018D01*
X88447917Y-112402116D01*
X88488040Y-112358531D01*
X88547210Y-112267964D01*
X88563329Y-112248116D01*
X89104469Y-111706976D01*
X89110548Y-111729661D01*
G37*
%TD.AperFunction*%
%TA.AperFunction,Conductor*%
G36*
X82270548Y-111729661D02*
G01*
X82348882Y-111865338D01*
X82459662Y-111976118D01*
X82595339Y-112054452D01*
X82618022Y-112060530D01*
X82067871Y-112610681D01*
X82006548Y-112644166D01*
X81980190Y-112647000D01*
X81389809Y-112647000D01*
X81322770Y-112627315D01*
X81302128Y-112610681D01*
X80751977Y-112060530D01*
X80774661Y-112054452D01*
X80910338Y-111976118D01*
X81021118Y-111865338D01*
X81099452Y-111729661D01*
X81105530Y-111706977D01*
X81685000Y-112286447D01*
X82264469Y-111706977D01*
X82270548Y-111729661D01*
G37*
%TD.AperFunction*%
%TA.AperFunction,Conductor*%
G36*
X82004907Y-110338834D02*
G01*
X82043633Y-110365080D01*
X82618022Y-110939469D01*
X82595339Y-110945548D01*
X82459662Y-111023882D01*
X82348882Y-111134662D01*
X82270548Y-111270339D01*
X82264469Y-111293022D01*
X81685000Y-110713553D01*
X81105530Y-111293022D01*
X81099452Y-111270339D01*
X81021118Y-111134662D01*
X80910338Y-111023882D01*
X80774661Y-110945548D01*
X80751977Y-110939469D01*
X81326366Y-110365080D01*
X81387689Y-110331595D01*
X81434453Y-110330452D01*
X81569573Y-110353000D01*
X81569575Y-110353000D01*
X81800425Y-110353000D01*
X81800427Y-110353000D01*
X81935544Y-110330452D01*
X82004907Y-110338834D01*
G37*
%TD.AperFunction*%
%TA.AperFunction,Conductor*%
G36*
X84284907Y-110338834D02*
G01*
X84323633Y-110365080D01*
X84898022Y-110939469D01*
X84875339Y-110945548D01*
X84739662Y-111023882D01*
X84628882Y-111134662D01*
X84550548Y-111270339D01*
X84544469Y-111293022D01*
X83965000Y-110713553D01*
X83385530Y-111293022D01*
X83379452Y-111270339D01*
X83301118Y-111134662D01*
X83190338Y-111023882D01*
X83054661Y-110945548D01*
X83031977Y-110939469D01*
X83606366Y-110365080D01*
X83667689Y-110331595D01*
X83714453Y-110330452D01*
X83849573Y-110353000D01*
X83849575Y-110353000D01*
X84080425Y-110353000D01*
X84080427Y-110353000D01*
X84215544Y-110330452D01*
X84284907Y-110338834D01*
G37*
%TD.AperFunction*%
%TA.AperFunction,Conductor*%
G36*
X88844907Y-110338834D02*
G01*
X88883633Y-110365080D01*
X89458022Y-110939469D01*
X89435339Y-110945548D01*
X89299662Y-111023882D01*
X89188882Y-111134662D01*
X89110548Y-111270339D01*
X89104469Y-111293022D01*
X88563331Y-110751884D01*
X88547203Y-110732025D01*
X88547202Y-110732023D01*
X88488040Y-110641469D01*
X88413946Y-110560981D01*
X88383025Y-110498328D01*
X88390885Y-110428902D01*
X88435032Y-110374747D01*
X88501450Y-110353056D01*
X88505177Y-110353000D01*
X88640425Y-110353000D01*
X88640427Y-110353000D01*
X88775544Y-110330452D01*
X88844907Y-110338834D01*
G37*
%TD.AperFunction*%
%TA.AperFunction,Conductor*%
G36*
X86129573Y-110353000D02*
G01*
X86129575Y-110353000D01*
X86264823Y-110353000D01*
X86331862Y-110372685D01*
X86377617Y-110425489D01*
X86387561Y-110494647D01*
X86358536Y-110558203D01*
X86356071Y-110560961D01*
X86337674Y-110580947D01*
X86281959Y-110641469D01*
X86222797Y-110732023D01*
X86206670Y-110751881D01*
X85665529Y-111293021D01*
X85659452Y-111270339D01*
X85581118Y-111134662D01*
X85470338Y-111023882D01*
X85334661Y-110945548D01*
X85311977Y-110939469D01*
X85886366Y-110365080D01*
X85947689Y-110331595D01*
X85994453Y-110330452D01*
X86129573Y-110353000D01*
G37*
%TD.AperFunction*%
%TA.AperFunction,Conductor*%
G36*
X111567355Y-130126546D02*
G01*
X111584075Y-130145842D01*
X111714000Y-130331395D01*
X111714005Y-130331401D01*
X111881099Y-130498495D01*
X112066658Y-130628425D01*
X112067094Y-130628730D01*
X112110718Y-130683307D01*
X112117911Y-130752806D01*
X112086389Y-130815160D01*
X112067093Y-130831880D01*
X111991126Y-130885072D01*
X111991125Y-130885072D01*
X112623090Y-131517037D01*
X112559507Y-131534075D01*
X112445493Y-131599901D01*
X112352401Y-131692993D01*
X112286575Y-131807007D01*
X112269537Y-131870590D01*
X111637573Y-131238626D01*
X111584381Y-131314594D01*
X111529804Y-131358219D01*
X111460306Y-131365413D01*
X111397951Y-131333891D01*
X111381230Y-131314594D01*
X111250994Y-131128597D01*
X111083902Y-130961506D01*
X111083896Y-130961501D01*
X110898342Y-130831575D01*
X110854717Y-130776998D01*
X110847523Y-130707500D01*
X110879046Y-130645145D01*
X110898342Y-130628425D01*
X110920526Y-130612891D01*
X111083901Y-130498495D01*
X111250995Y-130331401D01*
X111380925Y-130145842D01*
X111435502Y-130102217D01*
X111505000Y-130095023D01*
X111567355Y-130126546D01*
G37*
%TD.AperFunction*%
%TA.AperFunction,Conductor*%
G36*
X114826575Y-129652993D02*
G01*
X114892401Y-129767007D01*
X114985493Y-129860099D01*
X115099507Y-129925925D01*
X115163090Y-129942962D01*
X114531125Y-130574925D01*
X114607531Y-130628425D01*
X114651155Y-130683002D01*
X114658348Y-130752501D01*
X114626826Y-130814855D01*
X114607529Y-130831576D01*
X114531125Y-130885072D01*
X115163090Y-131517037D01*
X115099507Y-131534075D01*
X114985493Y-131599901D01*
X114892401Y-131692993D01*
X114826575Y-131807007D01*
X114809537Y-131870590D01*
X114177572Y-131238625D01*
X114177572Y-131238626D01*
X114124074Y-131315030D01*
X114069498Y-131358655D01*
X113999999Y-131365849D01*
X113937644Y-131334326D01*
X113920924Y-131315030D01*
X113867425Y-131238626D01*
X113867425Y-131238625D01*
X113235462Y-131870589D01*
X113218425Y-131807007D01*
X113152599Y-131692993D01*
X113059507Y-131599901D01*
X112945493Y-131534075D01*
X112881910Y-131517037D01*
X113513873Y-130885073D01*
X113513873Y-130885072D01*
X113437905Y-130831880D01*
X113394280Y-130777304D01*
X113387086Y-130707805D01*
X113418608Y-130645451D01*
X113437899Y-130628734D01*
X113623901Y-130498495D01*
X113790995Y-130331401D01*
X113921232Y-130145403D01*
X113975807Y-130101780D01*
X114045305Y-130094586D01*
X114107660Y-130126109D01*
X114124380Y-130145405D01*
X114177573Y-130221373D01*
X114809537Y-129589409D01*
X114826575Y-129652993D01*
G37*
%TD.AperFunction*%
%TA.AperFunction,Conductor*%
G36*
X116407425Y-130221373D02*
G01*
X116460619Y-130145405D01*
X116515196Y-130101781D01*
X116584695Y-130094588D01*
X116647049Y-130126110D01*
X116663769Y-130145405D01*
X116794005Y-130331401D01*
X116961099Y-130498495D01*
X117146658Y-130628425D01*
X117147094Y-130628730D01*
X117190718Y-130683307D01*
X117197911Y-130752806D01*
X117166389Y-130815160D01*
X117147093Y-130831880D01*
X117071126Y-130885072D01*
X117071125Y-130885072D01*
X117703090Y-131517037D01*
X117639507Y-131534075D01*
X117525493Y-131599901D01*
X117432401Y-131692993D01*
X117366575Y-131807007D01*
X117349537Y-131870590D01*
X116717572Y-131238625D01*
X116717572Y-131238626D01*
X116664074Y-131315030D01*
X116609498Y-131358655D01*
X116539999Y-131365849D01*
X116477644Y-131334326D01*
X116460924Y-131315030D01*
X116407425Y-131238626D01*
X116407425Y-131238625D01*
X115775462Y-131870589D01*
X115758425Y-131807007D01*
X115692599Y-131692993D01*
X115599507Y-131599901D01*
X115485493Y-131534075D01*
X115421910Y-131517037D01*
X116053873Y-130885073D01*
X115977469Y-130831576D01*
X115933844Y-130776999D01*
X115926650Y-130707501D01*
X115958172Y-130645146D01*
X115977468Y-130628425D01*
X116053873Y-130574925D01*
X115421909Y-129942962D01*
X115485493Y-129925925D01*
X115599507Y-129860099D01*
X115692599Y-129767007D01*
X115758425Y-129652993D01*
X115775462Y-129589409D01*
X116407425Y-130221373D01*
G37*
%TD.AperFunction*%
%TA.AperFunction,Conductor*%
G36*
X115223334Y-125740548D02*
G01*
X115267681Y-125769049D01*
X115355344Y-125856712D01*
X115504663Y-125948812D01*
X115504668Y-125948815D01*
X115525110Y-125955588D01*
X115563502Y-125968310D01*
X115620947Y-126008081D01*
X115647772Y-126072596D01*
X115648500Y-126086016D01*
X115648500Y-127963110D01*
X115651248Y-127976924D01*
X115645021Y-128046516D01*
X115602157Y-128101693D01*
X115536268Y-128124937D01*
X115518824Y-128124643D01*
X115292502Y-128104843D01*
X115292498Y-128104843D01*
X115057184Y-128125430D01*
X115057173Y-128125432D01*
X114829016Y-128186566D01*
X114829007Y-128186570D01*
X114614919Y-128286401D01*
X114531125Y-128345072D01*
X115163090Y-128977037D01*
X115099507Y-128994075D01*
X114985493Y-129059901D01*
X114892401Y-129152993D01*
X114826575Y-129267007D01*
X114809537Y-129330590D01*
X114177573Y-128698626D01*
X114124381Y-128774594D01*
X114069804Y-128818219D01*
X114000306Y-128825413D01*
X113937951Y-128793891D01*
X113921230Y-128774594D01*
X113790994Y-128588597D01*
X113623902Y-128421506D01*
X113623901Y-128421505D01*
X113430876Y-128286347D01*
X113387251Y-128231770D01*
X113378000Y-128184772D01*
X113378000Y-126557951D01*
X113397685Y-126490912D01*
X113414315Y-126470274D01*
X113833771Y-126050817D01*
X113895094Y-126017333D01*
X113921452Y-126014499D01*
X114586002Y-126014499D01*
X114586008Y-126014499D01*
X114688797Y-126003999D01*
X114855334Y-125948814D01*
X115004656Y-125856712D01*
X115092319Y-125769049D01*
X115153642Y-125735564D01*
X115223334Y-125740548D01*
G37*
%TD.AperFunction*%
%TA.AperFunction,Conductor*%
G36*
X125591151Y-112763094D02*
G01*
X125597147Y-112770014D01*
X125652777Y-112839221D01*
X125652778Y-112839222D01*
X125801204Y-112958530D01*
X125801207Y-112958532D01*
X125956094Y-113035348D01*
X126007407Y-113082769D01*
X126025000Y-113146436D01*
X126025000Y-113254106D01*
X126044690Y-113353098D01*
X126046393Y-113390248D01*
X126036540Y-113484000D01*
X126056326Y-113672256D01*
X126056327Y-113672259D01*
X126114818Y-113852277D01*
X126114821Y-113852284D01*
X126162049Y-113934086D01*
X126174887Y-113956321D01*
X126191500Y-114018321D01*
X126191500Y-121795770D01*
X126171815Y-121862809D01*
X126155181Y-121883451D01*
X125911451Y-122127181D01*
X125850128Y-122160666D01*
X125823770Y-122163500D01*
X117427958Y-122163500D01*
X117360919Y-122143815D01*
X117322420Y-122104598D01*
X117316712Y-122095344D01*
X117192657Y-121971289D01*
X117192656Y-121971288D01*
X117043334Y-121879186D01*
X116876797Y-121824001D01*
X116876795Y-121824000D01*
X116774010Y-121813500D01*
X115773998Y-121813500D01*
X115773980Y-121813501D01*
X115671203Y-121824000D01*
X115671200Y-121824001D01*
X115504668Y-121879185D01*
X115504663Y-121879187D01*
X115355342Y-121971289D01*
X115267681Y-122058951D01*
X115206358Y-122092436D01*
X115136666Y-122087452D01*
X115092319Y-122058951D01*
X115004657Y-121971289D01*
X115004656Y-121971288D01*
X114855334Y-121879186D01*
X114688797Y-121824001D01*
X114688795Y-121824000D01*
X114586010Y-121813500D01*
X113585998Y-121813500D01*
X113585980Y-121813501D01*
X113483203Y-121824000D01*
X113483200Y-121824001D01*
X113316668Y-121879185D01*
X113316663Y-121879187D01*
X113167344Y-121971288D01*
X113116679Y-122021952D01*
X113055355Y-122055436D01*
X112985663Y-122050450D01*
X112941318Y-122021950D01*
X112874657Y-121955289D01*
X112874656Y-121955288D01*
X112725334Y-121863186D01*
X112558797Y-121808001D01*
X112558795Y-121808000D01*
X112456010Y-121797500D01*
X111455998Y-121797500D01*
X111455980Y-121797501D01*
X111353203Y-121808000D01*
X111353200Y-121808001D01*
X111186668Y-121863185D01*
X111186663Y-121863187D01*
X111037342Y-121955289D01*
X110913289Y-122079342D01*
X110821187Y-122228663D01*
X110821185Y-122228668D01*
X110805880Y-122274855D01*
X110766001Y-122395203D01*
X110766001Y-122395204D01*
X110766000Y-122395204D01*
X110755500Y-122497983D01*
X110755500Y-123162547D01*
X110735815Y-123229586D01*
X110719181Y-123250228D01*
X108551644Y-125417764D01*
X108551641Y-125417768D01*
X108525101Y-125457487D01*
X108471488Y-125502291D01*
X108402163Y-125510997D01*
X108339136Y-125480841D01*
X108302418Y-125421397D01*
X108298000Y-125388594D01*
X108298000Y-119205241D01*
X108298001Y-119205220D01*
X108298001Y-119075891D01*
X108276895Y-118969790D01*
X108273963Y-118955048D01*
X108256010Y-118911706D01*
X108247323Y-118890733D01*
X108235066Y-118861142D01*
X108226812Y-118841215D01*
X108158358Y-118738767D01*
X108158355Y-118738763D01*
X106265904Y-116846314D01*
X106232419Y-116784991D01*
X106234511Y-116724030D01*
X106236098Y-116718568D01*
X106236662Y-116711401D01*
X106239000Y-116681694D01*
X106239000Y-116440500D01*
X106258685Y-116373461D01*
X106311489Y-116327706D01*
X106363000Y-116316500D01*
X106563770Y-116316500D01*
X106630809Y-116336185D01*
X106651451Y-116352819D01*
X107577086Y-117278454D01*
X107604950Y-117297071D01*
X107646750Y-117325000D01*
X107700005Y-117360584D01*
X107700007Y-117360585D01*
X107700011Y-117360587D01*
X107799304Y-117401715D01*
X107836587Y-117417158D01*
X107836591Y-117417158D01*
X107836592Y-117417159D01*
X107981579Y-117446000D01*
X107981582Y-117446000D01*
X123373920Y-117446000D01*
X123471462Y-117426596D01*
X123518913Y-117417158D01*
X123655495Y-117360584D01*
X123708750Y-117325000D01*
X123778416Y-117278452D01*
X124730951Y-116325916D01*
X124747421Y-116301267D01*
X124813084Y-116202995D01*
X124869658Y-116066413D01*
X124894373Y-115942166D01*
X124898500Y-115921420D01*
X124898500Y-114018321D01*
X124915113Y-113956321D01*
X124924247Y-113940500D01*
X124975179Y-113852284D01*
X125033674Y-113672256D01*
X125042911Y-113584361D01*
X125051669Y-113549875D01*
X125072158Y-113500413D01*
X125075423Y-113483999D01*
X125101000Y-113355420D01*
X125101000Y-113084442D01*
X125120685Y-113017403D01*
X125169906Y-112973354D01*
X125170899Y-112972861D01*
X125199796Y-112958530D01*
X125348222Y-112839222D01*
X125403853Y-112770014D01*
X125461196Y-112730095D01*
X125531018Y-112727515D01*
X125591151Y-112763094D01*
G37*
%TD.AperFunction*%
%TA.AperFunction,Conductor*%
G36*
X171443039Y-100519685D02*
G01*
X171488794Y-100572489D01*
X171500000Y-100624000D01*
X171500000Y-137376000D01*
X171480315Y-137443039D01*
X171427511Y-137488794D01*
X171376000Y-137500000D01*
X60624000Y-137500000D01*
X60556961Y-137480315D01*
X60511206Y-137427511D01*
X60500000Y-137376000D01*
X60500000Y-130999997D01*
X62644579Y-130999997D01*
X62644579Y-131000002D01*
X62664248Y-131362782D01*
X62664250Y-131362799D01*
X62723024Y-131721303D01*
X62723030Y-131721329D01*
X62820221Y-132071381D01*
X62820226Y-132071396D01*
X62954700Y-132408901D01*
X62954706Y-132408913D01*
X63124878Y-132729892D01*
X63124881Y-132729897D01*
X63124883Y-132729900D01*
X63190107Y-132826098D01*
X63328772Y-133030613D01*
X63544692Y-133284814D01*
X63563979Y-133307521D01*
X63827746Y-133557375D01*
X64116981Y-133777245D01*
X64428292Y-133964555D01*
X64428294Y-133964556D01*
X64428296Y-133964557D01*
X64428300Y-133964559D01*
X64758020Y-134117103D01*
X64758031Y-134117108D01*
X65102330Y-134233116D01*
X65457153Y-134311218D01*
X65818341Y-134350500D01*
X65818347Y-134350500D01*
X66181653Y-134350500D01*
X66181659Y-134350500D01*
X66542847Y-134311218D01*
X66897670Y-134233116D01*
X67241969Y-134117108D01*
X67571708Y-133964555D01*
X67883019Y-133777245D01*
X68172254Y-133557375D01*
X68436021Y-133307521D01*
X68671227Y-133030614D01*
X68875117Y-132729900D01*
X69045298Y-132408905D01*
X69179775Y-132071391D01*
X69188491Y-132040001D01*
X69227218Y-131900518D01*
X69276973Y-131721316D01*
X69308056Y-131531716D01*
X69335749Y-131362799D01*
X69335751Y-131362782D01*
X69335999Y-131358219D01*
X69351047Y-131080666D01*
X69355421Y-131000002D01*
X69355421Y-130999997D01*
X69339979Y-130715187D01*
X69335751Y-130637215D01*
X69334187Y-130627676D01*
X69276975Y-130278696D01*
X69276974Y-130278695D01*
X69276973Y-130278684D01*
X69233456Y-130121949D01*
X69179778Y-129928618D01*
X69179773Y-129928603D01*
X69064858Y-129640187D01*
X69045298Y-129591095D01*
X68938217Y-129389119D01*
X68875121Y-129270107D01*
X68875119Y-129270104D01*
X68875117Y-129270100D01*
X68671227Y-128969386D01*
X68656196Y-128951690D01*
X74579500Y-128951690D01*
X74579500Y-130926607D01*
X74585635Y-130957453D01*
X74585634Y-130957453D01*
X74603535Y-131047445D01*
X74603537Y-131047452D01*
X74609400Y-131061607D01*
X74615479Y-131076280D01*
X74615480Y-131076285D01*
X74650685Y-131161280D01*
X74650687Y-131161283D01*
X74650688Y-131161286D01*
X74664830Y-131182451D01*
X74675709Y-131198731D01*
X74675710Y-131198733D01*
X74719141Y-131263732D01*
X74719144Y-131263736D01*
X74810586Y-131355178D01*
X74810608Y-131355198D01*
X74993181Y-131537771D01*
X75026666Y-131599094D01*
X75029500Y-131625452D01*
X75029500Y-132690001D01*
X75029501Y-132690018D01*
X75040000Y-132792796D01*
X75040001Y-132792799D01*
X75095185Y-132959331D01*
X75095187Y-132959336D01*
X75103278Y-132972453D01*
X75187288Y-133108656D01*
X75311344Y-133232712D01*
X75460666Y-133324814D01*
X75627203Y-133379999D01*
X75729991Y-133390500D01*
X77030008Y-133390499D01*
X77132797Y-133379999D01*
X77299334Y-133324814D01*
X77448656Y-133232712D01*
X77572712Y-133108656D01*
X77664814Y-132959334D01*
X77667662Y-132950738D01*
X77707429Y-132893294D01*
X77771944Y-132866468D01*
X77840720Y-132878779D01*
X77877483Y-132907766D01*
X77877677Y-132907573D01*
X77879313Y-132909209D01*
X77880354Y-132910030D01*
X77881501Y-132911397D01*
X77881504Y-132911400D01*
X77881505Y-132911401D01*
X78048599Y-133078495D01*
X78100628Y-133114926D01*
X78242165Y-133214032D01*
X78242167Y-133214033D01*
X78242170Y-133214035D01*
X78456337Y-133313903D01*
X78684592Y-133375063D01*
X78861034Y-133390500D01*
X78919999Y-133395659D01*
X78920000Y-133395659D01*
X78920001Y-133395659D01*
X78978966Y-133390500D01*
X79155408Y-133375063D01*
X79383663Y-133313903D01*
X79597830Y-133214035D01*
X79791401Y-133078495D01*
X79958495Y-132911401D01*
X80088732Y-132725403D01*
X80143307Y-132681780D01*
X80212805Y-132674586D01*
X80275160Y-132706109D01*
X80291880Y-132725405D01*
X80345073Y-132801373D01*
X80977037Y-132169408D01*
X80994075Y-132232993D01*
X81059901Y-132347007D01*
X81152993Y-132440099D01*
X81267007Y-132505925D01*
X81330590Y-132522962D01*
X80698625Y-133154925D01*
X80782421Y-133213599D01*
X80996507Y-133313429D01*
X80996516Y-133313433D01*
X81224673Y-133374567D01*
X81224684Y-133374569D01*
X81459998Y-133395157D01*
X81460002Y-133395157D01*
X81695315Y-133374569D01*
X81695326Y-133374567D01*
X81923483Y-133313433D01*
X81923492Y-133313429D01*
X82137578Y-133213600D01*
X82137582Y-133213598D01*
X82221373Y-133154926D01*
X82221373Y-133154925D01*
X81589409Y-132522962D01*
X81652993Y-132505925D01*
X81767007Y-132440099D01*
X81860099Y-132347007D01*
X81925925Y-132232993D01*
X81942962Y-132169410D01*
X82574925Y-132801373D01*
X82628425Y-132724968D01*
X82683002Y-132681344D01*
X82752501Y-132674151D01*
X82814855Y-132705673D01*
X82831576Y-132724969D01*
X82885073Y-132801372D01*
X83517037Y-132169409D01*
X83534075Y-132232993D01*
X83599901Y-132347007D01*
X83692993Y-132440099D01*
X83807007Y-132505925D01*
X83870590Y-132522962D01*
X83238625Y-133154925D01*
X83322421Y-133213599D01*
X83536507Y-133313429D01*
X83536516Y-133313433D01*
X83764673Y-133374567D01*
X83764684Y-133374569D01*
X83999998Y-133395157D01*
X84000002Y-133395157D01*
X84235315Y-133374569D01*
X84235326Y-133374567D01*
X84463483Y-133313433D01*
X84463492Y-133313429D01*
X84677578Y-133213600D01*
X84677582Y-133213598D01*
X84761373Y-133154926D01*
X84761373Y-133154925D01*
X84129409Y-132522962D01*
X84192993Y-132505925D01*
X84307007Y-132440099D01*
X84400099Y-132347007D01*
X84465925Y-132232993D01*
X84482962Y-132169409D01*
X85114925Y-132801373D01*
X85168425Y-132724968D01*
X85223002Y-132681344D01*
X85292501Y-132674151D01*
X85354855Y-132705673D01*
X85371576Y-132724969D01*
X85425073Y-132801372D01*
X86057037Y-132169409D01*
X86074075Y-132232993D01*
X86139901Y-132347007D01*
X86232993Y-132440099D01*
X86347007Y-132505925D01*
X86410590Y-132522962D01*
X85778625Y-133154925D01*
X85862421Y-133213599D01*
X86076507Y-133313429D01*
X86076516Y-133313433D01*
X86304673Y-133374567D01*
X86304684Y-133374569D01*
X86539998Y-133395157D01*
X86540002Y-133395157D01*
X86775315Y-133374569D01*
X86775326Y-133374567D01*
X87003483Y-133313433D01*
X87003492Y-133313429D01*
X87217578Y-133213600D01*
X87217582Y-133213598D01*
X87301373Y-133154926D01*
X87301373Y-133154925D01*
X86669409Y-132522962D01*
X86732993Y-132505925D01*
X86847007Y-132440099D01*
X86940099Y-132347007D01*
X87005925Y-132232993D01*
X87022962Y-132169409D01*
X87654925Y-132801373D01*
X87708119Y-132725405D01*
X87762696Y-132681781D01*
X87832195Y-132674588D01*
X87894549Y-132706110D01*
X87911269Y-132725405D01*
X87914417Y-132729901D01*
X88041505Y-132911401D01*
X88208599Y-133078495D01*
X88260628Y-133114926D01*
X88402165Y-133214032D01*
X88402167Y-133214033D01*
X88402170Y-133214035D01*
X88616337Y-133313903D01*
X88844592Y-133375063D01*
X89021034Y-133390500D01*
X89079999Y-133395659D01*
X89080000Y-133395659D01*
X89080001Y-133395659D01*
X89138966Y-133390500D01*
X89315408Y-133375063D01*
X89543663Y-133313903D01*
X89757830Y-133214035D01*
X89951401Y-133078495D01*
X90118495Y-132911401D01*
X90245583Y-132729901D01*
X90248425Y-132725842D01*
X90303002Y-132682217D01*
X90372500Y-132675023D01*
X90434855Y-132706546D01*
X90451575Y-132725842D01*
X90581500Y-132911395D01*
X90581505Y-132911401D01*
X90748599Y-133078495D01*
X90800628Y-133114926D01*
X90942165Y-133214032D01*
X90942167Y-133214033D01*
X90942170Y-133214035D01*
X91156337Y-133313903D01*
X91384592Y-133375063D01*
X91561034Y-133390500D01*
X91619999Y-133395659D01*
X91620000Y-133395659D01*
X91620001Y-133395659D01*
X91678966Y-133390500D01*
X91855408Y-133375063D01*
X92083663Y-133313903D01*
X92297830Y-133214035D01*
X92491401Y-133078495D01*
X92658495Y-132911401D01*
X92785583Y-132729901D01*
X92788425Y-132725842D01*
X92843002Y-132682217D01*
X92912500Y-132675023D01*
X92974855Y-132706546D01*
X92991575Y-132725842D01*
X93121500Y-132911395D01*
X93121505Y-132911401D01*
X93288599Y-133078495D01*
X93340628Y-133114926D01*
X93482165Y-133214032D01*
X93482167Y-133214033D01*
X93482170Y-133214035D01*
X93696337Y-133313903D01*
X93924592Y-133375063D01*
X94101034Y-133390500D01*
X94159999Y-133395659D01*
X94160000Y-133395659D01*
X94160001Y-133395659D01*
X94218966Y-133390500D01*
X94395408Y-133375063D01*
X94623663Y-133313903D01*
X94837830Y-133214035D01*
X95031401Y-133078495D01*
X95198495Y-132911401D01*
X95334035Y-132717830D01*
X95433903Y-132503663D01*
X95495063Y-132275408D01*
X95515659Y-132040000D01*
X95495063Y-131804592D01*
X95433903Y-131576337D01*
X95334035Y-131362171D01*
X95329153Y-131355198D01*
X95198494Y-131168597D01*
X95031402Y-131001506D01*
X95031396Y-131001501D01*
X94845842Y-130871575D01*
X94802217Y-130816998D01*
X94795023Y-130747500D01*
X94826546Y-130685145D01*
X94845842Y-130668425D01*
X94879089Y-130645145D01*
X95031401Y-130538495D01*
X95198495Y-130371401D01*
X95334035Y-130177830D01*
X95433903Y-129963663D01*
X95495063Y-129735408D01*
X95515659Y-129500000D01*
X95495063Y-129264592D01*
X95433903Y-129036337D01*
X95334035Y-128822171D01*
X95329609Y-128815849D01*
X95198494Y-128628597D01*
X95031402Y-128461506D01*
X95031395Y-128461501D01*
X94837834Y-128325967D01*
X94837830Y-128325965D01*
X94807558Y-128311849D01*
X94623663Y-128226097D01*
X94623659Y-128226096D01*
X94623655Y-128226094D01*
X94395413Y-128164938D01*
X94395403Y-128164936D01*
X94160001Y-128144341D01*
X94159999Y-128144341D01*
X93924596Y-128164936D01*
X93924586Y-128164938D01*
X93696344Y-128226094D01*
X93696335Y-128226098D01*
X93596905Y-128272463D01*
X93527827Y-128282955D01*
X93464043Y-128254435D01*
X93425804Y-128195959D01*
X93420500Y-128160081D01*
X93420500Y-114350298D01*
X103763000Y-114350298D01*
X103763000Y-114781701D01*
X103765901Y-114818567D01*
X103765902Y-114818573D01*
X103811754Y-114976393D01*
X103811755Y-114976396D01*
X103895417Y-115117862D01*
X103895423Y-115117870D01*
X104011629Y-115234076D01*
X104011633Y-115234079D01*
X104011635Y-115234081D01*
X104153102Y-115317744D01*
X104161005Y-115320040D01*
X104310926Y-115363597D01*
X104310929Y-115363597D01*
X104310931Y-115363598D01*
X104347806Y-115366500D01*
X105514000Y-115366500D01*
X105581039Y-115386185D01*
X105626794Y-115438989D01*
X105638000Y-115490500D01*
X105638000Y-115541500D01*
X105618315Y-115608539D01*
X105565511Y-115654294D01*
X105514000Y-115665500D01*
X104347798Y-115665500D01*
X104310932Y-115668401D01*
X104310926Y-115668402D01*
X104153106Y-115714254D01*
X104153103Y-115714255D01*
X104011637Y-115797917D01*
X104011629Y-115797923D01*
X103895423Y-115914129D01*
X103895417Y-115914137D01*
X103811755Y-116055603D01*
X103811754Y-116055606D01*
X103765902Y-116213426D01*
X103765901Y-116213432D01*
X103763000Y-116250298D01*
X103763000Y-116681701D01*
X103765901Y-116718567D01*
X103765902Y-116718573D01*
X103811754Y-116876393D01*
X103811755Y-116876396D01*
X103895417Y-117017862D01*
X103895423Y-117017870D01*
X104011629Y-117134076D01*
X104011633Y-117134079D01*
X104011635Y-117134081D01*
X104153102Y-117217744D01*
X104153691Y-117217915D01*
X104310926Y-117263597D01*
X104310929Y-117263597D01*
X104310931Y-117263598D01*
X104347806Y-117266500D01*
X104865548Y-117266500D01*
X104932587Y-117286185D01*
X104953229Y-117302819D01*
X107010681Y-119360271D01*
X107044166Y-119421594D01*
X107047000Y-119447952D01*
X107047000Y-128184773D01*
X107027315Y-128251812D01*
X106994123Y-128286348D01*
X106801097Y-128421505D01*
X106634005Y-128588597D01*
X106498465Y-128782169D01*
X106498464Y-128782171D01*
X106398598Y-128996335D01*
X106398594Y-128996344D01*
X106337438Y-129224586D01*
X106337436Y-129224596D01*
X106316841Y-129459999D01*
X106316841Y-129460000D01*
X106337436Y-129695403D01*
X106337438Y-129695413D01*
X106398594Y-129923655D01*
X106398596Y-129923659D01*
X106398597Y-129923663D01*
X106446151Y-130025643D01*
X106498465Y-130137830D01*
X106498467Y-130137834D01*
X106606781Y-130292521D01*
X106634005Y-130331401D01*
X106801099Y-130498495D01*
X106801104Y-130498499D01*
X106802468Y-130499643D01*
X106802907Y-130500303D01*
X106804927Y-130502323D01*
X106804521Y-130502728D01*
X106841169Y-130557815D01*
X106842276Y-130627676D01*
X106805437Y-130687046D01*
X106761767Y-130712336D01*
X106753169Y-130715184D01*
X106753163Y-130715187D01*
X106603842Y-130807289D01*
X106479789Y-130931342D01*
X106387687Y-131080663D01*
X106387685Y-131080668D01*
X106371583Y-131129261D01*
X106332501Y-131247203D01*
X106332501Y-131247204D01*
X106332500Y-131247204D01*
X106322000Y-131349983D01*
X106322000Y-132650001D01*
X106322001Y-132650018D01*
X106332500Y-132752796D01*
X106332501Y-132752799D01*
X106387685Y-132919331D01*
X106387687Y-132919336D01*
X106401757Y-132942147D01*
X106479788Y-133068656D01*
X106603844Y-133192712D01*
X106753166Y-133284814D01*
X106919703Y-133339999D01*
X107022491Y-133350500D01*
X108322508Y-133350499D01*
X108425297Y-133339999D01*
X108591834Y-133284814D01*
X108741156Y-133192712D01*
X108865212Y-133068656D01*
X108957314Y-132919334D01*
X108960162Y-132910738D01*
X108999929Y-132853294D01*
X109064444Y-132826468D01*
X109133220Y-132838779D01*
X109169983Y-132867766D01*
X109170177Y-132867573D01*
X109171813Y-132869209D01*
X109172854Y-132870030D01*
X109174001Y-132871397D01*
X109174005Y-132871401D01*
X109341099Y-133038495D01*
X109398222Y-133078493D01*
X109534665Y-133174032D01*
X109534667Y-133174033D01*
X109534670Y-133174035D01*
X109748837Y-133273903D01*
X109977092Y-133335063D01*
X110153534Y-133350500D01*
X110212499Y-133355659D01*
X110212500Y-133355659D01*
X110212501Y-133355659D01*
X110271466Y-133350500D01*
X110447908Y-133335063D01*
X110676163Y-133273903D01*
X110890330Y-133174035D01*
X111083901Y-133038495D01*
X111250995Y-132871401D01*
X111381232Y-132685403D01*
X111435807Y-132641780D01*
X111505305Y-132634586D01*
X111567660Y-132666109D01*
X111584380Y-132685405D01*
X111637573Y-132761373D01*
X112269537Y-132129409D01*
X112286575Y-132192993D01*
X112352401Y-132307007D01*
X112445493Y-132400099D01*
X112559507Y-132465925D01*
X112623090Y-132482962D01*
X111991125Y-133114925D01*
X112074921Y-133173599D01*
X112289007Y-133273429D01*
X112289016Y-133273433D01*
X112517173Y-133334567D01*
X112517184Y-133334569D01*
X112752498Y-133355157D01*
X112752502Y-133355157D01*
X112987815Y-133334569D01*
X112987826Y-133334567D01*
X113215983Y-133273433D01*
X113215992Y-133273429D01*
X113430078Y-133173600D01*
X113430082Y-133173598D01*
X113513873Y-133114926D01*
X113513873Y-133114925D01*
X112881909Y-132482962D01*
X112945493Y-132465925D01*
X113059507Y-132400099D01*
X113152599Y-132307007D01*
X113218425Y-132192993D01*
X113235462Y-132129410D01*
X113867425Y-132761373D01*
X113920925Y-132684968D01*
X113975502Y-132641344D01*
X114045001Y-132634151D01*
X114107355Y-132665673D01*
X114124076Y-132684969D01*
X114177573Y-132761372D01*
X114809537Y-132129409D01*
X114826575Y-132192993D01*
X114892401Y-132307007D01*
X114985493Y-132400099D01*
X115099507Y-132465925D01*
X115163090Y-132482962D01*
X114531125Y-133114925D01*
X114614921Y-133173599D01*
X114829007Y-133273429D01*
X114829016Y-133273433D01*
X115057173Y-133334567D01*
X115057184Y-133334569D01*
X115292498Y-133355157D01*
X115292502Y-133355157D01*
X115527815Y-133334569D01*
X115527826Y-133334567D01*
X115755983Y-133273433D01*
X115755992Y-133273429D01*
X115970078Y-133173600D01*
X115970082Y-133173598D01*
X116053873Y-133114926D01*
X116053873Y-133114925D01*
X115421909Y-132482962D01*
X115485493Y-132465925D01*
X115599507Y-132400099D01*
X115692599Y-132307007D01*
X115758425Y-132192993D01*
X115775462Y-132129410D01*
X116407425Y-132761373D01*
X116460925Y-132684968D01*
X116515502Y-132641344D01*
X116585001Y-132634151D01*
X116647355Y-132665673D01*
X116664076Y-132684969D01*
X116717573Y-132761372D01*
X117349537Y-132129409D01*
X117366575Y-132192993D01*
X117432401Y-132307007D01*
X117525493Y-132400099D01*
X117639507Y-132465925D01*
X117703090Y-132482962D01*
X117071125Y-133114925D01*
X117154921Y-133173599D01*
X117369007Y-133273429D01*
X117369016Y-133273433D01*
X117597173Y-133334567D01*
X117597184Y-133334569D01*
X117832498Y-133355157D01*
X117832502Y-133355157D01*
X118067815Y-133334569D01*
X118067826Y-133334567D01*
X118295983Y-133273433D01*
X118295992Y-133273429D01*
X118510078Y-133173600D01*
X118510082Y-133173598D01*
X118593873Y-133114926D01*
X118593873Y-133114925D01*
X117961909Y-132482962D01*
X118025493Y-132465925D01*
X118139507Y-132400099D01*
X118232599Y-132307007D01*
X118298425Y-132192993D01*
X118315462Y-132129410D01*
X118947425Y-132761373D01*
X118947426Y-132761373D01*
X119006098Y-132677582D01*
X119006100Y-132677578D01*
X119105929Y-132463492D01*
X119105933Y-132463483D01*
X119167067Y-132235326D01*
X119167069Y-132235315D01*
X119187657Y-132000001D01*
X119187657Y-131999998D01*
X119167069Y-131764684D01*
X119167067Y-131764673D01*
X119105933Y-131536516D01*
X119105929Y-131536507D01*
X119006100Y-131322423D01*
X119006099Y-131322421D01*
X118947425Y-131238626D01*
X118947425Y-131238625D01*
X118315462Y-131870589D01*
X118298425Y-131807007D01*
X118232599Y-131692993D01*
X118139507Y-131599901D01*
X118025493Y-131534075D01*
X117961910Y-131517037D01*
X118593873Y-130885073D01*
X118593873Y-130885072D01*
X118517905Y-130831880D01*
X118474280Y-130777304D01*
X118467086Y-130707805D01*
X118498608Y-130645451D01*
X118517899Y-130628734D01*
X118703901Y-130498495D01*
X118870995Y-130331401D01*
X119006535Y-130137830D01*
X119106403Y-129923663D01*
X119167563Y-129695408D01*
X119188159Y-129460000D01*
X119185899Y-129434174D01*
X119175285Y-129312852D01*
X119167563Y-129224592D01*
X119114878Y-129027967D01*
X119106405Y-128996344D01*
X119106404Y-128996343D01*
X119106403Y-128996337D01*
X119006535Y-128782171D01*
X119000925Y-128774158D01*
X118878978Y-128600000D01*
X125194540Y-128600000D01*
X125214326Y-128788256D01*
X125214327Y-128788259D01*
X125272818Y-128968277D01*
X125272821Y-128968284D01*
X125367467Y-129132216D01*
X125457063Y-129231722D01*
X125494129Y-129272888D01*
X125647265Y-129384148D01*
X125647270Y-129384151D01*
X125820192Y-129461142D01*
X125820197Y-129461144D01*
X126005354Y-129500500D01*
X126005355Y-129500500D01*
X126194644Y-129500500D01*
X126194646Y-129500500D01*
X126379803Y-129461144D01*
X126552730Y-129384151D01*
X126618548Y-129336331D01*
X126684350Y-129312852D01*
X126752404Y-129328677D01*
X126801100Y-129378782D01*
X126803813Y-129384246D01*
X126806182Y-129389327D01*
X126806185Y-129389332D01*
X126806186Y-129389334D01*
X126898288Y-129538656D01*
X127022344Y-129662712D01*
X127171666Y-129754814D01*
X127216417Y-129769643D01*
X127273861Y-129809414D01*
X127300685Y-129873929D01*
X127288371Y-129942705D01*
X127240828Y-129993906D01*
X127216419Y-130005053D01*
X127155672Y-130025183D01*
X127155663Y-130025187D01*
X127006342Y-130117289D01*
X126882289Y-130241342D01*
X126818787Y-130344296D01*
X126766839Y-130391020D01*
X126697876Y-130402243D01*
X126640363Y-130379517D01*
X126552734Y-130315851D01*
X126552729Y-130315848D01*
X126379807Y-130238857D01*
X126379802Y-130238855D01*
X126234001Y-130207865D01*
X126194646Y-130199500D01*
X126005354Y-130199500D01*
X125972897Y-130206398D01*
X125820197Y-130238855D01*
X125820192Y-130238857D01*
X125647270Y-130315848D01*
X125647265Y-130315851D01*
X125494129Y-130427111D01*
X125367466Y-130567785D01*
X125272821Y-130731715D01*
X125272818Y-130731722D01*
X125214327Y-130911740D01*
X125214326Y-130911744D01*
X125194540Y-131100000D01*
X125214326Y-131288256D01*
X125214327Y-131288259D01*
X125272818Y-131468277D01*
X125272821Y-131468284D01*
X125367467Y-131632216D01*
X125494129Y-131772888D01*
X125647265Y-131884148D01*
X125647270Y-131884151D01*
X125820192Y-131961142D01*
X125820197Y-131961144D01*
X126005354Y-132000500D01*
X126005355Y-132000500D01*
X126194644Y-132000500D01*
X126194646Y-132000500D01*
X126379803Y-131961144D01*
X126552730Y-131884151D01*
X126594810Y-131853577D01*
X126660613Y-131830098D01*
X126728667Y-131845922D01*
X126777363Y-131896027D01*
X126785399Y-131914888D01*
X126790186Y-131929334D01*
X126882288Y-132078656D01*
X127006344Y-132202712D01*
X127155666Y-132294814D01*
X127208417Y-132312294D01*
X127265862Y-132352064D01*
X127292686Y-132416580D01*
X127280372Y-132485356D01*
X127232829Y-132536556D01*
X127208420Y-132547704D01*
X127155672Y-132565183D01*
X127155663Y-132565187D01*
X127006342Y-132657289D01*
X126882289Y-132781342D01*
X126793231Y-132925729D01*
X126741283Y-132972453D01*
X126672320Y-132983676D01*
X126614807Y-132960950D01*
X126552734Y-132915851D01*
X126552729Y-132915848D01*
X126379807Y-132838857D01*
X126379802Y-132838855D01*
X126234001Y-132807865D01*
X126194646Y-132799500D01*
X126005354Y-132799500D01*
X125972897Y-132806398D01*
X125820197Y-132838855D01*
X125820192Y-132838857D01*
X125647270Y-132915848D01*
X125647265Y-132915851D01*
X125494129Y-133027111D01*
X125367466Y-133167785D01*
X125272821Y-133331715D01*
X125272818Y-133331722D01*
X125228036Y-133469548D01*
X125214326Y-133511744D01*
X125194540Y-133700000D01*
X125214326Y-133888256D01*
X125214327Y-133888259D01*
X125272818Y-134068277D01*
X125272821Y-134068284D01*
X125367467Y-134232216D01*
X125430929Y-134302697D01*
X125494129Y-134372888D01*
X125647265Y-134484148D01*
X125647270Y-134484151D01*
X125820192Y-134561142D01*
X125820197Y-134561144D01*
X126005354Y-134600500D01*
X126005355Y-134600500D01*
X126194644Y-134600500D01*
X126194646Y-134600500D01*
X126379803Y-134561144D01*
X126552730Y-134484151D01*
X126614806Y-134439049D01*
X126680612Y-134415569D01*
X126748666Y-134431394D01*
X126793229Y-134474268D01*
X126882288Y-134618656D01*
X127006344Y-134742712D01*
X127155666Y-134834814D01*
X127322203Y-134889999D01*
X127424991Y-134900500D01*
X128225008Y-134900499D01*
X128225016Y-134900498D01*
X128225019Y-134900498D01*
X128281302Y-134894748D01*
X128327797Y-134889999D01*
X128494334Y-134834814D01*
X128643656Y-134742712D01*
X128737675Y-134648692D01*
X128798994Y-134615210D01*
X128868686Y-134620194D01*
X128913034Y-134648695D01*
X129006654Y-134742315D01*
X129155875Y-134834356D01*
X129155880Y-134834358D01*
X129322302Y-134889505D01*
X129322309Y-134889506D01*
X129425019Y-134899999D01*
X129574999Y-134899999D01*
X130075000Y-134899999D01*
X130224972Y-134899999D01*
X130224986Y-134899998D01*
X130327697Y-134889505D01*
X130494119Y-134834358D01*
X130494124Y-134834356D01*
X130643345Y-134742315D01*
X130767315Y-134618345D01*
X130859356Y-134469124D01*
X130859358Y-134469119D01*
X130914505Y-134302697D01*
X130914506Y-134302690D01*
X130924999Y-134199986D01*
X130925000Y-134199973D01*
X130925000Y-133950000D01*
X130075000Y-133950000D01*
X130075000Y-134899999D01*
X129574999Y-134899999D01*
X129575000Y-134899998D01*
X129575000Y-133574000D01*
X129594685Y-133506961D01*
X129647489Y-133461206D01*
X129699000Y-133450000D01*
X130924999Y-133450000D01*
X130924999Y-133200028D01*
X130924998Y-133200013D01*
X130914505Y-133097302D01*
X130859358Y-132930880D01*
X130859356Y-132930875D01*
X130767315Y-132781654D01*
X130643345Y-132657684D01*
X130494124Y-132565643D01*
X130494119Y-132565641D01*
X130439993Y-132547706D01*
X130382548Y-132507934D01*
X130355725Y-132443418D01*
X130368040Y-132374642D01*
X130415583Y-132323442D01*
X130439993Y-132312294D01*
X130494119Y-132294358D01*
X130494124Y-132294356D01*
X130643345Y-132202315D01*
X130767315Y-132078345D01*
X130859356Y-131929124D01*
X130859358Y-131929119D01*
X130914505Y-131762697D01*
X130914506Y-131762690D01*
X130924999Y-131659986D01*
X130925000Y-131659973D01*
X130925000Y-131410000D01*
X129699000Y-131410000D01*
X129631961Y-131390315D01*
X129586206Y-131337511D01*
X129575000Y-131286000D01*
X129575000Y-131034000D01*
X129594685Y-130966961D01*
X129647489Y-130921206D01*
X129699000Y-130910000D01*
X130924999Y-130910000D01*
X130924999Y-130660028D01*
X130924998Y-130660013D01*
X130914505Y-130557302D01*
X130859358Y-130390880D01*
X130859356Y-130390875D01*
X130767315Y-130241654D01*
X130643345Y-130117684D01*
X130494124Y-130025643D01*
X130494119Y-130025641D01*
X130447993Y-130010357D01*
X130390548Y-129970585D01*
X130363725Y-129906069D01*
X130376040Y-129837293D01*
X130423583Y-129786093D01*
X130447993Y-129774945D01*
X130510119Y-129754358D01*
X130510124Y-129754356D01*
X130659345Y-129662315D01*
X130721660Y-129600000D01*
X131194540Y-129600000D01*
X131214326Y-129788256D01*
X131214327Y-129788259D01*
X131272818Y-129968277D01*
X131272821Y-129968284D01*
X131367467Y-130132216D01*
X131483760Y-130261372D01*
X131494129Y-130272888D01*
X131647265Y-130384148D01*
X131647270Y-130384151D01*
X131820192Y-130461142D01*
X131820197Y-130461144D01*
X132005354Y-130500500D01*
X132064548Y-130500500D01*
X132131587Y-130520185D01*
X132152229Y-130536819D01*
X132786016Y-131170606D01*
X132786045Y-131170637D01*
X132876264Y-131260856D01*
X132876267Y-131260858D01*
X132929287Y-131296284D01*
X132929288Y-131296286D01*
X132934847Y-131300000D01*
X132978715Y-131329312D01*
X133039069Y-131354311D01*
X133092548Y-131376463D01*
X133122653Y-131382451D01*
X133213391Y-131400499D01*
X133213392Y-131400500D01*
X133213393Y-131400500D01*
X133213394Y-131400500D01*
X135207983Y-131400500D01*
X135275022Y-131420185D01*
X135320777Y-131472989D01*
X135325686Y-131485489D01*
X135343750Y-131540000D01*
X135345186Y-131544333D01*
X135345187Y-131544336D01*
X135364924Y-131576335D01*
X135437288Y-131693656D01*
X135561344Y-131817712D01*
X135710666Y-131909814D01*
X135877203Y-131964999D01*
X135979991Y-131975500D01*
X136780008Y-131975499D01*
X136780016Y-131975498D01*
X136780019Y-131975498D01*
X136836302Y-131969748D01*
X136882797Y-131964999D01*
X137049334Y-131909814D01*
X137198656Y-131817712D01*
X137292319Y-131724049D01*
X137353642Y-131690564D01*
X137423334Y-131695548D01*
X137467681Y-131724049D01*
X137561344Y-131817712D01*
X137695597Y-131900519D01*
X137742321Y-131952465D01*
X137754500Y-132006057D01*
X137754500Y-133841611D01*
X137778535Y-133962444D01*
X137778540Y-133962461D01*
X137825684Y-134076278D01*
X137825685Y-134076280D01*
X137825688Y-134076286D01*
X137841200Y-134099500D01*
X137894141Y-134178733D01*
X137985586Y-134270178D01*
X137985608Y-134270198D01*
X138461038Y-134745628D01*
X138494523Y-134806951D01*
X138496678Y-134820347D01*
X138498199Y-134834814D01*
X138514326Y-134988256D01*
X138514327Y-134988259D01*
X138572818Y-135168277D01*
X138572821Y-135168284D01*
X138667467Y-135332216D01*
X138760071Y-135435063D01*
X138794129Y-135472888D01*
X138947265Y-135584148D01*
X138947270Y-135584151D01*
X139120192Y-135661142D01*
X139120197Y-135661144D01*
X139305354Y-135700500D01*
X139305355Y-135700500D01*
X139494644Y-135700500D01*
X139494646Y-135700500D01*
X139679803Y-135661144D01*
X139852730Y-135584151D01*
X140005871Y-135472888D01*
X140132533Y-135332216D01*
X140227179Y-135168284D01*
X140285674Y-134988256D01*
X140305460Y-134800000D01*
X140285674Y-134611744D01*
X140227179Y-134431716D01*
X140132533Y-134267784D01*
X140005871Y-134127112D01*
X139992095Y-134117103D01*
X139852734Y-134015851D01*
X139852729Y-134015848D01*
X139679807Y-133938857D01*
X139679802Y-133938855D01*
X139534001Y-133907865D01*
X139494646Y-133899500D01*
X139494645Y-133899500D01*
X139435452Y-133899500D01*
X139368413Y-133879815D01*
X139347771Y-133863181D01*
X139041819Y-133557229D01*
X139008334Y-133495906D01*
X139005500Y-133469548D01*
X139005500Y-132006057D01*
X139025185Y-131939018D01*
X139064401Y-131900520D01*
X139198656Y-131817712D01*
X139322712Y-131693656D01*
X139414814Y-131544334D01*
X139469999Y-131377797D01*
X139480500Y-131275009D01*
X139480499Y-130274992D01*
X139477093Y-130241654D01*
X139469999Y-130172203D01*
X139469998Y-130172200D01*
X139461119Y-130145405D01*
X139414814Y-130005666D01*
X139322712Y-129856344D01*
X139198656Y-129732288D01*
X139064402Y-129649480D01*
X139017679Y-129597533D01*
X139005500Y-129543942D01*
X139005500Y-128330452D01*
X139025185Y-128263413D01*
X139041819Y-128242771D01*
X139547772Y-127736819D01*
X139609095Y-127703334D01*
X139635453Y-127700500D01*
X139694644Y-127700500D01*
X139694646Y-127700500D01*
X139879803Y-127661144D01*
X140052730Y-127584151D01*
X140205871Y-127472888D01*
X140208788Y-127469647D01*
X140211600Y-127466526D01*
X140271087Y-127429879D01*
X140303748Y-127425500D01*
X141661607Y-127425500D01*
X141722029Y-127413481D01*
X141782452Y-127401463D01*
X141832496Y-127380734D01*
X141896286Y-127354312D01*
X141947509Y-127320084D01*
X141998733Y-127285858D01*
X142085858Y-127198733D01*
X142085859Y-127198731D01*
X142092925Y-127191665D01*
X142092928Y-127191661D01*
X142298729Y-126985860D01*
X142298733Y-126985858D01*
X142385858Y-126898733D01*
X142435826Y-126823951D01*
X142454312Y-126796286D01*
X142501463Y-126682451D01*
X142525500Y-126561607D01*
X142525500Y-126438393D01*
X142525500Y-119210451D01*
X142545185Y-119143412D01*
X142561815Y-119122774D01*
X143262819Y-118421769D01*
X143324142Y-118388285D01*
X143393834Y-118393269D01*
X143449767Y-118435141D01*
X143474184Y-118500605D01*
X143474500Y-118509451D01*
X143474500Y-131201312D01*
X143454815Y-131268351D01*
X143442650Y-131284284D01*
X143367466Y-131367784D01*
X143272821Y-131531715D01*
X143272818Y-131531722D01*
X143219588Y-131695548D01*
X143214326Y-131711744D01*
X143194540Y-131900000D01*
X143214326Y-132088256D01*
X143214327Y-132088259D01*
X143272818Y-132268277D01*
X143272821Y-132268284D01*
X143367467Y-132432216D01*
X143471453Y-132547704D01*
X143494129Y-132572888D01*
X143647265Y-132684148D01*
X143647270Y-132684151D01*
X143820192Y-132761142D01*
X143820197Y-132761144D01*
X144005354Y-132800500D01*
X144005355Y-132800500D01*
X144168075Y-132800500D01*
X144235114Y-132820185D01*
X144280869Y-132872989D01*
X144290813Y-132942147D01*
X144261788Y-133005703D01*
X144239198Y-133026075D01*
X144188597Y-133061505D01*
X144021505Y-133228597D01*
X143885965Y-133422169D01*
X143885964Y-133422171D01*
X143786098Y-133636335D01*
X143786094Y-133636344D01*
X143724938Y-133864586D01*
X143724936Y-133864596D01*
X143704341Y-134099999D01*
X143704341Y-134100000D01*
X143724936Y-134335403D01*
X143724938Y-134335413D01*
X143786094Y-134563655D01*
X143786096Y-134563659D01*
X143786097Y-134563663D01*
X143866004Y-134735023D01*
X143885965Y-134777830D01*
X143885967Y-134777834D01*
X143994281Y-134932521D01*
X144021505Y-134971401D01*
X144188599Y-135138495D01*
X144285384Y-135206265D01*
X144382165Y-135274032D01*
X144382167Y-135274033D01*
X144382170Y-135274035D01*
X144596337Y-135373903D01*
X144596343Y-135373904D01*
X144596344Y-135373905D01*
X144651285Y-135388626D01*
X144824592Y-135435063D01*
X145001034Y-135450500D01*
X145059999Y-135455659D01*
X145060000Y-135455659D01*
X145060001Y-135455659D01*
X145118966Y-135450500D01*
X145295408Y-135435063D01*
X145523663Y-135373903D01*
X145623098Y-135327535D01*
X145692172Y-135317044D01*
X145755956Y-135345563D01*
X145794196Y-135404040D01*
X145799500Y-135439918D01*
X145799500Y-135886610D01*
X145823535Y-136007444D01*
X145823538Y-136007454D01*
X145837347Y-136040792D01*
X145837347Y-136040793D01*
X145870685Y-136121281D01*
X145870688Y-136121286D01*
X145892754Y-136154309D01*
X145892755Y-136154312D01*
X145892756Y-136154312D01*
X145939141Y-136223732D01*
X145939144Y-136223736D01*
X146030586Y-136315178D01*
X146030608Y-136315198D01*
X146511016Y-136795606D01*
X146511045Y-136795637D01*
X146601264Y-136885856D01*
X146601267Y-136885858D01*
X146678190Y-136937256D01*
X146703710Y-136954309D01*
X146703712Y-136954310D01*
X146703715Y-136954312D01*
X146770396Y-136981931D01*
X146770398Y-136981933D01*
X146810640Y-136998601D01*
X146817548Y-137001463D01*
X146877971Y-137013481D01*
X146938393Y-137025500D01*
X154361607Y-137025500D01*
X154422029Y-137013481D01*
X154482452Y-137001463D01*
X154482455Y-137001461D01*
X154482458Y-137001461D01*
X154515787Y-136987654D01*
X154515786Y-136987654D01*
X154515792Y-136987652D01*
X154596286Y-136954312D01*
X154647509Y-136920084D01*
X154698733Y-136885858D01*
X154785858Y-136798733D01*
X154785858Y-136798731D01*
X154796066Y-136788524D01*
X154796067Y-136788521D01*
X155705857Y-135878734D01*
X155774311Y-135776286D01*
X155821463Y-135662452D01*
X155845500Y-135541607D01*
X155845500Y-135418394D01*
X155845500Y-135375226D01*
X155865185Y-135308187D01*
X155898374Y-135273654D01*
X156091401Y-135138495D01*
X156258495Y-134971401D01*
X156388425Y-134785842D01*
X156443002Y-134742217D01*
X156512500Y-134735023D01*
X156574855Y-134766546D01*
X156591575Y-134785842D01*
X156721500Y-134971395D01*
X156721505Y-134971401D01*
X156888599Y-135138495D01*
X156985384Y-135206265D01*
X157082165Y-135274032D01*
X157082167Y-135274033D01*
X157082170Y-135274035D01*
X157296337Y-135373903D01*
X157296343Y-135373904D01*
X157296344Y-135373905D01*
X157351285Y-135388626D01*
X157524592Y-135435063D01*
X157701034Y-135450500D01*
X157759999Y-135455659D01*
X157760000Y-135455659D01*
X157760001Y-135455659D01*
X157818966Y-135450500D01*
X157995408Y-135435063D01*
X158223663Y-135373903D01*
X158437830Y-135274035D01*
X158631401Y-135138495D01*
X158753329Y-135016566D01*
X158814648Y-134983084D01*
X158884340Y-134988068D01*
X158940274Y-135029939D01*
X158957189Y-135060917D01*
X159006202Y-135192328D01*
X159006206Y-135192335D01*
X159092452Y-135307544D01*
X159092455Y-135307547D01*
X159207664Y-135393793D01*
X159207671Y-135393797D01*
X159342517Y-135444091D01*
X159342516Y-135444091D01*
X159349444Y-135444835D01*
X159402127Y-135450500D01*
X161197872Y-135450499D01*
X161257483Y-135444091D01*
X161392331Y-135393796D01*
X161507546Y-135307546D01*
X161593796Y-135192331D01*
X161644091Y-135057483D01*
X161650500Y-134997873D01*
X161650499Y-133202128D01*
X161644091Y-133142517D01*
X161642810Y-133139083D01*
X161593797Y-133007671D01*
X161593793Y-133007664D01*
X161507547Y-132892455D01*
X161507544Y-132892452D01*
X161392335Y-132806206D01*
X161392328Y-132806202D01*
X161257482Y-132755908D01*
X161257483Y-132755908D01*
X161197883Y-132749501D01*
X161197881Y-132749500D01*
X161197873Y-132749500D01*
X161197864Y-132749500D01*
X159402129Y-132749500D01*
X159402123Y-132749501D01*
X159342516Y-132755908D01*
X159207671Y-132806202D01*
X159207664Y-132806206D01*
X159092455Y-132892452D01*
X159092452Y-132892455D01*
X159006206Y-133007664D01*
X159006203Y-133007669D01*
X158957189Y-133139083D01*
X158915317Y-133195016D01*
X158849853Y-133219433D01*
X158781580Y-133204581D01*
X158753326Y-133183430D01*
X158631402Y-133061506D01*
X158631395Y-133061501D01*
X158437834Y-132925967D01*
X158437830Y-132925965D01*
X158423610Y-132919334D01*
X158223663Y-132826097D01*
X158223659Y-132826096D01*
X158223655Y-132826094D01*
X157995413Y-132764938D01*
X157995403Y-132764936D01*
X157760001Y-132744341D01*
X157759999Y-132744341D01*
X157524596Y-132764936D01*
X157524586Y-132764938D01*
X157296344Y-132826094D01*
X157296337Y-132826096D01*
X157296337Y-132826097D01*
X157282816Y-132832401D01*
X157082171Y-132925964D01*
X157082169Y-132925965D01*
X156888597Y-133061505D01*
X156721505Y-133228597D01*
X156591575Y-133414158D01*
X156536998Y-133457783D01*
X156467500Y-133464977D01*
X156405145Y-133433454D01*
X156388425Y-133414158D01*
X156258494Y-133228597D01*
X156091402Y-133061506D01*
X156091395Y-133061501D01*
X155897834Y-132925967D01*
X155897830Y-132925965D01*
X155883610Y-132919334D01*
X155683663Y-132826097D01*
X155683659Y-132826096D01*
X155683655Y-132826094D01*
X155455413Y-132764938D01*
X155455403Y-132764936D01*
X155220001Y-132744341D01*
X155219999Y-132744341D01*
X154984596Y-132764936D01*
X154984586Y-132764938D01*
X154756344Y-132826094D01*
X154756337Y-132826096D01*
X154756337Y-132826097D01*
X154742816Y-132832401D01*
X154542171Y-132925964D01*
X154542169Y-132925965D01*
X154348597Y-133061505D01*
X154181505Y-133228597D01*
X154051575Y-133414158D01*
X153996998Y-133457783D01*
X153927500Y-133464977D01*
X153865145Y-133433454D01*
X153848425Y-133414158D01*
X153718494Y-133228597D01*
X153551402Y-133061506D01*
X153551395Y-133061501D01*
X153357834Y-132925967D01*
X153343605Y-132919332D01*
X153246074Y-132873852D01*
X153193636Y-132827679D01*
X153174484Y-132760485D01*
X153194700Y-132693604D01*
X153210794Y-132673794D01*
X154398729Y-131485860D01*
X154398733Y-131485858D01*
X154485858Y-131398733D01*
X154523464Y-131342452D01*
X154554312Y-131296286D01*
X154601463Y-131182451D01*
X154625500Y-131061607D01*
X154625500Y-130999997D01*
X162644579Y-130999997D01*
X162644579Y-131000002D01*
X162664248Y-131362782D01*
X162664250Y-131362799D01*
X162723024Y-131721303D01*
X162723030Y-131721329D01*
X162820221Y-132071381D01*
X162820226Y-132071396D01*
X162954700Y-132408901D01*
X162954706Y-132408913D01*
X163124878Y-132729892D01*
X163124881Y-132729897D01*
X163124883Y-132729900D01*
X163190107Y-132826098D01*
X163328772Y-133030613D01*
X163544692Y-133284814D01*
X163563979Y-133307521D01*
X163827746Y-133557375D01*
X164116981Y-133777245D01*
X164428292Y-133964555D01*
X164428294Y-133964556D01*
X164428296Y-133964557D01*
X164428300Y-133964559D01*
X164758020Y-134117103D01*
X164758031Y-134117108D01*
X165102330Y-134233116D01*
X165457153Y-134311218D01*
X165818341Y-134350500D01*
X165818347Y-134350500D01*
X166181653Y-134350500D01*
X166181659Y-134350500D01*
X166542847Y-134311218D01*
X166897670Y-134233116D01*
X167241969Y-134117108D01*
X167571708Y-133964555D01*
X167883019Y-133777245D01*
X168172254Y-133557375D01*
X168436021Y-133307521D01*
X168671227Y-133030614D01*
X168875117Y-132729900D01*
X169045298Y-132408905D01*
X169179775Y-132071391D01*
X169188491Y-132040001D01*
X169227218Y-131900518D01*
X169276973Y-131721316D01*
X169308056Y-131531716D01*
X169335749Y-131362799D01*
X169335751Y-131362782D01*
X169335999Y-131358219D01*
X169351047Y-131080666D01*
X169355421Y-131000002D01*
X169355421Y-130999997D01*
X169339979Y-130715187D01*
X169335751Y-130637215D01*
X169334187Y-130627676D01*
X169276975Y-130278696D01*
X169276974Y-130278695D01*
X169276973Y-130278684D01*
X169233456Y-130121949D01*
X169179778Y-129928618D01*
X169179773Y-129928603D01*
X169064858Y-129640187D01*
X169045298Y-129591095D01*
X168938217Y-129389119D01*
X168875121Y-129270107D01*
X168875119Y-129270104D01*
X168875117Y-129270100D01*
X168671227Y-128969386D01*
X168436021Y-128692479D01*
X168172254Y-128442625D01*
X168172244Y-128442617D01*
X168075595Y-128369147D01*
X167883019Y-128222755D01*
X167571708Y-128035445D01*
X167571707Y-128035444D01*
X167571703Y-128035442D01*
X167571699Y-128035440D01*
X167241979Y-127882896D01*
X167241974Y-127882894D01*
X167241969Y-127882892D01*
X167042990Y-127815848D01*
X166897669Y-127766883D01*
X166542845Y-127688781D01*
X166181660Y-127649500D01*
X166181659Y-127649500D01*
X165818341Y-127649500D01*
X165818339Y-127649500D01*
X165457154Y-127688781D01*
X165102330Y-127766883D01*
X164853674Y-127850666D01*
X164758031Y-127882892D01*
X164758028Y-127882893D01*
X164758020Y-127882896D01*
X164428300Y-128035440D01*
X164428296Y-128035442D01*
X164268478Y-128131602D01*
X164116981Y-128222755D01*
X164078757Y-128251812D01*
X163827755Y-128442617D01*
X163827745Y-128442625D01*
X163563978Y-128692479D01*
X163328772Y-128969386D01*
X163124884Y-129270098D01*
X163124878Y-129270107D01*
X162954706Y-129591086D01*
X162954700Y-129591098D01*
X162820226Y-129928603D01*
X162820221Y-129928618D01*
X162723030Y-130278670D01*
X162723024Y-130278696D01*
X162664250Y-130637200D01*
X162664248Y-130637217D01*
X162644579Y-130999997D01*
X154625500Y-130999997D01*
X154625500Y-130938393D01*
X154625500Y-128765402D01*
X154645185Y-128698363D01*
X154697989Y-128652608D01*
X154767147Y-128642664D01*
X154799936Y-128652123D01*
X154820197Y-128661144D01*
X155005354Y-128700500D01*
X155005355Y-128700500D01*
X155194644Y-128700500D01*
X155194646Y-128700500D01*
X155379803Y-128661144D01*
X155552730Y-128584151D01*
X155705871Y-128472888D01*
X155832533Y-128332216D01*
X155927179Y-128168284D01*
X155985674Y-127988256D01*
X156005460Y-127800000D01*
X155985674Y-127611744D01*
X155927179Y-127431716D01*
X155927178Y-127431714D01*
X155867113Y-127327677D01*
X155850500Y-127265677D01*
X155850500Y-118610756D01*
X155870185Y-118543717D01*
X155886815Y-118523079D01*
X156767729Y-117642165D01*
X156767733Y-117642163D01*
X156854858Y-117555038D01*
X156923311Y-117452591D01*
X156970463Y-117338757D01*
X156982458Y-117278452D01*
X156991656Y-117232215D01*
X156994499Y-117217915D01*
X156994500Y-117217912D01*
X156994500Y-115839999D01*
X160244341Y-115839999D01*
X160244341Y-115840000D01*
X160264936Y-116075403D01*
X160264938Y-116075413D01*
X160326094Y-116303655D01*
X160326096Y-116303659D01*
X160326097Y-116303663D01*
X160400797Y-116463857D01*
X160425965Y-116517830D01*
X160425967Y-116517834D01*
X160561501Y-116711395D01*
X160561506Y-116711402D01*
X160728597Y-116878493D01*
X160728603Y-116878498D01*
X160914594Y-117008730D01*
X160958219Y-117063307D01*
X160965413Y-117132805D01*
X160933890Y-117195160D01*
X160914595Y-117211880D01*
X160728922Y-117341890D01*
X160728920Y-117341891D01*
X160561891Y-117508920D01*
X160561886Y-117508926D01*
X160426400Y-117702420D01*
X160426399Y-117702422D01*
X160326570Y-117916507D01*
X160326567Y-117916513D01*
X160269364Y-118129999D01*
X160269364Y-118130000D01*
X161166988Y-118130000D01*
X161134075Y-118187007D01*
X161100000Y-118314174D01*
X161100000Y-118445826D01*
X161134075Y-118572993D01*
X161166988Y-118630000D01*
X160269364Y-118630000D01*
X160326567Y-118843486D01*
X160326570Y-118843492D01*
X160426399Y-119057578D01*
X160561894Y-119251082D01*
X160728917Y-119418105D01*
X160914595Y-119548119D01*
X160958219Y-119602696D01*
X160965412Y-119672195D01*
X160933890Y-119734549D01*
X160914595Y-119751269D01*
X160728594Y-119881508D01*
X160561505Y-120048597D01*
X160425965Y-120242169D01*
X160425964Y-120242171D01*
X160326098Y-120456335D01*
X160326094Y-120456344D01*
X160264938Y-120684586D01*
X160264936Y-120684596D01*
X160244341Y-120919999D01*
X160244341Y-120920000D01*
X160264936Y-121155403D01*
X160264938Y-121155413D01*
X160326094Y-121383655D01*
X160326096Y-121383659D01*
X160326097Y-121383663D01*
X160425965Y-121597830D01*
X160425967Y-121597834D01*
X160561501Y-121791395D01*
X160561506Y-121791402D01*
X160728597Y-121958493D01*
X160728603Y-121958498D01*
X160914158Y-122088425D01*
X160957783Y-122143002D01*
X160964977Y-122212500D01*
X160933454Y-122274855D01*
X160914158Y-122291575D01*
X160728597Y-122421505D01*
X160561505Y-122588597D01*
X160425965Y-122782169D01*
X160425964Y-122782171D01*
X160326098Y-122996335D01*
X160326094Y-122996344D01*
X160264938Y-123224586D01*
X160264936Y-123224596D01*
X160244341Y-123459999D01*
X160244341Y-123460000D01*
X160264936Y-123695403D01*
X160264938Y-123695413D01*
X160326094Y-123923655D01*
X160326096Y-123923659D01*
X160326097Y-123923663D01*
X160419273Y-124123478D01*
X160425965Y-124137830D01*
X160425967Y-124137834D01*
X160500770Y-124244663D01*
X160561505Y-124331401D01*
X160728599Y-124498495D01*
X160750740Y-124513998D01*
X160922165Y-124634032D01*
X160922167Y-124634033D01*
X160922170Y-124634035D01*
X161136337Y-124733903D01*
X161364592Y-124795063D01*
X161552918Y-124811539D01*
X161599999Y-124815659D01*
X161600000Y-124815659D01*
X161600001Y-124815659D01*
X161639234Y-124812226D01*
X161835408Y-124795063D01*
X162063663Y-124733903D01*
X162277830Y-124634035D01*
X162471401Y-124498495D01*
X162638495Y-124331401D01*
X162774035Y-124137830D01*
X162873903Y-123923663D01*
X162935063Y-123695408D01*
X162955659Y-123460000D01*
X162935063Y-123224592D01*
X162873903Y-122996337D01*
X162774035Y-122782171D01*
X162746500Y-122742846D01*
X162638494Y-122588597D01*
X162471402Y-122421506D01*
X162471396Y-122421501D01*
X162285842Y-122291575D01*
X162242217Y-122236998D01*
X162235023Y-122167500D01*
X162266546Y-122105145D01*
X162285842Y-122088425D01*
X162445534Y-121976607D01*
X162471401Y-121958495D01*
X162638495Y-121791401D01*
X162774035Y-121597830D01*
X162873903Y-121383663D01*
X162935063Y-121155408D01*
X162955659Y-120920000D01*
X162935063Y-120684592D01*
X162873903Y-120456337D01*
X162774035Y-120242171D01*
X162638495Y-120048599D01*
X162638494Y-120048597D01*
X162471402Y-119881506D01*
X162471401Y-119881505D01*
X162285405Y-119751269D01*
X162241781Y-119696692D01*
X162234588Y-119627193D01*
X162266110Y-119564839D01*
X162285405Y-119548119D01*
X162471082Y-119418105D01*
X162638105Y-119251082D01*
X162773600Y-119057578D01*
X162873429Y-118843492D01*
X162873432Y-118843486D01*
X162930636Y-118630000D01*
X162033012Y-118630000D01*
X162065925Y-118572993D01*
X162100000Y-118445826D01*
X162100000Y-118314174D01*
X162065925Y-118187007D01*
X162033012Y-118130000D01*
X162930636Y-118130000D01*
X162930635Y-118129999D01*
X162873432Y-117916513D01*
X162873429Y-117916507D01*
X162773600Y-117702422D01*
X162773599Y-117702420D01*
X162638113Y-117508926D01*
X162638108Y-117508920D01*
X162471078Y-117341890D01*
X162285405Y-117211879D01*
X162241780Y-117157302D01*
X162234588Y-117087804D01*
X162266110Y-117025449D01*
X162285406Y-117008730D01*
X162334640Y-116974256D01*
X162471401Y-116878495D01*
X162638495Y-116711401D01*
X162774035Y-116517830D01*
X162873903Y-116303663D01*
X162935063Y-116075408D01*
X162955659Y-115840000D01*
X162935063Y-115604592D01*
X162873903Y-115376337D01*
X162774035Y-115162171D01*
X162746303Y-115122566D01*
X162638496Y-114968600D01*
X162591388Y-114921492D01*
X162516567Y-114846671D01*
X162483084Y-114785351D01*
X162488068Y-114715659D01*
X162529939Y-114659725D01*
X162560915Y-114642810D01*
X162692331Y-114593796D01*
X162807546Y-114507546D01*
X162893796Y-114392331D01*
X162944091Y-114257483D01*
X162950500Y-114197873D01*
X162950499Y-112402128D01*
X162944091Y-112342517D01*
X162941432Y-112335389D01*
X162893797Y-112207671D01*
X162893793Y-112207664D01*
X162807547Y-112092455D01*
X162807544Y-112092452D01*
X162692335Y-112006206D01*
X162692328Y-112006202D01*
X162557482Y-111955908D01*
X162557483Y-111955908D01*
X162497883Y-111949501D01*
X162497881Y-111949500D01*
X162497873Y-111949500D01*
X162497864Y-111949500D01*
X160702129Y-111949500D01*
X160702123Y-111949501D01*
X160642516Y-111955908D01*
X160507671Y-112006202D01*
X160507664Y-112006206D01*
X160392455Y-112092452D01*
X160392452Y-112092455D01*
X160306206Y-112207664D01*
X160306202Y-112207671D01*
X160255908Y-112342517D01*
X160250364Y-112394091D01*
X160249501Y-112402123D01*
X160249500Y-112402135D01*
X160249500Y-114197870D01*
X160249501Y-114197876D01*
X160255908Y-114257483D01*
X160306202Y-114392328D01*
X160306206Y-114392335D01*
X160392452Y-114507544D01*
X160392455Y-114507547D01*
X160507664Y-114593793D01*
X160507671Y-114593797D01*
X160639081Y-114642810D01*
X160695015Y-114684681D01*
X160719432Y-114750145D01*
X160704580Y-114818418D01*
X160683430Y-114846673D01*
X160561503Y-114968600D01*
X160425965Y-115162169D01*
X160425964Y-115162171D01*
X160326098Y-115376335D01*
X160326094Y-115376344D01*
X160264938Y-115604586D01*
X160264936Y-115604596D01*
X160244341Y-115839999D01*
X156994500Y-115839999D01*
X156994500Y-108698687D01*
X157014185Y-108631648D01*
X157026350Y-108615715D01*
X157044891Y-108595122D01*
X157101533Y-108532216D01*
X157196179Y-108368284D01*
X157254674Y-108188256D01*
X157274460Y-108000000D01*
X157254674Y-107811744D01*
X157196179Y-107631716D01*
X157101533Y-107467784D01*
X156974871Y-107327112D01*
X156962127Y-107317853D01*
X156821734Y-107215851D01*
X156821729Y-107215848D01*
X156648807Y-107138857D01*
X156648802Y-107138855D01*
X156503001Y-107107865D01*
X156463646Y-107099500D01*
X156274354Y-107099500D01*
X156241897Y-107106398D01*
X156089197Y-107138855D01*
X156089192Y-107138857D01*
X155916270Y-107215848D01*
X155916265Y-107215851D01*
X155763129Y-107327111D01*
X155636468Y-107467783D01*
X155636466Y-107467784D01*
X155541821Y-107631715D01*
X155541818Y-107631722D01*
X155483327Y-107811740D01*
X155483326Y-107811744D01*
X155463540Y-108000000D01*
X155483326Y-108188256D01*
X155483327Y-108188259D01*
X155541818Y-108368277D01*
X155541821Y-108368284D01*
X155636467Y-108532216D01*
X155659127Y-108557382D01*
X155711650Y-108615715D01*
X155741880Y-108678706D01*
X155743500Y-108698687D01*
X155743500Y-116845852D01*
X155723815Y-116912891D01*
X155707181Y-116933533D01*
X155296690Y-117344023D01*
X155235367Y-117377508D01*
X155165675Y-117372524D01*
X155116860Y-117339315D01*
X155105877Y-117327117D01*
X155105869Y-117327110D01*
X154952734Y-117215851D01*
X154952729Y-117215848D01*
X154779807Y-117138857D01*
X154779802Y-117138855D01*
X154597840Y-117100179D01*
X154594646Y-117099500D01*
X154405354Y-117099500D01*
X154405349Y-117099500D01*
X154398886Y-117100179D01*
X154398703Y-117098440D01*
X154337586Y-117093763D01*
X154281862Y-117051613D01*
X154274111Y-117039799D01*
X154261447Y-117017865D01*
X154232533Y-116967784D01*
X154105871Y-116827112D01*
X154084719Y-116811744D01*
X153952734Y-116715851D01*
X153952729Y-116715848D01*
X153779807Y-116638857D01*
X153779802Y-116638855D01*
X153634001Y-116607865D01*
X153594646Y-116599500D01*
X153405354Y-116599500D01*
X153372897Y-116606398D01*
X153220197Y-116638855D01*
X153220192Y-116638857D01*
X153047270Y-116715848D01*
X153047267Y-116715850D01*
X153011241Y-116742024D01*
X152945434Y-116765502D01*
X152877380Y-116749675D01*
X152846208Y-116724676D01*
X152840707Y-116718567D01*
X152780871Y-116652112D01*
X152762626Y-116638856D01*
X152627734Y-116540851D01*
X152627729Y-116540848D01*
X152454807Y-116463857D01*
X152454802Y-116463855D01*
X152309001Y-116432865D01*
X152269646Y-116424500D01*
X152080354Y-116424500D01*
X152040999Y-116432865D01*
X151895198Y-116463855D01*
X151895197Y-116463855D01*
X151858857Y-116480035D01*
X151789607Y-116489318D01*
X151726331Y-116459688D01*
X151716274Y-116449727D01*
X151707966Y-116440500D01*
X151605871Y-116327112D01*
X151591265Y-116316500D01*
X151452734Y-116215851D01*
X151452729Y-116215848D01*
X151279807Y-116138857D01*
X151279802Y-116138855D01*
X151131305Y-116107292D01*
X151094646Y-116099500D01*
X150905354Y-116099500D01*
X150872897Y-116106398D01*
X150720197Y-116138855D01*
X150720192Y-116138857D01*
X150547270Y-116215848D01*
X150547265Y-116215851D01*
X150394132Y-116327109D01*
X150394129Y-116327111D01*
X150394129Y-116327112D01*
X150342148Y-116384841D01*
X150282663Y-116421489D01*
X150212806Y-116420158D01*
X150157851Y-116384841D01*
X150105871Y-116327112D01*
X150091265Y-116316500D01*
X149952734Y-116215851D01*
X149952729Y-116215848D01*
X149779807Y-116138857D01*
X149779802Y-116138855D01*
X149631305Y-116107292D01*
X149594646Y-116099500D01*
X149405354Y-116099500D01*
X149372897Y-116106398D01*
X149220197Y-116138855D01*
X149220192Y-116138857D01*
X149047270Y-116215848D01*
X149047265Y-116215851D01*
X148894129Y-116327111D01*
X148767466Y-116467785D01*
X148672821Y-116631715D01*
X148672818Y-116631722D01*
X148619942Y-116794459D01*
X148614326Y-116811744D01*
X148595753Y-116988462D01*
X148569168Y-117053076D01*
X148511871Y-117093061D01*
X148472432Y-117099500D01*
X148305354Y-117099500D01*
X148302160Y-117100179D01*
X148120197Y-117138855D01*
X148120192Y-117138857D01*
X147947271Y-117215848D01*
X147822885Y-117306219D01*
X147757078Y-117329698D01*
X147689024Y-117313872D01*
X147677115Y-117306219D01*
X147575256Y-117232215D01*
X147552730Y-117215849D01*
X147552728Y-117215848D01*
X147552729Y-117215848D01*
X147379807Y-117138857D01*
X147379802Y-117138855D01*
X147197840Y-117100179D01*
X147194646Y-117099500D01*
X147005354Y-117099500D01*
X147002160Y-117100179D01*
X146820197Y-117138855D01*
X146820192Y-117138857D01*
X146647270Y-117215848D01*
X146647265Y-117215851D01*
X146494129Y-117327111D01*
X146367466Y-117467785D01*
X146272821Y-117631715D01*
X146272818Y-117631722D01*
X146225360Y-117777784D01*
X146214326Y-117811744D01*
X146207152Y-117880000D01*
X146196678Y-117979651D01*
X146170093Y-118044266D01*
X146161039Y-118054370D01*
X146026270Y-118189139D01*
X146026267Y-118189142D01*
X145988703Y-118226706D01*
X145939142Y-118276266D01*
X145925304Y-118296976D01*
X145911559Y-118317548D01*
X145908152Y-118322647D01*
X145870688Y-118378712D01*
X145864659Y-118393269D01*
X145841782Y-118448500D01*
X145827670Y-118482567D01*
X145823538Y-118492545D01*
X145823535Y-118492553D01*
X145799500Y-118613389D01*
X145799500Y-123751773D01*
X145779815Y-123818812D01*
X145727011Y-123864567D01*
X145657853Y-123874511D01*
X145602616Y-123852092D01*
X145552733Y-123815851D01*
X145552729Y-123815848D01*
X145379807Y-123738857D01*
X145379802Y-123738855D01*
X145234001Y-123707865D01*
X145194646Y-123699500D01*
X145005354Y-123699500D01*
X145005352Y-123699500D01*
X144875280Y-123727147D01*
X144805613Y-123721831D01*
X144749880Y-123679693D01*
X144725775Y-123614113D01*
X144725500Y-123605857D01*
X144725500Y-118498687D01*
X144745185Y-118431648D01*
X144757350Y-118415715D01*
X144782048Y-118388285D01*
X144832533Y-118332216D01*
X144927179Y-118168284D01*
X144985674Y-117988256D01*
X145005460Y-117800000D01*
X144985674Y-117611744D01*
X144927179Y-117431716D01*
X144858060Y-117311999D01*
X144841588Y-117244100D01*
X144858061Y-117188000D01*
X144865530Y-117175063D01*
X144927179Y-117068284D01*
X144985674Y-116888256D01*
X145005460Y-116700000D01*
X144985674Y-116511744D01*
X144927179Y-116331716D01*
X144832533Y-116167784D01*
X144705871Y-116027112D01*
X144705870Y-116027111D01*
X144552734Y-115915851D01*
X144552729Y-115915848D01*
X144379807Y-115838857D01*
X144379802Y-115838855D01*
X144212773Y-115803353D01*
X144194646Y-115799500D01*
X144005354Y-115799500D01*
X143987227Y-115803353D01*
X143820197Y-115838855D01*
X143820192Y-115838857D01*
X143647270Y-115915848D01*
X143647265Y-115915851D01*
X143494129Y-116027111D01*
X143367466Y-116167785D01*
X143272821Y-116331715D01*
X143272818Y-116331722D01*
X143214327Y-116511740D01*
X143214326Y-116511744D01*
X143211267Y-116540848D01*
X143196678Y-116679651D01*
X143170093Y-116744266D01*
X143161038Y-116754370D01*
X141501270Y-118414139D01*
X141414144Y-118501264D01*
X141414138Y-118501272D01*
X141345690Y-118603708D01*
X141345689Y-118603710D01*
X141317699Y-118671286D01*
X141298538Y-118717543D01*
X141298535Y-118717553D01*
X141287361Y-118773727D01*
X141287362Y-118773728D01*
X141282878Y-118796278D01*
X141282876Y-118796287D01*
X141274500Y-118838392D01*
X141274500Y-126050500D01*
X141254815Y-126117539D01*
X141202011Y-126163294D01*
X141150500Y-126174500D01*
X140303748Y-126174500D01*
X140236709Y-126154815D01*
X140211600Y-126133474D01*
X140205873Y-126127114D01*
X140205869Y-126127110D01*
X140052734Y-126015851D01*
X140052729Y-126015848D01*
X139879807Y-125938857D01*
X139879802Y-125938855D01*
X139734001Y-125907865D01*
X139694646Y-125899500D01*
X139505354Y-125899500D01*
X139472897Y-125906398D01*
X139320197Y-125938855D01*
X139320192Y-125938857D01*
X139147270Y-126015848D01*
X139147265Y-126015851D01*
X138994129Y-126127111D01*
X138867466Y-126267785D01*
X138772821Y-126431715D01*
X138772818Y-126431722D01*
X138730616Y-126561608D01*
X138714326Y-126611744D01*
X138706895Y-126682451D01*
X138696679Y-126779649D01*
X138670094Y-126844263D01*
X138661039Y-126854368D01*
X138134677Y-127380732D01*
X137981269Y-127534140D01*
X137981267Y-127534142D01*
X137938121Y-127577288D01*
X137894142Y-127621266D01*
X137880775Y-127641271D01*
X137867497Y-127661144D01*
X137825690Y-127723710D01*
X137825685Y-127723719D01*
X137794696Y-127798536D01*
X137794696Y-127798537D01*
X137778538Y-127837545D01*
X137778535Y-127837555D01*
X137754500Y-127958389D01*
X137754500Y-129543942D01*
X137734815Y-129610981D01*
X137695598Y-129649479D01*
X137621136Y-129695408D01*
X137561342Y-129732289D01*
X137467681Y-129825951D01*
X137406358Y-129859436D01*
X137336666Y-129854452D01*
X137292319Y-129825951D01*
X137198657Y-129732289D01*
X137198656Y-129732288D01*
X137085855Y-129662712D01*
X137049336Y-129640187D01*
X137049331Y-129640185D01*
X137047862Y-129639698D01*
X136882797Y-129585001D01*
X136882795Y-129585000D01*
X136780010Y-129574500D01*
X135979998Y-129574500D01*
X135979980Y-129574501D01*
X135877203Y-129585000D01*
X135877200Y-129585001D01*
X135710668Y-129640185D01*
X135710663Y-129640187D01*
X135561342Y-129732289D01*
X135437289Y-129856342D01*
X135345187Y-130005663D01*
X135345186Y-130005666D01*
X135325689Y-130064505D01*
X135285916Y-130121949D01*
X135221400Y-130148772D01*
X135207983Y-130149500D01*
X133585452Y-130149500D01*
X133518413Y-130129815D01*
X133497771Y-130113181D01*
X133038960Y-129654370D01*
X133005475Y-129593047D01*
X133003323Y-129579671D01*
X132985674Y-129411744D01*
X132927179Y-129231716D01*
X132832533Y-129067784D01*
X132705871Y-128927112D01*
X132696286Y-128920148D01*
X132552734Y-128815851D01*
X132552729Y-128815848D01*
X132379807Y-128738857D01*
X132379802Y-128738855D01*
X132234001Y-128707865D01*
X132194646Y-128699500D01*
X132005354Y-128699500D01*
X131972897Y-128706398D01*
X131820197Y-128738855D01*
X131820192Y-128738857D01*
X131647270Y-128815848D01*
X131647265Y-128815851D01*
X131494129Y-128927111D01*
X131367466Y-129067785D01*
X131272821Y-129231715D01*
X131272818Y-129231722D01*
X131221607Y-129389334D01*
X131214326Y-129411744D01*
X131194540Y-129600000D01*
X130721660Y-129600000D01*
X130783315Y-129538345D01*
X130875356Y-129389124D01*
X130875358Y-129389119D01*
X130930505Y-129222697D01*
X130930506Y-129222690D01*
X130940999Y-129119986D01*
X130941000Y-129119973D01*
X130941000Y-128870000D01*
X129715000Y-128870000D01*
X129647961Y-128850315D01*
X129602206Y-128797511D01*
X129591000Y-128746000D01*
X129591000Y-128370000D01*
X130091000Y-128370000D01*
X130940999Y-128370000D01*
X130940999Y-128120028D01*
X130940998Y-128120013D01*
X130930505Y-128017302D01*
X130875358Y-127850880D01*
X130875356Y-127850875D01*
X130783315Y-127701654D01*
X130659345Y-127577684D01*
X130510124Y-127485643D01*
X130510119Y-127485641D01*
X130343697Y-127430494D01*
X130343690Y-127430493D01*
X130240986Y-127420000D01*
X130091000Y-127420000D01*
X130091000Y-128370000D01*
X129591000Y-128370000D01*
X129591000Y-127420000D01*
X129441027Y-127420000D01*
X129441012Y-127420001D01*
X129338302Y-127430494D01*
X129171880Y-127485641D01*
X129171875Y-127485643D01*
X129022657Y-127577682D01*
X128929034Y-127671305D01*
X128867710Y-127704789D01*
X128798019Y-127699805D01*
X128753672Y-127671304D01*
X128659657Y-127577289D01*
X128659656Y-127577288D01*
X128510334Y-127485186D01*
X128343797Y-127430001D01*
X128343795Y-127430000D01*
X128241010Y-127419500D01*
X127440998Y-127419500D01*
X127440980Y-127419501D01*
X127338203Y-127430000D01*
X127338200Y-127430001D01*
X127171668Y-127485185D01*
X127171663Y-127485187D01*
X127022342Y-127577289D01*
X126898288Y-127701343D01*
X126898285Y-127701347D01*
X126812797Y-127839945D01*
X126760849Y-127886670D01*
X126691887Y-127897891D01*
X126634374Y-127875166D01*
X126552734Y-127815851D01*
X126552729Y-127815848D01*
X126379807Y-127738857D01*
X126379802Y-127738855D01*
X126219529Y-127704789D01*
X126194646Y-127699500D01*
X126005354Y-127699500D01*
X125980471Y-127704789D01*
X125820197Y-127738855D01*
X125820192Y-127738857D01*
X125647270Y-127815848D01*
X125647265Y-127815851D01*
X125494129Y-127927111D01*
X125367466Y-128067785D01*
X125272821Y-128231715D01*
X125272818Y-128231722D01*
X125214327Y-128411740D01*
X125214326Y-128411744D01*
X125194540Y-128600000D01*
X118878978Y-128600000D01*
X118870994Y-128588597D01*
X118703902Y-128421506D01*
X118703895Y-128421501D01*
X118510334Y-128285967D01*
X118510330Y-128285965D01*
X118503875Y-128282955D01*
X118296163Y-128186097D01*
X118296159Y-128186096D01*
X118296155Y-128186094D01*
X118067913Y-128124938D01*
X118067903Y-128124936D01*
X117832501Y-128104341D01*
X117832499Y-128104341D01*
X117597096Y-128124936D01*
X117597086Y-128124938D01*
X117496626Y-128151856D01*
X117426776Y-128150193D01*
X117376852Y-128119762D01*
X116935819Y-127678729D01*
X116902334Y-127617406D01*
X116899500Y-127591048D01*
X116899500Y-126086016D01*
X116919185Y-126018977D01*
X116971989Y-125973222D01*
X116984488Y-125968313D01*
X117043334Y-125948814D01*
X117192656Y-125856712D01*
X117316712Y-125732656D01*
X117408814Y-125583334D01*
X117463999Y-125416797D01*
X117474500Y-125314009D01*
X117474499Y-124513992D01*
X117463999Y-124411203D01*
X117408814Y-124244666D01*
X117316712Y-124095344D01*
X117223049Y-124001681D01*
X117189564Y-123940358D01*
X117194548Y-123870666D01*
X117223049Y-123826319D01*
X117268350Y-123781018D01*
X117316712Y-123732656D01*
X117322420Y-123723402D01*
X117374368Y-123676678D01*
X117427958Y-123664500D01*
X126259920Y-123664500D01*
X126357462Y-123645096D01*
X126404913Y-123635658D01*
X126541495Y-123579084D01*
X126601250Y-123539157D01*
X126664416Y-123496952D01*
X127524951Y-122636416D01*
X127607084Y-122513495D01*
X127663658Y-122376913D01*
X127672781Y-122331049D01*
X127692500Y-122231920D01*
X127692500Y-114018321D01*
X127709113Y-113956321D01*
X127718247Y-113940500D01*
X127769179Y-113852284D01*
X127827674Y-113672256D01*
X127847460Y-113484000D01*
X127827674Y-113295744D01*
X127769179Y-113115716D01*
X127705145Y-113004805D01*
X127671284Y-112946156D01*
X127672426Y-112945496D01*
X127651325Y-112886344D01*
X127667154Y-112818291D01*
X127678475Y-112801585D01*
X127704173Y-112769614D01*
X127761515Y-112729697D01*
X127831337Y-112727117D01*
X127891470Y-112762695D01*
X127897467Y-112769615D01*
X127953135Y-112838868D01*
X128101474Y-112958107D01*
X128101477Y-112958109D01*
X128271976Y-113042668D01*
X128456675Y-113088602D01*
X128499403Y-113091500D01*
X128700500Y-113091500D01*
X129200500Y-113091500D01*
X129401597Y-113091500D01*
X129444324Y-113088602D01*
X129629023Y-113042668D01*
X129799522Y-112958109D01*
X129799525Y-112958107D01*
X129947866Y-112838867D01*
X129947867Y-112838866D01*
X130067107Y-112690525D01*
X130067109Y-112690522D01*
X130151668Y-112520023D01*
X130197602Y-112335324D01*
X130200500Y-112292596D01*
X130200500Y-111841500D01*
X129200500Y-111841500D01*
X129200500Y-113091500D01*
X128700500Y-113091500D01*
X128700500Y-111341500D01*
X129200500Y-111341500D01*
X130200500Y-111341500D01*
X130200500Y-110890403D01*
X130197602Y-110847675D01*
X130151668Y-110662976D01*
X130067109Y-110492477D01*
X130067107Y-110492474D01*
X129947867Y-110344133D01*
X129947866Y-110344132D01*
X129799525Y-110224892D01*
X129799522Y-110224890D01*
X129629023Y-110140331D01*
X129444324Y-110094397D01*
X129401597Y-110091500D01*
X129200500Y-110091500D01*
X129200500Y-111341500D01*
X128700500Y-111341500D01*
X128700500Y-110091500D01*
X128499403Y-110091500D01*
X128456675Y-110094397D01*
X128271976Y-110140331D01*
X128101477Y-110224890D01*
X128101474Y-110224892D01*
X127953135Y-110344131D01*
X127897467Y-110413385D01*
X127840124Y-110453303D01*
X127770301Y-110455883D01*
X127710169Y-110420304D01*
X127704173Y-110413384D01*
X127648222Y-110343778D01*
X127648221Y-110343777D01*
X127499795Y-110224469D01*
X127499792Y-110224467D01*
X127329197Y-110139860D01*
X127144392Y-110093900D01*
X127118729Y-110092160D01*
X127101623Y-110091000D01*
X127101621Y-110091000D01*
X126650000Y-110091000D01*
X126582961Y-110071315D01*
X126537206Y-110018511D01*
X126526000Y-109967000D01*
X126526000Y-106915999D01*
X126545685Y-106848960D01*
X126598489Y-106803205D01*
X126650000Y-106791999D01*
X128108528Y-106791999D01*
X128108536Y-106791999D01*
X128227918Y-106781386D01*
X128423549Y-106725409D01*
X128603907Y-106631198D01*
X128761609Y-106502609D01*
X128890198Y-106344907D01*
X128984409Y-106164549D01*
X129040386Y-105968918D01*
X129051000Y-105849537D01*
X129051000Y-105610000D01*
X131624540Y-105610000D01*
X131644326Y-105798256D01*
X131644327Y-105798259D01*
X131702818Y-105978277D01*
X131702821Y-105978284D01*
X131797467Y-106142216D01*
X131904632Y-106261234D01*
X131924129Y-106282888D01*
X132077265Y-106394148D01*
X132077270Y-106394151D01*
X132250192Y-106471142D01*
X132250197Y-106471144D01*
X132435354Y-106510500D01*
X132435355Y-106510500D01*
X132624644Y-106510500D01*
X132624646Y-106510500D01*
X132809803Y-106471144D01*
X132944555Y-106411147D01*
X133013802Y-106401862D01*
X133077079Y-106431490D01*
X133100526Y-106459328D01*
X133143288Y-106528656D01*
X133267344Y-106652712D01*
X133416666Y-106744814D01*
X133583203Y-106799999D01*
X133685991Y-106810500D01*
X134486008Y-106810499D01*
X134486016Y-106810498D01*
X134486019Y-106810498D01*
X134557412Y-106803205D01*
X134588797Y-106799999D01*
X134755334Y-106744814D01*
X134904656Y-106652712D01*
X134998319Y-106559049D01*
X135059642Y-106525564D01*
X135129334Y-106530548D01*
X135173681Y-106559049D01*
X135267344Y-106652712D01*
X135416666Y-106744814D01*
X135583203Y-106799999D01*
X135685991Y-106810500D01*
X136486008Y-106810499D01*
X136486016Y-106810498D01*
X136486019Y-106810498D01*
X136557412Y-106803205D01*
X136588797Y-106799999D01*
X136755334Y-106744814D01*
X136883966Y-106665473D01*
X136951357Y-106647034D01*
X137018020Y-106667957D01*
X137036742Y-106683332D01*
X137375016Y-107021606D01*
X137375045Y-107021637D01*
X137465264Y-107111856D01*
X137465267Y-107111858D01*
X137516490Y-107146084D01*
X137567714Y-107180312D01*
X137631504Y-107206734D01*
X137665798Y-107220939D01*
X137720201Y-107264779D01*
X137742267Y-107331073D01*
X137724988Y-107398772D01*
X137673852Y-107446383D01*
X137618346Y-107459500D01*
X135172607Y-107459500D01*
X135049393Y-107459500D01*
X135028569Y-107463642D01*
X135007745Y-107467784D01*
X135007744Y-107467783D01*
X134928552Y-107483536D01*
X134928541Y-107483539D01*
X134896262Y-107496909D01*
X134881397Y-107503067D01*
X134814717Y-107530686D01*
X134811670Y-107532723D01*
X134811655Y-107532733D01*
X134712268Y-107599140D01*
X134679694Y-107631715D01*
X134625142Y-107686267D01*
X134625139Y-107686270D01*
X134438227Y-107873181D01*
X134376904Y-107906666D01*
X134350546Y-107909500D01*
X133685998Y-107909500D01*
X133685980Y-107909501D01*
X133583203Y-107920000D01*
X133583200Y-107920001D01*
X133416668Y-107975185D01*
X133416663Y-107975187D01*
X133267342Y-108067289D01*
X133143288Y-108191343D01*
X133143285Y-108191347D01*
X133073428Y-108304603D01*
X133021480Y-108351328D01*
X132952518Y-108362549D01*
X132917454Y-108352786D01*
X132809803Y-108304856D01*
X132809801Y-108304855D01*
X132809800Y-108304855D01*
X132693102Y-108280050D01*
X132624646Y-108265500D01*
X132435354Y-108265500D01*
X132415543Y-108269711D01*
X132250197Y-108304855D01*
X132250192Y-108304857D01*
X132077270Y-108381848D01*
X132077265Y-108381851D01*
X131924129Y-108493111D01*
X131797466Y-108633785D01*
X131702821Y-108797715D01*
X131702818Y-108797722D01*
X131644327Y-108977740D01*
X131644326Y-108977744D01*
X131624540Y-109166000D01*
X131644326Y-109354256D01*
X131644327Y-109354259D01*
X131702818Y-109534277D01*
X131702821Y-109534284D01*
X131797467Y-109698216D01*
X131905800Y-109818532D01*
X131924129Y-109838888D01*
X132077265Y-109950148D01*
X132077270Y-109950151D01*
X132250192Y-110027142D01*
X132250197Y-110027144D01*
X132435354Y-110066500D01*
X132435355Y-110066500D01*
X132624644Y-110066500D01*
X132624646Y-110066500D01*
X132809803Y-110027144D01*
X132971656Y-109955081D01*
X133040901Y-109945796D01*
X133104178Y-109975424D01*
X133127626Y-110003264D01*
X133135295Y-110015698D01*
X133143288Y-110028656D01*
X133267344Y-110152712D01*
X133416666Y-110244814D01*
X133583203Y-110299999D01*
X133685991Y-110310500D01*
X134486008Y-110310499D01*
X134486016Y-110310498D01*
X134486019Y-110310498D01*
X134542302Y-110304748D01*
X134588797Y-110299999D01*
X134755334Y-110244814D01*
X134904656Y-110152712D01*
X134998319Y-110059049D01*
X135059642Y-110025564D01*
X135129334Y-110030548D01*
X135173681Y-110059049D01*
X135267344Y-110152712D01*
X135416666Y-110244814D01*
X135583203Y-110299999D01*
X135685991Y-110310500D01*
X136486008Y-110310499D01*
X136486016Y-110310498D01*
X136486019Y-110310498D01*
X136542302Y-110304748D01*
X136588797Y-110299999D01*
X136755334Y-110244814D01*
X136904656Y-110152712D01*
X137028712Y-110028656D01*
X137120814Y-109879334D01*
X137121755Y-109876492D01*
X137122926Y-109874801D01*
X137123864Y-109872791D01*
X137124207Y-109872951D01*
X137161527Y-109819051D01*
X137226043Y-109792228D01*
X137239460Y-109791500D01*
X137668252Y-109791500D01*
X137735291Y-109811185D01*
X137760400Y-109832526D01*
X137770475Y-109843715D01*
X137768625Y-109845380D01*
X137799402Y-109895332D01*
X137798074Y-109965189D01*
X137768802Y-110010773D01*
X137770478Y-110012282D01*
X137639466Y-110157785D01*
X137544821Y-110321715D01*
X137544818Y-110321721D01*
X137487657Y-110497648D01*
X137448220Y-110555324D01*
X137393917Y-110580947D01*
X137335599Y-110592546D01*
X137335600Y-110592547D01*
X137315549Y-110596536D01*
X137315547Y-110596536D01*
X137268397Y-110616067D01*
X137201719Y-110643685D01*
X137201717Y-110643686D01*
X137099266Y-110712141D01*
X137099263Y-110712144D01*
X136438227Y-111373181D01*
X136376904Y-111406666D01*
X136350546Y-111409500D01*
X135685998Y-111409500D01*
X135685980Y-111409501D01*
X135583203Y-111420000D01*
X135583200Y-111420001D01*
X135416668Y-111475185D01*
X135416663Y-111475187D01*
X135267342Y-111567289D01*
X135173681Y-111660951D01*
X135112358Y-111694436D01*
X135042666Y-111689452D01*
X134998319Y-111660951D01*
X134904657Y-111567289D01*
X134904656Y-111567288D01*
X134795563Y-111499999D01*
X134755336Y-111475187D01*
X134755331Y-111475185D01*
X134694181Y-111454922D01*
X134588797Y-111420001D01*
X134588795Y-111420000D01*
X134486010Y-111409500D01*
X133685998Y-111409500D01*
X133685980Y-111409501D01*
X133583203Y-111420000D01*
X133583200Y-111420001D01*
X133416668Y-111475185D01*
X133416663Y-111475187D01*
X133267342Y-111567289D01*
X133154950Y-111679680D01*
X133093627Y-111713164D01*
X133023935Y-111708179D01*
X132994386Y-111692317D01*
X132982733Y-111683851D01*
X132982729Y-111683848D01*
X132809807Y-111606857D01*
X132809802Y-111606855D01*
X132664001Y-111575865D01*
X132624646Y-111567500D01*
X132435354Y-111567500D01*
X132402897Y-111574398D01*
X132250197Y-111606855D01*
X132250192Y-111606857D01*
X132077270Y-111683848D01*
X132077265Y-111683851D01*
X131924129Y-111795111D01*
X131797466Y-111935785D01*
X131702821Y-112099715D01*
X131702818Y-112099722D01*
X131648149Y-112267977D01*
X131644326Y-112279744D01*
X131624540Y-112468000D01*
X131644326Y-112656256D01*
X131644327Y-112656259D01*
X131702818Y-112836277D01*
X131702821Y-112836284D01*
X131797467Y-113000216D01*
X131924129Y-113140888D01*
X132077265Y-113252148D01*
X132077270Y-113252151D01*
X132250192Y-113329142D01*
X132250197Y-113329144D01*
X132435354Y-113368500D01*
X132435355Y-113368500D01*
X132624644Y-113368500D01*
X132624646Y-113368500D01*
X132809803Y-113329144D01*
X132880585Y-113297629D01*
X132949830Y-113288344D01*
X133013107Y-113317972D01*
X133048722Y-113371900D01*
X133051183Y-113379326D01*
X133051187Y-113379336D01*
X133057918Y-113390248D01*
X133143288Y-113528656D01*
X133267344Y-113652712D01*
X133416666Y-113744814D01*
X133583203Y-113799999D01*
X133685991Y-113810500D01*
X134350547Y-113810499D01*
X134417586Y-113830183D01*
X134438228Y-113846818D01*
X134622016Y-114030606D01*
X134622045Y-114030637D01*
X134712264Y-114120856D01*
X134712267Y-114120858D01*
X134757990Y-114151409D01*
X134814715Y-114189312D01*
X134881396Y-114216931D01*
X134881398Y-114216933D01*
X134901381Y-114225210D01*
X134928548Y-114236463D01*
X134988971Y-114248481D01*
X135049393Y-114260500D01*
X144996607Y-114260500D01*
X145057029Y-114248481D01*
X145117452Y-114236463D01*
X145160188Y-114218761D01*
X145231286Y-114189312D01*
X145291490Y-114149084D01*
X145291491Y-114149084D01*
X145323523Y-114127680D01*
X145333733Y-114120858D01*
X145420858Y-114033733D01*
X145420859Y-114033730D01*
X145427925Y-114026665D01*
X145427928Y-114026661D01*
X145607771Y-113846818D01*
X145669094Y-113813333D01*
X145695452Y-113810499D01*
X146360002Y-113810499D01*
X146360008Y-113810499D01*
X146361575Y-113810339D01*
X146377895Y-113808671D01*
X146462797Y-113799999D01*
X146629334Y-113744814D01*
X146778656Y-113652712D01*
X146902712Y-113528656D01*
X146994814Y-113379334D01*
X147049999Y-113212797D01*
X147060500Y-113110009D01*
X147060499Y-112109992D01*
X147058707Y-112092454D01*
X147049999Y-112007203D01*
X147049998Y-112007200D01*
X147033001Y-111955908D01*
X146994814Y-111840666D01*
X146902712Y-111691344D01*
X146778656Y-111567288D01*
X146669563Y-111499999D01*
X146629336Y-111475187D01*
X146629331Y-111475185D01*
X146568181Y-111454922D01*
X146462797Y-111420001D01*
X146462795Y-111420000D01*
X146360010Y-111409500D01*
X145559998Y-111409500D01*
X145559980Y-111409501D01*
X145457203Y-111420000D01*
X145457200Y-111420001D01*
X145290668Y-111475185D01*
X145290663Y-111475187D01*
X145141342Y-111567289D01*
X145047681Y-111660951D01*
X144986358Y-111694436D01*
X144916666Y-111689452D01*
X144872319Y-111660951D01*
X144778657Y-111567289D01*
X144778656Y-111567288D01*
X144669563Y-111499999D01*
X144629336Y-111475187D01*
X144629331Y-111475185D01*
X144568181Y-111454922D01*
X144462797Y-111420001D01*
X144462795Y-111420000D01*
X144360010Y-111409500D01*
X143559998Y-111409500D01*
X143559980Y-111409501D01*
X143457203Y-111420000D01*
X143457200Y-111420001D01*
X143290668Y-111475185D01*
X143290663Y-111475187D01*
X143141345Y-111567287D01*
X143042264Y-111666368D01*
X142980941Y-111699852D01*
X142911249Y-111694868D01*
X142892590Y-111686077D01*
X142888732Y-111683850D01*
X142715807Y-111606857D01*
X142715802Y-111606855D01*
X142570001Y-111575865D01*
X142530646Y-111567500D01*
X142341354Y-111567500D01*
X142308897Y-111574398D01*
X142156197Y-111606855D01*
X142156192Y-111606857D01*
X141983270Y-111683848D01*
X141983265Y-111683851D01*
X141830129Y-111795111D01*
X141703466Y-111935785D01*
X141608821Y-112099715D01*
X141608818Y-112099722D01*
X141554149Y-112267977D01*
X141550326Y-112279744D01*
X141530540Y-112468000D01*
X141550326Y-112656256D01*
X141550327Y-112656259D01*
X141610829Y-112842465D01*
X141609335Y-112842950D01*
X141617562Y-112904318D01*
X141587932Y-112967594D01*
X141528796Y-113004805D01*
X141494998Y-113009500D01*
X137310500Y-113009500D01*
X137243461Y-112989815D01*
X137197706Y-112937011D01*
X137186500Y-112885500D01*
X137186499Y-112445452D01*
X137206183Y-112378413D01*
X137222813Y-112357776D01*
X137720772Y-111859819D01*
X137782095Y-111826334D01*
X137808453Y-111823500D01*
X137925608Y-111823500D01*
X137925608Y-111823499D01*
X138002476Y-111808210D01*
X138002477Y-111808210D01*
X138017268Y-111805267D01*
X138046452Y-111799463D01*
X138046457Y-111799460D01*
X138046460Y-111799460D01*
X138079787Y-111785654D01*
X138079786Y-111785654D01*
X138079792Y-111785652D01*
X138160286Y-111752312D01*
X138211509Y-111718084D01*
X138218873Y-111713164D01*
X138227824Y-111707183D01*
X138262733Y-111683858D01*
X138319773Y-111626817D01*
X138381094Y-111593334D01*
X138407453Y-111590500D01*
X138466644Y-111590500D01*
X138466646Y-111590500D01*
X138651803Y-111551144D01*
X138824730Y-111474151D01*
X138977871Y-111362888D01*
X139104533Y-111222216D01*
X139199179Y-111058284D01*
X139257674Y-110878256D01*
X139277460Y-110690000D01*
X139257674Y-110501744D01*
X139199179Y-110321716D01*
X139104533Y-110157784D01*
X138977871Y-110017112D01*
X138977870Y-110017111D01*
X138973522Y-110012282D01*
X138975372Y-110010616D01*
X138944597Y-109960667D01*
X138945925Y-109890810D01*
X138975211Y-109845239D01*
X138973522Y-109843718D01*
X138995732Y-109819051D01*
X139104533Y-109698216D01*
X139199179Y-109534284D01*
X139257674Y-109354256D01*
X139277460Y-109166000D01*
X139257674Y-108977744D01*
X139223580Y-108872816D01*
X139221586Y-108802977D01*
X139257666Y-108743144D01*
X139320367Y-108712316D01*
X139341512Y-108710500D01*
X141414002Y-108710500D01*
X141481041Y-108730185D01*
X141526796Y-108782989D01*
X141537323Y-108847460D01*
X141534658Y-108872819D01*
X141530540Y-108912000D01*
X141550326Y-109100256D01*
X141550327Y-109100259D01*
X141608818Y-109280277D01*
X141608821Y-109280284D01*
X141703467Y-109444216D01*
X141771481Y-109519753D01*
X141830129Y-109584888D01*
X141983265Y-109696148D01*
X141983270Y-109696151D01*
X142156192Y-109773142D01*
X142156197Y-109773144D01*
X142341354Y-109812500D01*
X142341355Y-109812500D01*
X142530644Y-109812500D01*
X142530646Y-109812500D01*
X142715803Y-109773144D01*
X142786100Y-109741845D01*
X142855345Y-109732560D01*
X142918622Y-109762188D01*
X142954238Y-109816119D01*
X142974245Y-109876495D01*
X142975186Y-109879333D01*
X142975187Y-109879336D01*
X142987635Y-109899517D01*
X143067288Y-110028656D01*
X143191344Y-110152712D01*
X143340666Y-110244814D01*
X143507203Y-110299999D01*
X143609991Y-110310500D01*
X144410008Y-110310499D01*
X144410016Y-110310498D01*
X144410019Y-110310498D01*
X144466302Y-110304748D01*
X144512797Y-110299999D01*
X144679334Y-110244814D01*
X144828656Y-110152712D01*
X144922319Y-110059049D01*
X144983642Y-110025564D01*
X145053334Y-110030548D01*
X145097681Y-110059049D01*
X145191344Y-110152712D01*
X145340666Y-110244814D01*
X145507203Y-110299999D01*
X145609991Y-110310500D01*
X146410008Y-110310499D01*
X146410016Y-110310498D01*
X146410019Y-110310498D01*
X146466302Y-110304748D01*
X146512797Y-110299999D01*
X146679334Y-110244814D01*
X146828656Y-110152712D01*
X146952712Y-110028656D01*
X147044814Y-109879334D01*
X147099999Y-109712797D01*
X147110500Y-109610009D01*
X147110499Y-108609992D01*
X147099999Y-108507203D01*
X147044814Y-108340666D01*
X146952712Y-108191344D01*
X146828656Y-108067288D01*
X146679334Y-107975186D01*
X146512797Y-107920001D01*
X146512795Y-107920000D01*
X146410016Y-107909500D01*
X146410009Y-107909500D01*
X145745452Y-107909500D01*
X145678413Y-107889815D01*
X145657771Y-107873181D01*
X145475198Y-107690608D01*
X145475178Y-107690586D01*
X145383733Y-107599141D01*
X145332509Y-107564915D01*
X145284346Y-107532733D01*
X145281286Y-107530688D01*
X145281283Y-107530686D01*
X145281280Y-107530685D01*
X145200792Y-107497347D01*
X145176155Y-107487142D01*
X145167452Y-107483537D01*
X145167450Y-107483536D01*
X145167446Y-107483535D01*
X145088261Y-107467784D01*
X145088254Y-107467784D01*
X145046607Y-107459500D01*
X145046606Y-107459500D01*
X139111764Y-107459500D01*
X139044725Y-107439815D01*
X138998970Y-107387011D01*
X138989026Y-107317853D01*
X139018051Y-107254297D01*
X139019614Y-107252528D01*
X139026107Y-107245315D01*
X139104533Y-107158216D01*
X139199179Y-106994284D01*
X139257674Y-106814256D01*
X139277460Y-106626000D01*
X139257674Y-106437744D01*
X139199179Y-106257716D01*
X139104533Y-106093784D01*
X138977871Y-105953112D01*
X138964523Y-105943414D01*
X138824734Y-105841851D01*
X138824729Y-105841848D01*
X138651807Y-105764857D01*
X138651802Y-105764855D01*
X138477678Y-105727845D01*
X138466646Y-105725500D01*
X138277354Y-105725500D01*
X138266322Y-105727845D01*
X138092198Y-105764855D01*
X138092193Y-105764857D01*
X138028376Y-105793270D01*
X137959126Y-105802554D01*
X137895850Y-105772925D01*
X137890261Y-105767671D01*
X137544771Y-105422181D01*
X137511286Y-105360858D01*
X137516270Y-105291166D01*
X137558142Y-105235233D01*
X137623606Y-105210816D01*
X137632452Y-105210500D01*
X141448292Y-105210500D01*
X141515331Y-105230185D01*
X141561086Y-105282989D01*
X141571030Y-105352147D01*
X141566223Y-105372818D01*
X141552436Y-105415251D01*
X141550326Y-105421744D01*
X141530540Y-105610000D01*
X141550326Y-105798256D01*
X141550327Y-105798259D01*
X141608818Y-105978277D01*
X141608821Y-105978284D01*
X141703467Y-106142216D01*
X141810632Y-106261234D01*
X141830129Y-106282888D01*
X141983265Y-106394148D01*
X141983270Y-106394151D01*
X142156192Y-106471142D01*
X142156197Y-106471144D01*
X142341354Y-106510500D01*
X142341355Y-106510500D01*
X142530644Y-106510500D01*
X142530646Y-106510500D01*
X142715803Y-106471144D01*
X142864675Y-106404860D01*
X142933925Y-106395576D01*
X142997201Y-106425204D01*
X143020649Y-106453042D01*
X143067288Y-106528656D01*
X143191344Y-106652712D01*
X143340666Y-106744814D01*
X143507203Y-106799999D01*
X143609991Y-106810500D01*
X144410008Y-106810499D01*
X144410016Y-106810498D01*
X144410019Y-106810498D01*
X144481412Y-106803205D01*
X144512797Y-106799999D01*
X144679334Y-106744814D01*
X144828656Y-106652712D01*
X144922319Y-106559049D01*
X144983642Y-106525564D01*
X145053334Y-106530548D01*
X145097681Y-106559049D01*
X145191344Y-106652712D01*
X145340666Y-106744814D01*
X145507203Y-106799999D01*
X145609991Y-106810500D01*
X146410008Y-106810499D01*
X146410016Y-106810498D01*
X146410019Y-106810498D01*
X146481412Y-106803205D01*
X146512797Y-106799999D01*
X146679334Y-106744814D01*
X146828656Y-106652712D01*
X146952712Y-106528656D01*
X147044814Y-106379334D01*
X147099999Y-106212797D01*
X147110500Y-106110009D01*
X147110499Y-105109992D01*
X147099999Y-105007203D01*
X147044814Y-104840666D01*
X146952712Y-104691344D01*
X146828656Y-104567288D01*
X146711226Y-104494857D01*
X146679336Y-104475187D01*
X146679331Y-104475185D01*
X146677862Y-104474698D01*
X146512797Y-104420001D01*
X146512795Y-104420000D01*
X146410016Y-104409500D01*
X146410009Y-104409500D01*
X145745452Y-104409500D01*
X145678413Y-104389815D01*
X145657771Y-104373181D01*
X145475198Y-104190608D01*
X145475178Y-104190586D01*
X145383733Y-104099141D01*
X145332509Y-104064915D01*
X145291374Y-104037429D01*
X145281286Y-104030688D01*
X145183139Y-103990035D01*
X145181602Y-103989398D01*
X145167456Y-103983538D01*
X145167445Y-103983535D01*
X145096317Y-103969386D01*
X145096308Y-103969386D01*
X145046607Y-103959500D01*
X145046606Y-103959500D01*
X135172607Y-103959500D01*
X135049393Y-103959500D01*
X135024542Y-103964443D01*
X134999691Y-103969386D01*
X134999690Y-103969385D01*
X134928554Y-103983535D01*
X134928543Y-103983538D01*
X134913842Y-103989628D01*
X134912861Y-103990035D01*
X134860052Y-104011909D01*
X134814711Y-104030689D01*
X134804627Y-104037428D01*
X134804626Y-104037429D01*
X134712268Y-104099140D01*
X134668705Y-104142703D01*
X134625142Y-104186267D01*
X134625139Y-104186270D01*
X134438227Y-104373181D01*
X134376904Y-104406666D01*
X134350546Y-104409500D01*
X133685998Y-104409500D01*
X133685980Y-104409501D01*
X133583203Y-104420000D01*
X133583200Y-104420001D01*
X133416668Y-104475185D01*
X133416663Y-104475187D01*
X133267342Y-104567289D01*
X133143288Y-104691343D01*
X133143285Y-104691347D01*
X133100527Y-104760669D01*
X133048579Y-104807394D01*
X132979617Y-104818615D01*
X132944553Y-104808851D01*
X132809807Y-104748857D01*
X132809802Y-104748855D01*
X132664001Y-104717865D01*
X132624646Y-104709500D01*
X132435354Y-104709500D01*
X132402897Y-104716398D01*
X132250197Y-104748855D01*
X132250192Y-104748857D01*
X132077270Y-104825848D01*
X132077265Y-104825851D01*
X131924129Y-104937111D01*
X131797466Y-105077785D01*
X131702821Y-105241715D01*
X131702818Y-105241722D01*
X131644327Y-105421740D01*
X131644326Y-105421744D01*
X131624540Y-105610000D01*
X129051000Y-105610000D01*
X129050999Y-104733464D01*
X129040386Y-104614082D01*
X128984409Y-104418451D01*
X128890198Y-104238093D01*
X128817107Y-104148454D01*
X128761609Y-104080390D01*
X128603909Y-103951804D01*
X128603910Y-103951804D01*
X128603907Y-103951802D01*
X128423549Y-103857591D01*
X128423548Y-103857590D01*
X128423545Y-103857589D01*
X128306329Y-103824050D01*
X128227918Y-103801614D01*
X128227915Y-103801613D01*
X128227913Y-103801613D01*
X128155131Y-103795142D01*
X128108537Y-103791000D01*
X128108533Y-103791000D01*
X127525000Y-103791000D01*
X127457961Y-103771315D01*
X127412206Y-103718511D01*
X127401000Y-103667000D01*
X127401000Y-102907274D01*
X127417613Y-102845274D01*
X127443752Y-102800000D01*
X141094540Y-102800000D01*
X141114326Y-102988256D01*
X141114327Y-102988259D01*
X141172818Y-103168277D01*
X141172821Y-103168284D01*
X141267467Y-103332216D01*
X141360619Y-103435671D01*
X141394129Y-103472888D01*
X141547265Y-103584148D01*
X141547270Y-103584151D01*
X141720192Y-103661142D01*
X141720197Y-103661144D01*
X141905354Y-103700500D01*
X141905355Y-103700500D01*
X142094644Y-103700500D01*
X142094646Y-103700500D01*
X142279803Y-103661144D01*
X142452730Y-103584151D01*
X142605871Y-103472888D01*
X142605870Y-103472888D01*
X142611129Y-103469068D01*
X142611943Y-103470189D01*
X142668352Y-103443120D01*
X142688330Y-103441500D01*
X159702773Y-103441500D01*
X159769812Y-103461185D01*
X159804348Y-103494377D01*
X159939501Y-103687396D01*
X159939506Y-103687402D01*
X160061430Y-103809326D01*
X160094915Y-103870649D01*
X160089931Y-103940341D01*
X160048059Y-103996274D01*
X160017083Y-104013189D01*
X159885669Y-104062203D01*
X159885664Y-104062206D01*
X159770455Y-104148452D01*
X159770452Y-104148455D01*
X159684206Y-104263664D01*
X159684202Y-104263671D01*
X159633908Y-104398517D01*
X159627782Y-104455500D01*
X159627501Y-104458123D01*
X159627500Y-104458135D01*
X159627500Y-104606500D01*
X159607815Y-104673539D01*
X159555011Y-104719294D01*
X159503500Y-104730500D01*
X156347748Y-104730500D01*
X156280709Y-104710815D01*
X156255600Y-104689474D01*
X156249873Y-104683114D01*
X156249869Y-104683110D01*
X156096734Y-104571851D01*
X156096729Y-104571848D01*
X155923807Y-104494857D01*
X155923802Y-104494855D01*
X155778001Y-104463865D01*
X155738646Y-104455500D01*
X155549354Y-104455500D01*
X155516897Y-104462398D01*
X155364197Y-104494855D01*
X155364192Y-104494857D01*
X155191270Y-104571848D01*
X155191265Y-104571851D01*
X155038129Y-104683111D01*
X154911466Y-104823785D01*
X154816821Y-104987715D01*
X154816818Y-104987722D01*
X154770527Y-105130193D01*
X154758326Y-105167744D01*
X154738540Y-105356000D01*
X154758326Y-105544256D01*
X154758327Y-105544259D01*
X154816818Y-105724277D01*
X154816821Y-105724284D01*
X154911467Y-105888216D01*
X155012118Y-106000000D01*
X155038129Y-106028888D01*
X155191265Y-106140148D01*
X155191270Y-106140151D01*
X155364192Y-106217142D01*
X155364197Y-106217144D01*
X155549354Y-106256500D01*
X155549355Y-106256500D01*
X155738644Y-106256500D01*
X155738646Y-106256500D01*
X155923803Y-106217144D01*
X156096730Y-106140151D01*
X156249871Y-106028888D01*
X156252788Y-106025647D01*
X156255600Y-106022526D01*
X156315087Y-105985879D01*
X156347748Y-105981500D01*
X159503501Y-105981500D01*
X159570540Y-106001185D01*
X159616295Y-106053989D01*
X159627501Y-106105500D01*
X159627501Y-106253876D01*
X159633908Y-106313483D01*
X159684202Y-106448328D01*
X159684206Y-106448335D01*
X159770452Y-106563544D01*
X159770455Y-106563547D01*
X159885664Y-106649793D01*
X159885671Y-106649797D01*
X160020517Y-106700091D01*
X160020516Y-106700091D01*
X160027444Y-106700835D01*
X160080127Y-106706500D01*
X161875872Y-106706499D01*
X161935483Y-106700091D01*
X162070331Y-106649796D01*
X162185546Y-106563546D01*
X162271796Y-106448331D01*
X162322091Y-106313483D01*
X162328500Y-106253873D01*
X162328500Y-105999997D01*
X162644579Y-105999997D01*
X162644579Y-106000002D01*
X162664248Y-106362782D01*
X162664250Y-106362799D01*
X162723024Y-106721303D01*
X162723030Y-106721329D01*
X162820221Y-107071381D01*
X162820226Y-107071396D01*
X162954700Y-107408901D01*
X162954706Y-107408913D01*
X163124878Y-107729892D01*
X163124881Y-107729897D01*
X163124883Y-107729900D01*
X163193604Y-107831255D01*
X163328772Y-108030613D01*
X163531759Y-108269588D01*
X163563979Y-108307521D01*
X163827746Y-108557375D01*
X164116981Y-108777245D01*
X164428292Y-108964555D01*
X164428294Y-108964556D01*
X164428296Y-108964557D01*
X164428300Y-108964559D01*
X164749437Y-109113132D01*
X164758031Y-109117108D01*
X165102330Y-109233116D01*
X165457153Y-109311218D01*
X165818341Y-109350500D01*
X165818347Y-109350500D01*
X166181653Y-109350500D01*
X166181659Y-109350500D01*
X166542847Y-109311218D01*
X166897670Y-109233116D01*
X167241969Y-109117108D01*
X167571708Y-108964555D01*
X167883019Y-108777245D01*
X168172254Y-108557375D01*
X168436021Y-108307521D01*
X168671227Y-108030614D01*
X168875117Y-107729900D01*
X169045298Y-107408905D01*
X169179775Y-107071391D01*
X169276973Y-106721316D01*
X169309065Y-106525564D01*
X169335749Y-106362799D01*
X169335751Y-106362782D01*
X169355421Y-106000002D01*
X169355421Y-105999997D01*
X169340665Y-105727845D01*
X169335751Y-105637215D01*
X169331289Y-105610000D01*
X169276975Y-105278696D01*
X169276974Y-105278695D01*
X169276973Y-105278684D01*
X169235743Y-105130187D01*
X169179778Y-104928618D01*
X169179773Y-104928603D01*
X169085240Y-104691342D01*
X169045298Y-104591095D01*
X168947520Y-104406666D01*
X168875121Y-104270107D01*
X168875119Y-104270104D01*
X168875117Y-104270100D01*
X168759204Y-104099142D01*
X168671227Y-103969385D01*
X168436021Y-103692479D01*
X168172254Y-103442625D01*
X168172244Y-103442617D01*
X168103635Y-103390462D01*
X167883019Y-103222755D01*
X167571708Y-103035445D01*
X167571707Y-103035444D01*
X167571703Y-103035442D01*
X167571699Y-103035440D01*
X167241979Y-102882896D01*
X167241974Y-102882894D01*
X167241969Y-102882892D01*
X167043438Y-102815999D01*
X166897669Y-102766883D01*
X166542845Y-102688781D01*
X166181660Y-102649500D01*
X166181659Y-102649500D01*
X165818341Y-102649500D01*
X165818339Y-102649500D01*
X165457154Y-102688781D01*
X165102330Y-102766883D01*
X164869677Y-102845274D01*
X164758031Y-102882892D01*
X164758028Y-102882893D01*
X164758020Y-102882896D01*
X164428300Y-103035440D01*
X164428296Y-103035442D01*
X164357904Y-103077796D01*
X164116981Y-103222755D01*
X164076283Y-103253693D01*
X163827755Y-103442617D01*
X163827745Y-103442625D01*
X163563978Y-103692479D01*
X163328773Y-103969385D01*
X163124884Y-104270098D01*
X163124878Y-104270107D01*
X162954706Y-104591086D01*
X162954700Y-104591098D01*
X162820226Y-104928603D01*
X162820221Y-104928618D01*
X162723030Y-105278670D01*
X162723024Y-105278696D01*
X162664250Y-105637200D01*
X162664248Y-105637217D01*
X162644579Y-105999997D01*
X162328500Y-105999997D01*
X162328499Y-104458128D01*
X162322091Y-104398517D01*
X162318845Y-104389815D01*
X162271797Y-104263671D01*
X162271793Y-104263664D01*
X162185547Y-104148455D01*
X162185544Y-104148452D01*
X162070335Y-104062206D01*
X162070328Y-104062202D01*
X161938917Y-104013189D01*
X161882983Y-103971318D01*
X161858566Y-103905853D01*
X161873418Y-103837580D01*
X161894563Y-103809332D01*
X162016495Y-103687401D01*
X162152035Y-103493830D01*
X162251903Y-103279663D01*
X162313063Y-103051408D01*
X162333659Y-102816000D01*
X162313063Y-102580592D01*
X162251903Y-102352337D01*
X162152035Y-102138171D01*
X162151652Y-102137623D01*
X162016494Y-101944597D01*
X161849402Y-101777506D01*
X161849395Y-101777501D01*
X161846944Y-101775785D01*
X161810521Y-101750281D01*
X161655834Y-101641967D01*
X161655830Y-101641965D01*
X161641132Y-101635111D01*
X161441663Y-101542097D01*
X161441659Y-101542096D01*
X161441655Y-101542094D01*
X161213413Y-101480938D01*
X161213403Y-101480936D01*
X160978001Y-101460341D01*
X160977999Y-101460341D01*
X160742596Y-101480936D01*
X160742586Y-101480938D01*
X160514344Y-101542094D01*
X160514335Y-101542098D01*
X160300171Y-101641964D01*
X160300169Y-101641965D01*
X160106597Y-101777505D01*
X159939505Y-101944597D01*
X159804348Y-102137623D01*
X159749771Y-102181248D01*
X159702773Y-102190500D01*
X142718154Y-102190500D01*
X142651115Y-102170815D01*
X142626004Y-102149472D01*
X142605870Y-102127111D01*
X142452734Y-102015851D01*
X142452729Y-102015848D01*
X142279807Y-101938857D01*
X142279802Y-101938855D01*
X142134001Y-101907865D01*
X142094646Y-101899500D01*
X141905354Y-101899500D01*
X141872897Y-101906398D01*
X141720197Y-101938855D01*
X141720192Y-101938857D01*
X141547270Y-102015848D01*
X141547265Y-102015851D01*
X141394129Y-102127111D01*
X141267466Y-102267785D01*
X141172821Y-102431715D01*
X141172818Y-102431722D01*
X141114327Y-102611740D01*
X141114326Y-102611744D01*
X141094540Y-102800000D01*
X127443752Y-102800000D01*
X127515179Y-102676284D01*
X127573674Y-102496256D01*
X127593460Y-102308000D01*
X127573674Y-102119744D01*
X127515179Y-101939716D01*
X127420533Y-101775784D01*
X127293871Y-101635112D01*
X127293870Y-101635111D01*
X127140734Y-101523851D01*
X127140729Y-101523848D01*
X126967807Y-101446857D01*
X126967802Y-101446855D01*
X126822001Y-101415865D01*
X126782646Y-101407500D01*
X126593354Y-101407500D01*
X126560897Y-101414398D01*
X126408197Y-101446855D01*
X126408192Y-101446857D01*
X126235270Y-101523848D01*
X126235265Y-101523851D01*
X126082129Y-101635111D01*
X125955466Y-101775785D01*
X125860821Y-101939715D01*
X125860818Y-101939722D01*
X125820598Y-102063508D01*
X125802326Y-102119744D01*
X125782540Y-102308000D01*
X125802326Y-102496256D01*
X125802327Y-102496259D01*
X125860818Y-102676277D01*
X125860821Y-102676284D01*
X125883387Y-102715369D01*
X125900000Y-102777369D01*
X125900000Y-103667000D01*
X125880315Y-103734039D01*
X125827511Y-103779794D01*
X125776000Y-103791000D01*
X125192471Y-103791000D01*
X125192465Y-103791000D01*
X125192464Y-103791001D01*
X125180816Y-103792036D01*
X125073084Y-103801613D01*
X124877454Y-103857589D01*
X124787272Y-103904696D01*
X124697093Y-103951802D01*
X124697091Y-103951803D01*
X124697090Y-103951804D01*
X124539390Y-104080390D01*
X124410804Y-104238090D01*
X124410802Y-104238093D01*
X124363696Y-104328272D01*
X124316589Y-104418454D01*
X124274003Y-104567288D01*
X124262784Y-104606500D01*
X124260614Y-104614083D01*
X124260613Y-104614086D01*
X124255328Y-104673539D01*
X124250264Y-104730500D01*
X124250000Y-104733466D01*
X124250000Y-105849528D01*
X124250001Y-105849534D01*
X124260613Y-105968915D01*
X124316589Y-106164545D01*
X124316590Y-106164548D01*
X124316591Y-106164549D01*
X124410802Y-106344907D01*
X124438871Y-106379331D01*
X124539390Y-106502609D01*
X124608609Y-106559049D01*
X124697093Y-106631198D01*
X124708408Y-106637108D01*
X124758717Y-106685593D01*
X124775000Y-106747018D01*
X124775000Y-109967000D01*
X124755315Y-110034039D01*
X124702511Y-110079794D01*
X124651000Y-110091000D01*
X123899377Y-110091000D01*
X123899374Y-110091001D01*
X123856613Y-110093899D01*
X123856612Y-110093899D01*
X123671803Y-110139860D01*
X123501207Y-110224467D01*
X123501204Y-110224469D01*
X123352778Y-110343777D01*
X123352777Y-110343778D01*
X123233469Y-110492204D01*
X123233467Y-110492207D01*
X123148860Y-110662802D01*
X123102900Y-110847607D01*
X123100000Y-110890379D01*
X123100000Y-112292622D01*
X123100001Y-112292625D01*
X123102899Y-112335386D01*
X123102899Y-112335387D01*
X123129363Y-112441797D01*
X123145168Y-112505353D01*
X123148860Y-112520196D01*
X123233467Y-112690792D01*
X123233469Y-112690795D01*
X123352775Y-112839219D01*
X123352776Y-112839220D01*
X123352778Y-112839222D01*
X123356813Y-112842465D01*
X123357136Y-112842725D01*
X123397055Y-112900068D01*
X123399635Y-112969890D01*
X123386837Y-113001372D01*
X123320820Y-113115718D01*
X123320818Y-113115722D01*
X123264730Y-113288344D01*
X123262326Y-113295744D01*
X123242540Y-113484000D01*
X123262326Y-113672256D01*
X123262327Y-113672259D01*
X123320818Y-113852277D01*
X123320821Y-113852284D01*
X123368049Y-113934086D01*
X123380887Y-113956321D01*
X123397500Y-114018321D01*
X123397500Y-115485270D01*
X123377815Y-115552309D01*
X123361181Y-115572951D01*
X123025451Y-115908681D01*
X122964128Y-115942166D01*
X122937770Y-115945000D01*
X115088137Y-115945000D01*
X115021098Y-115925315D01*
X114975343Y-115872511D01*
X114965399Y-115803353D01*
X114968362Y-115788907D01*
X114982263Y-115737024D01*
X114999635Y-115672192D01*
X115019468Y-115445500D01*
X115018898Y-115438989D01*
X115011925Y-115359285D01*
X114999635Y-115218808D01*
X114973847Y-115122566D01*
X114975510Y-115052717D01*
X115005939Y-115002794D01*
X115172506Y-114836228D01*
X115172511Y-114836224D01*
X115182714Y-114826020D01*
X115182716Y-114826020D01*
X115294520Y-114714216D01*
X115356790Y-114606361D01*
X115364045Y-114593796D01*
X115373574Y-114577290D01*
X115373575Y-114577289D01*
X115373575Y-114577287D01*
X115373577Y-114577285D01*
X115414501Y-114424557D01*
X115414501Y-114266443D01*
X115414501Y-114258848D01*
X115414500Y-114258830D01*
X115414500Y-112910809D01*
X115414499Y-112910805D01*
X115413291Y-112906295D01*
X115413289Y-112906286D01*
X115373577Y-112758080D01*
X115331383Y-112684998D01*
X115294520Y-112621149D01*
X115182716Y-112509345D01*
X115182715Y-112509344D01*
X115178385Y-112505014D01*
X115178374Y-112505004D01*
X113836819Y-111163449D01*
X113803334Y-111102126D01*
X113800500Y-111075768D01*
X113800500Y-109226452D01*
X113820185Y-109159413D01*
X113832350Y-109143480D01*
X113846351Y-109127930D01*
X113932533Y-109032216D01*
X114027179Y-108868284D01*
X114085674Y-108688256D01*
X114105460Y-108500000D01*
X114085674Y-108311744D01*
X114027179Y-108131716D01*
X113932533Y-107967784D01*
X113805871Y-107827112D01*
X113784719Y-107811744D01*
X113652734Y-107715851D01*
X113652729Y-107715848D01*
X113479807Y-107638857D01*
X113479802Y-107638855D01*
X113320512Y-107604998D01*
X113294646Y-107599500D01*
X113105354Y-107599500D01*
X113079488Y-107604998D01*
X112920197Y-107638855D01*
X112920192Y-107638857D01*
X112747270Y-107715848D01*
X112747265Y-107715851D01*
X112594135Y-107827106D01*
X112594122Y-107827117D01*
X112592144Y-107829315D01*
X112590683Y-107830214D01*
X112589305Y-107831456D01*
X112589077Y-107831203D01*
X112532655Y-107865960D01*
X112462798Y-107864625D01*
X112410875Y-107831255D01*
X112410695Y-107831456D01*
X112409467Y-107830350D01*
X112407856Y-107829315D01*
X112405877Y-107827117D01*
X112405864Y-107827106D01*
X112252734Y-107715851D01*
X112252729Y-107715848D01*
X112079807Y-107638857D01*
X112079802Y-107638855D01*
X111920512Y-107604998D01*
X111894646Y-107599500D01*
X111705354Y-107599500D01*
X111679488Y-107604998D01*
X111520197Y-107638855D01*
X111520192Y-107638857D01*
X111347270Y-107715848D01*
X111347265Y-107715851D01*
X111194129Y-107827111D01*
X111067467Y-107967783D01*
X111057387Y-107985243D01*
X111006819Y-108033458D01*
X110938212Y-108046680D01*
X110873347Y-108020712D01*
X110842613Y-107985243D01*
X110836807Y-107975187D01*
X110832533Y-107967784D01*
X110705871Y-107827112D01*
X110684719Y-107811744D01*
X110552734Y-107715851D01*
X110552729Y-107715848D01*
X110379807Y-107638857D01*
X110379802Y-107638855D01*
X110220512Y-107604998D01*
X110194646Y-107599500D01*
X110005354Y-107599500D01*
X109979488Y-107604998D01*
X109820197Y-107638855D01*
X109820192Y-107638857D01*
X109647270Y-107715848D01*
X109647265Y-107715851D01*
X109494129Y-107827111D01*
X109367466Y-107967785D01*
X109272821Y-108131715D01*
X109272818Y-108131722D01*
X109215698Y-108307520D01*
X109214326Y-108311744D01*
X109194540Y-108500000D01*
X109214326Y-108688256D01*
X109214327Y-108688259D01*
X109272818Y-108868277D01*
X109272821Y-108868284D01*
X109367467Y-109032216D01*
X109431650Y-109103498D01*
X109461880Y-109166489D01*
X109463500Y-109186470D01*
X109463500Y-113816500D01*
X109443815Y-113883539D01*
X109391011Y-113929294D01*
X109339500Y-113940500D01*
X106084309Y-113940500D01*
X106017270Y-113920815D01*
X105996628Y-113904181D01*
X105990370Y-113897923D01*
X105990362Y-113897917D01*
X105848896Y-113814255D01*
X105848893Y-113814254D01*
X105691073Y-113768402D01*
X105691067Y-113768401D01*
X105654201Y-113765500D01*
X105654194Y-113765500D01*
X104347806Y-113765500D01*
X104347798Y-113765500D01*
X104310932Y-113768401D01*
X104310926Y-113768402D01*
X104153106Y-113814254D01*
X104153103Y-113814255D01*
X104011637Y-113897917D01*
X104011629Y-113897923D01*
X103895423Y-114014129D01*
X103895417Y-114014137D01*
X103811755Y-114155603D01*
X103811754Y-114155606D01*
X103765902Y-114313426D01*
X103765901Y-114313432D01*
X103763000Y-114350298D01*
X93420500Y-114350298D01*
X93420500Y-111500000D01*
X95896751Y-111500000D01*
X95915731Y-111813781D01*
X95915731Y-111813786D01*
X95915732Y-111813787D01*
X95972397Y-112122998D01*
X95972398Y-112123002D01*
X95972399Y-112123006D01*
X96065913Y-112423106D01*
X96065917Y-112423118D01*
X96065920Y-112423125D01*
X96194937Y-112709790D01*
X96357567Y-112978812D01*
X96357573Y-112978821D01*
X96551442Y-113226276D01*
X96773723Y-113448557D01*
X96949339Y-113586144D01*
X97021186Y-113642432D01*
X97290210Y-113805063D01*
X97576875Y-113934080D01*
X97576888Y-113934084D01*
X97576893Y-113934086D01*
X97776959Y-113996428D01*
X97877002Y-114027603D01*
X98186213Y-114084268D01*
X98500000Y-114103249D01*
X98813787Y-114084268D01*
X99122998Y-114027603D01*
X99382486Y-113946743D01*
X99423106Y-113934086D01*
X99423106Y-113934085D01*
X99423125Y-113934080D01*
X99709790Y-113805063D01*
X99978814Y-113642432D01*
X100226273Y-113448560D01*
X100448560Y-113226273D01*
X100642432Y-112978814D01*
X100805063Y-112709790D01*
X100934080Y-112423125D01*
X100940625Y-112402123D01*
X100954208Y-112358531D01*
X101027603Y-112122998D01*
X101084268Y-111813787D01*
X101103249Y-111500000D01*
X101084268Y-111186213D01*
X101027603Y-110877002D01*
X100982426Y-110732023D01*
X100936766Y-110585494D01*
X103959057Y-110585494D01*
X103959057Y-110585505D01*
X103978807Y-110899442D01*
X103978808Y-110899449D01*
X104037755Y-111208458D01*
X104134963Y-111507632D01*
X104134965Y-111507637D01*
X104268900Y-111792261D01*
X104268903Y-111792267D01*
X104437457Y-112057867D01*
X104437460Y-112057871D01*
X104528286Y-112167660D01*
X105491913Y-111204033D01*
X105586829Y-111334675D01*
X105714825Y-111462671D01*
X105845465Y-111557586D01*
X104878971Y-112524079D01*
X104878972Y-112524081D01*
X105121772Y-112700485D01*
X105121790Y-112700496D01*
X105397447Y-112852040D01*
X105397455Y-112852044D01*
X105689926Y-112967840D01*
X105994620Y-113046073D01*
X105994629Y-113046075D01*
X106306701Y-113085499D01*
X106306715Y-113085500D01*
X106621285Y-113085500D01*
X106621298Y-113085499D01*
X106933370Y-113046075D01*
X106933379Y-113046073D01*
X107238073Y-112967840D01*
X107530544Y-112852044D01*
X107530552Y-112852040D01*
X107806209Y-112700496D01*
X107806219Y-112700490D01*
X108049026Y-112524079D01*
X108049027Y-112524079D01*
X107082533Y-111557586D01*
X107213175Y-111462671D01*
X107341171Y-111334675D01*
X107436086Y-111204034D01*
X108399712Y-112167660D01*
X108490544Y-112057864D01*
X108659096Y-111792267D01*
X108659099Y-111792261D01*
X108793034Y-111507637D01*
X108793036Y-111507632D01*
X108890244Y-111208458D01*
X108949191Y-110899449D01*
X108949192Y-110899442D01*
X108968943Y-110585505D01*
X108968943Y-110585494D01*
X108949192Y-110271557D01*
X108949191Y-110271550D01*
X108890244Y-109962541D01*
X108793036Y-109663367D01*
X108793034Y-109663362D01*
X108659099Y-109378738D01*
X108659096Y-109378732D01*
X108490542Y-109113132D01*
X108490539Y-109113128D01*
X108399712Y-109003338D01*
X107436085Y-109966965D01*
X107341171Y-109836325D01*
X107213175Y-109708329D01*
X107082533Y-109613413D01*
X108049027Y-108646919D01*
X108049026Y-108646917D01*
X107834157Y-108490806D01*
X107791491Y-108435476D01*
X107785512Y-108365863D01*
X107818118Y-108304068D01*
X107878956Y-108269711D01*
X107886587Y-108269588D01*
X107896000Y-108261863D01*
X107896000Y-107458988D01*
X107905940Y-107476205D01*
X107961795Y-107532060D01*
X108030204Y-107571556D01*
X108106504Y-107592000D01*
X108185496Y-107592000D01*
X108261796Y-107571556D01*
X108330205Y-107532060D01*
X108386060Y-107476205D01*
X108396000Y-107458988D01*
X108396000Y-108261862D01*
X108437690Y-108253569D01*
X108437692Y-108253569D01*
X108619671Y-108178192D01*
X108619684Y-108178185D01*
X108783462Y-108068751D01*
X108783466Y-108068748D01*
X108922748Y-107929466D01*
X108922751Y-107929462D01*
X109032185Y-107765684D01*
X109032192Y-107765671D01*
X109107569Y-107583693D01*
X109107572Y-107583681D01*
X109145999Y-107390495D01*
X109146000Y-107390492D01*
X109146000Y-106873044D01*
X109165685Y-106806005D01*
X109218489Y-106760250D01*
X109287647Y-106750306D01*
X109332000Y-106765657D01*
X109353865Y-106778281D01*
X109500234Y-106817500D01*
X109500236Y-106817500D01*
X109651764Y-106817500D01*
X109651766Y-106817500D01*
X109798135Y-106778281D01*
X109929365Y-106702515D01*
X110036515Y-106595365D01*
X110112281Y-106464135D01*
X110151500Y-106317766D01*
X110151500Y-106166234D01*
X114780500Y-106166234D01*
X114780500Y-106317766D01*
X114793303Y-106365549D01*
X114819719Y-106464136D01*
X114835807Y-106492000D01*
X114895485Y-106595365D01*
X115002635Y-106702515D01*
X115133865Y-106778281D01*
X115280234Y-106817500D01*
X115280236Y-106817500D01*
X115431764Y-106817500D01*
X115431766Y-106817500D01*
X115578135Y-106778281D01*
X115599999Y-106765657D01*
X115667897Y-106749184D01*
X115733925Y-106772035D01*
X115777117Y-106826955D01*
X115786000Y-106873044D01*
X115786000Y-107390495D01*
X115824427Y-107583681D01*
X115824430Y-107583693D01*
X115899807Y-107765671D01*
X115899814Y-107765684D01*
X116009248Y-107929462D01*
X116009251Y-107929466D01*
X116148533Y-108068748D01*
X116148537Y-108068751D01*
X116312315Y-108178185D01*
X116312328Y-108178192D01*
X116494308Y-108253569D01*
X116536000Y-108261862D01*
X116536000Y-107458988D01*
X116545940Y-107476205D01*
X116601795Y-107532060D01*
X116670204Y-107571556D01*
X116746504Y-107592000D01*
X116825496Y-107592000D01*
X116901796Y-107571556D01*
X116970205Y-107532060D01*
X117026060Y-107476205D01*
X117036000Y-107458988D01*
X117036000Y-108261863D01*
X117052067Y-108275050D01*
X117064850Y-108276194D01*
X117120027Y-108319057D01*
X117143272Y-108384947D01*
X117127204Y-108452944D01*
X117092335Y-108491902D01*
X116878972Y-108646918D01*
X116878971Y-108646919D01*
X117845466Y-109613413D01*
X117714825Y-109708329D01*
X117586829Y-109836325D01*
X117491913Y-109966965D01*
X116528286Y-109003338D01*
X116528285Y-109003338D01*
X116437459Y-109113129D01*
X116437457Y-109113132D01*
X116268903Y-109378732D01*
X116268900Y-109378738D01*
X116134965Y-109663362D01*
X116134963Y-109663367D01*
X116037755Y-109962541D01*
X115978808Y-110271550D01*
X115978807Y-110271557D01*
X115959057Y-110585494D01*
X115959057Y-110585505D01*
X115978807Y-110899442D01*
X115978808Y-110899449D01*
X116037755Y-111208458D01*
X116134963Y-111507632D01*
X116134965Y-111507637D01*
X116268900Y-111792261D01*
X116268903Y-111792267D01*
X116437457Y-112057867D01*
X116437460Y-112057871D01*
X116528286Y-112167660D01*
X117491913Y-111204033D01*
X117586829Y-111334675D01*
X117714825Y-111462671D01*
X117845465Y-111557586D01*
X116878971Y-112524079D01*
X116878972Y-112524081D01*
X117121772Y-112700485D01*
X117121790Y-112700496D01*
X117397447Y-112852040D01*
X117397455Y-112852044D01*
X117689926Y-112967840D01*
X117994620Y-113046073D01*
X117994629Y-113046075D01*
X118306701Y-113085499D01*
X118306715Y-113085500D01*
X118621285Y-113085500D01*
X118621298Y-113085499D01*
X118933370Y-113046075D01*
X118933379Y-113046073D01*
X119238073Y-112967840D01*
X119530544Y-112852044D01*
X119530552Y-112852040D01*
X119806209Y-112700496D01*
X119806219Y-112700490D01*
X120049026Y-112524079D01*
X120049027Y-112524079D01*
X119082533Y-111557586D01*
X119213175Y-111462671D01*
X119341171Y-111334675D01*
X119436086Y-111204034D01*
X120399712Y-112167660D01*
X120490544Y-112057864D01*
X120659096Y-111792267D01*
X120659099Y-111792261D01*
X120793034Y-111507637D01*
X120793036Y-111507632D01*
X120890244Y-111208458D01*
X120949191Y-110899449D01*
X120949192Y-110899442D01*
X120968943Y-110585505D01*
X120968943Y-110585494D01*
X120949192Y-110271557D01*
X120949191Y-110271550D01*
X120890244Y-109962541D01*
X120793036Y-109663367D01*
X120793034Y-109663362D01*
X120659099Y-109378738D01*
X120659096Y-109378732D01*
X120490542Y-109113132D01*
X120490539Y-109113128D01*
X120399712Y-109003338D01*
X119436085Y-109966964D01*
X119341171Y-109836325D01*
X119213175Y-109708329D01*
X119082533Y-109613413D01*
X120049027Y-108646919D01*
X120049026Y-108646917D01*
X119806227Y-108470514D01*
X119806209Y-108470503D01*
X119530552Y-108318959D01*
X119530544Y-108318955D01*
X119238073Y-108203159D01*
X118933379Y-108124926D01*
X118933370Y-108124924D01*
X118621298Y-108085500D01*
X118306701Y-108085500D01*
X117994629Y-108124924D01*
X117994620Y-108124926D01*
X117689933Y-108203157D01*
X117583036Y-108245480D01*
X117513458Y-108251856D01*
X117451478Y-108219603D01*
X117416774Y-108158961D01*
X117420364Y-108089184D01*
X117449708Y-108042505D01*
X117562752Y-107929461D01*
X117672185Y-107765684D01*
X117672192Y-107765671D01*
X117747569Y-107583693D01*
X117747572Y-107583681D01*
X117785999Y-107390495D01*
X117786000Y-107390492D01*
X117786000Y-106992000D01*
X117086000Y-106992000D01*
X117086000Y-106492000D01*
X117786000Y-106492000D01*
X117786000Y-106093508D01*
X117785999Y-106093504D01*
X117747572Y-105900318D01*
X117747569Y-105900306D01*
X117672192Y-105718328D01*
X117672185Y-105718315D01*
X117562751Y-105554537D01*
X117562748Y-105554533D01*
X117423466Y-105415251D01*
X117423462Y-105415248D01*
X117259684Y-105305814D01*
X117259671Y-105305807D01*
X117077691Y-105230429D01*
X117077683Y-105230427D01*
X117036000Y-105222135D01*
X117036000Y-106025011D01*
X117026060Y-106007795D01*
X116970205Y-105951940D01*
X116901796Y-105912444D01*
X116825496Y-105892000D01*
X116746504Y-105892000D01*
X116670204Y-105912444D01*
X116601795Y-105951940D01*
X116545940Y-106007795D01*
X116536000Y-106025011D01*
X116536000Y-105222136D01*
X116535999Y-105222135D01*
X116494316Y-105230427D01*
X116494308Y-105230429D01*
X116312328Y-105305807D01*
X116312315Y-105305814D01*
X116148537Y-105415248D01*
X116148533Y-105415251D01*
X116009251Y-105554533D01*
X116009248Y-105554537D01*
X115899814Y-105718315D01*
X115899809Y-105718324D01*
X115895866Y-105727845D01*
X115852023Y-105782247D01*
X115785728Y-105804310D01*
X115718030Y-105787029D01*
X115712597Y-105783351D01*
X115578136Y-105705719D01*
X115504950Y-105686109D01*
X115431766Y-105666500D01*
X115280234Y-105666500D01*
X115133863Y-105705719D01*
X115002635Y-105781485D01*
X115002632Y-105781487D01*
X114895487Y-105888632D01*
X114895485Y-105888635D01*
X114819719Y-106019863D01*
X114784179Y-106152504D01*
X114780500Y-106166234D01*
X110151500Y-106166234D01*
X110112281Y-106019865D01*
X110036515Y-105888635D01*
X109929365Y-105781485D01*
X109859406Y-105741094D01*
X109798136Y-105705719D01*
X109724950Y-105686109D01*
X109651766Y-105666500D01*
X109500234Y-105666500D01*
X109353863Y-105705719D01*
X109262428Y-105758510D01*
X109222635Y-105781485D01*
X109222633Y-105781486D01*
X109215597Y-105785549D01*
X109214327Y-105783349D01*
X109160995Y-105803960D01*
X109092552Y-105789914D01*
X109042568Y-105741094D01*
X109036131Y-105727838D01*
X109032192Y-105718328D01*
X109032185Y-105718315D01*
X108922751Y-105554537D01*
X108922748Y-105554533D01*
X108783466Y-105415251D01*
X108783462Y-105415248D01*
X108619684Y-105305814D01*
X108619671Y-105305807D01*
X108437691Y-105230429D01*
X108437683Y-105230427D01*
X108396000Y-105222135D01*
X108396000Y-106025011D01*
X108386060Y-106007795D01*
X108330205Y-105951940D01*
X108261796Y-105912444D01*
X108185496Y-105892000D01*
X108106504Y-105892000D01*
X108030204Y-105912444D01*
X107961795Y-105951940D01*
X107905940Y-106007795D01*
X107896000Y-106025011D01*
X107896000Y-105222136D01*
X107895999Y-105222135D01*
X107854316Y-105230427D01*
X107854308Y-105230429D01*
X107672328Y-105305807D01*
X107672315Y-105305814D01*
X107508537Y-105415248D01*
X107508533Y-105415251D01*
X107369251Y-105554533D01*
X107369248Y-105554537D01*
X107259814Y-105718315D01*
X107259807Y-105718328D01*
X107184430Y-105900306D01*
X107184427Y-105900318D01*
X107146000Y-106093504D01*
X107146000Y-106492000D01*
X107846000Y-106492000D01*
X107846000Y-106992000D01*
X107146000Y-106992000D01*
X107146000Y-107390495D01*
X107184427Y-107583681D01*
X107184430Y-107583693D01*
X107259807Y-107765671D01*
X107259814Y-107765684D01*
X107369248Y-107929462D01*
X107369251Y-107929466D01*
X107484913Y-108045128D01*
X107518398Y-108106451D01*
X107513414Y-108176143D01*
X107471542Y-108232076D01*
X107406078Y-108256493D01*
X107351585Y-108248101D01*
X107238073Y-108203159D01*
X106933379Y-108124926D01*
X106933370Y-108124924D01*
X106621298Y-108085500D01*
X106306701Y-108085500D01*
X105994629Y-108124924D01*
X105994620Y-108124926D01*
X105689926Y-108203159D01*
X105397455Y-108318955D01*
X105397447Y-108318959D01*
X105121787Y-108470504D01*
X105121782Y-108470507D01*
X104878972Y-108646918D01*
X104878971Y-108646919D01*
X105845466Y-109613413D01*
X105714825Y-109708329D01*
X105586829Y-109836325D01*
X105491913Y-109966965D01*
X104528286Y-109003338D01*
X104528285Y-109003338D01*
X104437459Y-109113129D01*
X104437457Y-109113132D01*
X104268903Y-109378732D01*
X104268900Y-109378738D01*
X104134965Y-109663362D01*
X104134963Y-109663367D01*
X104037755Y-109962541D01*
X103978808Y-110271550D01*
X103978807Y-110271557D01*
X103959057Y-110585494D01*
X100936766Y-110585494D01*
X100934086Y-110576893D01*
X100934084Y-110576888D01*
X100934080Y-110576875D01*
X100805063Y-110290210D01*
X100642432Y-110021186D01*
X100640336Y-110018511D01*
X100448557Y-109773723D01*
X100226276Y-109551442D01*
X99978821Y-109357573D01*
X99978816Y-109357570D01*
X99978814Y-109357568D01*
X99709790Y-109194937D01*
X99423125Y-109065920D01*
X99423118Y-109065917D01*
X99423106Y-109065913D01*
X99123006Y-108972399D01*
X99123002Y-108972398D01*
X99122998Y-108972397D01*
X98813787Y-108915732D01*
X98813786Y-108915731D01*
X98813781Y-108915731D01*
X98500000Y-108896751D01*
X98186218Y-108915731D01*
X98186213Y-108915732D01*
X97877002Y-108972397D01*
X97876999Y-108972397D01*
X97876993Y-108972399D01*
X97576893Y-109065913D01*
X97576877Y-109065919D01*
X97576875Y-109065920D01*
X97500577Y-109100259D01*
X97301042Y-109190062D01*
X97290210Y-109194937D01*
X97263799Y-109210903D01*
X97021187Y-109357567D01*
X97021178Y-109357573D01*
X96773723Y-109551442D01*
X96551442Y-109773723D01*
X96357573Y-110021178D01*
X96357567Y-110021187D01*
X96285827Y-110139860D01*
X96206218Y-110271550D01*
X96194936Y-110290212D01*
X96194935Y-110290214D01*
X96166682Y-110352991D01*
X96067890Y-110572499D01*
X96065919Y-110576878D01*
X96065913Y-110576893D01*
X95972399Y-110876993D01*
X95972397Y-110876999D01*
X95972397Y-110877002D01*
X95945480Y-111023882D01*
X95915731Y-111186218D01*
X95896751Y-111500000D01*
X93420500Y-111500000D01*
X93420500Y-107428453D01*
X93440185Y-107361414D01*
X93471614Y-107328135D01*
X93511871Y-107298888D01*
X93514977Y-107295437D01*
X93517600Y-107292526D01*
X93577087Y-107255879D01*
X93609748Y-107251500D01*
X96774252Y-107251500D01*
X96841291Y-107271185D01*
X96866400Y-107292526D01*
X96872126Y-107298885D01*
X96872130Y-107298889D01*
X97025265Y-107410148D01*
X97025270Y-107410151D01*
X97198192Y-107487142D01*
X97198197Y-107487144D01*
X97383354Y-107526500D01*
X97383355Y-107526500D01*
X97572644Y-107526500D01*
X97572646Y-107526500D01*
X97757803Y-107487144D01*
X97930730Y-107410151D01*
X98083871Y-107298888D01*
X98210533Y-107158216D01*
X98305179Y-106994284D01*
X98363674Y-106814256D01*
X98383460Y-106626000D01*
X98363674Y-106437744D01*
X98305179Y-106257716D01*
X98210533Y-106093784D01*
X98133108Y-106007795D01*
X98119651Y-105992849D01*
X98089421Y-105929857D01*
X98093869Y-105871561D01*
X98115723Y-105804305D01*
X98135509Y-105616049D01*
X98115723Y-105427793D01*
X98057228Y-105247765D01*
X97962582Y-105083833D01*
X97835920Y-104943161D01*
X97835919Y-104943160D01*
X97682783Y-104831900D01*
X97682778Y-104831897D01*
X97509856Y-104754906D01*
X97509851Y-104754904D01*
X97364050Y-104723914D01*
X97324695Y-104715549D01*
X97135403Y-104715549D01*
X97117784Y-104719294D01*
X96950246Y-104754904D01*
X96950241Y-104754906D01*
X96777319Y-104831897D01*
X96777314Y-104831900D01*
X96624179Y-104943159D01*
X96624175Y-104943163D01*
X96618449Y-104949523D01*
X96558962Y-104986170D01*
X96526301Y-104990549D01*
X89790340Y-104990549D01*
X89729922Y-105002567D01*
X89686694Y-105011165D01*
X89669497Y-105014586D01*
X89636946Y-105028070D01*
X89636945Y-105028070D01*
X89555664Y-105061737D01*
X89555659Y-105061739D01*
X89453223Y-105130187D01*
X89453215Y-105130193D01*
X88039141Y-106544267D01*
X88031038Y-106556394D01*
X88025694Y-106564394D01*
X88005000Y-106595364D01*
X87970687Y-106646714D01*
X87970685Y-106646718D01*
X87938092Y-106725406D01*
X87938092Y-106725409D01*
X87923661Y-106760250D01*
X87923537Y-106760549D01*
X87923535Y-106760556D01*
X87899500Y-106881389D01*
X87899500Y-107640713D01*
X87879815Y-107707752D01*
X87834518Y-107749768D01*
X87760487Y-107789831D01*
X87760481Y-107789835D01*
X87578319Y-107931618D01*
X87578315Y-107931621D01*
X87476230Y-108042516D01*
X87416343Y-108078507D01*
X87346504Y-108076406D01*
X87293770Y-108042516D01*
X87285432Y-108033458D01*
X87191687Y-107931624D01*
X87191686Y-107931623D01*
X87191684Y-107931621D01*
X87191680Y-107931618D01*
X87009518Y-107789835D01*
X87009507Y-107789828D01*
X86806485Y-107679959D01*
X86806482Y-107679957D01*
X86806479Y-107679956D01*
X86806476Y-107679955D01*
X86806474Y-107679954D01*
X86588135Y-107604998D01*
X86387729Y-107571556D01*
X86360427Y-107567000D01*
X86129573Y-107567000D01*
X86102271Y-107571556D01*
X85901864Y-107604998D01*
X85683525Y-107679954D01*
X85683514Y-107679959D01*
X85480492Y-107789828D01*
X85480481Y-107789835D01*
X85298319Y-107931618D01*
X85298315Y-107931621D01*
X85196230Y-108042516D01*
X85136343Y-108078507D01*
X85066504Y-108076406D01*
X85013770Y-108042516D01*
X85005432Y-108033458D01*
X84911687Y-107931624D01*
X84911686Y-107931623D01*
X84911684Y-107931621D01*
X84911680Y-107931618D01*
X84729518Y-107789835D01*
X84729507Y-107789828D01*
X84526485Y-107679959D01*
X84526482Y-107679957D01*
X84526479Y-107679956D01*
X84526476Y-107679955D01*
X84526474Y-107679954D01*
X84308135Y-107604998D01*
X84107729Y-107571556D01*
X84080427Y-107567000D01*
X83849573Y-107567000D01*
X83822271Y-107571556D01*
X83621864Y-107604998D01*
X83403525Y-107679954D01*
X83403514Y-107679959D01*
X83200492Y-107789828D01*
X83200481Y-107789835D01*
X83018319Y-107931618D01*
X83018315Y-107931621D01*
X82916230Y-108042516D01*
X82856343Y-108078507D01*
X82786504Y-108076406D01*
X82733770Y-108042516D01*
X82725432Y-108033458D01*
X82631687Y-107931624D01*
X82631686Y-107931623D01*
X82631684Y-107931621D01*
X82631680Y-107931618D01*
X82449518Y-107789835D01*
X82449507Y-107789828D01*
X82246485Y-107679959D01*
X82246482Y-107679957D01*
X82246479Y-107679956D01*
X82246476Y-107679955D01*
X82246474Y-107679954D01*
X82028135Y-107604998D01*
X81827729Y-107571556D01*
X81800427Y-107567000D01*
X81569573Y-107567000D01*
X81542271Y-107571556D01*
X81341864Y-107604998D01*
X81123525Y-107679954D01*
X81123514Y-107679959D01*
X80920492Y-107789828D01*
X80920481Y-107789835D01*
X80738319Y-107931618D01*
X80738316Y-107931621D01*
X80581961Y-108101467D01*
X80581958Y-108101471D01*
X80455694Y-108294731D01*
X80362960Y-108506145D01*
X80306289Y-108729937D01*
X80287226Y-108959994D01*
X80287226Y-108960005D01*
X80306289Y-109190062D01*
X80362960Y-109413854D01*
X80455694Y-109625268D01*
X80545149Y-109762188D01*
X80581960Y-109818531D01*
X80648497Y-109890810D01*
X80656513Y-109899517D01*
X80687435Y-109962172D01*
X80679575Y-110031598D01*
X80635428Y-110085753D01*
X80569010Y-110107444D01*
X80565283Y-110107500D01*
X80429615Y-110107500D01*
X80201987Y-110145484D01*
X79983729Y-110220413D01*
X79983721Y-110220416D01*
X79780760Y-110330254D01*
X79751545Y-110352991D01*
X79751545Y-110352992D01*
X80338022Y-110939469D01*
X80315339Y-110945548D01*
X80179662Y-111023882D01*
X80068882Y-111134662D01*
X79990548Y-111270339D01*
X79984470Y-111293022D01*
X79399230Y-110707783D01*
X79316135Y-110834972D01*
X79223435Y-111046308D01*
X79166784Y-111270020D01*
X79147728Y-111499994D01*
X79147728Y-111500005D01*
X79166784Y-111729979D01*
X79223435Y-111953691D01*
X79316135Y-112165027D01*
X79399230Y-112292214D01*
X79984469Y-111706976D01*
X79990548Y-111729661D01*
X80068882Y-111865338D01*
X80179662Y-111976118D01*
X80315339Y-112054452D01*
X80338022Y-112060529D01*
X79751544Y-112647006D01*
X79751545Y-112647007D01*
X79780762Y-112669747D01*
X79780764Y-112669748D01*
X79983720Y-112779583D01*
X79983729Y-112779586D01*
X80201987Y-112854515D01*
X80209570Y-112855781D01*
X80272455Y-112886231D01*
X80308895Y-112945846D01*
X80307320Y-113015698D01*
X80305344Y-113021420D01*
X80298409Y-113040015D01*
X80298408Y-113040016D01*
X80292001Y-113099616D01*
X80292000Y-113099635D01*
X80292000Y-114980370D01*
X80292001Y-114980376D01*
X80298408Y-115039983D01*
X80348702Y-115174828D01*
X80348706Y-115174835D01*
X80434952Y-115290044D01*
X80434955Y-115290047D01*
X80550164Y-115376293D01*
X80550171Y-115376297D01*
X80566486Y-115382382D01*
X80685017Y-115426591D01*
X80744627Y-115433000D01*
X80935500Y-115432999D01*
X81002539Y-115452683D01*
X81048294Y-115505487D01*
X81059500Y-115556999D01*
X81059500Y-117611312D01*
X81039815Y-117678351D01*
X81027650Y-117694284D01*
X80952466Y-117777784D01*
X80857821Y-117941715D01*
X80857818Y-117941722D01*
X80824500Y-118044266D01*
X80799326Y-118121744D01*
X80779540Y-118310000D01*
X80799326Y-118498256D01*
X80799327Y-118498259D01*
X80857818Y-118678277D01*
X80857821Y-118678284D01*
X80952467Y-118842216D01*
X80975118Y-118867372D01*
X81027650Y-118925715D01*
X81057880Y-118988706D01*
X81059500Y-119008687D01*
X81059500Y-122222846D01*
X81039815Y-122289885D01*
X81023181Y-122310527D01*
X77922002Y-125411706D01*
X74806270Y-128527438D01*
X74806267Y-128527441D01*
X74765374Y-128568334D01*
X74719142Y-128614565D01*
X74698472Y-128645501D01*
X74698471Y-128645502D01*
X74650690Y-128717007D01*
X74650688Y-128717012D01*
X74629207Y-128768871D01*
X74629208Y-128768872D01*
X74607112Y-128822218D01*
X74605789Y-128825413D01*
X74603538Y-128830846D01*
X74603534Y-128830858D01*
X74584226Y-128927931D01*
X74584226Y-128927932D01*
X74579500Y-128951690D01*
X68656196Y-128951690D01*
X68436021Y-128692479D01*
X68172254Y-128442625D01*
X68172244Y-128442617D01*
X68075595Y-128369147D01*
X67883019Y-128222755D01*
X67571708Y-128035445D01*
X67571707Y-128035444D01*
X67571703Y-128035442D01*
X67571699Y-128035440D01*
X67241979Y-127882896D01*
X67241974Y-127882894D01*
X67241969Y-127882892D01*
X67042990Y-127815848D01*
X66897669Y-127766883D01*
X66542845Y-127688781D01*
X66181660Y-127649500D01*
X66181659Y-127649500D01*
X65818341Y-127649500D01*
X65818339Y-127649500D01*
X65457154Y-127688781D01*
X65102330Y-127766883D01*
X64853674Y-127850666D01*
X64758031Y-127882892D01*
X64758028Y-127882893D01*
X64758020Y-127882896D01*
X64428300Y-128035440D01*
X64428296Y-128035442D01*
X64268478Y-128131602D01*
X64116981Y-128222755D01*
X64078757Y-128251812D01*
X63827755Y-128442617D01*
X63827745Y-128442625D01*
X63563978Y-128692479D01*
X63328772Y-128969386D01*
X63124884Y-129270098D01*
X63124878Y-129270107D01*
X62954706Y-129591086D01*
X62954700Y-129591098D01*
X62820226Y-129928603D01*
X62820221Y-129928618D01*
X62723030Y-130278670D01*
X62723024Y-130278696D01*
X62664250Y-130637200D01*
X62664248Y-130637217D01*
X62644579Y-130999997D01*
X60500000Y-130999997D01*
X60500000Y-111500000D01*
X70896751Y-111500000D01*
X70915731Y-111813781D01*
X70915731Y-111813786D01*
X70915732Y-111813787D01*
X70972397Y-112122998D01*
X70972398Y-112123002D01*
X70972399Y-112123006D01*
X71065913Y-112423106D01*
X71065917Y-112423118D01*
X71065920Y-112423125D01*
X71194937Y-112709790D01*
X71357567Y-112978812D01*
X71357573Y-112978821D01*
X71551442Y-113226276D01*
X71773723Y-113448557D01*
X71949339Y-113586144D01*
X72021186Y-113642432D01*
X72290210Y-113805063D01*
X72576875Y-113934080D01*
X72576888Y-113934084D01*
X72576893Y-113934086D01*
X72776959Y-113996428D01*
X72877002Y-114027603D01*
X73186213Y-114084268D01*
X73500000Y-114103249D01*
X73813787Y-114084268D01*
X74122998Y-114027603D01*
X74382486Y-113946743D01*
X74423106Y-113934086D01*
X74423106Y-113934085D01*
X74423125Y-113934080D01*
X74709790Y-113805063D01*
X74978814Y-113642432D01*
X75226273Y-113448560D01*
X75448560Y-113226273D01*
X75642432Y-112978814D01*
X75805063Y-112709790D01*
X75934080Y-112423125D01*
X75940625Y-112402123D01*
X75954208Y-112358531D01*
X76027603Y-112122998D01*
X76084268Y-111813787D01*
X76103249Y-111500000D01*
X76084268Y-111186213D01*
X76027603Y-110877002D01*
X75982426Y-110732023D01*
X75934086Y-110576893D01*
X75934084Y-110576888D01*
X75934080Y-110576875D01*
X75805063Y-110290210D01*
X75642432Y-110021186D01*
X75640336Y-110018511D01*
X75448557Y-109773723D01*
X75226276Y-109551442D01*
X74978821Y-109357573D01*
X74978816Y-109357570D01*
X74978814Y-109357568D01*
X74709790Y-109194937D01*
X74423125Y-109065920D01*
X74423118Y-109065917D01*
X74423106Y-109065913D01*
X74123006Y-108972399D01*
X74123002Y-108972398D01*
X74122998Y-108972397D01*
X73813787Y-108915732D01*
X73813786Y-108915731D01*
X73813781Y-108915731D01*
X73500000Y-108896751D01*
X73186218Y-108915731D01*
X73186213Y-108915732D01*
X72877002Y-108972397D01*
X72876999Y-108972397D01*
X72876993Y-108972399D01*
X72576893Y-109065913D01*
X72576877Y-109065919D01*
X72576875Y-109065920D01*
X72500577Y-109100259D01*
X72301042Y-109190062D01*
X72290210Y-109194937D01*
X72263799Y-109210903D01*
X72021187Y-109357567D01*
X72021178Y-109357573D01*
X71773723Y-109551442D01*
X71551442Y-109773723D01*
X71357573Y-110021178D01*
X71357567Y-110021187D01*
X71285827Y-110139860D01*
X71206218Y-110271550D01*
X71194936Y-110290212D01*
X71194935Y-110290214D01*
X71166682Y-110352991D01*
X71067890Y-110572499D01*
X71065919Y-110576878D01*
X71065913Y-110576893D01*
X70972399Y-110876993D01*
X70972397Y-110876999D01*
X70972397Y-110877002D01*
X70945480Y-111023882D01*
X70915731Y-111186218D01*
X70896751Y-111500000D01*
X60500000Y-111500000D01*
X60500000Y-105999997D01*
X62644579Y-105999997D01*
X62644579Y-106000002D01*
X62664248Y-106362782D01*
X62664250Y-106362799D01*
X62723024Y-106721303D01*
X62723030Y-106721329D01*
X62820221Y-107071381D01*
X62820226Y-107071396D01*
X62954700Y-107408901D01*
X62954706Y-107408913D01*
X63124878Y-107729892D01*
X63124881Y-107729897D01*
X63124883Y-107729900D01*
X63193604Y-107831255D01*
X63328772Y-108030613D01*
X63531759Y-108269588D01*
X63563979Y-108307521D01*
X63827746Y-108557375D01*
X64116981Y-108777245D01*
X64428292Y-108964555D01*
X64428294Y-108964556D01*
X64428296Y-108964557D01*
X64428300Y-108964559D01*
X64749437Y-109113132D01*
X64758031Y-109117108D01*
X65102330Y-109233116D01*
X65457153Y-109311218D01*
X65818341Y-109350500D01*
X65818347Y-109350500D01*
X66181653Y-109350500D01*
X66181659Y-109350500D01*
X66542847Y-109311218D01*
X66897670Y-109233116D01*
X67241969Y-109117108D01*
X67571708Y-108964555D01*
X67883019Y-108777245D01*
X68172254Y-108557375D01*
X68436021Y-108307521D01*
X68671227Y-108030614D01*
X68875117Y-107729900D01*
X69045298Y-107408905D01*
X69179775Y-107071391D01*
X69276973Y-106721316D01*
X69309065Y-106525564D01*
X69335749Y-106362799D01*
X69335751Y-106362782D01*
X69355421Y-106000002D01*
X69355421Y-105999997D01*
X69340665Y-105727845D01*
X69335751Y-105637215D01*
X69331289Y-105610000D01*
X69276975Y-105278696D01*
X69276974Y-105278695D01*
X69276973Y-105278684D01*
X69235743Y-105130187D01*
X69179778Y-104928618D01*
X69179773Y-104928603D01*
X69085240Y-104691342D01*
X69045298Y-104591095D01*
X68947520Y-104406666D01*
X68875121Y-104270107D01*
X68875119Y-104270104D01*
X68875117Y-104270100D01*
X68759204Y-104099142D01*
X68671227Y-103969385D01*
X68436021Y-103692479D01*
X68172254Y-103442625D01*
X68172244Y-103442617D01*
X68103635Y-103390462D01*
X67883019Y-103222755D01*
X67571708Y-103035445D01*
X67571707Y-103035444D01*
X67571703Y-103035442D01*
X67571699Y-103035440D01*
X67241979Y-102882896D01*
X67241974Y-102882894D01*
X67241969Y-102882892D01*
X67043438Y-102815999D01*
X66897669Y-102766883D01*
X66542845Y-102688781D01*
X66181660Y-102649500D01*
X66181659Y-102649500D01*
X65818341Y-102649500D01*
X65818339Y-102649500D01*
X65457154Y-102688781D01*
X65102330Y-102766883D01*
X64869677Y-102845274D01*
X64758031Y-102882892D01*
X64758028Y-102882893D01*
X64758020Y-102882896D01*
X64428300Y-103035440D01*
X64428296Y-103035442D01*
X64357904Y-103077796D01*
X64116981Y-103222755D01*
X64076283Y-103253693D01*
X63827755Y-103442617D01*
X63827745Y-103442625D01*
X63563978Y-103692479D01*
X63328773Y-103969385D01*
X63124884Y-104270098D01*
X63124878Y-104270107D01*
X62954706Y-104591086D01*
X62954700Y-104591098D01*
X62820226Y-104928603D01*
X62820221Y-104928618D01*
X62723030Y-105278670D01*
X62723024Y-105278696D01*
X62664250Y-105637200D01*
X62664248Y-105637217D01*
X62644579Y-105999997D01*
X60500000Y-105999997D01*
X60500000Y-102063504D01*
X107146000Y-102063504D01*
X107146000Y-102312000D01*
X107846000Y-102312000D01*
X107846000Y-102812000D01*
X107146000Y-102812000D01*
X107146000Y-103060495D01*
X107184427Y-103253681D01*
X107184430Y-103253693D01*
X107259807Y-103435671D01*
X107259814Y-103435684D01*
X107369248Y-103599462D01*
X107369251Y-103599466D01*
X107508533Y-103738748D01*
X107508537Y-103738751D01*
X107672315Y-103848185D01*
X107672328Y-103848192D01*
X107854308Y-103923569D01*
X107896000Y-103931862D01*
X107896000Y-103128988D01*
X107905940Y-103146205D01*
X107961795Y-103202060D01*
X108030204Y-103241556D01*
X108106504Y-103262000D01*
X108185496Y-103262000D01*
X108261796Y-103241556D01*
X108330205Y-103202060D01*
X108386060Y-103146205D01*
X108396000Y-103128988D01*
X108396000Y-103931862D01*
X108437690Y-103923569D01*
X108437692Y-103923569D01*
X108619671Y-103848192D01*
X108619684Y-103848185D01*
X108783462Y-103738751D01*
X108783466Y-103738748D01*
X108922748Y-103599466D01*
X108922751Y-103599462D01*
X109032185Y-103435684D01*
X109032192Y-103435671D01*
X109107569Y-103253693D01*
X109107572Y-103253681D01*
X109145999Y-103060495D01*
X109146000Y-103060492D01*
X109146000Y-102812000D01*
X108446000Y-102812000D01*
X108446000Y-102312000D01*
X109146000Y-102312000D01*
X109146000Y-102063508D01*
X109145999Y-102063504D01*
X115786000Y-102063504D01*
X115786000Y-102312000D01*
X116486000Y-102312000D01*
X116486000Y-102812000D01*
X115786000Y-102812000D01*
X115786000Y-103060495D01*
X115824427Y-103253681D01*
X115824430Y-103253693D01*
X115899807Y-103435671D01*
X115899814Y-103435684D01*
X116009248Y-103599462D01*
X116009251Y-103599466D01*
X116148533Y-103738748D01*
X116148537Y-103738751D01*
X116312315Y-103848185D01*
X116312328Y-103848192D01*
X116494308Y-103923569D01*
X116536000Y-103931862D01*
X116536000Y-103128988D01*
X116545940Y-103146205D01*
X116601795Y-103202060D01*
X116670204Y-103241556D01*
X116746504Y-103262000D01*
X116825496Y-103262000D01*
X116901796Y-103241556D01*
X116970205Y-103202060D01*
X117026060Y-103146205D01*
X117036000Y-103128988D01*
X117036000Y-103931862D01*
X117077690Y-103923569D01*
X117077692Y-103923569D01*
X117259671Y-103848192D01*
X117259684Y-103848185D01*
X117423462Y-103738751D01*
X117423466Y-103738748D01*
X117562748Y-103599466D01*
X117562751Y-103599462D01*
X117672185Y-103435684D01*
X117672192Y-103435671D01*
X117747569Y-103253693D01*
X117747572Y-103253681D01*
X117785999Y-103060495D01*
X117786000Y-103060492D01*
X117786000Y-102812000D01*
X117086000Y-102812000D01*
X117086000Y-102312000D01*
X117786000Y-102312000D01*
X117786000Y-102063508D01*
X117785999Y-102063504D01*
X117747572Y-101870318D01*
X117747569Y-101870306D01*
X117672192Y-101688328D01*
X117672185Y-101688315D01*
X117562751Y-101524537D01*
X117562748Y-101524533D01*
X117423466Y-101385251D01*
X117423462Y-101385248D01*
X117259684Y-101275814D01*
X117259671Y-101275807D01*
X117077691Y-101200429D01*
X117077683Y-101200427D01*
X117036000Y-101192135D01*
X117036000Y-101995011D01*
X117026060Y-101977795D01*
X116970205Y-101921940D01*
X116901796Y-101882444D01*
X116825496Y-101862000D01*
X116746504Y-101862000D01*
X116670204Y-101882444D01*
X116601795Y-101921940D01*
X116545940Y-101977795D01*
X116536000Y-101995011D01*
X116536000Y-101192136D01*
X116535999Y-101192135D01*
X116494316Y-101200427D01*
X116494308Y-101200429D01*
X116312328Y-101275807D01*
X116312315Y-101275814D01*
X116148537Y-101385248D01*
X116148533Y-101385251D01*
X116009251Y-101524533D01*
X116009248Y-101524537D01*
X115899814Y-101688315D01*
X115899807Y-101688328D01*
X115824430Y-101870306D01*
X115824427Y-101870318D01*
X115786000Y-102063504D01*
X109145999Y-102063504D01*
X109107572Y-101870318D01*
X109107569Y-101870306D01*
X109032192Y-101688328D01*
X109032185Y-101688315D01*
X108922751Y-101524537D01*
X108922748Y-101524533D01*
X108783466Y-101385251D01*
X108783462Y-101385248D01*
X108619684Y-101275814D01*
X108619671Y-101275807D01*
X108437691Y-101200429D01*
X108437683Y-101200427D01*
X108396000Y-101192135D01*
X108396000Y-101995011D01*
X108386060Y-101977795D01*
X108330205Y-101921940D01*
X108261796Y-101882444D01*
X108185496Y-101862000D01*
X108106504Y-101862000D01*
X108030204Y-101882444D01*
X107961795Y-101921940D01*
X107905940Y-101977795D01*
X107896000Y-101995011D01*
X107896000Y-101192136D01*
X107895999Y-101192135D01*
X107854316Y-101200427D01*
X107854308Y-101200429D01*
X107672328Y-101275807D01*
X107672315Y-101275814D01*
X107508537Y-101385248D01*
X107508533Y-101385251D01*
X107369251Y-101524533D01*
X107369248Y-101524537D01*
X107259814Y-101688315D01*
X107259807Y-101688328D01*
X107184430Y-101870306D01*
X107184427Y-101870318D01*
X107146000Y-102063504D01*
X60500000Y-102063504D01*
X60500000Y-100624000D01*
X60519685Y-100556961D01*
X60572489Y-100511206D01*
X60624000Y-100500000D01*
X171376000Y-100500000D01*
X171443039Y-100519685D01*
G37*
%TD.AperFunction*%
%TD*%
M02*
