M48
; DRILL file {KiCad 8.0.4} date 2024-08-13T19:21:46+0200
; FORMAT={-:-/ absolute / inch / decimal}
; #@! TF.CreationDate,2024-08-13T19:21:46+02:00
; #@! TF.GenerationSoftware,Kicad,Pcbnew,8.0.4
; #@! TF.FileFunction,Plated,1,2,PTH
FMAT,2
INCH
; #@! TA.AperFunction,Plated,PTH,ViaDrill
T1C0.0157
; #@! TA.AperFunction,Plated,PTH,ComponentDrill
T2C0.0236
; #@! TA.AperFunction,Plated,PTH,ComponentDrill
T3C0.0374
; #@! TA.AperFunction,Plated,PTH,ComponentDrill
T4C0.0394
; #@! TA.AperFunction,Plated,PTH,ComponentDrill
T5C0.0469
; #@! TA.AperFunction,Plated,PTH,ComponentDrill
T6C0.0906
; #@! TA.AperFunction,Plated,PTH,ComponentDrill
T7C0.1252
; #@! TA.AperFunction,Plated,PTH,ComponentDrill
T8C0.1260
%
G90
G05
T1
X2.7077Y-4.4279
X2.7077Y-4.7379
X2.8777Y-5.1779
X3.0077Y-4.0979
X3.2165Y-4.6575
X3.2638Y-4.7441
X3.3057Y-4.6279
X3.3583Y-4.7441
X3.3955Y-4.5979
X3.5197Y-4.7441
X3.6577Y-4.1979
X3.8377Y-4.1979
X3.8819Y-4.1614
X3.9577Y-5.1779
X4.0377Y-4.6079
X4.2047Y-4.189
X4.315Y-4.7441
X4.3346Y-4.2717
X4.3504Y-5.1024
X4.4016Y-4.2717
X4.4331Y-4.0118
X4.4449Y-5.1024
X4.4567Y-4.2717
X4.5354Y-4.2717
X4.622Y-5.1024
X4.7598Y-4.9843
X4.8858Y-5.3543
X4.8877Y-4.4679
X4.8898Y-4.6378
X4.8898Y-4.7441
X4.9877Y-4.0279
X4.9977Y-4.4679
X5.0077Y-4.3079
X5.0277Y-4.3279
X5.1277Y-4.4879
X5.2165Y-4.0827
X5.2165Y-4.2795
X5.2165Y-4.3858
X5.2177Y-4.1579
X5.2283Y-4.6339
X5.2992Y-4.6378
X5.2992Y-4.7441
X5.4477Y-4.1979
X5.4477Y-4.2979
X5.4477Y-4.3579
X5.5787Y-4.1535
X5.5787Y-4.252
X5.5787Y-4.3976
X5.5906Y-3.9961
X5.5906Y-4.0472
X5.5906Y-4.1024
X5.6063Y-4.8386
X5.6063Y-4.9843
X5.6063Y-5.2087
X5.6299Y-4.5591
X5.6299Y-4.6024
X5.6339Y-4.6417
X5.6496Y-4.5197
X5.7124Y-4.6337
X5.7126Y-5.0315
X5.7677Y-4.7598
X5.7795Y-5.2087
X5.8031Y-4.626
X5.8819Y-4.4606
X5.9409Y-4.626
X5.9488Y-4.3622
X5.9877Y-4.0979
X6.0236Y-4.9409
X6.0433Y-4.626
X6.063Y-4.9016
X6.0827Y-4.6457
X6.1142Y-4.5709
X6.1417Y-3.9961
X6.1535Y-4.9843
X6.374Y-4.3701
X6.374Y-5.5748
X6.6811Y-4.0315
T3
X4.3785Y-4.4664
X4.3785Y-4.5451
X4.4769Y-4.4664
X4.4769Y-4.5451
T4
X2.9976Y-5.3134
X2.9976Y-5.4134
X3.0976Y-5.3134
X3.0976Y-5.4134
X3.1976Y-5.3134
X3.1976Y-5.4134
X3.2976Y-5.3134
X3.2976Y-5.4134
X3.3976Y-5.3134
X3.3976Y-5.4134
X3.4976Y-5.3134
X3.4976Y-5.4134
X3.5976Y-5.3134
X3.5976Y-5.4134
X3.6976Y-5.3134
X3.6976Y-5.4134
X4.2992Y-5.3134
X4.2992Y-5.4134
X4.3992Y-5.3134
X4.3992Y-5.4134
X4.4992Y-5.3134
X4.4992Y-5.4134
X4.5992Y-5.3134
X4.5992Y-5.4134
X4.6992Y-5.3134
X4.6992Y-5.4134
X5.3031Y-5.3134
X5.3031Y-5.4134
X5.4031Y-5.3134
X5.4031Y-5.4134
X5.5031Y-5.3134
X5.5031Y-5.4134
X5.6031Y-5.3134
X5.6031Y-5.4134
X5.7031Y-5.3134
X5.7031Y-5.4134
X6.4892Y-4.7362
X6.4931Y-4.9173
X6.4931Y-5.0173
X6.4931Y-5.1173
X6.4931Y-5.2173
X6.5892Y-4.7362
X6.5931Y-4.9173
X6.5931Y-5.0173
X6.5931Y-5.1173
X6.5931Y-5.2173
T5
X3.1711Y-4.3898
X3.2159Y-4.2898
X3.2159Y-4.4898
X3.2608Y-4.3898
X3.3057Y-4.2898
X3.3057Y-4.4898
X3.3506Y-4.3898
X3.3955Y-4.2898
X3.3955Y-4.4898
X3.4404Y-4.3898
X3.4852Y-4.2898
X3.4852Y-4.4898
X3.5301Y-4.3898
X3.575Y-4.2898
X3.575Y-4.4898
T6
X4.1915Y-4.3538
X4.6639Y-4.3538
T7
X2.8937Y-4.3898
X3.878Y-4.3898
T8
X2.5984Y-4.1732
X2.5984Y-5.4724
X6.5354Y-4.1732
X6.5354Y-5.4724
T2
G00X4.2577Y-4.0536
M15
G01X4.2577Y-4.0221
M16
G05
G00X4.2577Y-4.2241
M15
G01X4.2577Y-4.1808
M16
G05
G00X4.5979Y-4.0536
M15
G01X4.5979Y-4.0221
M16
G05
G00X4.5979Y-4.2241
M15
G01X4.5979Y-4.1808
M16
G05
M30
