%TF.GenerationSoftware,KiCad,Pcbnew,8.0.4*%
%TF.CreationDate,2024-08-04T15:04:20+02:00*%
%TF.ProjectId,pc1715-esp32vga,70633137-3135-42d6-9573-703332766761,2*%
%TF.SameCoordinates,Original*%
%TF.FileFunction,Legend,Top*%
%TF.FilePolarity,Positive*%
%FSLAX46Y46*%
G04 Gerber Fmt 4.6, Leading zero omitted, Abs format (unit mm)*
G04 Created by KiCad (PCBNEW 8.0.4) date 2024-08-04 15:04:20*
%MOMM*%
%LPD*%
G01*
G04 APERTURE LIST*
%ADD10C,0.100000*%
%ADD11C,0.150000*%
%ADD12C,0.120000*%
%ADD13C,0.127000*%
%ADD14C,0.400000*%
G04 APERTURE END LIST*
D10*
X157296895Y-132258020D02*
X157296895Y-131800877D01*
X158096895Y-132029449D02*
X157296895Y-132029449D01*
X158096895Y-131534210D02*
X157296895Y-131534210D01*
X157296895Y-131534210D02*
X157296895Y-131229448D01*
X157296895Y-131229448D02*
X157334990Y-131153258D01*
X157334990Y-131153258D02*
X157373085Y-131115163D01*
X157373085Y-131115163D02*
X157449276Y-131077067D01*
X157449276Y-131077067D02*
X157563561Y-131077067D01*
X157563561Y-131077067D02*
X157639752Y-131115163D01*
X157639752Y-131115163D02*
X157677847Y-131153258D01*
X157677847Y-131153258D02*
X157715942Y-131229448D01*
X157715942Y-131229448D02*
X157715942Y-131534210D01*
X158173085Y-130924687D02*
X158173085Y-130315163D01*
X158020704Y-129667543D02*
X158058800Y-129705639D01*
X158058800Y-129705639D02*
X158096895Y-129819924D01*
X158096895Y-129819924D02*
X158096895Y-129896115D01*
X158096895Y-129896115D02*
X158058800Y-130010401D01*
X158058800Y-130010401D02*
X157982609Y-130086591D01*
X157982609Y-130086591D02*
X157906419Y-130124686D01*
X157906419Y-130124686D02*
X157754038Y-130162782D01*
X157754038Y-130162782D02*
X157639752Y-130162782D01*
X157639752Y-130162782D02*
X157487371Y-130124686D01*
X157487371Y-130124686D02*
X157411180Y-130086591D01*
X157411180Y-130086591D02*
X157334990Y-130010401D01*
X157334990Y-130010401D02*
X157296895Y-129896115D01*
X157296895Y-129896115D02*
X157296895Y-129819924D01*
X157296895Y-129819924D02*
X157334990Y-129705639D01*
X157334990Y-129705639D02*
X157373085Y-129667543D01*
X158096895Y-129324686D02*
X157296895Y-129324686D01*
X157296895Y-129324686D02*
X157296895Y-129019924D01*
X157296895Y-129019924D02*
X157334990Y-128943734D01*
X157334990Y-128943734D02*
X157373085Y-128905639D01*
X157373085Y-128905639D02*
X157449276Y-128867543D01*
X157449276Y-128867543D02*
X157563561Y-128867543D01*
X157563561Y-128867543D02*
X157639752Y-128905639D01*
X157639752Y-128905639D02*
X157677847Y-128943734D01*
X157677847Y-128943734D02*
X157715942Y-129019924D01*
X157715942Y-129019924D02*
X157715942Y-129324686D01*
X157715942Y-128372305D02*
X158096895Y-128372305D01*
X157296895Y-128638972D02*
X157715942Y-128372305D01*
X157715942Y-128372305D02*
X157296895Y-128105639D01*
X150496895Y-132043734D02*
X149696895Y-132043734D01*
X150496895Y-131662782D02*
X149696895Y-131662782D01*
X149696895Y-131662782D02*
X150496895Y-131205639D01*
X150496895Y-131205639D02*
X149696895Y-131205639D01*
X149696895Y-130938973D02*
X149696895Y-130481830D01*
X150496895Y-130710402D02*
X149696895Y-130710402D01*
X159896895Y-132158020D02*
X159896895Y-131700877D01*
X160696895Y-131929449D02*
X159896895Y-131929449D01*
X160696895Y-131434210D02*
X159896895Y-131434210D01*
X159896895Y-131434210D02*
X159896895Y-131129448D01*
X159896895Y-131129448D02*
X159934990Y-131053258D01*
X159934990Y-131053258D02*
X159973085Y-131015163D01*
X159973085Y-131015163D02*
X160049276Y-130977067D01*
X160049276Y-130977067D02*
X160163561Y-130977067D01*
X160163561Y-130977067D02*
X160239752Y-131015163D01*
X160239752Y-131015163D02*
X160277847Y-131053258D01*
X160277847Y-131053258D02*
X160315942Y-131129448D01*
X160315942Y-131129448D02*
X160315942Y-131434210D01*
X160773085Y-130824687D02*
X160773085Y-130215163D01*
X160658800Y-130062782D02*
X160696895Y-129948496D01*
X160696895Y-129948496D02*
X160696895Y-129758020D01*
X160696895Y-129758020D02*
X160658800Y-129681829D01*
X160658800Y-129681829D02*
X160620704Y-129643734D01*
X160620704Y-129643734D02*
X160544514Y-129605639D01*
X160544514Y-129605639D02*
X160468323Y-129605639D01*
X160468323Y-129605639D02*
X160392133Y-129643734D01*
X160392133Y-129643734D02*
X160354038Y-129681829D01*
X160354038Y-129681829D02*
X160315942Y-129758020D01*
X160315942Y-129758020D02*
X160277847Y-129910401D01*
X160277847Y-129910401D02*
X160239752Y-129986591D01*
X160239752Y-129986591D02*
X160201657Y-130024686D01*
X160201657Y-130024686D02*
X160125466Y-130062782D01*
X160125466Y-130062782D02*
X160049276Y-130062782D01*
X160049276Y-130062782D02*
X159973085Y-130024686D01*
X159973085Y-130024686D02*
X159934990Y-129986591D01*
X159934990Y-129986591D02*
X159896895Y-129910401D01*
X159896895Y-129910401D02*
X159896895Y-129719924D01*
X159896895Y-129719924D02*
X159934990Y-129605639D01*
X160696895Y-129262781D02*
X159896895Y-129262781D01*
X159896895Y-129262781D02*
X159896895Y-128958019D01*
X159896895Y-128958019D02*
X159934990Y-128881829D01*
X159934990Y-128881829D02*
X159973085Y-128843734D01*
X159973085Y-128843734D02*
X160049276Y-128805638D01*
X160049276Y-128805638D02*
X160163561Y-128805638D01*
X160163561Y-128805638D02*
X160239752Y-128843734D01*
X160239752Y-128843734D02*
X160277847Y-128881829D01*
X160277847Y-128881829D02*
X160315942Y-128958019D01*
X160315942Y-128958019D02*
X160315942Y-129262781D01*
X160696895Y-128462781D02*
X159896895Y-128462781D01*
X147096895Y-132158020D02*
X147896895Y-131891353D01*
X147896895Y-131891353D02*
X147096895Y-131624687D01*
X147896895Y-131358020D02*
X147096895Y-131358020D01*
X147896895Y-130977068D02*
X147096895Y-130977068D01*
X147096895Y-130977068D02*
X147096895Y-130786592D01*
X147096895Y-130786592D02*
X147134990Y-130672306D01*
X147134990Y-130672306D02*
X147211180Y-130596116D01*
X147211180Y-130596116D02*
X147287371Y-130558021D01*
X147287371Y-130558021D02*
X147439752Y-130519925D01*
X147439752Y-130519925D02*
X147554038Y-130519925D01*
X147554038Y-130519925D02*
X147706419Y-130558021D01*
X147706419Y-130558021D02*
X147782609Y-130596116D01*
X147782609Y-130596116D02*
X147858800Y-130672306D01*
X147858800Y-130672306D02*
X147896895Y-130786592D01*
X147896895Y-130786592D02*
X147896895Y-130977068D01*
D11*
X65112207Y-119785931D02*
X64778874Y-119309740D01*
X64540779Y-119785931D02*
X64540779Y-118785931D01*
X64540779Y-118785931D02*
X64921731Y-118785931D01*
X64921731Y-118785931D02*
X65016969Y-118833550D01*
X65016969Y-118833550D02*
X65064588Y-118881169D01*
X65064588Y-118881169D02*
X65112207Y-118976407D01*
X65112207Y-118976407D02*
X65112207Y-119119264D01*
X65112207Y-119119264D02*
X65064588Y-119214502D01*
X65064588Y-119214502D02*
X65016969Y-119262121D01*
X65016969Y-119262121D02*
X64921731Y-119309740D01*
X64921731Y-119309740D02*
X64540779Y-119309740D01*
X65683636Y-119785931D02*
X65588398Y-119738312D01*
X65588398Y-119738312D02*
X65540779Y-119690692D01*
X65540779Y-119690692D02*
X65493160Y-119595454D01*
X65493160Y-119595454D02*
X65493160Y-119309740D01*
X65493160Y-119309740D02*
X65540779Y-119214502D01*
X65540779Y-119214502D02*
X65588398Y-119166883D01*
X65588398Y-119166883D02*
X65683636Y-119119264D01*
X65683636Y-119119264D02*
X65826493Y-119119264D01*
X65826493Y-119119264D02*
X65921731Y-119166883D01*
X65921731Y-119166883D02*
X65969350Y-119214502D01*
X65969350Y-119214502D02*
X66016969Y-119309740D01*
X66016969Y-119309740D02*
X66016969Y-119595454D01*
X66016969Y-119595454D02*
X65969350Y-119690692D01*
X65969350Y-119690692D02*
X65921731Y-119738312D01*
X65921731Y-119738312D02*
X65826493Y-119785931D01*
X65826493Y-119785931D02*
X65683636Y-119785931D01*
X66445541Y-119785931D02*
X66445541Y-118785931D01*
X66445541Y-119166883D02*
X66540779Y-119119264D01*
X66540779Y-119119264D02*
X66731255Y-119119264D01*
X66731255Y-119119264D02*
X66826493Y-119166883D01*
X66826493Y-119166883D02*
X66874112Y-119214502D01*
X66874112Y-119214502D02*
X66921731Y-119309740D01*
X66921731Y-119309740D02*
X66921731Y-119595454D01*
X66921731Y-119595454D02*
X66874112Y-119690692D01*
X66874112Y-119690692D02*
X66826493Y-119738312D01*
X66826493Y-119738312D02*
X66731255Y-119785931D01*
X66731255Y-119785931D02*
X66540779Y-119785931D01*
X66540779Y-119785931D02*
X66445541Y-119738312D01*
X67493160Y-119785931D02*
X67397922Y-119738312D01*
X67397922Y-119738312D02*
X67350303Y-119690692D01*
X67350303Y-119690692D02*
X67302684Y-119595454D01*
X67302684Y-119595454D02*
X67302684Y-119309740D01*
X67302684Y-119309740D02*
X67350303Y-119214502D01*
X67350303Y-119214502D02*
X67397922Y-119166883D01*
X67397922Y-119166883D02*
X67493160Y-119119264D01*
X67493160Y-119119264D02*
X67636017Y-119119264D01*
X67636017Y-119119264D02*
X67731255Y-119166883D01*
X67731255Y-119166883D02*
X67778874Y-119214502D01*
X67778874Y-119214502D02*
X67826493Y-119309740D01*
X67826493Y-119309740D02*
X67826493Y-119595454D01*
X67826493Y-119595454D02*
X67778874Y-119690692D01*
X67778874Y-119690692D02*
X67731255Y-119738312D01*
X67731255Y-119738312D02*
X67636017Y-119785931D01*
X67636017Y-119785931D02*
X67493160Y-119785931D01*
X68112208Y-119119264D02*
X68493160Y-119119264D01*
X68255065Y-118785931D02*
X68255065Y-119643073D01*
X68255065Y-119643073D02*
X68302684Y-119738312D01*
X68302684Y-119738312D02*
X68397922Y-119785931D01*
X68397922Y-119785931D02*
X68493160Y-119785931D01*
X68826494Y-119785931D02*
X68826494Y-119119264D01*
X68826494Y-119309740D02*
X68874113Y-119214502D01*
X68874113Y-119214502D02*
X68921732Y-119166883D01*
X68921732Y-119166883D02*
X69016970Y-119119264D01*
X69016970Y-119119264D02*
X69112208Y-119119264D01*
X69588399Y-119785931D02*
X69493161Y-119738312D01*
X69493161Y-119738312D02*
X69445542Y-119690692D01*
X69445542Y-119690692D02*
X69397923Y-119595454D01*
X69397923Y-119595454D02*
X69397923Y-119309740D01*
X69397923Y-119309740D02*
X69445542Y-119214502D01*
X69445542Y-119214502D02*
X69493161Y-119166883D01*
X69493161Y-119166883D02*
X69588399Y-119119264D01*
X69588399Y-119119264D02*
X69731256Y-119119264D01*
X69731256Y-119119264D02*
X69826494Y-119166883D01*
X69826494Y-119166883D02*
X69874113Y-119214502D01*
X69874113Y-119214502D02*
X69921732Y-119309740D01*
X69921732Y-119309740D02*
X69921732Y-119595454D01*
X69921732Y-119595454D02*
X69874113Y-119690692D01*
X69874113Y-119690692D02*
X69826494Y-119738312D01*
X69826494Y-119738312D02*
X69731256Y-119785931D01*
X69731256Y-119785931D02*
X69588399Y-119785931D01*
X70350304Y-119119264D02*
X70350304Y-119785931D01*
X70350304Y-119214502D02*
X70397923Y-119166883D01*
X70397923Y-119166883D02*
X70493161Y-119119264D01*
X70493161Y-119119264D02*
X70636018Y-119119264D01*
X70636018Y-119119264D02*
X70731256Y-119166883D01*
X70731256Y-119166883D02*
X70778875Y-119262121D01*
X70778875Y-119262121D02*
X70778875Y-119785931D01*
X71874114Y-118785931D02*
X72207447Y-119785931D01*
X72207447Y-119785931D02*
X72540780Y-118785931D01*
X73397923Y-118833550D02*
X73302685Y-118785931D01*
X73302685Y-118785931D02*
X73159828Y-118785931D01*
X73159828Y-118785931D02*
X73016971Y-118833550D01*
X73016971Y-118833550D02*
X72921733Y-118928788D01*
X72921733Y-118928788D02*
X72874114Y-119024026D01*
X72874114Y-119024026D02*
X72826495Y-119214502D01*
X72826495Y-119214502D02*
X72826495Y-119357359D01*
X72826495Y-119357359D02*
X72874114Y-119547835D01*
X72874114Y-119547835D02*
X72921733Y-119643073D01*
X72921733Y-119643073D02*
X73016971Y-119738312D01*
X73016971Y-119738312D02*
X73159828Y-119785931D01*
X73159828Y-119785931D02*
X73255066Y-119785931D01*
X73255066Y-119785931D02*
X73397923Y-119738312D01*
X73397923Y-119738312D02*
X73445542Y-119690692D01*
X73445542Y-119690692D02*
X73445542Y-119357359D01*
X73445542Y-119357359D02*
X73255066Y-119357359D01*
X73826495Y-119500216D02*
X74302685Y-119500216D01*
X73731257Y-119785931D02*
X74064590Y-118785931D01*
X74064590Y-118785931D02*
X74397923Y-119785931D01*
X75445543Y-119500216D02*
X75921733Y-119500216D01*
X75350305Y-119785931D02*
X75683638Y-118785931D01*
X75683638Y-118785931D02*
X76016971Y-119785931D01*
X76778876Y-119785931D02*
X76778876Y-118785931D01*
X76778876Y-119738312D02*
X76683638Y-119785931D01*
X76683638Y-119785931D02*
X76493162Y-119785931D01*
X76493162Y-119785931D02*
X76397924Y-119738312D01*
X76397924Y-119738312D02*
X76350305Y-119690692D01*
X76350305Y-119690692D02*
X76302686Y-119595454D01*
X76302686Y-119595454D02*
X76302686Y-119309740D01*
X76302686Y-119309740D02*
X76350305Y-119214502D01*
X76350305Y-119214502D02*
X76397924Y-119166883D01*
X76397924Y-119166883D02*
X76493162Y-119119264D01*
X76493162Y-119119264D02*
X76683638Y-119119264D01*
X76683638Y-119119264D02*
X76778876Y-119166883D01*
X77683638Y-119785931D02*
X77683638Y-119262121D01*
X77683638Y-119262121D02*
X77636019Y-119166883D01*
X77636019Y-119166883D02*
X77540781Y-119119264D01*
X77540781Y-119119264D02*
X77350305Y-119119264D01*
X77350305Y-119119264D02*
X77255067Y-119166883D01*
X77683638Y-119738312D02*
X77588400Y-119785931D01*
X77588400Y-119785931D02*
X77350305Y-119785931D01*
X77350305Y-119785931D02*
X77255067Y-119738312D01*
X77255067Y-119738312D02*
X77207448Y-119643073D01*
X77207448Y-119643073D02*
X77207448Y-119547835D01*
X77207448Y-119547835D02*
X77255067Y-119452597D01*
X77255067Y-119452597D02*
X77350305Y-119404978D01*
X77350305Y-119404978D02*
X77588400Y-119404978D01*
X77588400Y-119404978D02*
X77683638Y-119357359D01*
X78159829Y-119119264D02*
X78159829Y-120119264D01*
X78159829Y-119166883D02*
X78255067Y-119119264D01*
X78255067Y-119119264D02*
X78445543Y-119119264D01*
X78445543Y-119119264D02*
X78540781Y-119166883D01*
X78540781Y-119166883D02*
X78588400Y-119214502D01*
X78588400Y-119214502D02*
X78636019Y-119309740D01*
X78636019Y-119309740D02*
X78636019Y-119595454D01*
X78636019Y-119595454D02*
X78588400Y-119690692D01*
X78588400Y-119690692D02*
X78540781Y-119738312D01*
X78540781Y-119738312D02*
X78445543Y-119785931D01*
X78445543Y-119785931D02*
X78255067Y-119785931D01*
X78255067Y-119785931D02*
X78159829Y-119738312D01*
X78921734Y-119119264D02*
X79302686Y-119119264D01*
X79064591Y-118785931D02*
X79064591Y-119643073D01*
X79064591Y-119643073D02*
X79112210Y-119738312D01*
X79112210Y-119738312D02*
X79207448Y-119785931D01*
X79207448Y-119785931D02*
X79302686Y-119785931D01*
X80016972Y-119738312D02*
X79921734Y-119785931D01*
X79921734Y-119785931D02*
X79731258Y-119785931D01*
X79731258Y-119785931D02*
X79636020Y-119738312D01*
X79636020Y-119738312D02*
X79588401Y-119643073D01*
X79588401Y-119643073D02*
X79588401Y-119262121D01*
X79588401Y-119262121D02*
X79636020Y-119166883D01*
X79636020Y-119166883D02*
X79731258Y-119119264D01*
X79731258Y-119119264D02*
X79921734Y-119119264D01*
X79921734Y-119119264D02*
X80016972Y-119166883D01*
X80016972Y-119166883D02*
X80064591Y-119262121D01*
X80064591Y-119262121D02*
X80064591Y-119357359D01*
X80064591Y-119357359D02*
X79588401Y-119452597D01*
X80493163Y-119785931D02*
X80493163Y-119119264D01*
X80493163Y-119309740D02*
X80540782Y-119214502D01*
X80540782Y-119214502D02*
X80588401Y-119166883D01*
X80588401Y-119166883D02*
X80683639Y-119119264D01*
X80683639Y-119119264D02*
X80778877Y-119119264D01*
X64540779Y-121395875D02*
X64540779Y-120395875D01*
X64540779Y-120395875D02*
X64778874Y-120395875D01*
X64778874Y-120395875D02*
X64921731Y-120443494D01*
X64921731Y-120443494D02*
X65016969Y-120538732D01*
X65016969Y-120538732D02*
X65064588Y-120633970D01*
X65064588Y-120633970D02*
X65112207Y-120824446D01*
X65112207Y-120824446D02*
X65112207Y-120967303D01*
X65112207Y-120967303D02*
X65064588Y-121157779D01*
X65064588Y-121157779D02*
X65016969Y-121253017D01*
X65016969Y-121253017D02*
X64921731Y-121348256D01*
X64921731Y-121348256D02*
X64778874Y-121395875D01*
X64778874Y-121395875D02*
X64540779Y-121395875D01*
X65921731Y-121348256D02*
X65826493Y-121395875D01*
X65826493Y-121395875D02*
X65636017Y-121395875D01*
X65636017Y-121395875D02*
X65540779Y-121348256D01*
X65540779Y-121348256D02*
X65493160Y-121253017D01*
X65493160Y-121253017D02*
X65493160Y-120872065D01*
X65493160Y-120872065D02*
X65540779Y-120776827D01*
X65540779Y-120776827D02*
X65636017Y-120729208D01*
X65636017Y-120729208D02*
X65826493Y-120729208D01*
X65826493Y-120729208D02*
X65921731Y-120776827D01*
X65921731Y-120776827D02*
X65969350Y-120872065D01*
X65969350Y-120872065D02*
X65969350Y-120967303D01*
X65969350Y-120967303D02*
X65493160Y-121062541D01*
X66350303Y-121348256D02*
X66445541Y-121395875D01*
X66445541Y-121395875D02*
X66636017Y-121395875D01*
X66636017Y-121395875D02*
X66731255Y-121348256D01*
X66731255Y-121348256D02*
X66778874Y-121253017D01*
X66778874Y-121253017D02*
X66778874Y-121205398D01*
X66778874Y-121205398D02*
X66731255Y-121110160D01*
X66731255Y-121110160D02*
X66636017Y-121062541D01*
X66636017Y-121062541D02*
X66493160Y-121062541D01*
X66493160Y-121062541D02*
X66397922Y-121014922D01*
X66397922Y-121014922D02*
X66350303Y-120919684D01*
X66350303Y-120919684D02*
X66350303Y-120872065D01*
X66350303Y-120872065D02*
X66397922Y-120776827D01*
X66397922Y-120776827D02*
X66493160Y-120729208D01*
X66493160Y-120729208D02*
X66636017Y-120729208D01*
X66636017Y-120729208D02*
X66731255Y-120776827D01*
X67207446Y-121395875D02*
X67207446Y-120729208D01*
X67207446Y-120395875D02*
X67159827Y-120443494D01*
X67159827Y-120443494D02*
X67207446Y-120491113D01*
X67207446Y-120491113D02*
X67255065Y-120443494D01*
X67255065Y-120443494D02*
X67207446Y-120395875D01*
X67207446Y-120395875D02*
X67207446Y-120491113D01*
X68112207Y-120729208D02*
X68112207Y-121538732D01*
X68112207Y-121538732D02*
X68064588Y-121633970D01*
X68064588Y-121633970D02*
X68016969Y-121681589D01*
X68016969Y-121681589D02*
X67921731Y-121729208D01*
X67921731Y-121729208D02*
X67778874Y-121729208D01*
X67778874Y-121729208D02*
X67683636Y-121681589D01*
X68112207Y-121348256D02*
X68016969Y-121395875D01*
X68016969Y-121395875D02*
X67826493Y-121395875D01*
X67826493Y-121395875D02*
X67731255Y-121348256D01*
X67731255Y-121348256D02*
X67683636Y-121300636D01*
X67683636Y-121300636D02*
X67636017Y-121205398D01*
X67636017Y-121205398D02*
X67636017Y-120919684D01*
X67636017Y-120919684D02*
X67683636Y-120824446D01*
X67683636Y-120824446D02*
X67731255Y-120776827D01*
X67731255Y-120776827D02*
X67826493Y-120729208D01*
X67826493Y-120729208D02*
X68016969Y-120729208D01*
X68016969Y-120729208D02*
X68112207Y-120776827D01*
X68588398Y-120729208D02*
X68588398Y-121395875D01*
X68588398Y-120824446D02*
X68636017Y-120776827D01*
X68636017Y-120776827D02*
X68731255Y-120729208D01*
X68731255Y-120729208D02*
X68874112Y-120729208D01*
X68874112Y-120729208D02*
X68969350Y-120776827D01*
X68969350Y-120776827D02*
X69016969Y-120872065D01*
X69016969Y-120872065D02*
X69016969Y-121395875D01*
X70540779Y-121776827D02*
X70493160Y-121729208D01*
X70493160Y-121729208D02*
X70397922Y-121586351D01*
X70397922Y-121586351D02*
X70350303Y-121491113D01*
X70350303Y-121491113D02*
X70302684Y-121348256D01*
X70302684Y-121348256D02*
X70255065Y-121110160D01*
X70255065Y-121110160D02*
X70255065Y-120919684D01*
X70255065Y-120919684D02*
X70302684Y-120681589D01*
X70302684Y-120681589D02*
X70350303Y-120538732D01*
X70350303Y-120538732D02*
X70397922Y-120443494D01*
X70397922Y-120443494D02*
X70493160Y-120300636D01*
X70493160Y-120300636D02*
X70540779Y-120253017D01*
X71350303Y-121348256D02*
X71255065Y-121395875D01*
X71255065Y-121395875D02*
X71064589Y-121395875D01*
X71064589Y-121395875D02*
X70969351Y-121348256D01*
X70969351Y-121348256D02*
X70921732Y-121300636D01*
X70921732Y-121300636D02*
X70874113Y-121205398D01*
X70874113Y-121205398D02*
X70874113Y-120919684D01*
X70874113Y-120919684D02*
X70921732Y-120824446D01*
X70921732Y-120824446D02*
X70969351Y-120776827D01*
X70969351Y-120776827D02*
X71064589Y-120729208D01*
X71064589Y-120729208D02*
X71255065Y-120729208D01*
X71255065Y-120729208D02*
X71350303Y-120776827D01*
X71683637Y-121776827D02*
X71731256Y-121729208D01*
X71731256Y-121729208D02*
X71826494Y-121586351D01*
X71826494Y-121586351D02*
X71874113Y-121491113D01*
X71874113Y-121491113D02*
X71921732Y-121348256D01*
X71921732Y-121348256D02*
X71969351Y-121110160D01*
X71969351Y-121110160D02*
X71969351Y-120919684D01*
X71969351Y-120919684D02*
X71921732Y-120681589D01*
X71921732Y-120681589D02*
X71874113Y-120538732D01*
X71874113Y-120538732D02*
X71826494Y-120443494D01*
X71826494Y-120443494D02*
X71731256Y-120300636D01*
X71731256Y-120300636D02*
X71683637Y-120253017D01*
X72397923Y-120491113D02*
X72445542Y-120443494D01*
X72445542Y-120443494D02*
X72540780Y-120395875D01*
X72540780Y-120395875D02*
X72778875Y-120395875D01*
X72778875Y-120395875D02*
X72874113Y-120443494D01*
X72874113Y-120443494D02*
X72921732Y-120491113D01*
X72921732Y-120491113D02*
X72969351Y-120586351D01*
X72969351Y-120586351D02*
X72969351Y-120681589D01*
X72969351Y-120681589D02*
X72921732Y-120824446D01*
X72921732Y-120824446D02*
X72350304Y-121395875D01*
X72350304Y-121395875D02*
X72969351Y-121395875D01*
X73588399Y-120395875D02*
X73683637Y-120395875D01*
X73683637Y-120395875D02*
X73778875Y-120443494D01*
X73778875Y-120443494D02*
X73826494Y-120491113D01*
X73826494Y-120491113D02*
X73874113Y-120586351D01*
X73874113Y-120586351D02*
X73921732Y-120776827D01*
X73921732Y-120776827D02*
X73921732Y-121014922D01*
X73921732Y-121014922D02*
X73874113Y-121205398D01*
X73874113Y-121205398D02*
X73826494Y-121300636D01*
X73826494Y-121300636D02*
X73778875Y-121348256D01*
X73778875Y-121348256D02*
X73683637Y-121395875D01*
X73683637Y-121395875D02*
X73588399Y-121395875D01*
X73588399Y-121395875D02*
X73493161Y-121348256D01*
X73493161Y-121348256D02*
X73445542Y-121300636D01*
X73445542Y-121300636D02*
X73397923Y-121205398D01*
X73397923Y-121205398D02*
X73350304Y-121014922D01*
X73350304Y-121014922D02*
X73350304Y-120776827D01*
X73350304Y-120776827D02*
X73397923Y-120586351D01*
X73397923Y-120586351D02*
X73445542Y-120491113D01*
X73445542Y-120491113D02*
X73493161Y-120443494D01*
X73493161Y-120443494D02*
X73588399Y-120395875D01*
X74302685Y-120491113D02*
X74350304Y-120443494D01*
X74350304Y-120443494D02*
X74445542Y-120395875D01*
X74445542Y-120395875D02*
X74683637Y-120395875D01*
X74683637Y-120395875D02*
X74778875Y-120443494D01*
X74778875Y-120443494D02*
X74826494Y-120491113D01*
X74826494Y-120491113D02*
X74874113Y-120586351D01*
X74874113Y-120586351D02*
X74874113Y-120681589D01*
X74874113Y-120681589D02*
X74826494Y-120824446D01*
X74826494Y-120824446D02*
X74255066Y-121395875D01*
X74255066Y-121395875D02*
X74874113Y-121395875D01*
X75731256Y-120729208D02*
X75731256Y-121395875D01*
X75493161Y-120348256D02*
X75255066Y-121062541D01*
X75255066Y-121062541D02*
X75874113Y-121062541D01*
X77016971Y-121395875D02*
X77016971Y-120395875D01*
X77016971Y-120395875D02*
X77350304Y-121110160D01*
X77350304Y-121110160D02*
X77683637Y-120395875D01*
X77683637Y-120395875D02*
X77683637Y-121395875D01*
X78159828Y-121300636D02*
X78207447Y-121348256D01*
X78207447Y-121348256D02*
X78159828Y-121395875D01*
X78159828Y-121395875D02*
X78112209Y-121348256D01*
X78112209Y-121348256D02*
X78159828Y-121300636D01*
X78159828Y-121300636D02*
X78159828Y-121395875D01*
X79921732Y-120443494D02*
X79826494Y-120395875D01*
X79826494Y-120395875D02*
X79683637Y-120395875D01*
X79683637Y-120395875D02*
X79540780Y-120443494D01*
X79540780Y-120443494D02*
X79445542Y-120538732D01*
X79445542Y-120538732D02*
X79397923Y-120633970D01*
X79397923Y-120633970D02*
X79350304Y-120824446D01*
X79350304Y-120824446D02*
X79350304Y-120967303D01*
X79350304Y-120967303D02*
X79397923Y-121157779D01*
X79397923Y-121157779D02*
X79445542Y-121253017D01*
X79445542Y-121253017D02*
X79540780Y-121348256D01*
X79540780Y-121348256D02*
X79683637Y-121395875D01*
X79683637Y-121395875D02*
X79778875Y-121395875D01*
X79778875Y-121395875D02*
X79921732Y-121348256D01*
X79921732Y-121348256D02*
X79969351Y-121300636D01*
X79969351Y-121300636D02*
X79969351Y-120967303D01*
X79969351Y-120967303D02*
X79778875Y-120967303D01*
X80540780Y-121395875D02*
X80445542Y-121348256D01*
X80445542Y-121348256D02*
X80397923Y-121300636D01*
X80397923Y-121300636D02*
X80350304Y-121205398D01*
X80350304Y-121205398D02*
X80350304Y-120919684D01*
X80350304Y-120919684D02*
X80397923Y-120824446D01*
X80397923Y-120824446D02*
X80445542Y-120776827D01*
X80445542Y-120776827D02*
X80540780Y-120729208D01*
X80540780Y-120729208D02*
X80683637Y-120729208D01*
X80683637Y-120729208D02*
X80778875Y-120776827D01*
X80778875Y-120776827D02*
X80826494Y-120824446D01*
X80826494Y-120824446D02*
X80874113Y-120919684D01*
X80874113Y-120919684D02*
X80874113Y-121205398D01*
X80874113Y-121205398D02*
X80826494Y-121300636D01*
X80826494Y-121300636D02*
X80778875Y-121348256D01*
X80778875Y-121348256D02*
X80683637Y-121395875D01*
X80683637Y-121395875D02*
X80540780Y-121395875D01*
X81683637Y-121348256D02*
X81588399Y-121395875D01*
X81588399Y-121395875D02*
X81397923Y-121395875D01*
X81397923Y-121395875D02*
X81302685Y-121348256D01*
X81302685Y-121348256D02*
X81255066Y-121253017D01*
X81255066Y-121253017D02*
X81255066Y-120872065D01*
X81255066Y-120872065D02*
X81302685Y-120776827D01*
X81302685Y-120776827D02*
X81397923Y-120729208D01*
X81397923Y-120729208D02*
X81588399Y-120729208D01*
X81588399Y-120729208D02*
X81683637Y-120776827D01*
X81683637Y-120776827D02*
X81731256Y-120872065D01*
X81731256Y-120872065D02*
X81731256Y-120967303D01*
X81731256Y-120967303D02*
X81255066Y-121062541D01*
X82588399Y-120729208D02*
X82588399Y-121538732D01*
X82588399Y-121538732D02*
X82540780Y-121633970D01*
X82540780Y-121633970D02*
X82493161Y-121681589D01*
X82493161Y-121681589D02*
X82397923Y-121729208D01*
X82397923Y-121729208D02*
X82255066Y-121729208D01*
X82255066Y-121729208D02*
X82159828Y-121681589D01*
X82588399Y-121348256D02*
X82493161Y-121395875D01*
X82493161Y-121395875D02*
X82302685Y-121395875D01*
X82302685Y-121395875D02*
X82207447Y-121348256D01*
X82207447Y-121348256D02*
X82159828Y-121300636D01*
X82159828Y-121300636D02*
X82112209Y-121205398D01*
X82112209Y-121205398D02*
X82112209Y-120919684D01*
X82112209Y-120919684D02*
X82159828Y-120824446D01*
X82159828Y-120824446D02*
X82207447Y-120776827D01*
X82207447Y-120776827D02*
X82302685Y-120729208D01*
X82302685Y-120729208D02*
X82493161Y-120729208D01*
X82493161Y-120729208D02*
X82588399Y-120776827D01*
X83445542Y-121348256D02*
X83350304Y-121395875D01*
X83350304Y-121395875D02*
X83159828Y-121395875D01*
X83159828Y-121395875D02*
X83064590Y-121348256D01*
X83064590Y-121348256D02*
X83016971Y-121253017D01*
X83016971Y-121253017D02*
X83016971Y-120872065D01*
X83016971Y-120872065D02*
X83064590Y-120776827D01*
X83064590Y-120776827D02*
X83159828Y-120729208D01*
X83159828Y-120729208D02*
X83350304Y-120729208D01*
X83350304Y-120729208D02*
X83445542Y-120776827D01*
X83445542Y-120776827D02*
X83493161Y-120872065D01*
X83493161Y-120872065D02*
X83493161Y-120967303D01*
X83493161Y-120967303D02*
X83016971Y-121062541D01*
X84064590Y-121395875D02*
X83969352Y-121348256D01*
X83969352Y-121348256D02*
X83921733Y-121253017D01*
X83921733Y-121253017D02*
X83921733Y-120395875D01*
X65112207Y-123005819D02*
X64778874Y-122529628D01*
X64540779Y-123005819D02*
X64540779Y-122005819D01*
X64540779Y-122005819D02*
X64921731Y-122005819D01*
X64921731Y-122005819D02*
X65016969Y-122053438D01*
X65016969Y-122053438D02*
X65064588Y-122101057D01*
X65064588Y-122101057D02*
X65112207Y-122196295D01*
X65112207Y-122196295D02*
X65112207Y-122339152D01*
X65112207Y-122339152D02*
X65064588Y-122434390D01*
X65064588Y-122434390D02*
X65016969Y-122482009D01*
X65016969Y-122482009D02*
X64921731Y-122529628D01*
X64921731Y-122529628D02*
X64540779Y-122529628D01*
X65921731Y-122958200D02*
X65826493Y-123005819D01*
X65826493Y-123005819D02*
X65636017Y-123005819D01*
X65636017Y-123005819D02*
X65540779Y-122958200D01*
X65540779Y-122958200D02*
X65493160Y-122862961D01*
X65493160Y-122862961D02*
X65493160Y-122482009D01*
X65493160Y-122482009D02*
X65540779Y-122386771D01*
X65540779Y-122386771D02*
X65636017Y-122339152D01*
X65636017Y-122339152D02*
X65826493Y-122339152D01*
X65826493Y-122339152D02*
X65921731Y-122386771D01*
X65921731Y-122386771D02*
X65969350Y-122482009D01*
X65969350Y-122482009D02*
X65969350Y-122577247D01*
X65969350Y-122577247D02*
X65493160Y-122672485D01*
X66302684Y-122339152D02*
X66540779Y-123005819D01*
X66540779Y-123005819D02*
X66778874Y-122339152D01*
X67874113Y-122101057D02*
X67921732Y-122053438D01*
X67921732Y-122053438D02*
X68016970Y-122005819D01*
X68016970Y-122005819D02*
X68255065Y-122005819D01*
X68255065Y-122005819D02*
X68350303Y-122053438D01*
X68350303Y-122053438D02*
X68397922Y-122101057D01*
X68397922Y-122101057D02*
X68445541Y-122196295D01*
X68445541Y-122196295D02*
X68445541Y-122291533D01*
X68445541Y-122291533D02*
X68397922Y-122434390D01*
X68397922Y-122434390D02*
X67826494Y-123005819D01*
X67826494Y-123005819D02*
X68445541Y-123005819D01*
X102758207Y-118876520D02*
X102301064Y-118876520D01*
X102529636Y-118876520D02*
X102529636Y-118076520D01*
X102529636Y-118076520D02*
X102453445Y-118190805D01*
X102453445Y-118190805D02*
X102377255Y-118266996D01*
X102377255Y-118266996D02*
X102301064Y-118305091D01*
X103253446Y-118076520D02*
X103329636Y-118076520D01*
X103329636Y-118076520D02*
X103405827Y-118114615D01*
X103405827Y-118114615D02*
X103443922Y-118152710D01*
X103443922Y-118152710D02*
X103482017Y-118228901D01*
X103482017Y-118228901D02*
X103520112Y-118381282D01*
X103520112Y-118381282D02*
X103520112Y-118571758D01*
X103520112Y-118571758D02*
X103482017Y-118724139D01*
X103482017Y-118724139D02*
X103443922Y-118800329D01*
X103443922Y-118800329D02*
X103405827Y-118838425D01*
X103405827Y-118838425D02*
X103329636Y-118876520D01*
X103329636Y-118876520D02*
X103253446Y-118876520D01*
X103253446Y-118876520D02*
X103177255Y-118838425D01*
X103177255Y-118838425D02*
X103139160Y-118800329D01*
X103139160Y-118800329D02*
X103101065Y-118724139D01*
X103101065Y-118724139D02*
X103062969Y-118571758D01*
X103062969Y-118571758D02*
X103062969Y-118381282D01*
X103062969Y-118381282D02*
X103101065Y-118228901D01*
X103101065Y-118228901D02*
X103139160Y-118152710D01*
X103139160Y-118152710D02*
X103177255Y-118114615D01*
X103177255Y-118114615D02*
X103253446Y-118076520D01*
X104739160Y-118457472D02*
X104853446Y-118495567D01*
X104853446Y-118495567D02*
X104891541Y-118533663D01*
X104891541Y-118533663D02*
X104929637Y-118609853D01*
X104929637Y-118609853D02*
X104929637Y-118724139D01*
X104929637Y-118724139D02*
X104891541Y-118800329D01*
X104891541Y-118800329D02*
X104853446Y-118838425D01*
X104853446Y-118838425D02*
X104777256Y-118876520D01*
X104777256Y-118876520D02*
X104472494Y-118876520D01*
X104472494Y-118876520D02*
X104472494Y-118076520D01*
X104472494Y-118076520D02*
X104739160Y-118076520D01*
X104739160Y-118076520D02*
X104815351Y-118114615D01*
X104815351Y-118114615D02*
X104853446Y-118152710D01*
X104853446Y-118152710D02*
X104891541Y-118228901D01*
X104891541Y-118228901D02*
X104891541Y-118305091D01*
X104891541Y-118305091D02*
X104853446Y-118381282D01*
X104853446Y-118381282D02*
X104815351Y-118419377D01*
X104815351Y-118419377D02*
X104739160Y-118457472D01*
X104739160Y-118457472D02*
X104472494Y-118457472D01*
X105234398Y-118838425D02*
X105348684Y-118876520D01*
X105348684Y-118876520D02*
X105539160Y-118876520D01*
X105539160Y-118876520D02*
X105615351Y-118838425D01*
X105615351Y-118838425D02*
X105653446Y-118800329D01*
X105653446Y-118800329D02*
X105691541Y-118724139D01*
X105691541Y-118724139D02*
X105691541Y-118647948D01*
X105691541Y-118647948D02*
X105653446Y-118571758D01*
X105653446Y-118571758D02*
X105615351Y-118533663D01*
X105615351Y-118533663D02*
X105539160Y-118495567D01*
X105539160Y-118495567D02*
X105386779Y-118457472D01*
X105386779Y-118457472D02*
X105310589Y-118419377D01*
X105310589Y-118419377D02*
X105272494Y-118381282D01*
X105272494Y-118381282D02*
X105234398Y-118305091D01*
X105234398Y-118305091D02*
X105234398Y-118228901D01*
X105234398Y-118228901D02*
X105272494Y-118152710D01*
X105272494Y-118152710D02*
X105310589Y-118114615D01*
X105310589Y-118114615D02*
X105386779Y-118076520D01*
X105386779Y-118076520D02*
X105577256Y-118076520D01*
X105577256Y-118076520D02*
X105691541Y-118114615D01*
X106186780Y-118495567D02*
X106186780Y-118876520D01*
X105920113Y-118076520D02*
X106186780Y-118495567D01*
X106186780Y-118495567D02*
X106453446Y-118076520D01*
X106720113Y-118876520D02*
X106720113Y-118076520D01*
X106720113Y-118076520D02*
X107177256Y-118876520D01*
X107177256Y-118876520D02*
X107177256Y-118076520D01*
X108015351Y-118800329D02*
X107977255Y-118838425D01*
X107977255Y-118838425D02*
X107862970Y-118876520D01*
X107862970Y-118876520D02*
X107786779Y-118876520D01*
X107786779Y-118876520D02*
X107672493Y-118838425D01*
X107672493Y-118838425D02*
X107596303Y-118762234D01*
X107596303Y-118762234D02*
X107558208Y-118686044D01*
X107558208Y-118686044D02*
X107520112Y-118533663D01*
X107520112Y-118533663D02*
X107520112Y-118419377D01*
X107520112Y-118419377D02*
X107558208Y-118266996D01*
X107558208Y-118266996D02*
X107596303Y-118190805D01*
X107596303Y-118190805D02*
X107672493Y-118114615D01*
X107672493Y-118114615D02*
X107786779Y-118076520D01*
X107786779Y-118076520D02*
X107862970Y-118076520D01*
X107862970Y-118076520D02*
X107977255Y-118114615D01*
X107977255Y-118114615D02*
X108015351Y-118152710D01*
X102682017Y-119364475D02*
X102529636Y-119364475D01*
X102529636Y-119364475D02*
X102453445Y-119402570D01*
X102453445Y-119402570D02*
X102415350Y-119440665D01*
X102415350Y-119440665D02*
X102339160Y-119554951D01*
X102339160Y-119554951D02*
X102301064Y-119707332D01*
X102301064Y-119707332D02*
X102301064Y-120012094D01*
X102301064Y-120012094D02*
X102339160Y-120088284D01*
X102339160Y-120088284D02*
X102377255Y-120126380D01*
X102377255Y-120126380D02*
X102453445Y-120164475D01*
X102453445Y-120164475D02*
X102605826Y-120164475D01*
X102605826Y-120164475D02*
X102682017Y-120126380D01*
X102682017Y-120126380D02*
X102720112Y-120088284D01*
X102720112Y-120088284D02*
X102758207Y-120012094D01*
X102758207Y-120012094D02*
X102758207Y-119821618D01*
X102758207Y-119821618D02*
X102720112Y-119745427D01*
X102720112Y-119745427D02*
X102682017Y-119707332D01*
X102682017Y-119707332D02*
X102605826Y-119669237D01*
X102605826Y-119669237D02*
X102453445Y-119669237D01*
X102453445Y-119669237D02*
X102377255Y-119707332D01*
X102377255Y-119707332D02*
X102339160Y-119745427D01*
X102339160Y-119745427D02*
X102301064Y-119821618D01*
X104320113Y-120164475D02*
X104320113Y-119364475D01*
X104701065Y-120164475D02*
X104701065Y-119364475D01*
X104701065Y-119364475D02*
X105158208Y-120164475D01*
X105158208Y-120164475D02*
X105158208Y-119364475D01*
X105424874Y-119364475D02*
X105882017Y-119364475D01*
X105653445Y-120164475D02*
X105653445Y-119364475D01*
X106148684Y-119745427D02*
X106415350Y-119745427D01*
X106529636Y-120164475D02*
X106148684Y-120164475D01*
X106148684Y-120164475D02*
X106148684Y-119364475D01*
X106148684Y-119364475D02*
X106529636Y-119364475D01*
X106872494Y-120164475D02*
X106872494Y-119364475D01*
X106872494Y-119364475D02*
X107329637Y-120164475D01*
X107329637Y-120164475D02*
X107329637Y-119364475D01*
X107672493Y-120126380D02*
X107786779Y-120164475D01*
X107786779Y-120164475D02*
X107977255Y-120164475D01*
X107977255Y-120164475D02*
X108053446Y-120126380D01*
X108053446Y-120126380D02*
X108091541Y-120088284D01*
X108091541Y-120088284D02*
X108129636Y-120012094D01*
X108129636Y-120012094D02*
X108129636Y-119935903D01*
X108129636Y-119935903D02*
X108091541Y-119859713D01*
X108091541Y-119859713D02*
X108053446Y-119821618D01*
X108053446Y-119821618D02*
X107977255Y-119783522D01*
X107977255Y-119783522D02*
X107824874Y-119745427D01*
X107824874Y-119745427D02*
X107748684Y-119707332D01*
X107748684Y-119707332D02*
X107710589Y-119669237D01*
X107710589Y-119669237D02*
X107672493Y-119593046D01*
X107672493Y-119593046D02*
X107672493Y-119516856D01*
X107672493Y-119516856D02*
X107710589Y-119440665D01*
X107710589Y-119440665D02*
X107748684Y-119402570D01*
X107748684Y-119402570D02*
X107824874Y-119364475D01*
X107824874Y-119364475D02*
X108015351Y-119364475D01*
X108015351Y-119364475D02*
X108129636Y-119402570D01*
X102682017Y-120919096D02*
X102682017Y-121452430D01*
X102491541Y-120614335D02*
X102301064Y-121185763D01*
X102301064Y-121185763D02*
X102796303Y-121185763D01*
X104205827Y-120652430D02*
X104472494Y-121452430D01*
X104472494Y-121452430D02*
X104739160Y-120652430D01*
X105005827Y-121452430D02*
X105005827Y-120652430D01*
X105386779Y-121452430D02*
X105386779Y-120652430D01*
X105386779Y-120652430D02*
X105577255Y-120652430D01*
X105577255Y-120652430D02*
X105691541Y-120690525D01*
X105691541Y-120690525D02*
X105767731Y-120766715D01*
X105767731Y-120766715D02*
X105805826Y-120842906D01*
X105805826Y-120842906D02*
X105843922Y-120995287D01*
X105843922Y-120995287D02*
X105843922Y-121109573D01*
X105843922Y-121109573D02*
X105805826Y-121261954D01*
X105805826Y-121261954D02*
X105767731Y-121338144D01*
X105767731Y-121338144D02*
X105691541Y-121414335D01*
X105691541Y-121414335D02*
X105577255Y-121452430D01*
X105577255Y-121452430D02*
X105386779Y-121452430D01*
X106186779Y-121033382D02*
X106453445Y-121033382D01*
X106567731Y-121452430D02*
X106186779Y-121452430D01*
X106186779Y-121452430D02*
X106186779Y-120652430D01*
X106186779Y-120652430D02*
X106567731Y-120652430D01*
X107062970Y-120652430D02*
X107215351Y-120652430D01*
X107215351Y-120652430D02*
X107291541Y-120690525D01*
X107291541Y-120690525D02*
X107367732Y-120766715D01*
X107367732Y-120766715D02*
X107405827Y-120919096D01*
X107405827Y-120919096D02*
X107405827Y-121185763D01*
X107405827Y-121185763D02*
X107367732Y-121338144D01*
X107367732Y-121338144D02*
X107291541Y-121414335D01*
X107291541Y-121414335D02*
X107215351Y-121452430D01*
X107215351Y-121452430D02*
X107062970Y-121452430D01*
X107062970Y-121452430D02*
X106986779Y-121414335D01*
X106986779Y-121414335D02*
X106910589Y-121338144D01*
X106910589Y-121338144D02*
X106872493Y-121185763D01*
X106872493Y-121185763D02*
X106872493Y-120919096D01*
X106872493Y-120919096D02*
X106910589Y-120766715D01*
X106910589Y-120766715D02*
X106986779Y-120690525D01*
X106986779Y-120690525D02*
X107062970Y-120652430D01*
X102758207Y-122740385D02*
X102301064Y-122740385D01*
X102529636Y-122740385D02*
X102529636Y-121940385D01*
X102529636Y-121940385D02*
X102453445Y-122054670D01*
X102453445Y-122054670D02*
X102377255Y-122130861D01*
X102377255Y-122130861D02*
X102301064Y-122168956D01*
X103139160Y-122702290D02*
X103139160Y-122740385D01*
X103139160Y-122740385D02*
X103101065Y-122816575D01*
X103101065Y-122816575D02*
X103062969Y-122854670D01*
X103443921Y-122016575D02*
X103482017Y-121978480D01*
X103482017Y-121978480D02*
X103558207Y-121940385D01*
X103558207Y-121940385D02*
X103748683Y-121940385D01*
X103748683Y-121940385D02*
X103824874Y-121978480D01*
X103824874Y-121978480D02*
X103862969Y-122016575D01*
X103862969Y-122016575D02*
X103901064Y-122092766D01*
X103901064Y-122092766D02*
X103901064Y-122168956D01*
X103901064Y-122168956D02*
X103862969Y-122283242D01*
X103862969Y-122283242D02*
X103405826Y-122740385D01*
X103405826Y-122740385D02*
X103901064Y-122740385D01*
X104853446Y-122435623D02*
X105462970Y-122435623D01*
X105158208Y-122740385D02*
X105158208Y-122130861D01*
X106224874Y-121940385D02*
X105843922Y-121940385D01*
X105843922Y-121940385D02*
X105805826Y-122321337D01*
X105805826Y-122321337D02*
X105843922Y-122283242D01*
X105843922Y-122283242D02*
X105920112Y-122245147D01*
X105920112Y-122245147D02*
X106110588Y-122245147D01*
X106110588Y-122245147D02*
X106186779Y-122283242D01*
X106186779Y-122283242D02*
X106224874Y-122321337D01*
X106224874Y-122321337D02*
X106262969Y-122397528D01*
X106262969Y-122397528D02*
X106262969Y-122588004D01*
X106262969Y-122588004D02*
X106224874Y-122664194D01*
X106224874Y-122664194D02*
X106186779Y-122702290D01*
X106186779Y-122702290D02*
X106110588Y-122740385D01*
X106110588Y-122740385D02*
X105920112Y-122740385D01*
X105920112Y-122740385D02*
X105843922Y-122702290D01*
X105843922Y-122702290D02*
X105805826Y-122664194D01*
X106491541Y-121940385D02*
X106758208Y-122740385D01*
X106758208Y-122740385D02*
X107024874Y-121940385D01*
X102262969Y-123228340D02*
X102758207Y-123228340D01*
X102758207Y-123228340D02*
X102491541Y-123533102D01*
X102491541Y-123533102D02*
X102605826Y-123533102D01*
X102605826Y-123533102D02*
X102682017Y-123571197D01*
X102682017Y-123571197D02*
X102720112Y-123609292D01*
X102720112Y-123609292D02*
X102758207Y-123685483D01*
X102758207Y-123685483D02*
X102758207Y-123875959D01*
X102758207Y-123875959D02*
X102720112Y-123952149D01*
X102720112Y-123952149D02*
X102682017Y-123990245D01*
X102682017Y-123990245D02*
X102605826Y-124028340D01*
X102605826Y-124028340D02*
X102377255Y-124028340D01*
X102377255Y-124028340D02*
X102301064Y-123990245D01*
X102301064Y-123990245D02*
X102262969Y-123952149D01*
X105348683Y-123723578D02*
X105958207Y-123723578D01*
X105653445Y-124028340D02*
X105653445Y-123418816D01*
X106262968Y-123228340D02*
X106758206Y-123228340D01*
X106758206Y-123228340D02*
X106491540Y-123533102D01*
X106491540Y-123533102D02*
X106605825Y-123533102D01*
X106605825Y-123533102D02*
X106682016Y-123571197D01*
X106682016Y-123571197D02*
X106720111Y-123609292D01*
X106720111Y-123609292D02*
X106758206Y-123685483D01*
X106758206Y-123685483D02*
X106758206Y-123875959D01*
X106758206Y-123875959D02*
X106720111Y-123952149D01*
X106720111Y-123952149D02*
X106682016Y-123990245D01*
X106682016Y-123990245D02*
X106605825Y-124028340D01*
X106605825Y-124028340D02*
X106377254Y-124028340D01*
X106377254Y-124028340D02*
X106301063Y-123990245D01*
X106301063Y-123990245D02*
X106262968Y-123952149D01*
X107139159Y-123990245D02*
X107139159Y-124028340D01*
X107139159Y-124028340D02*
X107101064Y-124104530D01*
X107101064Y-124104530D02*
X107062968Y-124142625D01*
X107405825Y-123228340D02*
X107901063Y-123228340D01*
X107901063Y-123228340D02*
X107634397Y-123533102D01*
X107634397Y-123533102D02*
X107748682Y-123533102D01*
X107748682Y-123533102D02*
X107824873Y-123571197D01*
X107824873Y-123571197D02*
X107862968Y-123609292D01*
X107862968Y-123609292D02*
X107901063Y-123685483D01*
X107901063Y-123685483D02*
X107901063Y-123875959D01*
X107901063Y-123875959D02*
X107862968Y-123952149D01*
X107862968Y-123952149D02*
X107824873Y-123990245D01*
X107824873Y-123990245D02*
X107748682Y-124028340D01*
X107748682Y-124028340D02*
X107520111Y-124028340D01*
X107520111Y-124028340D02*
X107443920Y-123990245D01*
X107443920Y-123990245D02*
X107405825Y-123952149D01*
X108129635Y-123228340D02*
X108396302Y-124028340D01*
X108396302Y-124028340D02*
X108662968Y-123228340D01*
X102720112Y-124516295D02*
X102339160Y-124516295D01*
X102339160Y-124516295D02*
X102301064Y-124897247D01*
X102301064Y-124897247D02*
X102339160Y-124859152D01*
X102339160Y-124859152D02*
X102415350Y-124821057D01*
X102415350Y-124821057D02*
X102605826Y-124821057D01*
X102605826Y-124821057D02*
X102682017Y-124859152D01*
X102682017Y-124859152D02*
X102720112Y-124897247D01*
X102720112Y-124897247D02*
X102758207Y-124973438D01*
X102758207Y-124973438D02*
X102758207Y-125163914D01*
X102758207Y-125163914D02*
X102720112Y-125240104D01*
X102720112Y-125240104D02*
X102682017Y-125278200D01*
X102682017Y-125278200D02*
X102605826Y-125316295D01*
X102605826Y-125316295D02*
X102415350Y-125316295D01*
X102415350Y-125316295D02*
X102339160Y-125278200D01*
X102339160Y-125278200D02*
X102301064Y-125240104D01*
X103139160Y-125278200D02*
X103139160Y-125316295D01*
X103139160Y-125316295D02*
X103101065Y-125392485D01*
X103101065Y-125392485D02*
X103062969Y-125430580D01*
X103405826Y-124516295D02*
X103939160Y-124516295D01*
X103939160Y-124516295D02*
X103596302Y-125316295D01*
X104282017Y-125278200D02*
X104282017Y-125316295D01*
X104282017Y-125316295D02*
X104243922Y-125392485D01*
X104243922Y-125392485D02*
X104205826Y-125430580D01*
X104739159Y-124859152D02*
X104662969Y-124821057D01*
X104662969Y-124821057D02*
X104624874Y-124782961D01*
X104624874Y-124782961D02*
X104586778Y-124706771D01*
X104586778Y-124706771D02*
X104586778Y-124668676D01*
X104586778Y-124668676D02*
X104624874Y-124592485D01*
X104624874Y-124592485D02*
X104662969Y-124554390D01*
X104662969Y-124554390D02*
X104739159Y-124516295D01*
X104739159Y-124516295D02*
X104891540Y-124516295D01*
X104891540Y-124516295D02*
X104967731Y-124554390D01*
X104967731Y-124554390D02*
X105005826Y-124592485D01*
X105005826Y-124592485D02*
X105043921Y-124668676D01*
X105043921Y-124668676D02*
X105043921Y-124706771D01*
X105043921Y-124706771D02*
X105005826Y-124782961D01*
X105005826Y-124782961D02*
X104967731Y-124821057D01*
X104967731Y-124821057D02*
X104891540Y-124859152D01*
X104891540Y-124859152D02*
X104739159Y-124859152D01*
X104739159Y-124859152D02*
X104662969Y-124897247D01*
X104662969Y-124897247D02*
X104624874Y-124935342D01*
X104624874Y-124935342D02*
X104586778Y-125011533D01*
X104586778Y-125011533D02*
X104586778Y-125163914D01*
X104586778Y-125163914D02*
X104624874Y-125240104D01*
X104624874Y-125240104D02*
X104662969Y-125278200D01*
X104662969Y-125278200D02*
X104739159Y-125316295D01*
X104739159Y-125316295D02*
X104891540Y-125316295D01*
X104891540Y-125316295D02*
X104967731Y-125278200D01*
X104967731Y-125278200D02*
X105005826Y-125240104D01*
X105005826Y-125240104D02*
X105043921Y-125163914D01*
X105043921Y-125163914D02*
X105043921Y-125011533D01*
X105043921Y-125011533D02*
X105005826Y-124935342D01*
X105005826Y-124935342D02*
X104967731Y-124897247D01*
X104967731Y-124897247D02*
X104891540Y-124859152D01*
X105424874Y-125278200D02*
X105424874Y-125316295D01*
X105424874Y-125316295D02*
X105386779Y-125392485D01*
X105386779Y-125392485D02*
X105348683Y-125430580D01*
X105805826Y-125316295D02*
X105958207Y-125316295D01*
X105958207Y-125316295D02*
X106034397Y-125278200D01*
X106034397Y-125278200D02*
X106072493Y-125240104D01*
X106072493Y-125240104D02*
X106148683Y-125125819D01*
X106148683Y-125125819D02*
X106186778Y-124973438D01*
X106186778Y-124973438D02*
X106186778Y-124668676D01*
X106186778Y-124668676D02*
X106148683Y-124592485D01*
X106148683Y-124592485D02*
X106110588Y-124554390D01*
X106110588Y-124554390D02*
X106034397Y-124516295D01*
X106034397Y-124516295D02*
X105882016Y-124516295D01*
X105882016Y-124516295D02*
X105805826Y-124554390D01*
X105805826Y-124554390D02*
X105767731Y-124592485D01*
X105767731Y-124592485D02*
X105729635Y-124668676D01*
X105729635Y-124668676D02*
X105729635Y-124859152D01*
X105729635Y-124859152D02*
X105767731Y-124935342D01*
X105767731Y-124935342D02*
X105805826Y-124973438D01*
X105805826Y-124973438D02*
X105882016Y-125011533D01*
X105882016Y-125011533D02*
X106034397Y-125011533D01*
X106034397Y-125011533D02*
X106110588Y-124973438D01*
X106110588Y-124973438D02*
X106148683Y-124935342D01*
X106148683Y-124935342D02*
X106186778Y-124859152D01*
X107558207Y-124554390D02*
X107482017Y-124516295D01*
X107482017Y-124516295D02*
X107367731Y-124516295D01*
X107367731Y-124516295D02*
X107253445Y-124554390D01*
X107253445Y-124554390D02*
X107177255Y-124630580D01*
X107177255Y-124630580D02*
X107139160Y-124706771D01*
X107139160Y-124706771D02*
X107101064Y-124859152D01*
X107101064Y-124859152D02*
X107101064Y-124973438D01*
X107101064Y-124973438D02*
X107139160Y-125125819D01*
X107139160Y-125125819D02*
X107177255Y-125202009D01*
X107177255Y-125202009D02*
X107253445Y-125278200D01*
X107253445Y-125278200D02*
X107367731Y-125316295D01*
X107367731Y-125316295D02*
X107443922Y-125316295D01*
X107443922Y-125316295D02*
X107558207Y-125278200D01*
X107558207Y-125278200D02*
X107596303Y-125240104D01*
X107596303Y-125240104D02*
X107596303Y-124973438D01*
X107596303Y-124973438D02*
X107443922Y-124973438D01*
X107939160Y-125316295D02*
X107939160Y-124516295D01*
X107939160Y-124516295D02*
X108396303Y-125316295D01*
X108396303Y-125316295D02*
X108396303Y-124516295D01*
X108777255Y-125316295D02*
X108777255Y-124516295D01*
X108777255Y-124516295D02*
X108967731Y-124516295D01*
X108967731Y-124516295D02*
X109082017Y-124554390D01*
X109082017Y-124554390D02*
X109158207Y-124630580D01*
X109158207Y-124630580D02*
X109196302Y-124706771D01*
X109196302Y-124706771D02*
X109234398Y-124859152D01*
X109234398Y-124859152D02*
X109234398Y-124973438D01*
X109234398Y-124973438D02*
X109196302Y-125125819D01*
X109196302Y-125125819D02*
X109158207Y-125202009D01*
X109158207Y-125202009D02*
X109082017Y-125278200D01*
X109082017Y-125278200D02*
X108967731Y-125316295D01*
X108967731Y-125316295D02*
X108777255Y-125316295D01*
D10*
X152196895Y-132258020D02*
X152196895Y-131800877D01*
X152996895Y-132029449D02*
X152196895Y-132029449D01*
X152996895Y-131534210D02*
X152196895Y-131534210D01*
X152196895Y-131534210D02*
X152196895Y-131229448D01*
X152196895Y-131229448D02*
X152234990Y-131153258D01*
X152234990Y-131153258D02*
X152273085Y-131115163D01*
X152273085Y-131115163D02*
X152349276Y-131077067D01*
X152349276Y-131077067D02*
X152463561Y-131077067D01*
X152463561Y-131077067D02*
X152539752Y-131115163D01*
X152539752Y-131115163D02*
X152577847Y-131153258D01*
X152577847Y-131153258D02*
X152615942Y-131229448D01*
X152615942Y-131229448D02*
X152615942Y-131534210D01*
X152996895Y-130315163D02*
X152996895Y-130772306D01*
X152996895Y-130543734D02*
X152196895Y-130543734D01*
X152196895Y-130543734D02*
X152311180Y-130619925D01*
X152311180Y-130619925D02*
X152387371Y-130696115D01*
X152387371Y-130696115D02*
X152425466Y-130772306D01*
X152273085Y-130010401D02*
X152234990Y-129972305D01*
X152234990Y-129972305D02*
X152196895Y-129896115D01*
X152196895Y-129896115D02*
X152196895Y-129705639D01*
X152196895Y-129705639D02*
X152234990Y-129629448D01*
X152234990Y-129629448D02*
X152273085Y-129591353D01*
X152273085Y-129591353D02*
X152349276Y-129553258D01*
X152349276Y-129553258D02*
X152425466Y-129553258D01*
X152425466Y-129553258D02*
X152539752Y-129591353D01*
X152539752Y-129591353D02*
X152996895Y-130048496D01*
X152996895Y-130048496D02*
X152996895Y-129553258D01*
X145177847Y-131777068D02*
X145215942Y-131662782D01*
X145215942Y-131662782D02*
X145254038Y-131624687D01*
X145254038Y-131624687D02*
X145330228Y-131586591D01*
X145330228Y-131586591D02*
X145444514Y-131586591D01*
X145444514Y-131586591D02*
X145520704Y-131624687D01*
X145520704Y-131624687D02*
X145558800Y-131662782D01*
X145558800Y-131662782D02*
X145596895Y-131738972D01*
X145596895Y-131738972D02*
X145596895Y-132043734D01*
X145596895Y-132043734D02*
X144796895Y-132043734D01*
X144796895Y-132043734D02*
X144796895Y-131777068D01*
X144796895Y-131777068D02*
X144834990Y-131700877D01*
X144834990Y-131700877D02*
X144873085Y-131662782D01*
X144873085Y-131662782D02*
X144949276Y-131624687D01*
X144949276Y-131624687D02*
X145025466Y-131624687D01*
X145025466Y-131624687D02*
X145101657Y-131662782D01*
X145101657Y-131662782D02*
X145139752Y-131700877D01*
X145139752Y-131700877D02*
X145177847Y-131777068D01*
X145177847Y-131777068D02*
X145177847Y-132043734D01*
X145558800Y-131281830D02*
X145596895Y-131167544D01*
X145596895Y-131167544D02*
X145596895Y-130977068D01*
X145596895Y-130977068D02*
X145558800Y-130900877D01*
X145558800Y-130900877D02*
X145520704Y-130862782D01*
X145520704Y-130862782D02*
X145444514Y-130824687D01*
X145444514Y-130824687D02*
X145368323Y-130824687D01*
X145368323Y-130824687D02*
X145292133Y-130862782D01*
X145292133Y-130862782D02*
X145254038Y-130900877D01*
X145254038Y-130900877D02*
X145215942Y-130977068D01*
X145215942Y-130977068D02*
X145177847Y-131129449D01*
X145177847Y-131129449D02*
X145139752Y-131205639D01*
X145139752Y-131205639D02*
X145101657Y-131243734D01*
X145101657Y-131243734D02*
X145025466Y-131281830D01*
X145025466Y-131281830D02*
X144949276Y-131281830D01*
X144949276Y-131281830D02*
X144873085Y-131243734D01*
X144873085Y-131243734D02*
X144834990Y-131205639D01*
X144834990Y-131205639D02*
X144796895Y-131129449D01*
X144796895Y-131129449D02*
X144796895Y-130938972D01*
X144796895Y-130938972D02*
X144834990Y-130824687D01*
X154796895Y-132258020D02*
X154796895Y-131800877D01*
X155596895Y-132029449D02*
X154796895Y-132029449D01*
X155596895Y-131534210D02*
X154796895Y-131534210D01*
X154796895Y-131534210D02*
X154796895Y-131229448D01*
X154796895Y-131229448D02*
X154834990Y-131153258D01*
X154834990Y-131153258D02*
X154873085Y-131115163D01*
X154873085Y-131115163D02*
X154949276Y-131077067D01*
X154949276Y-131077067D02*
X155063561Y-131077067D01*
X155063561Y-131077067D02*
X155139752Y-131115163D01*
X155139752Y-131115163D02*
X155177847Y-131153258D01*
X155177847Y-131153258D02*
X155215942Y-131229448D01*
X155215942Y-131229448D02*
X155215942Y-131534210D01*
X155596895Y-130315163D02*
X155596895Y-130772306D01*
X155596895Y-130543734D02*
X154796895Y-130543734D01*
X154796895Y-130543734D02*
X154911180Y-130619925D01*
X154911180Y-130619925D02*
X154987371Y-130696115D01*
X154987371Y-130696115D02*
X155025466Y-130772306D01*
X155596895Y-129553258D02*
X155596895Y-130010401D01*
X155596895Y-129781829D02*
X154796895Y-129781829D01*
X154796895Y-129781829D02*
X154911180Y-129858020D01*
X154911180Y-129858020D02*
X154987371Y-129934210D01*
X154987371Y-129934210D02*
X155025466Y-130010401D01*
D11*
X168776017Y-113407845D02*
X169842684Y-113407845D01*
X169576017Y-113674512D02*
X169842684Y-113407845D01*
X169842684Y-113407845D02*
X169576017Y-113141178D01*
X169309350Y-115128434D02*
X169309350Y-116195100D01*
X169576017Y-115928434D02*
X169309350Y-116195100D01*
X169309350Y-116195100D02*
X169042684Y-115928434D01*
X169509350Y-117115689D02*
X169376017Y-117049022D01*
X169376017Y-117049022D02*
X169176017Y-117049022D01*
X169176017Y-117049022D02*
X168976017Y-117115689D01*
X168976017Y-117115689D02*
X168842684Y-117249022D01*
X168842684Y-117249022D02*
X168776017Y-117382356D01*
X168776017Y-117382356D02*
X168709350Y-117649022D01*
X168709350Y-117649022D02*
X168709350Y-117849022D01*
X168709350Y-117849022D02*
X168776017Y-118115689D01*
X168776017Y-118115689D02*
X168842684Y-118249022D01*
X168842684Y-118249022D02*
X168976017Y-118382356D01*
X168976017Y-118382356D02*
X169176017Y-118449022D01*
X169176017Y-118449022D02*
X169309350Y-118449022D01*
X169309350Y-118449022D02*
X169509350Y-118382356D01*
X169509350Y-118382356D02*
X169576017Y-118315689D01*
X169576017Y-118315689D02*
X169576017Y-117849022D01*
X169576017Y-117849022D02*
X169309350Y-117849022D01*
X169309350Y-120702944D02*
X169309350Y-119636278D01*
X169042684Y-119902944D02*
X169309350Y-119636278D01*
X169309350Y-119636278D02*
X169576017Y-119902944D01*
X169842684Y-122423533D02*
X168776017Y-122423533D01*
X169042684Y-122690200D02*
X168776017Y-122423533D01*
X168776017Y-122423533D02*
X169042684Y-122156866D01*
X112799333Y-109682180D02*
X112799333Y-108967895D01*
X112799333Y-108967895D02*
X112846952Y-108825038D01*
X112846952Y-108825038D02*
X112942190Y-108729800D01*
X112942190Y-108729800D02*
X113085047Y-108682180D01*
X113085047Y-108682180D02*
X113180285Y-108682180D01*
X111894571Y-109682180D02*
X112085047Y-109682180D01*
X112085047Y-109682180D02*
X112180285Y-109634561D01*
X112180285Y-109634561D02*
X112227904Y-109586942D01*
X112227904Y-109586942D02*
X112323142Y-109444085D01*
X112323142Y-109444085D02*
X112370761Y-109253609D01*
X112370761Y-109253609D02*
X112370761Y-108872657D01*
X112370761Y-108872657D02*
X112323142Y-108777419D01*
X112323142Y-108777419D02*
X112275523Y-108729800D01*
X112275523Y-108729800D02*
X112180285Y-108682180D01*
X112180285Y-108682180D02*
X111989809Y-108682180D01*
X111989809Y-108682180D02*
X111894571Y-108729800D01*
X111894571Y-108729800D02*
X111846952Y-108777419D01*
X111846952Y-108777419D02*
X111799333Y-108872657D01*
X111799333Y-108872657D02*
X111799333Y-109110752D01*
X111799333Y-109110752D02*
X111846952Y-109205990D01*
X111846952Y-109205990D02*
X111894571Y-109253609D01*
X111894571Y-109253609D02*
X111989809Y-109301228D01*
X111989809Y-109301228D02*
X112180285Y-109301228D01*
X112180285Y-109301228D02*
X112275523Y-109253609D01*
X112275523Y-109253609D02*
X112323142Y-109205990D01*
X112323142Y-109205990D02*
X112370761Y-109110752D01*
X123999580Y-115682666D02*
X124047200Y-115730285D01*
X124047200Y-115730285D02*
X124094819Y-115873142D01*
X124094819Y-115873142D02*
X124094819Y-115968380D01*
X124094819Y-115968380D02*
X124047200Y-116111237D01*
X124047200Y-116111237D02*
X123951961Y-116206475D01*
X123951961Y-116206475D02*
X123856723Y-116254094D01*
X123856723Y-116254094D02*
X123666247Y-116301713D01*
X123666247Y-116301713D02*
X123523390Y-116301713D01*
X123523390Y-116301713D02*
X123332914Y-116254094D01*
X123332914Y-116254094D02*
X123237676Y-116206475D01*
X123237676Y-116206475D02*
X123142438Y-116111237D01*
X123142438Y-116111237D02*
X123094819Y-115968380D01*
X123094819Y-115968380D02*
X123094819Y-115873142D01*
X123094819Y-115873142D02*
X123142438Y-115730285D01*
X123142438Y-115730285D02*
X123190057Y-115682666D01*
X123190057Y-115301713D02*
X123142438Y-115254094D01*
X123142438Y-115254094D02*
X123094819Y-115158856D01*
X123094819Y-115158856D02*
X123094819Y-114920761D01*
X123094819Y-114920761D02*
X123142438Y-114825523D01*
X123142438Y-114825523D02*
X123190057Y-114777904D01*
X123190057Y-114777904D02*
X123285295Y-114730285D01*
X123285295Y-114730285D02*
X123380533Y-114730285D01*
X123380533Y-114730285D02*
X123523390Y-114777904D01*
X123523390Y-114777904D02*
X124094819Y-115349332D01*
X124094819Y-115349332D02*
X124094819Y-114730285D01*
X122925714Y-105810819D02*
X122354286Y-105810819D01*
X122640000Y-105810819D02*
X122640000Y-104810819D01*
X122640000Y-104810819D02*
X122544762Y-104953676D01*
X122544762Y-104953676D02*
X122449524Y-105048914D01*
X122449524Y-105048914D02*
X122354286Y-105096533D01*
X123544762Y-104810819D02*
X123640000Y-104810819D01*
X123640000Y-104810819D02*
X123735238Y-104858438D01*
X123735238Y-104858438D02*
X123782857Y-104906057D01*
X123782857Y-104906057D02*
X123830476Y-105001295D01*
X123830476Y-105001295D02*
X123878095Y-105191771D01*
X123878095Y-105191771D02*
X123878095Y-105429866D01*
X123878095Y-105429866D02*
X123830476Y-105620342D01*
X123830476Y-105620342D02*
X123782857Y-105715580D01*
X123782857Y-105715580D02*
X123735238Y-105763200D01*
X123735238Y-105763200D02*
X123640000Y-105810819D01*
X123640000Y-105810819D02*
X123544762Y-105810819D01*
X123544762Y-105810819D02*
X123449524Y-105763200D01*
X123449524Y-105763200D02*
X123401905Y-105715580D01*
X123401905Y-105715580D02*
X123354286Y-105620342D01*
X123354286Y-105620342D02*
X123306667Y-105429866D01*
X123306667Y-105429866D02*
X123306667Y-105191771D01*
X123306667Y-105191771D02*
X123354286Y-105001295D01*
X123354286Y-105001295D02*
X123401905Y-104906057D01*
X123401905Y-104906057D02*
X123449524Y-104858438D01*
X123449524Y-104858438D02*
X123544762Y-104810819D01*
X124306667Y-105144152D02*
X124306667Y-106144152D01*
X124782857Y-105667961D02*
X124830476Y-105763200D01*
X124830476Y-105763200D02*
X124925714Y-105810819D01*
X124306667Y-105667961D02*
X124354286Y-105763200D01*
X124354286Y-105763200D02*
X124449524Y-105810819D01*
X124449524Y-105810819D02*
X124640000Y-105810819D01*
X124640000Y-105810819D02*
X124735238Y-105763200D01*
X124735238Y-105763200D02*
X124782857Y-105667961D01*
X124782857Y-105667961D02*
X124782857Y-105144152D01*
X123661905Y-129074819D02*
X123661905Y-128074819D01*
X123661905Y-128074819D02*
X123900000Y-128074819D01*
X123900000Y-128074819D02*
X124042857Y-128122438D01*
X124042857Y-128122438D02*
X124138095Y-128217676D01*
X124138095Y-128217676D02*
X124185714Y-128312914D01*
X124185714Y-128312914D02*
X124233333Y-128503390D01*
X124233333Y-128503390D02*
X124233333Y-128646247D01*
X124233333Y-128646247D02*
X124185714Y-128836723D01*
X124185714Y-128836723D02*
X124138095Y-128931961D01*
X124138095Y-128931961D02*
X124042857Y-129027200D01*
X124042857Y-129027200D02*
X123900000Y-129074819D01*
X123900000Y-129074819D02*
X123661905Y-129074819D01*
X124614286Y-128170057D02*
X124661905Y-128122438D01*
X124661905Y-128122438D02*
X124757143Y-128074819D01*
X124757143Y-128074819D02*
X124995238Y-128074819D01*
X124995238Y-128074819D02*
X125090476Y-128122438D01*
X125090476Y-128122438D02*
X125138095Y-128170057D01*
X125138095Y-128170057D02*
X125185714Y-128265295D01*
X125185714Y-128265295D02*
X125185714Y-128360533D01*
X125185714Y-128360533D02*
X125138095Y-128503390D01*
X125138095Y-128503390D02*
X124566667Y-129074819D01*
X124566667Y-129074819D02*
X125185714Y-129074819D01*
X131761905Y-128054819D02*
X132380952Y-128054819D01*
X132380952Y-128054819D02*
X132047619Y-128435771D01*
X132047619Y-128435771D02*
X132190476Y-128435771D01*
X132190476Y-128435771D02*
X132285714Y-128483390D01*
X132285714Y-128483390D02*
X132333333Y-128531009D01*
X132333333Y-128531009D02*
X132380952Y-128626247D01*
X132380952Y-128626247D02*
X132380952Y-128864342D01*
X132380952Y-128864342D02*
X132333333Y-128959580D01*
X132333333Y-128959580D02*
X132285714Y-129007200D01*
X132285714Y-129007200D02*
X132190476Y-129054819D01*
X132190476Y-129054819D02*
X131904762Y-129054819D01*
X131904762Y-129054819D02*
X131809524Y-129007200D01*
X131809524Y-129007200D02*
X131761905Y-128959580D01*
X132666667Y-128054819D02*
X133000000Y-129054819D01*
X133000000Y-129054819D02*
X133333333Y-128054819D01*
X133571429Y-128054819D02*
X134190476Y-128054819D01*
X134190476Y-128054819D02*
X133857143Y-128435771D01*
X133857143Y-128435771D02*
X134000000Y-128435771D01*
X134000000Y-128435771D02*
X134095238Y-128483390D01*
X134095238Y-128483390D02*
X134142857Y-128531009D01*
X134142857Y-128531009D02*
X134190476Y-128626247D01*
X134190476Y-128626247D02*
X134190476Y-128864342D01*
X134190476Y-128864342D02*
X134142857Y-128959580D01*
X134142857Y-128959580D02*
X134095238Y-129007200D01*
X134095238Y-129007200D02*
X134000000Y-129054819D01*
X134000000Y-129054819D02*
X133714286Y-129054819D01*
X133714286Y-129054819D02*
X133619048Y-129007200D01*
X133619048Y-129007200D02*
X133571429Y-128959580D01*
X162084819Y-134433333D02*
X162799104Y-134433333D01*
X162799104Y-134433333D02*
X162941961Y-134480952D01*
X162941961Y-134480952D02*
X163037200Y-134576190D01*
X163037200Y-134576190D02*
X163084819Y-134719047D01*
X163084819Y-134719047D02*
X163084819Y-134814285D01*
X162084819Y-134052380D02*
X162084819Y-133385714D01*
X162084819Y-133385714D02*
X163084819Y-133814285D01*
X142066667Y-128807200D02*
X142209524Y-128854819D01*
X142209524Y-128854819D02*
X142447619Y-128854819D01*
X142447619Y-128854819D02*
X142542857Y-128807200D01*
X142542857Y-128807200D02*
X142590476Y-128759580D01*
X142590476Y-128759580D02*
X142638095Y-128664342D01*
X142638095Y-128664342D02*
X142638095Y-128569104D01*
X142638095Y-128569104D02*
X142590476Y-128473866D01*
X142590476Y-128473866D02*
X142542857Y-128426247D01*
X142542857Y-128426247D02*
X142447619Y-128378628D01*
X142447619Y-128378628D02*
X142257143Y-128331009D01*
X142257143Y-128331009D02*
X142161905Y-128283390D01*
X142161905Y-128283390D02*
X142114286Y-128235771D01*
X142114286Y-128235771D02*
X142066667Y-128140533D01*
X142066667Y-128140533D02*
X142066667Y-128045295D01*
X142066667Y-128045295D02*
X142114286Y-127950057D01*
X142114286Y-127950057D02*
X142161905Y-127902438D01*
X142161905Y-127902438D02*
X142257143Y-127854819D01*
X142257143Y-127854819D02*
X142495238Y-127854819D01*
X142495238Y-127854819D02*
X142638095Y-127902438D01*
X142971429Y-127854819D02*
X143209524Y-128854819D01*
X143209524Y-128854819D02*
X143400000Y-128140533D01*
X143400000Y-128140533D02*
X143590476Y-128854819D01*
X143590476Y-128854819D02*
X143828572Y-127854819D01*
X144733333Y-128854819D02*
X144161905Y-128854819D01*
X144447619Y-128854819D02*
X144447619Y-127854819D01*
X144447619Y-127854819D02*
X144352381Y-127997676D01*
X144352381Y-127997676D02*
X144257143Y-128092914D01*
X144257143Y-128092914D02*
X144161905Y-128140533D01*
X135952380Y-125454819D02*
X135619047Y-124978628D01*
X135380952Y-125454819D02*
X135380952Y-124454819D01*
X135380952Y-124454819D02*
X135761904Y-124454819D01*
X135761904Y-124454819D02*
X135857142Y-124502438D01*
X135857142Y-124502438D02*
X135904761Y-124550057D01*
X135904761Y-124550057D02*
X135952380Y-124645295D01*
X135952380Y-124645295D02*
X135952380Y-124788152D01*
X135952380Y-124788152D02*
X135904761Y-124883390D01*
X135904761Y-124883390D02*
X135857142Y-124931009D01*
X135857142Y-124931009D02*
X135761904Y-124978628D01*
X135761904Y-124978628D02*
X135380952Y-124978628D01*
X136333333Y-125407200D02*
X136476190Y-125454819D01*
X136476190Y-125454819D02*
X136714285Y-125454819D01*
X136714285Y-125454819D02*
X136809523Y-125407200D01*
X136809523Y-125407200D02*
X136857142Y-125359580D01*
X136857142Y-125359580D02*
X136904761Y-125264342D01*
X136904761Y-125264342D02*
X136904761Y-125169104D01*
X136904761Y-125169104D02*
X136857142Y-125073866D01*
X136857142Y-125073866D02*
X136809523Y-125026247D01*
X136809523Y-125026247D02*
X136714285Y-124978628D01*
X136714285Y-124978628D02*
X136523809Y-124931009D01*
X136523809Y-124931009D02*
X136428571Y-124883390D01*
X136428571Y-124883390D02*
X136380952Y-124835771D01*
X136380952Y-124835771D02*
X136333333Y-124740533D01*
X136333333Y-124740533D02*
X136333333Y-124645295D01*
X136333333Y-124645295D02*
X136380952Y-124550057D01*
X136380952Y-124550057D02*
X136428571Y-124502438D01*
X136428571Y-124502438D02*
X136523809Y-124454819D01*
X136523809Y-124454819D02*
X136761904Y-124454819D01*
X136761904Y-124454819D02*
X136904761Y-124502438D01*
X137190476Y-124454819D02*
X137761904Y-124454819D01*
X137476190Y-125454819D02*
X137476190Y-124454819D01*
X101027319Y-131063333D02*
X101741604Y-131063333D01*
X101741604Y-131063333D02*
X101884461Y-131110952D01*
X101884461Y-131110952D02*
X101979700Y-131206190D01*
X101979700Y-131206190D02*
X102027319Y-131349047D01*
X102027319Y-131349047D02*
X102027319Y-131444285D01*
X102027319Y-130063333D02*
X102027319Y-130634761D01*
X102027319Y-130349047D02*
X101027319Y-130349047D01*
X101027319Y-130349047D02*
X101170176Y-130444285D01*
X101170176Y-130444285D02*
X101265414Y-130539523D01*
X101265414Y-130539523D02*
X101313033Y-130634761D01*
X104298819Y-106197333D02*
X105013104Y-106197333D01*
X105013104Y-106197333D02*
X105155961Y-106244952D01*
X105155961Y-106244952D02*
X105251200Y-106340190D01*
X105251200Y-106340190D02*
X105298819Y-106483047D01*
X105298819Y-106483047D02*
X105298819Y-106578285D01*
X104298819Y-105816380D02*
X104298819Y-105197333D01*
X104298819Y-105197333D02*
X104679771Y-105530666D01*
X104679771Y-105530666D02*
X104679771Y-105387809D01*
X104679771Y-105387809D02*
X104727390Y-105292571D01*
X104727390Y-105292571D02*
X104775009Y-105244952D01*
X104775009Y-105244952D02*
X104870247Y-105197333D01*
X104870247Y-105197333D02*
X105108342Y-105197333D01*
X105108342Y-105197333D02*
X105203580Y-105244952D01*
X105203580Y-105244952D02*
X105251200Y-105292571D01*
X105251200Y-105292571D02*
X105298819Y-105387809D01*
X105298819Y-105387809D02*
X105298819Y-105673523D01*
X105298819Y-105673523D02*
X105251200Y-105768761D01*
X105251200Y-105768761D02*
X105203580Y-105816380D01*
X144722095Y-112684819D02*
X144722095Y-113494342D01*
X144722095Y-113494342D02*
X144769714Y-113589580D01*
X144769714Y-113589580D02*
X144817333Y-113637200D01*
X144817333Y-113637200D02*
X144912571Y-113684819D01*
X144912571Y-113684819D02*
X145103047Y-113684819D01*
X145103047Y-113684819D02*
X145198285Y-113637200D01*
X145198285Y-113637200D02*
X145245904Y-113589580D01*
X145245904Y-113589580D02*
X145293523Y-113494342D01*
X145293523Y-113494342D02*
X145293523Y-112684819D01*
X145722095Y-112780057D02*
X145769714Y-112732438D01*
X145769714Y-112732438D02*
X145864952Y-112684819D01*
X145864952Y-112684819D02*
X146103047Y-112684819D01*
X146103047Y-112684819D02*
X146198285Y-112732438D01*
X146198285Y-112732438D02*
X146245904Y-112780057D01*
X146245904Y-112780057D02*
X146293523Y-112875295D01*
X146293523Y-112875295D02*
X146293523Y-112970533D01*
X146293523Y-112970533D02*
X146245904Y-113113390D01*
X146245904Y-113113390D02*
X145674476Y-113684819D01*
X145674476Y-113684819D02*
X146293523Y-113684819D01*
X141428953Y-121289009D02*
X141762286Y-121289009D01*
X141905143Y-121812819D02*
X141428953Y-121812819D01*
X141428953Y-121812819D02*
X141428953Y-120812819D01*
X141428953Y-120812819D02*
X141905143Y-120812819D01*
X142286096Y-121765200D02*
X142428953Y-121812819D01*
X142428953Y-121812819D02*
X142667048Y-121812819D01*
X142667048Y-121812819D02*
X142762286Y-121765200D01*
X142762286Y-121765200D02*
X142809905Y-121717580D01*
X142809905Y-121717580D02*
X142857524Y-121622342D01*
X142857524Y-121622342D02*
X142857524Y-121527104D01*
X142857524Y-121527104D02*
X142809905Y-121431866D01*
X142809905Y-121431866D02*
X142762286Y-121384247D01*
X142762286Y-121384247D02*
X142667048Y-121336628D01*
X142667048Y-121336628D02*
X142476572Y-121289009D01*
X142476572Y-121289009D02*
X142381334Y-121241390D01*
X142381334Y-121241390D02*
X142333715Y-121193771D01*
X142333715Y-121193771D02*
X142286096Y-121098533D01*
X142286096Y-121098533D02*
X142286096Y-121003295D01*
X142286096Y-121003295D02*
X142333715Y-120908057D01*
X142333715Y-120908057D02*
X142381334Y-120860438D01*
X142381334Y-120860438D02*
X142476572Y-120812819D01*
X142476572Y-120812819D02*
X142714667Y-120812819D01*
X142714667Y-120812819D02*
X142857524Y-120860438D01*
X143286096Y-121812819D02*
X143286096Y-120812819D01*
X143286096Y-120812819D02*
X143667048Y-120812819D01*
X143667048Y-120812819D02*
X143762286Y-120860438D01*
X143762286Y-120860438D02*
X143809905Y-120908057D01*
X143809905Y-120908057D02*
X143857524Y-121003295D01*
X143857524Y-121003295D02*
X143857524Y-121146152D01*
X143857524Y-121146152D02*
X143809905Y-121241390D01*
X143809905Y-121241390D02*
X143762286Y-121289009D01*
X143762286Y-121289009D02*
X143667048Y-121336628D01*
X143667048Y-121336628D02*
X143286096Y-121336628D01*
X144190858Y-120812819D02*
X144809905Y-120812819D01*
X144809905Y-120812819D02*
X144476572Y-121193771D01*
X144476572Y-121193771D02*
X144619429Y-121193771D01*
X144619429Y-121193771D02*
X144714667Y-121241390D01*
X144714667Y-121241390D02*
X144762286Y-121289009D01*
X144762286Y-121289009D02*
X144809905Y-121384247D01*
X144809905Y-121384247D02*
X144809905Y-121622342D01*
X144809905Y-121622342D02*
X144762286Y-121717580D01*
X144762286Y-121717580D02*
X144714667Y-121765200D01*
X144714667Y-121765200D02*
X144619429Y-121812819D01*
X144619429Y-121812819D02*
X144333715Y-121812819D01*
X144333715Y-121812819D02*
X144238477Y-121765200D01*
X144238477Y-121765200D02*
X144190858Y-121717580D01*
X145190858Y-120908057D02*
X145238477Y-120860438D01*
X145238477Y-120860438D02*
X145333715Y-120812819D01*
X145333715Y-120812819D02*
X145571810Y-120812819D01*
X145571810Y-120812819D02*
X145667048Y-120860438D01*
X145667048Y-120860438D02*
X145714667Y-120908057D01*
X145714667Y-120908057D02*
X145762286Y-121003295D01*
X145762286Y-121003295D02*
X145762286Y-121098533D01*
X145762286Y-121098533D02*
X145714667Y-121241390D01*
X145714667Y-121241390D02*
X145143239Y-121812819D01*
X145143239Y-121812819D02*
X145762286Y-121812819D01*
X146190858Y-121431866D02*
X146952763Y-121431866D01*
X147381334Y-121765200D02*
X147524191Y-121812819D01*
X147524191Y-121812819D02*
X147762286Y-121812819D01*
X147762286Y-121812819D02*
X147857524Y-121765200D01*
X147857524Y-121765200D02*
X147905143Y-121717580D01*
X147905143Y-121717580D02*
X147952762Y-121622342D01*
X147952762Y-121622342D02*
X147952762Y-121527104D01*
X147952762Y-121527104D02*
X147905143Y-121431866D01*
X147905143Y-121431866D02*
X147857524Y-121384247D01*
X147857524Y-121384247D02*
X147762286Y-121336628D01*
X147762286Y-121336628D02*
X147571810Y-121289009D01*
X147571810Y-121289009D02*
X147476572Y-121241390D01*
X147476572Y-121241390D02*
X147428953Y-121193771D01*
X147428953Y-121193771D02*
X147381334Y-121098533D01*
X147381334Y-121098533D02*
X147381334Y-121003295D01*
X147381334Y-121003295D02*
X147428953Y-120908057D01*
X147428953Y-120908057D02*
X147476572Y-120860438D01*
X147476572Y-120860438D02*
X147571810Y-120812819D01*
X147571810Y-120812819D02*
X147809905Y-120812819D01*
X147809905Y-120812819D02*
X147952762Y-120860438D01*
X148286096Y-120812819D02*
X148905143Y-120812819D01*
X148905143Y-120812819D02*
X148571810Y-121193771D01*
X148571810Y-121193771D02*
X148714667Y-121193771D01*
X148714667Y-121193771D02*
X148809905Y-121241390D01*
X148809905Y-121241390D02*
X148857524Y-121289009D01*
X148857524Y-121289009D02*
X148905143Y-121384247D01*
X148905143Y-121384247D02*
X148905143Y-121622342D01*
X148905143Y-121622342D02*
X148857524Y-121717580D01*
X148857524Y-121717580D02*
X148809905Y-121765200D01*
X148809905Y-121765200D02*
X148714667Y-121812819D01*
X148714667Y-121812819D02*
X148428953Y-121812819D01*
X148428953Y-121812819D02*
X148333715Y-121765200D01*
X148333715Y-121765200D02*
X148286096Y-121717580D01*
X149333715Y-121431866D02*
X150095620Y-121431866D01*
X150476572Y-120812819D02*
X150714667Y-121812819D01*
X150714667Y-121812819D02*
X150905143Y-121098533D01*
X150905143Y-121098533D02*
X151095619Y-121812819D01*
X151095619Y-121812819D02*
X151333715Y-120812819D01*
X152286095Y-121812819D02*
X151952762Y-121336628D01*
X151714667Y-121812819D02*
X151714667Y-120812819D01*
X151714667Y-120812819D02*
X152095619Y-120812819D01*
X152095619Y-120812819D02*
X152190857Y-120860438D01*
X152190857Y-120860438D02*
X152238476Y-120908057D01*
X152238476Y-120908057D02*
X152286095Y-121003295D01*
X152286095Y-121003295D02*
X152286095Y-121146152D01*
X152286095Y-121146152D02*
X152238476Y-121241390D01*
X152238476Y-121241390D02*
X152190857Y-121289009D01*
X152190857Y-121289009D02*
X152095619Y-121336628D01*
X152095619Y-121336628D02*
X151714667Y-121336628D01*
X152905143Y-120812819D02*
X153095619Y-120812819D01*
X153095619Y-120812819D02*
X153190857Y-120860438D01*
X153190857Y-120860438D02*
X153286095Y-120955676D01*
X153286095Y-120955676D02*
X153333714Y-121146152D01*
X153333714Y-121146152D02*
X153333714Y-121479485D01*
X153333714Y-121479485D02*
X153286095Y-121669961D01*
X153286095Y-121669961D02*
X153190857Y-121765200D01*
X153190857Y-121765200D02*
X153095619Y-121812819D01*
X153095619Y-121812819D02*
X152905143Y-121812819D01*
X152905143Y-121812819D02*
X152809905Y-121765200D01*
X152809905Y-121765200D02*
X152714667Y-121669961D01*
X152714667Y-121669961D02*
X152667048Y-121479485D01*
X152667048Y-121479485D02*
X152667048Y-121146152D01*
X152667048Y-121146152D02*
X152714667Y-120955676D01*
X152714667Y-120955676D02*
X152809905Y-120860438D01*
X152809905Y-120860438D02*
X152905143Y-120812819D01*
X153952762Y-120812819D02*
X154143238Y-120812819D01*
X154143238Y-120812819D02*
X154238476Y-120860438D01*
X154238476Y-120860438D02*
X154333714Y-120955676D01*
X154333714Y-120955676D02*
X154381333Y-121146152D01*
X154381333Y-121146152D02*
X154381333Y-121479485D01*
X154381333Y-121479485D02*
X154333714Y-121669961D01*
X154333714Y-121669961D02*
X154238476Y-121765200D01*
X154238476Y-121765200D02*
X154143238Y-121812819D01*
X154143238Y-121812819D02*
X153952762Y-121812819D01*
X153952762Y-121812819D02*
X153857524Y-121765200D01*
X153857524Y-121765200D02*
X153762286Y-121669961D01*
X153762286Y-121669961D02*
X153714667Y-121479485D01*
X153714667Y-121479485D02*
X153714667Y-121146152D01*
X153714667Y-121146152D02*
X153762286Y-120955676D01*
X153762286Y-120955676D02*
X153857524Y-120860438D01*
X153857524Y-120860438D02*
X153952762Y-120812819D01*
X154809905Y-121812819D02*
X154809905Y-120812819D01*
X154809905Y-120812819D02*
X155143238Y-121527104D01*
X155143238Y-121527104D02*
X155476571Y-120812819D01*
X155476571Y-120812819D02*
X155476571Y-121812819D01*
X155952762Y-121431866D02*
X156714667Y-121431866D01*
X157714666Y-121812819D02*
X157143238Y-121812819D01*
X157428952Y-121812819D02*
X157428952Y-120812819D01*
X157428952Y-120812819D02*
X157333714Y-120955676D01*
X157333714Y-120955676D02*
X157238476Y-121050914D01*
X157238476Y-121050914D02*
X157143238Y-121098533D01*
X144238094Y-97303104D02*
X144714284Y-97303104D01*
X144142856Y-97588819D02*
X144476189Y-96588819D01*
X144476189Y-96588819D02*
X144809522Y-97588819D01*
X145142856Y-96922152D02*
X145142856Y-97588819D01*
X145142856Y-97017390D02*
X145190475Y-96969771D01*
X145190475Y-96969771D02*
X145285713Y-96922152D01*
X145285713Y-96922152D02*
X145428570Y-96922152D01*
X145428570Y-96922152D02*
X145523808Y-96969771D01*
X145523808Y-96969771D02*
X145571427Y-97065009D01*
X145571427Y-97065009D02*
X145571427Y-97588819D01*
X145904761Y-96922152D02*
X146285713Y-96922152D01*
X146047618Y-96588819D02*
X146047618Y-97445961D01*
X146047618Y-97445961D02*
X146095237Y-97541200D01*
X146095237Y-97541200D02*
X146190475Y-97588819D01*
X146190475Y-97588819D02*
X146285713Y-97588819D01*
X146999999Y-97541200D02*
X146904761Y-97588819D01*
X146904761Y-97588819D02*
X146714285Y-97588819D01*
X146714285Y-97588819D02*
X146619047Y-97541200D01*
X146619047Y-97541200D02*
X146571428Y-97445961D01*
X146571428Y-97445961D02*
X146571428Y-97065009D01*
X146571428Y-97065009D02*
X146619047Y-96969771D01*
X146619047Y-96969771D02*
X146714285Y-96922152D01*
X146714285Y-96922152D02*
X146904761Y-96922152D01*
X146904761Y-96922152D02*
X146999999Y-96969771D01*
X146999999Y-96969771D02*
X147047618Y-97065009D01*
X147047618Y-97065009D02*
X147047618Y-97160247D01*
X147047618Y-97160247D02*
X146571428Y-97255485D01*
X147476190Y-96922152D02*
X147476190Y-97588819D01*
X147476190Y-97017390D02*
X147523809Y-96969771D01*
X147523809Y-96969771D02*
X147619047Y-96922152D01*
X147619047Y-96922152D02*
X147761904Y-96922152D01*
X147761904Y-96922152D02*
X147857142Y-96969771D01*
X147857142Y-96969771D02*
X147904761Y-97065009D01*
X147904761Y-97065009D02*
X147904761Y-97588819D01*
X148380952Y-96922152D02*
X148380952Y-97588819D01*
X148380952Y-97017390D02*
X148428571Y-96969771D01*
X148428571Y-96969771D02*
X148523809Y-96922152D01*
X148523809Y-96922152D02*
X148666666Y-96922152D01*
X148666666Y-96922152D02*
X148761904Y-96969771D01*
X148761904Y-96969771D02*
X148809523Y-97065009D01*
X148809523Y-97065009D02*
X148809523Y-97588819D01*
X149714285Y-97588819D02*
X149714285Y-97065009D01*
X149714285Y-97065009D02*
X149666666Y-96969771D01*
X149666666Y-96969771D02*
X149571428Y-96922152D01*
X149571428Y-96922152D02*
X149380952Y-96922152D01*
X149380952Y-96922152D02*
X149285714Y-96969771D01*
X149714285Y-97541200D02*
X149619047Y-97588819D01*
X149619047Y-97588819D02*
X149380952Y-97588819D01*
X149380952Y-97588819D02*
X149285714Y-97541200D01*
X149285714Y-97541200D02*
X149238095Y-97445961D01*
X149238095Y-97445961D02*
X149238095Y-97350723D01*
X149238095Y-97350723D02*
X149285714Y-97255485D01*
X149285714Y-97255485D02*
X149380952Y-97207866D01*
X149380952Y-97207866D02*
X149619047Y-97207866D01*
X149619047Y-97207866D02*
X149714285Y-97160247D01*
X150904762Y-97303104D02*
X151380952Y-97303104D01*
X150809524Y-97588819D02*
X151142857Y-96588819D01*
X151142857Y-96588819D02*
X151476190Y-97588819D01*
X151809524Y-97588819D02*
X151809524Y-96922152D01*
X151809524Y-97112628D02*
X151857143Y-97017390D01*
X151857143Y-97017390D02*
X151904762Y-96969771D01*
X151904762Y-96969771D02*
X152000000Y-96922152D01*
X152000000Y-96922152D02*
X152095238Y-96922152D01*
X152809524Y-97541200D02*
X152714286Y-97588819D01*
X152714286Y-97588819D02*
X152523810Y-97588819D01*
X152523810Y-97588819D02*
X152428572Y-97541200D01*
X152428572Y-97541200D02*
X152380953Y-97445961D01*
X152380953Y-97445961D02*
X152380953Y-97065009D01*
X152380953Y-97065009D02*
X152428572Y-96969771D01*
X152428572Y-96969771D02*
X152523810Y-96922152D01*
X152523810Y-96922152D02*
X152714286Y-96922152D01*
X152714286Y-96922152D02*
X152809524Y-96969771D01*
X152809524Y-96969771D02*
X152857143Y-97065009D01*
X152857143Y-97065009D02*
X152857143Y-97160247D01*
X152857143Y-97160247D02*
X152380953Y-97255485D01*
X153714286Y-97588819D02*
X153714286Y-97065009D01*
X153714286Y-97065009D02*
X153666667Y-96969771D01*
X153666667Y-96969771D02*
X153571429Y-96922152D01*
X153571429Y-96922152D02*
X153380953Y-96922152D01*
X153380953Y-96922152D02*
X153285715Y-96969771D01*
X153714286Y-97541200D02*
X153619048Y-97588819D01*
X153619048Y-97588819D02*
X153380953Y-97588819D01*
X153380953Y-97588819D02*
X153285715Y-97541200D01*
X153285715Y-97541200D02*
X153238096Y-97445961D01*
X153238096Y-97445961D02*
X153238096Y-97350723D01*
X153238096Y-97350723D02*
X153285715Y-97255485D01*
X153285715Y-97255485D02*
X153380953Y-97207866D01*
X153380953Y-97207866D02*
X153619048Y-97207866D01*
X153619048Y-97207866D02*
X153714286Y-97160247D01*
X69454819Y-128333333D02*
X70169104Y-128333333D01*
X70169104Y-128333333D02*
X70311961Y-128380952D01*
X70311961Y-128380952D02*
X70407200Y-128476190D01*
X70407200Y-128476190D02*
X70454819Y-128619047D01*
X70454819Y-128619047D02*
X70454819Y-128714285D01*
X69454819Y-127380952D02*
X69454819Y-127857142D01*
X69454819Y-127857142D02*
X69931009Y-127904761D01*
X69931009Y-127904761D02*
X69883390Y-127857142D01*
X69883390Y-127857142D02*
X69835771Y-127761904D01*
X69835771Y-127761904D02*
X69835771Y-127523809D01*
X69835771Y-127523809D02*
X69883390Y-127428571D01*
X69883390Y-127428571D02*
X69931009Y-127380952D01*
X69931009Y-127380952D02*
X70026247Y-127333333D01*
X70026247Y-127333333D02*
X70264342Y-127333333D01*
X70264342Y-127333333D02*
X70359580Y-127380952D01*
X70359580Y-127380952D02*
X70407200Y-127428571D01*
X70407200Y-127428571D02*
X70454819Y-127523809D01*
X70454819Y-127523809D02*
X70454819Y-127761904D01*
X70454819Y-127761904D02*
X70407200Y-127857142D01*
X70407200Y-127857142D02*
X70359580Y-127904761D01*
X80166952Y-125622819D02*
X80166952Y-124622819D01*
X80643142Y-125622819D02*
X80643142Y-124622819D01*
X80643142Y-124622819D02*
X80881237Y-124622819D01*
X80881237Y-124622819D02*
X81024094Y-124670438D01*
X81024094Y-124670438D02*
X81119332Y-124765676D01*
X81119332Y-124765676D02*
X81166951Y-124860914D01*
X81166951Y-124860914D02*
X81214570Y-125051390D01*
X81214570Y-125051390D02*
X81214570Y-125194247D01*
X81214570Y-125194247D02*
X81166951Y-125384723D01*
X81166951Y-125384723D02*
X81119332Y-125479961D01*
X81119332Y-125479961D02*
X81024094Y-125575200D01*
X81024094Y-125575200D02*
X80881237Y-125622819D01*
X80881237Y-125622819D02*
X80643142Y-125622819D01*
X82214570Y-125527580D02*
X82166951Y-125575200D01*
X82166951Y-125575200D02*
X82024094Y-125622819D01*
X82024094Y-125622819D02*
X81928856Y-125622819D01*
X81928856Y-125622819D02*
X81785999Y-125575200D01*
X81785999Y-125575200D02*
X81690761Y-125479961D01*
X81690761Y-125479961D02*
X81643142Y-125384723D01*
X81643142Y-125384723D02*
X81595523Y-125194247D01*
X81595523Y-125194247D02*
X81595523Y-125051390D01*
X81595523Y-125051390D02*
X81643142Y-124860914D01*
X81643142Y-124860914D02*
X81690761Y-124765676D01*
X81690761Y-124765676D02*
X81785999Y-124670438D01*
X81785999Y-124670438D02*
X81928856Y-124622819D01*
X81928856Y-124622819D02*
X82024094Y-124622819D01*
X82024094Y-124622819D02*
X82166951Y-124670438D01*
X82166951Y-124670438D02*
X82214570Y-124718057D01*
X83166951Y-125622819D02*
X82595523Y-125622819D01*
X82881237Y-125622819D02*
X82881237Y-124622819D01*
X82881237Y-124622819D02*
X82785999Y-124765676D01*
X82785999Y-124765676D02*
X82690761Y-124860914D01*
X82690761Y-124860914D02*
X82595523Y-124908533D01*
X84024094Y-124622819D02*
X83833618Y-124622819D01*
X83833618Y-124622819D02*
X83738380Y-124670438D01*
X83738380Y-124670438D02*
X83690761Y-124718057D01*
X83690761Y-124718057D02*
X83595523Y-124860914D01*
X83595523Y-124860914D02*
X83547904Y-125051390D01*
X83547904Y-125051390D02*
X83547904Y-125432342D01*
X83547904Y-125432342D02*
X83595523Y-125527580D01*
X83595523Y-125527580D02*
X83643142Y-125575200D01*
X83643142Y-125575200D02*
X83738380Y-125622819D01*
X83738380Y-125622819D02*
X83928856Y-125622819D01*
X83928856Y-125622819D02*
X84024094Y-125575200D01*
X84024094Y-125575200D02*
X84071713Y-125527580D01*
X84071713Y-125527580D02*
X84119332Y-125432342D01*
X84119332Y-125432342D02*
X84119332Y-125194247D01*
X84119332Y-125194247D02*
X84071713Y-125099009D01*
X84071713Y-125099009D02*
X84024094Y-125051390D01*
X84024094Y-125051390D02*
X83928856Y-125003771D01*
X83928856Y-125003771D02*
X83738380Y-125003771D01*
X83738380Y-125003771D02*
X83643142Y-125051390D01*
X83643142Y-125051390D02*
X83595523Y-125099009D01*
X83595523Y-125099009D02*
X83547904Y-125194247D01*
X84309809Y-125718057D02*
X85071713Y-125718057D01*
X85166952Y-124622819D02*
X85500285Y-125622819D01*
X85500285Y-125622819D02*
X85833618Y-124622819D01*
X86690761Y-124670438D02*
X86595523Y-124622819D01*
X86595523Y-124622819D02*
X86452666Y-124622819D01*
X86452666Y-124622819D02*
X86309809Y-124670438D01*
X86309809Y-124670438D02*
X86214571Y-124765676D01*
X86214571Y-124765676D02*
X86166952Y-124860914D01*
X86166952Y-124860914D02*
X86119333Y-125051390D01*
X86119333Y-125051390D02*
X86119333Y-125194247D01*
X86119333Y-125194247D02*
X86166952Y-125384723D01*
X86166952Y-125384723D02*
X86214571Y-125479961D01*
X86214571Y-125479961D02*
X86309809Y-125575200D01*
X86309809Y-125575200D02*
X86452666Y-125622819D01*
X86452666Y-125622819D02*
X86547904Y-125622819D01*
X86547904Y-125622819D02*
X86690761Y-125575200D01*
X86690761Y-125575200D02*
X86738380Y-125527580D01*
X86738380Y-125527580D02*
X86738380Y-125194247D01*
X86738380Y-125194247D02*
X86547904Y-125194247D01*
X87119333Y-125337104D02*
X87595523Y-125337104D01*
X87024095Y-125622819D02*
X87357428Y-124622819D01*
X87357428Y-124622819D02*
X87690761Y-125622819D01*
X88214571Y-124622819D02*
X88405047Y-124622819D01*
X88405047Y-124622819D02*
X88500285Y-124670438D01*
X88500285Y-124670438D02*
X88595523Y-124765676D01*
X88595523Y-124765676D02*
X88643142Y-124956152D01*
X88643142Y-124956152D02*
X88643142Y-125289485D01*
X88643142Y-125289485D02*
X88595523Y-125479961D01*
X88595523Y-125479961D02*
X88500285Y-125575200D01*
X88500285Y-125575200D02*
X88405047Y-125622819D01*
X88405047Y-125622819D02*
X88214571Y-125622819D01*
X88214571Y-125622819D02*
X88119333Y-125575200D01*
X88119333Y-125575200D02*
X88024095Y-125479961D01*
X88024095Y-125479961D02*
X87976476Y-125289485D01*
X87976476Y-125289485D02*
X87976476Y-124956152D01*
X87976476Y-124956152D02*
X88024095Y-124765676D01*
X88024095Y-124765676D02*
X88119333Y-124670438D01*
X88119333Y-124670438D02*
X88214571Y-124622819D01*
X89071714Y-124622819D02*
X89071714Y-125432342D01*
X89071714Y-125432342D02*
X89119333Y-125527580D01*
X89119333Y-125527580D02*
X89166952Y-125575200D01*
X89166952Y-125575200D02*
X89262190Y-125622819D01*
X89262190Y-125622819D02*
X89452666Y-125622819D01*
X89452666Y-125622819D02*
X89547904Y-125575200D01*
X89547904Y-125575200D02*
X89595523Y-125527580D01*
X89595523Y-125527580D02*
X89643142Y-125432342D01*
X89643142Y-125432342D02*
X89643142Y-124622819D01*
X89976476Y-124622819D02*
X90547904Y-124622819D01*
X90262190Y-125622819D02*
X90262190Y-124622819D01*
X95112666Y-114462819D02*
X95112666Y-115177104D01*
X95112666Y-115177104D02*
X95065047Y-115319961D01*
X95065047Y-115319961D02*
X94969809Y-115415200D01*
X94969809Y-115415200D02*
X94826952Y-115462819D01*
X94826952Y-115462819D02*
X94731714Y-115462819D01*
X95541238Y-114558057D02*
X95588857Y-114510438D01*
X95588857Y-114510438D02*
X95684095Y-114462819D01*
X95684095Y-114462819D02*
X95922190Y-114462819D01*
X95922190Y-114462819D02*
X96017428Y-114510438D01*
X96017428Y-114510438D02*
X96065047Y-114558057D01*
X96065047Y-114558057D02*
X96112666Y-114653295D01*
X96112666Y-114653295D02*
X96112666Y-114748533D01*
X96112666Y-114748533D02*
X96065047Y-114891390D01*
X96065047Y-114891390D02*
X95493619Y-115462819D01*
X95493619Y-115462819D02*
X96112666Y-115462819D01*
X74975524Y-116748819D02*
X75308857Y-117748819D01*
X75308857Y-117748819D02*
X75642190Y-116748819D01*
X76499333Y-116796438D02*
X76404095Y-116748819D01*
X76404095Y-116748819D02*
X76261238Y-116748819D01*
X76261238Y-116748819D02*
X76118381Y-116796438D01*
X76118381Y-116796438D02*
X76023143Y-116891676D01*
X76023143Y-116891676D02*
X75975524Y-116986914D01*
X75975524Y-116986914D02*
X75927905Y-117177390D01*
X75927905Y-117177390D02*
X75927905Y-117320247D01*
X75927905Y-117320247D02*
X75975524Y-117510723D01*
X75975524Y-117510723D02*
X76023143Y-117605961D01*
X76023143Y-117605961D02*
X76118381Y-117701200D01*
X76118381Y-117701200D02*
X76261238Y-117748819D01*
X76261238Y-117748819D02*
X76356476Y-117748819D01*
X76356476Y-117748819D02*
X76499333Y-117701200D01*
X76499333Y-117701200D02*
X76546952Y-117653580D01*
X76546952Y-117653580D02*
X76546952Y-117320247D01*
X76546952Y-117320247D02*
X76356476Y-117320247D01*
X76927905Y-117463104D02*
X77404095Y-117463104D01*
X76832667Y-117748819D02*
X77166000Y-116748819D01*
X77166000Y-116748819D02*
X77499333Y-117748819D01*
X78023143Y-116748819D02*
X78213619Y-116748819D01*
X78213619Y-116748819D02*
X78308857Y-116796438D01*
X78308857Y-116796438D02*
X78404095Y-116891676D01*
X78404095Y-116891676D02*
X78451714Y-117082152D01*
X78451714Y-117082152D02*
X78451714Y-117415485D01*
X78451714Y-117415485D02*
X78404095Y-117605961D01*
X78404095Y-117605961D02*
X78308857Y-117701200D01*
X78308857Y-117701200D02*
X78213619Y-117748819D01*
X78213619Y-117748819D02*
X78023143Y-117748819D01*
X78023143Y-117748819D02*
X77927905Y-117701200D01*
X77927905Y-117701200D02*
X77832667Y-117605961D01*
X77832667Y-117605961D02*
X77785048Y-117415485D01*
X77785048Y-117415485D02*
X77785048Y-117082152D01*
X77785048Y-117082152D02*
X77832667Y-116891676D01*
X77832667Y-116891676D02*
X77927905Y-116796438D01*
X77927905Y-116796438D02*
X78023143Y-116748819D01*
X78880286Y-116748819D02*
X78880286Y-117558342D01*
X78880286Y-117558342D02*
X78927905Y-117653580D01*
X78927905Y-117653580D02*
X78975524Y-117701200D01*
X78975524Y-117701200D02*
X79070762Y-117748819D01*
X79070762Y-117748819D02*
X79261238Y-117748819D01*
X79261238Y-117748819D02*
X79356476Y-117701200D01*
X79356476Y-117701200D02*
X79404095Y-117653580D01*
X79404095Y-117653580D02*
X79451714Y-117558342D01*
X79451714Y-117558342D02*
X79451714Y-116748819D01*
X79785048Y-116748819D02*
X80356476Y-116748819D01*
X80070762Y-117748819D02*
X80070762Y-116748819D01*
X123661905Y-131614819D02*
X123661905Y-130614819D01*
X123661905Y-130614819D02*
X123900000Y-130614819D01*
X123900000Y-130614819D02*
X124042857Y-130662438D01*
X124042857Y-130662438D02*
X124138095Y-130757676D01*
X124138095Y-130757676D02*
X124185714Y-130852914D01*
X124185714Y-130852914D02*
X124233333Y-131043390D01*
X124233333Y-131043390D02*
X124233333Y-131186247D01*
X124233333Y-131186247D02*
X124185714Y-131376723D01*
X124185714Y-131376723D02*
X124138095Y-131471961D01*
X124138095Y-131471961D02*
X124042857Y-131567200D01*
X124042857Y-131567200D02*
X123900000Y-131614819D01*
X123900000Y-131614819D02*
X123661905Y-131614819D01*
X125090476Y-130948152D02*
X125090476Y-131614819D01*
X124852381Y-130567200D02*
X124614286Y-131281485D01*
X124614286Y-131281485D02*
X125233333Y-131281485D01*
X131823809Y-131667200D02*
X131966666Y-131714819D01*
X131966666Y-131714819D02*
X132204761Y-131714819D01*
X132204761Y-131714819D02*
X132299999Y-131667200D01*
X132299999Y-131667200D02*
X132347618Y-131619580D01*
X132347618Y-131619580D02*
X132395237Y-131524342D01*
X132395237Y-131524342D02*
X132395237Y-131429104D01*
X132395237Y-131429104D02*
X132347618Y-131333866D01*
X132347618Y-131333866D02*
X132299999Y-131286247D01*
X132299999Y-131286247D02*
X132204761Y-131238628D01*
X132204761Y-131238628D02*
X132014285Y-131191009D01*
X132014285Y-131191009D02*
X131919047Y-131143390D01*
X131919047Y-131143390D02*
X131871428Y-131095771D01*
X131871428Y-131095771D02*
X131823809Y-131000533D01*
X131823809Y-131000533D02*
X131823809Y-130905295D01*
X131823809Y-130905295D02*
X131871428Y-130810057D01*
X131871428Y-130810057D02*
X131919047Y-130762438D01*
X131919047Y-130762438D02*
X132014285Y-130714819D01*
X132014285Y-130714819D02*
X132252380Y-130714819D01*
X132252380Y-130714819D02*
X132395237Y-130762438D01*
X132680952Y-130714819D02*
X133252380Y-130714819D01*
X132966666Y-131714819D02*
X132966666Y-130714819D01*
X133538095Y-131429104D02*
X134014285Y-131429104D01*
X133442857Y-131714819D02*
X133776190Y-130714819D01*
X133776190Y-130714819D02*
X134109523Y-131714819D01*
X134300000Y-130714819D02*
X134871428Y-130714819D01*
X134585714Y-131714819D02*
X134585714Y-130714819D01*
X123661905Y-134154819D02*
X123661905Y-133154819D01*
X123661905Y-133154819D02*
X123900000Y-133154819D01*
X123900000Y-133154819D02*
X124042857Y-133202438D01*
X124042857Y-133202438D02*
X124138095Y-133297676D01*
X124138095Y-133297676D02*
X124185714Y-133392914D01*
X124185714Y-133392914D02*
X124233333Y-133583390D01*
X124233333Y-133583390D02*
X124233333Y-133726247D01*
X124233333Y-133726247D02*
X124185714Y-133916723D01*
X124185714Y-133916723D02*
X124138095Y-134011961D01*
X124138095Y-134011961D02*
X124042857Y-134107200D01*
X124042857Y-134107200D02*
X123900000Y-134154819D01*
X123900000Y-134154819D02*
X123661905Y-134154819D01*
X124566667Y-133154819D02*
X125185714Y-133154819D01*
X125185714Y-133154819D02*
X124852381Y-133535771D01*
X124852381Y-133535771D02*
X124995238Y-133535771D01*
X124995238Y-133535771D02*
X125090476Y-133583390D01*
X125090476Y-133583390D02*
X125138095Y-133631009D01*
X125138095Y-133631009D02*
X125185714Y-133726247D01*
X125185714Y-133726247D02*
X125185714Y-133964342D01*
X125185714Y-133964342D02*
X125138095Y-134059580D01*
X125138095Y-134059580D02*
X125090476Y-134107200D01*
X125090476Y-134107200D02*
X124995238Y-134154819D01*
X124995238Y-134154819D02*
X124709524Y-134154819D01*
X124709524Y-134154819D02*
X124614286Y-134107200D01*
X124614286Y-134107200D02*
X124566667Y-134059580D01*
X131761905Y-134207200D02*
X131904762Y-134254819D01*
X131904762Y-134254819D02*
X132142857Y-134254819D01*
X132142857Y-134254819D02*
X132238095Y-134207200D01*
X132238095Y-134207200D02*
X132285714Y-134159580D01*
X132285714Y-134159580D02*
X132333333Y-134064342D01*
X132333333Y-134064342D02*
X132333333Y-133969104D01*
X132333333Y-133969104D02*
X132285714Y-133873866D01*
X132285714Y-133873866D02*
X132238095Y-133826247D01*
X132238095Y-133826247D02*
X132142857Y-133778628D01*
X132142857Y-133778628D02*
X131952381Y-133731009D01*
X131952381Y-133731009D02*
X131857143Y-133683390D01*
X131857143Y-133683390D02*
X131809524Y-133635771D01*
X131809524Y-133635771D02*
X131761905Y-133540533D01*
X131761905Y-133540533D02*
X131761905Y-133445295D01*
X131761905Y-133445295D02*
X131809524Y-133350057D01*
X131809524Y-133350057D02*
X131857143Y-133302438D01*
X131857143Y-133302438D02*
X131952381Y-133254819D01*
X131952381Y-133254819D02*
X132190476Y-133254819D01*
X132190476Y-133254819D02*
X132333333Y-133302438D01*
X132952381Y-133778628D02*
X132952381Y-134254819D01*
X132619048Y-133254819D02*
X132952381Y-133778628D01*
X132952381Y-133778628D02*
X133285714Y-133254819D01*
X133619048Y-134254819D02*
X133619048Y-133254819D01*
X133619048Y-133254819D02*
X134190476Y-134254819D01*
X134190476Y-134254819D02*
X134190476Y-133254819D01*
X135238095Y-134159580D02*
X135190476Y-134207200D01*
X135190476Y-134207200D02*
X135047619Y-134254819D01*
X135047619Y-134254819D02*
X134952381Y-134254819D01*
X134952381Y-134254819D02*
X134809524Y-134207200D01*
X134809524Y-134207200D02*
X134714286Y-134111961D01*
X134714286Y-134111961D02*
X134666667Y-134016723D01*
X134666667Y-134016723D02*
X134619048Y-133826247D01*
X134619048Y-133826247D02*
X134619048Y-133683390D01*
X134619048Y-133683390D02*
X134666667Y-133492914D01*
X134666667Y-133492914D02*
X134714286Y-133397676D01*
X134714286Y-133397676D02*
X134809524Y-133302438D01*
X134809524Y-133302438D02*
X134952381Y-133254819D01*
X134952381Y-133254819D02*
X135047619Y-133254819D01*
X135047619Y-133254819D02*
X135190476Y-133302438D01*
X135190476Y-133302438D02*
X135238095Y-133350057D01*
X127301580Y-115428666D02*
X127349200Y-115476285D01*
X127349200Y-115476285D02*
X127396819Y-115619142D01*
X127396819Y-115619142D02*
X127396819Y-115714380D01*
X127396819Y-115714380D02*
X127349200Y-115857237D01*
X127349200Y-115857237D02*
X127253961Y-115952475D01*
X127253961Y-115952475D02*
X127158723Y-116000094D01*
X127158723Y-116000094D02*
X126968247Y-116047713D01*
X126968247Y-116047713D02*
X126825390Y-116047713D01*
X126825390Y-116047713D02*
X126634914Y-116000094D01*
X126634914Y-116000094D02*
X126539676Y-115952475D01*
X126539676Y-115952475D02*
X126444438Y-115857237D01*
X126444438Y-115857237D02*
X126396819Y-115714380D01*
X126396819Y-115714380D02*
X126396819Y-115619142D01*
X126396819Y-115619142D02*
X126444438Y-115476285D01*
X126444438Y-115476285D02*
X126492057Y-115428666D01*
X127396819Y-114476285D02*
X127396819Y-115047713D01*
X127396819Y-114761999D02*
X126396819Y-114761999D01*
X126396819Y-114761999D02*
X126539676Y-114857237D01*
X126539676Y-114857237D02*
X126634914Y-114952475D01*
X126634914Y-114952475D02*
X126682533Y-115047713D01*
X126386476Y-105144152D02*
X126386476Y-105810819D01*
X126148381Y-104763200D02*
X125910286Y-105477485D01*
X125910286Y-105477485D02*
X126529333Y-105477485D01*
X126815048Y-104810819D02*
X127481714Y-104810819D01*
X127481714Y-104810819D02*
X127053143Y-105810819D01*
X127862667Y-105144152D02*
X127862667Y-106144152D01*
X128338857Y-105667961D02*
X128386476Y-105763200D01*
X128386476Y-105763200D02*
X128481714Y-105810819D01*
X127862667Y-105667961D02*
X127910286Y-105763200D01*
X127910286Y-105763200D02*
X128005524Y-105810819D01*
X128005524Y-105810819D02*
X128196000Y-105810819D01*
X128196000Y-105810819D02*
X128291238Y-105763200D01*
X128291238Y-105763200D02*
X128338857Y-105667961D01*
X128338857Y-105667961D02*
X128338857Y-105144152D01*
X160144666Y-107140819D02*
X160144666Y-107855104D01*
X160144666Y-107855104D02*
X160097047Y-107997961D01*
X160097047Y-107997961D02*
X160001809Y-108093200D01*
X160001809Y-108093200D02*
X159858952Y-108140819D01*
X159858952Y-108140819D02*
X159763714Y-108140819D01*
X160620857Y-108140819D02*
X160620857Y-107140819D01*
X160620857Y-107140819D02*
X161001809Y-107140819D01*
X161001809Y-107140819D02*
X161097047Y-107188438D01*
X161097047Y-107188438D02*
X161144666Y-107236057D01*
X161144666Y-107236057D02*
X161192285Y-107331295D01*
X161192285Y-107331295D02*
X161192285Y-107474152D01*
X161192285Y-107474152D02*
X161144666Y-107569390D01*
X161144666Y-107569390D02*
X161097047Y-107617009D01*
X161097047Y-107617009D02*
X161001809Y-107664628D01*
X161001809Y-107664628D02*
X160620857Y-107664628D01*
X162144666Y-108140819D02*
X161573238Y-108140819D01*
X161858952Y-108140819D02*
X161858952Y-107140819D01*
X161858952Y-107140819D02*
X161763714Y-107283676D01*
X161763714Y-107283676D02*
X161668476Y-107378914D01*
X161668476Y-107378914D02*
X161573238Y-107426533D01*
D12*
%TO.C,J6*%
X107796000Y-103737000D02*
X107796000Y-105437000D01*
X117136000Y-103737000D02*
X117136000Y-105437000D01*
%TO.C,C2*%
X122155000Y-108153000D02*
X122155000Y-112538000D01*
X122155000Y-112538000D02*
X125175000Y-112538000D01*
X125175000Y-112538000D02*
X125175000Y-108153000D01*
%TO.C,D2*%
X126852500Y-127485000D02*
X126852500Y-129755000D01*
X126852500Y-129755000D02*
X130912500Y-129755000D01*
X130912500Y-127485000D02*
X126852500Y-127485000D01*
%TO.C,J7*%
X143730000Y-132770000D02*
X143730000Y-135430000D01*
X159030000Y-132770000D02*
X143730000Y-132770000D01*
X159030000Y-132770000D02*
X159030000Y-135430000D01*
X159030000Y-135430000D02*
X143730000Y-135430000D01*
X160300000Y-132770000D02*
X161630000Y-132770000D01*
X161630000Y-132770000D02*
X161630000Y-134100000D01*
%TO.C,SW1*%
X135420000Y-127545000D02*
X135450000Y-127545000D01*
X135420000Y-134005000D02*
X135420000Y-127545000D01*
X135450000Y-134005000D02*
X135420000Y-134005000D01*
X137350000Y-127545000D02*
X139950000Y-127545000D01*
X137350000Y-134005000D02*
X139950000Y-134005000D01*
X141880000Y-127545000D02*
X141850000Y-127545000D01*
X141880000Y-134005000D02*
X141850000Y-134005000D01*
X141880000Y-134005000D02*
X141880000Y-127545000D01*
%TO.C,J1*%
X102462500Y-126170000D02*
X123042500Y-126170000D01*
X102462500Y-135290000D02*
X102462500Y-126170000D01*
X103762500Y-127480000D02*
X121742500Y-127480000D01*
X103762500Y-133980000D02*
X103762500Y-127480000D01*
X107172500Y-136680000D02*
X108172500Y-136680000D01*
X107672500Y-135680000D02*
X107172500Y-136680000D01*
X108172500Y-136680000D02*
X107672500Y-135680000D01*
X110702500Y-133980000D02*
X103762500Y-133980000D01*
X110702500Y-135290000D02*
X110702500Y-133980000D01*
X114802500Y-133980000D02*
X114802500Y-133980000D01*
X114802500Y-133980000D02*
X114802500Y-135290000D01*
X121742500Y-127480000D02*
X121742500Y-133980000D01*
X121742500Y-133980000D02*
X114802500Y-133980000D01*
X123042500Y-126170000D02*
X123042500Y-135290000D01*
X123042500Y-135290000D02*
X102462500Y-135290000D01*
%TO.C,J3*%
X106354000Y-100175500D02*
X106354000Y-108145500D01*
X106354000Y-116795500D02*
X106354000Y-113045500D01*
X110714000Y-117495500D02*
X111714000Y-117495500D01*
X111214000Y-116995500D02*
X110714000Y-117495500D01*
X111714000Y-117495500D02*
X111214000Y-116995500D01*
X118574000Y-100175500D02*
X106354000Y-100175500D01*
X118574000Y-100175500D02*
X118574000Y-108145500D01*
X118574000Y-116795500D02*
X106354000Y-116795500D01*
X118574000Y-116795500D02*
X118574000Y-113045500D01*
%TO.C,U2*%
X140000000Y-94134000D02*
X140000000Y-100884000D01*
X140000000Y-94134000D02*
X158000000Y-94134000D01*
X140000000Y-118884000D02*
X140000000Y-119634000D01*
X140000000Y-119634000D02*
X141000000Y-119634000D01*
X158000000Y-94134000D02*
X158000000Y-100884000D01*
X158000000Y-100074000D02*
X140000000Y-100074000D01*
X158000000Y-118884000D02*
X158000000Y-119634000D01*
X158000000Y-119634000D02*
X157000000Y-119634000D01*
%TO.C,J5*%
X71170000Y-126210000D02*
X99370000Y-126210000D01*
X71170000Y-135330000D02*
X71170000Y-126210000D01*
X72470000Y-127520000D02*
X98070000Y-127520000D01*
X72470000Y-134020000D02*
X72470000Y-127520000D01*
X75880000Y-136720000D02*
X76880000Y-136720000D01*
X76380000Y-135720000D02*
X75880000Y-136720000D01*
X76880000Y-136720000D02*
X76380000Y-135720000D01*
X83220000Y-134020000D02*
X72470000Y-134020000D01*
X83220000Y-135330000D02*
X83220000Y-134020000D01*
X87320000Y-134020000D02*
X87320000Y-134020000D01*
X87320000Y-134020000D02*
X87320000Y-135330000D01*
X98070000Y-127520000D02*
X98070000Y-134020000D01*
X98070000Y-134020000D02*
X87320000Y-134020000D01*
X99370000Y-126210000D02*
X99370000Y-135330000D01*
X99370000Y-135330000D02*
X71170000Y-135330000D01*
D13*
%TO.C,J2*%
X70600000Y-100070000D02*
X101400000Y-100070000D01*
X70600000Y-116070000D02*
X70600000Y-100070000D01*
X101400000Y-100070000D02*
X101400000Y-116070000D01*
X101400000Y-116070000D02*
X70600000Y-116070000D01*
D14*
X81145000Y-117031000D02*
G75*
G02*
X80745000Y-117031000I-200000J0D01*
G01*
X80745000Y-117031000D02*
G75*
G02*
X81145000Y-117031000I200000J0D01*
G01*
D12*
%TO.C,D4*%
X126852500Y-130025000D02*
X126852500Y-132295000D01*
X126852500Y-132295000D02*
X130912500Y-132295000D01*
X130912500Y-130025000D02*
X126852500Y-130025000D01*
%TO.C,D3*%
X126852500Y-132565000D02*
X126852500Y-134835000D01*
X126852500Y-134835000D02*
X130912500Y-134835000D01*
X130912500Y-132565000D02*
X126852500Y-132565000D01*
%TO.C,C1*%
X125661000Y-108153000D02*
X125661000Y-112538000D01*
X125661000Y-112538000D02*
X128681000Y-112538000D01*
X128681000Y-112538000D02*
X128681000Y-108153000D01*
%TO.C,JP1*%
X159648000Y-104086000D02*
X159648000Y-101486000D01*
X162308000Y-101486000D02*
X159648000Y-101486000D01*
X162308000Y-104086000D02*
X159648000Y-104086000D01*
X162308000Y-104086000D02*
X162308000Y-101486000D01*
X162308000Y-105356000D02*
X162308000Y-106686000D01*
X162308000Y-106686000D02*
X160978000Y-106686000D01*
%TD*%
M02*
