M48
; DRILL file {KiCad 9.0.0} date 2025-03-02T13:03:49+0100
; FORMAT={-:-/ absolute / inch / decimal}
; #@! TF.CreationDate,2025-03-02T13:03:49+01:00
; #@! TF.GenerationSoftware,Kicad,Pcbnew,9.0.0
; #@! TF.FileFunction,Plated,1,2,PTH
FMAT,2
INCH
; #@! TA.AperFunction,Plated,PTH,ViaDrill
T1C0.0157
; #@! TA.AperFunction,Plated,PTH,ComponentDrill
T2C0.0236
; #@! TA.AperFunction,Plated,PTH,ComponentDrill
T3C0.0374
; #@! TA.AperFunction,Plated,PTH,ComponentDrill
T4C0.0394
; #@! TA.AperFunction,Plated,PTH,ComponentDrill
T5C0.0469
; #@! TA.AperFunction,Plated,PTH,ComponentDrill
T6C0.0906
; #@! TA.AperFunction,Plated,PTH,ComponentDrill
T7C0.1252
; #@! TA.AperFunction,Plated,PTH,ComponentDrill
T8C0.1260
%
G90
G05
T1
X2.706Y-4.886
X2.706Y-5.608
X2.7077Y-4.7379
X2.936Y-4.739
X2.98Y-4.886
X2.98Y-5.212
X3.0077Y-4.0979
X3.132Y-4.546
X3.144Y-4.786
X3.22Y-4.638
X3.278Y-4.598
X3.314Y-4.632
X3.372Y-4.094
X3.474Y-5.128
X3.538Y-4.98
X3.538Y-5.052
X3.54Y-4.91
X3.614Y-4.392
X3.66Y-4.7
X3.914Y-5.106
X3.942Y-4.184
X3.95Y-4.878
X3.95Y-4.9515
X3.9577Y-5.1779
X4.0377Y-4.6079
X4.176Y-5.414
X4.2047Y-4.189
X4.35Y-5.218
X4.4331Y-4.0118
X4.469Y-5.152
X4.5354Y-4.2717
X4.708Y-4.192
X4.818Y-5.414
X4.84Y-5.018
X4.844Y-4.934
X4.844Y-5.117
X4.8898Y-4.664
X5.12Y-4.696
X5.152Y-5.414
X5.198Y-4.192
X5.206Y-5.02
X5.206Y-5.122
X5.26Y-5.514
X5.272Y-4.8015
X5.312Y-4.83
X5.352Y-4.862
X5.356Y-5.514
X5.368Y-4.166
X5.368Y-4.232
X5.372Y-4.286
X5.448Y-4.908
X5.576Y-5.056
X5.584Y-4.602
X5.591Y-4.89
X5.594Y-4.156
X5.594Y-4.21
X5.594Y-4.256
X5.606Y-4.85
X5.608Y-5.086
X5.622Y-4.568
X5.642Y-5.202
X5.654Y-4.352
X5.6555Y-4.4028
X5.684Y-4.126
X5.71Y-4.87
X5.71Y-5.022
X5.718Y-4.094
X5.792Y-5.016
X5.8Y-5.414
X5.842Y-5.064
X5.892Y-4.918
X5.924Y-5.202
X5.942Y-4.972
X5.9488Y-4.3622
X5.964Y-5.45
X5.9877Y-4.0979
X5.99Y-5.154
X6.04Y-4.882
X6.044Y-5.164
X6.052Y-5.324
X6.06Y-4.616
X6.078Y-5.448
X6.09Y-5.118
X6.14Y-5.218
X6.1417Y-3.9961
X6.216Y-4.868
X6.216Y-5.45
X6.264Y-4.404
X6.266Y-4.654
X6.28Y-5.254
X6.3219Y-5.52
X6.36Y-5.53
X6.374Y-5.5748
X6.39Y-5.482
X6.3908Y-4.4057
X6.434Y-5.326
X6.6811Y-4.0315
T3
X4.3785Y-4.4664
X4.3785Y-4.5451
X4.4769Y-4.4664
X4.4769Y-4.5451
T4
X2.642Y-4.408
X2.642Y-4.508
X2.9976Y-5.3134
X2.9976Y-5.4134
X3.0976Y-5.3134
X3.0976Y-5.4134
X3.1976Y-5.3134
X3.1976Y-5.4134
X3.2976Y-5.3134
X3.2976Y-5.4134
X3.3976Y-5.3134
X3.3976Y-5.4134
X3.4976Y-5.3134
X3.4976Y-5.4134
X3.5976Y-5.3134
X3.5976Y-5.4134
X3.6976Y-5.3134
X3.6976Y-5.4134
X4.2992Y-5.3134
X4.2992Y-5.4134
X4.3992Y-5.3134
X4.3992Y-5.4134
X4.4992Y-5.3134
X4.4992Y-5.4134
X4.5Y-4.69
X4.5992Y-5.3134
X4.5992Y-5.4134
X4.6Y-4.69
X4.6992Y-5.3134
X4.6992Y-5.4134
X4.7Y-4.69
X5.3031Y-5.3134
X5.3031Y-5.4134
X5.4031Y-5.3134
X5.4031Y-5.4134
X5.5031Y-5.3134
X5.5031Y-5.4134
X5.6031Y-5.3134
X5.6031Y-5.4134
X5.7031Y-5.3134
X5.7031Y-5.4134
X6.4892Y-4.7362
X6.4931Y-4.9173
X6.4931Y-5.0173
X6.4931Y-5.1173
X6.4931Y-5.2173
X6.5892Y-4.7362
X6.5931Y-4.9173
X6.5931Y-5.0173
X6.5931Y-5.1173
X6.5931Y-5.2173
T5
X3.1711Y-4.3898
X3.2159Y-4.2898
X3.2159Y-4.4898
X3.2608Y-4.3898
X3.3057Y-4.2898
X3.3057Y-4.4898
X3.3506Y-4.3898
X3.3955Y-4.2898
X3.3955Y-4.4898
X3.4404Y-4.3898
X3.4852Y-4.2898
X3.4852Y-4.4898
X3.5301Y-4.3898
X3.575Y-4.2898
X3.575Y-4.4898
T6
X4.1915Y-4.3538
X4.6639Y-4.3538
T7
X2.8937Y-4.3898
X3.878Y-4.3898
T8
X2.5984Y-4.1732
X2.5984Y-5.4724
X6.5354Y-4.1732
X6.5354Y-5.4724
T2
G00X4.2577Y-4.0536
M15
G01X4.2577Y-4.0221
M16
G05
G00X4.2577Y-4.2241
M15
G01X4.2577Y-4.1808
M16
G05
G00X4.5979Y-4.0536
M15
G01X4.5979Y-4.0221
M16
G05
G00X4.5979Y-4.2241
M15
G01X4.5979Y-4.1808
M16
G05
M30
