%TF.GenerationSoftware,KiCad,Pcbnew,9.0.0*%
%TF.CreationDate,2025-03-17T19:21:59+01:00*%
%TF.ProjectId,pc1715-esp32vga,70633137-3135-42d6-9573-703332766761,2*%
%TF.SameCoordinates,Original*%
%TF.FileFunction,Copper,L2,Bot*%
%TF.FilePolarity,Positive*%
%FSLAX46Y46*%
G04 Gerber Fmt 4.6, Leading zero omitted, Abs format (unit mm)*
G04 Created by KiCad (PCBNEW 9.0.0) date 2025-03-17 19:21:59*
%MOMM*%
%LPD*%
G01*
G04 APERTURE LIST*
G04 Aperture macros list*
%AMRoundRect*
0 Rectangle with rounded corners*
0 $1 Rounding radius*
0 $2 $3 $4 $5 $6 $7 $8 $9 X,Y pos of 4 corners*
0 Add a 4 corners polygon primitive as box body*
4,1,4,$2,$3,$4,$5,$6,$7,$8,$9,$2,$3,0*
0 Add four circle primitives for the rounded corners*
1,1,$1+$1,$2,$3*
1,1,$1+$1,$4,$5*
1,1,$1+$1,$6,$7*
1,1,$1+$1,$8,$9*
0 Add four rect primitives between the rounded corners*
20,1,$1+$1,$2,$3,$4,$5,0*
20,1,$1+$1,$4,$5,$6,$7,0*
20,1,$1+$1,$6,$7,$8,$9,0*
20,1,$1+$1,$8,$9,$2,$3,0*%
%AMFreePoly0*
4,1,23,0.550000,-0.750000,0.000000,-0.750000,0.000000,-0.745722,-0.065263,-0.745722,-0.191342,-0.711940,-0.304381,-0.646677,-0.396677,-0.554381,-0.461940,-0.441342,-0.495722,-0.315263,-0.495722,-0.250000,-0.500000,-0.250000,-0.500000,0.250000,-0.495722,0.250000,-0.495722,0.315263,-0.461940,0.441342,-0.396677,0.554381,-0.304381,0.646677,-0.191342,0.711940,-0.065263,0.745722,0.000000,0.745722,
0.000000,0.750000,0.550000,0.750000,0.550000,-0.750000,0.550000,-0.750000,$1*%
%AMFreePoly1*
4,1,23,0.000000,0.745722,0.065263,0.745722,0.191342,0.711940,0.304381,0.646677,0.396677,0.554381,0.461940,0.441342,0.495722,0.315263,0.495722,0.250000,0.500000,0.250000,0.500000,-0.250000,0.495722,-0.250000,0.495722,-0.315263,0.461940,-0.441342,0.396677,-0.554381,0.304381,-0.646677,0.191342,-0.711940,0.065263,-0.745722,0.000000,-0.745722,0.000000,-0.750000,-0.550000,-0.750000,
-0.550000,0.750000,0.000000,0.750000,0.000000,0.745722,0.000000,0.745722,$1*%
G04 Aperture macros list end*
%TA.AperFunction,ComponentPad*%
%ADD10O,1.000000X2.100000*%
%TD*%
%TA.AperFunction,ComponentPad*%
%ADD11O,1.000000X1.800000*%
%TD*%
%TA.AperFunction,ComponentPad*%
%ADD12C,5.700000*%
%TD*%
%TA.AperFunction,ComponentPad*%
%ADD13RoundRect,0.250000X0.600000X-0.600000X0.600000X0.600000X-0.600000X0.600000X-0.600000X-0.600000X0*%
%TD*%
%TA.AperFunction,ComponentPad*%
%ADD14C,1.700000*%
%TD*%
%TA.AperFunction,ComponentPad*%
%ADD15R,1.600000X1.600000*%
%TD*%
%TA.AperFunction,ComponentPad*%
%ADD16C,1.600000*%
%TD*%
%TA.AperFunction,ComponentPad*%
%ADD17C,4.000000*%
%TD*%
%TA.AperFunction,ComponentPad*%
%ADD18R,1.700000X1.700000*%
%TD*%
%TA.AperFunction,ComponentPad*%
%ADD19O,1.700000X1.700000*%
%TD*%
%TA.AperFunction,ComponentPad*%
%ADD20C,4.196000*%
%TD*%
%TA.AperFunction,ComponentPad*%
%ADD21R,1.785000X1.785000*%
%TD*%
%TA.AperFunction,ComponentPad*%
%ADD22C,1.785000*%
%TD*%
%TA.AperFunction,SMDPad,CuDef*%
%ADD23FreePoly0,0.000000*%
%TD*%
%TA.AperFunction,SMDPad,CuDef*%
%ADD24R,1.000000X1.500000*%
%TD*%
%TA.AperFunction,SMDPad,CuDef*%
%ADD25FreePoly1,0.000000*%
%TD*%
%TA.AperFunction,ViaPad*%
%ADD26C,0.800000*%
%TD*%
%TA.AperFunction,Conductor*%
%ADD27C,0.250000*%
%TD*%
%TA.AperFunction,Conductor*%
%ADD28C,0.500000*%
%TD*%
%TA.AperFunction,Conductor*%
%ADD29C,0.200000*%
%TD*%
G04 APERTURE END LIST*
D10*
%TO.P,J6,S1,SHIELD*%
%TO.N,GND*%
X116786000Y-106742000D03*
D11*
X116786000Y-102562000D03*
D10*
X108146000Y-106742000D03*
D11*
X108146000Y-102562000D03*
%TD*%
D12*
%TO.P,H1003,1,1*%
%TO.N,GND*%
X166000000Y-106000000D03*
%TD*%
D13*
%TO.P,J1,1,Pin_1*%
%TO.N,/5V_VID*%
X109200000Y-137500000D03*
D14*
%TO.P,J1,2,Pin_2*%
X109200000Y-134960000D03*
%TO.P,J1,3,Pin_3*%
%TO.N,+3.3V*%
X111740000Y-137500000D03*
%TO.P,J1,4,Pin_4*%
%TO.N,Net-(D4-K)*%
X111740000Y-134960000D03*
%TO.P,J1,5,Pin_5*%
%TO.N,GND*%
X114280000Y-137500000D03*
%TO.P,J1,6,Pin_6*%
%TO.N,Net-(D5-K)*%
X114280000Y-134960000D03*
%TO.P,J1,7,Pin_7*%
%TO.N,GND*%
X116820000Y-137500000D03*
%TO.P,J1,8,Pin_8*%
X116820000Y-134960000D03*
%TO.P,J1,9,Pin_9*%
X119360000Y-137500000D03*
%TO.P,J1,10,Pin_10*%
%TO.N,Net-(D6-K)*%
X119360000Y-134960000D03*
%TD*%
D12*
%TO.P,H1001,1,1*%
%TO.N,GND*%
X66000000Y-106000000D03*
%TD*%
D15*
%TO.P,J3,1,VBUS*%
%TO.N,/VBUS*%
X111214000Y-115445500D03*
D16*
%TO.P,J3,2,D-*%
%TO.N,/USB_DN*%
X113714000Y-115445500D03*
%TO.P,J3,3,D+*%
%TO.N,/USB_DP*%
X113714000Y-113445500D03*
%TO.P,J3,4,GND*%
%TO.N,GND*%
X111214000Y-113445500D03*
D17*
%TO.P,J3,5,Shield*%
X106464000Y-110585500D03*
X118464000Y-110585500D03*
%TD*%
D12*
%TO.P,H1002,1,1*%
%TO.N,GND*%
X66000000Y-139000000D03*
%TD*%
D18*
%TO.P,J7,1,Pin_1*%
%TO.N,/TP_SPI*%
X164925000Y-124900000D03*
D19*
%TO.P,J7,2,Pin_2*%
%TO.N,/TP_CPY*%
X167465000Y-124900000D03*
%TO.P,J7,3,Pin_3*%
%TO.N,/TP_11*%
X164925000Y-127440000D03*
%TO.P,J7,4,Pin_4*%
%TO.N,/TP_12*%
X167465000Y-127440000D03*
%TO.P,J7,5,Pin_5*%
%TO.N,/INTENS*%
X164925000Y-129980000D03*
%TO.P,J7,6,Pin_6*%
%TO.N,/VIDEO*%
X167465000Y-129980000D03*
%TO.P,J7,7,Pin_7*%
%TO.N,/BSYNC*%
X164925000Y-132520000D03*
%TO.P,J7,8,Pin_8*%
%TO.N,GND*%
X167465000Y-132520000D03*
%TD*%
D13*
%TO.P,J4,1,Pin_1*%
%TO.N,/K_DOWN*%
X134700000Y-137500000D03*
D14*
%TO.P,J4,2,Pin_2*%
%TO.N,/K_RIGHT*%
X134700000Y-134960000D03*
%TO.P,J4,3,Pin_3*%
%TO.N,/K_UP*%
X137240000Y-137500000D03*
%TO.P,J4,4,Pin_4*%
%TO.N,/K_LEFT*%
X137240000Y-134960000D03*
%TO.P,J4,5,Pin_5*%
%TO.N,/L_STAT*%
X139780000Y-137500000D03*
%TO.P,J4,6,Pin_6*%
%TO.N,/L_SYNC*%
X139780000Y-134960000D03*
%TO.P,J4,7,Pin_7*%
%TO.N,/RST*%
X142320000Y-137500000D03*
%TO.P,J4,8,Pin_8*%
%TO.N,unconnected-(J4-Pin_8-Pad8)*%
X142320000Y-134960000D03*
%TO.P,J4,9,Pin_9*%
%TO.N,+3.3V*%
X144860000Y-137500000D03*
%TO.P,J4,10,Pin_10*%
%TO.N,GND*%
X144860000Y-134960000D03*
%TD*%
D12*
%TO.P,H1004,1,1*%
%TO.N,GND*%
X166000000Y-139000000D03*
%TD*%
D13*
%TO.P,J5,1,Pin_1*%
%TO.N,/RED*%
X76140000Y-137500000D03*
D14*
%TO.P,J5,2,Pin_2*%
%TO.N,/GREEN*%
X76140000Y-134960000D03*
%TO.P,J5,3,Pin_3*%
%TO.N,/BLUE*%
X78680000Y-137500000D03*
%TO.P,J5,4,Pin_4*%
%TO.N,unconnected-(J5-Pin_4-Pad4)*%
X78680000Y-134960000D03*
%TO.P,J5,5,Pin_5*%
%TO.N,GND*%
X81220000Y-137500000D03*
%TO.P,J5,6,Pin_6*%
X81220000Y-134960000D03*
%TO.P,J5,7,Pin_7*%
X83760000Y-137500000D03*
%TO.P,J5,8,Pin_8*%
X83760000Y-134960000D03*
%TO.P,J5,9,Pin_9*%
X86300000Y-137500000D03*
%TO.P,J5,10,Pin_10*%
X86300000Y-134960000D03*
%TO.P,J5,11,Pin_11*%
%TO.N,unconnected-(J5-Pin_11-Pad11)*%
X88840000Y-137500000D03*
%TO.P,J5,12,Pin_12*%
%TO.N,unconnected-(J5-Pin_12-Pad12)*%
X88840000Y-134960000D03*
%TO.P,J5,13,Pin_13*%
%TO.N,/HSYNC*%
X91380000Y-137500000D03*
%TO.P,J5,14,Pin_14*%
%TO.N,/VSYNC*%
X91380000Y-134960000D03*
%TO.P,J5,15,Pin_15*%
%TO.N,unconnected-(J5-Pin_15-Pad15)*%
X93920000Y-137500000D03*
%TO.P,J5,16,Pin_16*%
%TO.N,unconnected-(J5-Pin_16-Pad16)*%
X93920000Y-134960000D03*
%TD*%
D20*
%TO.P,J2,0*%
%TO.N,GND*%
X98500000Y-111500000D03*
X73500000Y-111500000D03*
D21*
%TO.P,J2,1*%
%TO.N,/RED*%
X81685000Y-114040000D03*
D22*
%TO.P,J2,2*%
%TO.N,/GREEN*%
X83965000Y-114040000D03*
%TO.P,J2,3*%
%TO.N,/BLUE*%
X86245000Y-114040000D03*
%TO.P,J2,4*%
%TO.N,unconnected-(J2-Pad4)*%
X88525000Y-114040000D03*
%TO.P,J2,5*%
%TO.N,GND*%
X90805000Y-114040000D03*
%TO.P,J2,6*%
X80545000Y-111500000D03*
%TO.P,J2,7*%
X82825000Y-111500000D03*
%TO.P,J2,8*%
X85105000Y-111500000D03*
%TO.P,J2,9*%
%TO.N,unconnected-(J2-Pad9)*%
X87385000Y-111500000D03*
%TO.P,J2,10*%
%TO.N,GND*%
X89665000Y-111500000D03*
%TO.P,J2,11*%
%TO.N,unconnected-(J2-Pad11)*%
X81685000Y-108960000D03*
%TO.P,J2,12*%
%TO.N,unconnected-(J2-Pad12)*%
X83965000Y-108960000D03*
%TO.P,J2,13*%
%TO.N,/HSYNC*%
X86245000Y-108960000D03*
%TO.P,J2,14*%
%TO.N,/VSYNC*%
X88525000Y-108960000D03*
%TO.P,J2,15*%
%TO.N,unconnected-(J2-Pad15)*%
X90805000Y-108960000D03*
%TD*%
D18*
%TO.P,J8,1,Pin_1*%
%TO.N,+5V*%
X67106800Y-111963200D03*
D19*
%TO.P,J8,2,Pin_2*%
%TO.N,GND*%
X67106800Y-114503200D03*
%TD*%
D18*
%TO.P,JP3,1,Pin_1*%
%TO.N,/VBUS*%
X114300000Y-119126000D03*
D19*
%TO.P,JP3,2,Pin_2*%
%TO.N,+5V*%
X116840000Y-119126000D03*
%TO.P,JP3,3,Pin_3*%
%TO.N,/5V_VID*%
X119380000Y-119126000D03*
%TD*%
D18*
%TO.P,JP1,1,A*%
%TO.N,Net-(JP1-A)*%
X164825000Y-120300000D03*
D19*
%TO.P,JP1,2,B*%
%TO.N,GND*%
X167365000Y-120300000D03*
%TD*%
D23*
%TO.P,JP2,1,A*%
%TO.N,/VBUS*%
X116890800Y-115214400D03*
D24*
%TO.P,JP2,2,C*%
%TO.N,+5V*%
X118190800Y-115214400D03*
D25*
%TO.P,JP2,3,B*%
%TO.N,/5V_VID*%
X119490800Y-115214400D03*
%TD*%
D26*
%TO.N,/GREEN*%
X83261200Y-116789200D03*
%TO.N,/BLUE*%
X84175600Y-117652800D03*
%TO.N,GND*%
X100526000Y-131518000D03*
X81788000Y-117805200D03*
X115200000Y-108500000D03*
X106070400Y-137515600D03*
X157886400Y-138430000D03*
X132232400Y-130098800D03*
X147320000Y-137515600D03*
X102558000Y-117040000D03*
X110490000Y-132537200D03*
X79552800Y-115468400D03*
X122377200Y-137515600D03*
X153924000Y-117246400D03*
X157886400Y-123647200D03*
X76396000Y-104086000D03*
X91795600Y-111556800D03*
X133604000Y-140055600D03*
X74574400Y-120370600D03*
X92964000Y-119380000D03*
X68776000Y-120342000D03*
X145034000Y-123698000D03*
X132029200Y-106476800D03*
X161900000Y-141600000D03*
X132232400Y-127508000D03*
X68732400Y-142443200D03*
X130048000Y-119278400D03*
X88239600Y-130251200D03*
X79857600Y-121564400D03*
X100126800Y-106273600D03*
X151100000Y-110800000D03*
X119583200Y-106476800D03*
X68732400Y-124104400D03*
X156000000Y-101500000D03*
X152088000Y-104086000D03*
X112600000Y-101900000D03*
X113512600Y-130860800D03*
X75692000Y-132384800D03*
X145034000Y-127558800D03*
X106800000Y-106400000D03*
X130860800Y-137515600D03*
X124200000Y-118465600D03*
X169700000Y-102400000D03*
X136042400Y-140055600D03*
X75692000Y-124104400D03*
%TO.N,/HSYNC*%
X145237200Y-103987600D03*
X85648800Y-103987600D03*
%TO.N,/VSYNC*%
X144373600Y-104800400D03*
%TO.N,/USB_DN*%
X141833600Y-116890800D03*
%TO.N,/B1*%
X136347200Y-105816400D03*
X142087600Y-105562400D03*
X133908800Y-121957000D03*
X100330000Y-123901200D03*
%TO.N,/B2*%
X134924800Y-122682000D03*
X142087600Y-106934000D03*
X136347200Y-107492800D03*
X89916000Y-124714000D03*
%TO.N,/G1*%
X135940800Y-123494800D03*
X142087600Y-108102400D03*
X136448800Y-108864400D03*
X100330000Y-125767000D03*
%TO.N,/G2*%
X89865200Y-126492000D03*
X138379200Y-124663200D03*
%TO.N,/R1*%
X143648600Y-111831547D03*
X142392400Y-123190000D03*
X142443200Y-129184400D03*
X99415600Y-129692400D03*
%TO.N,/R2*%
X142010800Y-124206000D03*
X141630400Y-128422400D03*
X143611600Y-110540800D03*
X89865200Y-128320800D03*
%TO.N,/TP_11*%
X147116800Y-127406400D03*
%TO.N,/USB_DP*%
X142798800Y-116027200D03*
%TO.N,/K_LEFT*%
X159512000Y-133451600D03*
%TO.N,/K_RIGHT*%
X161544000Y-140462000D03*
%TO.N,/K_UP*%
X159105600Y-111861600D03*
X162306000Y-139242800D03*
X162326263Y-111904602D03*
%TO.N,/VIDEO*%
X123037600Y-125323600D03*
X153517600Y-131165600D03*
X153416000Y-124002800D03*
%TO.N,/K_DOWN*%
X160576923Y-140207506D03*
%TO.N,/INTENS*%
X122936000Y-127457200D03*
X154686000Y-129997200D03*
%TO.N,/BSYNC*%
X123037600Y-129971800D03*
X155956000Y-132537200D03*
X152146000Y-130911600D03*
%TO.N,/L_SYNC*%
X154381200Y-138379200D03*
%TO.N,/TP_CPY*%
X150926800Y-126288800D03*
%TO.N,/TP_SPI*%
X149656800Y-124917200D03*
%TO.N,/L_STAT*%
X151485600Y-138430000D03*
%TO.N,/TP_12*%
X148386800Y-128625600D03*
%TO.N,Net-(JP1-A)*%
X159156400Y-118211600D03*
%TO.N,Net-(U2-GPIO46)*%
X150469600Y-132130800D03*
X143306800Y-132130800D03*
%TO.N,Net-(U2-MTMS{slash}GPIO42)*%
X153720800Y-135229600D03*
X163423600Y-135280400D03*
%TD*%
D27*
%TO.N,/GREEN*%
X83965000Y-116085400D02*
X83965000Y-114040000D01*
X83261200Y-116789200D02*
X83965000Y-116085400D01*
%TO.N,/BLUE*%
X84175600Y-117652800D02*
X86245000Y-115583400D01*
X86245000Y-115583400D02*
X86245000Y-114040000D01*
%TO.N,/VBUS*%
X116890800Y-115214400D02*
X116890800Y-116535200D01*
X116890800Y-116535200D02*
X114300000Y-119126000D01*
D28*
%TO.N,+5V*%
X63398400Y-120142000D02*
X65670800Y-122414400D01*
X118190800Y-115214400D02*
X118190800Y-117775200D01*
X118190800Y-117775200D02*
X116840000Y-119126000D01*
X65670800Y-122414400D02*
X113551600Y-122414400D01*
X63398400Y-114147600D02*
X63398400Y-120142000D01*
X113551600Y-122414400D02*
X116840000Y-119126000D01*
X67106800Y-111963200D02*
X65582800Y-111963200D01*
X65582800Y-111963200D02*
X63398400Y-114147600D01*
D27*
%TO.N,/HSYNC*%
X115671600Y-103987600D02*
X145237200Y-103987600D01*
X85648800Y-103987600D02*
X115671600Y-103987600D01*
%TO.N,/VSYNC*%
X88525000Y-108960000D02*
X88525000Y-105429400D01*
X142951200Y-104495600D02*
X144068800Y-104495600D01*
X88525000Y-105429400D02*
X89458800Y-104495600D01*
X144068800Y-104495600D02*
X144373600Y-104800400D01*
X89458800Y-104495600D02*
X142951200Y-104495600D01*
D29*
%TO.N,/USB_DN*%
X124725800Y-114159400D02*
X133514200Y-114159400D01*
X115000100Y-114159400D02*
X124725800Y-114159400D01*
X136245600Y-116890800D02*
X141833600Y-116890800D01*
X133514200Y-114159400D02*
X136245600Y-116890800D01*
X113714000Y-115445500D02*
X115000100Y-114159400D01*
D27*
%TO.N,/B1*%
X116853800Y-121957000D02*
X133908800Y-121957000D01*
X141833600Y-105816400D02*
X142087600Y-105562400D01*
X136347200Y-105816400D02*
X141833600Y-105816400D01*
X114909600Y-123901200D02*
X116853800Y-121957000D01*
X100330000Y-123901200D02*
X114909600Y-123901200D01*
%TO.N,/B2*%
X89916000Y-124714000D02*
X115468400Y-124714000D01*
X115468400Y-124714000D02*
X117500400Y-122682000D01*
X141528800Y-107492800D02*
X142087600Y-106934000D01*
X117500400Y-122682000D02*
X134924800Y-122682000D01*
X136347200Y-107492800D02*
X141528800Y-107492800D01*
%TO.N,/G1*%
X116295000Y-125767000D02*
X118567200Y-123494800D01*
X100330000Y-125767000D02*
X116295000Y-125767000D01*
X136448800Y-108864400D02*
X141325600Y-108864400D01*
X141325600Y-108864400D02*
X142087600Y-108102400D01*
X118567200Y-123494800D02*
X135940800Y-123494800D01*
%TO.N,/G2*%
X118872000Y-124256800D02*
X137972800Y-124256800D01*
X116636800Y-126492000D02*
X118872000Y-124256800D01*
X137972800Y-124256800D02*
X138379200Y-124663200D01*
X89865200Y-126492000D02*
X116636800Y-126492000D01*
%TO.N,/R1*%
X142392400Y-123037600D02*
X147828000Y-117602000D01*
X147828000Y-117602000D02*
X147828000Y-113030000D01*
X99415600Y-129692400D02*
X99937400Y-129170600D01*
X147828000Y-113030000D02*
X146629547Y-111831547D01*
X142392400Y-123190000D02*
X142392400Y-123037600D01*
X99937400Y-129170600D02*
X142429400Y-129170600D01*
X146629547Y-111831547D02*
X143648600Y-111831547D01*
X142429400Y-129170600D02*
X142443200Y-129184400D01*
%TO.N,/R2*%
X148278000Y-112843604D02*
X145975196Y-110540800D01*
X142401705Y-124206000D02*
X148278000Y-118329705D01*
X145975196Y-110540800D02*
X143611600Y-110540800D01*
X141528800Y-128320800D02*
X141630400Y-128422400D01*
X148278000Y-118329705D02*
X148278000Y-112843604D01*
X142010800Y-124206000D02*
X142401705Y-124206000D01*
X89865200Y-128320800D02*
X141528800Y-128320800D01*
%TO.N,/5V_VID*%
X119490800Y-115214400D02*
X119490800Y-119015200D01*
X119490800Y-119015200D02*
X119380000Y-119126000D01*
%TO.N,/TP_11*%
X147150400Y-127440000D02*
X147116800Y-127406400D01*
X164925000Y-127440000D02*
X147150400Y-127440000D01*
D29*
%TO.N,/USB_DP*%
X133663900Y-113445500D02*
X136245600Y-116027200D01*
X113714000Y-113445500D02*
X133663900Y-113445500D01*
X136245600Y-116027200D02*
X142798800Y-116027200D01*
D27*
%TO.N,/K_LEFT*%
X137240000Y-133676400D02*
X137464800Y-133451600D01*
X137240000Y-134960000D02*
X137240000Y-133676400D01*
X137464800Y-133451600D02*
X159512000Y-133451600D01*
%TO.N,/K_RIGHT*%
X161391600Y-140462000D02*
X161544000Y-140462000D01*
X132842000Y-142087600D02*
X159766000Y-142087600D01*
X159766000Y-142087600D02*
X161391600Y-140462000D01*
X132384800Y-141630400D02*
X132842000Y-142087600D01*
X134700000Y-134960000D02*
X133010000Y-134960000D01*
X133010000Y-134960000D02*
X132384800Y-135585200D01*
X132384800Y-135585200D02*
X132384800Y-141630400D01*
%TO.N,/K_UP*%
X160274000Y-139242800D02*
X162306000Y-139242800D01*
X137240000Y-140592800D02*
X137827600Y-141180400D01*
X137827600Y-141180400D02*
X158336400Y-141180400D01*
X137240000Y-137500000D02*
X137240000Y-140592800D01*
X159148602Y-111904602D02*
X159105600Y-111861600D01*
X162326263Y-111904602D02*
X159148602Y-111904602D01*
X158336400Y-141180400D02*
X160274000Y-139242800D01*
%TO.N,/VIDEO*%
X146392900Y-125336300D02*
X147726400Y-124002800D01*
X166279400Y-131165600D02*
X153517600Y-131165600D01*
X123037600Y-125323600D02*
X123102200Y-125388200D01*
X146341000Y-125388200D02*
X146392900Y-125336300D01*
X147726400Y-124002800D02*
X153416000Y-124002800D01*
X167465000Y-129980000D02*
X166279400Y-131165600D01*
X123102200Y-125388200D02*
X146341000Y-125388200D01*
%TO.N,/K_DOWN*%
X135382000Y-141630400D02*
X159154029Y-141630400D01*
X134700000Y-140948400D02*
X135382000Y-141630400D01*
X159154029Y-141630400D02*
X160576923Y-140207506D01*
X134700000Y-137500000D02*
X134700000Y-140948400D01*
%TO.N,/INTENS*%
X122936000Y-127457200D02*
X123711800Y-126681400D01*
X123711800Y-126681400D02*
X142023000Y-126681400D01*
X154703200Y-129980000D02*
X154686000Y-129997200D01*
X142023000Y-126681400D02*
X145338800Y-129997200D01*
X145338800Y-129997200D02*
X154686000Y-129997200D01*
X164925000Y-129980000D02*
X154703200Y-129980000D01*
%TO.N,/BSYNC*%
X123037600Y-129971800D02*
X123889600Y-130823800D01*
X164925000Y-132520000D02*
X155973200Y-132520000D01*
X155973200Y-132520000D02*
X155956000Y-132537200D01*
X123889600Y-130823800D02*
X152058200Y-130823800D01*
X152058200Y-130823800D02*
X152146000Y-130911600D01*
%TO.N,/L_SYNC*%
X152603200Y-140730400D02*
X153808000Y-140730400D01*
X154381200Y-140157200D02*
X154381200Y-138379200D01*
X139780000Y-134960000D02*
X138605000Y-136135000D01*
X153808000Y-140730400D02*
X154381200Y-140157200D01*
X138605000Y-140129000D02*
X139206400Y-140730400D01*
X139206400Y-140730400D02*
X152603200Y-140730400D01*
X138605000Y-136135000D02*
X138605000Y-140129000D01*
%TO.N,/TP_CPY*%
X167465000Y-124900000D02*
X166100000Y-126265000D01*
X166100000Y-126265000D02*
X150950600Y-126265000D01*
X150950600Y-126265000D02*
X150926800Y-126288800D01*
%TO.N,/TP_SPI*%
X164925000Y-124900000D02*
X149674000Y-124900000D01*
X149674000Y-124900000D02*
X149656800Y-124917200D01*
%TO.N,/L_STAT*%
X139780000Y-139678400D02*
X140382000Y-140280400D01*
X140382000Y-140280400D02*
X150876000Y-140280400D01*
X151485600Y-139670800D02*
X151485600Y-138430000D01*
X150876000Y-140280400D02*
X151485600Y-139670800D01*
X139780000Y-137500000D02*
X139780000Y-139678400D01*
%TO.N,/TP_12*%
X167465000Y-127440000D02*
X166279400Y-128625600D01*
X166279400Y-128625600D02*
X148386800Y-128625600D01*
%TO.N,Net-(JP1-A)*%
X161244800Y-120300000D02*
X159156400Y-118211600D01*
X164825000Y-120300000D02*
X161244800Y-120300000D01*
%TO.N,Net-(U2-GPIO46)*%
X150469600Y-132130800D02*
X143306800Y-132130800D01*
%TO.N,Net-(U2-MTMS{slash}GPIO42)*%
X163372800Y-135229600D02*
X163423600Y-135280400D01*
X153720800Y-135229600D02*
X163372800Y-135229600D01*
%TD*%
%TA.AperFunction,Conductor*%
%TO.N,GND*%
G36*
X133494058Y-135605185D02*
G01*
X133537503Y-135653203D01*
X133544950Y-135667819D01*
X133669890Y-135839786D01*
X133820209Y-135990105D01*
X133825106Y-135993663D01*
X133867771Y-136048994D01*
X133873750Y-136118607D01*
X133841144Y-136180402D01*
X133791229Y-136211685D01*
X133780673Y-136215183D01*
X133780663Y-136215187D01*
X133631342Y-136307289D01*
X133507289Y-136431342D01*
X133415187Y-136580663D01*
X133415185Y-136580668D01*
X133402083Y-136620208D01*
X133360001Y-136747203D01*
X133360001Y-136747204D01*
X133360000Y-136747204D01*
X133349500Y-136849983D01*
X133349500Y-138150001D01*
X133349501Y-138150018D01*
X133360000Y-138252796D01*
X133360001Y-138252799D01*
X133408355Y-138398720D01*
X133415186Y-138419334D01*
X133507288Y-138568656D01*
X133631344Y-138692712D01*
X133780666Y-138784814D01*
X133947203Y-138839999D01*
X133963101Y-138841623D01*
X134027793Y-138868018D01*
X134067945Y-138925198D01*
X134074500Y-138964981D01*
X134074500Y-140886793D01*
X134074500Y-141010007D01*
X134077818Y-141026686D01*
X134098537Y-141130852D01*
X134104208Y-141144542D01*
X134108012Y-141153727D01*
X134108013Y-141153729D01*
X134145685Y-141244680D01*
X134145686Y-141244682D01*
X134145688Y-141244686D01*
X134162075Y-141269210D01*
X134182953Y-141335884D01*
X134164470Y-141403265D01*
X134112492Y-141449956D01*
X134058973Y-141462100D01*
X133152453Y-141462100D01*
X133123012Y-141453455D01*
X133093026Y-141446932D01*
X133088010Y-141443177D01*
X133085414Y-141442415D01*
X133064772Y-141425781D01*
X133046619Y-141407628D01*
X133013134Y-141346305D01*
X133010300Y-141319947D01*
X133010300Y-135895652D01*
X133029985Y-135828613D01*
X133046619Y-135807971D01*
X133232771Y-135621819D01*
X133294094Y-135588334D01*
X133320452Y-135585500D01*
X133427019Y-135585500D01*
X133494058Y-135605185D01*
G37*
%TD.AperFunction*%
%TA.AperFunction,Conductor*%
G36*
X136138386Y-138332705D02*
G01*
X136161374Y-138336821D01*
X136171939Y-138345767D01*
X136181736Y-138349581D01*
X136206334Y-138374891D01*
X136209890Y-138379785D01*
X136209894Y-138379790D01*
X136360213Y-138530109D01*
X136532181Y-138655050D01*
X136546792Y-138662494D01*
X136597589Y-138710467D01*
X136614500Y-138772980D01*
X136614500Y-140654407D01*
X136620248Y-140683310D01*
X136628475Y-140724667D01*
X136638537Y-140775252D01*
X136652347Y-140808592D01*
X136662643Y-140833449D01*
X136670111Y-140902918D01*
X136638835Y-140965397D01*
X136578746Y-141001049D01*
X136548081Y-141004900D01*
X135692453Y-141004900D01*
X135625414Y-140985215D01*
X135604772Y-140968581D01*
X135361819Y-140725628D01*
X135328334Y-140664305D01*
X135325500Y-140637947D01*
X135325500Y-138964981D01*
X135345185Y-138897942D01*
X135397989Y-138852187D01*
X135436899Y-138841623D01*
X135437391Y-138841572D01*
X135452797Y-138839999D01*
X135619334Y-138784814D01*
X135768656Y-138692712D01*
X135892712Y-138568656D01*
X135984814Y-138419334D01*
X135988312Y-138408775D01*
X135995273Y-138398720D01*
X135998044Y-138386807D01*
X136014789Y-138370532D01*
X136028082Y-138351332D01*
X136039376Y-138346635D01*
X136048148Y-138338111D01*
X136071033Y-138333473D01*
X136092598Y-138324507D01*
X136104639Y-138326663D01*
X136116626Y-138324234D01*
X136138386Y-138332705D01*
G37*
%TD.AperFunction*%
%TA.AperFunction,Conductor*%
G36*
X144394075Y-135152993D02*
G01*
X144459901Y-135267007D01*
X144552993Y-135360099D01*
X144667007Y-135425925D01*
X144730590Y-135442962D01*
X144098282Y-136075269D01*
X144098282Y-136075270D01*
X144152452Y-136114626D01*
X144152451Y-136114626D01*
X144161495Y-136119234D01*
X144212292Y-136167208D01*
X144229087Y-136235029D01*
X144206550Y-136301164D01*
X144161499Y-136340202D01*
X144152182Y-136344949D01*
X143980213Y-136469890D01*
X143829890Y-136620213D01*
X143704949Y-136792182D01*
X143700484Y-136800946D01*
X143652509Y-136851742D01*
X143584688Y-136868536D01*
X143518553Y-136845998D01*
X143479516Y-136800946D01*
X143475050Y-136792182D01*
X143350109Y-136620213D01*
X143199786Y-136469890D01*
X143027820Y-136344951D01*
X143019600Y-136340763D01*
X143019054Y-136340485D01*
X142968259Y-136292512D01*
X142951463Y-136224692D01*
X142973999Y-136158556D01*
X143019054Y-136119515D01*
X143027816Y-136115051D01*
X143082572Y-136075269D01*
X143199786Y-135990109D01*
X143199788Y-135990106D01*
X143199792Y-135990104D01*
X143350104Y-135839792D01*
X143350106Y-135839788D01*
X143350109Y-135839786D01*
X143435890Y-135721717D01*
X143475051Y-135667816D01*
X143479793Y-135658508D01*
X143527763Y-135607711D01*
X143595583Y-135590911D01*
X143661719Y-135613445D01*
X143700763Y-135658500D01*
X143705373Y-135667547D01*
X143744728Y-135721716D01*
X144377036Y-135089407D01*
X144394075Y-135152993D01*
G37*
%TD.AperFunction*%
%TA.AperFunction,Conductor*%
G36*
X141797078Y-129815785D02*
G01*
X141817721Y-129832420D01*
X141869161Y-129883861D01*
X141869165Y-129883864D01*
X141999868Y-129971198D01*
X142044673Y-130024810D01*
X142053380Y-130094135D01*
X142023225Y-130157163D01*
X141963782Y-130193882D01*
X141930977Y-130198300D01*
X124200052Y-130198300D01*
X124170611Y-130189655D01*
X124140625Y-130183132D01*
X124135609Y-130179377D01*
X124133013Y-130178615D01*
X124112371Y-130161981D01*
X123974419Y-130024029D01*
X123940934Y-129962706D01*
X123938100Y-129936348D01*
X123938100Y-129920100D01*
X123945874Y-129893623D01*
X123945918Y-129893014D01*
X123946140Y-129892716D01*
X123957785Y-129853061D01*
X124010589Y-129807306D01*
X124062100Y-129796100D01*
X141730039Y-129796100D01*
X141797078Y-129815785D01*
G37*
%TD.AperFunction*%
%TA.AperFunction,Conductor*%
G36*
X148665243Y-124634235D02*
G01*
X148686281Y-124635363D01*
X148698095Y-124643882D01*
X148712068Y-124647985D01*
X148725862Y-124663904D01*
X148742954Y-124676229D01*
X148748287Y-124689784D01*
X148757823Y-124700789D01*
X148760821Y-124721641D01*
X148768535Y-124741247D01*
X148767206Y-124766048D01*
X148767767Y-124769947D01*
X148766647Y-124776491D01*
X148756300Y-124828510D01*
X148756300Y-125005895D01*
X148790903Y-125179858D01*
X148790906Y-125179867D01*
X148858783Y-125343740D01*
X148858790Y-125343753D01*
X148957335Y-125491234D01*
X148957338Y-125491238D01*
X149082761Y-125616661D01*
X149082765Y-125616664D01*
X149230246Y-125715209D01*
X149230259Y-125715216D01*
X149353163Y-125766123D01*
X149394134Y-125783094D01*
X149394136Y-125783094D01*
X149394141Y-125783096D01*
X149568104Y-125817699D01*
X149568107Y-125817700D01*
X149568109Y-125817700D01*
X149745493Y-125817700D01*
X149745494Y-125817699D01*
X149803482Y-125806164D01*
X149919458Y-125783096D01*
X149919458Y-125783095D01*
X149919466Y-125783094D01*
X149935145Y-125776599D01*
X150004609Y-125769130D01*
X150067089Y-125800402D01*
X150102743Y-125860490D01*
X150100252Y-125930316D01*
X150097158Y-125938611D01*
X150060905Y-126026137D01*
X150060903Y-126026141D01*
X150026300Y-126200104D01*
X150026300Y-126377495D01*
X150060903Y-126551458D01*
X150060906Y-126551467D01*
X150098840Y-126643048D01*
X150106309Y-126712517D01*
X150075033Y-126774996D01*
X150014944Y-126810648D01*
X149984279Y-126814500D01*
X147849761Y-126814500D01*
X147782722Y-126794815D01*
X147762084Y-126778185D01*
X147690835Y-126706936D01*
X147690834Y-126706935D01*
X147690833Y-126706934D01*
X147543353Y-126608390D01*
X147543340Y-126608383D01*
X147379467Y-126540506D01*
X147379458Y-126540503D01*
X147205494Y-126505900D01*
X147205491Y-126505900D01*
X147028109Y-126505900D01*
X147028106Y-126505900D01*
X146854141Y-126540503D01*
X146854132Y-126540506D01*
X146690259Y-126608383D01*
X146690246Y-126608390D01*
X146542765Y-126706935D01*
X146542761Y-126706938D01*
X146417338Y-126832361D01*
X146417335Y-126832365D01*
X146318790Y-126979846D01*
X146318783Y-126979859D01*
X146250906Y-127143732D01*
X146250903Y-127143741D01*
X146216300Y-127317704D01*
X146216300Y-127495095D01*
X146250903Y-127669058D01*
X146250906Y-127669067D01*
X146318783Y-127832940D01*
X146318790Y-127832953D01*
X146417335Y-127980434D01*
X146417338Y-127980438D01*
X146542761Y-128105861D01*
X146542765Y-128105864D01*
X146690246Y-128204409D01*
X146690259Y-128204416D01*
X146813163Y-128255323D01*
X146854134Y-128272294D01*
X146854136Y-128272294D01*
X146854141Y-128272296D01*
X147028104Y-128306899D01*
X147028107Y-128306900D01*
X147028109Y-128306900D01*
X147205493Y-128306900D01*
X147363490Y-128275472D01*
X147433082Y-128281699D01*
X147488259Y-128324562D01*
X147511504Y-128390452D01*
X147509299Y-128421280D01*
X147486300Y-128536904D01*
X147486300Y-128714295D01*
X147520903Y-128888258D01*
X147520906Y-128888267D01*
X147588783Y-129052140D01*
X147588790Y-129052153D01*
X147673420Y-129178809D01*
X147694298Y-129245486D01*
X147675814Y-129312866D01*
X147623835Y-129359557D01*
X147570318Y-129371700D01*
X145649253Y-129371700D01*
X145582214Y-129352015D01*
X145561572Y-129335381D01*
X142515928Y-126289738D01*
X142508859Y-126282669D01*
X142508858Y-126282667D01*
X142451571Y-126225380D01*
X142418087Y-126164056D01*
X142423073Y-126094365D01*
X142440998Y-126070419D01*
X142464944Y-126038432D01*
X142530409Y-126014016D01*
X142539254Y-126013700D01*
X146402608Y-126013700D01*
X146402608Y-126013699D01*
X146485660Y-125997180D01*
X146523452Y-125989663D01*
X146556792Y-125975852D01*
X146637286Y-125942512D01*
X146688509Y-125908284D01*
X146739733Y-125874058D01*
X146826858Y-125786933D01*
X146826858Y-125786932D01*
X146844301Y-125769489D01*
X146885815Y-125727976D01*
X146885826Y-125727962D01*
X147949171Y-124664619D01*
X148010494Y-124631134D01*
X148036852Y-124628300D01*
X148645029Y-124628300D01*
X148665243Y-124634235D01*
G37*
%TD.AperFunction*%
%TA.AperFunction,Conductor*%
G36*
X141385869Y-127313440D02*
G01*
X141408994Y-127315510D01*
X141418764Y-127323099D01*
X141430633Y-127326585D01*
X141445835Y-127344129D01*
X141464171Y-127358373D01*
X141468286Y-127370039D01*
X141476388Y-127379389D01*
X141479692Y-127402369D01*
X141487416Y-127424263D01*
X141484571Y-127436301D01*
X141486332Y-127448547D01*
X141476686Y-127469667D01*
X141471348Y-127492260D01*
X141462446Y-127500849D01*
X141457307Y-127512103D01*
X141437774Y-127524655D01*
X141421069Y-127540775D01*
X141402496Y-127547327D01*
X141398529Y-127549877D01*
X141387786Y-127552517D01*
X141367740Y-127556504D01*
X141367732Y-127556506D01*
X141203859Y-127624383D01*
X141203852Y-127624387D01*
X141169356Y-127647437D01*
X141128999Y-127674402D01*
X141062325Y-127695280D01*
X141060110Y-127695300D01*
X123957875Y-127695300D01*
X123890836Y-127675615D01*
X123845081Y-127622811D01*
X123835137Y-127553653D01*
X123836254Y-127547123D01*
X123836500Y-127545891D01*
X123836500Y-127492652D01*
X123856185Y-127425613D01*
X123872819Y-127404971D01*
X123934571Y-127343219D01*
X123995894Y-127309734D01*
X124022252Y-127306900D01*
X141363594Y-127306900D01*
X141385869Y-127313440D01*
G37*
%TD.AperFunction*%
%TA.AperFunction,Conductor*%
G36*
X89922176Y-112843947D02*
G01*
X89948540Y-112845833D01*
X89957589Y-112851648D01*
X89964625Y-112853178D01*
X89992857Y-112874311D01*
X89992881Y-112874327D01*
X89999765Y-112881210D01*
X89999767Y-112881213D01*
X90598023Y-113479469D01*
X90575339Y-113485548D01*
X90439662Y-113563882D01*
X90328882Y-113674662D01*
X90250548Y-113810339D01*
X90244469Y-113833023D01*
X89710135Y-113298689D01*
X89699856Y-113287033D01*
X89698659Y-113285491D01*
X89587521Y-113132522D01*
X89553673Y-113098674D01*
X89548901Y-113092525D01*
X89538856Y-113066960D01*
X89525695Y-113042858D01*
X89526263Y-113034911D01*
X89523349Y-113027495D01*
X89528719Y-113000559D01*
X89530679Y-112973166D01*
X89535454Y-112966787D01*
X89537012Y-112958975D01*
X89556090Y-112939221D01*
X89572551Y-112917233D01*
X89580016Y-112914448D01*
X89585551Y-112908718D01*
X89612280Y-112902414D01*
X89638015Y-112892816D01*
X89646861Y-112892500D01*
X89774590Y-112892500D01*
X89804021Y-112887837D01*
X89817525Y-112874334D01*
X89825465Y-112869998D01*
X89830888Y-112862753D01*
X89855653Y-112853514D01*
X89878848Y-112840849D01*
X89887873Y-112841494D01*
X89896351Y-112838332D01*
X89922176Y-112843947D01*
G37*
%TD.AperFunction*%
%TA.AperFunction,Conductor*%
G36*
X84550548Y-111729661D02*
G01*
X84628882Y-111865338D01*
X84739662Y-111976118D01*
X84875339Y-112054452D01*
X84898023Y-112060530D01*
X84323833Y-112634718D01*
X84262510Y-112668203D01*
X84216754Y-112669510D01*
X84107209Y-112652160D01*
X84074631Y-112647000D01*
X83855369Y-112647000D01*
X83713243Y-112669510D01*
X83643950Y-112660555D01*
X83606165Y-112634718D01*
X83031976Y-112060530D01*
X83054661Y-112054452D01*
X83190338Y-111976118D01*
X83301118Y-111865338D01*
X83379452Y-111729661D01*
X83385530Y-111706976D01*
X83965000Y-112286446D01*
X84544469Y-111706976D01*
X84550548Y-111729661D01*
G37*
%TD.AperFunction*%
%TA.AperFunction,Conductor*%
G36*
X86199863Y-112241309D02*
G01*
X86210169Y-112253000D01*
X86211362Y-112254538D01*
X86322479Y-112407478D01*
X86355841Y-112440840D01*
X86360626Y-112447010D01*
X86370652Y-112472555D01*
X86383805Y-112496642D01*
X86383235Y-112504612D01*
X86386154Y-112512049D01*
X86380778Y-112538956D01*
X86378821Y-112566334D01*
X86374031Y-112572731D01*
X86372467Y-112580565D01*
X86353395Y-112600297D01*
X86336949Y-112622267D01*
X86329463Y-112625058D01*
X86323911Y-112630804D01*
X86297197Y-112637093D01*
X86271485Y-112646684D01*
X86262639Y-112647000D01*
X86135369Y-112647000D01*
X85993243Y-112669510D01*
X85923950Y-112660555D01*
X85886165Y-112634718D01*
X85311976Y-112060530D01*
X85334661Y-112054452D01*
X85470338Y-111976118D01*
X85581118Y-111865338D01*
X85659452Y-111729661D01*
X85665530Y-111706976D01*
X86199863Y-112241309D01*
G37*
%TD.AperFunction*%
%TA.AperFunction,Conductor*%
G36*
X89110548Y-111729661D02*
G01*
X89188882Y-111865338D01*
X89299662Y-111976118D01*
X89435339Y-112054452D01*
X89458023Y-112060530D01*
X88883833Y-112634718D01*
X88822510Y-112668203D01*
X88776754Y-112669510D01*
X88667209Y-112652160D01*
X88634631Y-112647000D01*
X88507361Y-112647000D01*
X88493436Y-112642911D01*
X88478944Y-112643700D01*
X88460582Y-112633264D01*
X88440322Y-112627315D01*
X88430819Y-112616348D01*
X88418200Y-112609176D01*
X88408395Y-112590469D01*
X88394567Y-112574511D01*
X88392501Y-112560145D01*
X88385764Y-112547291D01*
X88387628Y-112526257D01*
X88384623Y-112505353D01*
X88390765Y-112490872D01*
X88391934Y-112477695D01*
X88404492Y-112458514D01*
X88409373Y-112447010D01*
X88414153Y-112440845D01*
X88447521Y-112407478D01*
X88558678Y-112254482D01*
X88559829Y-112252999D01*
X88560669Y-112252392D01*
X88570136Y-112241308D01*
X89104469Y-111706975D01*
X89110548Y-111729661D01*
G37*
%TD.AperFunction*%
%TA.AperFunction,Conductor*%
G36*
X82270548Y-111729661D02*
G01*
X82348882Y-111865338D01*
X82459662Y-111976118D01*
X82595339Y-112054452D01*
X82618023Y-112060530D01*
X82067872Y-112610681D01*
X82006549Y-112644166D01*
X81980191Y-112647000D01*
X81389809Y-112647000D01*
X81322770Y-112627315D01*
X81302128Y-112610681D01*
X80751976Y-112060530D01*
X80774661Y-112054452D01*
X80910338Y-111976118D01*
X81021118Y-111865338D01*
X81099452Y-111729661D01*
X81105530Y-111706976D01*
X81685000Y-112286446D01*
X82264469Y-111706976D01*
X82270548Y-111729661D01*
G37*
%TD.AperFunction*%
%TA.AperFunction,Conductor*%
G36*
X82006049Y-110339443D02*
G01*
X82043835Y-110365281D01*
X82618023Y-110939469D01*
X82595339Y-110945548D01*
X82459662Y-111023882D01*
X82348882Y-111134662D01*
X82270548Y-111270339D01*
X82264469Y-111293023D01*
X81685000Y-110713554D01*
X81105530Y-111293023D01*
X81099452Y-111270339D01*
X81021118Y-111134662D01*
X80910338Y-111023882D01*
X80774661Y-110945548D01*
X80751976Y-110939469D01*
X81326164Y-110365281D01*
X81387487Y-110331796D01*
X81433243Y-110330489D01*
X81575369Y-110353000D01*
X81575370Y-110353000D01*
X81794630Y-110353000D01*
X81794631Y-110353000D01*
X81936756Y-110330489D01*
X82006049Y-110339443D01*
G37*
%TD.AperFunction*%
%TA.AperFunction,Conductor*%
G36*
X84286049Y-110339443D02*
G01*
X84323835Y-110365281D01*
X84898023Y-110939469D01*
X84875339Y-110945548D01*
X84739662Y-111023882D01*
X84628882Y-111134662D01*
X84550548Y-111270339D01*
X84544469Y-111293023D01*
X83965000Y-110713554D01*
X83385530Y-111293023D01*
X83379452Y-111270339D01*
X83301118Y-111134662D01*
X83190338Y-111023882D01*
X83054661Y-110945548D01*
X83031976Y-110939469D01*
X83606164Y-110365281D01*
X83667487Y-110331796D01*
X83713243Y-110330489D01*
X83855369Y-110353000D01*
X83855370Y-110353000D01*
X84074630Y-110353000D01*
X84074631Y-110353000D01*
X84216756Y-110330489D01*
X84286049Y-110339443D01*
G37*
%TD.AperFunction*%
%TA.AperFunction,Conductor*%
G36*
X88846049Y-110339443D02*
G01*
X88883835Y-110365281D01*
X89458023Y-110939469D01*
X89435339Y-110945548D01*
X89299662Y-111023882D01*
X89188882Y-111134662D01*
X89110548Y-111270339D01*
X89104469Y-111293023D01*
X88570135Y-110758689D01*
X88559829Y-110746998D01*
X88558644Y-110745470D01*
X88447521Y-110592522D01*
X88414158Y-110559159D01*
X88409374Y-110552990D01*
X88399347Y-110527444D01*
X88386195Y-110503358D01*
X88386764Y-110495387D01*
X88383846Y-110487951D01*
X88389221Y-110461043D01*
X88391179Y-110433666D01*
X88395968Y-110427268D01*
X88397533Y-110419435D01*
X88416604Y-110399702D01*
X88433051Y-110377733D01*
X88440536Y-110374941D01*
X88446089Y-110369196D01*
X88472802Y-110362906D01*
X88498515Y-110353316D01*
X88507361Y-110353000D01*
X88634630Y-110353000D01*
X88634631Y-110353000D01*
X88776756Y-110330489D01*
X88846049Y-110339443D01*
G37*
%TD.AperFunction*%
%TA.AperFunction,Conductor*%
G36*
X86135369Y-110353000D02*
G01*
X86135370Y-110353000D01*
X86262639Y-110353000D01*
X86276563Y-110357088D01*
X86291058Y-110356300D01*
X86309419Y-110366736D01*
X86329678Y-110372685D01*
X86339181Y-110383652D01*
X86351801Y-110390825D01*
X86361605Y-110409531D01*
X86375433Y-110425489D01*
X86377498Y-110439853D01*
X86384237Y-110452710D01*
X86382371Y-110473746D01*
X86385377Y-110494647D01*
X86379234Y-110509125D01*
X86378066Y-110522307D01*
X86365504Y-110541490D01*
X86360626Y-110552991D01*
X86355844Y-110559156D01*
X86322479Y-110592522D01*
X86211383Y-110745432D01*
X86210166Y-110747002D01*
X86209325Y-110747608D01*
X86199860Y-110758692D01*
X85665530Y-111293022D01*
X85659452Y-111270339D01*
X85581118Y-111134662D01*
X85470338Y-111023882D01*
X85334661Y-110945548D01*
X85311976Y-110939469D01*
X85886164Y-110365281D01*
X85947487Y-110331796D01*
X85993243Y-110330489D01*
X86135369Y-110353000D01*
G37*
%TD.AperFunction*%
%TA.AperFunction,Conductor*%
G36*
X80754075Y-135152993D02*
G01*
X80819901Y-135267007D01*
X80912993Y-135360099D01*
X81027007Y-135425925D01*
X81090591Y-135442962D01*
X80489971Y-136043581D01*
X80568711Y-136160895D01*
X80569920Y-136164729D01*
X80572844Y-136167491D01*
X80580343Y-136197778D01*
X80589727Y-136227529D01*
X80588671Y-136231408D01*
X80589638Y-136235312D01*
X80579573Y-136264844D01*
X80571383Y-136294947D01*
X80568397Y-136297640D01*
X80567100Y-136301447D01*
X80522051Y-136340483D01*
X80512440Y-136345380D01*
X80458282Y-136384727D01*
X80458282Y-136384728D01*
X81090591Y-137017037D01*
X81027007Y-137034075D01*
X80912993Y-137099901D01*
X80819901Y-137192993D01*
X80754075Y-137307007D01*
X80737037Y-137370591D01*
X80104728Y-136738282D01*
X80104727Y-136738282D01*
X80065380Y-136792440D01*
X80065376Y-136792446D01*
X80060760Y-136801505D01*
X80012781Y-136852297D01*
X79944959Y-136869087D01*
X79878826Y-136846543D01*
X79839794Y-136801493D01*
X79835051Y-136792184D01*
X79835049Y-136792181D01*
X79835048Y-136792179D01*
X79710109Y-136620213D01*
X79559786Y-136469890D01*
X79387820Y-136344951D01*
X79379600Y-136340763D01*
X79379054Y-136340485D01*
X79328259Y-136292512D01*
X79311463Y-136224692D01*
X79333999Y-136158556D01*
X79379054Y-136119515D01*
X79387816Y-136115051D01*
X79442572Y-136075269D01*
X79559786Y-135990109D01*
X79559788Y-135990106D01*
X79559792Y-135990104D01*
X79710104Y-135839792D01*
X79710106Y-135839788D01*
X79710109Y-135839786D01*
X79795890Y-135721717D01*
X79835051Y-135667816D01*
X79839793Y-135658508D01*
X79887763Y-135607711D01*
X79955583Y-135590911D01*
X80021719Y-135613445D01*
X80060763Y-135658500D01*
X80065373Y-135667547D01*
X80104728Y-135721716D01*
X80737037Y-135089408D01*
X80754075Y-135152993D01*
G37*
%TD.AperFunction*%
%TA.AperFunction,Conductor*%
G36*
X83294075Y-135152993D02*
G01*
X83359901Y-135267007D01*
X83452993Y-135360099D01*
X83567007Y-135425925D01*
X83630590Y-135442962D01*
X82998282Y-136075269D01*
X82998282Y-136075270D01*
X83052452Y-136114626D01*
X83062048Y-136119516D01*
X83112844Y-136167491D01*
X83129638Y-136235312D01*
X83107100Y-136301447D01*
X83062051Y-136340483D01*
X83052440Y-136345380D01*
X82998282Y-136384727D01*
X82998282Y-136384728D01*
X83630591Y-137017037D01*
X83567007Y-137034075D01*
X83452993Y-137099901D01*
X83359901Y-137192993D01*
X83294075Y-137307007D01*
X83277037Y-137370591D01*
X82644728Y-136738282D01*
X82644727Y-136738282D01*
X82605380Y-136792440D01*
X82600483Y-136802051D01*
X82552506Y-136852845D01*
X82484684Y-136869638D01*
X82418550Y-136847098D01*
X82379516Y-136802048D01*
X82374626Y-136792452D01*
X82335270Y-136738282D01*
X82335269Y-136738282D01*
X81702962Y-137370590D01*
X81685925Y-137307007D01*
X81620099Y-137192993D01*
X81527007Y-137099901D01*
X81412993Y-137034075D01*
X81349409Y-137017037D01*
X81981716Y-136384728D01*
X81927550Y-136345375D01*
X81917954Y-136340486D01*
X81867157Y-136292512D01*
X81850361Y-136224692D01*
X81871288Y-136160895D01*
X81950027Y-136043581D01*
X81349408Y-135442962D01*
X81412993Y-135425925D01*
X81527007Y-135360099D01*
X81620099Y-135267007D01*
X81685925Y-135152993D01*
X81702962Y-135089409D01*
X82335270Y-135721717D01*
X82335270Y-135721716D01*
X82374622Y-135667554D01*
X82379514Y-135657954D01*
X82427488Y-135607157D01*
X82495308Y-135590361D01*
X82561444Y-135612897D01*
X82600486Y-135657954D01*
X82605375Y-135667550D01*
X82644728Y-135721716D01*
X83277037Y-135089408D01*
X83294075Y-135152993D01*
G37*
%TD.AperFunction*%
%TA.AperFunction,Conductor*%
G36*
X85834075Y-135152993D02*
G01*
X85899901Y-135267007D01*
X85992993Y-135360099D01*
X86107007Y-135425925D01*
X86170590Y-135442962D01*
X85538282Y-136075269D01*
X85538282Y-136075270D01*
X85592452Y-136114626D01*
X85602048Y-136119516D01*
X85652844Y-136167491D01*
X85669638Y-136235312D01*
X85647100Y-136301447D01*
X85602051Y-136340483D01*
X85592440Y-136345380D01*
X85538282Y-136384727D01*
X85538282Y-136384728D01*
X86170591Y-137017037D01*
X86107007Y-137034075D01*
X85992993Y-137099901D01*
X85899901Y-137192993D01*
X85834075Y-137307007D01*
X85817037Y-137370591D01*
X85184728Y-136738282D01*
X85184727Y-136738282D01*
X85145380Y-136792440D01*
X85140483Y-136802051D01*
X85092506Y-136852845D01*
X85024684Y-136869638D01*
X84958550Y-136847098D01*
X84919516Y-136802048D01*
X84914626Y-136792452D01*
X84875270Y-136738282D01*
X84875269Y-136738282D01*
X84242962Y-137370590D01*
X84225925Y-137307007D01*
X84160099Y-137192993D01*
X84067007Y-137099901D01*
X83952993Y-137034075D01*
X83889409Y-137017037D01*
X84521716Y-136384728D01*
X84467550Y-136345375D01*
X84457954Y-136340486D01*
X84407157Y-136292512D01*
X84390361Y-136224692D01*
X84411288Y-136160895D01*
X84490027Y-136043581D01*
X83889408Y-135442962D01*
X83952993Y-135425925D01*
X84067007Y-135360099D01*
X84160099Y-135267007D01*
X84225925Y-135152993D01*
X84242962Y-135089408D01*
X84875270Y-135721717D01*
X84875270Y-135721716D01*
X84914622Y-135667554D01*
X84919514Y-135657954D01*
X84967488Y-135607157D01*
X85035308Y-135590361D01*
X85101444Y-135612897D01*
X85140486Y-135657954D01*
X85145375Y-135667550D01*
X85184728Y-135721716D01*
X85817037Y-135089408D01*
X85834075Y-135152993D01*
G37*
%TD.AperFunction*%
%TA.AperFunction,Conductor*%
G36*
X87415270Y-135721717D02*
G01*
X87415270Y-135721716D01*
X87454622Y-135667555D01*
X87459232Y-135658507D01*
X87507205Y-135607709D01*
X87575025Y-135590912D01*
X87641161Y-135613447D01*
X87680204Y-135658504D01*
X87684949Y-135667817D01*
X87809890Y-135839786D01*
X87960213Y-135990109D01*
X88132182Y-136115050D01*
X88140946Y-136119516D01*
X88191742Y-136167491D01*
X88208536Y-136235312D01*
X88185998Y-136301447D01*
X88140946Y-136340484D01*
X88132182Y-136344949D01*
X87960213Y-136469890D01*
X87809890Y-136620213D01*
X87684949Y-136792182D01*
X87680202Y-136801499D01*
X87632227Y-136852293D01*
X87564405Y-136869087D01*
X87498271Y-136846548D01*
X87459234Y-136801495D01*
X87454626Y-136792452D01*
X87415270Y-136738282D01*
X87415269Y-136738282D01*
X86782962Y-137370590D01*
X86765925Y-137307007D01*
X86700099Y-137192993D01*
X86607007Y-137099901D01*
X86492993Y-137034075D01*
X86429409Y-137017037D01*
X87061716Y-136384728D01*
X87007550Y-136345375D01*
X86997954Y-136340486D01*
X86947157Y-136292512D01*
X86930361Y-136224692D01*
X86952897Y-136158556D01*
X86997954Y-136119514D01*
X87007554Y-136114622D01*
X87061716Y-136075270D01*
X87061717Y-136075270D01*
X86429408Y-135442962D01*
X86492993Y-135425925D01*
X86607007Y-135360099D01*
X86700099Y-135267007D01*
X86765925Y-135152993D01*
X86782962Y-135089409D01*
X87415270Y-135721717D01*
G37*
%TD.AperFunction*%
%TA.AperFunction,Conductor*%
G36*
X113081444Y-135613999D02*
G01*
X113120486Y-135659056D01*
X113124951Y-135667820D01*
X113249890Y-135839786D01*
X113400213Y-135990109D01*
X113572179Y-136115048D01*
X113572181Y-136115049D01*
X113572184Y-136115051D01*
X113581493Y-136119794D01*
X113632290Y-136167766D01*
X113649087Y-136235587D01*
X113626552Y-136301722D01*
X113581505Y-136340760D01*
X113572446Y-136345376D01*
X113572440Y-136345380D01*
X113518282Y-136384727D01*
X113518282Y-136384728D01*
X114150591Y-137017037D01*
X114087007Y-137034075D01*
X113972993Y-137099901D01*
X113879901Y-137192993D01*
X113814075Y-137307007D01*
X113797037Y-137370591D01*
X113164728Y-136738282D01*
X113164727Y-136738282D01*
X113125380Y-136792440D01*
X113125376Y-136792446D01*
X113120760Y-136801505D01*
X113072781Y-136852297D01*
X113004959Y-136869087D01*
X112938826Y-136846543D01*
X112899794Y-136801493D01*
X112895051Y-136792184D01*
X112895049Y-136792181D01*
X112895048Y-136792179D01*
X112770109Y-136620213D01*
X112619786Y-136469890D01*
X112447820Y-136344951D01*
X112439600Y-136340763D01*
X112439054Y-136340485D01*
X112388259Y-136292512D01*
X112371463Y-136224692D01*
X112393999Y-136158556D01*
X112439054Y-136119515D01*
X112447816Y-136115051D01*
X112502572Y-136075269D01*
X112619786Y-135990109D01*
X112619788Y-135990106D01*
X112619792Y-135990104D01*
X112770104Y-135839792D01*
X112770106Y-135839788D01*
X112770109Y-135839786D01*
X112895048Y-135667820D01*
X112895049Y-135667819D01*
X112895051Y-135667816D01*
X112899514Y-135659054D01*
X112947488Y-135608259D01*
X113015308Y-135591463D01*
X113081444Y-135613999D01*
G37*
%TD.AperFunction*%
%TA.AperFunction,Conductor*%
G36*
X116354075Y-135152993D02*
G01*
X116419901Y-135267007D01*
X116512993Y-135360099D01*
X116627007Y-135425925D01*
X116690591Y-135442962D01*
X116089971Y-136043581D01*
X116168711Y-136160895D01*
X116169920Y-136164729D01*
X116172844Y-136167491D01*
X116180343Y-136197778D01*
X116189727Y-136227529D01*
X116188671Y-136231408D01*
X116189638Y-136235312D01*
X116179573Y-136264844D01*
X116171383Y-136294947D01*
X116168397Y-136297640D01*
X116167100Y-136301447D01*
X116122051Y-136340483D01*
X116112440Y-136345380D01*
X116058282Y-136384727D01*
X116058282Y-136384728D01*
X116690591Y-137017037D01*
X116627007Y-137034075D01*
X116512993Y-137099901D01*
X116419901Y-137192993D01*
X116354075Y-137307007D01*
X116337037Y-137370591D01*
X115704728Y-136738282D01*
X115704727Y-136738282D01*
X115665380Y-136792440D01*
X115660483Y-136802051D01*
X115612506Y-136852845D01*
X115544684Y-136869638D01*
X115478550Y-136847098D01*
X115439516Y-136802048D01*
X115434626Y-136792452D01*
X115395270Y-136738282D01*
X115395269Y-136738282D01*
X114762962Y-137370590D01*
X114745925Y-137307007D01*
X114680099Y-137192993D01*
X114587007Y-137099901D01*
X114472993Y-137034075D01*
X114409409Y-137017037D01*
X115041716Y-136384728D01*
X114987547Y-136345373D01*
X114987547Y-136345372D01*
X114978500Y-136340763D01*
X114927706Y-136292788D01*
X114910912Y-136224966D01*
X114933451Y-136158832D01*
X114978508Y-136119793D01*
X114987816Y-136115051D01*
X115108165Y-136027613D01*
X115159786Y-135990109D01*
X115159788Y-135990106D01*
X115159792Y-135990104D01*
X115310104Y-135839792D01*
X115310106Y-135839788D01*
X115310109Y-135839786D01*
X115395890Y-135721717D01*
X115435051Y-135667816D01*
X115439793Y-135658508D01*
X115487763Y-135607711D01*
X115555583Y-135590911D01*
X115621719Y-135613445D01*
X115660763Y-135658500D01*
X115665373Y-135667547D01*
X115704728Y-135721716D01*
X116337037Y-135089408D01*
X116354075Y-135152993D01*
G37*
%TD.AperFunction*%
%TA.AperFunction,Conductor*%
G36*
X117935270Y-135721717D02*
G01*
X117935270Y-135721716D01*
X117974622Y-135667555D01*
X117979232Y-135658507D01*
X118027205Y-135607709D01*
X118095025Y-135590912D01*
X118161161Y-135613447D01*
X118200204Y-135658504D01*
X118204949Y-135667817D01*
X118329890Y-135839786D01*
X118480213Y-135990109D01*
X118652179Y-136115048D01*
X118652181Y-136115049D01*
X118652184Y-136115051D01*
X118661493Y-136119794D01*
X118712290Y-136167766D01*
X118729087Y-136235587D01*
X118706552Y-136301722D01*
X118661505Y-136340760D01*
X118652446Y-136345376D01*
X118652440Y-136345380D01*
X118598282Y-136384727D01*
X118598282Y-136384728D01*
X119230591Y-137017037D01*
X119167007Y-137034075D01*
X119052993Y-137099901D01*
X118959901Y-137192993D01*
X118894075Y-137307007D01*
X118877037Y-137370591D01*
X118244728Y-136738282D01*
X118244727Y-136738282D01*
X118205380Y-136792440D01*
X118200483Y-136802051D01*
X118152506Y-136852845D01*
X118084684Y-136869638D01*
X118018550Y-136847098D01*
X117979516Y-136802048D01*
X117974626Y-136792452D01*
X117935270Y-136738282D01*
X117935269Y-136738282D01*
X117302962Y-137370590D01*
X117285925Y-137307007D01*
X117220099Y-137192993D01*
X117127007Y-137099901D01*
X117012993Y-137034075D01*
X116949409Y-137017037D01*
X117581716Y-136384728D01*
X117527550Y-136345375D01*
X117517954Y-136340486D01*
X117467157Y-136292512D01*
X117450361Y-136224692D01*
X117472897Y-136158556D01*
X117517954Y-136119514D01*
X117527554Y-136114622D01*
X117581716Y-136075270D01*
X117581717Y-136075270D01*
X116949408Y-135442962D01*
X117012993Y-135425925D01*
X117127007Y-135360099D01*
X117220099Y-135267007D01*
X117285925Y-135152993D01*
X117302962Y-135089408D01*
X117935270Y-135721717D01*
G37*
%TD.AperFunction*%
%TA.AperFunction,Conductor*%
G36*
X171443039Y-100519685D02*
G01*
X171488794Y-100572489D01*
X171500000Y-100624000D01*
X171500000Y-144276000D01*
X171480315Y-144343039D01*
X171427511Y-144388794D01*
X171376000Y-144400000D01*
X60624000Y-144400000D01*
X60556961Y-144380315D01*
X60511206Y-144327511D01*
X60500000Y-144276000D01*
X60500000Y-138835428D01*
X62650000Y-138835428D01*
X62650000Y-139164571D01*
X62682261Y-139492139D01*
X62746474Y-139814956D01*
X62746475Y-139814961D01*
X62842025Y-140129946D01*
X62967985Y-140434039D01*
X62967987Y-140434044D01*
X63123137Y-140724309D01*
X63123148Y-140724327D01*
X63306007Y-140997995D01*
X63306010Y-140997999D01*
X63460364Y-141186081D01*
X63460365Y-141186081D01*
X64705748Y-139940698D01*
X64779588Y-140042330D01*
X64957670Y-140220412D01*
X65059300Y-140294251D01*
X63813917Y-141539633D01*
X63813917Y-141539634D01*
X64002000Y-141693989D01*
X64002004Y-141693992D01*
X64275672Y-141876851D01*
X64275690Y-141876862D01*
X64565955Y-142032012D01*
X64565960Y-142032014D01*
X64870053Y-142157974D01*
X65185038Y-142253524D01*
X65185043Y-142253525D01*
X65507860Y-142317738D01*
X65835428Y-142350000D01*
X66164572Y-142350000D01*
X66492139Y-142317738D01*
X66814956Y-142253525D01*
X66814961Y-142253524D01*
X67129946Y-142157974D01*
X67434039Y-142032014D01*
X67434044Y-142032012D01*
X67724309Y-141876862D01*
X67724327Y-141876851D01*
X67998004Y-141693986D01*
X68186081Y-141539635D01*
X68186082Y-141539634D01*
X66940698Y-140294251D01*
X67042330Y-140220412D01*
X67220412Y-140042330D01*
X67294251Y-139940699D01*
X68539634Y-141186082D01*
X68539635Y-141186081D01*
X68693986Y-140998004D01*
X68876851Y-140724327D01*
X68876862Y-140724309D01*
X69032012Y-140434044D01*
X69032014Y-140434039D01*
X69157974Y-140129946D01*
X69253524Y-139814961D01*
X69253525Y-139814956D01*
X69317738Y-139492139D01*
X69350000Y-139164571D01*
X69350000Y-138835428D01*
X69317738Y-138507860D01*
X69253525Y-138185043D01*
X69253524Y-138185038D01*
X69157974Y-137870053D01*
X69032014Y-137565960D01*
X69032012Y-137565955D01*
X68876862Y-137275690D01*
X68876851Y-137275672D01*
X68693992Y-137002004D01*
X68693989Y-137002000D01*
X68539634Y-136813917D01*
X68539633Y-136813917D01*
X67294250Y-138059300D01*
X67220412Y-137957670D01*
X67042330Y-137779588D01*
X66940697Y-137705747D01*
X68186081Y-136460365D01*
X68186081Y-136460364D01*
X67997999Y-136306010D01*
X67997995Y-136306007D01*
X67724327Y-136123148D01*
X67724309Y-136123137D01*
X67434044Y-135967987D01*
X67434039Y-135967985D01*
X67129946Y-135842025D01*
X66814961Y-135746475D01*
X66814956Y-135746474D01*
X66492139Y-135682261D01*
X66164572Y-135650000D01*
X65835428Y-135650000D01*
X65507860Y-135682261D01*
X65185043Y-135746474D01*
X65185038Y-135746475D01*
X64870053Y-135842025D01*
X64565960Y-135967985D01*
X64565955Y-135967987D01*
X64275690Y-136123137D01*
X64275672Y-136123148D01*
X64002004Y-136306007D01*
X64001999Y-136306010D01*
X63813917Y-136460364D01*
X63813917Y-136460365D01*
X65059301Y-137705748D01*
X64957670Y-137779588D01*
X64779588Y-137957670D01*
X64705748Y-138059301D01*
X63460365Y-136813917D01*
X63460364Y-136813917D01*
X63306010Y-137001999D01*
X63306007Y-137002004D01*
X63123148Y-137275672D01*
X63123137Y-137275690D01*
X62967987Y-137565955D01*
X62967985Y-137565960D01*
X62842025Y-137870053D01*
X62746475Y-138185038D01*
X62746474Y-138185043D01*
X62682261Y-138507860D01*
X62650000Y-138835428D01*
X60500000Y-138835428D01*
X60500000Y-134853713D01*
X74789500Y-134853713D01*
X74789500Y-135066287D01*
X74797282Y-135115418D01*
X74822735Y-135276127D01*
X74822754Y-135276243D01*
X74863857Y-135402745D01*
X74888444Y-135478414D01*
X74984951Y-135667820D01*
X75109890Y-135839786D01*
X75260209Y-135990105D01*
X75265106Y-135993663D01*
X75307771Y-136048994D01*
X75313750Y-136118607D01*
X75281144Y-136180402D01*
X75231229Y-136211685D01*
X75220673Y-136215183D01*
X75220663Y-136215187D01*
X75071342Y-136307289D01*
X74947289Y-136431342D01*
X74855187Y-136580663D01*
X74855185Y-136580668D01*
X74842083Y-136620208D01*
X74800001Y-136747203D01*
X74800001Y-136747204D01*
X74800000Y-136747204D01*
X74789500Y-136849983D01*
X74789500Y-138150001D01*
X74789501Y-138150018D01*
X74800000Y-138252796D01*
X74800001Y-138252799D01*
X74848355Y-138398720D01*
X74855186Y-138419334D01*
X74947288Y-138568656D01*
X75071344Y-138692712D01*
X75220666Y-138784814D01*
X75387203Y-138839999D01*
X75489991Y-138850500D01*
X76790008Y-138850499D01*
X76892797Y-138839999D01*
X77059334Y-138784814D01*
X77208656Y-138692712D01*
X77332712Y-138568656D01*
X77424814Y-138419334D01*
X77428312Y-138408775D01*
X77468082Y-138351332D01*
X77532598Y-138324507D01*
X77601374Y-138336821D01*
X77646334Y-138374891D01*
X77649890Y-138379785D01*
X77649894Y-138379790D01*
X77800213Y-138530109D01*
X77972179Y-138655048D01*
X77972181Y-138655049D01*
X77972184Y-138655051D01*
X78161588Y-138751557D01*
X78363757Y-138817246D01*
X78573713Y-138850500D01*
X78573714Y-138850500D01*
X78786286Y-138850500D01*
X78786287Y-138850500D01*
X78996243Y-138817246D01*
X79198412Y-138751557D01*
X79387816Y-138655051D01*
X79489767Y-138580980D01*
X79559786Y-138530109D01*
X79559788Y-138530106D01*
X79559792Y-138530104D01*
X79710104Y-138379792D01*
X79710106Y-138379788D01*
X79710109Y-138379786D01*
X79795890Y-138261717D01*
X79835051Y-138207816D01*
X79839793Y-138198508D01*
X79887763Y-138147711D01*
X79955583Y-138130911D01*
X80021719Y-138153445D01*
X80060763Y-138198500D01*
X80065373Y-138207547D01*
X80104728Y-138261716D01*
X80737037Y-137629408D01*
X80754075Y-137692993D01*
X80819901Y-137807007D01*
X80912993Y-137900099D01*
X81027007Y-137965925D01*
X81090590Y-137982962D01*
X80458282Y-138615269D01*
X80458282Y-138615270D01*
X80512449Y-138654624D01*
X80701782Y-138751095D01*
X80903870Y-138816757D01*
X81113754Y-138850000D01*
X81326246Y-138850000D01*
X81536127Y-138816757D01*
X81536130Y-138816757D01*
X81738217Y-138751095D01*
X81927554Y-138654622D01*
X81981716Y-138615270D01*
X81981717Y-138615270D01*
X81349408Y-137982962D01*
X81412993Y-137965925D01*
X81527007Y-137900099D01*
X81620099Y-137807007D01*
X81685925Y-137692993D01*
X81702962Y-137629409D01*
X82335270Y-138261717D01*
X82335270Y-138261716D01*
X82374622Y-138207554D01*
X82379514Y-138197954D01*
X82427488Y-138147157D01*
X82495308Y-138130361D01*
X82561444Y-138152897D01*
X82600486Y-138197954D01*
X82605375Y-138207550D01*
X82644728Y-138261716D01*
X83277037Y-137629408D01*
X83294075Y-137692993D01*
X83359901Y-137807007D01*
X83452993Y-137900099D01*
X83567007Y-137965925D01*
X83630590Y-137982962D01*
X82998282Y-138615269D01*
X82998282Y-138615270D01*
X83052449Y-138654624D01*
X83241782Y-138751095D01*
X83443870Y-138816757D01*
X83653754Y-138850000D01*
X83866246Y-138850000D01*
X84076127Y-138816757D01*
X84076130Y-138816757D01*
X84278217Y-138751095D01*
X84467554Y-138654622D01*
X84521716Y-138615270D01*
X84521717Y-138615270D01*
X83889408Y-137982962D01*
X83952993Y-137965925D01*
X84067007Y-137900099D01*
X84160099Y-137807007D01*
X84225925Y-137692993D01*
X84242962Y-137629408D01*
X84875270Y-138261717D01*
X84875270Y-138261716D01*
X84914622Y-138207554D01*
X84919514Y-138197954D01*
X84967488Y-138147157D01*
X85035308Y-138130361D01*
X85101444Y-138152897D01*
X85140486Y-138197954D01*
X85145375Y-138207550D01*
X85184728Y-138261716D01*
X85817037Y-137629408D01*
X85834075Y-137692993D01*
X85899901Y-137807007D01*
X85992993Y-137900099D01*
X86107007Y-137965925D01*
X86170590Y-137982962D01*
X85538282Y-138615269D01*
X85538282Y-138615270D01*
X85592449Y-138654624D01*
X85781782Y-138751095D01*
X85983870Y-138816757D01*
X86193754Y-138850000D01*
X86406246Y-138850000D01*
X86616127Y-138816757D01*
X86616130Y-138816757D01*
X86818217Y-138751095D01*
X87007554Y-138654622D01*
X87061716Y-138615270D01*
X87061717Y-138615270D01*
X86429408Y-137982962D01*
X86492993Y-137965925D01*
X86607007Y-137900099D01*
X86700099Y-137807007D01*
X86765925Y-137692993D01*
X86782962Y-137629409D01*
X87415270Y-138261717D01*
X87415270Y-138261716D01*
X87454622Y-138207555D01*
X87459232Y-138198507D01*
X87507205Y-138147709D01*
X87575025Y-138130912D01*
X87641161Y-138153447D01*
X87680204Y-138198504D01*
X87684949Y-138207817D01*
X87809890Y-138379786D01*
X87960213Y-138530109D01*
X88132179Y-138655048D01*
X88132181Y-138655049D01*
X88132184Y-138655051D01*
X88321588Y-138751557D01*
X88523757Y-138817246D01*
X88733713Y-138850500D01*
X88733714Y-138850500D01*
X88946286Y-138850500D01*
X88946287Y-138850500D01*
X89156243Y-138817246D01*
X89358412Y-138751557D01*
X89547816Y-138655051D01*
X89649767Y-138580980D01*
X89719786Y-138530109D01*
X89719788Y-138530106D01*
X89719792Y-138530104D01*
X89870104Y-138379792D01*
X89870106Y-138379788D01*
X89870109Y-138379786D01*
X89995048Y-138207820D01*
X89995047Y-138207820D01*
X89995051Y-138207816D01*
X89999514Y-138199054D01*
X90047488Y-138148259D01*
X90115308Y-138131463D01*
X90181444Y-138153999D01*
X90220486Y-138199056D01*
X90224951Y-138207820D01*
X90349890Y-138379786D01*
X90500213Y-138530109D01*
X90672179Y-138655048D01*
X90672181Y-138655049D01*
X90672184Y-138655051D01*
X90861588Y-138751557D01*
X91063757Y-138817246D01*
X91273713Y-138850500D01*
X91273714Y-138850500D01*
X91486286Y-138850500D01*
X91486287Y-138850500D01*
X91696243Y-138817246D01*
X91898412Y-138751557D01*
X92087816Y-138655051D01*
X92189767Y-138580980D01*
X92259786Y-138530109D01*
X92259788Y-138530106D01*
X92259792Y-138530104D01*
X92410104Y-138379792D01*
X92410106Y-138379788D01*
X92410109Y-138379786D01*
X92535048Y-138207820D01*
X92535047Y-138207820D01*
X92535051Y-138207816D01*
X92539514Y-138199054D01*
X92587488Y-138148259D01*
X92655308Y-138131463D01*
X92721444Y-138153999D01*
X92760486Y-138199056D01*
X92764951Y-138207820D01*
X92889890Y-138379786D01*
X93040213Y-138530109D01*
X93212179Y-138655048D01*
X93212181Y-138655049D01*
X93212184Y-138655051D01*
X93401588Y-138751557D01*
X93603757Y-138817246D01*
X93813713Y-138850500D01*
X93813714Y-138850500D01*
X94026286Y-138850500D01*
X94026287Y-138850500D01*
X94236243Y-138817246D01*
X94438412Y-138751557D01*
X94627816Y-138655051D01*
X94729767Y-138580980D01*
X94799786Y-138530109D01*
X94799788Y-138530106D01*
X94799792Y-138530104D01*
X94950104Y-138379792D01*
X94950106Y-138379788D01*
X94950109Y-138379786D01*
X95075048Y-138207820D01*
X95075047Y-138207820D01*
X95075051Y-138207816D01*
X95171557Y-138018412D01*
X95237246Y-137816243D01*
X95270500Y-137606287D01*
X95270500Y-137393713D01*
X95237246Y-137183757D01*
X95171557Y-136981588D01*
X95075051Y-136792184D01*
X95075049Y-136792181D01*
X95075048Y-136792179D01*
X94950109Y-136620213D01*
X94799786Y-136469890D01*
X94627820Y-136344951D01*
X94619600Y-136340763D01*
X94619054Y-136340485D01*
X94568259Y-136292512D01*
X94551463Y-136224692D01*
X94573999Y-136158556D01*
X94619054Y-136119515D01*
X94627816Y-136115051D01*
X94682572Y-136075269D01*
X94799786Y-135990109D01*
X94799788Y-135990106D01*
X94799792Y-135990104D01*
X94950104Y-135839792D01*
X94950106Y-135839788D01*
X94950109Y-135839786D01*
X95075048Y-135667820D01*
X95075049Y-135667819D01*
X95075051Y-135667816D01*
X95171557Y-135478412D01*
X95237246Y-135276243D01*
X95270500Y-135066287D01*
X95270500Y-134853713D01*
X107849500Y-134853713D01*
X107849500Y-135066287D01*
X107857282Y-135115418D01*
X107882735Y-135276127D01*
X107882754Y-135276243D01*
X107923857Y-135402745D01*
X107948444Y-135478414D01*
X108044951Y-135667820D01*
X108169890Y-135839786D01*
X108320209Y-135990105D01*
X108325106Y-135993663D01*
X108367771Y-136048994D01*
X108373750Y-136118607D01*
X108341144Y-136180402D01*
X108291229Y-136211685D01*
X108280673Y-136215183D01*
X108280663Y-136215187D01*
X108131342Y-136307289D01*
X108007289Y-136431342D01*
X107915187Y-136580663D01*
X107915185Y-136580668D01*
X107902083Y-136620208D01*
X107860001Y-136747203D01*
X107860001Y-136747204D01*
X107860000Y-136747204D01*
X107849500Y-136849983D01*
X107849500Y-138150001D01*
X107849501Y-138150018D01*
X107860000Y-138252796D01*
X107860001Y-138252799D01*
X107908355Y-138398720D01*
X107915186Y-138419334D01*
X108007288Y-138568656D01*
X108131344Y-138692712D01*
X108280666Y-138784814D01*
X108447203Y-138839999D01*
X108549991Y-138850500D01*
X109850008Y-138850499D01*
X109952797Y-138839999D01*
X110119334Y-138784814D01*
X110268656Y-138692712D01*
X110392712Y-138568656D01*
X110484814Y-138419334D01*
X110488312Y-138408775D01*
X110528082Y-138351332D01*
X110592598Y-138324507D01*
X110661374Y-138336821D01*
X110706334Y-138374891D01*
X110709890Y-138379785D01*
X110709894Y-138379790D01*
X110860213Y-138530109D01*
X111032179Y-138655048D01*
X111032181Y-138655049D01*
X111032184Y-138655051D01*
X111221588Y-138751557D01*
X111423757Y-138817246D01*
X111633713Y-138850500D01*
X111633714Y-138850500D01*
X111846286Y-138850500D01*
X111846287Y-138850500D01*
X112056243Y-138817246D01*
X112258412Y-138751557D01*
X112447816Y-138655051D01*
X112549767Y-138580980D01*
X112619786Y-138530109D01*
X112619788Y-138530106D01*
X112619792Y-138530104D01*
X112770104Y-138379792D01*
X112770106Y-138379788D01*
X112770109Y-138379786D01*
X112855890Y-138261717D01*
X112895051Y-138207816D01*
X112899793Y-138198508D01*
X112947763Y-138147711D01*
X113015583Y-138130911D01*
X113081719Y-138153445D01*
X113120763Y-138198500D01*
X113125373Y-138207547D01*
X113164728Y-138261716D01*
X113797037Y-137629408D01*
X113814075Y-137692993D01*
X113879901Y-137807007D01*
X113972993Y-137900099D01*
X114087007Y-137965925D01*
X114150590Y-137982962D01*
X113518282Y-138615269D01*
X113518282Y-138615270D01*
X113572449Y-138654624D01*
X113761782Y-138751095D01*
X113963870Y-138816757D01*
X114173754Y-138850000D01*
X114386246Y-138850000D01*
X114596127Y-138816757D01*
X114596130Y-138816757D01*
X114798217Y-138751095D01*
X114987554Y-138654622D01*
X115041716Y-138615270D01*
X115041717Y-138615270D01*
X114409408Y-137982962D01*
X114472993Y-137965925D01*
X114587007Y-137900099D01*
X114680099Y-137807007D01*
X114745925Y-137692993D01*
X114762962Y-137629409D01*
X115395270Y-138261717D01*
X115395270Y-138261716D01*
X115434622Y-138207554D01*
X115439514Y-138197954D01*
X115487488Y-138147157D01*
X115555308Y-138130361D01*
X115621444Y-138152897D01*
X115660486Y-138197954D01*
X115665375Y-138207550D01*
X115704728Y-138261716D01*
X116337037Y-137629408D01*
X116354075Y-137692993D01*
X116419901Y-137807007D01*
X116512993Y-137900099D01*
X116627007Y-137965925D01*
X116690590Y-137982962D01*
X116058282Y-138615269D01*
X116058282Y-138615270D01*
X116112449Y-138654624D01*
X116301782Y-138751095D01*
X116503870Y-138816757D01*
X116713754Y-138850000D01*
X116926246Y-138850000D01*
X117136127Y-138816757D01*
X117136130Y-138816757D01*
X117338217Y-138751095D01*
X117527554Y-138654622D01*
X117581716Y-138615270D01*
X117581717Y-138615270D01*
X116949408Y-137982962D01*
X117012993Y-137965925D01*
X117127007Y-137900099D01*
X117220099Y-137807007D01*
X117285925Y-137692993D01*
X117302962Y-137629408D01*
X117935270Y-138261717D01*
X117935270Y-138261716D01*
X117974622Y-138207554D01*
X117979514Y-138197954D01*
X118027488Y-138147157D01*
X118095308Y-138130361D01*
X118161444Y-138152897D01*
X118200486Y-138197954D01*
X118205375Y-138207550D01*
X118244728Y-138261716D01*
X118877037Y-137629408D01*
X118894075Y-137692993D01*
X118959901Y-137807007D01*
X119052993Y-137900099D01*
X119167007Y-137965925D01*
X119230590Y-137982962D01*
X118598282Y-138615269D01*
X118598282Y-138615270D01*
X118652449Y-138654624D01*
X118841782Y-138751095D01*
X119043870Y-138816757D01*
X119253754Y-138850000D01*
X119466246Y-138850000D01*
X119676127Y-138816757D01*
X119676130Y-138816757D01*
X119878217Y-138751095D01*
X120067554Y-138654622D01*
X120121716Y-138615270D01*
X120121717Y-138615270D01*
X119489408Y-137982962D01*
X119552993Y-137965925D01*
X119667007Y-137900099D01*
X119760099Y-137807007D01*
X119825925Y-137692993D01*
X119842962Y-137629408D01*
X120475270Y-138261717D01*
X120475270Y-138261716D01*
X120514622Y-138207554D01*
X120611095Y-138018217D01*
X120676757Y-137816130D01*
X120676757Y-137816127D01*
X120710000Y-137606246D01*
X120710000Y-137393753D01*
X120676757Y-137183872D01*
X120676757Y-137183869D01*
X120611095Y-136981782D01*
X120514624Y-136792449D01*
X120475270Y-136738282D01*
X119842962Y-137370590D01*
X119825925Y-137307007D01*
X119760099Y-137192993D01*
X119667007Y-137099901D01*
X119552993Y-137034075D01*
X119489409Y-137017037D01*
X120121716Y-136384728D01*
X120067547Y-136345373D01*
X120067547Y-136345372D01*
X120058500Y-136340763D01*
X120007706Y-136292788D01*
X119990912Y-136224966D01*
X120013451Y-136158832D01*
X120058508Y-136119793D01*
X120067816Y-136115051D01*
X120188165Y-136027613D01*
X120239786Y-135990109D01*
X120239788Y-135990106D01*
X120239792Y-135990104D01*
X120390104Y-135839792D01*
X120390106Y-135839788D01*
X120390109Y-135839786D01*
X120515048Y-135667820D01*
X120515049Y-135667819D01*
X120515051Y-135667816D01*
X120611557Y-135478412D01*
X120677246Y-135276243D01*
X120710500Y-135066287D01*
X120710500Y-134853713D01*
X120677246Y-134643757D01*
X120611557Y-134441588D01*
X120515051Y-134252184D01*
X120515049Y-134252181D01*
X120515048Y-134252179D01*
X120390109Y-134080213D01*
X120239786Y-133929890D01*
X120067820Y-133804951D01*
X119878414Y-133708444D01*
X119878413Y-133708443D01*
X119878412Y-133708443D01*
X119676243Y-133642754D01*
X119676241Y-133642753D01*
X119676240Y-133642753D01*
X119514957Y-133617208D01*
X119466287Y-133609500D01*
X119253713Y-133609500D01*
X119205042Y-133617208D01*
X119043760Y-133642753D01*
X118841585Y-133708444D01*
X118652179Y-133804951D01*
X118480213Y-133929890D01*
X118329890Y-134080213D01*
X118204949Y-134252182D01*
X118200202Y-134261499D01*
X118152227Y-134312293D01*
X118084405Y-134329087D01*
X118018271Y-134306548D01*
X117979234Y-134261495D01*
X117974626Y-134252452D01*
X117935270Y-134198282D01*
X117935269Y-134198282D01*
X117302962Y-134830590D01*
X117285925Y-134767007D01*
X117220099Y-134652993D01*
X117127007Y-134559901D01*
X117012993Y-134494075D01*
X116949409Y-134477037D01*
X117581716Y-133844728D01*
X117527550Y-133805375D01*
X117338217Y-133708904D01*
X117136129Y-133643242D01*
X116926246Y-133610000D01*
X116713754Y-133610000D01*
X116503872Y-133643242D01*
X116503869Y-133643242D01*
X116301782Y-133708904D01*
X116112439Y-133805380D01*
X116058282Y-133844727D01*
X116058282Y-133844728D01*
X116690591Y-134477037D01*
X116627007Y-134494075D01*
X116512993Y-134559901D01*
X116419901Y-134652993D01*
X116354075Y-134767007D01*
X116337037Y-134830591D01*
X115704728Y-134198282D01*
X115704727Y-134198282D01*
X115665380Y-134252440D01*
X115665376Y-134252446D01*
X115660760Y-134261505D01*
X115612781Y-134312297D01*
X115544959Y-134329087D01*
X115478826Y-134306543D01*
X115439794Y-134261493D01*
X115435051Y-134252184D01*
X115435049Y-134252181D01*
X115435048Y-134252179D01*
X115310109Y-134080213D01*
X115159786Y-133929890D01*
X114987820Y-133804951D01*
X114798414Y-133708444D01*
X114798413Y-133708443D01*
X114798412Y-133708443D01*
X114596243Y-133642754D01*
X114596241Y-133642753D01*
X114596240Y-133642753D01*
X114434957Y-133617208D01*
X114386287Y-133609500D01*
X114173713Y-133609500D01*
X114125042Y-133617208D01*
X113963760Y-133642753D01*
X113761585Y-133708444D01*
X113572179Y-133804951D01*
X113400213Y-133929890D01*
X113249890Y-134080213D01*
X113124949Y-134252182D01*
X113120484Y-134260946D01*
X113072509Y-134311742D01*
X113004688Y-134328536D01*
X112938553Y-134305998D01*
X112899516Y-134260946D01*
X112895050Y-134252182D01*
X112770109Y-134080213D01*
X112619786Y-133929890D01*
X112447820Y-133804951D01*
X112258414Y-133708444D01*
X112258413Y-133708443D01*
X112258412Y-133708443D01*
X112056243Y-133642754D01*
X112056241Y-133642753D01*
X112056240Y-133642753D01*
X111894957Y-133617208D01*
X111846287Y-133609500D01*
X111633713Y-133609500D01*
X111585042Y-133617208D01*
X111423760Y-133642753D01*
X111221585Y-133708444D01*
X111032179Y-133804951D01*
X110860213Y-133929890D01*
X110709890Y-134080213D01*
X110584949Y-134252182D01*
X110580484Y-134260946D01*
X110532509Y-134311742D01*
X110464688Y-134328536D01*
X110398553Y-134305998D01*
X110359516Y-134260946D01*
X110355050Y-134252182D01*
X110230109Y-134080213D01*
X110079786Y-133929890D01*
X109907820Y-133804951D01*
X109718414Y-133708444D01*
X109718413Y-133708443D01*
X109718412Y-133708443D01*
X109516243Y-133642754D01*
X109516241Y-133642753D01*
X109516240Y-133642753D01*
X109354957Y-133617208D01*
X109306287Y-133609500D01*
X109093713Y-133609500D01*
X109045042Y-133617208D01*
X108883760Y-133642753D01*
X108681585Y-133708444D01*
X108492179Y-133804951D01*
X108320213Y-133929890D01*
X108169890Y-134080213D01*
X108044951Y-134252179D01*
X107948444Y-134441585D01*
X107882753Y-134643760D01*
X107863233Y-134767007D01*
X107849500Y-134853713D01*
X95270500Y-134853713D01*
X95237246Y-134643757D01*
X95171557Y-134441588D01*
X95075051Y-134252184D01*
X95075049Y-134252181D01*
X95075048Y-134252179D01*
X94950109Y-134080213D01*
X94799786Y-133929890D01*
X94627820Y-133804951D01*
X94438414Y-133708444D01*
X94438413Y-133708443D01*
X94438412Y-133708443D01*
X94236243Y-133642754D01*
X94236241Y-133642753D01*
X94236240Y-133642753D01*
X94074957Y-133617208D01*
X94026287Y-133609500D01*
X93813713Y-133609500D01*
X93765042Y-133617208D01*
X93603760Y-133642753D01*
X93401585Y-133708444D01*
X93212179Y-133804951D01*
X93040213Y-133929890D01*
X92889890Y-134080213D01*
X92764949Y-134252182D01*
X92760484Y-134260946D01*
X92712509Y-134311742D01*
X92644688Y-134328536D01*
X92578553Y-134305998D01*
X92539516Y-134260946D01*
X92535050Y-134252182D01*
X92410109Y-134080213D01*
X92259786Y-133929890D01*
X92087820Y-133804951D01*
X91898414Y-133708444D01*
X91898413Y-133708443D01*
X91898412Y-133708443D01*
X91696243Y-133642754D01*
X91696241Y-133642753D01*
X91696240Y-133642753D01*
X91534957Y-133617208D01*
X91486287Y-133609500D01*
X91273713Y-133609500D01*
X91225042Y-133617208D01*
X91063760Y-133642753D01*
X90861585Y-133708444D01*
X90672179Y-133804951D01*
X90500213Y-133929890D01*
X90349890Y-134080213D01*
X90224949Y-134252182D01*
X90220484Y-134260946D01*
X90172509Y-134311742D01*
X90104688Y-134328536D01*
X90038553Y-134305998D01*
X89999516Y-134260946D01*
X89995050Y-134252182D01*
X89870109Y-134080213D01*
X89719786Y-133929890D01*
X89547820Y-133804951D01*
X89358414Y-133708444D01*
X89358413Y-133708443D01*
X89358412Y-133708443D01*
X89156243Y-133642754D01*
X89156241Y-133642753D01*
X89156240Y-133642753D01*
X88994957Y-133617208D01*
X88946287Y-133609500D01*
X88733713Y-133609500D01*
X88685042Y-133617208D01*
X88523760Y-133642753D01*
X88321585Y-133708444D01*
X88132179Y-133804951D01*
X87960213Y-133929890D01*
X87809890Y-134080213D01*
X87684949Y-134252182D01*
X87680202Y-134261499D01*
X87632227Y-134312293D01*
X87564405Y-134329087D01*
X87498271Y-134306548D01*
X87459234Y-134261495D01*
X87454626Y-134252452D01*
X87415270Y-134198282D01*
X87415269Y-134198282D01*
X86782962Y-134830590D01*
X86765925Y-134767007D01*
X86700099Y-134652993D01*
X86607007Y-134559901D01*
X86492993Y-134494075D01*
X86429409Y-134477037D01*
X87061716Y-133844728D01*
X87007550Y-133805375D01*
X86818217Y-133708904D01*
X86616129Y-133643242D01*
X86406246Y-133610000D01*
X86193754Y-133610000D01*
X85983872Y-133643242D01*
X85983869Y-133643242D01*
X85781782Y-133708904D01*
X85592439Y-133805380D01*
X85538282Y-133844727D01*
X85538282Y-133844728D01*
X86170591Y-134477037D01*
X86107007Y-134494075D01*
X85992993Y-134559901D01*
X85899901Y-134652993D01*
X85834075Y-134767007D01*
X85817037Y-134830591D01*
X85184728Y-134198282D01*
X85184727Y-134198282D01*
X85145380Y-134252440D01*
X85140483Y-134262051D01*
X85092506Y-134312845D01*
X85024684Y-134329638D01*
X84958550Y-134307098D01*
X84919516Y-134262048D01*
X84914626Y-134252452D01*
X84875270Y-134198282D01*
X84875269Y-134198282D01*
X84242962Y-134830590D01*
X84225925Y-134767007D01*
X84160099Y-134652993D01*
X84067007Y-134559901D01*
X83952993Y-134494075D01*
X83889409Y-134477037D01*
X84521716Y-133844728D01*
X84467550Y-133805375D01*
X84278217Y-133708904D01*
X84076129Y-133643242D01*
X83866246Y-133610000D01*
X83653754Y-133610000D01*
X83443872Y-133643242D01*
X83443869Y-133643242D01*
X83241782Y-133708904D01*
X83052439Y-133805380D01*
X82998282Y-133844727D01*
X82998282Y-133844728D01*
X83630591Y-134477037D01*
X83567007Y-134494075D01*
X83452993Y-134559901D01*
X83359901Y-134652993D01*
X83294075Y-134767007D01*
X83277037Y-134830591D01*
X82644728Y-134198282D01*
X82644727Y-134198282D01*
X82605380Y-134252440D01*
X82600483Y-134262051D01*
X82552506Y-134312845D01*
X82484684Y-134329638D01*
X82418550Y-134307098D01*
X82379516Y-134262048D01*
X82374626Y-134252452D01*
X82335270Y-134198282D01*
X82335269Y-134198282D01*
X81702962Y-134830590D01*
X81685925Y-134767007D01*
X81620099Y-134652993D01*
X81527007Y-134559901D01*
X81412993Y-134494075D01*
X81349409Y-134477037D01*
X81981716Y-133844728D01*
X81927550Y-133805375D01*
X81738217Y-133708904D01*
X81536129Y-133643242D01*
X81326246Y-133610000D01*
X81113754Y-133610000D01*
X80903872Y-133643242D01*
X80903869Y-133643242D01*
X80701782Y-133708904D01*
X80512439Y-133805380D01*
X80458282Y-133844727D01*
X80458282Y-133844728D01*
X81090591Y-134477037D01*
X81027007Y-134494075D01*
X80912993Y-134559901D01*
X80819901Y-134652993D01*
X80754075Y-134767007D01*
X80737037Y-134830591D01*
X80104728Y-134198282D01*
X80104727Y-134198282D01*
X80065380Y-134252440D01*
X80065376Y-134252446D01*
X80060760Y-134261505D01*
X80012781Y-134312297D01*
X79944959Y-134329087D01*
X79878826Y-134306543D01*
X79839794Y-134261493D01*
X79835051Y-134252184D01*
X79835049Y-134252181D01*
X79835048Y-134252179D01*
X79710109Y-134080213D01*
X79559786Y-133929890D01*
X79387820Y-133804951D01*
X79198414Y-133708444D01*
X79198413Y-133708443D01*
X79198412Y-133708443D01*
X78996243Y-133642754D01*
X78996241Y-133642753D01*
X78996240Y-133642753D01*
X78834957Y-133617208D01*
X78786287Y-133609500D01*
X78573713Y-133609500D01*
X78525042Y-133617208D01*
X78363760Y-133642753D01*
X78161585Y-133708444D01*
X77972179Y-133804951D01*
X77800213Y-133929890D01*
X77649890Y-134080213D01*
X77524949Y-134252182D01*
X77520484Y-134260946D01*
X77472509Y-134311742D01*
X77404688Y-134328536D01*
X77338553Y-134305998D01*
X77299516Y-134260946D01*
X77295050Y-134252182D01*
X77170109Y-134080213D01*
X77019786Y-133929890D01*
X76847820Y-133804951D01*
X76658414Y-133708444D01*
X76658413Y-133708443D01*
X76658412Y-133708443D01*
X76456243Y-133642754D01*
X76456241Y-133642753D01*
X76456240Y-133642753D01*
X76294957Y-133617208D01*
X76246287Y-133609500D01*
X76033713Y-133609500D01*
X75985042Y-133617208D01*
X75823760Y-133642753D01*
X75621585Y-133708444D01*
X75432179Y-133804951D01*
X75260213Y-133929890D01*
X75109890Y-134080213D01*
X74984951Y-134252179D01*
X74888444Y-134441585D01*
X74822753Y-134643760D01*
X74803233Y-134767007D01*
X74789500Y-134853713D01*
X60500000Y-134853713D01*
X60500000Y-120215920D01*
X62647899Y-120215920D01*
X62676740Y-120360907D01*
X62676743Y-120360917D01*
X62733314Y-120497492D01*
X62766212Y-120546727D01*
X62766213Y-120546730D01*
X62815446Y-120620414D01*
X62815452Y-120620421D01*
X65192384Y-122997352D01*
X65192386Y-122997354D01*
X65221858Y-123017045D01*
X65266070Y-123046586D01*
X65315305Y-123079484D01*
X65315306Y-123079484D01*
X65315307Y-123079485D01*
X65315309Y-123079486D01*
X65447046Y-123134053D01*
X65451887Y-123136058D01*
X65451891Y-123136058D01*
X65451892Y-123136059D01*
X65596879Y-123164900D01*
X65596882Y-123164900D01*
X65596883Y-123164900D01*
X65744717Y-123164900D01*
X99506970Y-123164900D01*
X99574009Y-123184585D01*
X99619764Y-123237389D01*
X99629708Y-123306547D01*
X99610072Y-123357791D01*
X99531990Y-123474647D01*
X99531983Y-123474659D01*
X99464106Y-123638532D01*
X99464103Y-123638541D01*
X99429500Y-123812504D01*
X99429500Y-123964500D01*
X99409815Y-124031539D01*
X99357011Y-124077294D01*
X99305500Y-124088500D01*
X90615361Y-124088500D01*
X90548322Y-124068815D01*
X90527679Y-124052180D01*
X90490038Y-124014538D01*
X90490034Y-124014535D01*
X90342553Y-123915990D01*
X90342540Y-123915983D01*
X90178667Y-123848106D01*
X90178658Y-123848103D01*
X90004694Y-123813500D01*
X90004691Y-123813500D01*
X89827309Y-123813500D01*
X89827306Y-123813500D01*
X89653341Y-123848103D01*
X89653332Y-123848106D01*
X89489459Y-123915983D01*
X89489446Y-123915990D01*
X89341965Y-124014535D01*
X89341961Y-124014538D01*
X89216538Y-124139961D01*
X89216535Y-124139965D01*
X89117990Y-124287446D01*
X89117983Y-124287459D01*
X89050106Y-124451332D01*
X89050103Y-124451341D01*
X89015500Y-124625304D01*
X89015500Y-124802695D01*
X89050103Y-124976658D01*
X89050106Y-124976667D01*
X89117983Y-125140540D01*
X89117990Y-125140553D01*
X89216535Y-125288034D01*
X89216538Y-125288038D01*
X89341961Y-125413461D01*
X89341965Y-125413464D01*
X89446165Y-125483089D01*
X89490970Y-125536701D01*
X89499677Y-125606026D01*
X89469522Y-125669054D01*
X89443143Y-125689742D01*
X89443718Y-125690602D01*
X89291165Y-125792535D01*
X89291161Y-125792538D01*
X89165738Y-125917961D01*
X89165735Y-125917965D01*
X89067190Y-126065446D01*
X89067183Y-126065459D01*
X88999306Y-126229332D01*
X88999303Y-126229341D01*
X88964700Y-126403304D01*
X88964700Y-126580695D01*
X88999303Y-126754658D01*
X88999306Y-126754667D01*
X89067183Y-126918540D01*
X89067190Y-126918553D01*
X89165735Y-127066034D01*
X89165738Y-127066038D01*
X89291161Y-127191461D01*
X89291165Y-127191464D01*
X89438646Y-127290009D01*
X89438659Y-127290016D01*
X89443060Y-127291839D01*
X89497464Y-127335680D01*
X89519529Y-127401974D01*
X89502250Y-127469673D01*
X89451113Y-127517284D01*
X89443060Y-127520961D01*
X89438659Y-127522783D01*
X89438646Y-127522790D01*
X89291165Y-127621335D01*
X89291161Y-127621338D01*
X89165738Y-127746761D01*
X89165735Y-127746765D01*
X89067190Y-127894246D01*
X89067183Y-127894259D01*
X88999306Y-128058132D01*
X88999303Y-128058141D01*
X88964700Y-128232104D01*
X88964700Y-128409495D01*
X88999303Y-128583458D01*
X88999306Y-128583467D01*
X89067183Y-128747340D01*
X89067190Y-128747353D01*
X89165735Y-128894834D01*
X89165738Y-128894838D01*
X89291161Y-129020261D01*
X89291165Y-129020264D01*
X89438646Y-129118809D01*
X89438659Y-129118816D01*
X89487850Y-129139191D01*
X89602534Y-129186694D01*
X89602536Y-129186694D01*
X89602541Y-129186696D01*
X89776504Y-129221299D01*
X89776507Y-129221300D01*
X89776509Y-129221300D01*
X89953893Y-129221300D01*
X89953894Y-129221299D01*
X90011882Y-129209764D01*
X90127858Y-129186696D01*
X90127861Y-129186694D01*
X90127866Y-129186694D01*
X90291747Y-129118813D01*
X90439235Y-129020264D01*
X90476879Y-128982620D01*
X90538201Y-128949134D01*
X90564561Y-128946300D01*
X98599118Y-128946300D01*
X98666157Y-128965985D01*
X98711912Y-129018789D01*
X98721856Y-129087947D01*
X98702220Y-129139191D01*
X98617590Y-129265846D01*
X98617583Y-129265859D01*
X98549706Y-129429732D01*
X98549703Y-129429741D01*
X98515100Y-129603704D01*
X98515100Y-129781095D01*
X98549703Y-129955058D01*
X98549706Y-129955067D01*
X98617583Y-130118940D01*
X98617590Y-130118953D01*
X98716135Y-130266434D01*
X98716138Y-130266438D01*
X98841561Y-130391861D01*
X98841565Y-130391864D01*
X98989046Y-130490409D01*
X98989059Y-130490416D01*
X99111963Y-130541323D01*
X99152934Y-130558294D01*
X99152936Y-130558294D01*
X99152941Y-130558296D01*
X99326904Y-130592899D01*
X99326907Y-130592900D01*
X99326909Y-130592900D01*
X99504293Y-130592900D01*
X99504294Y-130592899D01*
X99562282Y-130581364D01*
X99678258Y-130558296D01*
X99678261Y-130558294D01*
X99678266Y-130558294D01*
X99822831Y-130498414D01*
X99842140Y-130490416D01*
X99842140Y-130490415D01*
X99842147Y-130490413D01*
X99989635Y-130391864D01*
X100115064Y-130266435D01*
X100213613Y-130118947D01*
X100281494Y-129955066D01*
X100285217Y-129936348D01*
X100293262Y-129895908D01*
X100325647Y-129833997D01*
X100386363Y-129799423D01*
X100414879Y-129796100D01*
X122013100Y-129796100D01*
X122080139Y-129815785D01*
X122125894Y-129868589D01*
X122137100Y-129920100D01*
X122137100Y-130060495D01*
X122171703Y-130234458D01*
X122171706Y-130234467D01*
X122239583Y-130398340D01*
X122239590Y-130398353D01*
X122338135Y-130545834D01*
X122338138Y-130545838D01*
X122463561Y-130671261D01*
X122463565Y-130671264D01*
X122611046Y-130769809D01*
X122611059Y-130769816D01*
X122733963Y-130820723D01*
X122774934Y-130837694D01*
X122774936Y-130837694D01*
X122774941Y-130837696D01*
X122948904Y-130872299D01*
X122948907Y-130872300D01*
X122948909Y-130872300D01*
X123002148Y-130872300D01*
X123069187Y-130891985D01*
X123089829Y-130908619D01*
X123403739Y-131222529D01*
X123403742Y-131222533D01*
X123490867Y-131309658D01*
X123533504Y-131338147D01*
X123593315Y-131378112D01*
X123640019Y-131397457D01*
X123707148Y-131425263D01*
X123722246Y-131428266D01*
X123827991Y-131449299D01*
X123827992Y-131449300D01*
X123827993Y-131449300D01*
X123827994Y-131449300D01*
X142447153Y-131449300D01*
X142514192Y-131468985D01*
X142559947Y-131521789D01*
X142569891Y-131590947D01*
X142550255Y-131642191D01*
X142508790Y-131704246D01*
X142508783Y-131704259D01*
X142440906Y-131868132D01*
X142440903Y-131868141D01*
X142406300Y-132042104D01*
X142406300Y-132219495D01*
X142440903Y-132393458D01*
X142440906Y-132393467D01*
X142508783Y-132557340D01*
X142508790Y-132557353D01*
X142559476Y-132633209D01*
X142580354Y-132699886D01*
X142561870Y-132767267D01*
X142509891Y-132813957D01*
X142456374Y-132826100D01*
X137526407Y-132826100D01*
X137403193Y-132826100D01*
X137366061Y-132833486D01*
X137366060Y-132833485D01*
X137282355Y-132850135D01*
X137282345Y-132850138D01*
X137168516Y-132897287D01*
X137168507Y-132897292D01*
X137066068Y-132965740D01*
X137022505Y-133009303D01*
X136978942Y-133052867D01*
X136754144Y-133277664D01*
X136754138Y-133277672D01*
X136685690Y-133380108D01*
X136685688Y-133380113D01*
X136661836Y-133437699D01*
X136661836Y-133437700D01*
X136638538Y-133493945D01*
X136638535Y-133493955D01*
X136614500Y-133614789D01*
X136614500Y-133687019D01*
X136594815Y-133754058D01*
X136546797Y-133797503D01*
X136532180Y-133804950D01*
X136360213Y-133929890D01*
X136209890Y-134080213D01*
X136084949Y-134252182D01*
X136080484Y-134260946D01*
X136032509Y-134311742D01*
X135964688Y-134328536D01*
X135898553Y-134305998D01*
X135859516Y-134260946D01*
X135855050Y-134252182D01*
X135730109Y-134080213D01*
X135579786Y-133929890D01*
X135407820Y-133804951D01*
X135218414Y-133708444D01*
X135218413Y-133708443D01*
X135218412Y-133708443D01*
X135016243Y-133642754D01*
X135016241Y-133642753D01*
X135016240Y-133642753D01*
X134854957Y-133617208D01*
X134806287Y-133609500D01*
X134593713Y-133609500D01*
X134545042Y-133617208D01*
X134383760Y-133642753D01*
X134181585Y-133708444D01*
X133992179Y-133804951D01*
X133820213Y-133929890D01*
X133669890Y-134080213D01*
X133544950Y-134252180D01*
X133537503Y-134266797D01*
X133489527Y-134317592D01*
X133427019Y-134334500D01*
X132948389Y-134334500D01*
X132887971Y-134346518D01*
X132844743Y-134355116D01*
X132827546Y-134358537D01*
X132713716Y-134405687D01*
X132713707Y-134405692D01*
X132611268Y-134474140D01*
X132587060Y-134498349D01*
X132524142Y-134561267D01*
X131898944Y-135186464D01*
X131898938Y-135186472D01*
X131830490Y-135288908D01*
X131830488Y-135288913D01*
X131801569Y-135358731D01*
X131783338Y-135402743D01*
X131783338Y-135402745D01*
X131783337Y-135402748D01*
X131759300Y-135523594D01*
X131759300Y-135523596D01*
X131759300Y-141692011D01*
X131783335Y-141812844D01*
X131783340Y-141812861D01*
X131830485Y-141926680D01*
X131830487Y-141926683D01*
X131830488Y-141926686D01*
X131864715Y-141977909D01*
X131898942Y-142029133D01*
X131986067Y-142116258D01*
X131986069Y-142116259D01*
X131996033Y-142126223D01*
X132443262Y-142573454D01*
X132443265Y-142573457D01*
X132494490Y-142607684D01*
X132545714Y-142641911D01*
X132659548Y-142689063D01*
X132780388Y-142713099D01*
X132780392Y-142713100D01*
X132780393Y-142713100D01*
X159827607Y-142713100D01*
X159888029Y-142701081D01*
X159948452Y-142689063D01*
X159981792Y-142675252D01*
X160062286Y-142641912D01*
X160113509Y-142607684D01*
X160164733Y-142573458D01*
X160251858Y-142486333D01*
X160251858Y-142486331D01*
X160262066Y-142476124D01*
X160262067Y-142476121D01*
X161342034Y-141396155D01*
X161403355Y-141362672D01*
X161449208Y-141362262D01*
X161449244Y-141361903D01*
X161452592Y-141362232D01*
X161453906Y-141362221D01*
X161455309Y-141362500D01*
X161455310Y-141362500D01*
X161632693Y-141362500D01*
X161632694Y-141362499D01*
X161709946Y-141347133D01*
X161806658Y-141327896D01*
X161806661Y-141327894D01*
X161806666Y-141327894D01*
X161970547Y-141260013D01*
X162118035Y-141161464D01*
X162243464Y-141036035D01*
X162342013Y-140888547D01*
X162409894Y-140724666D01*
X162409962Y-140724327D01*
X162444499Y-140550695D01*
X162444500Y-140550693D01*
X162444500Y-140373306D01*
X162422785Y-140264141D01*
X162422834Y-140263586D01*
X162422580Y-140263089D01*
X162425944Y-140228827D01*
X162429012Y-140194549D01*
X162429354Y-140194107D01*
X162429409Y-140193554D01*
X162450734Y-140166585D01*
X162471875Y-140139372D01*
X162472517Y-140139039D01*
X162472747Y-140138749D01*
X162474709Y-140137904D01*
X162504161Y-140122660D01*
X162512033Y-140119958D01*
X162568666Y-140108694D01*
X162683489Y-140061132D01*
X162687130Y-140059884D01*
X162718337Y-140058481D01*
X162749388Y-140055143D01*
X162752949Y-140056925D01*
X162756929Y-140056747D01*
X162783942Y-140072440D01*
X162811867Y-140086419D01*
X162814478Y-140090180D01*
X162817344Y-140091845D01*
X162822149Y-140101228D01*
X162841932Y-140129720D01*
X162967985Y-140434039D01*
X162967987Y-140434044D01*
X163123137Y-140724309D01*
X163123148Y-140724327D01*
X163306007Y-140997995D01*
X163306010Y-140997999D01*
X163460364Y-141186081D01*
X163460365Y-141186081D01*
X164705748Y-139940698D01*
X164779588Y-140042330D01*
X164957670Y-140220412D01*
X165059300Y-140294251D01*
X163813917Y-141539633D01*
X163813917Y-141539634D01*
X164002000Y-141693989D01*
X164002004Y-141693992D01*
X164275672Y-141876851D01*
X164275690Y-141876862D01*
X164565955Y-142032012D01*
X164565960Y-142032014D01*
X164870053Y-142157974D01*
X165185038Y-142253524D01*
X165185043Y-142253525D01*
X165507860Y-142317738D01*
X165835428Y-142350000D01*
X166164572Y-142350000D01*
X166492139Y-142317738D01*
X166814956Y-142253525D01*
X166814961Y-142253524D01*
X167129946Y-142157974D01*
X167434039Y-142032014D01*
X167434044Y-142032012D01*
X167724309Y-141876862D01*
X167724327Y-141876851D01*
X167998004Y-141693986D01*
X168186081Y-141539635D01*
X168186082Y-141539634D01*
X166940698Y-140294251D01*
X167042330Y-140220412D01*
X167220412Y-140042330D01*
X167294251Y-139940699D01*
X168539634Y-141186082D01*
X168539635Y-141186081D01*
X168693986Y-140998004D01*
X168876851Y-140724327D01*
X168876862Y-140724309D01*
X169032012Y-140434044D01*
X169032014Y-140434039D01*
X169157974Y-140129946D01*
X169253524Y-139814961D01*
X169253525Y-139814956D01*
X169317738Y-139492139D01*
X169350000Y-139164571D01*
X169350000Y-138835428D01*
X169317738Y-138507860D01*
X169253525Y-138185043D01*
X169253524Y-138185038D01*
X169157974Y-137870053D01*
X169032014Y-137565960D01*
X169032012Y-137565955D01*
X168876862Y-137275690D01*
X168876851Y-137275672D01*
X168693992Y-137002004D01*
X168693989Y-137002000D01*
X168539634Y-136813917D01*
X168539633Y-136813917D01*
X167294250Y-138059300D01*
X167220412Y-137957670D01*
X167042330Y-137779588D01*
X166940697Y-137705747D01*
X168186081Y-136460365D01*
X168186081Y-136460364D01*
X167997999Y-136306010D01*
X167997995Y-136306007D01*
X167724327Y-136123148D01*
X167724309Y-136123137D01*
X167434044Y-135967987D01*
X167434039Y-135967985D01*
X167129946Y-135842025D01*
X166814961Y-135746475D01*
X166814956Y-135746474D01*
X166492139Y-135682261D01*
X166164572Y-135650000D01*
X165835428Y-135650000D01*
X165507860Y-135682261D01*
X165185043Y-135746474D01*
X165185038Y-135746475D01*
X164870053Y-135842025D01*
X164565960Y-135967985D01*
X164565955Y-135967987D01*
X164275690Y-136123137D01*
X164275672Y-136123148D01*
X164002004Y-136306007D01*
X164001999Y-136306010D01*
X163813917Y-136460364D01*
X163813917Y-136460365D01*
X165059301Y-137705748D01*
X164957670Y-137779588D01*
X164779588Y-137957670D01*
X164705748Y-138059301D01*
X163460365Y-136813917D01*
X163460364Y-136813917D01*
X163306010Y-137001999D01*
X163306007Y-137002004D01*
X163123148Y-137275672D01*
X163123137Y-137275690D01*
X162967987Y-137565955D01*
X162967985Y-137565960D01*
X162842025Y-137870053D01*
X162746475Y-138185038D01*
X162746475Y-138185040D01*
X162727054Y-138282672D01*
X162694668Y-138344583D01*
X162633952Y-138379157D01*
X162574796Y-138377310D01*
X162574641Y-138378094D01*
X162569941Y-138377159D01*
X162569452Y-138377144D01*
X162568664Y-138376905D01*
X162394694Y-138342300D01*
X162394691Y-138342300D01*
X162217309Y-138342300D01*
X162217306Y-138342300D01*
X162043341Y-138376903D01*
X162043332Y-138376906D01*
X161879459Y-138444783D01*
X161879446Y-138444790D01*
X161731965Y-138543335D01*
X161731961Y-138543338D01*
X161694321Y-138580980D01*
X161632999Y-138614466D01*
X161606639Y-138617300D01*
X160212389Y-138617300D01*
X160151971Y-138629318D01*
X160108743Y-138637916D01*
X160091546Y-138641337D01*
X159977716Y-138688487D01*
X159977707Y-138688492D01*
X159875268Y-138756940D01*
X159847397Y-138784812D01*
X159788142Y-138844067D01*
X159788139Y-138844070D01*
X158113629Y-140518581D01*
X158052306Y-140552066D01*
X158025948Y-140554900D01*
X155079083Y-140554900D01*
X155012044Y-140535215D01*
X154966289Y-140482411D01*
X154956345Y-140413253D01*
X154964522Y-140383447D01*
X154982663Y-140339652D01*
X155006700Y-140218806D01*
X155006700Y-139078561D01*
X155026385Y-139011522D01*
X155043020Y-138990879D01*
X155080661Y-138953238D01*
X155080664Y-138953235D01*
X155179213Y-138805747D01*
X155247094Y-138641866D01*
X155247200Y-138641337D01*
X155281699Y-138467895D01*
X155281700Y-138467893D01*
X155281700Y-138290506D01*
X155281699Y-138290504D01*
X155247096Y-138116541D01*
X155247093Y-138116532D01*
X155179216Y-137952659D01*
X155179209Y-137952646D01*
X155080664Y-137805165D01*
X155080661Y-137805161D01*
X154955238Y-137679738D01*
X154955234Y-137679735D01*
X154807753Y-137581190D01*
X154807740Y-137581183D01*
X154643867Y-137513306D01*
X154643858Y-137513303D01*
X154469894Y-137478700D01*
X154469891Y-137478700D01*
X154292509Y-137478700D01*
X154292506Y-137478700D01*
X154118541Y-137513303D01*
X154118532Y-137513306D01*
X153954659Y-137581183D01*
X153954646Y-137581190D01*
X153807165Y-137679735D01*
X153807161Y-137679738D01*
X153681738Y-137805161D01*
X153681735Y-137805165D01*
X153583190Y-137952646D01*
X153583183Y-137952659D01*
X153515306Y-138116532D01*
X153515303Y-138116541D01*
X153480700Y-138290504D01*
X153480700Y-138467895D01*
X153515303Y-138641858D01*
X153515306Y-138641867D01*
X153583183Y-138805740D01*
X153583190Y-138805753D01*
X153681735Y-138953234D01*
X153681738Y-138953238D01*
X153719380Y-138990879D01*
X153752866Y-139052201D01*
X153755700Y-139078561D01*
X153755700Y-139846748D01*
X153747055Y-139876188D01*
X153740532Y-139906175D01*
X153736777Y-139911190D01*
X153736015Y-139913787D01*
X153719381Y-139934429D01*
X153585229Y-140068581D01*
X153523906Y-140102066D01*
X153497548Y-140104900D01*
X152168406Y-140104900D01*
X152101367Y-140085215D01*
X152055612Y-140032411D01*
X152045668Y-139963253D01*
X152053845Y-139933448D01*
X152077562Y-139876188D01*
X152087063Y-139853251D01*
X152111101Y-139732406D01*
X152111101Y-139609193D01*
X152111101Y-139604083D01*
X152111100Y-139604057D01*
X152111100Y-139129361D01*
X152130785Y-139062322D01*
X152147420Y-139041679D01*
X152185061Y-139004038D01*
X152185064Y-139004035D01*
X152283613Y-138856547D01*
X152351494Y-138692666D01*
X152352325Y-138688492D01*
X152383829Y-138530109D01*
X152386100Y-138518691D01*
X152386100Y-138341309D01*
X152386100Y-138341306D01*
X152386099Y-138341304D01*
X152351496Y-138167341D01*
X152351493Y-138167332D01*
X152345970Y-138153999D01*
X152289810Y-138018414D01*
X152283616Y-138003459D01*
X152283609Y-138003446D01*
X152185064Y-137855965D01*
X152185061Y-137855961D01*
X152059638Y-137730538D01*
X152059634Y-137730535D01*
X151912153Y-137631990D01*
X151912140Y-137631983D01*
X151748267Y-137564106D01*
X151748258Y-137564103D01*
X151574294Y-137529500D01*
X151574291Y-137529500D01*
X151396909Y-137529500D01*
X151396906Y-137529500D01*
X151222941Y-137564103D01*
X151222932Y-137564106D01*
X151059059Y-137631983D01*
X151059046Y-137631990D01*
X150911565Y-137730535D01*
X150911561Y-137730538D01*
X150786138Y-137855961D01*
X150786135Y-137855965D01*
X150687590Y-138003446D01*
X150687583Y-138003459D01*
X150619706Y-138167332D01*
X150619703Y-138167341D01*
X150585100Y-138341304D01*
X150585100Y-138518695D01*
X150619703Y-138692658D01*
X150619706Y-138692667D01*
X150687583Y-138856540D01*
X150687590Y-138856553D01*
X150786135Y-139004034D01*
X150786138Y-139004038D01*
X150823780Y-139041679D01*
X150838485Y-139068609D01*
X150855077Y-139094426D01*
X150855968Y-139100624D01*
X150857266Y-139103001D01*
X150860100Y-139129361D01*
X150860100Y-139360347D01*
X150840415Y-139427386D01*
X150823781Y-139448028D01*
X150653229Y-139618581D01*
X150591906Y-139652066D01*
X150565548Y-139654900D01*
X140692453Y-139654900D01*
X140625414Y-139635215D01*
X140604772Y-139618581D01*
X140441819Y-139455628D01*
X140408334Y-139394305D01*
X140405500Y-139367947D01*
X140405500Y-138772980D01*
X140425185Y-138705941D01*
X140473208Y-138662494D01*
X140487818Y-138655050D01*
X140659786Y-138530109D01*
X140659788Y-138530106D01*
X140659792Y-138530104D01*
X140810104Y-138379792D01*
X140810106Y-138379788D01*
X140810109Y-138379786D01*
X140935048Y-138207820D01*
X140935047Y-138207820D01*
X140935051Y-138207816D01*
X140939514Y-138199054D01*
X140987488Y-138148259D01*
X141055308Y-138131463D01*
X141121444Y-138153999D01*
X141160486Y-138199056D01*
X141164951Y-138207820D01*
X141289890Y-138379786D01*
X141440213Y-138530109D01*
X141612179Y-138655048D01*
X141612181Y-138655049D01*
X141612184Y-138655051D01*
X141801588Y-138751557D01*
X142003757Y-138817246D01*
X142213713Y-138850500D01*
X142213714Y-138850500D01*
X142426286Y-138850500D01*
X142426287Y-138850500D01*
X142636243Y-138817246D01*
X142838412Y-138751557D01*
X143027816Y-138655051D01*
X143129767Y-138580980D01*
X143199786Y-138530109D01*
X143199788Y-138530106D01*
X143199792Y-138530104D01*
X143350104Y-138379792D01*
X143350106Y-138379788D01*
X143350109Y-138379786D01*
X143475048Y-138207820D01*
X143475047Y-138207820D01*
X143475051Y-138207816D01*
X143479514Y-138199054D01*
X143527488Y-138148259D01*
X143595308Y-138131463D01*
X143661444Y-138153999D01*
X143700486Y-138199056D01*
X143704951Y-138207820D01*
X143829890Y-138379786D01*
X143980213Y-138530109D01*
X144152179Y-138655048D01*
X144152181Y-138655049D01*
X144152184Y-138655051D01*
X144341588Y-138751557D01*
X144543757Y-138817246D01*
X144753713Y-138850500D01*
X144753714Y-138850500D01*
X144966286Y-138850500D01*
X144966287Y-138850500D01*
X145176243Y-138817246D01*
X145378412Y-138751557D01*
X145567816Y-138655051D01*
X145669767Y-138580980D01*
X145739786Y-138530109D01*
X145739788Y-138530106D01*
X145739792Y-138530104D01*
X145890104Y-138379792D01*
X145890106Y-138379788D01*
X145890109Y-138379786D01*
X146015048Y-138207820D01*
X146015047Y-138207820D01*
X146015051Y-138207816D01*
X146111557Y-138018412D01*
X146177246Y-137816243D01*
X146210500Y-137606287D01*
X146210500Y-137393713D01*
X146177246Y-137183757D01*
X146111557Y-136981588D01*
X146015051Y-136792184D01*
X146015049Y-136792181D01*
X146015048Y-136792179D01*
X145890109Y-136620213D01*
X145739786Y-136469890D01*
X145567817Y-136344949D01*
X145558504Y-136340204D01*
X145507707Y-136292230D01*
X145490912Y-136224409D01*
X145513449Y-136158274D01*
X145558507Y-136119232D01*
X145567555Y-136114622D01*
X145621716Y-136075270D01*
X145621717Y-136075270D01*
X144989408Y-135442962D01*
X145052993Y-135425925D01*
X145167007Y-135360099D01*
X145260099Y-135267007D01*
X145325925Y-135152993D01*
X145342962Y-135089409D01*
X145975270Y-135721717D01*
X145975270Y-135721716D01*
X146014622Y-135667554D01*
X146111095Y-135478217D01*
X146176757Y-135276130D01*
X146176757Y-135276127D01*
X146198175Y-135140904D01*
X152820300Y-135140904D01*
X152820300Y-135318295D01*
X152854903Y-135492258D01*
X152854906Y-135492267D01*
X152922783Y-135656140D01*
X152922790Y-135656153D01*
X153021335Y-135803634D01*
X153021338Y-135803638D01*
X153146761Y-135929061D01*
X153146765Y-135929064D01*
X153294246Y-136027609D01*
X153294259Y-136027616D01*
X153409306Y-136075269D01*
X153458134Y-136095494D01*
X153458136Y-136095494D01*
X153458141Y-136095496D01*
X153632104Y-136130099D01*
X153632107Y-136130100D01*
X153632109Y-136130100D01*
X153809493Y-136130100D01*
X153809494Y-136130099D01*
X153887304Y-136114622D01*
X153983458Y-136095496D01*
X153983461Y-136095494D01*
X153983466Y-136095494D01*
X154147347Y-136027613D01*
X154294835Y-135929064D01*
X154332479Y-135891420D01*
X154393801Y-135857934D01*
X154420161Y-135855100D01*
X162673439Y-135855100D01*
X162740478Y-135874785D01*
X162761115Y-135891414D01*
X162810031Y-135940330D01*
X162849566Y-135979865D01*
X162997046Y-136078409D01*
X162997059Y-136078416D01*
X163096285Y-136119516D01*
X163160934Y-136146294D01*
X163160936Y-136146294D01*
X163160941Y-136146296D01*
X163334904Y-136180899D01*
X163334907Y-136180900D01*
X163334909Y-136180900D01*
X163512293Y-136180900D01*
X163512294Y-136180899D01*
X163593588Y-136164729D01*
X163686258Y-136146296D01*
X163686261Y-136146294D01*
X163686266Y-136146294D01*
X163850147Y-136078413D01*
X163997635Y-135979864D01*
X164123064Y-135854435D01*
X164221613Y-135706947D01*
X164289494Y-135543066D01*
X164293368Y-135523594D01*
X164324099Y-135369095D01*
X164324100Y-135369093D01*
X164324100Y-135191706D01*
X164324099Y-135191704D01*
X164289496Y-135017741D01*
X164289493Y-135017732D01*
X164221616Y-134853859D01*
X164221609Y-134853846D01*
X164123064Y-134706365D01*
X164123061Y-134706361D01*
X163997638Y-134580938D01*
X163997634Y-134580935D01*
X163850153Y-134482390D01*
X163850140Y-134482383D01*
X163686267Y-134414506D01*
X163686258Y-134414503D01*
X163512294Y-134379900D01*
X163512291Y-134379900D01*
X163334909Y-134379900D01*
X163334906Y-134379900D01*
X163160941Y-134414503D01*
X163160932Y-134414506D01*
X162997059Y-134482383D01*
X162997046Y-134482390D01*
X162846173Y-134583202D01*
X162779496Y-134604080D01*
X162777282Y-134604100D01*
X154420161Y-134604100D01*
X154353122Y-134584415D01*
X154332479Y-134567780D01*
X154294838Y-134530138D01*
X154294834Y-134530135D01*
X154147353Y-134431590D01*
X154147340Y-134431583D01*
X153983467Y-134363706D01*
X153983458Y-134363703D01*
X153809494Y-134329100D01*
X153809491Y-134329100D01*
X153632109Y-134329100D01*
X153632106Y-134329100D01*
X153458141Y-134363703D01*
X153458132Y-134363706D01*
X153294259Y-134431583D01*
X153294246Y-134431590D01*
X153146765Y-134530135D01*
X153146761Y-134530138D01*
X153021338Y-134655561D01*
X153021335Y-134655565D01*
X152922790Y-134803046D01*
X152922783Y-134803059D01*
X152854906Y-134966932D01*
X152854903Y-134966941D01*
X152820300Y-135140904D01*
X146198175Y-135140904D01*
X146202212Y-135115419D01*
X146202212Y-135115418D01*
X146210000Y-135066247D01*
X146210000Y-134853753D01*
X146176757Y-134643872D01*
X146176757Y-134643869D01*
X146111095Y-134441782D01*
X146017145Y-134257395D01*
X146004249Y-134188726D01*
X146030525Y-134123985D01*
X146087632Y-134083728D01*
X146127630Y-134077100D01*
X158812639Y-134077100D01*
X158879678Y-134096785D01*
X158900321Y-134113420D01*
X158937961Y-134151061D01*
X158937965Y-134151064D01*
X159085446Y-134249609D01*
X159085459Y-134249616D01*
X159208363Y-134300523D01*
X159249334Y-134317494D01*
X159249336Y-134317494D01*
X159249341Y-134317496D01*
X159423304Y-134352099D01*
X159423307Y-134352100D01*
X159423309Y-134352100D01*
X159600693Y-134352100D01*
X159600694Y-134352099D01*
X159689172Y-134334500D01*
X159774658Y-134317496D01*
X159774661Y-134317494D01*
X159774666Y-134317494D01*
X159931693Y-134252452D01*
X159938540Y-134249616D01*
X159938540Y-134249615D01*
X159938547Y-134249613D01*
X160086035Y-134151064D01*
X160211464Y-134025635D01*
X160310013Y-133878147D01*
X160313181Y-133870500D01*
X160323856Y-133844727D01*
X160377894Y-133714266D01*
X160379053Y-133708443D01*
X160412499Y-133540295D01*
X160412500Y-133540293D01*
X160412500Y-133362906D01*
X160398732Y-133293692D01*
X160404959Y-133224100D01*
X160447822Y-133168923D01*
X160513711Y-133145678D01*
X160520349Y-133145500D01*
X163652019Y-133145500D01*
X163719058Y-133165185D01*
X163762503Y-133213203D01*
X163769950Y-133227819D01*
X163894890Y-133399786D01*
X164045213Y-133550109D01*
X164217179Y-133675048D01*
X164217181Y-133675049D01*
X164217184Y-133675051D01*
X164406588Y-133771557D01*
X164608757Y-133837246D01*
X164818713Y-133870500D01*
X164818714Y-133870500D01*
X165031286Y-133870500D01*
X165031287Y-133870500D01*
X165241243Y-133837246D01*
X165443412Y-133771557D01*
X165632816Y-133675051D01*
X165677271Y-133642753D01*
X165804786Y-133550109D01*
X165804788Y-133550106D01*
X165804792Y-133550104D01*
X165955104Y-133399792D01*
X165955106Y-133399788D01*
X165955109Y-133399786D01*
X166043832Y-133277667D01*
X166080051Y-133227816D01*
X166084793Y-133218508D01*
X166132763Y-133167711D01*
X166200583Y-133150911D01*
X166266719Y-133173445D01*
X166305763Y-133218500D01*
X166310377Y-133227555D01*
X166435272Y-133399459D01*
X166435276Y-133399464D01*
X166585535Y-133549723D01*
X166585540Y-133549727D01*
X166757442Y-133674620D01*
X166946782Y-133771095D01*
X167148871Y-133836757D01*
X167215000Y-133847231D01*
X167215000Y-132953012D01*
X167272007Y-132985925D01*
X167399174Y-133020000D01*
X167530826Y-133020000D01*
X167657993Y-132985925D01*
X167715000Y-132953012D01*
X167715000Y-133847230D01*
X167781126Y-133836757D01*
X167781129Y-133836757D01*
X167983217Y-133771095D01*
X168172557Y-133674620D01*
X168344459Y-133549727D01*
X168344464Y-133549723D01*
X168494723Y-133399464D01*
X168494727Y-133399459D01*
X168619620Y-133227557D01*
X168716095Y-133038217D01*
X168781757Y-132836129D01*
X168781757Y-132836126D01*
X168792231Y-132770000D01*
X167898012Y-132770000D01*
X167930925Y-132712993D01*
X167965000Y-132585826D01*
X167965000Y-132454174D01*
X167930925Y-132327007D01*
X167898012Y-132270000D01*
X168792231Y-132270000D01*
X168781757Y-132203873D01*
X168781757Y-132203870D01*
X168716095Y-132001782D01*
X168619620Y-131812442D01*
X168494727Y-131640540D01*
X168494723Y-131640535D01*
X168344464Y-131490276D01*
X168344459Y-131490272D01*
X168172555Y-131365377D01*
X168163500Y-131360763D01*
X168112706Y-131312788D01*
X168095912Y-131244966D01*
X168118451Y-131178832D01*
X168163508Y-131139793D01*
X168172816Y-131135051D01*
X168252007Y-131077515D01*
X168344786Y-131010109D01*
X168344788Y-131010106D01*
X168344792Y-131010104D01*
X168495104Y-130859792D01*
X168495106Y-130859788D01*
X168495109Y-130859786D01*
X168620048Y-130687820D01*
X168620047Y-130687820D01*
X168620051Y-130687816D01*
X168716557Y-130498412D01*
X168782246Y-130296243D01*
X168815500Y-130086287D01*
X168815500Y-129873713D01*
X168782246Y-129663757D01*
X168716557Y-129461588D01*
X168620051Y-129272184D01*
X168620049Y-129272181D01*
X168620048Y-129272179D01*
X168495109Y-129100213D01*
X168344786Y-128949890D01*
X168172820Y-128824951D01*
X168172115Y-128824591D01*
X168164054Y-128820485D01*
X168113259Y-128772512D01*
X168096463Y-128704692D01*
X168118999Y-128638556D01*
X168164054Y-128599515D01*
X168172816Y-128595051D01*
X168194789Y-128579086D01*
X168344786Y-128470109D01*
X168344788Y-128470106D01*
X168344792Y-128470104D01*
X168495104Y-128319792D01*
X168495106Y-128319788D01*
X168495109Y-128319786D01*
X168620048Y-128147820D01*
X168620047Y-128147820D01*
X168620051Y-128147816D01*
X168716557Y-127958412D01*
X168782246Y-127756243D01*
X168815500Y-127546287D01*
X168815500Y-127333713D01*
X168782246Y-127123757D01*
X168716557Y-126921588D01*
X168620051Y-126732184D01*
X168620049Y-126732181D01*
X168620048Y-126732179D01*
X168495109Y-126560213D01*
X168344786Y-126409890D01*
X168172820Y-126284951D01*
X168168337Y-126282667D01*
X168164054Y-126280485D01*
X168113259Y-126232512D01*
X168096463Y-126164692D01*
X168118999Y-126098556D01*
X168164054Y-126059515D01*
X168172816Y-126055051D01*
X168195690Y-126038432D01*
X168344786Y-125930109D01*
X168344788Y-125930106D01*
X168344792Y-125930104D01*
X168495104Y-125779792D01*
X168495106Y-125779788D01*
X168495109Y-125779786D01*
X168613625Y-125616661D01*
X168620051Y-125607816D01*
X168716557Y-125418412D01*
X168782246Y-125216243D01*
X168815500Y-125006287D01*
X168815500Y-124793713D01*
X168782246Y-124583757D01*
X168716557Y-124381588D01*
X168620051Y-124192184D01*
X168620049Y-124192181D01*
X168620048Y-124192179D01*
X168495109Y-124020213D01*
X168344786Y-123869890D01*
X168172820Y-123744951D01*
X167983414Y-123648444D01*
X167983413Y-123648443D01*
X167983412Y-123648443D01*
X167781243Y-123582754D01*
X167781241Y-123582753D01*
X167781240Y-123582753D01*
X167619957Y-123557208D01*
X167571287Y-123549500D01*
X167358713Y-123549500D01*
X167310042Y-123557208D01*
X167148760Y-123582753D01*
X167059932Y-123611615D01*
X166999349Y-123631300D01*
X166946585Y-123648444D01*
X166757179Y-123744951D01*
X166585215Y-123869889D01*
X166471673Y-123983431D01*
X166410350Y-124016915D01*
X166340658Y-124011931D01*
X166284725Y-123970059D01*
X166267810Y-123939082D01*
X166218797Y-123807671D01*
X166218793Y-123807664D01*
X166132547Y-123692455D01*
X166132544Y-123692452D01*
X166017335Y-123606206D01*
X166017328Y-123606202D01*
X165882482Y-123555908D01*
X165882483Y-123555908D01*
X165822883Y-123549501D01*
X165822881Y-123549500D01*
X165822873Y-123549500D01*
X165822864Y-123549500D01*
X164027129Y-123549500D01*
X164027123Y-123549501D01*
X163967516Y-123555908D01*
X163832671Y-123606202D01*
X163832664Y-123606206D01*
X163717455Y-123692452D01*
X163717452Y-123692455D01*
X163631206Y-123807664D01*
X163631202Y-123807671D01*
X163580908Y-123942517D01*
X163574501Y-124002116D01*
X163574500Y-124002135D01*
X163574500Y-124150500D01*
X163554815Y-124217539D01*
X163502011Y-124263294D01*
X163450500Y-124274500D01*
X154431192Y-124274500D01*
X154364153Y-124254815D01*
X154318398Y-124202011D01*
X154308454Y-124132853D01*
X154309575Y-124126309D01*
X154316499Y-124091495D01*
X154316500Y-124091493D01*
X154316500Y-123914106D01*
X154316499Y-123914104D01*
X154281896Y-123740141D01*
X154281893Y-123740132D01*
X154273613Y-123720143D01*
X154241792Y-123643318D01*
X154214016Y-123576259D01*
X154214009Y-123576246D01*
X154115464Y-123428765D01*
X154115461Y-123428761D01*
X153990038Y-123303338D01*
X153990034Y-123303335D01*
X153842553Y-123204790D01*
X153842540Y-123204783D01*
X153678667Y-123136906D01*
X153678658Y-123136903D01*
X153504694Y-123102300D01*
X153504691Y-123102300D01*
X153327309Y-123102300D01*
X153327306Y-123102300D01*
X153153341Y-123136903D01*
X153153332Y-123136906D01*
X152989459Y-123204783D01*
X152989446Y-123204790D01*
X152841965Y-123303335D01*
X152841961Y-123303338D01*
X152804321Y-123340980D01*
X152742999Y-123374466D01*
X152716639Y-123377300D01*
X147664789Y-123377300D01*
X147609888Y-123388220D01*
X147609881Y-123388222D01*
X147604371Y-123389318D01*
X147543948Y-123401337D01*
X147496797Y-123420867D01*
X147490735Y-123423377D01*
X147490728Y-123423380D01*
X147430119Y-123448485D01*
X147430114Y-123448488D01*
X147420880Y-123454657D01*
X147420881Y-123454658D01*
X147327668Y-123516940D01*
X147295109Y-123549500D01*
X147240542Y-123604067D01*
X147240539Y-123604070D01*
X146118229Y-124726381D01*
X146056906Y-124759866D01*
X146030548Y-124762700D01*
X143028956Y-124762700D01*
X142961917Y-124743015D01*
X142916162Y-124690211D01*
X142906218Y-124621053D01*
X142935243Y-124557497D01*
X142941275Y-124551019D01*
X144358241Y-123134053D01*
X148676729Y-118815565D01*
X148676733Y-118815563D01*
X148763858Y-118728438D01*
X148798084Y-118677214D01*
X148832312Y-118625991D01*
X148879463Y-118512156D01*
X148880313Y-118507886D01*
X148903500Y-118391311D01*
X148903500Y-118122904D01*
X158255900Y-118122904D01*
X158255900Y-118300295D01*
X158290503Y-118474258D01*
X158290506Y-118474267D01*
X158358383Y-118638140D01*
X158358390Y-118638153D01*
X158456935Y-118785634D01*
X158456938Y-118785638D01*
X158582361Y-118911061D01*
X158582365Y-118911064D01*
X158729846Y-119009609D01*
X158729859Y-119009616D01*
X158824708Y-119048903D01*
X158893734Y-119077494D01*
X158893736Y-119077494D01*
X158893741Y-119077496D01*
X159067704Y-119112099D01*
X159067707Y-119112100D01*
X159067709Y-119112100D01*
X159120948Y-119112100D01*
X159187987Y-119131785D01*
X159208629Y-119148419D01*
X160846063Y-120785855D01*
X160846067Y-120785858D01*
X160948512Y-120854310D01*
X160948511Y-120854310D01*
X160948513Y-120854311D01*
X160948515Y-120854312D01*
X160971079Y-120863658D01*
X161062348Y-120901463D01*
X161082397Y-120905451D01*
X161115996Y-120912134D01*
X161183192Y-120925501D01*
X161183194Y-120925501D01*
X161312521Y-120925501D01*
X161312541Y-120925500D01*
X163350501Y-120925500D01*
X163417540Y-120945185D01*
X163463295Y-120997989D01*
X163474501Y-121049500D01*
X163474501Y-121197876D01*
X163480908Y-121257483D01*
X163531202Y-121392328D01*
X163531206Y-121392335D01*
X163617452Y-121507544D01*
X163617455Y-121507547D01*
X163732664Y-121593793D01*
X163732671Y-121593797D01*
X163867517Y-121644091D01*
X163867516Y-121644091D01*
X163874444Y-121644835D01*
X163927127Y-121650500D01*
X165722872Y-121650499D01*
X165782483Y-121644091D01*
X165917331Y-121593796D01*
X166032546Y-121507546D01*
X166118796Y-121392331D01*
X166127369Y-121369347D01*
X166168002Y-121260402D01*
X166209872Y-121204468D01*
X166275337Y-121180050D01*
X166343610Y-121194901D01*
X166371865Y-121216053D01*
X166485535Y-121329723D01*
X166485540Y-121329727D01*
X166657442Y-121454620D01*
X166846782Y-121551095D01*
X167048871Y-121616757D01*
X167115000Y-121627231D01*
X167115000Y-120733012D01*
X167172007Y-120765925D01*
X167299174Y-120800000D01*
X167430826Y-120800000D01*
X167557993Y-120765925D01*
X167615000Y-120733012D01*
X167615000Y-121627230D01*
X167681126Y-121616757D01*
X167681129Y-121616757D01*
X167883217Y-121551095D01*
X168072557Y-121454620D01*
X168244459Y-121329727D01*
X168244464Y-121329723D01*
X168394723Y-121179464D01*
X168394727Y-121179459D01*
X168519620Y-121007557D01*
X168616095Y-120818217D01*
X168681757Y-120616129D01*
X168681757Y-120616126D01*
X168692231Y-120550000D01*
X167798012Y-120550000D01*
X167830925Y-120492993D01*
X167865000Y-120365826D01*
X167865000Y-120234174D01*
X167830925Y-120107007D01*
X167798012Y-120050000D01*
X168692231Y-120050000D01*
X168681757Y-119983873D01*
X168681757Y-119983870D01*
X168616095Y-119781782D01*
X168519620Y-119592442D01*
X168394727Y-119420540D01*
X168394723Y-119420535D01*
X168244464Y-119270276D01*
X168244459Y-119270272D01*
X168072557Y-119145379D01*
X167883215Y-119048903D01*
X167681124Y-118983241D01*
X167615000Y-118972768D01*
X167615000Y-119866988D01*
X167557993Y-119834075D01*
X167430826Y-119800000D01*
X167299174Y-119800000D01*
X167172007Y-119834075D01*
X167115000Y-119866988D01*
X167115000Y-118972768D01*
X167114999Y-118972768D01*
X167048875Y-118983241D01*
X166846784Y-119048903D01*
X166657442Y-119145379D01*
X166485541Y-119270271D01*
X166371865Y-119383947D01*
X166310542Y-119417431D01*
X166240850Y-119412447D01*
X166184917Y-119370575D01*
X166168002Y-119339598D01*
X166118797Y-119207671D01*
X166118793Y-119207664D01*
X166032547Y-119092455D01*
X166032544Y-119092452D01*
X165917335Y-119006206D01*
X165917328Y-119006202D01*
X165782482Y-118955908D01*
X165782483Y-118955908D01*
X165722883Y-118949501D01*
X165722881Y-118949500D01*
X165722873Y-118949500D01*
X165722864Y-118949500D01*
X163927129Y-118949500D01*
X163927123Y-118949501D01*
X163867516Y-118955908D01*
X163732671Y-119006202D01*
X163732664Y-119006206D01*
X163617455Y-119092452D01*
X163617452Y-119092455D01*
X163531206Y-119207664D01*
X163531202Y-119207671D01*
X163480908Y-119342517D01*
X163474501Y-119402116D01*
X163474500Y-119402135D01*
X163474500Y-119550500D01*
X163454815Y-119617539D01*
X163402011Y-119663294D01*
X163350500Y-119674500D01*
X161555253Y-119674500D01*
X161488214Y-119654815D01*
X161467572Y-119638181D01*
X160093219Y-118263828D01*
X160059734Y-118202505D01*
X160056900Y-118176147D01*
X160056900Y-118122906D01*
X160056899Y-118122904D01*
X160022296Y-117948941D01*
X160022293Y-117948932D01*
X159954416Y-117785059D01*
X159954409Y-117785046D01*
X159855864Y-117637565D01*
X159855861Y-117637561D01*
X159730438Y-117512138D01*
X159730434Y-117512135D01*
X159582953Y-117413590D01*
X159582940Y-117413583D01*
X159419067Y-117345706D01*
X159419058Y-117345703D01*
X159245094Y-117311100D01*
X159245091Y-117311100D01*
X159067709Y-117311100D01*
X159067706Y-117311100D01*
X158893741Y-117345703D01*
X158893732Y-117345706D01*
X158729859Y-117413583D01*
X158729846Y-117413590D01*
X158582365Y-117512135D01*
X158582361Y-117512138D01*
X158456938Y-117637561D01*
X158456935Y-117637565D01*
X158358390Y-117785046D01*
X158358383Y-117785059D01*
X158290506Y-117948932D01*
X158290503Y-117948941D01*
X158255900Y-118122904D01*
X148903500Y-118122904D01*
X148903500Y-112911345D01*
X148903501Y-112911324D01*
X148903501Y-112781995D01*
X148886029Y-112694164D01*
X148879463Y-112661153D01*
X148878825Y-112659613D01*
X148846272Y-112581023D01*
X148846271Y-112581020D01*
X148832314Y-112547323D01*
X148832311Y-112547318D01*
X148818238Y-112526257D01*
X148763858Y-112444871D01*
X148763855Y-112444867D01*
X148173485Y-111854498D01*
X148091891Y-111772904D01*
X158205100Y-111772904D01*
X158205100Y-111950295D01*
X158239703Y-112124258D01*
X158239706Y-112124267D01*
X158307583Y-112288140D01*
X158307590Y-112288153D01*
X158406135Y-112435634D01*
X158406138Y-112435638D01*
X158531561Y-112561061D01*
X158531565Y-112561064D01*
X158679046Y-112659609D01*
X158679059Y-112659616D01*
X158774505Y-112699150D01*
X158842934Y-112727494D01*
X158842936Y-112727494D01*
X158842941Y-112727496D01*
X159016904Y-112762099D01*
X159016907Y-112762100D01*
X159016909Y-112762100D01*
X159194293Y-112762100D01*
X159194294Y-112762099D01*
X159252282Y-112750564D01*
X159368258Y-112727496D01*
X159368261Y-112727494D01*
X159368266Y-112727494D01*
X159517534Y-112665666D01*
X159532140Y-112659616D01*
X159532140Y-112659615D01*
X159532147Y-112659613D01*
X159679635Y-112561064D01*
X159679635Y-112561063D01*
X159679639Y-112561061D01*
X159683069Y-112558247D01*
X159747379Y-112530935D01*
X159761731Y-112530102D01*
X161626902Y-112530102D01*
X161693941Y-112549787D01*
X161714584Y-112566422D01*
X161752224Y-112604063D01*
X161752228Y-112604066D01*
X161899709Y-112702611D01*
X161899722Y-112702618D01*
X162011838Y-112749057D01*
X162063597Y-112770496D01*
X162063599Y-112770496D01*
X162063604Y-112770498D01*
X162237567Y-112805101D01*
X162237570Y-112805102D01*
X162237572Y-112805102D01*
X162414956Y-112805102D01*
X162414957Y-112805101D01*
X162472945Y-112793566D01*
X162588921Y-112770498D01*
X162588924Y-112770496D01*
X162588929Y-112770496D01*
X162750181Y-112703704D01*
X162752803Y-112702618D01*
X162752803Y-112702617D01*
X162752810Y-112702615D01*
X162900298Y-112604066D01*
X163025727Y-112478637D01*
X163124276Y-112331149D01*
X163192157Y-112167268D01*
X163196587Y-112145000D01*
X163226762Y-111993297D01*
X163226763Y-111993295D01*
X163226763Y-111815908D01*
X163226762Y-111815906D01*
X163192159Y-111641943D01*
X163192156Y-111641934D01*
X163124279Y-111478061D01*
X163124272Y-111478048D01*
X163025727Y-111330567D01*
X163025724Y-111330563D01*
X162900301Y-111205140D01*
X162900297Y-111205137D01*
X162752816Y-111106592D01*
X162752803Y-111106585D01*
X162588930Y-111038708D01*
X162588921Y-111038705D01*
X162414957Y-111004102D01*
X162414954Y-111004102D01*
X162237572Y-111004102D01*
X162237569Y-111004102D01*
X162063604Y-111038705D01*
X162063595Y-111038708D01*
X161899722Y-111106585D01*
X161899709Y-111106592D01*
X161752228Y-111205137D01*
X161752224Y-111205140D01*
X161714584Y-111242782D01*
X161653262Y-111276268D01*
X161626902Y-111279102D01*
X159847963Y-111279102D01*
X159780924Y-111259417D01*
X159760286Y-111242787D01*
X159679635Y-111162136D01*
X159679634Y-111162135D01*
X159679633Y-111162134D01*
X159532153Y-111063590D01*
X159532140Y-111063583D01*
X159368267Y-110995706D01*
X159368258Y-110995703D01*
X159194294Y-110961100D01*
X159194291Y-110961100D01*
X159016909Y-110961100D01*
X159016906Y-110961100D01*
X158842941Y-110995703D01*
X158842932Y-110995706D01*
X158679059Y-111063583D01*
X158679046Y-111063590D01*
X158531565Y-111162135D01*
X158531561Y-111162138D01*
X158406138Y-111287561D01*
X158406135Y-111287565D01*
X158307590Y-111435046D01*
X158307583Y-111435059D01*
X158239706Y-111598932D01*
X158239703Y-111598941D01*
X158205100Y-111772904D01*
X148091891Y-111772904D01*
X146471018Y-110152032D01*
X146461055Y-110142069D01*
X146461054Y-110142067D01*
X146373929Y-110054942D01*
X146322705Y-110020715D01*
X146271482Y-109986488D01*
X146271479Y-109986486D01*
X146271476Y-109986485D01*
X146197799Y-109955968D01*
X146197797Y-109955967D01*
X146190988Y-109953147D01*
X146157648Y-109939337D01*
X146097225Y-109927318D01*
X146092502Y-109926378D01*
X146092500Y-109926378D01*
X146036806Y-109915300D01*
X146036803Y-109915300D01*
X146036802Y-109915300D01*
X144310961Y-109915300D01*
X144243922Y-109895615D01*
X144223279Y-109878980D01*
X144185638Y-109841338D01*
X144185634Y-109841335D01*
X144038153Y-109742790D01*
X144038140Y-109742783D01*
X143874267Y-109674906D01*
X143874258Y-109674903D01*
X143700294Y-109640300D01*
X143700291Y-109640300D01*
X143522909Y-109640300D01*
X143522906Y-109640300D01*
X143348941Y-109674903D01*
X143348932Y-109674906D01*
X143185059Y-109742783D01*
X143185046Y-109742790D01*
X143037565Y-109841335D01*
X143037561Y-109841338D01*
X142912138Y-109966761D01*
X142912135Y-109966765D01*
X142813590Y-110114246D01*
X142813583Y-110114259D01*
X142745706Y-110278132D01*
X142745703Y-110278141D01*
X142711100Y-110452104D01*
X142711100Y-110629495D01*
X142745703Y-110803458D01*
X142745706Y-110803467D01*
X142813583Y-110967340D01*
X142813590Y-110967353D01*
X142912135Y-111114834D01*
X142912138Y-111114838D01*
X142919505Y-111122205D01*
X142952990Y-111183528D01*
X142948006Y-111253220D01*
X142934926Y-111278777D01*
X142850590Y-111404993D01*
X142850583Y-111405006D01*
X142782706Y-111568879D01*
X142782703Y-111568888D01*
X142748100Y-111742851D01*
X142748100Y-111920242D01*
X142782703Y-112094205D01*
X142782706Y-112094214D01*
X142850583Y-112258087D01*
X142850590Y-112258100D01*
X142949135Y-112405581D01*
X142949138Y-112405585D01*
X143074561Y-112531008D01*
X143074565Y-112531011D01*
X143222046Y-112629556D01*
X143222059Y-112629563D01*
X143315346Y-112668203D01*
X143385934Y-112697441D01*
X143385936Y-112697441D01*
X143385941Y-112697443D01*
X143559904Y-112732046D01*
X143559907Y-112732047D01*
X143559909Y-112732047D01*
X143737293Y-112732047D01*
X143737294Y-112732046D01*
X143799987Y-112719576D01*
X143911258Y-112697443D01*
X143911261Y-112697441D01*
X143911266Y-112697441D01*
X144075147Y-112629560D01*
X144222635Y-112531011D01*
X144260279Y-112493367D01*
X144321601Y-112459881D01*
X144347961Y-112457047D01*
X146319095Y-112457047D01*
X146386134Y-112476732D01*
X146406776Y-112493366D01*
X147166181Y-113252771D01*
X147199666Y-113314094D01*
X147202500Y-113340452D01*
X147202500Y-117291547D01*
X147182815Y-117358586D01*
X147166181Y-117379228D01*
X142270638Y-122274770D01*
X142209315Y-122308255D01*
X142207149Y-122308706D01*
X142129739Y-122324104D01*
X142129729Y-122324107D01*
X141965859Y-122391983D01*
X141965846Y-122391990D01*
X141818365Y-122490535D01*
X141818361Y-122490538D01*
X141692938Y-122615961D01*
X141692935Y-122615965D01*
X141594390Y-122763446D01*
X141594383Y-122763459D01*
X141526506Y-122927332D01*
X141526503Y-122927341D01*
X141491900Y-123101304D01*
X141491900Y-123278695D01*
X141509271Y-123366026D01*
X141503044Y-123435618D01*
X141460180Y-123490795D01*
X141456548Y-123493317D01*
X141436763Y-123506537D01*
X141436758Y-123506542D01*
X141311338Y-123631961D01*
X141311335Y-123631965D01*
X141212790Y-123779446D01*
X141212783Y-123779459D01*
X141144906Y-123943332D01*
X141144903Y-123943341D01*
X141110300Y-124117304D01*
X141110300Y-124294695D01*
X141144903Y-124468658D01*
X141144906Y-124468667D01*
X141195680Y-124591248D01*
X141203149Y-124660718D01*
X141171873Y-124723197D01*
X141111784Y-124758848D01*
X141081119Y-124762700D01*
X139403700Y-124762700D01*
X139336661Y-124743015D01*
X139290906Y-124690211D01*
X139279700Y-124638700D01*
X139279700Y-124574506D01*
X139279699Y-124574504D01*
X139245096Y-124400541D01*
X139245093Y-124400532D01*
X139177216Y-124236659D01*
X139177209Y-124236646D01*
X139078664Y-124089165D01*
X139078661Y-124089161D01*
X138953238Y-123963738D01*
X138953234Y-123963735D01*
X138805753Y-123865190D01*
X138805740Y-123865183D01*
X138641867Y-123797306D01*
X138641858Y-123797303D01*
X138467894Y-123762700D01*
X138467891Y-123762700D01*
X138396813Y-123762700D01*
X138378669Y-123757372D01*
X138359760Y-123757035D01*
X138331542Y-123743534D01*
X138329774Y-123743015D01*
X138327922Y-123741802D01*
X138295507Y-123720143D01*
X138295505Y-123720140D01*
X138269090Y-123702490D01*
X138269081Y-123702485D01*
X138181825Y-123666344D01*
X138181824Y-123666343D01*
X138173993Y-123663100D01*
X138155252Y-123655337D01*
X138094829Y-123643318D01*
X138091181Y-123642592D01*
X138091172Y-123642590D01*
X138034410Y-123631300D01*
X138034407Y-123631300D01*
X138034406Y-123631300D01*
X136965300Y-123631300D01*
X136898261Y-123611615D01*
X136852506Y-123558811D01*
X136841300Y-123507300D01*
X136841300Y-123406106D01*
X136841299Y-123406104D01*
X136806696Y-123232141D01*
X136806693Y-123232132D01*
X136738816Y-123068259D01*
X136738809Y-123068246D01*
X136640264Y-122920765D01*
X136640261Y-122920761D01*
X136514838Y-122795338D01*
X136514834Y-122795335D01*
X136367353Y-122696790D01*
X136367340Y-122696783D01*
X136203467Y-122628906D01*
X136203458Y-122628903D01*
X136029494Y-122594300D01*
X136029491Y-122594300D01*
X135927261Y-122594300D01*
X135860222Y-122574615D01*
X135814467Y-122521811D01*
X135805644Y-122494491D01*
X135790696Y-122419341D01*
X135790693Y-122419332D01*
X135722816Y-122255459D01*
X135722809Y-122255446D01*
X135624264Y-122107965D01*
X135624261Y-122107961D01*
X135498838Y-121982538D01*
X135498834Y-121982535D01*
X135351353Y-121883990D01*
X135351340Y-121883983D01*
X135187467Y-121816106D01*
X135187458Y-121816103D01*
X135013494Y-121781500D01*
X135013491Y-121781500D01*
X134893100Y-121781500D01*
X134826061Y-121761815D01*
X134780306Y-121709011D01*
X134775403Y-121696048D01*
X134774694Y-121694338D01*
X134774694Y-121694334D01*
X134715363Y-121551095D01*
X134706816Y-121530459D01*
X134706809Y-121530446D01*
X134608264Y-121382965D01*
X134608261Y-121382961D01*
X134482838Y-121257538D01*
X134482834Y-121257535D01*
X134335353Y-121158990D01*
X134335340Y-121158983D01*
X134171467Y-121091106D01*
X134171458Y-121091103D01*
X133997494Y-121056500D01*
X133997491Y-121056500D01*
X133820109Y-121056500D01*
X133820106Y-121056500D01*
X133646141Y-121091103D01*
X133646132Y-121091106D01*
X133482259Y-121158983D01*
X133482246Y-121158990D01*
X133334765Y-121257535D01*
X133334761Y-121257538D01*
X133297121Y-121295180D01*
X133235799Y-121328666D01*
X133209439Y-121331500D01*
X116792189Y-121331500D01*
X116731771Y-121343518D01*
X116694059Y-121351019D01*
X116671350Y-121355536D01*
X116671348Y-121355537D01*
X116638007Y-121369347D01*
X116557519Y-121402684D01*
X116557505Y-121402692D01*
X116455072Y-121471138D01*
X116455064Y-121471144D01*
X116367939Y-121558270D01*
X114686829Y-123239381D01*
X114625506Y-123272866D01*
X114599148Y-123275700D01*
X114022208Y-123275700D01*
X113955169Y-123256015D01*
X113909414Y-123203211D01*
X113899470Y-123134053D01*
X113928495Y-123070497D01*
X113953307Y-123048605D01*
X113956318Y-123046593D01*
X113956330Y-123046589D01*
X113956329Y-123046587D01*
X114000381Y-123017152D01*
X114030016Y-122997352D01*
X116531194Y-120496172D01*
X116592515Y-120462689D01*
X116638265Y-120461382D01*
X116733713Y-120476500D01*
X116733715Y-120476500D01*
X116946286Y-120476500D01*
X116946287Y-120476500D01*
X117156243Y-120443246D01*
X117358412Y-120377557D01*
X117547816Y-120281051D01*
X117634138Y-120218335D01*
X117719786Y-120156109D01*
X117719788Y-120156106D01*
X117719792Y-120156104D01*
X117870104Y-120005792D01*
X117870106Y-120005788D01*
X117870109Y-120005786D01*
X117995048Y-119833820D01*
X117995047Y-119833820D01*
X117995051Y-119833816D01*
X117999514Y-119825054D01*
X118047488Y-119774259D01*
X118115308Y-119757463D01*
X118181444Y-119779999D01*
X118220484Y-119825054D01*
X118224591Y-119833115D01*
X118224951Y-119833820D01*
X118349890Y-120005786D01*
X118500213Y-120156109D01*
X118672179Y-120281048D01*
X118672181Y-120281049D01*
X118672184Y-120281051D01*
X118861588Y-120377557D01*
X119063757Y-120443246D01*
X119273713Y-120476500D01*
X119273714Y-120476500D01*
X119486286Y-120476500D01*
X119486287Y-120476500D01*
X119696243Y-120443246D01*
X119898412Y-120377557D01*
X120087816Y-120281051D01*
X120174138Y-120218335D01*
X120259786Y-120156109D01*
X120259788Y-120156106D01*
X120259792Y-120156104D01*
X120410104Y-120005792D01*
X120410106Y-120005788D01*
X120410109Y-120005786D01*
X120535048Y-119833820D01*
X120535047Y-119833820D01*
X120535051Y-119833816D01*
X120631557Y-119644412D01*
X120697246Y-119442243D01*
X120730500Y-119232287D01*
X120730500Y-119019713D01*
X120697246Y-118809757D01*
X120631557Y-118607588D01*
X120535051Y-118418184D01*
X120535049Y-118418181D01*
X120535048Y-118418179D01*
X120410109Y-118246213D01*
X120259794Y-118095898D01*
X120259788Y-118095893D01*
X120167415Y-118028780D01*
X120124749Y-117973450D01*
X120116300Y-117928462D01*
X120116300Y-116312252D01*
X120135985Y-116245213D01*
X120152619Y-116224571D01*
X120196372Y-116180818D01*
X120248341Y-116128849D01*
X120328675Y-116024157D01*
X120394501Y-115910143D01*
X120445000Y-115788229D01*
X120479075Y-115661062D01*
X120496300Y-115530226D01*
X120496300Y-114898574D01*
X120496299Y-114898568D01*
X120496034Y-114894522D01*
X120497382Y-114894433D01*
X120507261Y-114831057D01*
X120553638Y-114778798D01*
X120619438Y-114759900D01*
X124646743Y-114759900D01*
X133214103Y-114759900D01*
X133281142Y-114779585D01*
X133301784Y-114796219D01*
X135760739Y-117255174D01*
X135760749Y-117255185D01*
X135765079Y-117259515D01*
X135765080Y-117259516D01*
X135876884Y-117371320D01*
X135952021Y-117414700D01*
X136013815Y-117450377D01*
X136166543Y-117491301D01*
X136166546Y-117491301D01*
X136332253Y-117491301D01*
X136332269Y-117491300D01*
X141109239Y-117491300D01*
X141176278Y-117510985D01*
X141196915Y-117527614D01*
X141233120Y-117563819D01*
X141259566Y-117590265D01*
X141407046Y-117688809D01*
X141407059Y-117688816D01*
X141497094Y-117726109D01*
X141570934Y-117756694D01*
X141570936Y-117756694D01*
X141570941Y-117756696D01*
X141744904Y-117791299D01*
X141744907Y-117791300D01*
X141744909Y-117791300D01*
X141922293Y-117791300D01*
X141922294Y-117791299D01*
X141980282Y-117779764D01*
X142096258Y-117756696D01*
X142096261Y-117756694D01*
X142096266Y-117756694D01*
X142246142Y-117694614D01*
X142260140Y-117688816D01*
X142260140Y-117688815D01*
X142260147Y-117688813D01*
X142407635Y-117590264D01*
X142533064Y-117464835D01*
X142631613Y-117317347D01*
X142699494Y-117153466D01*
X142711056Y-117095342D01*
X142724549Y-117027509D01*
X142756934Y-116965598D01*
X142817649Y-116931024D01*
X142846166Y-116927700D01*
X142887493Y-116927700D01*
X142887494Y-116927699D01*
X142945482Y-116916164D01*
X143061458Y-116893096D01*
X143061461Y-116893094D01*
X143061466Y-116893094D01*
X143225347Y-116825213D01*
X143372835Y-116726664D01*
X143498264Y-116601235D01*
X143596813Y-116453747D01*
X143664694Y-116289866D01*
X143667431Y-116276109D01*
X143692070Y-116152237D01*
X143699300Y-116115891D01*
X143699300Y-115938509D01*
X143699300Y-115938506D01*
X143699299Y-115938504D01*
X143664696Y-115764541D01*
X143664693Y-115764532D01*
X143596816Y-115600659D01*
X143596809Y-115600646D01*
X143498264Y-115453165D01*
X143498261Y-115453161D01*
X143372838Y-115327738D01*
X143372834Y-115327735D01*
X143225349Y-115229188D01*
X143225340Y-115229183D01*
X143061467Y-115161306D01*
X143061458Y-115161303D01*
X142887494Y-115126700D01*
X142887491Y-115126700D01*
X142710109Y-115126700D01*
X142710106Y-115126700D01*
X142536141Y-115161303D01*
X142536132Y-115161306D01*
X142372259Y-115229183D01*
X142372251Y-115229188D01*
X142224766Y-115327734D01*
X142198385Y-115354116D01*
X142162118Y-115390382D01*
X142100798Y-115423866D01*
X142074439Y-115426700D01*
X136545697Y-115426700D01*
X136478658Y-115407015D01*
X136458016Y-115390381D01*
X134151490Y-113083855D01*
X134151488Y-113083852D01*
X134032617Y-112964981D01*
X134032616Y-112964980D01*
X133929092Y-112905211D01*
X133929091Y-112905210D01*
X133895683Y-112885922D01*
X133831312Y-112868674D01*
X133742957Y-112844999D01*
X133584843Y-112844999D01*
X133577247Y-112844999D01*
X133577231Y-112845000D01*
X119994737Y-112845000D01*
X119927698Y-112825315D01*
X119881943Y-112772511D01*
X119871999Y-112703353D01*
X119901024Y-112639797D01*
X119917424Y-112624053D01*
X120046257Y-112521310D01*
X119082533Y-111557586D01*
X119213175Y-111462671D01*
X119341171Y-111334675D01*
X119436086Y-111204033D01*
X120399810Y-112167757D01*
X120506116Y-112034456D01*
X120655507Y-111796700D01*
X120777337Y-111543717D01*
X120870077Y-111278680D01*
X120870078Y-111278678D01*
X120932560Y-111004924D01*
X120932562Y-111004912D01*
X120963999Y-110725901D01*
X120964000Y-110725899D01*
X120964000Y-110445100D01*
X120963999Y-110445098D01*
X120932562Y-110166087D01*
X120932560Y-110166075D01*
X120870078Y-109892321D01*
X120870077Y-109892319D01*
X120777337Y-109627282D01*
X120655507Y-109374299D01*
X120506115Y-109136543D01*
X120399810Y-109003241D01*
X119436086Y-109966965D01*
X119341171Y-109836325D01*
X119213175Y-109708329D01*
X119082533Y-109613412D01*
X120046257Y-108649687D01*
X119912956Y-108543384D01*
X119675200Y-108393992D01*
X119422217Y-108272162D01*
X119157180Y-108179422D01*
X119157178Y-108179421D01*
X118883424Y-108116939D01*
X118883412Y-108116937D01*
X118604401Y-108085500D01*
X118323598Y-108085500D01*
X118044587Y-108116937D01*
X118044575Y-108116939D01*
X117770821Y-108179421D01*
X117770819Y-108179422D01*
X117579046Y-108246526D01*
X117509267Y-108250087D01*
X117448640Y-108215358D01*
X117416413Y-108153365D01*
X117422819Y-108083789D01*
X117450411Y-108041802D01*
X117562752Y-107929461D01*
X117672185Y-107765684D01*
X117672192Y-107765671D01*
X117747569Y-107583693D01*
X117747572Y-107583681D01*
X117785999Y-107390495D01*
X117786000Y-107390492D01*
X117786000Y-106992000D01*
X117086000Y-106992000D01*
X117086000Y-106492000D01*
X117786000Y-106492000D01*
X117786000Y-106093508D01*
X117785999Y-106093504D01*
X117747572Y-105900318D01*
X117747569Y-105900306D01*
X117672192Y-105718328D01*
X117672185Y-105718315D01*
X117562751Y-105554537D01*
X117562748Y-105554533D01*
X117423466Y-105415251D01*
X117423462Y-105415248D01*
X117323121Y-105348202D01*
X117278316Y-105294590D01*
X117269609Y-105225265D01*
X117299764Y-105162237D01*
X117359207Y-105125518D01*
X117392012Y-105121100D01*
X135496774Y-105121100D01*
X135563813Y-105140785D01*
X135609568Y-105193589D01*
X135619512Y-105262747D01*
X135599876Y-105313991D01*
X135549190Y-105389846D01*
X135549183Y-105389859D01*
X135481306Y-105553732D01*
X135481303Y-105553741D01*
X135446700Y-105727704D01*
X135446700Y-105905095D01*
X135481303Y-106079058D01*
X135481306Y-106079067D01*
X135549183Y-106242940D01*
X135549190Y-106242953D01*
X135647735Y-106390434D01*
X135647738Y-106390438D01*
X135773161Y-106515861D01*
X135773167Y-106515866D01*
X135826494Y-106551499D01*
X135871298Y-106605111D01*
X135880005Y-106674436D01*
X135849850Y-106737464D01*
X135826494Y-106757701D01*
X135773167Y-106793333D01*
X135773161Y-106793338D01*
X135647738Y-106918761D01*
X135647735Y-106918765D01*
X135549190Y-107066246D01*
X135549183Y-107066259D01*
X135481306Y-107230132D01*
X135481303Y-107230141D01*
X135446700Y-107404104D01*
X135446700Y-107581495D01*
X135481303Y-107755458D01*
X135481306Y-107755467D01*
X135549183Y-107919340D01*
X135549190Y-107919353D01*
X135647735Y-108066834D01*
X135647738Y-108066838D01*
X135726215Y-108145315D01*
X135759700Y-108206638D01*
X135754716Y-108276330D01*
X135741636Y-108301887D01*
X135650790Y-108437846D01*
X135650783Y-108437859D01*
X135582906Y-108601732D01*
X135582903Y-108601741D01*
X135548300Y-108775704D01*
X135548300Y-108953095D01*
X135582903Y-109127058D01*
X135582906Y-109127067D01*
X135650783Y-109290940D01*
X135650790Y-109290953D01*
X135749335Y-109438434D01*
X135749338Y-109438438D01*
X135874761Y-109563861D01*
X135874765Y-109563864D01*
X136022246Y-109662409D01*
X136022259Y-109662416D01*
X136089074Y-109690091D01*
X136186134Y-109730294D01*
X136186136Y-109730294D01*
X136186141Y-109730296D01*
X136360104Y-109764899D01*
X136360107Y-109764900D01*
X136360109Y-109764900D01*
X136537493Y-109764900D01*
X136537494Y-109764899D01*
X136595482Y-109753364D01*
X136711458Y-109730296D01*
X136711461Y-109730294D01*
X136711466Y-109730294D01*
X136875347Y-109662413D01*
X137022835Y-109563864D01*
X137060479Y-109526220D01*
X137121801Y-109492734D01*
X137148161Y-109489900D01*
X141387207Y-109489900D01*
X141447629Y-109477881D01*
X141508052Y-109465863D01*
X141556348Y-109445858D01*
X141621886Y-109418712D01*
X141679034Y-109380526D01*
X141679035Y-109380526D01*
X141709026Y-109360485D01*
X141724333Y-109350258D01*
X141811458Y-109263133D01*
X141811460Y-109263129D01*
X142035372Y-109039216D01*
X142096694Y-109005734D01*
X142123052Y-109002900D01*
X142176293Y-109002900D01*
X142176294Y-109002899D01*
X142234282Y-108991364D01*
X142350258Y-108968296D01*
X142350261Y-108968294D01*
X142350266Y-108968294D01*
X142514147Y-108900413D01*
X142661635Y-108801864D01*
X142787064Y-108676435D01*
X142885613Y-108528947D01*
X142885616Y-108528940D01*
X142921058Y-108443375D01*
X142921058Y-108443372D01*
X142953494Y-108365066D01*
X142974023Y-108261863D01*
X142985007Y-108206638D01*
X142988100Y-108191091D01*
X142988100Y-108013709D01*
X142988100Y-108013706D01*
X142988099Y-108013704D01*
X142953496Y-107839741D01*
X142953493Y-107839732D01*
X142885616Y-107675859D01*
X142885614Y-107675855D01*
X142885613Y-107675853D01*
X142835798Y-107601300D01*
X142826304Y-107587091D01*
X142805426Y-107520414D01*
X142823910Y-107453034D01*
X142826304Y-107449309D01*
X142854042Y-107407796D01*
X142885613Y-107360547D01*
X142953494Y-107196666D01*
X142988100Y-107022691D01*
X142988100Y-106845309D01*
X142988100Y-106845306D01*
X142988099Y-106845304D01*
X142953496Y-106671341D01*
X142953493Y-106671332D01*
X142885616Y-106507459D01*
X142885609Y-106507446D01*
X142787065Y-106359966D01*
X142780652Y-106353553D01*
X142762979Y-106335880D01*
X142729495Y-106274560D01*
X142734478Y-106204868D01*
X142762979Y-106160519D01*
X142787064Y-106136435D01*
X142885613Y-105988947D01*
X142949202Y-105835428D01*
X162650000Y-105835428D01*
X162650000Y-106164571D01*
X162682261Y-106492139D01*
X162746474Y-106814956D01*
X162746475Y-106814961D01*
X162842025Y-107129946D01*
X162967985Y-107434039D01*
X162967987Y-107434044D01*
X163123137Y-107724309D01*
X163123148Y-107724327D01*
X163306007Y-107997995D01*
X163306010Y-107997999D01*
X163460364Y-108186081D01*
X163460365Y-108186081D01*
X164705748Y-106940698D01*
X164779588Y-107042330D01*
X164957670Y-107220412D01*
X165059300Y-107294251D01*
X163813917Y-108539633D01*
X163813917Y-108539634D01*
X164002000Y-108693989D01*
X164002004Y-108693992D01*
X164275672Y-108876851D01*
X164275690Y-108876862D01*
X164565955Y-109032012D01*
X164565960Y-109032014D01*
X164870053Y-109157974D01*
X165185038Y-109253524D01*
X165185043Y-109253525D01*
X165507860Y-109317738D01*
X165835428Y-109350000D01*
X166164572Y-109350000D01*
X166492139Y-109317738D01*
X166814956Y-109253525D01*
X166814961Y-109253524D01*
X167129946Y-109157974D01*
X167434039Y-109032014D01*
X167434044Y-109032012D01*
X167724309Y-108876862D01*
X167724327Y-108876851D01*
X167998004Y-108693986D01*
X168186081Y-108539635D01*
X168186082Y-108539634D01*
X166940698Y-107294251D01*
X167042330Y-107220412D01*
X167220412Y-107042330D01*
X167294251Y-106940699D01*
X168539634Y-108186082D01*
X168539635Y-108186081D01*
X168693986Y-107998004D01*
X168876851Y-107724327D01*
X168876862Y-107724309D01*
X169032012Y-107434044D01*
X169032014Y-107434039D01*
X169157974Y-107129946D01*
X169253524Y-106814961D01*
X169253525Y-106814956D01*
X169317738Y-106492139D01*
X169350000Y-106164571D01*
X169350000Y-105835428D01*
X169317738Y-105507860D01*
X169253525Y-105185043D01*
X169253524Y-105185038D01*
X169157974Y-104870053D01*
X169032014Y-104565960D01*
X169032012Y-104565955D01*
X168876862Y-104275690D01*
X168876851Y-104275672D01*
X168693992Y-104002004D01*
X168693989Y-104002000D01*
X168539634Y-103813917D01*
X168539633Y-103813917D01*
X167294250Y-105059300D01*
X167220412Y-104957670D01*
X167042330Y-104779588D01*
X166940697Y-104705747D01*
X168186081Y-103460365D01*
X168186081Y-103460364D01*
X167997999Y-103306010D01*
X167997995Y-103306007D01*
X167724327Y-103123148D01*
X167724309Y-103123137D01*
X167434044Y-102967987D01*
X167434039Y-102967985D01*
X167129946Y-102842025D01*
X166814961Y-102746475D01*
X166814956Y-102746474D01*
X166492139Y-102682261D01*
X166164572Y-102650000D01*
X165835428Y-102650000D01*
X165507860Y-102682261D01*
X165185043Y-102746474D01*
X165185038Y-102746475D01*
X164870053Y-102842025D01*
X164565960Y-102967985D01*
X164565955Y-102967987D01*
X164275690Y-103123137D01*
X164275672Y-103123148D01*
X164002004Y-103306007D01*
X164001999Y-103306010D01*
X163813917Y-103460364D01*
X163813917Y-103460365D01*
X165059301Y-104705748D01*
X164957670Y-104779588D01*
X164779588Y-104957670D01*
X164705748Y-105059301D01*
X163460365Y-103813917D01*
X163460364Y-103813917D01*
X163306010Y-104001999D01*
X163306007Y-104002004D01*
X163123148Y-104275672D01*
X163123137Y-104275690D01*
X162967987Y-104565955D01*
X162967985Y-104565960D01*
X162842025Y-104870053D01*
X162746475Y-105185038D01*
X162746474Y-105185043D01*
X162682261Y-105507860D01*
X162650000Y-105835428D01*
X142949202Y-105835428D01*
X142953494Y-105825066D01*
X142974726Y-105718328D01*
X142988100Y-105651093D01*
X142988100Y-105473706D01*
X142988099Y-105473704D01*
X142953496Y-105299741D01*
X142953493Y-105299732D01*
X142950519Y-105292552D01*
X142943050Y-105223083D01*
X142974326Y-105160604D01*
X143034415Y-105124952D01*
X143065080Y-105121100D01*
X143448889Y-105121100D01*
X143515928Y-105140785D01*
X143561683Y-105193589D01*
X143563450Y-105197646D01*
X143574890Y-105225265D01*
X143575586Y-105226944D01*
X143575590Y-105226953D01*
X143674135Y-105374434D01*
X143674138Y-105374438D01*
X143799561Y-105499861D01*
X143799565Y-105499864D01*
X143947046Y-105598409D01*
X143947059Y-105598416D01*
X144063016Y-105646446D01*
X144110934Y-105666294D01*
X144110936Y-105666294D01*
X144110941Y-105666296D01*
X144284904Y-105700899D01*
X144284907Y-105700900D01*
X144284909Y-105700900D01*
X144462293Y-105700900D01*
X144462294Y-105700899D01*
X144524680Y-105688490D01*
X144636258Y-105666296D01*
X144636261Y-105666294D01*
X144636266Y-105666294D01*
X144800147Y-105598413D01*
X144947635Y-105499864D01*
X145073064Y-105374435D01*
X145171613Y-105226947D01*
X145239494Y-105063066D01*
X145256008Y-104980047D01*
X145288393Y-104918136D01*
X145349108Y-104883562D01*
X145353416Y-104882624D01*
X145499866Y-104853494D01*
X145663747Y-104785613D01*
X145811235Y-104687064D01*
X145936664Y-104561635D01*
X146035213Y-104414147D01*
X146103094Y-104250266D01*
X146137700Y-104076291D01*
X146137700Y-103898909D01*
X146137700Y-103898906D01*
X146137699Y-103898904D01*
X146103096Y-103724941D01*
X146103093Y-103724932D01*
X146035216Y-103561059D01*
X146035209Y-103561046D01*
X145936664Y-103413565D01*
X145936661Y-103413561D01*
X145811238Y-103288138D01*
X145811234Y-103288135D01*
X145663753Y-103189590D01*
X145663740Y-103189583D01*
X145499867Y-103121706D01*
X145499858Y-103121703D01*
X145325894Y-103087100D01*
X145325891Y-103087100D01*
X145148509Y-103087100D01*
X145148506Y-103087100D01*
X144974541Y-103121703D01*
X144974532Y-103121706D01*
X144810659Y-103189583D01*
X144810646Y-103189590D01*
X144663165Y-103288135D01*
X144663161Y-103288138D01*
X144625521Y-103325780D01*
X144564199Y-103359266D01*
X144537839Y-103362100D01*
X117877101Y-103362100D01*
X117810062Y-103342415D01*
X117764307Y-103289611D01*
X117754363Y-103220453D01*
X117755484Y-103213909D01*
X117785999Y-103060495D01*
X117786000Y-103060492D01*
X117786000Y-102812000D01*
X117086000Y-102812000D01*
X117086000Y-102312000D01*
X117786000Y-102312000D01*
X117786000Y-102063508D01*
X117785999Y-102063504D01*
X117747572Y-101870318D01*
X117747569Y-101870306D01*
X117672192Y-101688328D01*
X117672185Y-101688315D01*
X117562751Y-101524537D01*
X117562748Y-101524533D01*
X117423466Y-101385251D01*
X117423462Y-101385248D01*
X117259684Y-101275814D01*
X117259671Y-101275807D01*
X117077691Y-101200429D01*
X117077683Y-101200427D01*
X117036000Y-101192135D01*
X117036000Y-101995011D01*
X117026060Y-101977795D01*
X116970205Y-101921940D01*
X116901796Y-101882444D01*
X116825496Y-101862000D01*
X116746504Y-101862000D01*
X116670204Y-101882444D01*
X116601795Y-101921940D01*
X116545940Y-101977795D01*
X116536000Y-101995011D01*
X116536000Y-101192136D01*
X116535999Y-101192135D01*
X116494316Y-101200427D01*
X116494308Y-101200429D01*
X116312328Y-101275807D01*
X116312315Y-101275814D01*
X116148537Y-101385248D01*
X116148533Y-101385251D01*
X116009251Y-101524533D01*
X116009248Y-101524537D01*
X115899814Y-101688315D01*
X115899807Y-101688328D01*
X115824430Y-101870306D01*
X115824427Y-101870318D01*
X115786000Y-102063504D01*
X115786000Y-102312000D01*
X116486000Y-102312000D01*
X116486000Y-102812000D01*
X115786000Y-102812000D01*
X115786000Y-103060495D01*
X115816516Y-103213909D01*
X115810289Y-103283501D01*
X115767426Y-103338678D01*
X115701536Y-103361922D01*
X115694899Y-103362100D01*
X109237101Y-103362100D01*
X109170062Y-103342415D01*
X109124307Y-103289611D01*
X109114363Y-103220453D01*
X109115484Y-103213909D01*
X109145999Y-103060495D01*
X109146000Y-103060492D01*
X109146000Y-102812000D01*
X108446000Y-102812000D01*
X108446000Y-102312000D01*
X109146000Y-102312000D01*
X109146000Y-102063508D01*
X109145999Y-102063504D01*
X109107572Y-101870318D01*
X109107569Y-101870306D01*
X109032192Y-101688328D01*
X109032185Y-101688315D01*
X108922751Y-101524537D01*
X108922748Y-101524533D01*
X108783466Y-101385251D01*
X108783462Y-101385248D01*
X108619684Y-101275814D01*
X108619671Y-101275807D01*
X108437691Y-101200429D01*
X108437683Y-101200427D01*
X108396000Y-101192135D01*
X108396000Y-101995011D01*
X108386060Y-101977795D01*
X108330205Y-101921940D01*
X108261796Y-101882444D01*
X108185496Y-101862000D01*
X108106504Y-101862000D01*
X108030204Y-101882444D01*
X107961795Y-101921940D01*
X107905940Y-101977795D01*
X107896000Y-101995011D01*
X107896000Y-101192136D01*
X107895999Y-101192135D01*
X107854316Y-101200427D01*
X107854308Y-101200429D01*
X107672328Y-101275807D01*
X107672315Y-101275814D01*
X107508537Y-101385248D01*
X107508533Y-101385251D01*
X107369251Y-101524533D01*
X107369248Y-101524537D01*
X107259814Y-101688315D01*
X107259807Y-101688328D01*
X107184430Y-101870306D01*
X107184427Y-101870318D01*
X107146000Y-102063504D01*
X107146000Y-102312000D01*
X107846000Y-102312000D01*
X107846000Y-102812000D01*
X107146000Y-102812000D01*
X107146000Y-103060495D01*
X107176516Y-103213909D01*
X107170289Y-103283501D01*
X107127426Y-103338678D01*
X107061536Y-103361922D01*
X107054899Y-103362100D01*
X86348161Y-103362100D01*
X86281122Y-103342415D01*
X86260479Y-103325780D01*
X86222838Y-103288138D01*
X86222834Y-103288135D01*
X86075353Y-103189590D01*
X86075340Y-103189583D01*
X85911467Y-103121706D01*
X85911458Y-103121703D01*
X85737494Y-103087100D01*
X85737491Y-103087100D01*
X85560109Y-103087100D01*
X85560106Y-103087100D01*
X85386141Y-103121703D01*
X85386132Y-103121706D01*
X85222259Y-103189583D01*
X85222246Y-103189590D01*
X85074765Y-103288135D01*
X85074761Y-103288138D01*
X84949338Y-103413561D01*
X84949335Y-103413565D01*
X84850790Y-103561046D01*
X84850783Y-103561059D01*
X84782906Y-103724932D01*
X84782903Y-103724941D01*
X84748300Y-103898904D01*
X84748300Y-104076295D01*
X84782903Y-104250258D01*
X84782906Y-104250267D01*
X84850783Y-104414140D01*
X84850790Y-104414153D01*
X84949335Y-104561634D01*
X84949338Y-104561638D01*
X85074761Y-104687061D01*
X85074765Y-104687064D01*
X85222246Y-104785609D01*
X85222259Y-104785616D01*
X85301174Y-104818303D01*
X85386134Y-104853494D01*
X85386136Y-104853494D01*
X85386141Y-104853496D01*
X85560104Y-104888099D01*
X85560107Y-104888100D01*
X85560109Y-104888100D01*
X85737493Y-104888100D01*
X85737494Y-104888099D01*
X85828219Y-104870053D01*
X85911458Y-104853496D01*
X85911461Y-104853494D01*
X85911466Y-104853494D01*
X86075347Y-104785613D01*
X86222835Y-104687064D01*
X86260479Y-104649420D01*
X86321801Y-104615934D01*
X86348161Y-104613100D01*
X88157347Y-104613100D01*
X88224386Y-104632785D01*
X88270141Y-104685589D01*
X88280085Y-104754747D01*
X88251060Y-104818303D01*
X88245028Y-104824781D01*
X88039141Y-105030667D01*
X88028224Y-105047006D01*
X88028216Y-105047018D01*
X88026284Y-105049911D01*
X87970688Y-105133114D01*
X87958033Y-105163667D01*
X87954708Y-105171694D01*
X87954704Y-105171701D01*
X87923538Y-105246944D01*
X87923535Y-105246951D01*
X87919725Y-105266112D01*
X87919725Y-105266115D01*
X87907754Y-105326303D01*
X87904132Y-105344511D01*
X87904131Y-105344515D01*
X87899500Y-105367793D01*
X87899500Y-107639320D01*
X87879815Y-107706359D01*
X87831797Y-107749804D01*
X87794908Y-107768600D01*
X87617519Y-107897481D01*
X87472681Y-108042320D01*
X87411358Y-108075805D01*
X87341666Y-108070821D01*
X87297319Y-108042320D01*
X87152480Y-107897481D01*
X87152478Y-107897479D01*
X86975091Y-107768600D01*
X86779726Y-107669057D01*
X86571195Y-107601301D01*
X86571193Y-107601300D01*
X86571191Y-107601300D01*
X86419984Y-107577351D01*
X86354631Y-107567000D01*
X86135369Y-107567000D01*
X86085165Y-107574951D01*
X85918808Y-107601300D01*
X85710271Y-107669058D01*
X85514908Y-107768600D01*
X85337519Y-107897481D01*
X85192681Y-108042320D01*
X85131358Y-108075805D01*
X85061666Y-108070821D01*
X85017319Y-108042320D01*
X84872480Y-107897481D01*
X84872478Y-107897479D01*
X84695091Y-107768600D01*
X84499726Y-107669057D01*
X84291195Y-107601301D01*
X84291193Y-107601300D01*
X84291191Y-107601300D01*
X84139984Y-107577351D01*
X84074631Y-107567000D01*
X83855369Y-107567000D01*
X83805165Y-107574951D01*
X83638808Y-107601300D01*
X83430271Y-107669058D01*
X83234908Y-107768600D01*
X83057519Y-107897481D01*
X82912681Y-108042320D01*
X82851358Y-108075805D01*
X82781666Y-108070821D01*
X82737319Y-108042320D01*
X82592480Y-107897481D01*
X82592478Y-107897479D01*
X82415091Y-107768600D01*
X82219726Y-107669057D01*
X82011195Y-107601301D01*
X82011193Y-107601300D01*
X82011191Y-107601300D01*
X81859984Y-107577351D01*
X81794631Y-107567000D01*
X81575369Y-107567000D01*
X81525165Y-107574951D01*
X81358808Y-107601300D01*
X81150271Y-107669058D01*
X80954908Y-107768600D01*
X80777519Y-107897481D01*
X80622481Y-108052519D01*
X80493600Y-108229908D01*
X80394058Y-108425271D01*
X80326300Y-108633808D01*
X80292000Y-108850369D01*
X80292000Y-109069630D01*
X80322647Y-109263129D01*
X80326301Y-109286195D01*
X80394057Y-109494726D01*
X80493600Y-109690091D01*
X80622479Y-109867478D01*
X80622481Y-109867480D01*
X80650820Y-109895819D01*
X80684305Y-109957142D01*
X80679321Y-110026834D01*
X80637449Y-110082767D01*
X80571985Y-110107184D01*
X80563139Y-110107500D01*
X80435409Y-110107500D01*
X80218921Y-110141788D01*
X80010460Y-110209521D01*
X79815168Y-110309028D01*
X79752855Y-110354300D01*
X79752855Y-110354301D01*
X80338023Y-110939469D01*
X80315339Y-110945548D01*
X80179662Y-111023882D01*
X80068882Y-111134662D01*
X79990548Y-111270339D01*
X79984469Y-111293023D01*
X79399301Y-110707855D01*
X79399300Y-110707855D01*
X79354028Y-110770168D01*
X79254521Y-110965460D01*
X79186788Y-111173921D01*
X79152500Y-111390408D01*
X79152500Y-111609591D01*
X79186788Y-111826078D01*
X79254521Y-112034539D01*
X79354025Y-112229825D01*
X79399301Y-112292143D01*
X79984469Y-111706975D01*
X79990548Y-111729661D01*
X80068882Y-111865338D01*
X80179662Y-111976118D01*
X80315339Y-112054452D01*
X80338023Y-112060530D01*
X79752854Y-112645697D01*
X79752855Y-112645698D01*
X79815166Y-112690970D01*
X80010460Y-112790478D01*
X80223557Y-112859718D01*
X80223149Y-112860973D01*
X80278512Y-112892748D01*
X80310688Y-112954768D01*
X80305173Y-113021879D01*
X80298409Y-113040015D01*
X80298408Y-113040016D01*
X80292001Y-113099616D01*
X80292000Y-113099635D01*
X80292000Y-114980370D01*
X80292001Y-114980376D01*
X80298408Y-115039983D01*
X80348702Y-115174828D01*
X80348706Y-115174835D01*
X80434952Y-115290044D01*
X80434955Y-115290047D01*
X80550164Y-115376293D01*
X80550171Y-115376297D01*
X80685017Y-115426591D01*
X80685016Y-115426591D01*
X80691944Y-115427335D01*
X80744627Y-115433000D01*
X82625372Y-115432999D01*
X82684983Y-115426591D01*
X82819831Y-115376296D01*
X82935046Y-115290046D01*
X82995864Y-115208803D01*
X82999580Y-115206021D01*
X83001514Y-115201801D01*
X83027284Y-115185282D01*
X83051796Y-115166934D01*
X83056427Y-115166602D01*
X83060337Y-115164097D01*
X83090951Y-115164133D01*
X83121488Y-115161950D01*
X83126855Y-115164176D01*
X83130207Y-115164181D01*
X83148100Y-115172991D01*
X83162294Y-115178881D01*
X83165199Y-115180753D01*
X83234909Y-115231400D01*
X83277396Y-115253047D01*
X83282665Y-115256443D01*
X83301571Y-115278315D01*
X83322590Y-115298166D01*
X83324348Y-115304665D01*
X83328356Y-115309302D01*
X83331424Y-115330823D01*
X83339500Y-115360678D01*
X83339500Y-115764700D01*
X83319815Y-115831739D01*
X83267011Y-115877494D01*
X83215500Y-115888700D01*
X83172506Y-115888700D01*
X82998541Y-115923303D01*
X82998532Y-115923306D01*
X82834659Y-115991183D01*
X82834646Y-115991190D01*
X82687165Y-116089735D01*
X82687161Y-116089738D01*
X82561738Y-116215161D01*
X82561735Y-116215165D01*
X82463190Y-116362646D01*
X82463183Y-116362659D01*
X82395306Y-116526532D01*
X82395303Y-116526541D01*
X82360700Y-116700504D01*
X82360700Y-116877895D01*
X82395303Y-117051858D01*
X82395306Y-117051867D01*
X82463183Y-117215740D01*
X82463190Y-117215753D01*
X82561735Y-117363234D01*
X82561738Y-117363238D01*
X82687161Y-117488661D01*
X82687165Y-117488664D01*
X82834646Y-117587209D01*
X82834659Y-117587216D01*
X82916737Y-117621213D01*
X82998534Y-117655094D01*
X82998536Y-117655094D01*
X82998541Y-117655096D01*
X83128723Y-117680990D01*
X83172509Y-117689700D01*
X83172515Y-117689700D01*
X83175116Y-117689957D01*
X83176396Y-117690473D01*
X83178483Y-117690889D01*
X83178404Y-117691284D01*
X83239904Y-117716115D01*
X83280265Y-117773148D01*
X83284583Y-117789168D01*
X83309704Y-117915459D01*
X83309706Y-117915467D01*
X83377583Y-118079340D01*
X83377590Y-118079353D01*
X83476135Y-118226834D01*
X83476138Y-118226838D01*
X83601561Y-118352261D01*
X83601565Y-118352264D01*
X83749046Y-118450809D01*
X83749059Y-118450816D01*
X83871963Y-118501723D01*
X83912934Y-118518694D01*
X83912936Y-118518694D01*
X83912941Y-118518696D01*
X84086904Y-118553299D01*
X84086907Y-118553300D01*
X84086909Y-118553300D01*
X84264293Y-118553300D01*
X84264294Y-118553299D01*
X84322282Y-118541764D01*
X84438258Y-118518696D01*
X84438261Y-118518694D01*
X84438266Y-118518694D01*
X84602147Y-118450813D01*
X84749635Y-118352264D01*
X84875064Y-118226835D01*
X84973613Y-118079347D01*
X85041494Y-117915466D01*
X85041494Y-117915461D01*
X85041496Y-117915458D01*
X85066192Y-117791300D01*
X85076100Y-117741491D01*
X85076100Y-117688252D01*
X85095785Y-117621213D01*
X85112419Y-117600571D01*
X86730855Y-115982136D01*
X86730855Y-115982135D01*
X86730858Y-115982133D01*
X86799312Y-115879685D01*
X86846463Y-115765851D01*
X86870501Y-115645006D01*
X86870501Y-115521793D01*
X86870501Y-115516683D01*
X86870500Y-115516657D01*
X86870500Y-115360678D01*
X86890185Y-115293639D01*
X86938204Y-115250194D01*
X86975091Y-115231400D01*
X87152478Y-115102521D01*
X87297319Y-114957680D01*
X87358642Y-114924195D01*
X87428334Y-114929179D01*
X87472681Y-114957680D01*
X87617522Y-115102521D01*
X87794909Y-115231400D01*
X87990274Y-115330943D01*
X88198805Y-115398699D01*
X88415369Y-115433000D01*
X88415370Y-115433000D01*
X88634630Y-115433000D01*
X88634631Y-115433000D01*
X88851195Y-115398699D01*
X89059726Y-115330943D01*
X89255091Y-115231400D01*
X89432478Y-115102521D01*
X89587521Y-114947478D01*
X89697509Y-114796091D01*
X89710136Y-114781308D01*
X90244469Y-114246975D01*
X90250548Y-114269661D01*
X90328882Y-114405338D01*
X90439662Y-114516118D01*
X90575339Y-114594452D01*
X90598023Y-114600530D01*
X90012854Y-115185697D01*
X90012855Y-115185698D01*
X90075166Y-115230970D01*
X90270460Y-115330478D01*
X90478921Y-115398211D01*
X90695409Y-115432500D01*
X90914591Y-115432500D01*
X91131078Y-115398211D01*
X91339539Y-115330478D01*
X91534829Y-115230972D01*
X91597143Y-115185697D01*
X91597144Y-115185697D01*
X91011976Y-114600530D01*
X91034661Y-114594452D01*
X91170338Y-114516118D01*
X91281118Y-114405338D01*
X91359452Y-114269661D01*
X91365530Y-114246976D01*
X91950697Y-114832144D01*
X91950697Y-114832143D01*
X91995972Y-114769829D01*
X92095478Y-114574539D01*
X92163211Y-114366078D01*
X92197500Y-114149591D01*
X92197500Y-113930408D01*
X92163211Y-113713921D01*
X92095478Y-113505460D01*
X91995970Y-113310166D01*
X91950698Y-113247855D01*
X91950697Y-113247854D01*
X91365529Y-113833022D01*
X91359452Y-113810339D01*
X91281118Y-113674662D01*
X91170338Y-113563882D01*
X91034661Y-113485548D01*
X91011976Y-113479469D01*
X91597143Y-112894301D01*
X91534825Y-112849025D01*
X91339539Y-112749521D01*
X91131078Y-112681788D01*
X90914591Y-112647500D01*
X90695404Y-112647500D01*
X90665979Y-112652160D01*
X90665976Y-112652162D01*
X90652472Y-112665666D01*
X90591148Y-112699150D01*
X90521456Y-112694164D01*
X90477111Y-112665664D01*
X90470226Y-112658779D01*
X89871976Y-112060530D01*
X89894661Y-112054452D01*
X90030338Y-111976118D01*
X90141118Y-111865338D01*
X90219452Y-111729661D01*
X90225530Y-111706976D01*
X90810697Y-112292144D01*
X90810697Y-112292143D01*
X90855972Y-112229829D01*
X90955478Y-112034539D01*
X91023211Y-111826078D01*
X91057500Y-111609591D01*
X91057500Y-111390411D01*
X91054270Y-111370020D01*
X91054270Y-111370017D01*
X91051748Y-111354092D01*
X95902000Y-111354092D01*
X95902000Y-111645907D01*
X95934668Y-111935852D01*
X95934671Y-111935870D01*
X95999601Y-112220347D01*
X95999606Y-112220363D01*
X96095980Y-112495781D01*
X96095983Y-112495789D01*
X96222582Y-112758676D01*
X96377833Y-113005755D01*
X96494452Y-113151993D01*
X97212906Y-112433538D01*
X97287216Y-112535816D01*
X97464184Y-112712784D01*
X97566459Y-112787091D01*
X96848005Y-113505546D01*
X96994244Y-113622166D01*
X97241323Y-113777417D01*
X97504210Y-113904016D01*
X97504218Y-113904019D01*
X97779636Y-114000393D01*
X97779652Y-114000398D01*
X98064129Y-114065328D01*
X98064147Y-114065331D01*
X98354092Y-114097999D01*
X98354096Y-114098000D01*
X98645904Y-114098000D01*
X98645907Y-114097999D01*
X98935852Y-114065331D01*
X98935870Y-114065328D01*
X99220347Y-114000398D01*
X99220363Y-114000393D01*
X99495781Y-113904019D01*
X99495789Y-113904016D01*
X99758676Y-113777417D01*
X100005755Y-113622166D01*
X100151993Y-113505546D01*
X99433539Y-112787092D01*
X99535816Y-112712784D01*
X99712784Y-112535816D01*
X99787092Y-112433539D01*
X100505546Y-113151993D01*
X100622166Y-113005755D01*
X100777417Y-112758676D01*
X100904016Y-112495789D01*
X100904019Y-112495781D01*
X100926370Y-112431909D01*
X101000393Y-112220363D01*
X101000398Y-112220347D01*
X101065328Y-111935870D01*
X101065331Y-111935852D01*
X101097999Y-111645907D01*
X101098000Y-111645903D01*
X101098000Y-111354096D01*
X101097999Y-111354092D01*
X101065331Y-111064147D01*
X101065328Y-111064129D01*
X101000398Y-110779652D01*
X101000393Y-110779636D01*
X100904019Y-110504218D01*
X100899786Y-110495428D01*
X100899785Y-110495425D01*
X100777417Y-110241323D01*
X100622166Y-109994244D01*
X100505546Y-109848005D01*
X99787091Y-110566459D01*
X99712784Y-110464184D01*
X99535816Y-110287216D01*
X99433538Y-110212906D01*
X100151993Y-109494452D01*
X100005755Y-109377833D01*
X99758676Y-109222582D01*
X99495789Y-109095983D01*
X99495781Y-109095980D01*
X99220363Y-108999606D01*
X99220347Y-108999601D01*
X98935870Y-108934671D01*
X98935852Y-108934668D01*
X98645907Y-108902000D01*
X98354092Y-108902000D01*
X98064147Y-108934668D01*
X98064129Y-108934671D01*
X97779652Y-108999601D01*
X97779636Y-108999606D01*
X97504218Y-109095980D01*
X97504210Y-109095983D01*
X97241323Y-109222582D01*
X96994240Y-109377835D01*
X96994236Y-109377838D01*
X96848005Y-109494452D01*
X97566460Y-110212907D01*
X97464184Y-110287216D01*
X97287216Y-110464184D01*
X97212907Y-110566460D01*
X96494452Y-109848005D01*
X96377838Y-109994236D01*
X96377835Y-109994240D01*
X96222582Y-110241323D01*
X96095983Y-110504210D01*
X96095980Y-110504218D01*
X95999606Y-110779636D01*
X95999601Y-110779652D01*
X95934671Y-111064129D01*
X95934668Y-111064147D01*
X95902000Y-111354092D01*
X91051748Y-111354092D01*
X91023212Y-111173922D01*
X91023212Y-111173921D01*
X90955478Y-110965460D01*
X90855970Y-110770166D01*
X90810698Y-110707855D01*
X90810697Y-110707854D01*
X90225529Y-111293022D01*
X90219452Y-111270339D01*
X90141118Y-111134662D01*
X90030338Y-111023882D01*
X89894661Y-110945548D01*
X89871976Y-110939469D01*
X90446164Y-110365281D01*
X90507487Y-110331796D01*
X90553243Y-110330489D01*
X90695369Y-110353000D01*
X90695370Y-110353000D01*
X90914630Y-110353000D01*
X90914631Y-110353000D01*
X91131195Y-110318699D01*
X91339726Y-110250943D01*
X91535091Y-110151400D01*
X91712478Y-110022521D01*
X91867521Y-109867478D01*
X91996400Y-109690091D01*
X92095943Y-109494726D01*
X92163699Y-109286195D01*
X92198000Y-109069631D01*
X92198000Y-108850369D01*
X92163699Y-108633805D01*
X92095943Y-108425274D01*
X91996400Y-108229909D01*
X91867521Y-108052522D01*
X91712478Y-107897479D01*
X91535091Y-107768600D01*
X91339726Y-107669057D01*
X91131195Y-107601301D01*
X91131193Y-107601300D01*
X91131191Y-107601300D01*
X90979984Y-107577351D01*
X90914631Y-107567000D01*
X90695369Y-107567000D01*
X90645165Y-107574951D01*
X90478808Y-107601300D01*
X90270271Y-107669058D01*
X90074908Y-107768600D01*
X89897519Y-107897481D01*
X89752681Y-108042320D01*
X89691358Y-108075805D01*
X89621666Y-108070821D01*
X89577319Y-108042320D01*
X89432480Y-107897481D01*
X89432478Y-107897479D01*
X89255091Y-107768600D01*
X89249343Y-107765671D01*
X89218203Y-107749804D01*
X89167408Y-107701829D01*
X89150500Y-107639320D01*
X89150500Y-105739852D01*
X89170185Y-105672813D01*
X89186819Y-105652171D01*
X89681572Y-105157419D01*
X89742895Y-105123934D01*
X89769253Y-105121100D01*
X107539988Y-105121100D01*
X107607027Y-105140785D01*
X107652782Y-105193589D01*
X107662726Y-105262747D01*
X107633701Y-105326303D01*
X107608879Y-105348202D01*
X107508537Y-105415248D01*
X107508533Y-105415251D01*
X107369251Y-105554533D01*
X107369248Y-105554537D01*
X107259814Y-105718315D01*
X107259807Y-105718328D01*
X107184430Y-105900306D01*
X107184427Y-105900318D01*
X107146000Y-106093504D01*
X107146000Y-106492000D01*
X107846000Y-106492000D01*
X107846000Y-106992000D01*
X107146000Y-106992000D01*
X107146000Y-107390495D01*
X107184427Y-107583681D01*
X107184430Y-107583693D01*
X107259807Y-107765671D01*
X107259814Y-107765684D01*
X107369248Y-107929462D01*
X107369251Y-107929466D01*
X107483741Y-108043956D01*
X107517226Y-108105279D01*
X107512242Y-108174971D01*
X107470370Y-108230904D01*
X107404906Y-108255321D01*
X107355106Y-108248679D01*
X107157180Y-108179422D01*
X107157178Y-108179421D01*
X106883424Y-108116939D01*
X106883412Y-108116937D01*
X106604401Y-108085500D01*
X106323598Y-108085500D01*
X106044587Y-108116937D01*
X106044575Y-108116939D01*
X105770821Y-108179421D01*
X105770819Y-108179422D01*
X105505782Y-108272162D01*
X105252799Y-108393992D01*
X105015043Y-108543384D01*
X104881741Y-108649687D01*
X105845466Y-109613412D01*
X105714825Y-109708329D01*
X105586829Y-109836325D01*
X105491912Y-109966966D01*
X104528187Y-109003241D01*
X104421884Y-109136543D01*
X104272492Y-109374299D01*
X104150662Y-109627282D01*
X104057922Y-109892319D01*
X104057921Y-109892321D01*
X103995439Y-110166075D01*
X103995437Y-110166087D01*
X103964000Y-110445098D01*
X103964000Y-110725901D01*
X103995437Y-111004912D01*
X103995439Y-111004924D01*
X104057921Y-111278678D01*
X104057922Y-111278680D01*
X104150662Y-111543717D01*
X104272492Y-111796700D01*
X104421884Y-112034456D01*
X104528187Y-112167757D01*
X105491912Y-111204032D01*
X105586829Y-111334675D01*
X105714825Y-111462671D01*
X105845466Y-111557586D01*
X104881741Y-112521310D01*
X104881741Y-112521311D01*
X105015043Y-112627615D01*
X105252799Y-112777007D01*
X105505782Y-112898837D01*
X105770819Y-112991577D01*
X105770821Y-112991578D01*
X106044575Y-113054060D01*
X106044587Y-113054062D01*
X106323598Y-113085499D01*
X106323600Y-113085500D01*
X106604400Y-113085500D01*
X106604401Y-113085499D01*
X106883412Y-113054062D01*
X106883424Y-113054060D01*
X107157178Y-112991578D01*
X107157180Y-112991577D01*
X107422217Y-112898837D01*
X107675200Y-112777007D01*
X107912956Y-112627616D01*
X108046257Y-112521310D01*
X108025911Y-112500964D01*
X107082533Y-111557586D01*
X107213175Y-111462671D01*
X107341171Y-111334675D01*
X107436086Y-111204033D01*
X108399810Y-112167757D01*
X108506116Y-112034456D01*
X108655507Y-111796700D01*
X108777337Y-111543717D01*
X108870077Y-111278680D01*
X108870078Y-111278678D01*
X108932560Y-111004924D01*
X108932562Y-111004912D01*
X108963999Y-110725901D01*
X108964000Y-110725899D01*
X108964000Y-110445100D01*
X108963999Y-110445098D01*
X108932562Y-110166087D01*
X108932560Y-110166075D01*
X108870078Y-109892321D01*
X108870077Y-109892319D01*
X108777337Y-109627282D01*
X108655507Y-109374299D01*
X108506115Y-109136543D01*
X108399810Y-109003241D01*
X107436086Y-109966965D01*
X107341171Y-109836325D01*
X107213175Y-109708329D01*
X107082533Y-109613412D01*
X108046257Y-108649687D01*
X107912956Y-108543384D01*
X107834707Y-108494217D01*
X107788416Y-108441883D01*
X107777767Y-108372829D01*
X107806142Y-108308981D01*
X107864532Y-108270609D01*
X107886688Y-108269505D01*
X107896000Y-108261863D01*
X107896000Y-107458988D01*
X107905940Y-107476205D01*
X107961795Y-107532060D01*
X108030204Y-107571556D01*
X108106504Y-107592000D01*
X108185496Y-107592000D01*
X108261796Y-107571556D01*
X108330205Y-107532060D01*
X108386060Y-107476205D01*
X108396000Y-107458988D01*
X108396000Y-108261862D01*
X108437690Y-108253569D01*
X108437692Y-108253569D01*
X108619671Y-108178192D01*
X108619684Y-108178185D01*
X108783462Y-108068751D01*
X108783466Y-108068748D01*
X108922748Y-107929466D01*
X108922751Y-107929462D01*
X109032185Y-107765684D01*
X109032192Y-107765671D01*
X109107569Y-107583693D01*
X109107572Y-107583681D01*
X109145999Y-107390495D01*
X109146000Y-107390492D01*
X109146000Y-106992000D01*
X108446000Y-106992000D01*
X108446000Y-106492000D01*
X108984216Y-106492000D01*
X109051255Y-106511685D01*
X109091602Y-106553999D01*
X109115485Y-106595365D01*
X109222635Y-106702515D01*
X109353865Y-106778281D01*
X109500234Y-106817500D01*
X109500236Y-106817500D01*
X109651764Y-106817500D01*
X109651766Y-106817500D01*
X109798135Y-106778281D01*
X109929365Y-106702515D01*
X110036515Y-106595365D01*
X110112281Y-106464135D01*
X110151500Y-106317766D01*
X110151500Y-106166234D01*
X110112281Y-106019865D01*
X110036515Y-105888635D01*
X109929365Y-105781485D01*
X109857255Y-105739852D01*
X109798136Y-105705719D01*
X109724950Y-105686109D01*
X109651766Y-105666500D01*
X109500234Y-105666500D01*
X109353863Y-105705719D01*
X109262428Y-105758510D01*
X109222635Y-105781485D01*
X109222633Y-105781486D01*
X109215597Y-105785549D01*
X109214327Y-105783349D01*
X109160995Y-105803960D01*
X109092552Y-105789914D01*
X109042568Y-105741094D01*
X109036131Y-105727838D01*
X109032192Y-105718328D01*
X109032185Y-105718315D01*
X108922751Y-105554537D01*
X108922748Y-105554533D01*
X108783466Y-105415251D01*
X108783462Y-105415248D01*
X108683121Y-105348202D01*
X108638316Y-105294590D01*
X108629609Y-105225265D01*
X108659764Y-105162237D01*
X108719207Y-105125518D01*
X108752012Y-105121100D01*
X116179988Y-105121100D01*
X116247027Y-105140785D01*
X116292782Y-105193589D01*
X116302726Y-105262747D01*
X116273701Y-105326303D01*
X116248879Y-105348202D01*
X116148537Y-105415248D01*
X116148533Y-105415251D01*
X116009251Y-105554533D01*
X116009248Y-105554537D01*
X115899814Y-105718315D01*
X115899809Y-105718324D01*
X115895866Y-105727845D01*
X115852023Y-105782247D01*
X115785728Y-105804310D01*
X115718030Y-105787029D01*
X115712597Y-105783351D01*
X115578136Y-105705719D01*
X115504950Y-105686109D01*
X115431766Y-105666500D01*
X115280234Y-105666500D01*
X115133863Y-105705719D01*
X115002635Y-105781485D01*
X115002632Y-105781487D01*
X114895487Y-105888632D01*
X114895485Y-105888635D01*
X114819719Y-106019863D01*
X114784179Y-106152504D01*
X114780500Y-106166234D01*
X114780500Y-106317766D01*
X114790089Y-106353553D01*
X114819719Y-106464136D01*
X114827851Y-106478220D01*
X114895485Y-106595365D01*
X115002635Y-106702515D01*
X115133865Y-106778281D01*
X115280234Y-106817500D01*
X115280236Y-106817500D01*
X115431763Y-106817500D01*
X115431766Y-106817500D01*
X115578135Y-106778281D01*
X115709365Y-106702515D01*
X115816515Y-106595365D01*
X115840397Y-106553999D01*
X115890964Y-106505784D01*
X115947784Y-106492000D01*
X116486000Y-106492000D01*
X116486000Y-106992000D01*
X115786000Y-106992000D01*
X115786000Y-107390495D01*
X115824427Y-107583681D01*
X115824430Y-107583693D01*
X115899807Y-107765671D01*
X115899814Y-107765684D01*
X116009248Y-107929462D01*
X116009251Y-107929466D01*
X116148533Y-108068748D01*
X116148537Y-108068751D01*
X116312315Y-108178185D01*
X116312328Y-108178192D01*
X116494308Y-108253569D01*
X116536000Y-108261862D01*
X116536000Y-107458988D01*
X116545940Y-107476205D01*
X116601795Y-107532060D01*
X116670204Y-107571556D01*
X116746504Y-107592000D01*
X116825496Y-107592000D01*
X116901796Y-107571556D01*
X116970205Y-107532060D01*
X117026060Y-107476205D01*
X117036000Y-107458988D01*
X117036000Y-108261863D01*
X117049694Y-108273102D01*
X117070866Y-108274997D01*
X117126044Y-108317859D01*
X117149289Y-108383749D01*
X117133222Y-108451746D01*
X117091439Y-108495381D01*
X117015043Y-108543384D01*
X116881741Y-108649687D01*
X117845466Y-109613412D01*
X117714825Y-109708329D01*
X117586829Y-109836325D01*
X117491912Y-109966966D01*
X116528187Y-109003241D01*
X116421884Y-109136543D01*
X116272492Y-109374299D01*
X116150662Y-109627282D01*
X116057922Y-109892319D01*
X116057921Y-109892321D01*
X115995439Y-110166075D01*
X115995437Y-110166087D01*
X115964000Y-110445098D01*
X115964000Y-110725901D01*
X115995437Y-111004912D01*
X115995439Y-111004924D01*
X116057921Y-111278678D01*
X116057922Y-111278680D01*
X116150662Y-111543717D01*
X116272492Y-111796700D01*
X116421884Y-112034456D01*
X116528187Y-112167757D01*
X117491912Y-111204032D01*
X117586829Y-111334675D01*
X117714825Y-111462671D01*
X117845466Y-111557586D01*
X116881741Y-112521310D01*
X116881741Y-112521311D01*
X117010576Y-112624053D01*
X117050716Y-112681241D01*
X117053566Y-112751053D01*
X117018221Y-112811323D01*
X116955902Y-112842916D01*
X116933263Y-112845000D01*
X114943602Y-112845000D01*
X114876563Y-112825315D01*
X114833117Y-112777295D01*
X114826287Y-112763890D01*
X114826285Y-112763887D01*
X114826284Y-112763885D01*
X114705971Y-112598286D01*
X114561213Y-112453528D01*
X114395613Y-112333215D01*
X114395612Y-112333214D01*
X114395610Y-112333213D01*
X114307175Y-112288153D01*
X114213223Y-112240281D01*
X114018534Y-112177022D01*
X113843995Y-112149378D01*
X113816352Y-112145000D01*
X113611648Y-112145000D01*
X113587329Y-112148851D01*
X113409465Y-112177022D01*
X113214776Y-112240281D01*
X113032386Y-112333215D01*
X112866786Y-112453528D01*
X112722028Y-112598286D01*
X112601714Y-112763886D01*
X112574203Y-112817879D01*
X112526227Y-112868674D01*
X112458406Y-112885468D01*
X112392272Y-112862929D01*
X112353234Y-112817876D01*
X112325861Y-112764152D01*
X112293474Y-112719577D01*
X112293474Y-112719576D01*
X111676550Y-113336501D01*
X111656630Y-113262157D01*
X111594095Y-113153843D01*
X111505657Y-113065405D01*
X111397343Y-113002870D01*
X111322996Y-112982949D01*
X111939922Y-112366024D01*
X111939921Y-112366023D01*
X111895359Y-112333647D01*
X111895350Y-112333641D01*
X111713031Y-112240744D01*
X111518417Y-112177509D01*
X111316317Y-112145500D01*
X111111683Y-112145500D01*
X110909582Y-112177509D01*
X110714968Y-112240744D01*
X110532644Y-112333643D01*
X110488077Y-112366023D01*
X110488077Y-112366024D01*
X111105003Y-112982949D01*
X111030657Y-113002870D01*
X110922343Y-113065405D01*
X110833905Y-113153843D01*
X110771370Y-113262157D01*
X110751449Y-113336502D01*
X110134524Y-112719577D01*
X110134523Y-112719577D01*
X110102143Y-112764144D01*
X110009244Y-112946468D01*
X109946009Y-113141082D01*
X109914000Y-113343182D01*
X109914000Y-113547817D01*
X109946009Y-113749917D01*
X110009244Y-113944531D01*
X110101558Y-114125706D01*
X110114454Y-114194375D01*
X110088178Y-114259116D01*
X110065388Y-114281265D01*
X110056457Y-114287950D01*
X110056451Y-114287957D01*
X109970206Y-114403164D01*
X109970202Y-114403171D01*
X109919908Y-114538017D01*
X109913501Y-114597616D01*
X109913500Y-114597635D01*
X109913500Y-116293370D01*
X109913501Y-116293376D01*
X109919908Y-116352983D01*
X109970202Y-116487828D01*
X109970206Y-116487835D01*
X110056452Y-116603044D01*
X110056455Y-116603047D01*
X110171664Y-116689293D01*
X110171671Y-116689297D01*
X110306517Y-116739591D01*
X110306516Y-116739591D01*
X110313444Y-116740335D01*
X110366127Y-116746000D01*
X112061872Y-116745999D01*
X112121483Y-116739591D01*
X112256331Y-116689296D01*
X112371546Y-116603046D01*
X112457796Y-116487831D01*
X112508091Y-116352983D01*
X112509394Y-116347468D01*
X112543963Y-116286750D01*
X112605872Y-116254360D01*
X112675464Y-116260583D01*
X112717387Y-116290475D01*
X112718589Y-116289274D01*
X112866786Y-116437471D01*
X112989383Y-116526541D01*
X113032390Y-116557787D01*
X113121212Y-116603044D01*
X113214776Y-116650718D01*
X113214778Y-116650718D01*
X113214781Y-116650720D01*
X113319137Y-116684627D01*
X113409465Y-116713977D01*
X113489548Y-116726661D01*
X113611648Y-116746000D01*
X113611649Y-116746000D01*
X113816351Y-116746000D01*
X113816352Y-116746000D01*
X114018534Y-116713977D01*
X114213219Y-116650720D01*
X114395610Y-116557787D01*
X114538802Y-116453753D01*
X114561213Y-116437471D01*
X114561215Y-116437468D01*
X114561219Y-116437466D01*
X114705966Y-116292719D01*
X114705968Y-116292715D01*
X114705971Y-116292713D01*
X114762315Y-116215161D01*
X114826287Y-116127110D01*
X114919220Y-115944719D01*
X114982477Y-115750034D01*
X115014500Y-115547852D01*
X115014500Y-115343148D01*
X114982477Y-115140966D01*
X114977826Y-115126654D01*
X114975832Y-115056815D01*
X115008077Y-115000657D01*
X115105436Y-114903299D01*
X115212516Y-114796219D01*
X115273839Y-114762734D01*
X115300197Y-114759900D01*
X115762162Y-114759900D01*
X115829201Y-114779585D01*
X115874956Y-114832389D01*
X115884252Y-114894435D01*
X115885566Y-114894522D01*
X115885300Y-114898580D01*
X115885300Y-115530233D01*
X115902524Y-115661058D01*
X115936600Y-115788229D01*
X115987102Y-115910150D01*
X115987103Y-115910151D01*
X116052920Y-116024149D01*
X116052932Y-116024167D01*
X116131927Y-116127113D01*
X116133259Y-116128849D01*
X116133264Y-116128854D01*
X116185228Y-116180818D01*
X116218713Y-116242141D01*
X116213729Y-116311833D01*
X116185228Y-116356180D01*
X114802227Y-117739181D01*
X114740904Y-117772666D01*
X114714546Y-117775500D01*
X113402129Y-117775500D01*
X113402123Y-117775501D01*
X113342516Y-117781908D01*
X113207671Y-117832202D01*
X113207664Y-117832206D01*
X113092455Y-117918452D01*
X113092452Y-117918455D01*
X113006206Y-118033664D01*
X113006202Y-118033671D01*
X112955908Y-118168517D01*
X112949501Y-118228116D01*
X112949500Y-118228135D01*
X112949500Y-120023870D01*
X112949501Y-120023876D01*
X112955908Y-120083483D01*
X113006202Y-120218328D01*
X113006206Y-120218335D01*
X113092452Y-120333544D01*
X113092455Y-120333547D01*
X113207664Y-120419793D01*
X113207671Y-120419797D01*
X113342517Y-120470091D01*
X113342516Y-120470091D01*
X113349444Y-120470835D01*
X113402127Y-120476500D01*
X114128769Y-120476499D01*
X114195808Y-120496183D01*
X114241563Y-120548987D01*
X114251507Y-120618146D01*
X114222482Y-120681702D01*
X114216450Y-120688180D01*
X113277051Y-121627581D01*
X113215728Y-121661066D01*
X113189370Y-121663900D01*
X66033030Y-121663900D01*
X65965991Y-121644215D01*
X65945349Y-121627581D01*
X64185219Y-119867451D01*
X64151734Y-119806128D01*
X64148900Y-119779770D01*
X64148900Y-114509828D01*
X64168585Y-114442789D01*
X64185214Y-114422152D01*
X65605622Y-113001743D01*
X65666943Y-112968260D01*
X65736635Y-112973244D01*
X65792568Y-113015116D01*
X65809482Y-113046090D01*
X65813002Y-113055527D01*
X65813006Y-113055535D01*
X65899252Y-113170744D01*
X65899255Y-113170747D01*
X66014464Y-113256993D01*
X66014471Y-113256997D01*
X66014474Y-113256998D01*
X66146398Y-113306202D01*
X66202331Y-113348073D01*
X66226749Y-113413537D01*
X66211898Y-113481810D01*
X66190747Y-113510065D01*
X66077071Y-113623741D01*
X65952179Y-113795642D01*
X65855704Y-113984982D01*
X65790042Y-114187070D01*
X65790042Y-114187073D01*
X65779569Y-114253200D01*
X66673788Y-114253200D01*
X66640875Y-114310207D01*
X66606800Y-114437374D01*
X66606800Y-114569026D01*
X66640875Y-114696193D01*
X66673788Y-114753200D01*
X65779569Y-114753200D01*
X65790042Y-114819326D01*
X65790042Y-114819329D01*
X65855704Y-115021417D01*
X65952179Y-115210757D01*
X66077072Y-115382659D01*
X66077076Y-115382664D01*
X66227335Y-115532923D01*
X66227340Y-115532927D01*
X66399242Y-115657820D01*
X66588582Y-115754295D01*
X66790671Y-115819957D01*
X66856800Y-115830431D01*
X66856800Y-114936212D01*
X66913807Y-114969125D01*
X67040974Y-115003200D01*
X67172626Y-115003200D01*
X67299793Y-114969125D01*
X67356800Y-114936212D01*
X67356800Y-115830430D01*
X67422926Y-115819957D01*
X67422929Y-115819957D01*
X67625017Y-115754295D01*
X67814357Y-115657820D01*
X67986259Y-115532927D01*
X67986264Y-115532923D01*
X68136523Y-115382664D01*
X68136527Y-115382659D01*
X68261420Y-115210757D01*
X68357895Y-115021417D01*
X68423557Y-114819329D01*
X68423557Y-114819326D01*
X68434031Y-114753200D01*
X67539812Y-114753200D01*
X67572725Y-114696193D01*
X67606800Y-114569026D01*
X67606800Y-114437374D01*
X67572725Y-114310207D01*
X67539812Y-114253200D01*
X68434031Y-114253200D01*
X68423557Y-114187073D01*
X68423557Y-114187070D01*
X68357895Y-113984982D01*
X68261420Y-113795642D01*
X68136527Y-113623740D01*
X68136523Y-113623735D01*
X68022853Y-113510065D01*
X67989368Y-113448742D01*
X67994352Y-113379050D01*
X68036224Y-113323117D01*
X68067200Y-113306202D01*
X68199131Y-113256996D01*
X68314346Y-113170746D01*
X68400596Y-113055531D01*
X68450891Y-112920683D01*
X68457300Y-112861073D01*
X68457299Y-111354092D01*
X70902000Y-111354092D01*
X70902000Y-111645907D01*
X70934668Y-111935852D01*
X70934671Y-111935870D01*
X70999601Y-112220347D01*
X70999606Y-112220363D01*
X71095980Y-112495781D01*
X71095983Y-112495789D01*
X71222582Y-112758676D01*
X71377833Y-113005755D01*
X71494452Y-113151993D01*
X72212906Y-112433538D01*
X72287216Y-112535816D01*
X72464184Y-112712784D01*
X72566459Y-112787091D01*
X71848005Y-113505546D01*
X71994244Y-113622166D01*
X72241323Y-113777417D01*
X72504210Y-113904016D01*
X72504218Y-113904019D01*
X72779636Y-114000393D01*
X72779652Y-114000398D01*
X73064129Y-114065328D01*
X73064147Y-114065331D01*
X73354092Y-114097999D01*
X73354096Y-114098000D01*
X73645904Y-114098000D01*
X73645907Y-114097999D01*
X73935852Y-114065331D01*
X73935870Y-114065328D01*
X74220347Y-114000398D01*
X74220363Y-114000393D01*
X74495781Y-113904019D01*
X74495789Y-113904016D01*
X74758676Y-113777417D01*
X75005755Y-113622166D01*
X75151993Y-113505546D01*
X74433539Y-112787092D01*
X74535816Y-112712784D01*
X74712784Y-112535816D01*
X74787092Y-112433539D01*
X75505546Y-113151993D01*
X75622166Y-113005755D01*
X75777417Y-112758676D01*
X75904016Y-112495789D01*
X75904019Y-112495781D01*
X76000393Y-112220363D01*
X76000398Y-112220347D01*
X76065328Y-111935870D01*
X76065331Y-111935852D01*
X76097999Y-111645907D01*
X76098000Y-111645903D01*
X76098000Y-111354096D01*
X76097999Y-111354092D01*
X76065331Y-111064147D01*
X76065328Y-111064129D01*
X76000398Y-110779652D01*
X76000393Y-110779636D01*
X75904020Y-110504222D01*
X75880491Y-110455361D01*
X75880490Y-110455357D01*
X75777417Y-110241323D01*
X75622166Y-109994244D01*
X75505546Y-109848005D01*
X74787091Y-110566459D01*
X74712784Y-110464184D01*
X74535816Y-110287216D01*
X74433538Y-110212906D01*
X75151993Y-109494452D01*
X75005755Y-109377833D01*
X74758676Y-109222582D01*
X74495789Y-109095983D01*
X74495781Y-109095980D01*
X74220363Y-108999606D01*
X74220347Y-108999601D01*
X73935870Y-108934671D01*
X73935852Y-108934668D01*
X73645907Y-108902000D01*
X73354092Y-108902000D01*
X73064147Y-108934668D01*
X73064129Y-108934671D01*
X72779652Y-108999601D01*
X72779636Y-108999606D01*
X72504218Y-109095980D01*
X72504210Y-109095983D01*
X72241323Y-109222582D01*
X71994240Y-109377835D01*
X71994236Y-109377838D01*
X71848005Y-109494452D01*
X72566460Y-110212907D01*
X72464184Y-110287216D01*
X72287216Y-110464184D01*
X72212907Y-110566460D01*
X71494452Y-109848005D01*
X71377838Y-109994236D01*
X71377835Y-109994240D01*
X71222582Y-110241323D01*
X71095983Y-110504210D01*
X71095980Y-110504218D01*
X70999606Y-110779636D01*
X70999601Y-110779652D01*
X70934671Y-111064129D01*
X70934668Y-111064147D01*
X70902000Y-111354092D01*
X68457299Y-111354092D01*
X68457299Y-111065328D01*
X68450891Y-111005717D01*
X68450595Y-111004924D01*
X68400597Y-110870871D01*
X68400593Y-110870864D01*
X68314347Y-110755655D01*
X68314344Y-110755652D01*
X68199135Y-110669406D01*
X68199128Y-110669402D01*
X68064282Y-110619108D01*
X68064283Y-110619108D01*
X68004683Y-110612701D01*
X68004681Y-110612700D01*
X68004673Y-110612700D01*
X68004664Y-110612700D01*
X66208929Y-110612700D01*
X66208923Y-110612701D01*
X66149316Y-110619108D01*
X66014471Y-110669402D01*
X66014464Y-110669406D01*
X65899255Y-110755652D01*
X65899252Y-110755655D01*
X65813006Y-110870864D01*
X65813002Y-110870871D01*
X65762708Y-111005717D01*
X65756487Y-111063587D01*
X65756301Y-111065323D01*
X65756300Y-111065335D01*
X65756300Y-111088700D01*
X65736615Y-111155739D01*
X65683811Y-111201494D01*
X65632300Y-111212700D01*
X65508880Y-111212700D01*
X65363892Y-111241540D01*
X65363882Y-111241543D01*
X65227311Y-111298112D01*
X65227298Y-111298119D01*
X65111132Y-111375738D01*
X65111133Y-111375739D01*
X65104386Y-111380246D01*
X65104382Y-111380250D01*
X62815447Y-113669184D01*
X62815445Y-113669186D01*
X62794136Y-113701079D01*
X62785634Y-113713805D01*
X62770031Y-113737157D01*
X62733314Y-113792107D01*
X62676743Y-113928682D01*
X62676740Y-113928692D01*
X62647900Y-114073679D01*
X62647900Y-114073682D01*
X62647900Y-120215918D01*
X62647900Y-120215920D01*
X62647899Y-120215920D01*
X60500000Y-120215920D01*
X60500000Y-105835428D01*
X62650000Y-105835428D01*
X62650000Y-106164571D01*
X62682261Y-106492139D01*
X62746474Y-106814956D01*
X62746475Y-106814961D01*
X62842025Y-107129946D01*
X62967985Y-107434039D01*
X62967987Y-107434044D01*
X63123137Y-107724309D01*
X63123148Y-107724327D01*
X63306007Y-107997995D01*
X63306010Y-107997999D01*
X63460364Y-108186081D01*
X63460365Y-108186081D01*
X64705748Y-106940698D01*
X64779588Y-107042330D01*
X64957670Y-107220412D01*
X65059300Y-107294251D01*
X63813917Y-108539633D01*
X63813917Y-108539634D01*
X64002000Y-108693989D01*
X64002004Y-108693992D01*
X64275672Y-108876851D01*
X64275690Y-108876862D01*
X64565955Y-109032012D01*
X64565960Y-109032014D01*
X64870053Y-109157974D01*
X65185038Y-109253524D01*
X65185043Y-109253525D01*
X65507860Y-109317738D01*
X65835428Y-109350000D01*
X66164572Y-109350000D01*
X66492139Y-109317738D01*
X66814956Y-109253525D01*
X66814961Y-109253524D01*
X67129946Y-109157974D01*
X67434039Y-109032014D01*
X67434044Y-109032012D01*
X67724309Y-108876862D01*
X67724327Y-108876851D01*
X67998004Y-108693986D01*
X68186081Y-108539635D01*
X68186082Y-108539634D01*
X66940698Y-107294251D01*
X67042330Y-107220412D01*
X67220412Y-107042330D01*
X67294251Y-106940699D01*
X68539634Y-108186082D01*
X68539635Y-108186081D01*
X68693986Y-107998004D01*
X68876851Y-107724327D01*
X68876862Y-107724309D01*
X69032012Y-107434044D01*
X69032014Y-107434039D01*
X69157974Y-107129946D01*
X69253524Y-106814961D01*
X69253525Y-106814956D01*
X69317738Y-106492139D01*
X69350000Y-106164571D01*
X69350000Y-105835428D01*
X69317738Y-105507860D01*
X69253525Y-105185043D01*
X69253524Y-105185038D01*
X69157974Y-104870053D01*
X69032014Y-104565960D01*
X69032012Y-104565955D01*
X68876862Y-104275690D01*
X68876851Y-104275672D01*
X68693992Y-104002004D01*
X68693989Y-104002000D01*
X68539634Y-103813917D01*
X68539633Y-103813917D01*
X67294250Y-105059300D01*
X67220412Y-104957670D01*
X67042330Y-104779588D01*
X66940697Y-104705747D01*
X68186081Y-103460365D01*
X68186081Y-103460364D01*
X67997999Y-103306010D01*
X67997995Y-103306007D01*
X67724327Y-103123148D01*
X67724309Y-103123137D01*
X67434044Y-102967987D01*
X67434039Y-102967985D01*
X67129946Y-102842025D01*
X66814961Y-102746475D01*
X66814956Y-102746474D01*
X66492139Y-102682261D01*
X66164572Y-102650000D01*
X65835428Y-102650000D01*
X65507860Y-102682261D01*
X65185043Y-102746474D01*
X65185038Y-102746475D01*
X64870053Y-102842025D01*
X64565960Y-102967985D01*
X64565955Y-102967987D01*
X64275690Y-103123137D01*
X64275672Y-103123148D01*
X64002004Y-103306007D01*
X64001999Y-103306010D01*
X63813917Y-103460364D01*
X63813917Y-103460365D01*
X65059301Y-104705748D01*
X64957670Y-104779588D01*
X64779588Y-104957670D01*
X64705748Y-105059301D01*
X63460365Y-103813917D01*
X63460364Y-103813917D01*
X63306010Y-104001999D01*
X63306007Y-104002004D01*
X63123148Y-104275672D01*
X63123137Y-104275690D01*
X62967987Y-104565955D01*
X62967985Y-104565960D01*
X62842025Y-104870053D01*
X62746475Y-105185038D01*
X62746474Y-105185043D01*
X62682261Y-105507860D01*
X62650000Y-105835428D01*
X60500000Y-105835428D01*
X60500000Y-100624000D01*
X60519685Y-100556961D01*
X60572489Y-100511206D01*
X60624000Y-100500000D01*
X171376000Y-100500000D01*
X171443039Y-100519685D01*
G37*
%TD.AperFunction*%
%TD*%
M02*
