%TF.GenerationSoftware,KiCad,Pcbnew,9.0.0*%
%TF.CreationDate,2025-03-02T13:03:40+01:00*%
%TF.ProjectId,pc1715-esp32vga,70633137-3135-42d6-9573-703332766761,2*%
%TF.SameCoordinates,Original*%
%TF.FileFunction,Soldermask,Bot*%
%TF.FilePolarity,Negative*%
%FSLAX46Y46*%
G04 Gerber Fmt 4.6, Leading zero omitted, Abs format (unit mm)*
G04 Created by KiCad (PCBNEW 9.0.0) date 2025-03-02 13:03:40*
%MOMM*%
%LPD*%
G01*
G04 APERTURE LIST*
G04 Aperture macros list*
%AMRoundRect*
0 Rectangle with rounded corners*
0 $1 Rounding radius*
0 $2 $3 $4 $5 $6 $7 $8 $9 X,Y pos of 4 corners*
0 Add a 4 corners polygon primitive as box body*
4,1,4,$2,$3,$4,$5,$6,$7,$8,$9,$2,$3,0*
0 Add four circle primitives for the rounded corners*
1,1,$1+$1,$2,$3*
1,1,$1+$1,$4,$5*
1,1,$1+$1,$6,$7*
1,1,$1+$1,$8,$9*
0 Add four rect primitives between the rounded corners*
20,1,$1+$1,$2,$3,$4,$5,0*
20,1,$1+$1,$4,$5,$6,$7,0*
20,1,$1+$1,$6,$7,$8,$9,0*
20,1,$1+$1,$8,$9,$2,$3,0*%
%AMFreePoly0*
4,1,23,0.550000,-0.750000,0.000000,-0.750000,0.000000,-0.745722,-0.065263,-0.745722,-0.191342,-0.711940,-0.304381,-0.646677,-0.396677,-0.554381,-0.461940,-0.441342,-0.495722,-0.315263,-0.495722,-0.250000,-0.500000,-0.250000,-0.500000,0.250000,-0.495722,0.250000,-0.495722,0.315263,-0.461940,0.441342,-0.396677,0.554381,-0.304381,0.646677,-0.191342,0.711940,-0.065263,0.745722,0.000000,0.745722,
0.000000,0.750000,0.550000,0.750000,0.550000,-0.750000,0.550000,-0.750000,$1*%
%AMFreePoly1*
4,1,23,0.000000,0.745722,0.065263,0.745722,0.191342,0.711940,0.304381,0.646677,0.396677,0.554381,0.461940,0.441342,0.495722,0.315263,0.495722,0.250000,0.500000,0.250000,0.500000,-0.250000,0.495722,-0.250000,0.495722,-0.315263,0.461940,-0.441342,0.396677,-0.554381,0.304381,-0.646677,0.191342,-0.711940,0.065263,-0.745722,0.000000,-0.745722,0.000000,-0.750000,-0.550000,-0.750000,
-0.550000,0.750000,0.000000,0.750000,0.000000,0.745722,0.000000,0.745722,$1*%
G04 Aperture macros list end*
%ADD10C,0.650000*%
%ADD11O,1.000000X2.100000*%
%ADD12O,1.000000X1.800000*%
%ADD13C,5.700000*%
%ADD14RoundRect,0.250000X0.600000X-0.600000X0.600000X0.600000X-0.600000X0.600000X-0.600000X-0.600000X0*%
%ADD15C,1.700000*%
%ADD16R,1.600000X1.600000*%
%ADD17C,1.600000*%
%ADD18C,4.000000*%
%ADD19R,1.700000X1.700000*%
%ADD20O,1.700000X1.700000*%
%ADD21R,1.785000X1.785000*%
%ADD22C,1.785000*%
%ADD23C,4.196000*%
%ADD24FreePoly0,0.000000*%
%ADD25R,1.000000X1.500000*%
%ADD26FreePoly1,0.000000*%
G04 APERTURE END LIST*
D10*
%TO.C,J6*%
X115356000Y-106242000D03*
X109576000Y-106242000D03*
D11*
X116786000Y-106742000D03*
D12*
X116786000Y-102562000D03*
D11*
X108146000Y-106742000D03*
D12*
X108146000Y-102562000D03*
%TD*%
D13*
%TO.C,H1003*%
X166000000Y-106000000D03*
%TD*%
D14*
%TO.C,J1*%
X109200000Y-137500000D03*
D15*
X109200000Y-134960000D03*
X111740000Y-137500000D03*
X111740000Y-134960000D03*
X114280000Y-137500000D03*
X114280000Y-134960000D03*
X116820000Y-137500000D03*
X116820000Y-134960000D03*
X119360000Y-137500000D03*
X119360000Y-134960000D03*
%TD*%
D13*
%TO.C,H1001*%
X66000000Y-106000000D03*
%TD*%
D16*
%TO.C,J3*%
X111214000Y-115445500D03*
D17*
X113714000Y-115445500D03*
X113714000Y-113445500D03*
X111214000Y-113445500D03*
D18*
X106464000Y-110585500D03*
X118464000Y-110585500D03*
%TD*%
D13*
%TO.C,H1002*%
X66000000Y-139000000D03*
%TD*%
D19*
%TO.C,J7*%
X164925000Y-124900000D03*
D20*
X167465000Y-124900000D03*
X164925000Y-127440000D03*
X167465000Y-127440000D03*
X164925000Y-129980000D03*
X167465000Y-129980000D03*
X164925000Y-132520000D03*
X167465000Y-132520000D03*
%TD*%
D14*
%TO.C,J4*%
X134700000Y-137500000D03*
D15*
X134700000Y-134960000D03*
X137240000Y-137500000D03*
X137240000Y-134960000D03*
X139780000Y-137500000D03*
X139780000Y-134960000D03*
X142320000Y-137500000D03*
X142320000Y-134960000D03*
X144860000Y-137500000D03*
X144860000Y-134960000D03*
%TD*%
D13*
%TO.C,H1004*%
X166000000Y-139000000D03*
%TD*%
D14*
%TO.C,J5*%
X76140000Y-137500000D03*
D15*
X76140000Y-134960000D03*
X78680000Y-137500000D03*
X78680000Y-134960000D03*
X81220000Y-137500000D03*
X81220000Y-134960000D03*
X83760000Y-137500000D03*
X83760000Y-134960000D03*
X86300000Y-137500000D03*
X86300000Y-134960000D03*
X88840000Y-137500000D03*
X88840000Y-134960000D03*
X91380000Y-137500000D03*
X91380000Y-134960000D03*
X93920000Y-137500000D03*
X93920000Y-134960000D03*
%TD*%
D21*
%TO.C,J2*%
X81685000Y-114040000D03*
D22*
X83965000Y-114040000D03*
X86245000Y-114040000D03*
X88525000Y-114040000D03*
X90805000Y-114040000D03*
X80545000Y-111500000D03*
X82825000Y-111500000D03*
X85105000Y-111500000D03*
X87385000Y-111500000D03*
X89665000Y-111500000D03*
X81685000Y-108960000D03*
X83965000Y-108960000D03*
X86245000Y-108960000D03*
X88525000Y-108960000D03*
X90805000Y-108960000D03*
D23*
X98500000Y-111500000D03*
X73500000Y-111500000D03*
%TD*%
D19*
%TO.C,J8*%
X67106800Y-111963200D03*
D20*
X67106800Y-114503200D03*
%TD*%
D19*
%TO.C,JP3*%
X114300000Y-119126000D03*
D20*
X116840000Y-119126000D03*
X119380000Y-119126000D03*
%TD*%
D19*
%TO.C,JP1*%
X164825000Y-120300000D03*
D20*
X167365000Y-120300000D03*
%TD*%
D24*
%TO.C,JP2*%
X116890800Y-115214400D03*
D25*
X118190800Y-115214400D03*
D26*
X119490800Y-115214400D03*
%TD*%
M02*
