M48
; DRILL file {KiCad 8.0.4} date 2024-08-04T15:04:29+0200
; FORMAT={-:-/ absolute / inch / decimal}
; #@! TF.CreationDate,2024-08-04T15:04:29+02:00
; #@! TF.GenerationSoftware,Kicad,Pcbnew,8.0.4
; #@! TF.FileFunction,Plated,1,2,PTH
FMAT,2
INCH
; #@! TA.AperFunction,Plated,PTH,ViaDrill
T1C0.0157
; #@! TA.AperFunction,Plated,PTH,ComponentDrill
T2C0.0236
; #@! TA.AperFunction,Plated,PTH,ComponentDrill
T3C0.0374
; #@! TA.AperFunction,Plated,PTH,ComponentDrill
T4C0.0394
; #@! TA.AperFunction,Plated,PTH,ComponentDrill
T5C0.0469
; #@! TA.AperFunction,Plated,PTH,ComponentDrill
T6C0.0906
; #@! TA.AperFunction,Plated,PTH,ComponentDrill
T7C0.1252
; #@! TA.AperFunction,Plated,PTH,ComponentDrill
T8C0.1260
%
G90
G05
T1
X2.7077Y-4.4279
X2.7077Y-4.7379
X2.8777Y-5.1779
X3.0077Y-4.0979
X3.2159Y-4.6579
X3.2638Y-4.7441
X3.3057Y-4.6279
X3.3583Y-4.7441
X3.3955Y-4.5979
X3.5197Y-4.7441
X3.6577Y-4.1979
X3.828Y-4.1581
X3.8377Y-4.1979
X3.9577Y-5.1779
X4.0377Y-4.6079
X4.2047Y-4.189
X4.315Y-4.7441
X4.3346Y-4.2717
X4.4016Y-4.2717
X4.4331Y-4.0118
X4.4567Y-4.2717
X4.5354Y-4.2717
X4.815Y-5.0669
X4.8858Y-5.3543
X4.8877Y-4.4679
X4.8898Y-4.6378
X4.8898Y-4.7441
X4.8898Y-4.9055
X4.8898Y-4.9803
X4.9646Y-5.063
X4.9646Y-5.1614
X4.9646Y-5.2638
X4.9877Y-4.0279
X4.9977Y-4.4679
X5.0077Y-4.3079
X5.0277Y-4.3279
X5.1277Y-4.4879
X5.2008Y-5.1024
X5.2165Y-4.0827
X5.2177Y-4.1579
X5.2177Y-4.2979
X5.2177Y-4.4279
X5.2992Y-4.6378
X5.2992Y-4.7441
X5.2992Y-5.0984
X5.2992Y-5.1929
X5.2992Y-5.3543
X5.4477Y-4.1979
X5.4477Y-4.2979
X5.4477Y-4.3579
X5.4843Y-4.9055
X5.4882Y-5.3071
X5.4961Y-4.9921
X5.5906Y-3.9961
X5.5906Y-4.0472
X5.6063Y-5.1929
X5.6077Y-4.1579
X5.6077Y-4.2879
X5.6077Y-4.4279
X5.6299Y-4.8071
X5.6732Y-4.5945
X5.6732Y-4.6378
X5.6732Y-5.1929
X5.6877Y-4.5479
X5.711Y-5.0551
X5.7126Y-4.9055
X5.7205Y-4.8071
X5.7913Y-4.6457
X5.811Y-4.8071
X5.811Y-4.9409
X5.8377Y-4.1679
X5.8425Y-4.6457
X5.8858Y-4.6063
X5.9449Y-4.6063
X5.9449Y-5.2087
X5.9567Y-5.1693
X5.9734Y-4.9016
X5.9877Y-4.0979
X5.9911Y-4.6191
X5.9921Y-4.5157
X6.0039Y-5.0315
X6.0236Y-4.9409
X6.0433Y-4.626
X6.063Y-4.9016
X6.0827Y-4.6457
X6.1063Y-5.0315
X6.1277Y-4.1479
X6.1417Y-3.9961
X6.1563Y-4.252
X6.1577Y-4.8079
X6.374Y-4.3701
X6.374Y-5.1339
T3
X4.3785Y-4.4664
X4.3785Y-4.5451
X4.4769Y-4.4664
X4.4769Y-4.5451
T4
X3.0071Y-5.0984
X3.0071Y-5.1984
X3.1071Y-5.0984
X3.1071Y-5.1984
X3.2071Y-5.0984
X3.2071Y-5.1984
X3.3071Y-5.0984
X3.3071Y-5.1984
X3.4071Y-5.0984
X3.4071Y-5.1984
X3.5071Y-5.0984
X3.5071Y-5.1984
X3.6071Y-5.0984
X3.6071Y-5.1984
X3.7071Y-5.0984
X3.7071Y-5.1984
X4.2391Y-5.0969
X4.2391Y-5.1969
X4.3391Y-5.0969
X4.3391Y-5.1969
X4.4391Y-5.0969
X4.4391Y-5.1969
X4.5391Y-5.0969
X4.5391Y-5.1969
X4.6391Y-5.0969
X4.6391Y-5.1969
X5.711Y-5.2795
X5.811Y-5.2795
X5.911Y-5.2795
X6.011Y-5.2795
X6.111Y-5.2795
X6.211Y-5.2795
X6.311Y-5.2795
X6.3377Y-4.0479
X6.3377Y-4.1479
X6.3622Y-4.4606
X6.3622Y-4.5606
X6.3622Y-4.6606
X6.3622Y-4.7606
X6.3622Y-4.8606
T5
X3.1711Y-4.3898
X3.2159Y-4.2898
X3.2159Y-4.4898
X3.2608Y-4.3898
X3.3057Y-4.2898
X3.3057Y-4.4898
X3.3506Y-4.3898
X3.3955Y-4.2898
X3.3955Y-4.4898
X3.4404Y-4.3898
X3.4852Y-4.2898
X3.4852Y-4.4898
X3.5301Y-4.3898
X3.575Y-4.2898
X3.575Y-4.4898
T6
X4.1915Y-4.3538
X4.6639Y-4.3538
T7
X2.8937Y-4.3898
X3.878Y-4.3898
T8
X2.5984Y-4.1732
X2.5984Y-5.1575
X6.5354Y-4.1732
X6.5354Y-5.1575
T2
G00X4.2577Y-4.0536
M15
G01X4.2577Y-4.0221
M16
G05
G00X4.2577Y-4.2241
M15
G01X4.2577Y-4.1808
M16
G05
G00X4.5979Y-4.0536
M15
G01X4.5979Y-4.0221
M16
G05
G00X4.5979Y-4.2241
M15
G01X4.5979Y-4.1808
M16
G05
M30
