%TF.GenerationSoftware,KiCad,Pcbnew,8.0.8*%
%TF.CreationDate,2025-01-24T14:07:33+01:00*%
%TF.ProjectId,pc1715-esp32vga,70633137-3135-42d6-9573-703332766761,2*%
%TF.SameCoordinates,Original*%
%TF.FileFunction,Drillmap*%
%TF.FilePolarity,Positive*%
%FSLAX45Y45*%
G04 Gerber Fmt 4.5, Leading zero omitted, Abs format (unit mm)*
G04 Created by KiCad (PCBNEW 8.0.8) date 2025-01-24 14:07:33*
%MOMM*%
%LPD*%
G01*
G04 APERTURE LIST*
%ADD10C,0.100000*%
%ADD11C,0.200000*%
%ADD12C,0.119000*%
%ADD13C,0.230000*%
%ADD14C,0.318000*%
%ADD15C,0.320000*%
G04 APERTURE END LIST*
D10*
X6000000Y-10000000D02*
X17200000Y-10000000D01*
X17200000Y-14500000D01*
X6000000Y-14500000D01*
X6000000Y-10000000D01*
D11*
D10*
X6853240Y-12390440D02*
X6893240Y-12430440D01*
X6893240Y-12390440D02*
X6853240Y-12430440D01*
X6853240Y-14224320D02*
X6893240Y-14264320D01*
X6893240Y-14224320D02*
X6853240Y-14264320D01*
X6857600Y-12014200D02*
X6897600Y-12054200D01*
X6897600Y-12014200D02*
X6857600Y-12054200D01*
X7437440Y-12017060D02*
X7477440Y-12057060D01*
X7477440Y-12017060D02*
X7437440Y-12057060D01*
X7549200Y-12390440D02*
X7589200Y-12430440D01*
X7589200Y-12390440D02*
X7549200Y-12430440D01*
X7549200Y-13218480D02*
X7589200Y-13258480D01*
X7589200Y-13218480D02*
X7549200Y-13258480D01*
X7619600Y-10388600D02*
X7659600Y-10428600D01*
X7659600Y-10388600D02*
X7619600Y-10428600D01*
X7935280Y-11526840D02*
X7975280Y-11566840D01*
X7975280Y-11526840D02*
X7935280Y-11566840D01*
X7965760Y-12136440D02*
X8005760Y-12176440D01*
X8005760Y-12136440D02*
X7965760Y-12176440D01*
X8158800Y-11760520D02*
X8198800Y-11800520D01*
X8198800Y-11760520D02*
X8158800Y-11800520D01*
X8306120Y-11658920D02*
X8346120Y-11698920D01*
X8346120Y-11658920D02*
X8306120Y-11698920D01*
X8397560Y-11745280D02*
X8437560Y-11785280D01*
X8437560Y-11745280D02*
X8397560Y-11785280D01*
X8544880Y-10378760D02*
X8584880Y-10418760D01*
X8584880Y-10378760D02*
X8544880Y-10418760D01*
X8803960Y-13005120D02*
X8843960Y-13045120D01*
X8843960Y-13005120D02*
X8803960Y-13045120D01*
X8966520Y-12629200D02*
X9006520Y-12669200D01*
X9006520Y-12629200D02*
X8966520Y-12669200D01*
X8966520Y-12812080D02*
X9006520Y-12852080D01*
X9006520Y-12812080D02*
X8966520Y-12852080D01*
X8971600Y-12451400D02*
X9011600Y-12491400D01*
X9011600Y-12451400D02*
X8971600Y-12491400D01*
X9159560Y-11135680D02*
X9199560Y-11175680D01*
X9199560Y-11135680D02*
X9159560Y-11175680D01*
X9276400Y-11918000D02*
X9316400Y-11958000D01*
X9316400Y-11918000D02*
X9276400Y-11958000D01*
X9921560Y-12949240D02*
X9961560Y-12989240D01*
X9961560Y-12949240D02*
X9921560Y-12989240D01*
X9992680Y-10607360D02*
X10032680Y-10647360D01*
X10032680Y-10607360D02*
X9992680Y-10647360D01*
X10013000Y-12370120D02*
X10053000Y-12410120D01*
X10053000Y-12370120D02*
X10013000Y-12410120D01*
X10013000Y-12556700D02*
X10053000Y-12596700D01*
X10053000Y-12556700D02*
X10013000Y-12596700D01*
X10032600Y-13131800D02*
X10072600Y-13171800D01*
X10072600Y-13131800D02*
X10032600Y-13171800D01*
X10235800Y-11684000D02*
X10275800Y-11724000D01*
X10275800Y-11684000D02*
X10235800Y-11724000D01*
X10587040Y-13731560D02*
X10627040Y-13771560D01*
X10627040Y-13731560D02*
X10587040Y-13771560D01*
X10660000Y-10620000D02*
X10700000Y-10660000D01*
X10700000Y-10620000D02*
X10660000Y-10660000D01*
X11029000Y-13233720D02*
X11069000Y-13273720D01*
X11069000Y-13233720D02*
X11029000Y-13273720D01*
X11240000Y-10170000D02*
X11280000Y-10210000D01*
X11280000Y-10170000D02*
X11240000Y-10210000D01*
X11331260Y-13066080D02*
X11371260Y-13106080D01*
X11371260Y-13066080D02*
X11331260Y-13106080D01*
X11500000Y-10830000D02*
X11540000Y-10870000D01*
X11540000Y-10830000D02*
X11500000Y-10870000D01*
X11938320Y-10627680D02*
X11978320Y-10667680D01*
X11978320Y-10627680D02*
X11938320Y-10667680D01*
X12217720Y-13731560D02*
X12257720Y-13771560D01*
X12257720Y-13731560D02*
X12217720Y-13771560D01*
X12273600Y-12725720D02*
X12313600Y-12765720D01*
X12313600Y-12725720D02*
X12273600Y-12765720D01*
X12283760Y-12512360D02*
X12323760Y-12552360D01*
X12323760Y-12512360D02*
X12283760Y-12552360D01*
X12283760Y-12977180D02*
X12323760Y-13017180D01*
X12323760Y-12977180D02*
X12283760Y-13017180D01*
X12400000Y-11826560D02*
X12440000Y-11866560D01*
X12440000Y-11826560D02*
X12400000Y-11866560D01*
X12984800Y-11907840D02*
X13024800Y-11947840D01*
X13024800Y-11907840D02*
X12984800Y-11947840D01*
X13066080Y-13731560D02*
X13106080Y-13771560D01*
X13106080Y-13731560D02*
X13066080Y-13771560D01*
X13182920Y-10627680D02*
X13222920Y-10667680D01*
X13222920Y-10627680D02*
X13182920Y-10667680D01*
X13203240Y-12730800D02*
X13243240Y-12770800D01*
X13243240Y-12730800D02*
X13203240Y-12770800D01*
X13203240Y-12989880D02*
X13243240Y-13029880D01*
X13243240Y-12989880D02*
X13203240Y-13029880D01*
X13340400Y-13985560D02*
X13380400Y-14025560D01*
X13380400Y-13985560D02*
X13340400Y-14025560D01*
X13370880Y-12175700D02*
X13410880Y-12215700D01*
X13410880Y-12175700D02*
X13370880Y-12215700D01*
X13472480Y-12248200D02*
X13512480Y-12288200D01*
X13512480Y-12248200D02*
X13472480Y-12288200D01*
X13574080Y-12329480D02*
X13614080Y-12369480D01*
X13614080Y-12329480D02*
X13574080Y-12369480D01*
X13584240Y-13985560D02*
X13624240Y-14025560D01*
X13624240Y-13985560D02*
X13584240Y-14025560D01*
X13614720Y-10561640D02*
X13654720Y-10601640D01*
X13654720Y-10561640D02*
X13614720Y-10601640D01*
X13614720Y-10729280D02*
X13654720Y-10769280D01*
X13654720Y-10729280D02*
X13614720Y-10769280D01*
X13624880Y-10866440D02*
X13664880Y-10906440D01*
X13664880Y-10866440D02*
X13624880Y-10906440D01*
X13817920Y-12446320D02*
X13857920Y-12486320D01*
X13857920Y-12446320D02*
X13817920Y-12486320D01*
X14143040Y-12822240D02*
X14183040Y-12862240D01*
X14183040Y-12822240D02*
X14143040Y-12862240D01*
X14163360Y-11669080D02*
X14203360Y-11709080D01*
X14203360Y-11669080D02*
X14163360Y-11709080D01*
X14181080Y-12400600D02*
X14221080Y-12440600D01*
X14221080Y-12400600D02*
X14181080Y-12440600D01*
X14188760Y-10536240D02*
X14228760Y-10576240D01*
X14228760Y-10536240D02*
X14188760Y-10576240D01*
X14188760Y-10673400D02*
X14228760Y-10713400D01*
X14228760Y-10673400D02*
X14188760Y-10713400D01*
X14188760Y-10790240D02*
X14228760Y-10830240D01*
X14228760Y-10790240D02*
X14188760Y-10830240D01*
X14219240Y-12299000D02*
X14259240Y-12339000D01*
X14259240Y-12299000D02*
X14219240Y-12339000D01*
X14224320Y-12898440D02*
X14264320Y-12938440D01*
X14264320Y-12898440D02*
X14224320Y-12938440D01*
X14259880Y-11582720D02*
X14299880Y-11622720D01*
X14299880Y-11582720D02*
X14259880Y-11622720D01*
X14310680Y-13193080D02*
X14350680Y-13233080D01*
X14350680Y-13193080D02*
X14310680Y-13233080D01*
X14341160Y-11034080D02*
X14381160Y-11074080D01*
X14381160Y-11034080D02*
X14341160Y-11074080D01*
X14344860Y-11163155D02*
X14384860Y-11203155D01*
X14384860Y-11163155D02*
X14344860Y-11203155D01*
X14417360Y-10460040D02*
X14457360Y-10500040D01*
X14457360Y-10460040D02*
X14417360Y-10500040D01*
X14483400Y-12349800D02*
X14523400Y-12389800D01*
X14523400Y-12349800D02*
X14483400Y-12389800D01*
X14483400Y-12735880D02*
X14523400Y-12775880D01*
X14523400Y-12735880D02*
X14483400Y-12775880D01*
X14503720Y-10378760D02*
X14543720Y-10418760D01*
X14543720Y-10378760D02*
X14503720Y-10418760D01*
X14691680Y-12720640D02*
X14731680Y-12760640D01*
X14731680Y-12720640D02*
X14691680Y-12760640D01*
X14712000Y-13731560D02*
X14752000Y-13771560D01*
X14752000Y-13731560D02*
X14712000Y-13771560D01*
X14818680Y-12842560D02*
X14858680Y-12882560D01*
X14858680Y-12842560D02*
X14818680Y-12882560D01*
X14945680Y-12471720D02*
X14985680Y-12511720D01*
X14985680Y-12471720D02*
X14945680Y-12511720D01*
X15026960Y-13193080D02*
X15066960Y-13233080D01*
X15066960Y-13193080D02*
X15026960Y-13233080D01*
X15072680Y-12608880D02*
X15112680Y-12648880D01*
X15112680Y-12608880D02*
X15072680Y-12648880D01*
X15090000Y-11060000D02*
X15130000Y-11100000D01*
X15130000Y-11060000D02*
X15090000Y-11100000D01*
X15128560Y-13823000D02*
X15168560Y-13863000D01*
X15168560Y-13823000D02*
X15128560Y-13863000D01*
X15188800Y-10388600D02*
X15228800Y-10428600D01*
X15228800Y-10388600D02*
X15188800Y-10428600D01*
X15194600Y-13071160D02*
X15234600Y-13111160D01*
X15234600Y-13071160D02*
X15194600Y-13111160D01*
X15321600Y-12380280D02*
X15361600Y-12420280D01*
X15361600Y-12380280D02*
X15321600Y-12420280D01*
X15331760Y-13096560D02*
X15371760Y-13136560D01*
X15371760Y-13096560D02*
X15331760Y-13136560D01*
X15352080Y-13502960D02*
X15392080Y-13542960D01*
X15392080Y-13502960D02*
X15352080Y-13542960D01*
X15372400Y-11704640D02*
X15412400Y-11744640D01*
X15412400Y-11704640D02*
X15372400Y-11744640D01*
X15418120Y-13817920D02*
X15458120Y-13857920D01*
X15458120Y-13817920D02*
X15418120Y-13857920D01*
X15448600Y-12979720D02*
X15488600Y-13019720D01*
X15488600Y-12979720D02*
X15448600Y-13019720D01*
X15575600Y-13233720D02*
X15615600Y-13273720D01*
X15615600Y-13233720D02*
X15575600Y-13273720D01*
X15580000Y-10130000D02*
X15620000Y-10170000D01*
X15620000Y-10130000D02*
X15580000Y-10170000D01*
X15768640Y-12344720D02*
X15808640Y-12384720D01*
X15808640Y-12344720D02*
X15768640Y-12384720D01*
X15768640Y-13823000D02*
X15808640Y-13863000D01*
X15808640Y-13823000D02*
X15768640Y-13863000D01*
X15890560Y-11166160D02*
X15930560Y-11206160D01*
X15930560Y-11166160D02*
X15890560Y-11206160D01*
X15895640Y-11801160D02*
X15935640Y-11841160D01*
X15935640Y-11801160D02*
X15895640Y-11841160D01*
X15931200Y-13325160D02*
X15971200Y-13365160D01*
X15971200Y-13325160D02*
X15931200Y-13365160D01*
X16037692Y-14000751D02*
X16077692Y-14040751D01*
X16077692Y-14000751D02*
X16037692Y-14040751D01*
X16134400Y-14026200D02*
X16174400Y-14066200D01*
X16174400Y-14026200D02*
X16134400Y-14066200D01*
X16170000Y-14140000D02*
X16210000Y-14180000D01*
X16210000Y-14140000D02*
X16170000Y-14180000D01*
X16210600Y-13904280D02*
X16250600Y-13944280D01*
X16250600Y-13904280D02*
X16210600Y-13944280D01*
X16212626Y-11170460D02*
X16252626Y-11210460D01*
X16252626Y-11170460D02*
X16212626Y-11210460D01*
X16322360Y-13508040D02*
X16362360Y-13548040D01*
X16362360Y-13508040D02*
X16322360Y-13548040D01*
X16950000Y-10220000D02*
X16990000Y-10260000D01*
X16990000Y-10220000D02*
X16950000Y-10260000D01*
X10844600Y-10256200D02*
G75*
G02*
X10784600Y-10256200I-30000J0D01*
G01*
X10784600Y-10256200D02*
G75*
G02*
X10844600Y-10256200I30000J0D01*
G01*
X10844600Y-10296200D02*
X10844600Y-10216200D01*
X10784600Y-10216200D02*
G75*
G02*
X10844600Y-10216200I30000J0D01*
G01*
X10784600Y-10216200D02*
X10784600Y-10296200D01*
X10784600Y-10296200D02*
G75*
G03*
X10844600Y-10296200I30000J0D01*
G01*
X10844600Y-10674200D02*
G75*
G02*
X10784600Y-10674200I-30000J0D01*
G01*
X10784600Y-10674200D02*
G75*
G02*
X10844600Y-10674200I30000J0D01*
G01*
X10844600Y-10729200D02*
X10844600Y-10619200D01*
X10784600Y-10619200D02*
G75*
G02*
X10844600Y-10619200I30000J0D01*
G01*
X10784600Y-10619200D02*
X10784600Y-10729200D01*
X10784600Y-10729200D02*
G75*
G03*
X10844600Y-10729200I30000J0D01*
G01*
X11708600Y-10256200D02*
G75*
G02*
X11648600Y-10256200I-30000J0D01*
G01*
X11648600Y-10256200D02*
G75*
G02*
X11708600Y-10256200I30000J0D01*
G01*
X11708600Y-10296200D02*
X11708600Y-10216200D01*
X11648600Y-10216200D02*
G75*
G02*
X11708600Y-10216200I30000J0D01*
G01*
X11648600Y-10216200D02*
X11648600Y-10296200D01*
X11648600Y-10296200D02*
G75*
G03*
X11708600Y-10296200I30000J0D01*
G01*
X11708600Y-10674200D02*
G75*
G02*
X11648600Y-10674200I-30000J0D01*
G01*
X11648600Y-10674200D02*
G75*
G02*
X11708600Y-10674200I30000J0D01*
G01*
X11708600Y-10729200D02*
X11708600Y-10619200D01*
X11648600Y-10619200D02*
G75*
G02*
X11708600Y-10619200I30000J0D01*
G01*
X11648600Y-10619200D02*
X11648600Y-10729200D01*
X11648600Y-10729200D02*
G75*
G03*
X11708600Y-10729200I30000J0D01*
G01*
X11121400Y-11297050D02*
X11121400Y-11392050D01*
X11073900Y-11344550D02*
X11168900Y-11344550D01*
X11121400Y-11497050D02*
X11121400Y-11592050D01*
X11073900Y-11544550D02*
X11168900Y-11544550D01*
X11371400Y-11297050D02*
X11371400Y-11392050D01*
X11323900Y-11344550D02*
X11418900Y-11344550D01*
X11371400Y-11497050D02*
X11371400Y-11592050D01*
X11323900Y-11544550D02*
X11418900Y-11544550D01*
X6746036Y-11231676D02*
X6746036Y-11160964D01*
X6675324Y-11160964D01*
X6675324Y-11231676D01*
X6746036Y-11231676D01*
X6746036Y-11485676D02*
X6746036Y-11414964D01*
X6675324Y-11414964D01*
X6675324Y-11485676D01*
X6746036Y-11485676D01*
X7649356Y-13531356D02*
X7649356Y-13460644D01*
X7578644Y-13460644D01*
X7578644Y-13531356D01*
X7649356Y-13531356D01*
X7649356Y-13785356D02*
X7649356Y-13714644D01*
X7578644Y-13714644D01*
X7578644Y-13785356D01*
X7649356Y-13785356D01*
X7903356Y-13531356D02*
X7903356Y-13460644D01*
X7832644Y-13460644D01*
X7832644Y-13531356D01*
X7903356Y-13531356D01*
X7903356Y-13785356D02*
X7903356Y-13714644D01*
X7832644Y-13714644D01*
X7832644Y-13785356D01*
X7903356Y-13785356D01*
X8157356Y-13531356D02*
X8157356Y-13460644D01*
X8086644Y-13460644D01*
X8086644Y-13531356D01*
X8157356Y-13531356D01*
X8157356Y-13785356D02*
X8157356Y-13714644D01*
X8086644Y-13714644D01*
X8086644Y-13785356D01*
X8157356Y-13785356D01*
X8411356Y-13531356D02*
X8411356Y-13460644D01*
X8340644Y-13460644D01*
X8340644Y-13531356D01*
X8411356Y-13531356D01*
X8411356Y-13785356D02*
X8411356Y-13714644D01*
X8340644Y-13714644D01*
X8340644Y-13785356D01*
X8411356Y-13785356D01*
X8665356Y-13531356D02*
X8665356Y-13460644D01*
X8594644Y-13460644D01*
X8594644Y-13531356D01*
X8665356Y-13531356D01*
X8665356Y-13785356D02*
X8665356Y-13714644D01*
X8594644Y-13714644D01*
X8594644Y-13785356D01*
X8665356Y-13785356D01*
X8919356Y-13531356D02*
X8919356Y-13460644D01*
X8848644Y-13460644D01*
X8848644Y-13531356D01*
X8919356Y-13531356D01*
X8919356Y-13785356D02*
X8919356Y-13714644D01*
X8848644Y-13714644D01*
X8848644Y-13785356D01*
X8919356Y-13785356D01*
X9173356Y-13531356D02*
X9173356Y-13460644D01*
X9102644Y-13460644D01*
X9102644Y-13531356D01*
X9173356Y-13531356D01*
X9173356Y-13785356D02*
X9173356Y-13714644D01*
X9102644Y-13714644D01*
X9102644Y-13785356D01*
X9173356Y-13785356D01*
X9427356Y-13531356D02*
X9427356Y-13460644D01*
X9356644Y-13460644D01*
X9356644Y-13531356D01*
X9427356Y-13531356D01*
X9427356Y-13785356D02*
X9427356Y-13714644D01*
X9356644Y-13714644D01*
X9356644Y-13785356D01*
X9427356Y-13785356D01*
X10955356Y-13531356D02*
X10955356Y-13460644D01*
X10884644Y-13460644D01*
X10884644Y-13531356D01*
X10955356Y-13531356D01*
X10955356Y-13785356D02*
X10955356Y-13714644D01*
X10884644Y-13714644D01*
X10884644Y-13785356D01*
X10955356Y-13785356D01*
X11209356Y-13531356D02*
X11209356Y-13460644D01*
X11138644Y-13460644D01*
X11138644Y-13531356D01*
X11209356Y-13531356D01*
X11209356Y-13785356D02*
X11209356Y-13714644D01*
X11138644Y-13714644D01*
X11138644Y-13785356D01*
X11209356Y-13785356D01*
X11463356Y-13531356D02*
X11463356Y-13460644D01*
X11392644Y-13460644D01*
X11392644Y-13531356D01*
X11463356Y-13531356D01*
X11463356Y-13785356D02*
X11463356Y-13714644D01*
X11392644Y-13714644D01*
X11392644Y-13785356D01*
X11463356Y-13785356D01*
X11465356Y-11947956D02*
X11465356Y-11877244D01*
X11394644Y-11877244D01*
X11394644Y-11947956D01*
X11465356Y-11947956D01*
X11717356Y-13531356D02*
X11717356Y-13460644D01*
X11646644Y-13460644D01*
X11646644Y-13531356D01*
X11717356Y-13531356D01*
X11717356Y-13785356D02*
X11717356Y-13714644D01*
X11646644Y-13714644D01*
X11646644Y-13785356D01*
X11717356Y-13785356D01*
X11719356Y-11947956D02*
X11719356Y-11877244D01*
X11648644Y-11877244D01*
X11648644Y-11947956D01*
X11719356Y-11947956D01*
X11971356Y-13531356D02*
X11971356Y-13460644D01*
X11900644Y-13460644D01*
X11900644Y-13531356D01*
X11971356Y-13531356D01*
X11971356Y-13785356D02*
X11971356Y-13714644D01*
X11900644Y-13714644D01*
X11900644Y-13785356D01*
X11971356Y-13785356D01*
X11973356Y-11947956D02*
X11973356Y-11877244D01*
X11902644Y-11877244D01*
X11902644Y-11947956D01*
X11973356Y-11947956D01*
X13505356Y-13531356D02*
X13505356Y-13460644D01*
X13434644Y-13460644D01*
X13434644Y-13531356D01*
X13505356Y-13531356D01*
X13505356Y-13785356D02*
X13505356Y-13714644D01*
X13434644Y-13714644D01*
X13434644Y-13785356D01*
X13505356Y-13785356D01*
X13759356Y-13531356D02*
X13759356Y-13460644D01*
X13688644Y-13460644D01*
X13688644Y-13531356D01*
X13759356Y-13531356D01*
X13759356Y-13785356D02*
X13759356Y-13714644D01*
X13688644Y-13714644D01*
X13688644Y-13785356D01*
X13759356Y-13785356D01*
X14013356Y-13531356D02*
X14013356Y-13460644D01*
X13942644Y-13460644D01*
X13942644Y-13531356D01*
X14013356Y-13531356D01*
X14013356Y-13785356D02*
X14013356Y-13714644D01*
X13942644Y-13714644D01*
X13942644Y-13785356D01*
X14013356Y-13785356D01*
X14267356Y-13531356D02*
X14267356Y-13460644D01*
X14196644Y-13460644D01*
X14196644Y-13531356D01*
X14267356Y-13531356D01*
X14267356Y-13785356D02*
X14267356Y-13714644D01*
X14196644Y-13714644D01*
X14196644Y-13785356D01*
X14267356Y-13785356D01*
X14521356Y-13531356D02*
X14521356Y-13460644D01*
X14450644Y-13460644D01*
X14450644Y-13531356D01*
X14521356Y-13531356D01*
X14521356Y-13785356D02*
X14521356Y-13714644D01*
X14450644Y-13714644D01*
X14450644Y-13785356D01*
X14521356Y-13785356D01*
X16517856Y-12065356D02*
X16517856Y-11994644D01*
X16447144Y-11994644D01*
X16447144Y-12065356D01*
X16517856Y-12065356D01*
X16527856Y-12525356D02*
X16527856Y-12454644D01*
X16457144Y-12454644D01*
X16457144Y-12525356D01*
X16527856Y-12525356D01*
X16527856Y-12779356D02*
X16527856Y-12708644D01*
X16457144Y-12708644D01*
X16457144Y-12779356D01*
X16527856Y-12779356D01*
X16527856Y-13033356D02*
X16527856Y-12962644D01*
X16457144Y-12962644D01*
X16457144Y-13033356D01*
X16527856Y-13033356D01*
X16527856Y-13287356D02*
X16527856Y-13216644D01*
X16457144Y-13216644D01*
X16457144Y-13287356D01*
X16527856Y-13287356D01*
X16771856Y-12065356D02*
X16771856Y-11994644D01*
X16701144Y-11994644D01*
X16701144Y-12065356D01*
X16771856Y-12065356D01*
X16781856Y-12525356D02*
X16781856Y-12454644D01*
X16711144Y-12454644D01*
X16711144Y-12525356D01*
X16781856Y-12525356D01*
X16781856Y-12779356D02*
X16781856Y-12708644D01*
X16711144Y-12708644D01*
X16711144Y-12779356D01*
X16781856Y-12779356D01*
X16781856Y-13033356D02*
X16781856Y-12962644D01*
X16711144Y-12962644D01*
X16711144Y-13033356D01*
X16781856Y-13033356D01*
X16781856Y-13287356D02*
X16781856Y-13216644D01*
X16711144Y-13216644D01*
X16711144Y-13287356D01*
X16781856Y-13287356D01*
D12*
X8054500Y-11209500D02*
X8114000Y-11150000D01*
X8054500Y-11090500D01*
X7995000Y-11150000D01*
X8054500Y-11209500D01*
X8168500Y-10955500D02*
X8228000Y-10896000D01*
X8168500Y-10836500D01*
X8109000Y-10896000D01*
X8168500Y-10955500D01*
X8168500Y-11463500D02*
X8228000Y-11404000D01*
X8168500Y-11344500D01*
X8109000Y-11404000D01*
X8168500Y-11463500D01*
X8282500Y-11209500D02*
X8342000Y-11150000D01*
X8282500Y-11090500D01*
X8223000Y-11150000D01*
X8282500Y-11209500D01*
X8396500Y-10955500D02*
X8456000Y-10896000D01*
X8396500Y-10836500D01*
X8337000Y-10896000D01*
X8396500Y-10955500D01*
X8396500Y-11463500D02*
X8456000Y-11404000D01*
X8396500Y-11344500D01*
X8337000Y-11404000D01*
X8396500Y-11463500D01*
X8510500Y-11209500D02*
X8570000Y-11150000D01*
X8510500Y-11090500D01*
X8451000Y-11150000D01*
X8510500Y-11209500D01*
X8624500Y-10955500D02*
X8684000Y-10896000D01*
X8624500Y-10836500D01*
X8565000Y-10896000D01*
X8624500Y-10955500D01*
X8624500Y-11463500D02*
X8684000Y-11404000D01*
X8624500Y-11344500D01*
X8565000Y-11404000D01*
X8624500Y-11463500D01*
X8738500Y-11209500D02*
X8798000Y-11150000D01*
X8738500Y-11090500D01*
X8679000Y-11150000D01*
X8738500Y-11209500D01*
X8852500Y-10955500D02*
X8912000Y-10896000D01*
X8852500Y-10836500D01*
X8793000Y-10896000D01*
X8852500Y-10955500D01*
X8852500Y-11463500D02*
X8912000Y-11404000D01*
X8852500Y-11344500D01*
X8793000Y-11404000D01*
X8852500Y-11463500D01*
X8966500Y-11209500D02*
X9026000Y-11150000D01*
X8966500Y-11090500D01*
X8907000Y-11150000D01*
X8966500Y-11209500D01*
X9080500Y-10955500D02*
X9140000Y-10896000D01*
X9080500Y-10836500D01*
X9021000Y-10896000D01*
X9080500Y-10955500D01*
X9080500Y-11463500D02*
X9140000Y-11404000D01*
X9080500Y-11344500D01*
X9021000Y-11404000D01*
X9080500Y-11463500D01*
D13*
X10531400Y-10943550D02*
X10761400Y-11173550D01*
X10761400Y-10943550D02*
X10531400Y-11173550D01*
X10761400Y-11058550D02*
G75*
G02*
X10531400Y-11058550I-115000J0D01*
G01*
X10531400Y-11058550D02*
G75*
G02*
X10761400Y-11058550I115000J0D01*
G01*
X11731400Y-10943550D02*
X11961400Y-11173550D01*
X11961400Y-10943550D02*
X11731400Y-11173550D01*
X11961400Y-11058550D02*
G75*
G02*
X11731400Y-11058550I-115000J0D01*
G01*
X11731400Y-11058550D02*
G75*
G02*
X11961400Y-11058550I115000J0D01*
G01*
D14*
X7191000Y-10991000D02*
X7509000Y-11309000D01*
X7509000Y-10991000D02*
X7191000Y-11309000D01*
X7350000Y-10991000D02*
X7350000Y-11309000D01*
X7191000Y-11150000D02*
X7509000Y-11150000D01*
X9691000Y-10991000D02*
X10009000Y-11309000D01*
X10009000Y-10991000D02*
X9691000Y-11309000D01*
X9850000Y-10991000D02*
X9850000Y-11309000D01*
X9691000Y-11150000D02*
X10009000Y-11150000D01*
D15*
X6440000Y-10440000D02*
X6760000Y-10760000D01*
X6760000Y-10440000D02*
X6440000Y-10760000D01*
X6713138Y-10713138D02*
X6713138Y-10486862D01*
X6486862Y-10486862D01*
X6486862Y-10713138D01*
X6713138Y-10713138D01*
X6440000Y-13740000D02*
X6760000Y-14060000D01*
X6760000Y-13740000D02*
X6440000Y-14060000D01*
X6713138Y-14013138D02*
X6713138Y-13786862D01*
X6486862Y-13786862D01*
X6486862Y-14013138D01*
X6713138Y-14013138D01*
X16440000Y-10440000D02*
X16760000Y-10760000D01*
X16760000Y-10440000D02*
X16440000Y-10760000D01*
X16713138Y-10713138D02*
X16713138Y-10486862D01*
X16486862Y-10486862D01*
X16486862Y-10713138D01*
X16713138Y-10713138D01*
X16440000Y-13740000D02*
X16760000Y-14060000D01*
X16760000Y-13740000D02*
X16440000Y-14060000D01*
X16713138Y-14013138D02*
X16713138Y-13786862D01*
X16486862Y-13786862D01*
X16486862Y-14013138D01*
X16713138Y-14013138D01*
D11*
X6255777Y-14816484D02*
X6255777Y-14616484D01*
X6255777Y-14616484D02*
X6303396Y-14616484D01*
X6303396Y-14616484D02*
X6331967Y-14626008D01*
X6331967Y-14626008D02*
X6351015Y-14645055D01*
X6351015Y-14645055D02*
X6360539Y-14664103D01*
X6360539Y-14664103D02*
X6370062Y-14702198D01*
X6370062Y-14702198D02*
X6370062Y-14730769D01*
X6370062Y-14730769D02*
X6360539Y-14768865D01*
X6360539Y-14768865D02*
X6351015Y-14787912D01*
X6351015Y-14787912D02*
X6331967Y-14806960D01*
X6331967Y-14806960D02*
X6303396Y-14816484D01*
X6303396Y-14816484D02*
X6255777Y-14816484D01*
X6455777Y-14816484D02*
X6455777Y-14683150D01*
X6455777Y-14721246D02*
X6465301Y-14702198D01*
X6465301Y-14702198D02*
X6474824Y-14692674D01*
X6474824Y-14692674D02*
X6493872Y-14683150D01*
X6493872Y-14683150D02*
X6512920Y-14683150D01*
X6579586Y-14816484D02*
X6579586Y-14683150D01*
X6579586Y-14616484D02*
X6570062Y-14626008D01*
X6570062Y-14626008D02*
X6579586Y-14635531D01*
X6579586Y-14635531D02*
X6589110Y-14626008D01*
X6589110Y-14626008D02*
X6579586Y-14616484D01*
X6579586Y-14616484D02*
X6579586Y-14635531D01*
X6703396Y-14816484D02*
X6684348Y-14806960D01*
X6684348Y-14806960D02*
X6674824Y-14787912D01*
X6674824Y-14787912D02*
X6674824Y-14616484D01*
X6808158Y-14816484D02*
X6789110Y-14806960D01*
X6789110Y-14806960D02*
X6779586Y-14787912D01*
X6779586Y-14787912D02*
X6779586Y-14616484D01*
X7036729Y-14816484D02*
X7036729Y-14616484D01*
X7036729Y-14616484D02*
X7103396Y-14759341D01*
X7103396Y-14759341D02*
X7170062Y-14616484D01*
X7170062Y-14616484D02*
X7170062Y-14816484D01*
X7351015Y-14816484D02*
X7351015Y-14711722D01*
X7351015Y-14711722D02*
X7341491Y-14692674D01*
X7341491Y-14692674D02*
X7322443Y-14683150D01*
X7322443Y-14683150D02*
X7284348Y-14683150D01*
X7284348Y-14683150D02*
X7265301Y-14692674D01*
X7351015Y-14806960D02*
X7331967Y-14816484D01*
X7331967Y-14816484D02*
X7284348Y-14816484D01*
X7284348Y-14816484D02*
X7265301Y-14806960D01*
X7265301Y-14806960D02*
X7255777Y-14787912D01*
X7255777Y-14787912D02*
X7255777Y-14768865D01*
X7255777Y-14768865D02*
X7265301Y-14749817D01*
X7265301Y-14749817D02*
X7284348Y-14740293D01*
X7284348Y-14740293D02*
X7331967Y-14740293D01*
X7331967Y-14740293D02*
X7351015Y-14730769D01*
X7446253Y-14683150D02*
X7446253Y-14883150D01*
X7446253Y-14692674D02*
X7465301Y-14683150D01*
X7465301Y-14683150D02*
X7503396Y-14683150D01*
X7503396Y-14683150D02*
X7522443Y-14692674D01*
X7522443Y-14692674D02*
X7531967Y-14702198D01*
X7531967Y-14702198D02*
X7541491Y-14721246D01*
X7541491Y-14721246D02*
X7541491Y-14778388D01*
X7541491Y-14778388D02*
X7531967Y-14797436D01*
X7531967Y-14797436D02*
X7522443Y-14806960D01*
X7522443Y-14806960D02*
X7503396Y-14816484D01*
X7503396Y-14816484D02*
X7465301Y-14816484D01*
X7465301Y-14816484D02*
X7446253Y-14806960D01*
X7627205Y-14797436D02*
X7636729Y-14806960D01*
X7636729Y-14806960D02*
X7627205Y-14816484D01*
X7627205Y-14816484D02*
X7617682Y-14806960D01*
X7617682Y-14806960D02*
X7627205Y-14797436D01*
X7627205Y-14797436D02*
X7627205Y-14816484D01*
X7627205Y-14692674D02*
X7636729Y-14702198D01*
X7636729Y-14702198D02*
X7627205Y-14711722D01*
X7627205Y-14711722D02*
X7617682Y-14702198D01*
X7617682Y-14702198D02*
X7627205Y-14692674D01*
X7627205Y-14692674D02*
X7627205Y-14711722D01*
D10*
X5955000Y-15125000D02*
X5995000Y-15165000D01*
X5995000Y-15125000D02*
X5955000Y-15165000D01*
D11*
X6293872Y-15036484D02*
X6312920Y-15036484D01*
X6312920Y-15036484D02*
X6331967Y-15046008D01*
X6331967Y-15046008D02*
X6341491Y-15055531D01*
X6341491Y-15055531D02*
X6351015Y-15074579D01*
X6351015Y-15074579D02*
X6360539Y-15112674D01*
X6360539Y-15112674D02*
X6360539Y-15160293D01*
X6360539Y-15160293D02*
X6351015Y-15198388D01*
X6351015Y-15198388D02*
X6341491Y-15217436D01*
X6341491Y-15217436D02*
X6331967Y-15226960D01*
X6331967Y-15226960D02*
X6312920Y-15236484D01*
X6312920Y-15236484D02*
X6293872Y-15236484D01*
X6293872Y-15236484D02*
X6274824Y-15226960D01*
X6274824Y-15226960D02*
X6265301Y-15217436D01*
X6265301Y-15217436D02*
X6255777Y-15198388D01*
X6255777Y-15198388D02*
X6246253Y-15160293D01*
X6246253Y-15160293D02*
X6246253Y-15112674D01*
X6246253Y-15112674D02*
X6255777Y-15074579D01*
X6255777Y-15074579D02*
X6265301Y-15055531D01*
X6265301Y-15055531D02*
X6274824Y-15046008D01*
X6274824Y-15046008D02*
X6293872Y-15036484D01*
X6446253Y-15217436D02*
X6455777Y-15226960D01*
X6455777Y-15226960D02*
X6446253Y-15236484D01*
X6446253Y-15236484D02*
X6436729Y-15226960D01*
X6436729Y-15226960D02*
X6446253Y-15217436D01*
X6446253Y-15217436D02*
X6446253Y-15236484D01*
X6627205Y-15103150D02*
X6627205Y-15236484D01*
X6579586Y-15026960D02*
X6531967Y-15169817D01*
X6531967Y-15169817D02*
X6655777Y-15169817D01*
X6770062Y-15036484D02*
X6789110Y-15036484D01*
X6789110Y-15036484D02*
X6808158Y-15046008D01*
X6808158Y-15046008D02*
X6817682Y-15055531D01*
X6817682Y-15055531D02*
X6827205Y-15074579D01*
X6827205Y-15074579D02*
X6836729Y-15112674D01*
X6836729Y-15112674D02*
X6836729Y-15160293D01*
X6836729Y-15160293D02*
X6827205Y-15198388D01*
X6827205Y-15198388D02*
X6817682Y-15217436D01*
X6817682Y-15217436D02*
X6808158Y-15226960D01*
X6808158Y-15226960D02*
X6789110Y-15236484D01*
X6789110Y-15236484D02*
X6770062Y-15236484D01*
X6770062Y-15236484D02*
X6751015Y-15226960D01*
X6751015Y-15226960D02*
X6741491Y-15217436D01*
X6741491Y-15217436D02*
X6731967Y-15198388D01*
X6731967Y-15198388D02*
X6722443Y-15160293D01*
X6722443Y-15160293D02*
X6722443Y-15112674D01*
X6722443Y-15112674D02*
X6731967Y-15074579D01*
X6731967Y-15074579D02*
X6741491Y-15055531D01*
X6741491Y-15055531D02*
X6751015Y-15046008D01*
X6751015Y-15046008D02*
X6770062Y-15036484D01*
X6960539Y-15036484D02*
X6979586Y-15036484D01*
X6979586Y-15036484D02*
X6998634Y-15046008D01*
X6998634Y-15046008D02*
X7008158Y-15055531D01*
X7008158Y-15055531D02*
X7017682Y-15074579D01*
X7017682Y-15074579D02*
X7027205Y-15112674D01*
X7027205Y-15112674D02*
X7027205Y-15160293D01*
X7027205Y-15160293D02*
X7017682Y-15198388D01*
X7017682Y-15198388D02*
X7008158Y-15217436D01*
X7008158Y-15217436D02*
X6998634Y-15226960D01*
X6998634Y-15226960D02*
X6979586Y-15236484D01*
X6979586Y-15236484D02*
X6960539Y-15236484D01*
X6960539Y-15236484D02*
X6941491Y-15226960D01*
X6941491Y-15226960D02*
X6931967Y-15217436D01*
X6931967Y-15217436D02*
X6922443Y-15198388D01*
X6922443Y-15198388D02*
X6912920Y-15160293D01*
X6912920Y-15160293D02*
X6912920Y-15112674D01*
X6912920Y-15112674D02*
X6922443Y-15074579D01*
X6922443Y-15074579D02*
X6931967Y-15055531D01*
X6931967Y-15055531D02*
X6941491Y-15046008D01*
X6941491Y-15046008D02*
X6960539Y-15036484D01*
X7112920Y-15236484D02*
X7112920Y-15103150D01*
X7112920Y-15122198D02*
X7122443Y-15112674D01*
X7122443Y-15112674D02*
X7141491Y-15103150D01*
X7141491Y-15103150D02*
X7170063Y-15103150D01*
X7170063Y-15103150D02*
X7189110Y-15112674D01*
X7189110Y-15112674D02*
X7198634Y-15131722D01*
X7198634Y-15131722D02*
X7198634Y-15236484D01*
X7198634Y-15131722D02*
X7208158Y-15112674D01*
X7208158Y-15112674D02*
X7227205Y-15103150D01*
X7227205Y-15103150D02*
X7255777Y-15103150D01*
X7255777Y-15103150D02*
X7274824Y-15112674D01*
X7274824Y-15112674D02*
X7284348Y-15131722D01*
X7284348Y-15131722D02*
X7284348Y-15236484D01*
X7379586Y-15236484D02*
X7379586Y-15103150D01*
X7379586Y-15122198D02*
X7389110Y-15112674D01*
X7389110Y-15112674D02*
X7408158Y-15103150D01*
X7408158Y-15103150D02*
X7436729Y-15103150D01*
X7436729Y-15103150D02*
X7455777Y-15112674D01*
X7455777Y-15112674D02*
X7465301Y-15131722D01*
X7465301Y-15131722D02*
X7465301Y-15236484D01*
X7465301Y-15131722D02*
X7474824Y-15112674D01*
X7474824Y-15112674D02*
X7493872Y-15103150D01*
X7493872Y-15103150D02*
X7522443Y-15103150D01*
X7522443Y-15103150D02*
X7541491Y-15112674D01*
X7541491Y-15112674D02*
X7551015Y-15131722D01*
X7551015Y-15131722D02*
X7551015Y-15236484D01*
X7941491Y-15026960D02*
X7770063Y-15284103D01*
X8198634Y-15036484D02*
X8217682Y-15036484D01*
X8217682Y-15036484D02*
X8236729Y-15046008D01*
X8236729Y-15046008D02*
X8246253Y-15055531D01*
X8246253Y-15055531D02*
X8255777Y-15074579D01*
X8255777Y-15074579D02*
X8265301Y-15112674D01*
X8265301Y-15112674D02*
X8265301Y-15160293D01*
X8265301Y-15160293D02*
X8255777Y-15198388D01*
X8255777Y-15198388D02*
X8246253Y-15217436D01*
X8246253Y-15217436D02*
X8236729Y-15226960D01*
X8236729Y-15226960D02*
X8217682Y-15236484D01*
X8217682Y-15236484D02*
X8198634Y-15236484D01*
X8198634Y-15236484D02*
X8179586Y-15226960D01*
X8179586Y-15226960D02*
X8170063Y-15217436D01*
X8170063Y-15217436D02*
X8160539Y-15198388D01*
X8160539Y-15198388D02*
X8151015Y-15160293D01*
X8151015Y-15160293D02*
X8151015Y-15112674D01*
X8151015Y-15112674D02*
X8160539Y-15074579D01*
X8160539Y-15074579D02*
X8170063Y-15055531D01*
X8170063Y-15055531D02*
X8179586Y-15046008D01*
X8179586Y-15046008D02*
X8198634Y-15036484D01*
X8351015Y-15217436D02*
X8360539Y-15226960D01*
X8360539Y-15226960D02*
X8351015Y-15236484D01*
X8351015Y-15236484D02*
X8341491Y-15226960D01*
X8341491Y-15226960D02*
X8351015Y-15217436D01*
X8351015Y-15217436D02*
X8351015Y-15236484D01*
X8484348Y-15036484D02*
X8503396Y-15036484D01*
X8503396Y-15036484D02*
X8522444Y-15046008D01*
X8522444Y-15046008D02*
X8531968Y-15055531D01*
X8531968Y-15055531D02*
X8541491Y-15074579D01*
X8541491Y-15074579D02*
X8551015Y-15112674D01*
X8551015Y-15112674D02*
X8551015Y-15160293D01*
X8551015Y-15160293D02*
X8541491Y-15198388D01*
X8541491Y-15198388D02*
X8531968Y-15217436D01*
X8531968Y-15217436D02*
X8522444Y-15226960D01*
X8522444Y-15226960D02*
X8503396Y-15236484D01*
X8503396Y-15236484D02*
X8484348Y-15236484D01*
X8484348Y-15236484D02*
X8465301Y-15226960D01*
X8465301Y-15226960D02*
X8455777Y-15217436D01*
X8455777Y-15217436D02*
X8446253Y-15198388D01*
X8446253Y-15198388D02*
X8436729Y-15160293D01*
X8436729Y-15160293D02*
X8436729Y-15112674D01*
X8436729Y-15112674D02*
X8446253Y-15074579D01*
X8446253Y-15074579D02*
X8455777Y-15055531D01*
X8455777Y-15055531D02*
X8465301Y-15046008D01*
X8465301Y-15046008D02*
X8484348Y-15036484D01*
X8741491Y-15236484D02*
X8627206Y-15236484D01*
X8684348Y-15236484D02*
X8684348Y-15036484D01*
X8684348Y-15036484D02*
X8665301Y-15065055D01*
X8665301Y-15065055D02*
X8646253Y-15084103D01*
X8646253Y-15084103D02*
X8627206Y-15093627D01*
X8922444Y-15036484D02*
X8827206Y-15036484D01*
X8827206Y-15036484D02*
X8817682Y-15131722D01*
X8817682Y-15131722D02*
X8827206Y-15122198D01*
X8827206Y-15122198D02*
X8846253Y-15112674D01*
X8846253Y-15112674D02*
X8893872Y-15112674D01*
X8893872Y-15112674D02*
X8912920Y-15122198D01*
X8912920Y-15122198D02*
X8922444Y-15131722D01*
X8922444Y-15131722D02*
X8931968Y-15150769D01*
X8931968Y-15150769D02*
X8931968Y-15198388D01*
X8931968Y-15198388D02*
X8922444Y-15217436D01*
X8922444Y-15217436D02*
X8912920Y-15226960D01*
X8912920Y-15226960D02*
X8893872Y-15236484D01*
X8893872Y-15236484D02*
X8846253Y-15236484D01*
X8846253Y-15236484D02*
X8827206Y-15226960D01*
X8827206Y-15226960D02*
X8817682Y-15217436D01*
X8998634Y-15036484D02*
X9131968Y-15036484D01*
X9131968Y-15036484D02*
X9046253Y-15236484D01*
X9198634Y-15036484D02*
X9198634Y-15074579D01*
X9274825Y-15036484D02*
X9274825Y-15074579D01*
X9570063Y-15312674D02*
X9560539Y-15303150D01*
X9560539Y-15303150D02*
X9541491Y-15274579D01*
X9541491Y-15274579D02*
X9531968Y-15255531D01*
X9531968Y-15255531D02*
X9522444Y-15226960D01*
X9522444Y-15226960D02*
X9512920Y-15179341D01*
X9512920Y-15179341D02*
X9512920Y-15141246D01*
X9512920Y-15141246D02*
X9522444Y-15093627D01*
X9522444Y-15093627D02*
X9531968Y-15065055D01*
X9531968Y-15065055D02*
X9541491Y-15046008D01*
X9541491Y-15046008D02*
X9560539Y-15017436D01*
X9560539Y-15017436D02*
X9570063Y-15007912D01*
X9655777Y-15236484D02*
X9693872Y-15236484D01*
X9693872Y-15236484D02*
X9712920Y-15226960D01*
X9712920Y-15226960D02*
X9722444Y-15217436D01*
X9722444Y-15217436D02*
X9741491Y-15188865D01*
X9741491Y-15188865D02*
X9751015Y-15150769D01*
X9751015Y-15150769D02*
X9751015Y-15074579D01*
X9751015Y-15074579D02*
X9741491Y-15055531D01*
X9741491Y-15055531D02*
X9731968Y-15046008D01*
X9731968Y-15046008D02*
X9712920Y-15036484D01*
X9712920Y-15036484D02*
X9674825Y-15036484D01*
X9674825Y-15036484D02*
X9655777Y-15046008D01*
X9655777Y-15046008D02*
X9646253Y-15055531D01*
X9646253Y-15055531D02*
X9636730Y-15074579D01*
X9636730Y-15074579D02*
X9636730Y-15122198D01*
X9636730Y-15122198D02*
X9646253Y-15141246D01*
X9646253Y-15141246D02*
X9655777Y-15150769D01*
X9655777Y-15150769D02*
X9674825Y-15160293D01*
X9674825Y-15160293D02*
X9712920Y-15160293D01*
X9712920Y-15160293D02*
X9731968Y-15150769D01*
X9731968Y-15150769D02*
X9741491Y-15141246D01*
X9741491Y-15141246D02*
X9751015Y-15122198D01*
X9817682Y-15036484D02*
X9951015Y-15036484D01*
X9951015Y-15036484D02*
X9865301Y-15236484D01*
X10179587Y-15236484D02*
X10179587Y-15036484D01*
X10265301Y-15236484D02*
X10265301Y-15131722D01*
X10265301Y-15131722D02*
X10255777Y-15112674D01*
X10255777Y-15112674D02*
X10236730Y-15103150D01*
X10236730Y-15103150D02*
X10208158Y-15103150D01*
X10208158Y-15103150D02*
X10189111Y-15112674D01*
X10189111Y-15112674D02*
X10179587Y-15122198D01*
X10389111Y-15236484D02*
X10370063Y-15226960D01*
X10370063Y-15226960D02*
X10360539Y-15217436D01*
X10360539Y-15217436D02*
X10351015Y-15198388D01*
X10351015Y-15198388D02*
X10351015Y-15141246D01*
X10351015Y-15141246D02*
X10360539Y-15122198D01*
X10360539Y-15122198D02*
X10370063Y-15112674D01*
X10370063Y-15112674D02*
X10389111Y-15103150D01*
X10389111Y-15103150D02*
X10417682Y-15103150D01*
X10417682Y-15103150D02*
X10436730Y-15112674D01*
X10436730Y-15112674D02*
X10446253Y-15122198D01*
X10446253Y-15122198D02*
X10455777Y-15141246D01*
X10455777Y-15141246D02*
X10455777Y-15198388D01*
X10455777Y-15198388D02*
X10446253Y-15217436D01*
X10446253Y-15217436D02*
X10436730Y-15226960D01*
X10436730Y-15226960D02*
X10417682Y-15236484D01*
X10417682Y-15236484D02*
X10389111Y-15236484D01*
X10570063Y-15236484D02*
X10551015Y-15226960D01*
X10551015Y-15226960D02*
X10541492Y-15207912D01*
X10541492Y-15207912D02*
X10541492Y-15036484D01*
X10722444Y-15226960D02*
X10703396Y-15236484D01*
X10703396Y-15236484D02*
X10665301Y-15236484D01*
X10665301Y-15236484D02*
X10646253Y-15226960D01*
X10646253Y-15226960D02*
X10636730Y-15207912D01*
X10636730Y-15207912D02*
X10636730Y-15131722D01*
X10636730Y-15131722D02*
X10646253Y-15112674D01*
X10646253Y-15112674D02*
X10665301Y-15103150D01*
X10665301Y-15103150D02*
X10703396Y-15103150D01*
X10703396Y-15103150D02*
X10722444Y-15112674D01*
X10722444Y-15112674D02*
X10731968Y-15131722D01*
X10731968Y-15131722D02*
X10731968Y-15150769D01*
X10731968Y-15150769D02*
X10636730Y-15169817D01*
X10808158Y-15226960D02*
X10827206Y-15236484D01*
X10827206Y-15236484D02*
X10865301Y-15236484D01*
X10865301Y-15236484D02*
X10884349Y-15226960D01*
X10884349Y-15226960D02*
X10893873Y-15207912D01*
X10893873Y-15207912D02*
X10893873Y-15198388D01*
X10893873Y-15198388D02*
X10884349Y-15179341D01*
X10884349Y-15179341D02*
X10865301Y-15169817D01*
X10865301Y-15169817D02*
X10836730Y-15169817D01*
X10836730Y-15169817D02*
X10817682Y-15160293D01*
X10817682Y-15160293D02*
X10808158Y-15141246D01*
X10808158Y-15141246D02*
X10808158Y-15131722D01*
X10808158Y-15131722D02*
X10817682Y-15112674D01*
X10817682Y-15112674D02*
X10836730Y-15103150D01*
X10836730Y-15103150D02*
X10865301Y-15103150D01*
X10865301Y-15103150D02*
X10884349Y-15112674D01*
X10960539Y-15312674D02*
X10970063Y-15303150D01*
X10970063Y-15303150D02*
X10989111Y-15274579D01*
X10989111Y-15274579D02*
X10998634Y-15255531D01*
X10998634Y-15255531D02*
X11008158Y-15226960D01*
X11008158Y-15226960D02*
X11017682Y-15179341D01*
X11017682Y-15179341D02*
X11017682Y-15141246D01*
X11017682Y-15141246D02*
X11008158Y-15093627D01*
X11008158Y-15093627D02*
X10998634Y-15065055D01*
X10998634Y-15065055D02*
X10989111Y-15046008D01*
X10989111Y-15046008D02*
X10970063Y-15017436D01*
X10970063Y-15017436D02*
X10960539Y-15007912D01*
D10*
X5995000Y-15409000D02*
G75*
G02*
X5935000Y-15409000I-30000J0D01*
G01*
X5935000Y-15409000D02*
G75*
G02*
X5995000Y-15409000I30000J0D01*
G01*
D11*
X6293872Y-15300484D02*
X6312920Y-15300484D01*
X6312920Y-15300484D02*
X6331967Y-15310008D01*
X6331967Y-15310008D02*
X6341491Y-15319531D01*
X6341491Y-15319531D02*
X6351015Y-15338579D01*
X6351015Y-15338579D02*
X6360539Y-15376674D01*
X6360539Y-15376674D02*
X6360539Y-15424293D01*
X6360539Y-15424293D02*
X6351015Y-15462388D01*
X6351015Y-15462388D02*
X6341491Y-15481436D01*
X6341491Y-15481436D02*
X6331967Y-15490960D01*
X6331967Y-15490960D02*
X6312920Y-15500484D01*
X6312920Y-15500484D02*
X6293872Y-15500484D01*
X6293872Y-15500484D02*
X6274824Y-15490960D01*
X6274824Y-15490960D02*
X6265301Y-15481436D01*
X6265301Y-15481436D02*
X6255777Y-15462388D01*
X6255777Y-15462388D02*
X6246253Y-15424293D01*
X6246253Y-15424293D02*
X6246253Y-15376674D01*
X6246253Y-15376674D02*
X6255777Y-15338579D01*
X6255777Y-15338579D02*
X6265301Y-15319531D01*
X6265301Y-15319531D02*
X6274824Y-15310008D01*
X6274824Y-15310008D02*
X6293872Y-15300484D01*
X6446253Y-15481436D02*
X6455777Y-15490960D01*
X6455777Y-15490960D02*
X6446253Y-15500484D01*
X6446253Y-15500484D02*
X6436729Y-15490960D01*
X6436729Y-15490960D02*
X6446253Y-15481436D01*
X6446253Y-15481436D02*
X6446253Y-15500484D01*
X6627205Y-15300484D02*
X6589110Y-15300484D01*
X6589110Y-15300484D02*
X6570062Y-15310008D01*
X6570062Y-15310008D02*
X6560539Y-15319531D01*
X6560539Y-15319531D02*
X6541491Y-15348103D01*
X6541491Y-15348103D02*
X6531967Y-15386198D01*
X6531967Y-15386198D02*
X6531967Y-15462388D01*
X6531967Y-15462388D02*
X6541491Y-15481436D01*
X6541491Y-15481436D02*
X6551015Y-15490960D01*
X6551015Y-15490960D02*
X6570062Y-15500484D01*
X6570062Y-15500484D02*
X6608158Y-15500484D01*
X6608158Y-15500484D02*
X6627205Y-15490960D01*
X6627205Y-15490960D02*
X6636729Y-15481436D01*
X6636729Y-15481436D02*
X6646253Y-15462388D01*
X6646253Y-15462388D02*
X6646253Y-15414769D01*
X6646253Y-15414769D02*
X6636729Y-15395722D01*
X6636729Y-15395722D02*
X6627205Y-15386198D01*
X6627205Y-15386198D02*
X6608158Y-15376674D01*
X6608158Y-15376674D02*
X6570062Y-15376674D01*
X6570062Y-15376674D02*
X6551015Y-15386198D01*
X6551015Y-15386198D02*
X6541491Y-15395722D01*
X6541491Y-15395722D02*
X6531967Y-15414769D01*
X6770062Y-15300484D02*
X6789110Y-15300484D01*
X6789110Y-15300484D02*
X6808158Y-15310008D01*
X6808158Y-15310008D02*
X6817682Y-15319531D01*
X6817682Y-15319531D02*
X6827205Y-15338579D01*
X6827205Y-15338579D02*
X6836729Y-15376674D01*
X6836729Y-15376674D02*
X6836729Y-15424293D01*
X6836729Y-15424293D02*
X6827205Y-15462388D01*
X6827205Y-15462388D02*
X6817682Y-15481436D01*
X6817682Y-15481436D02*
X6808158Y-15490960D01*
X6808158Y-15490960D02*
X6789110Y-15500484D01*
X6789110Y-15500484D02*
X6770062Y-15500484D01*
X6770062Y-15500484D02*
X6751015Y-15490960D01*
X6751015Y-15490960D02*
X6741491Y-15481436D01*
X6741491Y-15481436D02*
X6731967Y-15462388D01*
X6731967Y-15462388D02*
X6722443Y-15424293D01*
X6722443Y-15424293D02*
X6722443Y-15376674D01*
X6722443Y-15376674D02*
X6731967Y-15338579D01*
X6731967Y-15338579D02*
X6741491Y-15319531D01*
X6741491Y-15319531D02*
X6751015Y-15310008D01*
X6751015Y-15310008D02*
X6770062Y-15300484D01*
X6960539Y-15300484D02*
X6979586Y-15300484D01*
X6979586Y-15300484D02*
X6998634Y-15310008D01*
X6998634Y-15310008D02*
X7008158Y-15319531D01*
X7008158Y-15319531D02*
X7017682Y-15338579D01*
X7017682Y-15338579D02*
X7027205Y-15376674D01*
X7027205Y-15376674D02*
X7027205Y-15424293D01*
X7027205Y-15424293D02*
X7017682Y-15462388D01*
X7017682Y-15462388D02*
X7008158Y-15481436D01*
X7008158Y-15481436D02*
X6998634Y-15490960D01*
X6998634Y-15490960D02*
X6979586Y-15500484D01*
X6979586Y-15500484D02*
X6960539Y-15500484D01*
X6960539Y-15500484D02*
X6941491Y-15490960D01*
X6941491Y-15490960D02*
X6931967Y-15481436D01*
X6931967Y-15481436D02*
X6922443Y-15462388D01*
X6922443Y-15462388D02*
X6912920Y-15424293D01*
X6912920Y-15424293D02*
X6912920Y-15376674D01*
X6912920Y-15376674D02*
X6922443Y-15338579D01*
X6922443Y-15338579D02*
X6931967Y-15319531D01*
X6931967Y-15319531D02*
X6941491Y-15310008D01*
X6941491Y-15310008D02*
X6960539Y-15300484D01*
X7112920Y-15500484D02*
X7112920Y-15367150D01*
X7112920Y-15386198D02*
X7122443Y-15376674D01*
X7122443Y-15376674D02*
X7141491Y-15367150D01*
X7141491Y-15367150D02*
X7170063Y-15367150D01*
X7170063Y-15367150D02*
X7189110Y-15376674D01*
X7189110Y-15376674D02*
X7198634Y-15395722D01*
X7198634Y-15395722D02*
X7198634Y-15500484D01*
X7198634Y-15395722D02*
X7208158Y-15376674D01*
X7208158Y-15376674D02*
X7227205Y-15367150D01*
X7227205Y-15367150D02*
X7255777Y-15367150D01*
X7255777Y-15367150D02*
X7274824Y-15376674D01*
X7274824Y-15376674D02*
X7284348Y-15395722D01*
X7284348Y-15395722D02*
X7284348Y-15500484D01*
X7379586Y-15500484D02*
X7379586Y-15367150D01*
X7379586Y-15386198D02*
X7389110Y-15376674D01*
X7389110Y-15376674D02*
X7408158Y-15367150D01*
X7408158Y-15367150D02*
X7436729Y-15367150D01*
X7436729Y-15367150D02*
X7455777Y-15376674D01*
X7455777Y-15376674D02*
X7465301Y-15395722D01*
X7465301Y-15395722D02*
X7465301Y-15500484D01*
X7465301Y-15395722D02*
X7474824Y-15376674D01*
X7474824Y-15376674D02*
X7493872Y-15367150D01*
X7493872Y-15367150D02*
X7522443Y-15367150D01*
X7522443Y-15367150D02*
X7541491Y-15376674D01*
X7541491Y-15376674D02*
X7551015Y-15395722D01*
X7551015Y-15395722D02*
X7551015Y-15500484D01*
X7941491Y-15290960D02*
X7770063Y-15548103D01*
X8198634Y-15300484D02*
X8217682Y-15300484D01*
X8217682Y-15300484D02*
X8236729Y-15310008D01*
X8236729Y-15310008D02*
X8246253Y-15319531D01*
X8246253Y-15319531D02*
X8255777Y-15338579D01*
X8255777Y-15338579D02*
X8265301Y-15376674D01*
X8265301Y-15376674D02*
X8265301Y-15424293D01*
X8265301Y-15424293D02*
X8255777Y-15462388D01*
X8255777Y-15462388D02*
X8246253Y-15481436D01*
X8246253Y-15481436D02*
X8236729Y-15490960D01*
X8236729Y-15490960D02*
X8217682Y-15500484D01*
X8217682Y-15500484D02*
X8198634Y-15500484D01*
X8198634Y-15500484D02*
X8179586Y-15490960D01*
X8179586Y-15490960D02*
X8170063Y-15481436D01*
X8170063Y-15481436D02*
X8160539Y-15462388D01*
X8160539Y-15462388D02*
X8151015Y-15424293D01*
X8151015Y-15424293D02*
X8151015Y-15376674D01*
X8151015Y-15376674D02*
X8160539Y-15338579D01*
X8160539Y-15338579D02*
X8170063Y-15319531D01*
X8170063Y-15319531D02*
X8179586Y-15310008D01*
X8179586Y-15310008D02*
X8198634Y-15300484D01*
X8351015Y-15481436D02*
X8360539Y-15490960D01*
X8360539Y-15490960D02*
X8351015Y-15500484D01*
X8351015Y-15500484D02*
X8341491Y-15490960D01*
X8341491Y-15490960D02*
X8351015Y-15481436D01*
X8351015Y-15481436D02*
X8351015Y-15500484D01*
X8484348Y-15300484D02*
X8503396Y-15300484D01*
X8503396Y-15300484D02*
X8522444Y-15310008D01*
X8522444Y-15310008D02*
X8531968Y-15319531D01*
X8531968Y-15319531D02*
X8541491Y-15338579D01*
X8541491Y-15338579D02*
X8551015Y-15376674D01*
X8551015Y-15376674D02*
X8551015Y-15424293D01*
X8551015Y-15424293D02*
X8541491Y-15462388D01*
X8541491Y-15462388D02*
X8531968Y-15481436D01*
X8531968Y-15481436D02*
X8522444Y-15490960D01*
X8522444Y-15490960D02*
X8503396Y-15500484D01*
X8503396Y-15500484D02*
X8484348Y-15500484D01*
X8484348Y-15500484D02*
X8465301Y-15490960D01*
X8465301Y-15490960D02*
X8455777Y-15481436D01*
X8455777Y-15481436D02*
X8446253Y-15462388D01*
X8446253Y-15462388D02*
X8436729Y-15424293D01*
X8436729Y-15424293D02*
X8436729Y-15376674D01*
X8436729Y-15376674D02*
X8446253Y-15338579D01*
X8446253Y-15338579D02*
X8455777Y-15319531D01*
X8455777Y-15319531D02*
X8465301Y-15310008D01*
X8465301Y-15310008D02*
X8484348Y-15300484D01*
X8627206Y-15319531D02*
X8636729Y-15310008D01*
X8636729Y-15310008D02*
X8655777Y-15300484D01*
X8655777Y-15300484D02*
X8703396Y-15300484D01*
X8703396Y-15300484D02*
X8722444Y-15310008D01*
X8722444Y-15310008D02*
X8731968Y-15319531D01*
X8731968Y-15319531D02*
X8741491Y-15338579D01*
X8741491Y-15338579D02*
X8741491Y-15357627D01*
X8741491Y-15357627D02*
X8731968Y-15386198D01*
X8731968Y-15386198D02*
X8617682Y-15500484D01*
X8617682Y-15500484D02*
X8741491Y-15500484D01*
X8808158Y-15300484D02*
X8931968Y-15300484D01*
X8931968Y-15300484D02*
X8865301Y-15376674D01*
X8865301Y-15376674D02*
X8893872Y-15376674D01*
X8893872Y-15376674D02*
X8912920Y-15386198D01*
X8912920Y-15386198D02*
X8922444Y-15395722D01*
X8922444Y-15395722D02*
X8931968Y-15414769D01*
X8931968Y-15414769D02*
X8931968Y-15462388D01*
X8931968Y-15462388D02*
X8922444Y-15481436D01*
X8922444Y-15481436D02*
X8912920Y-15490960D01*
X8912920Y-15490960D02*
X8893872Y-15500484D01*
X8893872Y-15500484D02*
X8836729Y-15500484D01*
X8836729Y-15500484D02*
X8817682Y-15490960D01*
X8817682Y-15490960D02*
X8808158Y-15481436D01*
X9103396Y-15300484D02*
X9065301Y-15300484D01*
X9065301Y-15300484D02*
X9046253Y-15310008D01*
X9046253Y-15310008D02*
X9036729Y-15319531D01*
X9036729Y-15319531D02*
X9017682Y-15348103D01*
X9017682Y-15348103D02*
X9008158Y-15386198D01*
X9008158Y-15386198D02*
X9008158Y-15462388D01*
X9008158Y-15462388D02*
X9017682Y-15481436D01*
X9017682Y-15481436D02*
X9027206Y-15490960D01*
X9027206Y-15490960D02*
X9046253Y-15500484D01*
X9046253Y-15500484D02*
X9084349Y-15500484D01*
X9084349Y-15500484D02*
X9103396Y-15490960D01*
X9103396Y-15490960D02*
X9112920Y-15481436D01*
X9112920Y-15481436D02*
X9122444Y-15462388D01*
X9122444Y-15462388D02*
X9122444Y-15414769D01*
X9122444Y-15414769D02*
X9112920Y-15395722D01*
X9112920Y-15395722D02*
X9103396Y-15386198D01*
X9103396Y-15386198D02*
X9084349Y-15376674D01*
X9084349Y-15376674D02*
X9046253Y-15376674D01*
X9046253Y-15376674D02*
X9027206Y-15386198D01*
X9027206Y-15386198D02*
X9017682Y-15395722D01*
X9017682Y-15395722D02*
X9008158Y-15414769D01*
X9198634Y-15300484D02*
X9198634Y-15338579D01*
X9274825Y-15300484D02*
X9274825Y-15338579D01*
X9570063Y-15576674D02*
X9560539Y-15567150D01*
X9560539Y-15567150D02*
X9541491Y-15538579D01*
X9541491Y-15538579D02*
X9531968Y-15519531D01*
X9531968Y-15519531D02*
X9522444Y-15490960D01*
X9522444Y-15490960D02*
X9512920Y-15443341D01*
X9512920Y-15443341D02*
X9512920Y-15405246D01*
X9512920Y-15405246D02*
X9522444Y-15357627D01*
X9522444Y-15357627D02*
X9531968Y-15329055D01*
X9531968Y-15329055D02*
X9541491Y-15310008D01*
X9541491Y-15310008D02*
X9560539Y-15281436D01*
X9560539Y-15281436D02*
X9570063Y-15271912D01*
X9684349Y-15300484D02*
X9703396Y-15300484D01*
X9703396Y-15300484D02*
X9722444Y-15310008D01*
X9722444Y-15310008D02*
X9731968Y-15319531D01*
X9731968Y-15319531D02*
X9741491Y-15338579D01*
X9741491Y-15338579D02*
X9751015Y-15376674D01*
X9751015Y-15376674D02*
X9751015Y-15424293D01*
X9751015Y-15424293D02*
X9741491Y-15462388D01*
X9741491Y-15462388D02*
X9731968Y-15481436D01*
X9731968Y-15481436D02*
X9722444Y-15490960D01*
X9722444Y-15490960D02*
X9703396Y-15500484D01*
X9703396Y-15500484D02*
X9684349Y-15500484D01*
X9684349Y-15500484D02*
X9665301Y-15490960D01*
X9665301Y-15490960D02*
X9655777Y-15481436D01*
X9655777Y-15481436D02*
X9646253Y-15462388D01*
X9646253Y-15462388D02*
X9636730Y-15424293D01*
X9636730Y-15424293D02*
X9636730Y-15376674D01*
X9636730Y-15376674D02*
X9646253Y-15338579D01*
X9646253Y-15338579D02*
X9655777Y-15319531D01*
X9655777Y-15319531D02*
X9665301Y-15310008D01*
X9665301Y-15310008D02*
X9684349Y-15300484D01*
X9989111Y-15500484D02*
X9989111Y-15300484D01*
X10074825Y-15500484D02*
X10074825Y-15395722D01*
X10074825Y-15395722D02*
X10065301Y-15376674D01*
X10065301Y-15376674D02*
X10046253Y-15367150D01*
X10046253Y-15367150D02*
X10017682Y-15367150D01*
X10017682Y-15367150D02*
X9998634Y-15376674D01*
X9998634Y-15376674D02*
X9989111Y-15386198D01*
X10198634Y-15500484D02*
X10179587Y-15490960D01*
X10179587Y-15490960D02*
X10170063Y-15481436D01*
X10170063Y-15481436D02*
X10160539Y-15462388D01*
X10160539Y-15462388D02*
X10160539Y-15405246D01*
X10160539Y-15405246D02*
X10170063Y-15386198D01*
X10170063Y-15386198D02*
X10179587Y-15376674D01*
X10179587Y-15376674D02*
X10198634Y-15367150D01*
X10198634Y-15367150D02*
X10227206Y-15367150D01*
X10227206Y-15367150D02*
X10246253Y-15376674D01*
X10246253Y-15376674D02*
X10255777Y-15386198D01*
X10255777Y-15386198D02*
X10265301Y-15405246D01*
X10265301Y-15405246D02*
X10265301Y-15462388D01*
X10265301Y-15462388D02*
X10255777Y-15481436D01*
X10255777Y-15481436D02*
X10246253Y-15490960D01*
X10246253Y-15490960D02*
X10227206Y-15500484D01*
X10227206Y-15500484D02*
X10198634Y-15500484D01*
X10379587Y-15500484D02*
X10360539Y-15490960D01*
X10360539Y-15490960D02*
X10351015Y-15471912D01*
X10351015Y-15471912D02*
X10351015Y-15300484D01*
X10531968Y-15490960D02*
X10512920Y-15500484D01*
X10512920Y-15500484D02*
X10474825Y-15500484D01*
X10474825Y-15500484D02*
X10455777Y-15490960D01*
X10455777Y-15490960D02*
X10446253Y-15471912D01*
X10446253Y-15471912D02*
X10446253Y-15395722D01*
X10446253Y-15395722D02*
X10455777Y-15376674D01*
X10455777Y-15376674D02*
X10474825Y-15367150D01*
X10474825Y-15367150D02*
X10512920Y-15367150D01*
X10512920Y-15367150D02*
X10531968Y-15376674D01*
X10531968Y-15376674D02*
X10541492Y-15395722D01*
X10541492Y-15395722D02*
X10541492Y-15414769D01*
X10541492Y-15414769D02*
X10446253Y-15433817D01*
X10617682Y-15490960D02*
X10636730Y-15500484D01*
X10636730Y-15500484D02*
X10674825Y-15500484D01*
X10674825Y-15500484D02*
X10693873Y-15490960D01*
X10693873Y-15490960D02*
X10703396Y-15471912D01*
X10703396Y-15471912D02*
X10703396Y-15462388D01*
X10703396Y-15462388D02*
X10693873Y-15443341D01*
X10693873Y-15443341D02*
X10674825Y-15433817D01*
X10674825Y-15433817D02*
X10646253Y-15433817D01*
X10646253Y-15433817D02*
X10627206Y-15424293D01*
X10627206Y-15424293D02*
X10617682Y-15405246D01*
X10617682Y-15405246D02*
X10617682Y-15395722D01*
X10617682Y-15395722D02*
X10627206Y-15376674D01*
X10627206Y-15376674D02*
X10646253Y-15367150D01*
X10646253Y-15367150D02*
X10674825Y-15367150D01*
X10674825Y-15367150D02*
X10693873Y-15376674D01*
X10941492Y-15424293D02*
X11093873Y-15424293D01*
X11017682Y-15500484D02*
X11017682Y-15348103D01*
X11427206Y-15367150D02*
X11427206Y-15500484D01*
X11379587Y-15290960D02*
X11331968Y-15433817D01*
X11331968Y-15433817D02*
X11455777Y-15433817D01*
X11674825Y-15490960D02*
X11693873Y-15500484D01*
X11693873Y-15500484D02*
X11731968Y-15500484D01*
X11731968Y-15500484D02*
X11751015Y-15490960D01*
X11751015Y-15490960D02*
X11760539Y-15471912D01*
X11760539Y-15471912D02*
X11760539Y-15462388D01*
X11760539Y-15462388D02*
X11751015Y-15443341D01*
X11751015Y-15443341D02*
X11731968Y-15433817D01*
X11731968Y-15433817D02*
X11703396Y-15433817D01*
X11703396Y-15433817D02*
X11684349Y-15424293D01*
X11684349Y-15424293D02*
X11674825Y-15405246D01*
X11674825Y-15405246D02*
X11674825Y-15395722D01*
X11674825Y-15395722D02*
X11684349Y-15376674D01*
X11684349Y-15376674D02*
X11703396Y-15367150D01*
X11703396Y-15367150D02*
X11731968Y-15367150D01*
X11731968Y-15367150D02*
X11751015Y-15376674D01*
X11874825Y-15500484D02*
X11855777Y-15490960D01*
X11855777Y-15490960D02*
X11846254Y-15471912D01*
X11846254Y-15471912D02*
X11846254Y-15300484D01*
X11979587Y-15500484D02*
X11960539Y-15490960D01*
X11960539Y-15490960D02*
X11951015Y-15481436D01*
X11951015Y-15481436D02*
X11941492Y-15462388D01*
X11941492Y-15462388D02*
X11941492Y-15405246D01*
X11941492Y-15405246D02*
X11951015Y-15386198D01*
X11951015Y-15386198D02*
X11960539Y-15376674D01*
X11960539Y-15376674D02*
X11979587Y-15367150D01*
X11979587Y-15367150D02*
X12008158Y-15367150D01*
X12008158Y-15367150D02*
X12027206Y-15376674D01*
X12027206Y-15376674D02*
X12036730Y-15386198D01*
X12036730Y-15386198D02*
X12046254Y-15405246D01*
X12046254Y-15405246D02*
X12046254Y-15462388D01*
X12046254Y-15462388D02*
X12036730Y-15481436D01*
X12036730Y-15481436D02*
X12027206Y-15490960D01*
X12027206Y-15490960D02*
X12008158Y-15500484D01*
X12008158Y-15500484D02*
X11979587Y-15500484D01*
X12103396Y-15367150D02*
X12179587Y-15367150D01*
X12131968Y-15300484D02*
X12131968Y-15471912D01*
X12131968Y-15471912D02*
X12141492Y-15490960D01*
X12141492Y-15490960D02*
X12160539Y-15500484D01*
X12160539Y-15500484D02*
X12179587Y-15500484D01*
X12236730Y-15490960D02*
X12255777Y-15500484D01*
X12255777Y-15500484D02*
X12293873Y-15500484D01*
X12293873Y-15500484D02*
X12312920Y-15490960D01*
X12312920Y-15490960D02*
X12322444Y-15471912D01*
X12322444Y-15471912D02*
X12322444Y-15462388D01*
X12322444Y-15462388D02*
X12312920Y-15443341D01*
X12312920Y-15443341D02*
X12293873Y-15433817D01*
X12293873Y-15433817D02*
X12265301Y-15433817D01*
X12265301Y-15433817D02*
X12246254Y-15424293D01*
X12246254Y-15424293D02*
X12236730Y-15405246D01*
X12236730Y-15405246D02*
X12236730Y-15395722D01*
X12236730Y-15395722D02*
X12246254Y-15376674D01*
X12246254Y-15376674D02*
X12265301Y-15367150D01*
X12265301Y-15367150D02*
X12293873Y-15367150D01*
X12293873Y-15367150D02*
X12312920Y-15376674D01*
X12389111Y-15576674D02*
X12398635Y-15567150D01*
X12398635Y-15567150D02*
X12417682Y-15538579D01*
X12417682Y-15538579D02*
X12427206Y-15519531D01*
X12427206Y-15519531D02*
X12436730Y-15490960D01*
X12436730Y-15490960D02*
X12446254Y-15443341D01*
X12446254Y-15443341D02*
X12446254Y-15405246D01*
X12446254Y-15405246D02*
X12436730Y-15357627D01*
X12436730Y-15357627D02*
X12427206Y-15329055D01*
X12427206Y-15329055D02*
X12417682Y-15310008D01*
X12417682Y-15310008D02*
X12398635Y-15281436D01*
X12398635Y-15281436D02*
X12389111Y-15271912D01*
D10*
X5947500Y-15625500D02*
X5947500Y-15720500D01*
X5900000Y-15673000D02*
X5995000Y-15673000D01*
D11*
X6293872Y-15564484D02*
X6312920Y-15564484D01*
X6312920Y-15564484D02*
X6331967Y-15574008D01*
X6331967Y-15574008D02*
X6341491Y-15583531D01*
X6341491Y-15583531D02*
X6351015Y-15602579D01*
X6351015Y-15602579D02*
X6360539Y-15640674D01*
X6360539Y-15640674D02*
X6360539Y-15688293D01*
X6360539Y-15688293D02*
X6351015Y-15726388D01*
X6351015Y-15726388D02*
X6341491Y-15745436D01*
X6341491Y-15745436D02*
X6331967Y-15754960D01*
X6331967Y-15754960D02*
X6312920Y-15764484D01*
X6312920Y-15764484D02*
X6293872Y-15764484D01*
X6293872Y-15764484D02*
X6274824Y-15754960D01*
X6274824Y-15754960D02*
X6265301Y-15745436D01*
X6265301Y-15745436D02*
X6255777Y-15726388D01*
X6255777Y-15726388D02*
X6246253Y-15688293D01*
X6246253Y-15688293D02*
X6246253Y-15640674D01*
X6246253Y-15640674D02*
X6255777Y-15602579D01*
X6255777Y-15602579D02*
X6265301Y-15583531D01*
X6265301Y-15583531D02*
X6274824Y-15574008D01*
X6274824Y-15574008D02*
X6293872Y-15564484D01*
X6446253Y-15745436D02*
X6455777Y-15754960D01*
X6455777Y-15754960D02*
X6446253Y-15764484D01*
X6446253Y-15764484D02*
X6436729Y-15754960D01*
X6436729Y-15754960D02*
X6446253Y-15745436D01*
X6446253Y-15745436D02*
X6446253Y-15764484D01*
X6551015Y-15764484D02*
X6589110Y-15764484D01*
X6589110Y-15764484D02*
X6608158Y-15754960D01*
X6608158Y-15754960D02*
X6617682Y-15745436D01*
X6617682Y-15745436D02*
X6636729Y-15716865D01*
X6636729Y-15716865D02*
X6646253Y-15678769D01*
X6646253Y-15678769D02*
X6646253Y-15602579D01*
X6646253Y-15602579D02*
X6636729Y-15583531D01*
X6636729Y-15583531D02*
X6627205Y-15574008D01*
X6627205Y-15574008D02*
X6608158Y-15564484D01*
X6608158Y-15564484D02*
X6570062Y-15564484D01*
X6570062Y-15564484D02*
X6551015Y-15574008D01*
X6551015Y-15574008D02*
X6541491Y-15583531D01*
X6541491Y-15583531D02*
X6531967Y-15602579D01*
X6531967Y-15602579D02*
X6531967Y-15650198D01*
X6531967Y-15650198D02*
X6541491Y-15669246D01*
X6541491Y-15669246D02*
X6551015Y-15678769D01*
X6551015Y-15678769D02*
X6570062Y-15688293D01*
X6570062Y-15688293D02*
X6608158Y-15688293D01*
X6608158Y-15688293D02*
X6627205Y-15678769D01*
X6627205Y-15678769D02*
X6636729Y-15669246D01*
X6636729Y-15669246D02*
X6646253Y-15650198D01*
X6827205Y-15564484D02*
X6731967Y-15564484D01*
X6731967Y-15564484D02*
X6722443Y-15659722D01*
X6722443Y-15659722D02*
X6731967Y-15650198D01*
X6731967Y-15650198D02*
X6751015Y-15640674D01*
X6751015Y-15640674D02*
X6798634Y-15640674D01*
X6798634Y-15640674D02*
X6817682Y-15650198D01*
X6817682Y-15650198D02*
X6827205Y-15659722D01*
X6827205Y-15659722D02*
X6836729Y-15678769D01*
X6836729Y-15678769D02*
X6836729Y-15726388D01*
X6836729Y-15726388D02*
X6827205Y-15745436D01*
X6827205Y-15745436D02*
X6817682Y-15754960D01*
X6817682Y-15754960D02*
X6798634Y-15764484D01*
X6798634Y-15764484D02*
X6751015Y-15764484D01*
X6751015Y-15764484D02*
X6731967Y-15754960D01*
X6731967Y-15754960D02*
X6722443Y-15745436D01*
X6960539Y-15564484D02*
X6979586Y-15564484D01*
X6979586Y-15564484D02*
X6998634Y-15574008D01*
X6998634Y-15574008D02*
X7008158Y-15583531D01*
X7008158Y-15583531D02*
X7017682Y-15602579D01*
X7017682Y-15602579D02*
X7027205Y-15640674D01*
X7027205Y-15640674D02*
X7027205Y-15688293D01*
X7027205Y-15688293D02*
X7017682Y-15726388D01*
X7017682Y-15726388D02*
X7008158Y-15745436D01*
X7008158Y-15745436D02*
X6998634Y-15754960D01*
X6998634Y-15754960D02*
X6979586Y-15764484D01*
X6979586Y-15764484D02*
X6960539Y-15764484D01*
X6960539Y-15764484D02*
X6941491Y-15754960D01*
X6941491Y-15754960D02*
X6931967Y-15745436D01*
X6931967Y-15745436D02*
X6922443Y-15726388D01*
X6922443Y-15726388D02*
X6912920Y-15688293D01*
X6912920Y-15688293D02*
X6912920Y-15640674D01*
X6912920Y-15640674D02*
X6922443Y-15602579D01*
X6922443Y-15602579D02*
X6931967Y-15583531D01*
X6931967Y-15583531D02*
X6941491Y-15574008D01*
X6941491Y-15574008D02*
X6960539Y-15564484D01*
X7112920Y-15764484D02*
X7112920Y-15631150D01*
X7112920Y-15650198D02*
X7122443Y-15640674D01*
X7122443Y-15640674D02*
X7141491Y-15631150D01*
X7141491Y-15631150D02*
X7170063Y-15631150D01*
X7170063Y-15631150D02*
X7189110Y-15640674D01*
X7189110Y-15640674D02*
X7198634Y-15659722D01*
X7198634Y-15659722D02*
X7198634Y-15764484D01*
X7198634Y-15659722D02*
X7208158Y-15640674D01*
X7208158Y-15640674D02*
X7227205Y-15631150D01*
X7227205Y-15631150D02*
X7255777Y-15631150D01*
X7255777Y-15631150D02*
X7274824Y-15640674D01*
X7274824Y-15640674D02*
X7284348Y-15659722D01*
X7284348Y-15659722D02*
X7284348Y-15764484D01*
X7379586Y-15764484D02*
X7379586Y-15631150D01*
X7379586Y-15650198D02*
X7389110Y-15640674D01*
X7389110Y-15640674D02*
X7408158Y-15631150D01*
X7408158Y-15631150D02*
X7436729Y-15631150D01*
X7436729Y-15631150D02*
X7455777Y-15640674D01*
X7455777Y-15640674D02*
X7465301Y-15659722D01*
X7465301Y-15659722D02*
X7465301Y-15764484D01*
X7465301Y-15659722D02*
X7474824Y-15640674D01*
X7474824Y-15640674D02*
X7493872Y-15631150D01*
X7493872Y-15631150D02*
X7522443Y-15631150D01*
X7522443Y-15631150D02*
X7541491Y-15640674D01*
X7541491Y-15640674D02*
X7551015Y-15659722D01*
X7551015Y-15659722D02*
X7551015Y-15764484D01*
X7941491Y-15554960D02*
X7770063Y-15812103D01*
X8198634Y-15564484D02*
X8217682Y-15564484D01*
X8217682Y-15564484D02*
X8236729Y-15574008D01*
X8236729Y-15574008D02*
X8246253Y-15583531D01*
X8246253Y-15583531D02*
X8255777Y-15602579D01*
X8255777Y-15602579D02*
X8265301Y-15640674D01*
X8265301Y-15640674D02*
X8265301Y-15688293D01*
X8265301Y-15688293D02*
X8255777Y-15726388D01*
X8255777Y-15726388D02*
X8246253Y-15745436D01*
X8246253Y-15745436D02*
X8236729Y-15754960D01*
X8236729Y-15754960D02*
X8217682Y-15764484D01*
X8217682Y-15764484D02*
X8198634Y-15764484D01*
X8198634Y-15764484D02*
X8179586Y-15754960D01*
X8179586Y-15754960D02*
X8170063Y-15745436D01*
X8170063Y-15745436D02*
X8160539Y-15726388D01*
X8160539Y-15726388D02*
X8151015Y-15688293D01*
X8151015Y-15688293D02*
X8151015Y-15640674D01*
X8151015Y-15640674D02*
X8160539Y-15602579D01*
X8160539Y-15602579D02*
X8170063Y-15583531D01*
X8170063Y-15583531D02*
X8179586Y-15574008D01*
X8179586Y-15574008D02*
X8198634Y-15564484D01*
X8351015Y-15745436D02*
X8360539Y-15754960D01*
X8360539Y-15754960D02*
X8351015Y-15764484D01*
X8351015Y-15764484D02*
X8341491Y-15754960D01*
X8341491Y-15754960D02*
X8351015Y-15745436D01*
X8351015Y-15745436D02*
X8351015Y-15764484D01*
X8484348Y-15564484D02*
X8503396Y-15564484D01*
X8503396Y-15564484D02*
X8522444Y-15574008D01*
X8522444Y-15574008D02*
X8531968Y-15583531D01*
X8531968Y-15583531D02*
X8541491Y-15602579D01*
X8541491Y-15602579D02*
X8551015Y-15640674D01*
X8551015Y-15640674D02*
X8551015Y-15688293D01*
X8551015Y-15688293D02*
X8541491Y-15726388D01*
X8541491Y-15726388D02*
X8531968Y-15745436D01*
X8531968Y-15745436D02*
X8522444Y-15754960D01*
X8522444Y-15754960D02*
X8503396Y-15764484D01*
X8503396Y-15764484D02*
X8484348Y-15764484D01*
X8484348Y-15764484D02*
X8465301Y-15754960D01*
X8465301Y-15754960D02*
X8455777Y-15745436D01*
X8455777Y-15745436D02*
X8446253Y-15726388D01*
X8446253Y-15726388D02*
X8436729Y-15688293D01*
X8436729Y-15688293D02*
X8436729Y-15640674D01*
X8436729Y-15640674D02*
X8446253Y-15602579D01*
X8446253Y-15602579D02*
X8455777Y-15583531D01*
X8455777Y-15583531D02*
X8465301Y-15574008D01*
X8465301Y-15574008D02*
X8484348Y-15564484D01*
X8617682Y-15564484D02*
X8741491Y-15564484D01*
X8741491Y-15564484D02*
X8674825Y-15640674D01*
X8674825Y-15640674D02*
X8703396Y-15640674D01*
X8703396Y-15640674D02*
X8722444Y-15650198D01*
X8722444Y-15650198D02*
X8731968Y-15659722D01*
X8731968Y-15659722D02*
X8741491Y-15678769D01*
X8741491Y-15678769D02*
X8741491Y-15726388D01*
X8741491Y-15726388D02*
X8731968Y-15745436D01*
X8731968Y-15745436D02*
X8722444Y-15754960D01*
X8722444Y-15754960D02*
X8703396Y-15764484D01*
X8703396Y-15764484D02*
X8646253Y-15764484D01*
X8646253Y-15764484D02*
X8627206Y-15754960D01*
X8627206Y-15754960D02*
X8617682Y-15745436D01*
X8808158Y-15564484D02*
X8941491Y-15564484D01*
X8941491Y-15564484D02*
X8855777Y-15764484D01*
X9103396Y-15631150D02*
X9103396Y-15764484D01*
X9055777Y-15554960D02*
X9008158Y-15697817D01*
X9008158Y-15697817D02*
X9131968Y-15697817D01*
X9198634Y-15564484D02*
X9198634Y-15602579D01*
X9274825Y-15564484D02*
X9274825Y-15602579D01*
X9570063Y-15840674D02*
X9560539Y-15831150D01*
X9560539Y-15831150D02*
X9541491Y-15802579D01*
X9541491Y-15802579D02*
X9531968Y-15783531D01*
X9531968Y-15783531D02*
X9522444Y-15754960D01*
X9522444Y-15754960D02*
X9512920Y-15707341D01*
X9512920Y-15707341D02*
X9512920Y-15669246D01*
X9512920Y-15669246D02*
X9522444Y-15621627D01*
X9522444Y-15621627D02*
X9531968Y-15593055D01*
X9531968Y-15593055D02*
X9541491Y-15574008D01*
X9541491Y-15574008D02*
X9560539Y-15545436D01*
X9560539Y-15545436D02*
X9570063Y-15535912D01*
X9731968Y-15631150D02*
X9731968Y-15764484D01*
X9684349Y-15554960D02*
X9636730Y-15697817D01*
X9636730Y-15697817D02*
X9760539Y-15697817D01*
X9989111Y-15764484D02*
X9989111Y-15564484D01*
X10074825Y-15764484D02*
X10074825Y-15659722D01*
X10074825Y-15659722D02*
X10065301Y-15640674D01*
X10065301Y-15640674D02*
X10046253Y-15631150D01*
X10046253Y-15631150D02*
X10017682Y-15631150D01*
X10017682Y-15631150D02*
X9998634Y-15640674D01*
X9998634Y-15640674D02*
X9989111Y-15650198D01*
X10198634Y-15764484D02*
X10179587Y-15754960D01*
X10179587Y-15754960D02*
X10170063Y-15745436D01*
X10170063Y-15745436D02*
X10160539Y-15726388D01*
X10160539Y-15726388D02*
X10160539Y-15669246D01*
X10160539Y-15669246D02*
X10170063Y-15650198D01*
X10170063Y-15650198D02*
X10179587Y-15640674D01*
X10179587Y-15640674D02*
X10198634Y-15631150D01*
X10198634Y-15631150D02*
X10227206Y-15631150D01*
X10227206Y-15631150D02*
X10246253Y-15640674D01*
X10246253Y-15640674D02*
X10255777Y-15650198D01*
X10255777Y-15650198D02*
X10265301Y-15669246D01*
X10265301Y-15669246D02*
X10265301Y-15726388D01*
X10265301Y-15726388D02*
X10255777Y-15745436D01*
X10255777Y-15745436D02*
X10246253Y-15754960D01*
X10246253Y-15754960D02*
X10227206Y-15764484D01*
X10227206Y-15764484D02*
X10198634Y-15764484D01*
X10379587Y-15764484D02*
X10360539Y-15754960D01*
X10360539Y-15754960D02*
X10351015Y-15735912D01*
X10351015Y-15735912D02*
X10351015Y-15564484D01*
X10531968Y-15754960D02*
X10512920Y-15764484D01*
X10512920Y-15764484D02*
X10474825Y-15764484D01*
X10474825Y-15764484D02*
X10455777Y-15754960D01*
X10455777Y-15754960D02*
X10446253Y-15735912D01*
X10446253Y-15735912D02*
X10446253Y-15659722D01*
X10446253Y-15659722D02*
X10455777Y-15640674D01*
X10455777Y-15640674D02*
X10474825Y-15631150D01*
X10474825Y-15631150D02*
X10512920Y-15631150D01*
X10512920Y-15631150D02*
X10531968Y-15640674D01*
X10531968Y-15640674D02*
X10541492Y-15659722D01*
X10541492Y-15659722D02*
X10541492Y-15678769D01*
X10541492Y-15678769D02*
X10446253Y-15697817D01*
X10617682Y-15754960D02*
X10636730Y-15764484D01*
X10636730Y-15764484D02*
X10674825Y-15764484D01*
X10674825Y-15764484D02*
X10693873Y-15754960D01*
X10693873Y-15754960D02*
X10703396Y-15735912D01*
X10703396Y-15735912D02*
X10703396Y-15726388D01*
X10703396Y-15726388D02*
X10693873Y-15707341D01*
X10693873Y-15707341D02*
X10674825Y-15697817D01*
X10674825Y-15697817D02*
X10646253Y-15697817D01*
X10646253Y-15697817D02*
X10627206Y-15688293D01*
X10627206Y-15688293D02*
X10617682Y-15669246D01*
X10617682Y-15669246D02*
X10617682Y-15659722D01*
X10617682Y-15659722D02*
X10627206Y-15640674D01*
X10627206Y-15640674D02*
X10646253Y-15631150D01*
X10646253Y-15631150D02*
X10674825Y-15631150D01*
X10674825Y-15631150D02*
X10693873Y-15640674D01*
X10770063Y-15840674D02*
X10779587Y-15831150D01*
X10779587Y-15831150D02*
X10798634Y-15802579D01*
X10798634Y-15802579D02*
X10808158Y-15783531D01*
X10808158Y-15783531D02*
X10817682Y-15754960D01*
X10817682Y-15754960D02*
X10827206Y-15707341D01*
X10827206Y-15707341D02*
X10827206Y-15669246D01*
X10827206Y-15669246D02*
X10817682Y-15621627D01*
X10817682Y-15621627D02*
X10808158Y-15593055D01*
X10808158Y-15593055D02*
X10798634Y-15574008D01*
X10798634Y-15574008D02*
X10779587Y-15545436D01*
X10779587Y-15545436D02*
X10770063Y-15535912D01*
D10*
X5980356Y-15972356D02*
X5980356Y-15901644D01*
X5909644Y-15901644D01*
X5909644Y-15972356D01*
X5980356Y-15972356D01*
D11*
X6360539Y-16028484D02*
X6246253Y-16028484D01*
X6303396Y-16028484D02*
X6303396Y-15828484D01*
X6303396Y-15828484D02*
X6284348Y-15857055D01*
X6284348Y-15857055D02*
X6265301Y-15876103D01*
X6265301Y-15876103D02*
X6246253Y-15885627D01*
X6446253Y-16009436D02*
X6455777Y-16018960D01*
X6455777Y-16018960D02*
X6446253Y-16028484D01*
X6446253Y-16028484D02*
X6436729Y-16018960D01*
X6436729Y-16018960D02*
X6446253Y-16009436D01*
X6446253Y-16009436D02*
X6446253Y-16028484D01*
X6579586Y-15828484D02*
X6598634Y-15828484D01*
X6598634Y-15828484D02*
X6617682Y-15838008D01*
X6617682Y-15838008D02*
X6627205Y-15847531D01*
X6627205Y-15847531D02*
X6636729Y-15866579D01*
X6636729Y-15866579D02*
X6646253Y-15904674D01*
X6646253Y-15904674D02*
X6646253Y-15952293D01*
X6646253Y-15952293D02*
X6636729Y-15990388D01*
X6636729Y-15990388D02*
X6627205Y-16009436D01*
X6627205Y-16009436D02*
X6617682Y-16018960D01*
X6617682Y-16018960D02*
X6598634Y-16028484D01*
X6598634Y-16028484D02*
X6579586Y-16028484D01*
X6579586Y-16028484D02*
X6560539Y-16018960D01*
X6560539Y-16018960D02*
X6551015Y-16009436D01*
X6551015Y-16009436D02*
X6541491Y-15990388D01*
X6541491Y-15990388D02*
X6531967Y-15952293D01*
X6531967Y-15952293D02*
X6531967Y-15904674D01*
X6531967Y-15904674D02*
X6541491Y-15866579D01*
X6541491Y-15866579D02*
X6551015Y-15847531D01*
X6551015Y-15847531D02*
X6560539Y-15838008D01*
X6560539Y-15838008D02*
X6579586Y-15828484D01*
X6770062Y-15828484D02*
X6789110Y-15828484D01*
X6789110Y-15828484D02*
X6808158Y-15838008D01*
X6808158Y-15838008D02*
X6817682Y-15847531D01*
X6817682Y-15847531D02*
X6827205Y-15866579D01*
X6827205Y-15866579D02*
X6836729Y-15904674D01*
X6836729Y-15904674D02*
X6836729Y-15952293D01*
X6836729Y-15952293D02*
X6827205Y-15990388D01*
X6827205Y-15990388D02*
X6817682Y-16009436D01*
X6817682Y-16009436D02*
X6808158Y-16018960D01*
X6808158Y-16018960D02*
X6789110Y-16028484D01*
X6789110Y-16028484D02*
X6770062Y-16028484D01*
X6770062Y-16028484D02*
X6751015Y-16018960D01*
X6751015Y-16018960D02*
X6741491Y-16009436D01*
X6741491Y-16009436D02*
X6731967Y-15990388D01*
X6731967Y-15990388D02*
X6722443Y-15952293D01*
X6722443Y-15952293D02*
X6722443Y-15904674D01*
X6722443Y-15904674D02*
X6731967Y-15866579D01*
X6731967Y-15866579D02*
X6741491Y-15847531D01*
X6741491Y-15847531D02*
X6751015Y-15838008D01*
X6751015Y-15838008D02*
X6770062Y-15828484D01*
X6960539Y-15828484D02*
X6979586Y-15828484D01*
X6979586Y-15828484D02*
X6998634Y-15838008D01*
X6998634Y-15838008D02*
X7008158Y-15847531D01*
X7008158Y-15847531D02*
X7017682Y-15866579D01*
X7017682Y-15866579D02*
X7027205Y-15904674D01*
X7027205Y-15904674D02*
X7027205Y-15952293D01*
X7027205Y-15952293D02*
X7017682Y-15990388D01*
X7017682Y-15990388D02*
X7008158Y-16009436D01*
X7008158Y-16009436D02*
X6998634Y-16018960D01*
X6998634Y-16018960D02*
X6979586Y-16028484D01*
X6979586Y-16028484D02*
X6960539Y-16028484D01*
X6960539Y-16028484D02*
X6941491Y-16018960D01*
X6941491Y-16018960D02*
X6931967Y-16009436D01*
X6931967Y-16009436D02*
X6922443Y-15990388D01*
X6922443Y-15990388D02*
X6912920Y-15952293D01*
X6912920Y-15952293D02*
X6912920Y-15904674D01*
X6912920Y-15904674D02*
X6922443Y-15866579D01*
X6922443Y-15866579D02*
X6931967Y-15847531D01*
X6931967Y-15847531D02*
X6941491Y-15838008D01*
X6941491Y-15838008D02*
X6960539Y-15828484D01*
X7112920Y-16028484D02*
X7112920Y-15895150D01*
X7112920Y-15914198D02*
X7122443Y-15904674D01*
X7122443Y-15904674D02*
X7141491Y-15895150D01*
X7141491Y-15895150D02*
X7170063Y-15895150D01*
X7170063Y-15895150D02*
X7189110Y-15904674D01*
X7189110Y-15904674D02*
X7198634Y-15923722D01*
X7198634Y-15923722D02*
X7198634Y-16028484D01*
X7198634Y-15923722D02*
X7208158Y-15904674D01*
X7208158Y-15904674D02*
X7227205Y-15895150D01*
X7227205Y-15895150D02*
X7255777Y-15895150D01*
X7255777Y-15895150D02*
X7274824Y-15904674D01*
X7274824Y-15904674D02*
X7284348Y-15923722D01*
X7284348Y-15923722D02*
X7284348Y-16028484D01*
X7379586Y-16028484D02*
X7379586Y-15895150D01*
X7379586Y-15914198D02*
X7389110Y-15904674D01*
X7389110Y-15904674D02*
X7408158Y-15895150D01*
X7408158Y-15895150D02*
X7436729Y-15895150D01*
X7436729Y-15895150D02*
X7455777Y-15904674D01*
X7455777Y-15904674D02*
X7465301Y-15923722D01*
X7465301Y-15923722D02*
X7465301Y-16028484D01*
X7465301Y-15923722D02*
X7474824Y-15904674D01*
X7474824Y-15904674D02*
X7493872Y-15895150D01*
X7493872Y-15895150D02*
X7522443Y-15895150D01*
X7522443Y-15895150D02*
X7541491Y-15904674D01*
X7541491Y-15904674D02*
X7551015Y-15923722D01*
X7551015Y-15923722D02*
X7551015Y-16028484D01*
X7941491Y-15818960D02*
X7770063Y-16076103D01*
X8198634Y-15828484D02*
X8217682Y-15828484D01*
X8217682Y-15828484D02*
X8236729Y-15838008D01*
X8236729Y-15838008D02*
X8246253Y-15847531D01*
X8246253Y-15847531D02*
X8255777Y-15866579D01*
X8255777Y-15866579D02*
X8265301Y-15904674D01*
X8265301Y-15904674D02*
X8265301Y-15952293D01*
X8265301Y-15952293D02*
X8255777Y-15990388D01*
X8255777Y-15990388D02*
X8246253Y-16009436D01*
X8246253Y-16009436D02*
X8236729Y-16018960D01*
X8236729Y-16018960D02*
X8217682Y-16028484D01*
X8217682Y-16028484D02*
X8198634Y-16028484D01*
X8198634Y-16028484D02*
X8179586Y-16018960D01*
X8179586Y-16018960D02*
X8170063Y-16009436D01*
X8170063Y-16009436D02*
X8160539Y-15990388D01*
X8160539Y-15990388D02*
X8151015Y-15952293D01*
X8151015Y-15952293D02*
X8151015Y-15904674D01*
X8151015Y-15904674D02*
X8160539Y-15866579D01*
X8160539Y-15866579D02*
X8170063Y-15847531D01*
X8170063Y-15847531D02*
X8179586Y-15838008D01*
X8179586Y-15838008D02*
X8198634Y-15828484D01*
X8351015Y-16009436D02*
X8360539Y-16018960D01*
X8360539Y-16018960D02*
X8351015Y-16028484D01*
X8351015Y-16028484D02*
X8341491Y-16018960D01*
X8341491Y-16018960D02*
X8351015Y-16009436D01*
X8351015Y-16009436D02*
X8351015Y-16028484D01*
X8484348Y-15828484D02*
X8503396Y-15828484D01*
X8503396Y-15828484D02*
X8522444Y-15838008D01*
X8522444Y-15838008D02*
X8531968Y-15847531D01*
X8531968Y-15847531D02*
X8541491Y-15866579D01*
X8541491Y-15866579D02*
X8551015Y-15904674D01*
X8551015Y-15904674D02*
X8551015Y-15952293D01*
X8551015Y-15952293D02*
X8541491Y-15990388D01*
X8541491Y-15990388D02*
X8531968Y-16009436D01*
X8531968Y-16009436D02*
X8522444Y-16018960D01*
X8522444Y-16018960D02*
X8503396Y-16028484D01*
X8503396Y-16028484D02*
X8484348Y-16028484D01*
X8484348Y-16028484D02*
X8465301Y-16018960D01*
X8465301Y-16018960D02*
X8455777Y-16009436D01*
X8455777Y-16009436D02*
X8446253Y-15990388D01*
X8446253Y-15990388D02*
X8436729Y-15952293D01*
X8436729Y-15952293D02*
X8436729Y-15904674D01*
X8436729Y-15904674D02*
X8446253Y-15866579D01*
X8446253Y-15866579D02*
X8455777Y-15847531D01*
X8455777Y-15847531D02*
X8465301Y-15838008D01*
X8465301Y-15838008D02*
X8484348Y-15828484D01*
X8617682Y-15828484D02*
X8741491Y-15828484D01*
X8741491Y-15828484D02*
X8674825Y-15904674D01*
X8674825Y-15904674D02*
X8703396Y-15904674D01*
X8703396Y-15904674D02*
X8722444Y-15914198D01*
X8722444Y-15914198D02*
X8731968Y-15923722D01*
X8731968Y-15923722D02*
X8741491Y-15942769D01*
X8741491Y-15942769D02*
X8741491Y-15990388D01*
X8741491Y-15990388D02*
X8731968Y-16009436D01*
X8731968Y-16009436D02*
X8722444Y-16018960D01*
X8722444Y-16018960D02*
X8703396Y-16028484D01*
X8703396Y-16028484D02*
X8646253Y-16028484D01*
X8646253Y-16028484D02*
X8627206Y-16018960D01*
X8627206Y-16018960D02*
X8617682Y-16009436D01*
X8836729Y-16028484D02*
X8874825Y-16028484D01*
X8874825Y-16028484D02*
X8893872Y-16018960D01*
X8893872Y-16018960D02*
X8903396Y-16009436D01*
X8903396Y-16009436D02*
X8922444Y-15980865D01*
X8922444Y-15980865D02*
X8931968Y-15942769D01*
X8931968Y-15942769D02*
X8931968Y-15866579D01*
X8931968Y-15866579D02*
X8922444Y-15847531D01*
X8922444Y-15847531D02*
X8912920Y-15838008D01*
X8912920Y-15838008D02*
X8893872Y-15828484D01*
X8893872Y-15828484D02*
X8855777Y-15828484D01*
X8855777Y-15828484D02*
X8836729Y-15838008D01*
X8836729Y-15838008D02*
X8827206Y-15847531D01*
X8827206Y-15847531D02*
X8817682Y-15866579D01*
X8817682Y-15866579D02*
X8817682Y-15914198D01*
X8817682Y-15914198D02*
X8827206Y-15933246D01*
X8827206Y-15933246D02*
X8836729Y-15942769D01*
X8836729Y-15942769D02*
X8855777Y-15952293D01*
X8855777Y-15952293D02*
X8893872Y-15952293D01*
X8893872Y-15952293D02*
X8912920Y-15942769D01*
X8912920Y-15942769D02*
X8922444Y-15933246D01*
X8922444Y-15933246D02*
X8931968Y-15914198D01*
X9103396Y-15895150D02*
X9103396Y-16028484D01*
X9055777Y-15818960D02*
X9008158Y-15961817D01*
X9008158Y-15961817D02*
X9131968Y-15961817D01*
X9198634Y-15828484D02*
X9198634Y-15866579D01*
X9274825Y-15828484D02*
X9274825Y-15866579D01*
X9570063Y-16104674D02*
X9560539Y-16095150D01*
X9560539Y-16095150D02*
X9541491Y-16066579D01*
X9541491Y-16066579D02*
X9531968Y-16047531D01*
X9531968Y-16047531D02*
X9522444Y-16018960D01*
X9522444Y-16018960D02*
X9512920Y-15971341D01*
X9512920Y-15971341D02*
X9512920Y-15933246D01*
X9512920Y-15933246D02*
X9522444Y-15885627D01*
X9522444Y-15885627D02*
X9531968Y-15857055D01*
X9531968Y-15857055D02*
X9541491Y-15838008D01*
X9541491Y-15838008D02*
X9560539Y-15809436D01*
X9560539Y-15809436D02*
X9570063Y-15799912D01*
X9741491Y-15828484D02*
X9646253Y-15828484D01*
X9646253Y-15828484D02*
X9636730Y-15923722D01*
X9636730Y-15923722D02*
X9646253Y-15914198D01*
X9646253Y-15914198D02*
X9665301Y-15904674D01*
X9665301Y-15904674D02*
X9712920Y-15904674D01*
X9712920Y-15904674D02*
X9731968Y-15914198D01*
X9731968Y-15914198D02*
X9741491Y-15923722D01*
X9741491Y-15923722D02*
X9751015Y-15942769D01*
X9751015Y-15942769D02*
X9751015Y-15990388D01*
X9751015Y-15990388D02*
X9741491Y-16009436D01*
X9741491Y-16009436D02*
X9731968Y-16018960D01*
X9731968Y-16018960D02*
X9712920Y-16028484D01*
X9712920Y-16028484D02*
X9665301Y-16028484D01*
X9665301Y-16028484D02*
X9646253Y-16018960D01*
X9646253Y-16018960D02*
X9636730Y-16009436D01*
X9941491Y-16028484D02*
X9827206Y-16028484D01*
X9884349Y-16028484D02*
X9884349Y-15828484D01*
X9884349Y-15828484D02*
X9865301Y-15857055D01*
X9865301Y-15857055D02*
X9846253Y-15876103D01*
X9846253Y-15876103D02*
X9827206Y-15885627D01*
X10179587Y-16028484D02*
X10179587Y-15828484D01*
X10265301Y-16028484D02*
X10265301Y-15923722D01*
X10265301Y-15923722D02*
X10255777Y-15904674D01*
X10255777Y-15904674D02*
X10236730Y-15895150D01*
X10236730Y-15895150D02*
X10208158Y-15895150D01*
X10208158Y-15895150D02*
X10189111Y-15904674D01*
X10189111Y-15904674D02*
X10179587Y-15914198D01*
X10389111Y-16028484D02*
X10370063Y-16018960D01*
X10370063Y-16018960D02*
X10360539Y-16009436D01*
X10360539Y-16009436D02*
X10351015Y-15990388D01*
X10351015Y-15990388D02*
X10351015Y-15933246D01*
X10351015Y-15933246D02*
X10360539Y-15914198D01*
X10360539Y-15914198D02*
X10370063Y-15904674D01*
X10370063Y-15904674D02*
X10389111Y-15895150D01*
X10389111Y-15895150D02*
X10417682Y-15895150D01*
X10417682Y-15895150D02*
X10436730Y-15904674D01*
X10436730Y-15904674D02*
X10446253Y-15914198D01*
X10446253Y-15914198D02*
X10455777Y-15933246D01*
X10455777Y-15933246D02*
X10455777Y-15990388D01*
X10455777Y-15990388D02*
X10446253Y-16009436D01*
X10446253Y-16009436D02*
X10436730Y-16018960D01*
X10436730Y-16018960D02*
X10417682Y-16028484D01*
X10417682Y-16028484D02*
X10389111Y-16028484D01*
X10570063Y-16028484D02*
X10551015Y-16018960D01*
X10551015Y-16018960D02*
X10541492Y-15999912D01*
X10541492Y-15999912D02*
X10541492Y-15828484D01*
X10722444Y-16018960D02*
X10703396Y-16028484D01*
X10703396Y-16028484D02*
X10665301Y-16028484D01*
X10665301Y-16028484D02*
X10646253Y-16018960D01*
X10646253Y-16018960D02*
X10636730Y-15999912D01*
X10636730Y-15999912D02*
X10636730Y-15923722D01*
X10636730Y-15923722D02*
X10646253Y-15904674D01*
X10646253Y-15904674D02*
X10665301Y-15895150D01*
X10665301Y-15895150D02*
X10703396Y-15895150D01*
X10703396Y-15895150D02*
X10722444Y-15904674D01*
X10722444Y-15904674D02*
X10731968Y-15923722D01*
X10731968Y-15923722D02*
X10731968Y-15942769D01*
X10731968Y-15942769D02*
X10636730Y-15961817D01*
X10808158Y-16018960D02*
X10827206Y-16028484D01*
X10827206Y-16028484D02*
X10865301Y-16028484D01*
X10865301Y-16028484D02*
X10884349Y-16018960D01*
X10884349Y-16018960D02*
X10893873Y-15999912D01*
X10893873Y-15999912D02*
X10893873Y-15990388D01*
X10893873Y-15990388D02*
X10884349Y-15971341D01*
X10884349Y-15971341D02*
X10865301Y-15961817D01*
X10865301Y-15961817D02*
X10836730Y-15961817D01*
X10836730Y-15961817D02*
X10817682Y-15952293D01*
X10817682Y-15952293D02*
X10808158Y-15933246D01*
X10808158Y-15933246D02*
X10808158Y-15923722D01*
X10808158Y-15923722D02*
X10817682Y-15904674D01*
X10817682Y-15904674D02*
X10836730Y-15895150D01*
X10836730Y-15895150D02*
X10865301Y-15895150D01*
X10865301Y-15895150D02*
X10884349Y-15904674D01*
X10960539Y-16104674D02*
X10970063Y-16095150D01*
X10970063Y-16095150D02*
X10989111Y-16066579D01*
X10989111Y-16066579D02*
X10998634Y-16047531D01*
X10998634Y-16047531D02*
X11008158Y-16018960D01*
X11008158Y-16018960D02*
X11017682Y-15971341D01*
X11017682Y-15971341D02*
X11017682Y-15933246D01*
X11017682Y-15933246D02*
X11008158Y-15885627D01*
X11008158Y-15885627D02*
X10998634Y-15857055D01*
X10998634Y-15857055D02*
X10989111Y-15838008D01*
X10989111Y-15838008D02*
X10970063Y-15809436D01*
X10970063Y-15809436D02*
X10960539Y-15799912D01*
D12*
X5935500Y-16260500D02*
X5995000Y-16201000D01*
X5935500Y-16141500D01*
X5876000Y-16201000D01*
X5935500Y-16260500D01*
D11*
X6360539Y-16292484D02*
X6246253Y-16292484D01*
X6303396Y-16292484D02*
X6303396Y-16092484D01*
X6303396Y-16092484D02*
X6284348Y-16121055D01*
X6284348Y-16121055D02*
X6265301Y-16140103D01*
X6265301Y-16140103D02*
X6246253Y-16149627D01*
X6446253Y-16273436D02*
X6455777Y-16282960D01*
X6455777Y-16282960D02*
X6446253Y-16292484D01*
X6446253Y-16292484D02*
X6436729Y-16282960D01*
X6436729Y-16282960D02*
X6446253Y-16273436D01*
X6446253Y-16273436D02*
X6446253Y-16292484D01*
X6646253Y-16292484D02*
X6531967Y-16292484D01*
X6589110Y-16292484D02*
X6589110Y-16092484D01*
X6589110Y-16092484D02*
X6570062Y-16121055D01*
X6570062Y-16121055D02*
X6551015Y-16140103D01*
X6551015Y-16140103D02*
X6531967Y-16149627D01*
X6741491Y-16292484D02*
X6779586Y-16292484D01*
X6779586Y-16292484D02*
X6798634Y-16282960D01*
X6798634Y-16282960D02*
X6808158Y-16273436D01*
X6808158Y-16273436D02*
X6827205Y-16244865D01*
X6827205Y-16244865D02*
X6836729Y-16206769D01*
X6836729Y-16206769D02*
X6836729Y-16130579D01*
X6836729Y-16130579D02*
X6827205Y-16111531D01*
X6827205Y-16111531D02*
X6817682Y-16102008D01*
X6817682Y-16102008D02*
X6798634Y-16092484D01*
X6798634Y-16092484D02*
X6760539Y-16092484D01*
X6760539Y-16092484D02*
X6741491Y-16102008D01*
X6741491Y-16102008D02*
X6731967Y-16111531D01*
X6731967Y-16111531D02*
X6722443Y-16130579D01*
X6722443Y-16130579D02*
X6722443Y-16178198D01*
X6722443Y-16178198D02*
X6731967Y-16197246D01*
X6731967Y-16197246D02*
X6741491Y-16206769D01*
X6741491Y-16206769D02*
X6760539Y-16216293D01*
X6760539Y-16216293D02*
X6798634Y-16216293D01*
X6798634Y-16216293D02*
X6817682Y-16206769D01*
X6817682Y-16206769D02*
X6827205Y-16197246D01*
X6827205Y-16197246D02*
X6836729Y-16178198D01*
X6960539Y-16092484D02*
X6979586Y-16092484D01*
X6979586Y-16092484D02*
X6998634Y-16102008D01*
X6998634Y-16102008D02*
X7008158Y-16111531D01*
X7008158Y-16111531D02*
X7017682Y-16130579D01*
X7017682Y-16130579D02*
X7027205Y-16168674D01*
X7027205Y-16168674D02*
X7027205Y-16216293D01*
X7027205Y-16216293D02*
X7017682Y-16254388D01*
X7017682Y-16254388D02*
X7008158Y-16273436D01*
X7008158Y-16273436D02*
X6998634Y-16282960D01*
X6998634Y-16282960D02*
X6979586Y-16292484D01*
X6979586Y-16292484D02*
X6960539Y-16292484D01*
X6960539Y-16292484D02*
X6941491Y-16282960D01*
X6941491Y-16282960D02*
X6931967Y-16273436D01*
X6931967Y-16273436D02*
X6922443Y-16254388D01*
X6922443Y-16254388D02*
X6912920Y-16216293D01*
X6912920Y-16216293D02*
X6912920Y-16168674D01*
X6912920Y-16168674D02*
X6922443Y-16130579D01*
X6922443Y-16130579D02*
X6931967Y-16111531D01*
X6931967Y-16111531D02*
X6941491Y-16102008D01*
X6941491Y-16102008D02*
X6960539Y-16092484D01*
X7112920Y-16292484D02*
X7112920Y-16159150D01*
X7112920Y-16178198D02*
X7122443Y-16168674D01*
X7122443Y-16168674D02*
X7141491Y-16159150D01*
X7141491Y-16159150D02*
X7170063Y-16159150D01*
X7170063Y-16159150D02*
X7189110Y-16168674D01*
X7189110Y-16168674D02*
X7198634Y-16187722D01*
X7198634Y-16187722D02*
X7198634Y-16292484D01*
X7198634Y-16187722D02*
X7208158Y-16168674D01*
X7208158Y-16168674D02*
X7227205Y-16159150D01*
X7227205Y-16159150D02*
X7255777Y-16159150D01*
X7255777Y-16159150D02*
X7274824Y-16168674D01*
X7274824Y-16168674D02*
X7284348Y-16187722D01*
X7284348Y-16187722D02*
X7284348Y-16292484D01*
X7379586Y-16292484D02*
X7379586Y-16159150D01*
X7379586Y-16178198D02*
X7389110Y-16168674D01*
X7389110Y-16168674D02*
X7408158Y-16159150D01*
X7408158Y-16159150D02*
X7436729Y-16159150D01*
X7436729Y-16159150D02*
X7455777Y-16168674D01*
X7455777Y-16168674D02*
X7465301Y-16187722D01*
X7465301Y-16187722D02*
X7465301Y-16292484D01*
X7465301Y-16187722D02*
X7474824Y-16168674D01*
X7474824Y-16168674D02*
X7493872Y-16159150D01*
X7493872Y-16159150D02*
X7522443Y-16159150D01*
X7522443Y-16159150D02*
X7541491Y-16168674D01*
X7541491Y-16168674D02*
X7551015Y-16187722D01*
X7551015Y-16187722D02*
X7551015Y-16292484D01*
X7941491Y-16082960D02*
X7770063Y-16340103D01*
X8198634Y-16092484D02*
X8217682Y-16092484D01*
X8217682Y-16092484D02*
X8236729Y-16102008D01*
X8236729Y-16102008D02*
X8246253Y-16111531D01*
X8246253Y-16111531D02*
X8255777Y-16130579D01*
X8255777Y-16130579D02*
X8265301Y-16168674D01*
X8265301Y-16168674D02*
X8265301Y-16216293D01*
X8265301Y-16216293D02*
X8255777Y-16254388D01*
X8255777Y-16254388D02*
X8246253Y-16273436D01*
X8246253Y-16273436D02*
X8236729Y-16282960D01*
X8236729Y-16282960D02*
X8217682Y-16292484D01*
X8217682Y-16292484D02*
X8198634Y-16292484D01*
X8198634Y-16292484D02*
X8179586Y-16282960D01*
X8179586Y-16282960D02*
X8170063Y-16273436D01*
X8170063Y-16273436D02*
X8160539Y-16254388D01*
X8160539Y-16254388D02*
X8151015Y-16216293D01*
X8151015Y-16216293D02*
X8151015Y-16168674D01*
X8151015Y-16168674D02*
X8160539Y-16130579D01*
X8160539Y-16130579D02*
X8170063Y-16111531D01*
X8170063Y-16111531D02*
X8179586Y-16102008D01*
X8179586Y-16102008D02*
X8198634Y-16092484D01*
X8351015Y-16273436D02*
X8360539Y-16282960D01*
X8360539Y-16282960D02*
X8351015Y-16292484D01*
X8351015Y-16292484D02*
X8341491Y-16282960D01*
X8341491Y-16282960D02*
X8351015Y-16273436D01*
X8351015Y-16273436D02*
X8351015Y-16292484D01*
X8484348Y-16092484D02*
X8503396Y-16092484D01*
X8503396Y-16092484D02*
X8522444Y-16102008D01*
X8522444Y-16102008D02*
X8531968Y-16111531D01*
X8531968Y-16111531D02*
X8541491Y-16130579D01*
X8541491Y-16130579D02*
X8551015Y-16168674D01*
X8551015Y-16168674D02*
X8551015Y-16216293D01*
X8551015Y-16216293D02*
X8541491Y-16254388D01*
X8541491Y-16254388D02*
X8531968Y-16273436D01*
X8531968Y-16273436D02*
X8522444Y-16282960D01*
X8522444Y-16282960D02*
X8503396Y-16292484D01*
X8503396Y-16292484D02*
X8484348Y-16292484D01*
X8484348Y-16292484D02*
X8465301Y-16282960D01*
X8465301Y-16282960D02*
X8455777Y-16273436D01*
X8455777Y-16273436D02*
X8446253Y-16254388D01*
X8446253Y-16254388D02*
X8436729Y-16216293D01*
X8436729Y-16216293D02*
X8436729Y-16168674D01*
X8436729Y-16168674D02*
X8446253Y-16130579D01*
X8446253Y-16130579D02*
X8455777Y-16111531D01*
X8455777Y-16111531D02*
X8465301Y-16102008D01*
X8465301Y-16102008D02*
X8484348Y-16092484D01*
X8722444Y-16159150D02*
X8722444Y-16292484D01*
X8674825Y-16082960D02*
X8627206Y-16225817D01*
X8627206Y-16225817D02*
X8751015Y-16225817D01*
X8912920Y-16092484D02*
X8874825Y-16092484D01*
X8874825Y-16092484D02*
X8855777Y-16102008D01*
X8855777Y-16102008D02*
X8846253Y-16111531D01*
X8846253Y-16111531D02*
X8827206Y-16140103D01*
X8827206Y-16140103D02*
X8817682Y-16178198D01*
X8817682Y-16178198D02*
X8817682Y-16254388D01*
X8817682Y-16254388D02*
X8827206Y-16273436D01*
X8827206Y-16273436D02*
X8836729Y-16282960D01*
X8836729Y-16282960D02*
X8855777Y-16292484D01*
X8855777Y-16292484D02*
X8893872Y-16292484D01*
X8893872Y-16292484D02*
X8912920Y-16282960D01*
X8912920Y-16282960D02*
X8922444Y-16273436D01*
X8922444Y-16273436D02*
X8931968Y-16254388D01*
X8931968Y-16254388D02*
X8931968Y-16206769D01*
X8931968Y-16206769D02*
X8922444Y-16187722D01*
X8922444Y-16187722D02*
X8912920Y-16178198D01*
X8912920Y-16178198D02*
X8893872Y-16168674D01*
X8893872Y-16168674D02*
X8855777Y-16168674D01*
X8855777Y-16168674D02*
X8836729Y-16178198D01*
X8836729Y-16178198D02*
X8827206Y-16187722D01*
X8827206Y-16187722D02*
X8817682Y-16206769D01*
X9027206Y-16292484D02*
X9065301Y-16292484D01*
X9065301Y-16292484D02*
X9084349Y-16282960D01*
X9084349Y-16282960D02*
X9093872Y-16273436D01*
X9093872Y-16273436D02*
X9112920Y-16244865D01*
X9112920Y-16244865D02*
X9122444Y-16206769D01*
X9122444Y-16206769D02*
X9122444Y-16130579D01*
X9122444Y-16130579D02*
X9112920Y-16111531D01*
X9112920Y-16111531D02*
X9103396Y-16102008D01*
X9103396Y-16102008D02*
X9084349Y-16092484D01*
X9084349Y-16092484D02*
X9046253Y-16092484D01*
X9046253Y-16092484D02*
X9027206Y-16102008D01*
X9027206Y-16102008D02*
X9017682Y-16111531D01*
X9017682Y-16111531D02*
X9008158Y-16130579D01*
X9008158Y-16130579D02*
X9008158Y-16178198D01*
X9008158Y-16178198D02*
X9017682Y-16197246D01*
X9017682Y-16197246D02*
X9027206Y-16206769D01*
X9027206Y-16206769D02*
X9046253Y-16216293D01*
X9046253Y-16216293D02*
X9084349Y-16216293D01*
X9084349Y-16216293D02*
X9103396Y-16206769D01*
X9103396Y-16206769D02*
X9112920Y-16197246D01*
X9112920Y-16197246D02*
X9122444Y-16178198D01*
X9198634Y-16092484D02*
X9198634Y-16130579D01*
X9274825Y-16092484D02*
X9274825Y-16130579D01*
X9570063Y-16368674D02*
X9560539Y-16359150D01*
X9560539Y-16359150D02*
X9541491Y-16330579D01*
X9541491Y-16330579D02*
X9531968Y-16311531D01*
X9531968Y-16311531D02*
X9522444Y-16282960D01*
X9522444Y-16282960D02*
X9512920Y-16235341D01*
X9512920Y-16235341D02*
X9512920Y-16197246D01*
X9512920Y-16197246D02*
X9522444Y-16149627D01*
X9522444Y-16149627D02*
X9531968Y-16121055D01*
X9531968Y-16121055D02*
X9541491Y-16102008D01*
X9541491Y-16102008D02*
X9560539Y-16073436D01*
X9560539Y-16073436D02*
X9570063Y-16063912D01*
X9751015Y-16292484D02*
X9636730Y-16292484D01*
X9693872Y-16292484D02*
X9693872Y-16092484D01*
X9693872Y-16092484D02*
X9674825Y-16121055D01*
X9674825Y-16121055D02*
X9655777Y-16140103D01*
X9655777Y-16140103D02*
X9636730Y-16149627D01*
X9931968Y-16092484D02*
X9836730Y-16092484D01*
X9836730Y-16092484D02*
X9827206Y-16187722D01*
X9827206Y-16187722D02*
X9836730Y-16178198D01*
X9836730Y-16178198D02*
X9855777Y-16168674D01*
X9855777Y-16168674D02*
X9903396Y-16168674D01*
X9903396Y-16168674D02*
X9922444Y-16178198D01*
X9922444Y-16178198D02*
X9931968Y-16187722D01*
X9931968Y-16187722D02*
X9941491Y-16206769D01*
X9941491Y-16206769D02*
X9941491Y-16254388D01*
X9941491Y-16254388D02*
X9931968Y-16273436D01*
X9931968Y-16273436D02*
X9922444Y-16282960D01*
X9922444Y-16282960D02*
X9903396Y-16292484D01*
X9903396Y-16292484D02*
X9855777Y-16292484D01*
X9855777Y-16292484D02*
X9836730Y-16282960D01*
X9836730Y-16282960D02*
X9827206Y-16273436D01*
X10179587Y-16292484D02*
X10179587Y-16092484D01*
X10265301Y-16292484D02*
X10265301Y-16187722D01*
X10265301Y-16187722D02*
X10255777Y-16168674D01*
X10255777Y-16168674D02*
X10236730Y-16159150D01*
X10236730Y-16159150D02*
X10208158Y-16159150D01*
X10208158Y-16159150D02*
X10189111Y-16168674D01*
X10189111Y-16168674D02*
X10179587Y-16178198D01*
X10389111Y-16292484D02*
X10370063Y-16282960D01*
X10370063Y-16282960D02*
X10360539Y-16273436D01*
X10360539Y-16273436D02*
X10351015Y-16254388D01*
X10351015Y-16254388D02*
X10351015Y-16197246D01*
X10351015Y-16197246D02*
X10360539Y-16178198D01*
X10360539Y-16178198D02*
X10370063Y-16168674D01*
X10370063Y-16168674D02*
X10389111Y-16159150D01*
X10389111Y-16159150D02*
X10417682Y-16159150D01*
X10417682Y-16159150D02*
X10436730Y-16168674D01*
X10436730Y-16168674D02*
X10446253Y-16178198D01*
X10446253Y-16178198D02*
X10455777Y-16197246D01*
X10455777Y-16197246D02*
X10455777Y-16254388D01*
X10455777Y-16254388D02*
X10446253Y-16273436D01*
X10446253Y-16273436D02*
X10436730Y-16282960D01*
X10436730Y-16282960D02*
X10417682Y-16292484D01*
X10417682Y-16292484D02*
X10389111Y-16292484D01*
X10570063Y-16292484D02*
X10551015Y-16282960D01*
X10551015Y-16282960D02*
X10541492Y-16263912D01*
X10541492Y-16263912D02*
X10541492Y-16092484D01*
X10722444Y-16282960D02*
X10703396Y-16292484D01*
X10703396Y-16292484D02*
X10665301Y-16292484D01*
X10665301Y-16292484D02*
X10646253Y-16282960D01*
X10646253Y-16282960D02*
X10636730Y-16263912D01*
X10636730Y-16263912D02*
X10636730Y-16187722D01*
X10636730Y-16187722D02*
X10646253Y-16168674D01*
X10646253Y-16168674D02*
X10665301Y-16159150D01*
X10665301Y-16159150D02*
X10703396Y-16159150D01*
X10703396Y-16159150D02*
X10722444Y-16168674D01*
X10722444Y-16168674D02*
X10731968Y-16187722D01*
X10731968Y-16187722D02*
X10731968Y-16206769D01*
X10731968Y-16206769D02*
X10636730Y-16225817D01*
X10808158Y-16282960D02*
X10827206Y-16292484D01*
X10827206Y-16292484D02*
X10865301Y-16292484D01*
X10865301Y-16292484D02*
X10884349Y-16282960D01*
X10884349Y-16282960D02*
X10893873Y-16263912D01*
X10893873Y-16263912D02*
X10893873Y-16254388D01*
X10893873Y-16254388D02*
X10884349Y-16235341D01*
X10884349Y-16235341D02*
X10865301Y-16225817D01*
X10865301Y-16225817D02*
X10836730Y-16225817D01*
X10836730Y-16225817D02*
X10817682Y-16216293D01*
X10817682Y-16216293D02*
X10808158Y-16197246D01*
X10808158Y-16197246D02*
X10808158Y-16187722D01*
X10808158Y-16187722D02*
X10817682Y-16168674D01*
X10817682Y-16168674D02*
X10836730Y-16159150D01*
X10836730Y-16159150D02*
X10865301Y-16159150D01*
X10865301Y-16159150D02*
X10884349Y-16168674D01*
X10960539Y-16368674D02*
X10970063Y-16359150D01*
X10970063Y-16359150D02*
X10989111Y-16330579D01*
X10989111Y-16330579D02*
X10998634Y-16311531D01*
X10998634Y-16311531D02*
X11008158Y-16282960D01*
X11008158Y-16282960D02*
X11017682Y-16235341D01*
X11017682Y-16235341D02*
X11017682Y-16197246D01*
X11017682Y-16197246D02*
X11008158Y-16149627D01*
X11008158Y-16149627D02*
X10998634Y-16121055D01*
X10998634Y-16121055D02*
X10989111Y-16102008D01*
X10989111Y-16102008D02*
X10970063Y-16073436D01*
X10970063Y-16073436D02*
X10960539Y-16063912D01*
X5795000Y-16365000D02*
X5995000Y-16565000D01*
X5995000Y-16365000D02*
X5795000Y-16565000D01*
X5995000Y-16465000D02*
G75*
G02*
X5795000Y-16465000I-100000J0D01*
G01*
X5795000Y-16465000D02*
G75*
G02*
X5995000Y-16465000I100000J0D01*
G01*
X6246253Y-16375531D02*
X6255777Y-16366008D01*
X6255777Y-16366008D02*
X6274824Y-16356484D01*
X6274824Y-16356484D02*
X6322443Y-16356484D01*
X6322443Y-16356484D02*
X6341491Y-16366008D01*
X6341491Y-16366008D02*
X6351015Y-16375531D01*
X6351015Y-16375531D02*
X6360539Y-16394579D01*
X6360539Y-16394579D02*
X6360539Y-16413627D01*
X6360539Y-16413627D02*
X6351015Y-16442198D01*
X6351015Y-16442198D02*
X6236729Y-16556484D01*
X6236729Y-16556484D02*
X6360539Y-16556484D01*
X6446253Y-16537436D02*
X6455777Y-16546960D01*
X6455777Y-16546960D02*
X6446253Y-16556484D01*
X6446253Y-16556484D02*
X6436729Y-16546960D01*
X6436729Y-16546960D02*
X6446253Y-16537436D01*
X6446253Y-16537436D02*
X6446253Y-16556484D01*
X6522443Y-16356484D02*
X6646253Y-16356484D01*
X6646253Y-16356484D02*
X6579586Y-16432674D01*
X6579586Y-16432674D02*
X6608158Y-16432674D01*
X6608158Y-16432674D02*
X6627205Y-16442198D01*
X6627205Y-16442198D02*
X6636729Y-16451722D01*
X6636729Y-16451722D02*
X6646253Y-16470769D01*
X6646253Y-16470769D02*
X6646253Y-16518388D01*
X6646253Y-16518388D02*
X6636729Y-16537436D01*
X6636729Y-16537436D02*
X6627205Y-16546960D01*
X6627205Y-16546960D02*
X6608158Y-16556484D01*
X6608158Y-16556484D02*
X6551015Y-16556484D01*
X6551015Y-16556484D02*
X6531967Y-16546960D01*
X6531967Y-16546960D02*
X6522443Y-16537436D01*
X6770062Y-16356484D02*
X6789110Y-16356484D01*
X6789110Y-16356484D02*
X6808158Y-16366008D01*
X6808158Y-16366008D02*
X6817682Y-16375531D01*
X6817682Y-16375531D02*
X6827205Y-16394579D01*
X6827205Y-16394579D02*
X6836729Y-16432674D01*
X6836729Y-16432674D02*
X6836729Y-16480293D01*
X6836729Y-16480293D02*
X6827205Y-16518388D01*
X6827205Y-16518388D02*
X6817682Y-16537436D01*
X6817682Y-16537436D02*
X6808158Y-16546960D01*
X6808158Y-16546960D02*
X6789110Y-16556484D01*
X6789110Y-16556484D02*
X6770062Y-16556484D01*
X6770062Y-16556484D02*
X6751015Y-16546960D01*
X6751015Y-16546960D02*
X6741491Y-16537436D01*
X6741491Y-16537436D02*
X6731967Y-16518388D01*
X6731967Y-16518388D02*
X6722443Y-16480293D01*
X6722443Y-16480293D02*
X6722443Y-16432674D01*
X6722443Y-16432674D02*
X6731967Y-16394579D01*
X6731967Y-16394579D02*
X6741491Y-16375531D01*
X6741491Y-16375531D02*
X6751015Y-16366008D01*
X6751015Y-16366008D02*
X6770062Y-16356484D01*
X6960539Y-16356484D02*
X6979586Y-16356484D01*
X6979586Y-16356484D02*
X6998634Y-16366008D01*
X6998634Y-16366008D02*
X7008158Y-16375531D01*
X7008158Y-16375531D02*
X7017682Y-16394579D01*
X7017682Y-16394579D02*
X7027205Y-16432674D01*
X7027205Y-16432674D02*
X7027205Y-16480293D01*
X7027205Y-16480293D02*
X7017682Y-16518388D01*
X7017682Y-16518388D02*
X7008158Y-16537436D01*
X7008158Y-16537436D02*
X6998634Y-16546960D01*
X6998634Y-16546960D02*
X6979586Y-16556484D01*
X6979586Y-16556484D02*
X6960539Y-16556484D01*
X6960539Y-16556484D02*
X6941491Y-16546960D01*
X6941491Y-16546960D02*
X6931967Y-16537436D01*
X6931967Y-16537436D02*
X6922443Y-16518388D01*
X6922443Y-16518388D02*
X6912920Y-16480293D01*
X6912920Y-16480293D02*
X6912920Y-16432674D01*
X6912920Y-16432674D02*
X6922443Y-16394579D01*
X6922443Y-16394579D02*
X6931967Y-16375531D01*
X6931967Y-16375531D02*
X6941491Y-16366008D01*
X6941491Y-16366008D02*
X6960539Y-16356484D01*
X7112920Y-16556484D02*
X7112920Y-16423150D01*
X7112920Y-16442198D02*
X7122443Y-16432674D01*
X7122443Y-16432674D02*
X7141491Y-16423150D01*
X7141491Y-16423150D02*
X7170063Y-16423150D01*
X7170063Y-16423150D02*
X7189110Y-16432674D01*
X7189110Y-16432674D02*
X7198634Y-16451722D01*
X7198634Y-16451722D02*
X7198634Y-16556484D01*
X7198634Y-16451722D02*
X7208158Y-16432674D01*
X7208158Y-16432674D02*
X7227205Y-16423150D01*
X7227205Y-16423150D02*
X7255777Y-16423150D01*
X7255777Y-16423150D02*
X7274824Y-16432674D01*
X7274824Y-16432674D02*
X7284348Y-16451722D01*
X7284348Y-16451722D02*
X7284348Y-16556484D01*
X7379586Y-16556484D02*
X7379586Y-16423150D01*
X7379586Y-16442198D02*
X7389110Y-16432674D01*
X7389110Y-16432674D02*
X7408158Y-16423150D01*
X7408158Y-16423150D02*
X7436729Y-16423150D01*
X7436729Y-16423150D02*
X7455777Y-16432674D01*
X7455777Y-16432674D02*
X7465301Y-16451722D01*
X7465301Y-16451722D02*
X7465301Y-16556484D01*
X7465301Y-16451722D02*
X7474824Y-16432674D01*
X7474824Y-16432674D02*
X7493872Y-16423150D01*
X7493872Y-16423150D02*
X7522443Y-16423150D01*
X7522443Y-16423150D02*
X7541491Y-16432674D01*
X7541491Y-16432674D02*
X7551015Y-16451722D01*
X7551015Y-16451722D02*
X7551015Y-16556484D01*
X7941491Y-16346960D02*
X7770063Y-16604103D01*
X8198634Y-16356484D02*
X8217682Y-16356484D01*
X8217682Y-16356484D02*
X8236729Y-16366008D01*
X8236729Y-16366008D02*
X8246253Y-16375531D01*
X8246253Y-16375531D02*
X8255777Y-16394579D01*
X8255777Y-16394579D02*
X8265301Y-16432674D01*
X8265301Y-16432674D02*
X8265301Y-16480293D01*
X8265301Y-16480293D02*
X8255777Y-16518388D01*
X8255777Y-16518388D02*
X8246253Y-16537436D01*
X8246253Y-16537436D02*
X8236729Y-16546960D01*
X8236729Y-16546960D02*
X8217682Y-16556484D01*
X8217682Y-16556484D02*
X8198634Y-16556484D01*
X8198634Y-16556484D02*
X8179586Y-16546960D01*
X8179586Y-16546960D02*
X8170063Y-16537436D01*
X8170063Y-16537436D02*
X8160539Y-16518388D01*
X8160539Y-16518388D02*
X8151015Y-16480293D01*
X8151015Y-16480293D02*
X8151015Y-16432674D01*
X8151015Y-16432674D02*
X8160539Y-16394579D01*
X8160539Y-16394579D02*
X8170063Y-16375531D01*
X8170063Y-16375531D02*
X8179586Y-16366008D01*
X8179586Y-16366008D02*
X8198634Y-16356484D01*
X8351015Y-16537436D02*
X8360539Y-16546960D01*
X8360539Y-16546960D02*
X8351015Y-16556484D01*
X8351015Y-16556484D02*
X8341491Y-16546960D01*
X8341491Y-16546960D02*
X8351015Y-16537436D01*
X8351015Y-16537436D02*
X8351015Y-16556484D01*
X8484348Y-16356484D02*
X8503396Y-16356484D01*
X8503396Y-16356484D02*
X8522444Y-16366008D01*
X8522444Y-16366008D02*
X8531968Y-16375531D01*
X8531968Y-16375531D02*
X8541491Y-16394579D01*
X8541491Y-16394579D02*
X8551015Y-16432674D01*
X8551015Y-16432674D02*
X8551015Y-16480293D01*
X8551015Y-16480293D02*
X8541491Y-16518388D01*
X8541491Y-16518388D02*
X8531968Y-16537436D01*
X8531968Y-16537436D02*
X8522444Y-16546960D01*
X8522444Y-16546960D02*
X8503396Y-16556484D01*
X8503396Y-16556484D02*
X8484348Y-16556484D01*
X8484348Y-16556484D02*
X8465301Y-16546960D01*
X8465301Y-16546960D02*
X8455777Y-16537436D01*
X8455777Y-16537436D02*
X8446253Y-16518388D01*
X8446253Y-16518388D02*
X8436729Y-16480293D01*
X8436729Y-16480293D02*
X8436729Y-16432674D01*
X8436729Y-16432674D02*
X8446253Y-16394579D01*
X8446253Y-16394579D02*
X8455777Y-16375531D01*
X8455777Y-16375531D02*
X8465301Y-16366008D01*
X8465301Y-16366008D02*
X8484348Y-16356484D01*
X8646253Y-16556484D02*
X8684348Y-16556484D01*
X8684348Y-16556484D02*
X8703396Y-16546960D01*
X8703396Y-16546960D02*
X8712920Y-16537436D01*
X8712920Y-16537436D02*
X8731968Y-16508865D01*
X8731968Y-16508865D02*
X8741491Y-16470769D01*
X8741491Y-16470769D02*
X8741491Y-16394579D01*
X8741491Y-16394579D02*
X8731968Y-16375531D01*
X8731968Y-16375531D02*
X8722444Y-16366008D01*
X8722444Y-16366008D02*
X8703396Y-16356484D01*
X8703396Y-16356484D02*
X8665301Y-16356484D01*
X8665301Y-16356484D02*
X8646253Y-16366008D01*
X8646253Y-16366008D02*
X8636729Y-16375531D01*
X8636729Y-16375531D02*
X8627206Y-16394579D01*
X8627206Y-16394579D02*
X8627206Y-16442198D01*
X8627206Y-16442198D02*
X8636729Y-16461246D01*
X8636729Y-16461246D02*
X8646253Y-16470769D01*
X8646253Y-16470769D02*
X8665301Y-16480293D01*
X8665301Y-16480293D02*
X8703396Y-16480293D01*
X8703396Y-16480293D02*
X8722444Y-16470769D01*
X8722444Y-16470769D02*
X8731968Y-16461246D01*
X8731968Y-16461246D02*
X8741491Y-16442198D01*
X8865301Y-16356484D02*
X8884349Y-16356484D01*
X8884349Y-16356484D02*
X8903396Y-16366008D01*
X8903396Y-16366008D02*
X8912920Y-16375531D01*
X8912920Y-16375531D02*
X8922444Y-16394579D01*
X8922444Y-16394579D02*
X8931968Y-16432674D01*
X8931968Y-16432674D02*
X8931968Y-16480293D01*
X8931968Y-16480293D02*
X8922444Y-16518388D01*
X8922444Y-16518388D02*
X8912920Y-16537436D01*
X8912920Y-16537436D02*
X8903396Y-16546960D01*
X8903396Y-16546960D02*
X8884349Y-16556484D01*
X8884349Y-16556484D02*
X8865301Y-16556484D01*
X8865301Y-16556484D02*
X8846253Y-16546960D01*
X8846253Y-16546960D02*
X8836729Y-16537436D01*
X8836729Y-16537436D02*
X8827206Y-16518388D01*
X8827206Y-16518388D02*
X8817682Y-16480293D01*
X8817682Y-16480293D02*
X8817682Y-16432674D01*
X8817682Y-16432674D02*
X8827206Y-16394579D01*
X8827206Y-16394579D02*
X8836729Y-16375531D01*
X8836729Y-16375531D02*
X8846253Y-16366008D01*
X8846253Y-16366008D02*
X8865301Y-16356484D01*
X9103396Y-16356484D02*
X9065301Y-16356484D01*
X9065301Y-16356484D02*
X9046253Y-16366008D01*
X9046253Y-16366008D02*
X9036729Y-16375531D01*
X9036729Y-16375531D02*
X9017682Y-16404103D01*
X9017682Y-16404103D02*
X9008158Y-16442198D01*
X9008158Y-16442198D02*
X9008158Y-16518388D01*
X9008158Y-16518388D02*
X9017682Y-16537436D01*
X9017682Y-16537436D02*
X9027206Y-16546960D01*
X9027206Y-16546960D02*
X9046253Y-16556484D01*
X9046253Y-16556484D02*
X9084349Y-16556484D01*
X9084349Y-16556484D02*
X9103396Y-16546960D01*
X9103396Y-16546960D02*
X9112920Y-16537436D01*
X9112920Y-16537436D02*
X9122444Y-16518388D01*
X9122444Y-16518388D02*
X9122444Y-16470769D01*
X9122444Y-16470769D02*
X9112920Y-16451722D01*
X9112920Y-16451722D02*
X9103396Y-16442198D01*
X9103396Y-16442198D02*
X9084349Y-16432674D01*
X9084349Y-16432674D02*
X9046253Y-16432674D01*
X9046253Y-16432674D02*
X9027206Y-16442198D01*
X9027206Y-16442198D02*
X9017682Y-16451722D01*
X9017682Y-16451722D02*
X9008158Y-16470769D01*
X9198634Y-16356484D02*
X9198634Y-16394579D01*
X9274825Y-16356484D02*
X9274825Y-16394579D01*
X9570063Y-16632674D02*
X9560539Y-16623150D01*
X9560539Y-16623150D02*
X9541491Y-16594579D01*
X9541491Y-16594579D02*
X9531968Y-16575531D01*
X9531968Y-16575531D02*
X9522444Y-16546960D01*
X9522444Y-16546960D02*
X9512920Y-16499341D01*
X9512920Y-16499341D02*
X9512920Y-16461246D01*
X9512920Y-16461246D02*
X9522444Y-16413627D01*
X9522444Y-16413627D02*
X9531968Y-16385055D01*
X9531968Y-16385055D02*
X9541491Y-16366008D01*
X9541491Y-16366008D02*
X9560539Y-16337436D01*
X9560539Y-16337436D02*
X9570063Y-16327912D01*
X9636730Y-16375531D02*
X9646253Y-16366008D01*
X9646253Y-16366008D02*
X9665301Y-16356484D01*
X9665301Y-16356484D02*
X9712920Y-16356484D01*
X9712920Y-16356484D02*
X9731968Y-16366008D01*
X9731968Y-16366008D02*
X9741491Y-16375531D01*
X9741491Y-16375531D02*
X9751015Y-16394579D01*
X9751015Y-16394579D02*
X9751015Y-16413627D01*
X9751015Y-16413627D02*
X9741491Y-16442198D01*
X9741491Y-16442198D02*
X9627206Y-16556484D01*
X9627206Y-16556484D02*
X9751015Y-16556484D01*
X9989111Y-16556484D02*
X9989111Y-16356484D01*
X10074825Y-16556484D02*
X10074825Y-16451722D01*
X10074825Y-16451722D02*
X10065301Y-16432674D01*
X10065301Y-16432674D02*
X10046253Y-16423150D01*
X10046253Y-16423150D02*
X10017682Y-16423150D01*
X10017682Y-16423150D02*
X9998634Y-16432674D01*
X9998634Y-16432674D02*
X9989111Y-16442198D01*
X10198634Y-16556484D02*
X10179587Y-16546960D01*
X10179587Y-16546960D02*
X10170063Y-16537436D01*
X10170063Y-16537436D02*
X10160539Y-16518388D01*
X10160539Y-16518388D02*
X10160539Y-16461246D01*
X10160539Y-16461246D02*
X10170063Y-16442198D01*
X10170063Y-16442198D02*
X10179587Y-16432674D01*
X10179587Y-16432674D02*
X10198634Y-16423150D01*
X10198634Y-16423150D02*
X10227206Y-16423150D01*
X10227206Y-16423150D02*
X10246253Y-16432674D01*
X10246253Y-16432674D02*
X10255777Y-16442198D01*
X10255777Y-16442198D02*
X10265301Y-16461246D01*
X10265301Y-16461246D02*
X10265301Y-16518388D01*
X10265301Y-16518388D02*
X10255777Y-16537436D01*
X10255777Y-16537436D02*
X10246253Y-16546960D01*
X10246253Y-16546960D02*
X10227206Y-16556484D01*
X10227206Y-16556484D02*
X10198634Y-16556484D01*
X10379587Y-16556484D02*
X10360539Y-16546960D01*
X10360539Y-16546960D02*
X10351015Y-16527912D01*
X10351015Y-16527912D02*
X10351015Y-16356484D01*
X10531968Y-16546960D02*
X10512920Y-16556484D01*
X10512920Y-16556484D02*
X10474825Y-16556484D01*
X10474825Y-16556484D02*
X10455777Y-16546960D01*
X10455777Y-16546960D02*
X10446253Y-16527912D01*
X10446253Y-16527912D02*
X10446253Y-16451722D01*
X10446253Y-16451722D02*
X10455777Y-16432674D01*
X10455777Y-16432674D02*
X10474825Y-16423150D01*
X10474825Y-16423150D02*
X10512920Y-16423150D01*
X10512920Y-16423150D02*
X10531968Y-16432674D01*
X10531968Y-16432674D02*
X10541492Y-16451722D01*
X10541492Y-16451722D02*
X10541492Y-16470769D01*
X10541492Y-16470769D02*
X10446253Y-16489817D01*
X10617682Y-16546960D02*
X10636730Y-16556484D01*
X10636730Y-16556484D02*
X10674825Y-16556484D01*
X10674825Y-16556484D02*
X10693873Y-16546960D01*
X10693873Y-16546960D02*
X10703396Y-16527912D01*
X10703396Y-16527912D02*
X10703396Y-16518388D01*
X10703396Y-16518388D02*
X10693873Y-16499341D01*
X10693873Y-16499341D02*
X10674825Y-16489817D01*
X10674825Y-16489817D02*
X10646253Y-16489817D01*
X10646253Y-16489817D02*
X10627206Y-16480293D01*
X10627206Y-16480293D02*
X10617682Y-16461246D01*
X10617682Y-16461246D02*
X10617682Y-16451722D01*
X10617682Y-16451722D02*
X10627206Y-16432674D01*
X10627206Y-16432674D02*
X10646253Y-16423150D01*
X10646253Y-16423150D02*
X10674825Y-16423150D01*
X10674825Y-16423150D02*
X10693873Y-16432674D01*
X10770063Y-16632674D02*
X10779587Y-16623150D01*
X10779587Y-16623150D02*
X10798634Y-16594579D01*
X10798634Y-16594579D02*
X10808158Y-16575531D01*
X10808158Y-16575531D02*
X10817682Y-16546960D01*
X10817682Y-16546960D02*
X10827206Y-16499341D01*
X10827206Y-16499341D02*
X10827206Y-16461246D01*
X10827206Y-16461246D02*
X10817682Y-16413627D01*
X10817682Y-16413627D02*
X10808158Y-16385055D01*
X10808158Y-16385055D02*
X10798634Y-16366008D01*
X10798634Y-16366008D02*
X10779587Y-16337436D01*
X10779587Y-16337436D02*
X10770063Y-16327912D01*
X5795000Y-16685000D02*
X5995000Y-16885000D01*
X5995000Y-16685000D02*
X5795000Y-16885000D01*
X5895000Y-16685000D02*
X5895000Y-16885000D01*
X5795000Y-16785000D02*
X5995000Y-16785000D01*
X6236729Y-16676484D02*
X6360539Y-16676484D01*
X6360539Y-16676484D02*
X6293872Y-16752674D01*
X6293872Y-16752674D02*
X6322443Y-16752674D01*
X6322443Y-16752674D02*
X6341491Y-16762198D01*
X6341491Y-16762198D02*
X6351015Y-16771722D01*
X6351015Y-16771722D02*
X6360539Y-16790770D01*
X6360539Y-16790770D02*
X6360539Y-16838389D01*
X6360539Y-16838389D02*
X6351015Y-16857436D01*
X6351015Y-16857436D02*
X6341491Y-16866960D01*
X6341491Y-16866960D02*
X6322443Y-16876484D01*
X6322443Y-16876484D02*
X6265301Y-16876484D01*
X6265301Y-16876484D02*
X6246253Y-16866960D01*
X6246253Y-16866960D02*
X6236729Y-16857436D01*
X6446253Y-16857436D02*
X6455777Y-16866960D01*
X6455777Y-16866960D02*
X6446253Y-16876484D01*
X6446253Y-16876484D02*
X6436729Y-16866960D01*
X6436729Y-16866960D02*
X6446253Y-16857436D01*
X6446253Y-16857436D02*
X6446253Y-16876484D01*
X6646253Y-16876484D02*
X6531967Y-16876484D01*
X6589110Y-16876484D02*
X6589110Y-16676484D01*
X6589110Y-16676484D02*
X6570062Y-16705055D01*
X6570062Y-16705055D02*
X6551015Y-16724103D01*
X6551015Y-16724103D02*
X6531967Y-16733627D01*
X6760539Y-16762198D02*
X6741491Y-16752674D01*
X6741491Y-16752674D02*
X6731967Y-16743150D01*
X6731967Y-16743150D02*
X6722443Y-16724103D01*
X6722443Y-16724103D02*
X6722443Y-16714579D01*
X6722443Y-16714579D02*
X6731967Y-16695531D01*
X6731967Y-16695531D02*
X6741491Y-16686008D01*
X6741491Y-16686008D02*
X6760539Y-16676484D01*
X6760539Y-16676484D02*
X6798634Y-16676484D01*
X6798634Y-16676484D02*
X6817682Y-16686008D01*
X6817682Y-16686008D02*
X6827205Y-16695531D01*
X6827205Y-16695531D02*
X6836729Y-16714579D01*
X6836729Y-16714579D02*
X6836729Y-16724103D01*
X6836729Y-16724103D02*
X6827205Y-16743150D01*
X6827205Y-16743150D02*
X6817682Y-16752674D01*
X6817682Y-16752674D02*
X6798634Y-16762198D01*
X6798634Y-16762198D02*
X6760539Y-16762198D01*
X6760539Y-16762198D02*
X6741491Y-16771722D01*
X6741491Y-16771722D02*
X6731967Y-16781246D01*
X6731967Y-16781246D02*
X6722443Y-16800293D01*
X6722443Y-16800293D02*
X6722443Y-16838389D01*
X6722443Y-16838389D02*
X6731967Y-16857436D01*
X6731967Y-16857436D02*
X6741491Y-16866960D01*
X6741491Y-16866960D02*
X6760539Y-16876484D01*
X6760539Y-16876484D02*
X6798634Y-16876484D01*
X6798634Y-16876484D02*
X6817682Y-16866960D01*
X6817682Y-16866960D02*
X6827205Y-16857436D01*
X6827205Y-16857436D02*
X6836729Y-16838389D01*
X6836729Y-16838389D02*
X6836729Y-16800293D01*
X6836729Y-16800293D02*
X6827205Y-16781246D01*
X6827205Y-16781246D02*
X6817682Y-16771722D01*
X6817682Y-16771722D02*
X6798634Y-16762198D01*
X6960539Y-16676484D02*
X6979586Y-16676484D01*
X6979586Y-16676484D02*
X6998634Y-16686008D01*
X6998634Y-16686008D02*
X7008158Y-16695531D01*
X7008158Y-16695531D02*
X7017682Y-16714579D01*
X7017682Y-16714579D02*
X7027205Y-16752674D01*
X7027205Y-16752674D02*
X7027205Y-16800293D01*
X7027205Y-16800293D02*
X7017682Y-16838389D01*
X7017682Y-16838389D02*
X7008158Y-16857436D01*
X7008158Y-16857436D02*
X6998634Y-16866960D01*
X6998634Y-16866960D02*
X6979586Y-16876484D01*
X6979586Y-16876484D02*
X6960539Y-16876484D01*
X6960539Y-16876484D02*
X6941491Y-16866960D01*
X6941491Y-16866960D02*
X6931967Y-16857436D01*
X6931967Y-16857436D02*
X6922443Y-16838389D01*
X6922443Y-16838389D02*
X6912920Y-16800293D01*
X6912920Y-16800293D02*
X6912920Y-16752674D01*
X6912920Y-16752674D02*
X6922443Y-16714579D01*
X6922443Y-16714579D02*
X6931967Y-16695531D01*
X6931967Y-16695531D02*
X6941491Y-16686008D01*
X6941491Y-16686008D02*
X6960539Y-16676484D01*
X7112920Y-16876484D02*
X7112920Y-16743150D01*
X7112920Y-16762198D02*
X7122443Y-16752674D01*
X7122443Y-16752674D02*
X7141491Y-16743150D01*
X7141491Y-16743150D02*
X7170063Y-16743150D01*
X7170063Y-16743150D02*
X7189110Y-16752674D01*
X7189110Y-16752674D02*
X7198634Y-16771722D01*
X7198634Y-16771722D02*
X7198634Y-16876484D01*
X7198634Y-16771722D02*
X7208158Y-16752674D01*
X7208158Y-16752674D02*
X7227205Y-16743150D01*
X7227205Y-16743150D02*
X7255777Y-16743150D01*
X7255777Y-16743150D02*
X7274824Y-16752674D01*
X7274824Y-16752674D02*
X7284348Y-16771722D01*
X7284348Y-16771722D02*
X7284348Y-16876484D01*
X7379586Y-16876484D02*
X7379586Y-16743150D01*
X7379586Y-16762198D02*
X7389110Y-16752674D01*
X7389110Y-16752674D02*
X7408158Y-16743150D01*
X7408158Y-16743150D02*
X7436729Y-16743150D01*
X7436729Y-16743150D02*
X7455777Y-16752674D01*
X7455777Y-16752674D02*
X7465301Y-16771722D01*
X7465301Y-16771722D02*
X7465301Y-16876484D01*
X7465301Y-16771722D02*
X7474824Y-16752674D01*
X7474824Y-16752674D02*
X7493872Y-16743150D01*
X7493872Y-16743150D02*
X7522443Y-16743150D01*
X7522443Y-16743150D02*
X7541491Y-16752674D01*
X7541491Y-16752674D02*
X7551015Y-16771722D01*
X7551015Y-16771722D02*
X7551015Y-16876484D01*
X7941491Y-16666960D02*
X7770063Y-16924103D01*
X8198634Y-16676484D02*
X8217682Y-16676484D01*
X8217682Y-16676484D02*
X8236729Y-16686008D01*
X8236729Y-16686008D02*
X8246253Y-16695531D01*
X8246253Y-16695531D02*
X8255777Y-16714579D01*
X8255777Y-16714579D02*
X8265301Y-16752674D01*
X8265301Y-16752674D02*
X8265301Y-16800293D01*
X8265301Y-16800293D02*
X8255777Y-16838389D01*
X8255777Y-16838389D02*
X8246253Y-16857436D01*
X8246253Y-16857436D02*
X8236729Y-16866960D01*
X8236729Y-16866960D02*
X8217682Y-16876484D01*
X8217682Y-16876484D02*
X8198634Y-16876484D01*
X8198634Y-16876484D02*
X8179586Y-16866960D01*
X8179586Y-16866960D02*
X8170063Y-16857436D01*
X8170063Y-16857436D02*
X8160539Y-16838389D01*
X8160539Y-16838389D02*
X8151015Y-16800293D01*
X8151015Y-16800293D02*
X8151015Y-16752674D01*
X8151015Y-16752674D02*
X8160539Y-16714579D01*
X8160539Y-16714579D02*
X8170063Y-16695531D01*
X8170063Y-16695531D02*
X8179586Y-16686008D01*
X8179586Y-16686008D02*
X8198634Y-16676484D01*
X8351015Y-16857436D02*
X8360539Y-16866960D01*
X8360539Y-16866960D02*
X8351015Y-16876484D01*
X8351015Y-16876484D02*
X8341491Y-16866960D01*
X8341491Y-16866960D02*
X8351015Y-16857436D01*
X8351015Y-16857436D02*
X8351015Y-16876484D01*
X8551015Y-16876484D02*
X8436729Y-16876484D01*
X8493872Y-16876484D02*
X8493872Y-16676484D01*
X8493872Y-16676484D02*
X8474825Y-16705055D01*
X8474825Y-16705055D02*
X8455777Y-16724103D01*
X8455777Y-16724103D02*
X8436729Y-16733627D01*
X8627206Y-16695531D02*
X8636729Y-16686008D01*
X8636729Y-16686008D02*
X8655777Y-16676484D01*
X8655777Y-16676484D02*
X8703396Y-16676484D01*
X8703396Y-16676484D02*
X8722444Y-16686008D01*
X8722444Y-16686008D02*
X8731968Y-16695531D01*
X8731968Y-16695531D02*
X8741491Y-16714579D01*
X8741491Y-16714579D02*
X8741491Y-16733627D01*
X8741491Y-16733627D02*
X8731968Y-16762198D01*
X8731968Y-16762198D02*
X8617682Y-16876484D01*
X8617682Y-16876484D02*
X8741491Y-16876484D01*
X8922444Y-16676484D02*
X8827206Y-16676484D01*
X8827206Y-16676484D02*
X8817682Y-16771722D01*
X8817682Y-16771722D02*
X8827206Y-16762198D01*
X8827206Y-16762198D02*
X8846253Y-16752674D01*
X8846253Y-16752674D02*
X8893872Y-16752674D01*
X8893872Y-16752674D02*
X8912920Y-16762198D01*
X8912920Y-16762198D02*
X8922444Y-16771722D01*
X8922444Y-16771722D02*
X8931968Y-16790770D01*
X8931968Y-16790770D02*
X8931968Y-16838389D01*
X8931968Y-16838389D02*
X8922444Y-16857436D01*
X8922444Y-16857436D02*
X8912920Y-16866960D01*
X8912920Y-16866960D02*
X8893872Y-16876484D01*
X8893872Y-16876484D02*
X8846253Y-16876484D01*
X8846253Y-16876484D02*
X8827206Y-16866960D01*
X8827206Y-16866960D02*
X8817682Y-16857436D01*
X9008158Y-16695531D02*
X9017682Y-16686008D01*
X9017682Y-16686008D02*
X9036729Y-16676484D01*
X9036729Y-16676484D02*
X9084349Y-16676484D01*
X9084349Y-16676484D02*
X9103396Y-16686008D01*
X9103396Y-16686008D02*
X9112920Y-16695531D01*
X9112920Y-16695531D02*
X9122444Y-16714579D01*
X9122444Y-16714579D02*
X9122444Y-16733627D01*
X9122444Y-16733627D02*
X9112920Y-16762198D01*
X9112920Y-16762198D02*
X8998634Y-16876484D01*
X8998634Y-16876484D02*
X9122444Y-16876484D01*
X9198634Y-16676484D02*
X9198634Y-16714579D01*
X9274825Y-16676484D02*
X9274825Y-16714579D01*
X9570063Y-16952674D02*
X9560539Y-16943150D01*
X9560539Y-16943150D02*
X9541491Y-16914579D01*
X9541491Y-16914579D02*
X9531968Y-16895531D01*
X9531968Y-16895531D02*
X9522444Y-16866960D01*
X9522444Y-16866960D02*
X9512920Y-16819341D01*
X9512920Y-16819341D02*
X9512920Y-16781246D01*
X9512920Y-16781246D02*
X9522444Y-16733627D01*
X9522444Y-16733627D02*
X9531968Y-16705055D01*
X9531968Y-16705055D02*
X9541491Y-16686008D01*
X9541491Y-16686008D02*
X9560539Y-16657436D01*
X9560539Y-16657436D02*
X9570063Y-16647912D01*
X9636730Y-16695531D02*
X9646253Y-16686008D01*
X9646253Y-16686008D02*
X9665301Y-16676484D01*
X9665301Y-16676484D02*
X9712920Y-16676484D01*
X9712920Y-16676484D02*
X9731968Y-16686008D01*
X9731968Y-16686008D02*
X9741491Y-16695531D01*
X9741491Y-16695531D02*
X9751015Y-16714579D01*
X9751015Y-16714579D02*
X9751015Y-16733627D01*
X9751015Y-16733627D02*
X9741491Y-16762198D01*
X9741491Y-16762198D02*
X9627206Y-16876484D01*
X9627206Y-16876484D02*
X9751015Y-16876484D01*
X9989111Y-16876484D02*
X9989111Y-16676484D01*
X10074825Y-16876484D02*
X10074825Y-16771722D01*
X10074825Y-16771722D02*
X10065301Y-16752674D01*
X10065301Y-16752674D02*
X10046253Y-16743150D01*
X10046253Y-16743150D02*
X10017682Y-16743150D01*
X10017682Y-16743150D02*
X9998634Y-16752674D01*
X9998634Y-16752674D02*
X9989111Y-16762198D01*
X10198634Y-16876484D02*
X10179587Y-16866960D01*
X10179587Y-16866960D02*
X10170063Y-16857436D01*
X10170063Y-16857436D02*
X10160539Y-16838389D01*
X10160539Y-16838389D02*
X10160539Y-16781246D01*
X10160539Y-16781246D02*
X10170063Y-16762198D01*
X10170063Y-16762198D02*
X10179587Y-16752674D01*
X10179587Y-16752674D02*
X10198634Y-16743150D01*
X10198634Y-16743150D02*
X10227206Y-16743150D01*
X10227206Y-16743150D02*
X10246253Y-16752674D01*
X10246253Y-16752674D02*
X10255777Y-16762198D01*
X10255777Y-16762198D02*
X10265301Y-16781246D01*
X10265301Y-16781246D02*
X10265301Y-16838389D01*
X10265301Y-16838389D02*
X10255777Y-16857436D01*
X10255777Y-16857436D02*
X10246253Y-16866960D01*
X10246253Y-16866960D02*
X10227206Y-16876484D01*
X10227206Y-16876484D02*
X10198634Y-16876484D01*
X10379587Y-16876484D02*
X10360539Y-16866960D01*
X10360539Y-16866960D02*
X10351015Y-16847912D01*
X10351015Y-16847912D02*
X10351015Y-16676484D01*
X10531968Y-16866960D02*
X10512920Y-16876484D01*
X10512920Y-16876484D02*
X10474825Y-16876484D01*
X10474825Y-16876484D02*
X10455777Y-16866960D01*
X10455777Y-16866960D02*
X10446253Y-16847912D01*
X10446253Y-16847912D02*
X10446253Y-16771722D01*
X10446253Y-16771722D02*
X10455777Y-16752674D01*
X10455777Y-16752674D02*
X10474825Y-16743150D01*
X10474825Y-16743150D02*
X10512920Y-16743150D01*
X10512920Y-16743150D02*
X10531968Y-16752674D01*
X10531968Y-16752674D02*
X10541492Y-16771722D01*
X10541492Y-16771722D02*
X10541492Y-16790770D01*
X10541492Y-16790770D02*
X10446253Y-16809817D01*
X10617682Y-16866960D02*
X10636730Y-16876484D01*
X10636730Y-16876484D02*
X10674825Y-16876484D01*
X10674825Y-16876484D02*
X10693873Y-16866960D01*
X10693873Y-16866960D02*
X10703396Y-16847912D01*
X10703396Y-16847912D02*
X10703396Y-16838389D01*
X10703396Y-16838389D02*
X10693873Y-16819341D01*
X10693873Y-16819341D02*
X10674825Y-16809817D01*
X10674825Y-16809817D02*
X10646253Y-16809817D01*
X10646253Y-16809817D02*
X10627206Y-16800293D01*
X10627206Y-16800293D02*
X10617682Y-16781246D01*
X10617682Y-16781246D02*
X10617682Y-16771722D01*
X10617682Y-16771722D02*
X10627206Y-16752674D01*
X10627206Y-16752674D02*
X10646253Y-16743150D01*
X10646253Y-16743150D02*
X10674825Y-16743150D01*
X10674825Y-16743150D02*
X10693873Y-16752674D01*
X10770063Y-16952674D02*
X10779587Y-16943150D01*
X10779587Y-16943150D02*
X10798634Y-16914579D01*
X10798634Y-16914579D02*
X10808158Y-16895531D01*
X10808158Y-16895531D02*
X10817682Y-16866960D01*
X10817682Y-16866960D02*
X10827206Y-16819341D01*
X10827206Y-16819341D02*
X10827206Y-16781246D01*
X10827206Y-16781246D02*
X10817682Y-16733627D01*
X10817682Y-16733627D02*
X10808158Y-16705055D01*
X10808158Y-16705055D02*
X10798634Y-16686008D01*
X10798634Y-16686008D02*
X10779587Y-16657436D01*
X10779587Y-16657436D02*
X10770063Y-16647912D01*
X5795000Y-17005000D02*
X5995000Y-17205000D01*
X5995000Y-17005000D02*
X5795000Y-17205000D01*
X5965711Y-17175711D02*
X5965711Y-17034289D01*
X5824289Y-17034289D01*
X5824289Y-17175711D01*
X5965711Y-17175711D01*
X6236729Y-16996484D02*
X6360539Y-16996484D01*
X6360539Y-16996484D02*
X6293872Y-17072674D01*
X6293872Y-17072674D02*
X6322443Y-17072674D01*
X6322443Y-17072674D02*
X6341491Y-17082198D01*
X6341491Y-17082198D02*
X6351015Y-17091722D01*
X6351015Y-17091722D02*
X6360539Y-17110770D01*
X6360539Y-17110770D02*
X6360539Y-17158389D01*
X6360539Y-17158389D02*
X6351015Y-17177436D01*
X6351015Y-17177436D02*
X6341491Y-17186960D01*
X6341491Y-17186960D02*
X6322443Y-17196484D01*
X6322443Y-17196484D02*
X6265301Y-17196484D01*
X6265301Y-17196484D02*
X6246253Y-17186960D01*
X6246253Y-17186960D02*
X6236729Y-17177436D01*
X6446253Y-17177436D02*
X6455777Y-17186960D01*
X6455777Y-17186960D02*
X6446253Y-17196484D01*
X6446253Y-17196484D02*
X6436729Y-17186960D01*
X6436729Y-17186960D02*
X6446253Y-17177436D01*
X6446253Y-17177436D02*
X6446253Y-17196484D01*
X6531967Y-17015531D02*
X6541491Y-17006008D01*
X6541491Y-17006008D02*
X6560539Y-16996484D01*
X6560539Y-16996484D02*
X6608158Y-16996484D01*
X6608158Y-16996484D02*
X6627205Y-17006008D01*
X6627205Y-17006008D02*
X6636729Y-17015531D01*
X6636729Y-17015531D02*
X6646253Y-17034579D01*
X6646253Y-17034579D02*
X6646253Y-17053627D01*
X6646253Y-17053627D02*
X6636729Y-17082198D01*
X6636729Y-17082198D02*
X6522443Y-17196484D01*
X6522443Y-17196484D02*
X6646253Y-17196484D01*
X6770062Y-16996484D02*
X6789110Y-16996484D01*
X6789110Y-16996484D02*
X6808158Y-17006008D01*
X6808158Y-17006008D02*
X6817682Y-17015531D01*
X6817682Y-17015531D02*
X6827205Y-17034579D01*
X6827205Y-17034579D02*
X6836729Y-17072674D01*
X6836729Y-17072674D02*
X6836729Y-17120293D01*
X6836729Y-17120293D02*
X6827205Y-17158389D01*
X6827205Y-17158389D02*
X6817682Y-17177436D01*
X6817682Y-17177436D02*
X6808158Y-17186960D01*
X6808158Y-17186960D02*
X6789110Y-17196484D01*
X6789110Y-17196484D02*
X6770062Y-17196484D01*
X6770062Y-17196484D02*
X6751015Y-17186960D01*
X6751015Y-17186960D02*
X6741491Y-17177436D01*
X6741491Y-17177436D02*
X6731967Y-17158389D01*
X6731967Y-17158389D02*
X6722443Y-17120293D01*
X6722443Y-17120293D02*
X6722443Y-17072674D01*
X6722443Y-17072674D02*
X6731967Y-17034579D01*
X6731967Y-17034579D02*
X6741491Y-17015531D01*
X6741491Y-17015531D02*
X6751015Y-17006008D01*
X6751015Y-17006008D02*
X6770062Y-16996484D01*
X6960539Y-16996484D02*
X6979586Y-16996484D01*
X6979586Y-16996484D02*
X6998634Y-17006008D01*
X6998634Y-17006008D02*
X7008158Y-17015531D01*
X7008158Y-17015531D02*
X7017682Y-17034579D01*
X7017682Y-17034579D02*
X7027205Y-17072674D01*
X7027205Y-17072674D02*
X7027205Y-17120293D01*
X7027205Y-17120293D02*
X7017682Y-17158389D01*
X7017682Y-17158389D02*
X7008158Y-17177436D01*
X7008158Y-17177436D02*
X6998634Y-17186960D01*
X6998634Y-17186960D02*
X6979586Y-17196484D01*
X6979586Y-17196484D02*
X6960539Y-17196484D01*
X6960539Y-17196484D02*
X6941491Y-17186960D01*
X6941491Y-17186960D02*
X6931967Y-17177436D01*
X6931967Y-17177436D02*
X6922443Y-17158389D01*
X6922443Y-17158389D02*
X6912920Y-17120293D01*
X6912920Y-17120293D02*
X6912920Y-17072674D01*
X6912920Y-17072674D02*
X6922443Y-17034579D01*
X6922443Y-17034579D02*
X6931967Y-17015531D01*
X6931967Y-17015531D02*
X6941491Y-17006008D01*
X6941491Y-17006008D02*
X6960539Y-16996484D01*
X7112920Y-17196484D02*
X7112920Y-17063150D01*
X7112920Y-17082198D02*
X7122443Y-17072674D01*
X7122443Y-17072674D02*
X7141491Y-17063150D01*
X7141491Y-17063150D02*
X7170063Y-17063150D01*
X7170063Y-17063150D02*
X7189110Y-17072674D01*
X7189110Y-17072674D02*
X7198634Y-17091722D01*
X7198634Y-17091722D02*
X7198634Y-17196484D01*
X7198634Y-17091722D02*
X7208158Y-17072674D01*
X7208158Y-17072674D02*
X7227205Y-17063150D01*
X7227205Y-17063150D02*
X7255777Y-17063150D01*
X7255777Y-17063150D02*
X7274824Y-17072674D01*
X7274824Y-17072674D02*
X7284348Y-17091722D01*
X7284348Y-17091722D02*
X7284348Y-17196484D01*
X7379586Y-17196484D02*
X7379586Y-17063150D01*
X7379586Y-17082198D02*
X7389110Y-17072674D01*
X7389110Y-17072674D02*
X7408158Y-17063150D01*
X7408158Y-17063150D02*
X7436729Y-17063150D01*
X7436729Y-17063150D02*
X7455777Y-17072674D01*
X7455777Y-17072674D02*
X7465301Y-17091722D01*
X7465301Y-17091722D02*
X7465301Y-17196484D01*
X7465301Y-17091722D02*
X7474824Y-17072674D01*
X7474824Y-17072674D02*
X7493872Y-17063150D01*
X7493872Y-17063150D02*
X7522443Y-17063150D01*
X7522443Y-17063150D02*
X7541491Y-17072674D01*
X7541491Y-17072674D02*
X7551015Y-17091722D01*
X7551015Y-17091722D02*
X7551015Y-17196484D01*
X7941491Y-16986960D02*
X7770063Y-17244103D01*
X8198634Y-16996484D02*
X8217682Y-16996484D01*
X8217682Y-16996484D02*
X8236729Y-17006008D01*
X8236729Y-17006008D02*
X8246253Y-17015531D01*
X8246253Y-17015531D02*
X8255777Y-17034579D01*
X8255777Y-17034579D02*
X8265301Y-17072674D01*
X8265301Y-17072674D02*
X8265301Y-17120293D01*
X8265301Y-17120293D02*
X8255777Y-17158389D01*
X8255777Y-17158389D02*
X8246253Y-17177436D01*
X8246253Y-17177436D02*
X8236729Y-17186960D01*
X8236729Y-17186960D02*
X8217682Y-17196484D01*
X8217682Y-17196484D02*
X8198634Y-17196484D01*
X8198634Y-17196484D02*
X8179586Y-17186960D01*
X8179586Y-17186960D02*
X8170063Y-17177436D01*
X8170063Y-17177436D02*
X8160539Y-17158389D01*
X8160539Y-17158389D02*
X8151015Y-17120293D01*
X8151015Y-17120293D02*
X8151015Y-17072674D01*
X8151015Y-17072674D02*
X8160539Y-17034579D01*
X8160539Y-17034579D02*
X8170063Y-17015531D01*
X8170063Y-17015531D02*
X8179586Y-17006008D01*
X8179586Y-17006008D02*
X8198634Y-16996484D01*
X8351015Y-17177436D02*
X8360539Y-17186960D01*
X8360539Y-17186960D02*
X8351015Y-17196484D01*
X8351015Y-17196484D02*
X8341491Y-17186960D01*
X8341491Y-17186960D02*
X8351015Y-17177436D01*
X8351015Y-17177436D02*
X8351015Y-17196484D01*
X8551015Y-17196484D02*
X8436729Y-17196484D01*
X8493872Y-17196484D02*
X8493872Y-16996484D01*
X8493872Y-16996484D02*
X8474825Y-17025055D01*
X8474825Y-17025055D02*
X8455777Y-17044103D01*
X8455777Y-17044103D02*
X8436729Y-17053627D01*
X8627206Y-17015531D02*
X8636729Y-17006008D01*
X8636729Y-17006008D02*
X8655777Y-16996484D01*
X8655777Y-16996484D02*
X8703396Y-16996484D01*
X8703396Y-16996484D02*
X8722444Y-17006008D01*
X8722444Y-17006008D02*
X8731968Y-17015531D01*
X8731968Y-17015531D02*
X8741491Y-17034579D01*
X8741491Y-17034579D02*
X8741491Y-17053627D01*
X8741491Y-17053627D02*
X8731968Y-17082198D01*
X8731968Y-17082198D02*
X8617682Y-17196484D01*
X8617682Y-17196484D02*
X8741491Y-17196484D01*
X8912920Y-16996484D02*
X8874825Y-16996484D01*
X8874825Y-16996484D02*
X8855777Y-17006008D01*
X8855777Y-17006008D02*
X8846253Y-17015531D01*
X8846253Y-17015531D02*
X8827206Y-17044103D01*
X8827206Y-17044103D02*
X8817682Y-17082198D01*
X8817682Y-17082198D02*
X8817682Y-17158389D01*
X8817682Y-17158389D02*
X8827206Y-17177436D01*
X8827206Y-17177436D02*
X8836729Y-17186960D01*
X8836729Y-17186960D02*
X8855777Y-17196484D01*
X8855777Y-17196484D02*
X8893872Y-17196484D01*
X8893872Y-17196484D02*
X8912920Y-17186960D01*
X8912920Y-17186960D02*
X8922444Y-17177436D01*
X8922444Y-17177436D02*
X8931968Y-17158389D01*
X8931968Y-17158389D02*
X8931968Y-17110770D01*
X8931968Y-17110770D02*
X8922444Y-17091722D01*
X8922444Y-17091722D02*
X8912920Y-17082198D01*
X8912920Y-17082198D02*
X8893872Y-17072674D01*
X8893872Y-17072674D02*
X8855777Y-17072674D01*
X8855777Y-17072674D02*
X8836729Y-17082198D01*
X8836729Y-17082198D02*
X8827206Y-17091722D01*
X8827206Y-17091722D02*
X8817682Y-17110770D01*
X9055777Y-16996484D02*
X9074825Y-16996484D01*
X9074825Y-16996484D02*
X9093872Y-17006008D01*
X9093872Y-17006008D02*
X9103396Y-17015531D01*
X9103396Y-17015531D02*
X9112920Y-17034579D01*
X9112920Y-17034579D02*
X9122444Y-17072674D01*
X9122444Y-17072674D02*
X9122444Y-17120293D01*
X9122444Y-17120293D02*
X9112920Y-17158389D01*
X9112920Y-17158389D02*
X9103396Y-17177436D01*
X9103396Y-17177436D02*
X9093872Y-17186960D01*
X9093872Y-17186960D02*
X9074825Y-17196484D01*
X9074825Y-17196484D02*
X9055777Y-17196484D01*
X9055777Y-17196484D02*
X9036729Y-17186960D01*
X9036729Y-17186960D02*
X9027206Y-17177436D01*
X9027206Y-17177436D02*
X9017682Y-17158389D01*
X9017682Y-17158389D02*
X9008158Y-17120293D01*
X9008158Y-17120293D02*
X9008158Y-17072674D01*
X9008158Y-17072674D02*
X9017682Y-17034579D01*
X9017682Y-17034579D02*
X9027206Y-17015531D01*
X9027206Y-17015531D02*
X9036729Y-17006008D01*
X9036729Y-17006008D02*
X9055777Y-16996484D01*
X9198634Y-16996484D02*
X9198634Y-17034579D01*
X9274825Y-16996484D02*
X9274825Y-17034579D01*
X9570063Y-17272674D02*
X9560539Y-17263150D01*
X9560539Y-17263150D02*
X9541491Y-17234579D01*
X9541491Y-17234579D02*
X9531968Y-17215531D01*
X9531968Y-17215531D02*
X9522444Y-17186960D01*
X9522444Y-17186960D02*
X9512920Y-17139341D01*
X9512920Y-17139341D02*
X9512920Y-17101246D01*
X9512920Y-17101246D02*
X9522444Y-17053627D01*
X9522444Y-17053627D02*
X9531968Y-17025055D01*
X9531968Y-17025055D02*
X9541491Y-17006008D01*
X9541491Y-17006008D02*
X9560539Y-16977436D01*
X9560539Y-16977436D02*
X9570063Y-16967912D01*
X9731968Y-17063150D02*
X9731968Y-17196484D01*
X9684349Y-16986960D02*
X9636730Y-17129817D01*
X9636730Y-17129817D02*
X9760539Y-17129817D01*
X9989111Y-17196484D02*
X9989111Y-16996484D01*
X10074825Y-17196484D02*
X10074825Y-17091722D01*
X10074825Y-17091722D02*
X10065301Y-17072674D01*
X10065301Y-17072674D02*
X10046253Y-17063150D01*
X10046253Y-17063150D02*
X10017682Y-17063150D01*
X10017682Y-17063150D02*
X9998634Y-17072674D01*
X9998634Y-17072674D02*
X9989111Y-17082198D01*
X10198634Y-17196484D02*
X10179587Y-17186960D01*
X10179587Y-17186960D02*
X10170063Y-17177436D01*
X10170063Y-17177436D02*
X10160539Y-17158389D01*
X10160539Y-17158389D02*
X10160539Y-17101246D01*
X10160539Y-17101246D02*
X10170063Y-17082198D01*
X10170063Y-17082198D02*
X10179587Y-17072674D01*
X10179587Y-17072674D02*
X10198634Y-17063150D01*
X10198634Y-17063150D02*
X10227206Y-17063150D01*
X10227206Y-17063150D02*
X10246253Y-17072674D01*
X10246253Y-17072674D02*
X10255777Y-17082198D01*
X10255777Y-17082198D02*
X10265301Y-17101246D01*
X10265301Y-17101246D02*
X10265301Y-17158389D01*
X10265301Y-17158389D02*
X10255777Y-17177436D01*
X10255777Y-17177436D02*
X10246253Y-17186960D01*
X10246253Y-17186960D02*
X10227206Y-17196484D01*
X10227206Y-17196484D02*
X10198634Y-17196484D01*
X10379587Y-17196484D02*
X10360539Y-17186960D01*
X10360539Y-17186960D02*
X10351015Y-17167912D01*
X10351015Y-17167912D02*
X10351015Y-16996484D01*
X10531968Y-17186960D02*
X10512920Y-17196484D01*
X10512920Y-17196484D02*
X10474825Y-17196484D01*
X10474825Y-17196484D02*
X10455777Y-17186960D01*
X10455777Y-17186960D02*
X10446253Y-17167912D01*
X10446253Y-17167912D02*
X10446253Y-17091722D01*
X10446253Y-17091722D02*
X10455777Y-17072674D01*
X10455777Y-17072674D02*
X10474825Y-17063150D01*
X10474825Y-17063150D02*
X10512920Y-17063150D01*
X10512920Y-17063150D02*
X10531968Y-17072674D01*
X10531968Y-17072674D02*
X10541492Y-17091722D01*
X10541492Y-17091722D02*
X10541492Y-17110770D01*
X10541492Y-17110770D02*
X10446253Y-17129817D01*
X10617682Y-17186960D02*
X10636730Y-17196484D01*
X10636730Y-17196484D02*
X10674825Y-17196484D01*
X10674825Y-17196484D02*
X10693873Y-17186960D01*
X10693873Y-17186960D02*
X10703396Y-17167912D01*
X10703396Y-17167912D02*
X10703396Y-17158389D01*
X10703396Y-17158389D02*
X10693873Y-17139341D01*
X10693873Y-17139341D02*
X10674825Y-17129817D01*
X10674825Y-17129817D02*
X10646253Y-17129817D01*
X10646253Y-17129817D02*
X10627206Y-17120293D01*
X10627206Y-17120293D02*
X10617682Y-17101246D01*
X10617682Y-17101246D02*
X10617682Y-17091722D01*
X10617682Y-17091722D02*
X10627206Y-17072674D01*
X10627206Y-17072674D02*
X10646253Y-17063150D01*
X10646253Y-17063150D02*
X10674825Y-17063150D01*
X10674825Y-17063150D02*
X10693873Y-17072674D01*
X10770063Y-17272674D02*
X10779587Y-17263150D01*
X10779587Y-17263150D02*
X10798634Y-17234579D01*
X10798634Y-17234579D02*
X10808158Y-17215531D01*
X10808158Y-17215531D02*
X10817682Y-17186960D01*
X10817682Y-17186960D02*
X10827206Y-17139341D01*
X10827206Y-17139341D02*
X10827206Y-17101246D01*
X10827206Y-17101246D02*
X10817682Y-17053627D01*
X10817682Y-17053627D02*
X10808158Y-17025055D01*
X10808158Y-17025055D02*
X10798634Y-17006008D01*
X10798634Y-17006008D02*
X10779587Y-16977436D01*
X10779587Y-16977436D02*
X10770063Y-16967912D01*
M02*
