%TF.GenerationSoftware,KiCad,Pcbnew,9.0.0*%
%TF.CreationDate,2025-03-17T19:21:59+01:00*%
%TF.ProjectId,pc1715-esp32vga,70633137-3135-42d6-9573-703332766761,2*%
%TF.SameCoordinates,Original*%
%TF.FileFunction,Soldermask,Top*%
%TF.FilePolarity,Negative*%
%FSLAX46Y46*%
G04 Gerber Fmt 4.6, Leading zero omitted, Abs format (unit mm)*
G04 Created by KiCad (PCBNEW 9.0.0) date 2025-03-17 19:21:59*
%MOMM*%
%LPD*%
G01*
G04 APERTURE LIST*
G04 Aperture macros list*
%AMRoundRect*
0 Rectangle with rounded corners*
0 $1 Rounding radius*
0 $2 $3 $4 $5 $6 $7 $8 $9 X,Y pos of 4 corners*
0 Add a 4 corners polygon primitive as box body*
4,1,4,$2,$3,$4,$5,$6,$7,$8,$9,$2,$3,0*
0 Add four circle primitives for the rounded corners*
1,1,$1+$1,$2,$3*
1,1,$1+$1,$4,$5*
1,1,$1+$1,$6,$7*
1,1,$1+$1,$8,$9*
0 Add four rect primitives between the rounded corners*
20,1,$1+$1,$2,$3,$4,$5,0*
20,1,$1+$1,$4,$5,$6,$7,0*
20,1,$1+$1,$6,$7,$8,$9,0*
20,1,$1+$1,$8,$9,$2,$3,0*%
G04 Aperture macros list end*
%ADD10C,0.650000*%
%ADD11RoundRect,0.150000X0.150000X0.425000X-0.150000X0.425000X-0.150000X-0.425000X0.150000X-0.425000X0*%
%ADD12RoundRect,0.075000X0.075000X0.500000X-0.075000X0.500000X-0.075000X-0.500000X0.075000X-0.500000X0*%
%ADD13O,1.000000X2.100000*%
%ADD14O,1.000000X1.800000*%
%ADD15RoundRect,0.250001X0.924999X-0.499999X0.924999X0.499999X-0.924999X0.499999X-0.924999X-0.499999X0*%
%ADD16RoundRect,0.250000X-0.350000X-0.450000X0.350000X-0.450000X0.350000X0.450000X-0.350000X0.450000X0*%
%ADD17RoundRect,0.225000X-0.225000X-0.375000X0.225000X-0.375000X0.225000X0.375000X-0.225000X0.375000X0*%
%ADD18RoundRect,0.250000X0.450000X-0.350000X0.450000X0.350000X-0.450000X0.350000X-0.450000X-0.350000X0*%
%ADD19RoundRect,0.250000X0.350000X0.450000X-0.350000X0.450000X-0.350000X-0.450000X0.350000X-0.450000X0*%
%ADD20C,5.700000*%
%ADD21RoundRect,0.250000X0.600000X-0.600000X0.600000X0.600000X-0.600000X0.600000X-0.600000X-0.600000X0*%
%ADD22C,1.700000*%
%ADD23RoundRect,0.375000X-0.375000X0.625000X-0.375000X-0.625000X0.375000X-0.625000X0.375000X0.625000X0*%
%ADD24RoundRect,0.500000X-1.400000X0.500000X-1.400000X-0.500000X1.400000X-0.500000X1.400000X0.500000X0*%
%ADD25R,1.600000X1.600000*%
%ADD26C,1.600000*%
%ADD27C,4.000000*%
%ADD28R,1.700000X1.700000*%
%ADD29O,1.700000X1.700000*%
%ADD30R,1.500000X0.900000*%
%ADD31R,0.900000X1.500000*%
%ADD32R,0.900000X0.900000*%
%ADD33C,4.400000*%
%ADD34RoundRect,0.102000X0.892500X0.892500X-0.892500X0.892500X-0.892500X-0.892500X0.892500X-0.892500X0*%
%ADD35C,1.989000*%
%ADD36RoundRect,0.250000X0.450000X-0.325000X0.450000X0.325000X-0.450000X0.325000X-0.450000X-0.325000X0*%
G04 APERTURE END LIST*
D10*
%TO.C,J6*%
X115356000Y-106242000D03*
X109576000Y-106242000D03*
D11*
X115666000Y-107317000D03*
X114866000Y-107317000D03*
D12*
X113716000Y-107317000D03*
X112716000Y-107317000D03*
X112216000Y-107317000D03*
X111216000Y-107317000D03*
D11*
X110066000Y-107317000D03*
X109266000Y-107317000D03*
X109266000Y-107317000D03*
X110066000Y-107317000D03*
D12*
X110716000Y-107317000D03*
X111716000Y-107317000D03*
X113216000Y-107317000D03*
X114216000Y-107317000D03*
D11*
X114866000Y-107317000D03*
X115666000Y-107317000D03*
D13*
X116786000Y-106742000D03*
D14*
X116786000Y-102562000D03*
D13*
X108146000Y-106742000D03*
D14*
X108146000Y-102562000D03*
%TD*%
D15*
%TO.C,C2*%
X123952000Y-105765000D03*
X123952000Y-102515000D03*
%TD*%
D16*
%TO.C,R8*%
X91033600Y-126456400D03*
X93033600Y-126456400D03*
%TD*%
D17*
%TO.C,D6*%
X118746000Y-129133600D03*
X122046000Y-129133600D03*
%TD*%
D16*
%TO.C,R6*%
X91033600Y-124460000D03*
X93033600Y-124460000D03*
%TD*%
D18*
%TO.C,R1*%
X132080000Y-104648000D03*
X132080000Y-102648000D03*
%TD*%
D19*
%TO.C,R9*%
X98653600Y-128437600D03*
X96653600Y-128437600D03*
%TD*%
%TO.C,R13*%
X126288800Y-129136400D03*
X124288800Y-129136400D03*
%TD*%
D20*
%TO.C,H1003*%
X166000000Y-106000000D03*
%TD*%
D21*
%TO.C,J1*%
X109200000Y-137500000D03*
D22*
X109200000Y-134960000D03*
X111740000Y-137500000D03*
X111740000Y-134960000D03*
X114280000Y-137500000D03*
X114280000Y-134960000D03*
X116820000Y-137500000D03*
X116820000Y-134960000D03*
X119360000Y-137500000D03*
X119360000Y-134960000D03*
%TD*%
D17*
%TO.C,D4*%
X118746000Y-124460000D03*
X122046000Y-124460000D03*
%TD*%
D20*
%TO.C,H1001*%
X66000000Y-106000000D03*
%TD*%
D23*
%TO.C,U1*%
X128117600Y-109931200D03*
X125817600Y-109931200D03*
D24*
X125817600Y-116231200D03*
D23*
X123517600Y-109931200D03*
%TD*%
D25*
%TO.C,J3*%
X111214000Y-115445500D03*
D26*
X113714000Y-115445500D03*
X113714000Y-113445500D03*
X111214000Y-113445500D03*
D27*
X106464000Y-110585500D03*
X118464000Y-110585500D03*
%TD*%
D20*
%TO.C,H1002*%
X66000000Y-139000000D03*
%TD*%
D28*
%TO.C,J7*%
X164925000Y-124900000D03*
D29*
X167465000Y-124900000D03*
X164925000Y-127440000D03*
X167465000Y-127440000D03*
X164925000Y-129980000D03*
X167465000Y-129980000D03*
X164925000Y-132520000D03*
X167465000Y-132520000D03*
%TD*%
D30*
%TO.C,U2*%
X140250000Y-101624000D03*
X140250000Y-102894000D03*
X140250000Y-104164000D03*
X140250000Y-105434000D03*
X140250000Y-106704000D03*
X140250000Y-107974000D03*
X140250000Y-109244000D03*
X140250000Y-110514000D03*
X140250000Y-111784000D03*
X140250000Y-113054000D03*
X140250000Y-114324000D03*
X140250000Y-115594000D03*
X140250000Y-116864000D03*
X140250000Y-118134000D03*
D31*
X142015000Y-119384000D03*
X143285000Y-119384000D03*
X144555000Y-119384000D03*
X145825000Y-119384000D03*
X147095000Y-119384000D03*
X148365000Y-119384000D03*
X149635000Y-119384000D03*
X150905000Y-119384000D03*
X152175000Y-119384000D03*
X153445000Y-119384000D03*
X154715000Y-119384000D03*
X155985000Y-119384000D03*
D30*
X157750000Y-118134000D03*
X157750000Y-116864000D03*
X157750000Y-115594000D03*
X157750000Y-114324000D03*
X157750000Y-113054000D03*
X157750000Y-111784000D03*
X157750000Y-110514000D03*
X157750000Y-109244000D03*
X157750000Y-107974000D03*
X157750000Y-106704000D03*
X157750000Y-105434000D03*
X157750000Y-104164000D03*
X157750000Y-102894000D03*
X157750000Y-101624000D03*
D32*
X146100000Y-107944000D03*
X146100000Y-109344000D03*
X146100000Y-110744000D03*
X146100000Y-110744000D03*
X147500000Y-107944000D03*
X147500000Y-107944000D03*
X147500000Y-109344000D03*
X147500000Y-110744000D03*
X148900000Y-107944000D03*
X148900000Y-109344000D03*
X148900000Y-110744000D03*
%TD*%
D19*
%TO.C,R7*%
X98653600Y-126456400D03*
X96653600Y-126456400D03*
%TD*%
D21*
%TO.C,J4*%
X134700000Y-137500000D03*
D22*
X134700000Y-134960000D03*
X137240000Y-137500000D03*
X137240000Y-134960000D03*
X139780000Y-137500000D03*
X139780000Y-134960000D03*
X142320000Y-137500000D03*
X142320000Y-134960000D03*
X144860000Y-137500000D03*
X144860000Y-134960000D03*
%TD*%
D20*
%TO.C,H1004*%
X166000000Y-139000000D03*
%TD*%
D21*
%TO.C,J5*%
X76140000Y-137500000D03*
D22*
X76140000Y-134960000D03*
X78680000Y-137500000D03*
X78680000Y-134960000D03*
X81220000Y-137500000D03*
X81220000Y-134960000D03*
X83760000Y-137500000D03*
X83760000Y-134960000D03*
X86300000Y-137500000D03*
X86300000Y-134960000D03*
X88840000Y-137500000D03*
X88840000Y-134960000D03*
X91380000Y-137500000D03*
X91380000Y-134960000D03*
X93920000Y-137500000D03*
X93920000Y-134960000D03*
%TD*%
D19*
%TO.C,R5*%
X98653600Y-124460000D03*
X96653600Y-124460000D03*
%TD*%
%TO.C,R12*%
X126288800Y-126796800D03*
X124288800Y-126796800D03*
%TD*%
D33*
%TO.C,J2*%
X98500000Y-111500000D03*
X73500000Y-111500000D03*
D34*
X81685000Y-114040000D03*
D35*
X83965000Y-114040000D03*
X86245000Y-114040000D03*
X88525000Y-114040000D03*
X90805000Y-114040000D03*
X80545000Y-111500000D03*
X82825000Y-111500000D03*
X85105000Y-111500000D03*
X87385000Y-111500000D03*
X89665000Y-111500000D03*
X81685000Y-108960000D03*
X83965000Y-108960000D03*
X86245000Y-108960000D03*
X88525000Y-108960000D03*
X90805000Y-108960000D03*
%TD*%
D18*
%TO.C,R4*%
X152695600Y-137245600D03*
X152695600Y-135245600D03*
%TD*%
%TO.C,R3*%
X155295600Y-137245600D03*
X155295600Y-135245600D03*
%TD*%
D16*
%TO.C,R10*%
X91033600Y-128437600D03*
X93033600Y-128437600D03*
%TD*%
D28*
%TO.C,J8*%
X67106800Y-111963200D03*
D29*
X67106800Y-114503200D03*
%TD*%
D28*
%TO.C,JP3*%
X114300000Y-119126000D03*
D29*
X116840000Y-119126000D03*
X119380000Y-119126000D03*
%TD*%
D18*
%TO.C,R2*%
X132090000Y-116521000D03*
X132090000Y-114521000D03*
%TD*%
D19*
%TO.C,R11*%
X126272800Y-124460000D03*
X124272800Y-124460000D03*
%TD*%
D17*
%TO.C,D5*%
X118746000Y-126794000D03*
X122046000Y-126794000D03*
%TD*%
D15*
%TO.C,C1*%
X127458000Y-105765000D03*
X127458000Y-102515000D03*
%TD*%
D36*
%TO.C,D1*%
X132080000Y-111760000D03*
X132080000Y-109710000D03*
%TD*%
D28*
%TO.C,JP1*%
X164825000Y-120300000D03*
D29*
X167365000Y-120300000D03*
%TD*%
M02*
