%TF.GenerationSoftware,KiCad,Pcbnew,8.0.4*%
%TF.CreationDate,2024-08-04T15:04:29+02:00*%
%TF.ProjectId,pc1715-esp32vga,70633137-3135-42d6-9573-703332766761,2*%
%TF.SameCoordinates,Original*%
%TF.FileFunction,Drillmap*%
%TF.FilePolarity,Positive*%
%FSLAX45Y45*%
G04 Gerber Fmt 4.5, Leading zero omitted, Abs format (unit mm)*
G04 Created by KiCad (PCBNEW 8.0.4) date 2024-08-04 15:04:29*
%MOMM*%
%LPD*%
G01*
G04 APERTURE LIST*
%ADD10C,0.100000*%
%ADD11C,0.200000*%
G04 APERTURE END LIST*
D10*
X6000000Y-10000000D02*
X17200000Y-10000000D01*
X17200000Y-13800000D01*
X6000000Y-13800000D01*
X6000000Y-10000000D01*
D11*
D10*
X10925100Y-10591700D02*
X10990100Y-10656700D01*
X10990100Y-10591700D02*
X10925100Y-10656700D01*
X11503100Y-10591700D02*
X11568100Y-10656700D01*
X11568100Y-10591700D02*
X11503100Y-10656700D01*
D11*
X6255777Y-14116484D02*
X6255777Y-13916484D01*
X6255777Y-13916484D02*
X6303396Y-13916484D01*
X6303396Y-13916484D02*
X6331967Y-13926008D01*
X6331967Y-13926008D02*
X6351015Y-13945055D01*
X6351015Y-13945055D02*
X6360539Y-13964103D01*
X6360539Y-13964103D02*
X6370062Y-14002198D01*
X6370062Y-14002198D02*
X6370062Y-14030769D01*
X6370062Y-14030769D02*
X6360539Y-14068865D01*
X6360539Y-14068865D02*
X6351015Y-14087912D01*
X6351015Y-14087912D02*
X6331967Y-14106960D01*
X6331967Y-14106960D02*
X6303396Y-14116484D01*
X6303396Y-14116484D02*
X6255777Y-14116484D01*
X6455777Y-14116484D02*
X6455777Y-13983150D01*
X6455777Y-14021246D02*
X6465301Y-14002198D01*
X6465301Y-14002198D02*
X6474824Y-13992674D01*
X6474824Y-13992674D02*
X6493872Y-13983150D01*
X6493872Y-13983150D02*
X6512920Y-13983150D01*
X6579586Y-14116484D02*
X6579586Y-13983150D01*
X6579586Y-13916484D02*
X6570062Y-13926008D01*
X6570062Y-13926008D02*
X6579586Y-13935531D01*
X6579586Y-13935531D02*
X6589110Y-13926008D01*
X6589110Y-13926008D02*
X6579586Y-13916484D01*
X6579586Y-13916484D02*
X6579586Y-13935531D01*
X6703396Y-14116484D02*
X6684348Y-14106960D01*
X6684348Y-14106960D02*
X6674824Y-14087912D01*
X6674824Y-14087912D02*
X6674824Y-13916484D01*
X6808158Y-14116484D02*
X6789110Y-14106960D01*
X6789110Y-14106960D02*
X6779586Y-14087912D01*
X6779586Y-14087912D02*
X6779586Y-13916484D01*
X7036729Y-14116484D02*
X7036729Y-13916484D01*
X7036729Y-13916484D02*
X7103396Y-14059341D01*
X7103396Y-14059341D02*
X7170062Y-13916484D01*
X7170062Y-13916484D02*
X7170062Y-14116484D01*
X7351015Y-14116484D02*
X7351015Y-14011722D01*
X7351015Y-14011722D02*
X7341491Y-13992674D01*
X7341491Y-13992674D02*
X7322443Y-13983150D01*
X7322443Y-13983150D02*
X7284348Y-13983150D01*
X7284348Y-13983150D02*
X7265301Y-13992674D01*
X7351015Y-14106960D02*
X7331967Y-14116484D01*
X7331967Y-14116484D02*
X7284348Y-14116484D01*
X7284348Y-14116484D02*
X7265301Y-14106960D01*
X7265301Y-14106960D02*
X7255777Y-14087912D01*
X7255777Y-14087912D02*
X7255777Y-14068865D01*
X7255777Y-14068865D02*
X7265301Y-14049817D01*
X7265301Y-14049817D02*
X7284348Y-14040293D01*
X7284348Y-14040293D02*
X7331967Y-14040293D01*
X7331967Y-14040293D02*
X7351015Y-14030769D01*
X7446253Y-13983150D02*
X7446253Y-14183150D01*
X7446253Y-13992674D02*
X7465301Y-13983150D01*
X7465301Y-13983150D02*
X7503396Y-13983150D01*
X7503396Y-13983150D02*
X7522443Y-13992674D01*
X7522443Y-13992674D02*
X7531967Y-14002198D01*
X7531967Y-14002198D02*
X7541491Y-14021246D01*
X7541491Y-14021246D02*
X7541491Y-14078388D01*
X7541491Y-14078388D02*
X7531967Y-14097436D01*
X7531967Y-14097436D02*
X7522443Y-14106960D01*
X7522443Y-14106960D02*
X7503396Y-14116484D01*
X7503396Y-14116484D02*
X7465301Y-14116484D01*
X7465301Y-14116484D02*
X7446253Y-14106960D01*
X7627205Y-14097436D02*
X7636729Y-14106960D01*
X7636729Y-14106960D02*
X7627205Y-14116484D01*
X7627205Y-14116484D02*
X7617682Y-14106960D01*
X7617682Y-14106960D02*
X7627205Y-14097436D01*
X7627205Y-14097436D02*
X7627205Y-14116484D01*
X7627205Y-13992674D02*
X7636729Y-14002198D01*
X7636729Y-14002198D02*
X7627205Y-14011722D01*
X7627205Y-14011722D02*
X7617682Y-14002198D01*
X7617682Y-14002198D02*
X7627205Y-13992674D01*
X7627205Y-13992674D02*
X7627205Y-14011722D01*
D10*
X5930000Y-14412500D02*
X5995000Y-14477500D01*
X5995000Y-14412500D02*
X5930000Y-14477500D01*
D11*
X6293872Y-14336484D02*
X6312920Y-14336484D01*
X6312920Y-14336484D02*
X6331967Y-14346008D01*
X6331967Y-14346008D02*
X6341491Y-14355531D01*
X6341491Y-14355531D02*
X6351015Y-14374579D01*
X6351015Y-14374579D02*
X6360539Y-14412674D01*
X6360539Y-14412674D02*
X6360539Y-14460293D01*
X6360539Y-14460293D02*
X6351015Y-14498388D01*
X6351015Y-14498388D02*
X6341491Y-14517436D01*
X6341491Y-14517436D02*
X6331967Y-14526960D01*
X6331967Y-14526960D02*
X6312920Y-14536484D01*
X6312920Y-14536484D02*
X6293872Y-14536484D01*
X6293872Y-14536484D02*
X6274824Y-14526960D01*
X6274824Y-14526960D02*
X6265301Y-14517436D01*
X6265301Y-14517436D02*
X6255777Y-14498388D01*
X6255777Y-14498388D02*
X6246253Y-14460293D01*
X6246253Y-14460293D02*
X6246253Y-14412674D01*
X6246253Y-14412674D02*
X6255777Y-14374579D01*
X6255777Y-14374579D02*
X6265301Y-14355531D01*
X6265301Y-14355531D02*
X6274824Y-14346008D01*
X6274824Y-14346008D02*
X6293872Y-14336484D01*
X6446253Y-14517436D02*
X6455777Y-14526960D01*
X6455777Y-14526960D02*
X6446253Y-14536484D01*
X6446253Y-14536484D02*
X6436729Y-14526960D01*
X6436729Y-14526960D02*
X6446253Y-14517436D01*
X6446253Y-14517436D02*
X6446253Y-14536484D01*
X6627205Y-14336484D02*
X6589110Y-14336484D01*
X6589110Y-14336484D02*
X6570062Y-14346008D01*
X6570062Y-14346008D02*
X6560539Y-14355531D01*
X6560539Y-14355531D02*
X6541491Y-14384103D01*
X6541491Y-14384103D02*
X6531967Y-14422198D01*
X6531967Y-14422198D02*
X6531967Y-14498388D01*
X6531967Y-14498388D02*
X6541491Y-14517436D01*
X6541491Y-14517436D02*
X6551015Y-14526960D01*
X6551015Y-14526960D02*
X6570062Y-14536484D01*
X6570062Y-14536484D02*
X6608158Y-14536484D01*
X6608158Y-14536484D02*
X6627205Y-14526960D01*
X6627205Y-14526960D02*
X6636729Y-14517436D01*
X6636729Y-14517436D02*
X6646253Y-14498388D01*
X6646253Y-14498388D02*
X6646253Y-14450769D01*
X6646253Y-14450769D02*
X6636729Y-14431722D01*
X6636729Y-14431722D02*
X6627205Y-14422198D01*
X6627205Y-14422198D02*
X6608158Y-14412674D01*
X6608158Y-14412674D02*
X6570062Y-14412674D01*
X6570062Y-14412674D02*
X6551015Y-14422198D01*
X6551015Y-14422198D02*
X6541491Y-14431722D01*
X6541491Y-14431722D02*
X6531967Y-14450769D01*
X6827205Y-14336484D02*
X6731967Y-14336484D01*
X6731967Y-14336484D02*
X6722443Y-14431722D01*
X6722443Y-14431722D02*
X6731967Y-14422198D01*
X6731967Y-14422198D02*
X6751015Y-14412674D01*
X6751015Y-14412674D02*
X6798634Y-14412674D01*
X6798634Y-14412674D02*
X6817682Y-14422198D01*
X6817682Y-14422198D02*
X6827205Y-14431722D01*
X6827205Y-14431722D02*
X6836729Y-14450769D01*
X6836729Y-14450769D02*
X6836729Y-14498388D01*
X6836729Y-14498388D02*
X6827205Y-14517436D01*
X6827205Y-14517436D02*
X6817682Y-14526960D01*
X6817682Y-14526960D02*
X6798634Y-14536484D01*
X6798634Y-14536484D02*
X6751015Y-14536484D01*
X6751015Y-14536484D02*
X6731967Y-14526960D01*
X6731967Y-14526960D02*
X6722443Y-14517436D01*
X6960539Y-14336484D02*
X6979586Y-14336484D01*
X6979586Y-14336484D02*
X6998634Y-14346008D01*
X6998634Y-14346008D02*
X7008158Y-14355531D01*
X7008158Y-14355531D02*
X7017682Y-14374579D01*
X7017682Y-14374579D02*
X7027205Y-14412674D01*
X7027205Y-14412674D02*
X7027205Y-14460293D01*
X7027205Y-14460293D02*
X7017682Y-14498388D01*
X7017682Y-14498388D02*
X7008158Y-14517436D01*
X7008158Y-14517436D02*
X6998634Y-14526960D01*
X6998634Y-14526960D02*
X6979586Y-14536484D01*
X6979586Y-14536484D02*
X6960539Y-14536484D01*
X6960539Y-14536484D02*
X6941491Y-14526960D01*
X6941491Y-14526960D02*
X6931967Y-14517436D01*
X6931967Y-14517436D02*
X6922443Y-14498388D01*
X6922443Y-14498388D02*
X6912920Y-14460293D01*
X6912920Y-14460293D02*
X6912920Y-14412674D01*
X6912920Y-14412674D02*
X6922443Y-14374579D01*
X6922443Y-14374579D02*
X6931967Y-14355531D01*
X6931967Y-14355531D02*
X6941491Y-14346008D01*
X6941491Y-14346008D02*
X6960539Y-14336484D01*
X7112920Y-14536484D02*
X7112920Y-14403150D01*
X7112920Y-14422198D02*
X7122443Y-14412674D01*
X7122443Y-14412674D02*
X7141491Y-14403150D01*
X7141491Y-14403150D02*
X7170063Y-14403150D01*
X7170063Y-14403150D02*
X7189110Y-14412674D01*
X7189110Y-14412674D02*
X7198634Y-14431722D01*
X7198634Y-14431722D02*
X7198634Y-14536484D01*
X7198634Y-14431722D02*
X7208158Y-14412674D01*
X7208158Y-14412674D02*
X7227205Y-14403150D01*
X7227205Y-14403150D02*
X7255777Y-14403150D01*
X7255777Y-14403150D02*
X7274824Y-14412674D01*
X7274824Y-14412674D02*
X7284348Y-14431722D01*
X7284348Y-14431722D02*
X7284348Y-14536484D01*
X7379586Y-14536484D02*
X7379586Y-14403150D01*
X7379586Y-14422198D02*
X7389110Y-14412674D01*
X7389110Y-14412674D02*
X7408158Y-14403150D01*
X7408158Y-14403150D02*
X7436729Y-14403150D01*
X7436729Y-14403150D02*
X7455777Y-14412674D01*
X7455777Y-14412674D02*
X7465301Y-14431722D01*
X7465301Y-14431722D02*
X7465301Y-14536484D01*
X7465301Y-14431722D02*
X7474824Y-14412674D01*
X7474824Y-14412674D02*
X7493872Y-14403150D01*
X7493872Y-14403150D02*
X7522443Y-14403150D01*
X7522443Y-14403150D02*
X7541491Y-14412674D01*
X7541491Y-14412674D02*
X7551015Y-14431722D01*
X7551015Y-14431722D02*
X7551015Y-14536484D01*
X7941491Y-14326960D02*
X7770063Y-14584103D01*
X8198634Y-14336484D02*
X8217682Y-14336484D01*
X8217682Y-14336484D02*
X8236729Y-14346008D01*
X8236729Y-14346008D02*
X8246253Y-14355531D01*
X8246253Y-14355531D02*
X8255777Y-14374579D01*
X8255777Y-14374579D02*
X8265301Y-14412674D01*
X8265301Y-14412674D02*
X8265301Y-14460293D01*
X8265301Y-14460293D02*
X8255777Y-14498388D01*
X8255777Y-14498388D02*
X8246253Y-14517436D01*
X8246253Y-14517436D02*
X8236729Y-14526960D01*
X8236729Y-14526960D02*
X8217682Y-14536484D01*
X8217682Y-14536484D02*
X8198634Y-14536484D01*
X8198634Y-14536484D02*
X8179586Y-14526960D01*
X8179586Y-14526960D02*
X8170063Y-14517436D01*
X8170063Y-14517436D02*
X8160539Y-14498388D01*
X8160539Y-14498388D02*
X8151015Y-14460293D01*
X8151015Y-14460293D02*
X8151015Y-14412674D01*
X8151015Y-14412674D02*
X8160539Y-14374579D01*
X8160539Y-14374579D02*
X8170063Y-14355531D01*
X8170063Y-14355531D02*
X8179586Y-14346008D01*
X8179586Y-14346008D02*
X8198634Y-14336484D01*
X8351015Y-14517436D02*
X8360539Y-14526960D01*
X8360539Y-14526960D02*
X8351015Y-14536484D01*
X8351015Y-14536484D02*
X8341491Y-14526960D01*
X8341491Y-14526960D02*
X8351015Y-14517436D01*
X8351015Y-14517436D02*
X8351015Y-14536484D01*
X8484348Y-14336484D02*
X8503396Y-14336484D01*
X8503396Y-14336484D02*
X8522444Y-14346008D01*
X8522444Y-14346008D02*
X8531968Y-14355531D01*
X8531968Y-14355531D02*
X8541491Y-14374579D01*
X8541491Y-14374579D02*
X8551015Y-14412674D01*
X8551015Y-14412674D02*
X8551015Y-14460293D01*
X8551015Y-14460293D02*
X8541491Y-14498388D01*
X8541491Y-14498388D02*
X8531968Y-14517436D01*
X8531968Y-14517436D02*
X8522444Y-14526960D01*
X8522444Y-14526960D02*
X8503396Y-14536484D01*
X8503396Y-14536484D02*
X8484348Y-14536484D01*
X8484348Y-14536484D02*
X8465301Y-14526960D01*
X8465301Y-14526960D02*
X8455777Y-14517436D01*
X8455777Y-14517436D02*
X8446253Y-14498388D01*
X8446253Y-14498388D02*
X8436729Y-14460293D01*
X8436729Y-14460293D02*
X8436729Y-14412674D01*
X8436729Y-14412674D02*
X8446253Y-14374579D01*
X8446253Y-14374579D02*
X8455777Y-14355531D01*
X8455777Y-14355531D02*
X8465301Y-14346008D01*
X8465301Y-14346008D02*
X8484348Y-14336484D01*
X8627206Y-14355531D02*
X8636729Y-14346008D01*
X8636729Y-14346008D02*
X8655777Y-14336484D01*
X8655777Y-14336484D02*
X8703396Y-14336484D01*
X8703396Y-14336484D02*
X8722444Y-14346008D01*
X8722444Y-14346008D02*
X8731968Y-14355531D01*
X8731968Y-14355531D02*
X8741491Y-14374579D01*
X8741491Y-14374579D02*
X8741491Y-14393627D01*
X8741491Y-14393627D02*
X8731968Y-14422198D01*
X8731968Y-14422198D02*
X8617682Y-14536484D01*
X8617682Y-14536484D02*
X8741491Y-14536484D01*
X8922444Y-14336484D02*
X8827206Y-14336484D01*
X8827206Y-14336484D02*
X8817682Y-14431722D01*
X8817682Y-14431722D02*
X8827206Y-14422198D01*
X8827206Y-14422198D02*
X8846253Y-14412674D01*
X8846253Y-14412674D02*
X8893872Y-14412674D01*
X8893872Y-14412674D02*
X8912920Y-14422198D01*
X8912920Y-14422198D02*
X8922444Y-14431722D01*
X8922444Y-14431722D02*
X8931968Y-14450769D01*
X8931968Y-14450769D02*
X8931968Y-14498388D01*
X8931968Y-14498388D02*
X8922444Y-14517436D01*
X8922444Y-14517436D02*
X8912920Y-14526960D01*
X8912920Y-14526960D02*
X8893872Y-14536484D01*
X8893872Y-14536484D02*
X8846253Y-14536484D01*
X8846253Y-14536484D02*
X8827206Y-14526960D01*
X8827206Y-14526960D02*
X8817682Y-14517436D01*
X9103396Y-14336484D02*
X9065301Y-14336484D01*
X9065301Y-14336484D02*
X9046253Y-14346008D01*
X9046253Y-14346008D02*
X9036729Y-14355531D01*
X9036729Y-14355531D02*
X9017682Y-14384103D01*
X9017682Y-14384103D02*
X9008158Y-14422198D01*
X9008158Y-14422198D02*
X9008158Y-14498388D01*
X9008158Y-14498388D02*
X9017682Y-14517436D01*
X9017682Y-14517436D02*
X9027206Y-14526960D01*
X9027206Y-14526960D02*
X9046253Y-14536484D01*
X9046253Y-14536484D02*
X9084349Y-14536484D01*
X9084349Y-14536484D02*
X9103396Y-14526960D01*
X9103396Y-14526960D02*
X9112920Y-14517436D01*
X9112920Y-14517436D02*
X9122444Y-14498388D01*
X9122444Y-14498388D02*
X9122444Y-14450769D01*
X9122444Y-14450769D02*
X9112920Y-14431722D01*
X9112920Y-14431722D02*
X9103396Y-14422198D01*
X9103396Y-14422198D02*
X9084349Y-14412674D01*
X9084349Y-14412674D02*
X9046253Y-14412674D01*
X9046253Y-14412674D02*
X9027206Y-14422198D01*
X9027206Y-14422198D02*
X9017682Y-14431722D01*
X9017682Y-14431722D02*
X9008158Y-14450769D01*
X9198634Y-14336484D02*
X9198634Y-14374579D01*
X9274825Y-14336484D02*
X9274825Y-14374579D01*
X9570063Y-14612674D02*
X9560539Y-14603150D01*
X9560539Y-14603150D02*
X9541491Y-14574579D01*
X9541491Y-14574579D02*
X9531968Y-14555531D01*
X9531968Y-14555531D02*
X9522444Y-14526960D01*
X9522444Y-14526960D02*
X9512920Y-14479341D01*
X9512920Y-14479341D02*
X9512920Y-14441246D01*
X9512920Y-14441246D02*
X9522444Y-14393627D01*
X9522444Y-14393627D02*
X9531968Y-14365055D01*
X9531968Y-14365055D02*
X9541491Y-14346008D01*
X9541491Y-14346008D02*
X9560539Y-14317436D01*
X9560539Y-14317436D02*
X9570063Y-14307912D01*
X9636730Y-14355531D02*
X9646253Y-14346008D01*
X9646253Y-14346008D02*
X9665301Y-14336484D01*
X9665301Y-14336484D02*
X9712920Y-14336484D01*
X9712920Y-14336484D02*
X9731968Y-14346008D01*
X9731968Y-14346008D02*
X9741491Y-14355531D01*
X9741491Y-14355531D02*
X9751015Y-14374579D01*
X9751015Y-14374579D02*
X9751015Y-14393627D01*
X9751015Y-14393627D02*
X9741491Y-14422198D01*
X9741491Y-14422198D02*
X9627206Y-14536484D01*
X9627206Y-14536484D02*
X9751015Y-14536484D01*
X9989111Y-14536484D02*
X9989111Y-14336484D01*
X10074825Y-14536484D02*
X10074825Y-14431722D01*
X10074825Y-14431722D02*
X10065301Y-14412674D01*
X10065301Y-14412674D02*
X10046253Y-14403150D01*
X10046253Y-14403150D02*
X10017682Y-14403150D01*
X10017682Y-14403150D02*
X9998634Y-14412674D01*
X9998634Y-14412674D02*
X9989111Y-14422198D01*
X10198634Y-14536484D02*
X10179587Y-14526960D01*
X10179587Y-14526960D02*
X10170063Y-14517436D01*
X10170063Y-14517436D02*
X10160539Y-14498388D01*
X10160539Y-14498388D02*
X10160539Y-14441246D01*
X10160539Y-14441246D02*
X10170063Y-14422198D01*
X10170063Y-14422198D02*
X10179587Y-14412674D01*
X10179587Y-14412674D02*
X10198634Y-14403150D01*
X10198634Y-14403150D02*
X10227206Y-14403150D01*
X10227206Y-14403150D02*
X10246253Y-14412674D01*
X10246253Y-14412674D02*
X10255777Y-14422198D01*
X10255777Y-14422198D02*
X10265301Y-14441246D01*
X10265301Y-14441246D02*
X10265301Y-14498388D01*
X10265301Y-14498388D02*
X10255777Y-14517436D01*
X10255777Y-14517436D02*
X10246253Y-14526960D01*
X10246253Y-14526960D02*
X10227206Y-14536484D01*
X10227206Y-14536484D02*
X10198634Y-14536484D01*
X10379587Y-14536484D02*
X10360539Y-14526960D01*
X10360539Y-14526960D02*
X10351015Y-14507912D01*
X10351015Y-14507912D02*
X10351015Y-14336484D01*
X10531968Y-14526960D02*
X10512920Y-14536484D01*
X10512920Y-14536484D02*
X10474825Y-14536484D01*
X10474825Y-14536484D02*
X10455777Y-14526960D01*
X10455777Y-14526960D02*
X10446253Y-14507912D01*
X10446253Y-14507912D02*
X10446253Y-14431722D01*
X10446253Y-14431722D02*
X10455777Y-14412674D01*
X10455777Y-14412674D02*
X10474825Y-14403150D01*
X10474825Y-14403150D02*
X10512920Y-14403150D01*
X10512920Y-14403150D02*
X10531968Y-14412674D01*
X10531968Y-14412674D02*
X10541492Y-14431722D01*
X10541492Y-14431722D02*
X10541492Y-14450769D01*
X10541492Y-14450769D02*
X10446253Y-14469817D01*
X10617682Y-14526960D02*
X10636730Y-14536484D01*
X10636730Y-14536484D02*
X10674825Y-14536484D01*
X10674825Y-14536484D02*
X10693873Y-14526960D01*
X10693873Y-14526960D02*
X10703396Y-14507912D01*
X10703396Y-14507912D02*
X10703396Y-14498388D01*
X10703396Y-14498388D02*
X10693873Y-14479341D01*
X10693873Y-14479341D02*
X10674825Y-14469817D01*
X10674825Y-14469817D02*
X10646253Y-14469817D01*
X10646253Y-14469817D02*
X10627206Y-14460293D01*
X10627206Y-14460293D02*
X10617682Y-14441246D01*
X10617682Y-14441246D02*
X10617682Y-14431722D01*
X10617682Y-14431722D02*
X10627206Y-14412674D01*
X10627206Y-14412674D02*
X10646253Y-14403150D01*
X10646253Y-14403150D02*
X10674825Y-14403150D01*
X10674825Y-14403150D02*
X10693873Y-14412674D01*
X10770063Y-14612674D02*
X10779587Y-14603150D01*
X10779587Y-14603150D02*
X10798634Y-14574579D01*
X10798634Y-14574579D02*
X10808158Y-14555531D01*
X10808158Y-14555531D02*
X10817682Y-14526960D01*
X10817682Y-14526960D02*
X10827206Y-14479341D01*
X10827206Y-14479341D02*
X10827206Y-14441246D01*
X10827206Y-14441246D02*
X10817682Y-14393627D01*
X10817682Y-14393627D02*
X10808158Y-14365055D01*
X10808158Y-14365055D02*
X10798634Y-14346008D01*
X10798634Y-14346008D02*
X10779587Y-14317436D01*
X10779587Y-14317436D02*
X10770063Y-14307912D01*
X11131968Y-14612674D02*
X11122444Y-14603150D01*
X11122444Y-14603150D02*
X11103396Y-14574579D01*
X11103396Y-14574579D02*
X11093873Y-14555531D01*
X11093873Y-14555531D02*
X11084349Y-14526960D01*
X11084349Y-14526960D02*
X11074825Y-14479341D01*
X11074825Y-14479341D02*
X11074825Y-14441246D01*
X11074825Y-14441246D02*
X11084349Y-14393627D01*
X11084349Y-14393627D02*
X11093873Y-14365055D01*
X11093873Y-14365055D02*
X11103396Y-14346008D01*
X11103396Y-14346008D02*
X11122444Y-14317436D01*
X11122444Y-14317436D02*
X11131968Y-14307912D01*
X11208158Y-14403150D02*
X11208158Y-14536484D01*
X11208158Y-14422198D02*
X11217682Y-14412674D01*
X11217682Y-14412674D02*
X11236730Y-14403150D01*
X11236730Y-14403150D02*
X11265301Y-14403150D01*
X11265301Y-14403150D02*
X11284349Y-14412674D01*
X11284349Y-14412674D02*
X11293872Y-14431722D01*
X11293872Y-14431722D02*
X11293872Y-14536484D01*
X11417682Y-14536484D02*
X11398634Y-14526960D01*
X11398634Y-14526960D02*
X11389111Y-14517436D01*
X11389111Y-14517436D02*
X11379587Y-14498388D01*
X11379587Y-14498388D02*
X11379587Y-14441246D01*
X11379587Y-14441246D02*
X11389111Y-14422198D01*
X11389111Y-14422198D02*
X11398634Y-14412674D01*
X11398634Y-14412674D02*
X11417682Y-14403150D01*
X11417682Y-14403150D02*
X11446253Y-14403150D01*
X11446253Y-14403150D02*
X11465301Y-14412674D01*
X11465301Y-14412674D02*
X11474825Y-14422198D01*
X11474825Y-14422198D02*
X11484349Y-14441246D01*
X11484349Y-14441246D02*
X11484349Y-14498388D01*
X11484349Y-14498388D02*
X11474825Y-14517436D01*
X11474825Y-14517436D02*
X11465301Y-14526960D01*
X11465301Y-14526960D02*
X11446253Y-14536484D01*
X11446253Y-14536484D02*
X11417682Y-14536484D01*
X11541492Y-14403150D02*
X11617682Y-14403150D01*
X11570063Y-14336484D02*
X11570063Y-14507912D01*
X11570063Y-14507912D02*
X11579587Y-14526960D01*
X11579587Y-14526960D02*
X11598634Y-14536484D01*
X11598634Y-14536484D02*
X11617682Y-14536484D01*
X11836730Y-14403150D02*
X11836730Y-14603150D01*
X11836730Y-14412674D02*
X11855777Y-14403150D01*
X11855777Y-14403150D02*
X11893873Y-14403150D01*
X11893873Y-14403150D02*
X11912920Y-14412674D01*
X11912920Y-14412674D02*
X11922444Y-14422198D01*
X11922444Y-14422198D02*
X11931968Y-14441246D01*
X11931968Y-14441246D02*
X11931968Y-14498388D01*
X11931968Y-14498388D02*
X11922444Y-14517436D01*
X11922444Y-14517436D02*
X11912920Y-14526960D01*
X11912920Y-14526960D02*
X11893873Y-14536484D01*
X11893873Y-14536484D02*
X11855777Y-14536484D01*
X11855777Y-14536484D02*
X11836730Y-14526960D01*
X12046253Y-14536484D02*
X12027206Y-14526960D01*
X12027206Y-14526960D02*
X12017682Y-14507912D01*
X12017682Y-14507912D02*
X12017682Y-14336484D01*
X12208158Y-14536484D02*
X12208158Y-14431722D01*
X12208158Y-14431722D02*
X12198634Y-14412674D01*
X12198634Y-14412674D02*
X12179587Y-14403150D01*
X12179587Y-14403150D02*
X12141492Y-14403150D01*
X12141492Y-14403150D02*
X12122444Y-14412674D01*
X12208158Y-14526960D02*
X12189111Y-14536484D01*
X12189111Y-14536484D02*
X12141492Y-14536484D01*
X12141492Y-14536484D02*
X12122444Y-14526960D01*
X12122444Y-14526960D02*
X12112920Y-14507912D01*
X12112920Y-14507912D02*
X12112920Y-14488865D01*
X12112920Y-14488865D02*
X12122444Y-14469817D01*
X12122444Y-14469817D02*
X12141492Y-14460293D01*
X12141492Y-14460293D02*
X12189111Y-14460293D01*
X12189111Y-14460293D02*
X12208158Y-14450769D01*
X12274825Y-14403150D02*
X12351015Y-14403150D01*
X12303396Y-14336484D02*
X12303396Y-14507912D01*
X12303396Y-14507912D02*
X12312920Y-14526960D01*
X12312920Y-14526960D02*
X12331968Y-14536484D01*
X12331968Y-14536484D02*
X12351015Y-14536484D01*
X12493873Y-14526960D02*
X12474825Y-14536484D01*
X12474825Y-14536484D02*
X12436730Y-14536484D01*
X12436730Y-14536484D02*
X12417682Y-14526960D01*
X12417682Y-14526960D02*
X12408158Y-14507912D01*
X12408158Y-14507912D02*
X12408158Y-14431722D01*
X12408158Y-14431722D02*
X12417682Y-14412674D01*
X12417682Y-14412674D02*
X12436730Y-14403150D01*
X12436730Y-14403150D02*
X12474825Y-14403150D01*
X12474825Y-14403150D02*
X12493873Y-14412674D01*
X12493873Y-14412674D02*
X12503396Y-14431722D01*
X12503396Y-14431722D02*
X12503396Y-14450769D01*
X12503396Y-14450769D02*
X12408158Y-14469817D01*
X12674825Y-14536484D02*
X12674825Y-14336484D01*
X12674825Y-14526960D02*
X12655777Y-14536484D01*
X12655777Y-14536484D02*
X12617682Y-14536484D01*
X12617682Y-14536484D02*
X12598634Y-14526960D01*
X12598634Y-14526960D02*
X12589111Y-14517436D01*
X12589111Y-14517436D02*
X12579587Y-14498388D01*
X12579587Y-14498388D02*
X12579587Y-14441246D01*
X12579587Y-14441246D02*
X12589111Y-14422198D01*
X12589111Y-14422198D02*
X12598634Y-14412674D01*
X12598634Y-14412674D02*
X12617682Y-14403150D01*
X12617682Y-14403150D02*
X12655777Y-14403150D01*
X12655777Y-14403150D02*
X12674825Y-14412674D01*
X12751015Y-14612674D02*
X12760539Y-14603150D01*
X12760539Y-14603150D02*
X12779587Y-14574579D01*
X12779587Y-14574579D02*
X12789111Y-14555531D01*
X12789111Y-14555531D02*
X12798634Y-14526960D01*
X12798634Y-14526960D02*
X12808158Y-14479341D01*
X12808158Y-14479341D02*
X12808158Y-14441246D01*
X12808158Y-14441246D02*
X12798634Y-14393627D01*
X12798634Y-14393627D02*
X12789111Y-14365055D01*
X12789111Y-14365055D02*
X12779587Y-14346008D01*
X12779587Y-14346008D02*
X12760539Y-14317436D01*
X12760539Y-14317436D02*
X12751015Y-14307912D01*
M02*
