%TF.GenerationSoftware,KiCad,Pcbnew,8.0.4*%
%TF.CreationDate,2024-09-08T16:06:36+02:00*%
%TF.ProjectId,pc1715-esp32vga,70633137-3135-42d6-9573-703332766761,2*%
%TF.SameCoordinates,Original*%
%TF.FileFunction,Copper,L1,Top*%
%TF.FilePolarity,Positive*%
%FSLAX46Y46*%
G04 Gerber Fmt 4.6, Leading zero omitted, Abs format (unit mm)*
G04 Created by KiCad (PCBNEW 8.0.4) date 2024-09-08 16:06:36*
%MOMM*%
%LPD*%
G01*
G04 APERTURE LIST*
G04 Aperture macros list*
%AMRoundRect*
0 Rectangle with rounded corners*
0 $1 Rounding radius*
0 $2 $3 $4 $5 $6 $7 $8 $9 X,Y pos of 4 corners*
0 Add a 4 corners polygon primitive as box body*
4,1,4,$2,$3,$4,$5,$6,$7,$8,$9,$2,$3,0*
0 Add four circle primitives for the rounded corners*
1,1,$1+$1,$2,$3*
1,1,$1+$1,$4,$5*
1,1,$1+$1,$6,$7*
1,1,$1+$1,$8,$9*
0 Add four rect primitives between the rounded corners*
20,1,$1+$1,$2,$3,$4,$5,0*
20,1,$1+$1,$4,$5,$6,$7,0*
20,1,$1+$1,$6,$7,$8,$9,0*
20,1,$1+$1,$8,$9,$2,$3,0*%
G04 Aperture macros list end*
%TA.AperFunction,SMDPad,CuDef*%
%ADD10RoundRect,0.150000X0.150000X0.425000X-0.150000X0.425000X-0.150000X-0.425000X0.150000X-0.425000X0*%
%TD*%
%TA.AperFunction,SMDPad,CuDef*%
%ADD11RoundRect,0.075000X0.075000X0.500000X-0.075000X0.500000X-0.075000X-0.500000X0.075000X-0.500000X0*%
%TD*%
%TA.AperFunction,ComponentPad*%
%ADD12O,1.000000X2.100000*%
%TD*%
%TA.AperFunction,ComponentPad*%
%ADD13O,1.000000X1.800000*%
%TD*%
%TA.AperFunction,SMDPad,CuDef*%
%ADD14RoundRect,0.250001X0.924999X-0.499999X0.924999X0.499999X-0.924999X0.499999X-0.924999X-0.499999X0*%
%TD*%
%TA.AperFunction,SMDPad,CuDef*%
%ADD15RoundRect,0.250000X0.450000X-0.325000X0.450000X0.325000X-0.450000X0.325000X-0.450000X-0.325000X0*%
%TD*%
%TA.AperFunction,ComponentPad*%
%ADD16C,5.700000*%
%TD*%
%TA.AperFunction,ComponentPad*%
%ADD17RoundRect,0.250000X0.600000X-0.600000X0.600000X0.600000X-0.600000X0.600000X-0.600000X-0.600000X0*%
%TD*%
%TA.AperFunction,ComponentPad*%
%ADD18C,1.700000*%
%TD*%
%TA.AperFunction,ComponentPad*%
%ADD19R,1.600000X1.600000*%
%TD*%
%TA.AperFunction,ComponentPad*%
%ADD20C,1.600000*%
%TD*%
%TA.AperFunction,ComponentPad*%
%ADD21C,4.000000*%
%TD*%
%TA.AperFunction,ComponentPad*%
%ADD22R,1.700000X1.700000*%
%TD*%
%TA.AperFunction,ComponentPad*%
%ADD23O,1.700000X1.700000*%
%TD*%
%TA.AperFunction,SMDPad,CuDef*%
%ADD24R,1.500000X0.900000*%
%TD*%
%TA.AperFunction,SMDPad,CuDef*%
%ADD25R,0.900000X1.500000*%
%TD*%
%TA.AperFunction,SMDPad,CuDef*%
%ADD26R,0.900000X0.900000*%
%TD*%
%TA.AperFunction,ComponentPad*%
%ADD27R,1.785000X1.785000*%
%TD*%
%TA.AperFunction,ComponentPad*%
%ADD28C,1.785000*%
%TD*%
%TA.AperFunction,ComponentPad*%
%ADD29C,4.196000*%
%TD*%
%TA.AperFunction,ViaPad*%
%ADD30C,0.800000*%
%TD*%
%TA.AperFunction,Conductor*%
%ADD31C,0.250000*%
%TD*%
%TA.AperFunction,Conductor*%
%ADD32C,0.700000*%
%TD*%
%TA.AperFunction,Conductor*%
%ADD33C,0.500000*%
%TD*%
%TA.AperFunction,Conductor*%
%ADD34C,0.200000*%
%TD*%
G04 APERTURE END LIST*
D10*
%TO.P,J6,A1,GND*%
%TO.N,GND*%
X115666000Y-107317000D03*
%TO.P,J6,A4,VBUS*%
%TO.N,/VBUS*%
X114866000Y-107317000D03*
D11*
%TO.P,J6,A5,CC1*%
%TO.N,unconnected-(J6-CC1-PadA5)*%
X113716000Y-107317000D03*
%TO.P,J6,A6,D+*%
%TO.N,/USB_DP*%
X112716000Y-107317000D03*
%TO.P,J6,A7,D-*%
%TO.N,/USB_DN*%
X112216000Y-107317000D03*
%TO.P,J6,A8,SBU1*%
%TO.N,unconnected-(J6-SBU1-PadA8)*%
X111216000Y-107317000D03*
D10*
%TO.P,J6,A9,VBUS*%
%TO.N,/VBUS*%
X110066000Y-107317000D03*
%TO.P,J6,A12,GND*%
%TO.N,GND*%
X109266000Y-107317000D03*
%TO.P,J6,B1,GND*%
X109266000Y-107317000D03*
%TO.P,J6,B4,VBUS*%
%TO.N,/VBUS*%
X110066000Y-107317000D03*
D11*
%TO.P,J6,B5,CC2*%
%TO.N,unconnected-(J6-CC2-PadB5)*%
X110716000Y-107317000D03*
%TO.P,J6,B6,D+*%
%TO.N,/USB_DP*%
X111716000Y-107317000D03*
%TO.P,J6,B7,D-*%
%TO.N,/USB_DN*%
X113216000Y-107317000D03*
%TO.P,J6,B8,SBU2*%
%TO.N,unconnected-(J6-SBU2-PadB8)*%
X114216000Y-107317000D03*
D10*
%TO.P,J6,B9,VBUS*%
%TO.N,/VBUS*%
X114866000Y-107317000D03*
%TO.P,J6,B12,GND*%
%TO.N,GND*%
X115666000Y-107317000D03*
D12*
%TO.P,J6,S1,SHIELD*%
X116786000Y-106742000D03*
D13*
X116786000Y-102562000D03*
D12*
X108146000Y-106742000D03*
D13*
X108146000Y-102562000D03*
%TD*%
D14*
%TO.P,C2,1*%
%TO.N,+5V*%
X123665000Y-111528000D03*
%TO.P,C2,2*%
%TO.N,GND*%
X123665000Y-108278000D03*
%TD*%
D15*
%TO.P,D2,1,K*%
%TO.N,Net-(D2-K)*%
X131100000Y-117750000D03*
%TO.P,D2,2,A*%
%TO.N,+3.3V*%
X131100000Y-115700000D03*
%TD*%
D16*
%TO.P,H1003,1*%
%TO.N,N/C*%
X166000000Y-106000000D03*
%TD*%
D17*
%TO.P,J1,1,Pin_1*%
%TO.N,/5V_VID*%
X109200000Y-137500000D03*
D18*
%TO.P,J1,2,Pin_2*%
X109200000Y-134960000D03*
%TO.P,J1,3,Pin_3*%
%TO.N,+3.3V*%
X111740000Y-137500000D03*
%TO.P,J1,4,Pin_4*%
%TO.N,/VIDEO*%
X111740000Y-134960000D03*
%TO.P,J1,5,Pin_5*%
%TO.N,GND*%
X114280000Y-137500000D03*
%TO.P,J1,6,Pin_6*%
%TO.N,/INTENS*%
X114280000Y-134960000D03*
%TO.P,J1,7,Pin_7*%
%TO.N,GND*%
X116820000Y-137500000D03*
%TO.P,J1,8,Pin_8*%
X116820000Y-134960000D03*
%TO.P,J1,9,Pin_9*%
X119360000Y-137500000D03*
%TO.P,J1,10,Pin_10*%
%TO.N,/BSYNC*%
X119360000Y-134960000D03*
%TD*%
D16*
%TO.P,H1001,1*%
%TO.N,N/C*%
X66000000Y-106000000D03*
%TD*%
D19*
%TO.P,J3,1,VBUS*%
%TO.N,/VBUS*%
X111214000Y-115445500D03*
D20*
%TO.P,J3,2,D-*%
%TO.N,/USB_DN*%
X113714000Y-115445500D03*
%TO.P,J3,3,D+*%
%TO.N,/USB_DP*%
X113714000Y-113445500D03*
%TO.P,J3,4,GND*%
%TO.N,GND*%
X111214000Y-113445500D03*
D21*
%TO.P,J3,5,Shield*%
X106464000Y-110585500D03*
X118464000Y-110585500D03*
%TD*%
D16*
%TO.P,H1002,1*%
%TO.N,N/C*%
X66000000Y-139000000D03*
%TD*%
D22*
%TO.P,J7,1,Pin_1*%
%TO.N,/TP_SPI*%
X164925000Y-124900000D03*
D23*
%TO.P,J7,2,Pin_2*%
%TO.N,/TP_CPY*%
X167465000Y-124900000D03*
%TO.P,J7,3,Pin_3*%
%TO.N,/TP_11*%
X164925000Y-127440000D03*
%TO.P,J7,4,Pin_4*%
%TO.N,/TP_12*%
X167465000Y-127440000D03*
%TO.P,J7,5,Pin_5*%
%TO.N,/INTENS*%
X164925000Y-129980000D03*
%TO.P,J7,6,Pin_6*%
%TO.N,/VIDEO*%
X167465000Y-129980000D03*
%TO.P,J7,7,Pin_7*%
%TO.N,/BSYNC*%
X164925000Y-132520000D03*
%TO.P,J7,8,Pin_8*%
%TO.N,GND*%
X167465000Y-132520000D03*
%TD*%
D24*
%TO.P,U2,1,GND*%
%TO.N,GND*%
X140250000Y-101624000D03*
%TO.P,U2,2,3V3*%
%TO.N,+3.3V*%
X140250000Y-102894000D03*
%TO.P,U2,3,EN*%
%TO.N,/RST*%
X140250000Y-104164000D03*
%TO.P,U2,4,GPIO4/TOUCH4/ADC1_CH3*%
%TO.N,/B1*%
X140250000Y-105434000D03*
%TO.P,U2,5,GPIO5/TOUCH5/ADC1_CH4*%
%TO.N,/B2*%
X140250000Y-106704000D03*
%TO.P,U2,6,GPIO6/TOUCH6/ADC1_CH5*%
%TO.N,/G1*%
X140250000Y-107974000D03*
%TO.P,U2,7,GPIO7/TOUCH7/ADC1_CH6*%
%TO.N,/G2*%
X140250000Y-109244000D03*
%TO.P,U2,8,GPIO15/U0RTS/ADC2_CH4/XTAL_32K_P*%
%TO.N,/R2*%
X140250000Y-110514000D03*
%TO.P,U2,9,GPIO16/U0CTS/ADC2_CH5/XTAL_32K_N*%
%TO.N,/R1*%
X140250000Y-111784000D03*
%TO.P,U2,10,GPIO17/U1TXD/ADC2_CH6*%
%TO.N,/VSYNC*%
X140250000Y-113054000D03*
%TO.P,U2,11,GPIO18/U1RXD/ADC2_CH7/CLK_OUT3*%
%TO.N,/HSYNC*%
X140250000Y-114324000D03*
%TO.P,U2,12,GPIO8/TOUCH8/ADC1_CH7/SUBSPICS1*%
%TO.N,unconnected-(U2-GPIO8{slash}TOUCH8{slash}ADC1_CH7{slash}SUBSPICS1-Pad12)*%
X140250000Y-115594000D03*
%TO.P,U2,13,GPIO19/U1RTS/ADC2_CH8/CLK_OUT2/USB_D-*%
%TO.N,/USB_DN*%
X140250000Y-116864000D03*
%TO.P,U2,14,GPIO20/U1CTS/ADC2_CH9/CLK_OUT1/USB_D+*%
%TO.N,/USB_DP*%
X140250000Y-118134000D03*
D25*
%TO.P,U2,15,GPIO3/TOUCH3/ADC1_CH2*%
%TO.N,unconnected-(U2-GPIO3{slash}TOUCH3{slash}ADC1_CH2-Pad15)*%
X142015000Y-119384000D03*
%TO.P,U2,16,GPIO46*%
%TO.N,Net-(U2-GPIO46)*%
X143285000Y-119384000D03*
%TO.P,U2,17,GPIO9/TOUCH9/ADC1_CH8/FSPIHD/SUBSPIHD*%
%TO.N,unconnected-(U2-GPIO9{slash}TOUCH9{slash}ADC1_CH8{slash}FSPIHD{slash}SUBSPIHD-Pad17)*%
X144555000Y-119384000D03*
%TO.P,U2,18,GPIO10/TOUCH10/ADC1_CH9/FSPICS0/FSPIIO4/SUBSPICS0*%
%TO.N,unconnected-(U2-GPIO10{slash}TOUCH10{slash}ADC1_CH9{slash}FSPICS0{slash}FSPIIO4{slash}SUBSPICS0-Pad18)*%
X145825000Y-119384000D03*
%TO.P,U2,19,GPIO11/TOUCH11/ADC2_CH0/FSPID/FSPIIO5/SUBSPID*%
%TO.N,/TP_11*%
X147095000Y-119384000D03*
%TO.P,U2,20,GPIO12/TOUCH12/ADC2_CH1/FSPICLK/FSPIIO6/SUBSPICLK*%
%TO.N,/TP_12*%
X148365000Y-119384000D03*
%TO.P,U2,21,GPIO13/TOUCH13/ADC2_CH2/FSPIQ/FSPIIO7/SUBSPIQ*%
%TO.N,/TP_SPI*%
X149635000Y-119384000D03*
%TO.P,U2,22,GPIO14/TOUCH14/ADC2_CH3/FSPIWP/FSPIDQS/SUBSPIWP*%
%TO.N,/TP_CPY*%
X150905000Y-119384000D03*
%TO.P,U2,23,GPIO21*%
%TO.N,/BSYNC*%
X152175000Y-119384000D03*
%TO.P,U2,24,GPIO47/SPICLK_P/SUBSPICLK_P_DIFF*%
%TO.N,/VIDEO*%
X153445000Y-119384000D03*
%TO.P,U2,25,GPIO48/SPICLK_N/SUBSPICLK_N_DIFF*%
%TO.N,/INTENS*%
X154715000Y-119384000D03*
%TO.P,U2,26,GPIO45*%
%TO.N,/BSYNC*%
X155985000Y-119384000D03*
D24*
%TO.P,U2,27,GPIO0/BOOT*%
%TO.N,Net-(JP1-A)*%
X157750000Y-118134000D03*
%TO.P,U2,28,SPIIO6/GPIO35/FSPID/SUBSPID*%
%TO.N,unconnected-(U2-SPIIO6{slash}GPIO35{slash}FSPID{slash}SUBSPID-Pad28)*%
X157750000Y-116864000D03*
%TO.P,U2,29,SPIIO7/GPIO36/FSPICLK/SUBSPICLK*%
%TO.N,unconnected-(U2-SPIIO7{slash}GPIO36{slash}FSPICLK{slash}SUBSPICLK-Pad29)*%
X157750000Y-115594000D03*
%TO.P,U2,30,SPIDQS/GPIO37/FSPIQ/SUBSPIQ*%
%TO.N,unconnected-(U2-SPIDQS{slash}GPIO37{slash}FSPIQ{slash}SUBSPIQ-Pad30)*%
X157750000Y-114324000D03*
%TO.P,U2,31,GPIO38/FSPIWP/SUBSPIWP*%
%TO.N,/K_LEFT*%
X157750000Y-113054000D03*
%TO.P,U2,32,MTCK/GPIO39/CLK_OUT3/SUBSPICS1*%
%TO.N,/K_UP*%
X157750000Y-111784000D03*
%TO.P,U2,33,MTDO/GPIO40/CLK_OUT2*%
%TO.N,/K_DOWN*%
X157750000Y-110514000D03*
%TO.P,U2,34,MTDI/GPIO41/CLK_OUT1*%
%TO.N,/K_RIGHT*%
X157750000Y-109244000D03*
%TO.P,U2,35,MTMS/GPIO42*%
%TO.N,Net-(U2-MTMS{slash}GPIO42)*%
X157750000Y-107974000D03*
%TO.P,U2,36,U0RXD/GPIO44/CLK_OUT2*%
%TO.N,unconnected-(U2-U0RXD{slash}GPIO44{slash}CLK_OUT2-Pad36)*%
X157750000Y-106704000D03*
%TO.P,U2,37,U0TXD/GPIO43/CLK_OUT1*%
%TO.N,unconnected-(U2-U0TXD{slash}GPIO43{slash}CLK_OUT1-Pad37)*%
X157750000Y-105434000D03*
%TO.P,U2,38,GPIO2/TOUCH2/ADC1_CH1*%
%TO.N,unconnected-(U2-GPIO2{slash}TOUCH2{slash}ADC1_CH1-Pad38)*%
X157750000Y-104164000D03*
%TO.P,U2,39,GPIO1/TOUCH1/ADC1_CH0*%
%TO.N,unconnected-(U2-GPIO1{slash}TOUCH1{slash}ADC1_CH0-Pad39)*%
X157750000Y-102894000D03*
%TO.P,U2,40,GND*%
%TO.N,GND*%
X157750000Y-101624000D03*
D26*
%TO.P,U2,41,GND*%
X146100000Y-107944000D03*
X146100000Y-109344000D03*
X146100000Y-110744000D03*
X146100000Y-110744000D03*
X147500000Y-107944000D03*
X147500000Y-107944000D03*
X147500000Y-109344000D03*
X147500000Y-110744000D03*
X148900000Y-107944000D03*
X148900000Y-109344000D03*
X148900000Y-110744000D03*
%TD*%
D17*
%TO.P,J4,1,Pin_1*%
%TO.N,/K_DOWN*%
X134700000Y-137500000D03*
D18*
%TO.P,J4,2,Pin_2*%
%TO.N,/K_RIGHT*%
X134700000Y-134960000D03*
%TO.P,J4,3,Pin_3*%
%TO.N,/K_UP*%
X137240000Y-137500000D03*
%TO.P,J4,4,Pin_4*%
%TO.N,/K_LEFT*%
X137240000Y-134960000D03*
%TO.P,J4,5,Pin_5*%
%TO.N,/L_STAT*%
X139780000Y-137500000D03*
%TO.P,J4,6,Pin_6*%
%TO.N,/L_SYNC*%
X139780000Y-134960000D03*
%TO.P,J4,7,Pin_7*%
%TO.N,/RST*%
X142320000Y-137500000D03*
%TO.P,J4,8,Pin_8*%
%TO.N,unconnected-(J4-Pin_8-Pad8)*%
X142320000Y-134960000D03*
%TO.P,J4,9,Pin_9*%
%TO.N,+3.3V*%
X144860000Y-137500000D03*
%TO.P,J4,10,Pin_10*%
%TO.N,GND*%
X144860000Y-134960000D03*
%TD*%
D16*
%TO.P,H1004,1*%
%TO.N,N/C*%
X166000000Y-139000000D03*
%TD*%
D17*
%TO.P,J5,1,Pin_1*%
%TO.N,/RED*%
X76140000Y-137500000D03*
D18*
%TO.P,J5,2,Pin_2*%
%TO.N,/GREEN*%
X76140000Y-134960000D03*
%TO.P,J5,3,Pin_3*%
%TO.N,/BLUE*%
X78680000Y-137500000D03*
%TO.P,J5,4,Pin_4*%
%TO.N,unconnected-(J5-Pin_4-Pad4)*%
X78680000Y-134960000D03*
%TO.P,J5,5,Pin_5*%
%TO.N,GND*%
X81220000Y-137500000D03*
%TO.P,J5,6,Pin_6*%
X81220000Y-134960000D03*
%TO.P,J5,7,Pin_7*%
X83760000Y-137500000D03*
%TO.P,J5,8,Pin_8*%
X83760000Y-134960000D03*
%TO.P,J5,9,Pin_9*%
X86300000Y-137500000D03*
%TO.P,J5,10,Pin_10*%
X86300000Y-134960000D03*
%TO.P,J5,11,Pin_11*%
%TO.N,unconnected-(J5-Pin_11-Pad11)*%
X88840000Y-137500000D03*
%TO.P,J5,12,Pin_12*%
%TO.N,unconnected-(J5-Pin_12-Pad12)*%
X88840000Y-134960000D03*
%TO.P,J5,13,Pin_13*%
%TO.N,/HSYNC*%
X91380000Y-137500000D03*
%TO.P,J5,14,Pin_14*%
%TO.N,/VSYNC*%
X91380000Y-134960000D03*
%TO.P,J5,15,Pin_15*%
%TO.N,unconnected-(J5-Pin_15-Pad15)*%
X93920000Y-137500000D03*
%TO.P,J5,16,Pin_16*%
%TO.N,unconnected-(J5-Pin_16-Pad16)*%
X93920000Y-134960000D03*
%TD*%
D27*
%TO.P,J2,1*%
%TO.N,/RED*%
X81685000Y-114040000D03*
D28*
%TO.P,J2,2*%
%TO.N,/GREEN*%
X83965000Y-114040000D03*
%TO.P,J2,3*%
%TO.N,/BLUE*%
X86245000Y-114040000D03*
%TO.P,J2,4*%
%TO.N,unconnected-(J2-Pad4)*%
X88525000Y-114040000D03*
%TO.P,J2,5*%
%TO.N,GND*%
X90805000Y-114040000D03*
%TO.P,J2,6*%
X80545000Y-111500000D03*
%TO.P,J2,7*%
X82825000Y-111500000D03*
%TO.P,J2,8*%
X85105000Y-111500000D03*
%TO.P,J2,9*%
%TO.N,unconnected-(J2-Pad9)*%
X87385000Y-111500000D03*
%TO.P,J2,10*%
%TO.N,GND*%
X89665000Y-111500000D03*
%TO.P,J2,11*%
%TO.N,unconnected-(J2-Pad11)*%
X81685000Y-108960000D03*
%TO.P,J2,12*%
%TO.N,unconnected-(J2-Pad12)*%
X83965000Y-108960000D03*
%TO.P,J2,13*%
%TO.N,/HSYNC*%
X86245000Y-108960000D03*
%TO.P,J2,14*%
%TO.N,/VSYNC*%
X88525000Y-108960000D03*
%TO.P,J2,15*%
%TO.N,unconnected-(J2-Pad15)*%
X90805000Y-108960000D03*
D29*
%TO.P,J2,SH1*%
%TO.N,N/C*%
X98500000Y-111500000D03*
%TO.P,J2,SH2*%
X73500000Y-111500000D03*
%TD*%
D14*
%TO.P,C1,1*%
%TO.N,+3.3V*%
X127171000Y-111528000D03*
%TO.P,C1,2*%
%TO.N,GND*%
X127171000Y-108278000D03*
%TD*%
D22*
%TO.P,JP1,1,A*%
%TO.N,Net-(JP1-A)*%
X164825000Y-120300000D03*
D23*
%TO.P,JP1,2,B*%
%TO.N,+3.3V*%
X167365000Y-120300000D03*
%TD*%
D30*
%TO.N,/RED*%
X132500000Y-111400000D03*
X81700000Y-118300000D03*
%TO.N,/GREEN*%
X83965000Y-117548000D03*
X132500000Y-108700000D03*
%TO.N,/BLUE*%
X86245000Y-116786000D03*
X132530000Y-105610000D03*
%TO.N,/VBUS*%
X110100000Y-108500000D03*
%TO.N,GND*%
X100526000Y-131518000D03*
X155300000Y-116100000D03*
X115200000Y-108500000D03*
X146800000Y-132300000D03*
X142400000Y-122900000D03*
X102558000Y-117040000D03*
X130244000Y-113992000D03*
X109600000Y-120500000D03*
X127196000Y-109420000D03*
X76396000Y-104086000D03*
X124200000Y-120500000D03*
X117400000Y-129600000D03*
X142000000Y-101500000D03*
X147400000Y-117500000D03*
X142400000Y-126600000D03*
X68776000Y-120342000D03*
X73094000Y-131518000D03*
X161900000Y-141600000D03*
X110500000Y-129600000D03*
X142400000Y-132300000D03*
X161900000Y-111000000D03*
X68776000Y-112468000D03*
X85300000Y-120500000D03*
X120900000Y-126600000D03*
X127704000Y-109928000D03*
X132500000Y-103700000D03*
X134600000Y-120500000D03*
X151100000Y-110800000D03*
X89400000Y-120500000D03*
X124100000Y-136000000D03*
X156000000Y-101500000D03*
X152088000Y-104086000D03*
X112600000Y-101900000D03*
X82900000Y-120500000D03*
X134600000Y-117800000D03*
X156300000Y-126600000D03*
X106800000Y-106400000D03*
X124200000Y-117800000D03*
X112900000Y-129600000D03*
X169700000Y-102400000D03*
X150900000Y-117500000D03*
%TO.N,+3.3V*%
X142000000Y-102800000D03*
X126942000Y-113484000D03*
X126688000Y-102308000D03*
%TO.N,+5V*%
X124148000Y-113484000D03*
%TO.N,/HSYNC*%
X97478000Y-106626000D03*
X92906000Y-106626000D03*
%TO.N,/VSYNC*%
X98600000Y-105700000D03*
%TO.N,/USB_DN*%
X113200000Y-108500000D03*
%TO.N,/B1*%
X141700000Y-105500000D03*
%TO.N,/B2*%
X138372000Y-106626000D03*
%TO.N,/G1*%
X141700000Y-108000000D03*
%TO.N,/G2*%
X138372000Y-109166000D03*
%TO.N,/R1*%
X141700000Y-111700000D03*
%TO.N,/R2*%
X138372000Y-110690000D03*
%TO.N,/USB_DP*%
X111800000Y-108500000D03*
%TO.N,/K_LEFT*%
X143100000Y-117900000D03*
%TO.N,/K_RIGHT*%
X143000000Y-115800000D03*
%TO.N,/K_UP*%
X143000000Y-116900000D03*
%TO.N,/VIDEO*%
X153500000Y-117500000D03*
X153000000Y-125500000D03*
%TO.N,/K_DOWN*%
X143500000Y-114800000D03*
%TO.N,/INTENS*%
X154000000Y-124500000D03*
X154500000Y-118000000D03*
%TO.N,/BSYNC*%
X145100000Y-127800000D03*
X145094621Y-117696394D03*
%TO.N,/RST*%
X142000000Y-104200000D03*
%TO.N,Net-(U2-GPIO46)*%
X146500000Y-120900000D03*
%TO.N,Net-(U2-MTMS{slash}GPIO42)*%
X149400000Y-113300000D03*
%TO.N,Net-(D2-K)*%
X132800000Y-117700000D03*
%TD*%
D31*
%TO.N,/RED*%
X132500000Y-111400000D02*
X131710000Y-110610000D01*
X129676604Y-104917000D02*
X96903792Y-104917000D01*
X91100000Y-118300000D02*
X82400000Y-118300000D01*
X131710000Y-106950396D02*
X129676604Y-104917000D01*
X82400000Y-118300000D02*
X81700000Y-118300000D01*
X131710000Y-110610000D02*
X131710000Y-106950396D01*
X96903792Y-104917000D02*
X95076000Y-106744792D01*
X95076000Y-106744792D02*
X95076000Y-114324000D01*
X95076000Y-114324000D02*
X91100000Y-118300000D01*
%TO.N,/GREEN*%
X96784396Y-104400000D02*
X129796000Y-104400000D01*
X94626000Y-106558396D02*
X96784396Y-104400000D01*
X94626000Y-114058201D02*
X94626000Y-106558396D01*
X83965000Y-117548000D02*
X91136201Y-117548000D01*
X91136201Y-117548000D02*
X94626000Y-114058201D01*
X129796000Y-104400000D02*
X132500000Y-107104000D01*
X132500000Y-107104000D02*
X132500000Y-108700000D01*
%TO.N,/BLUE*%
X132530000Y-105610000D02*
X130870000Y-103950000D01*
X130870000Y-103950000D02*
X96598000Y-103950000D01*
X94176000Y-106372000D02*
X94176000Y-113871805D01*
X96598000Y-103950000D02*
X94176000Y-106372000D01*
X94176000Y-113871805D02*
X91261805Y-116786000D01*
X91261805Y-116786000D02*
X86245000Y-116786000D01*
%TO.N,/VBUS*%
X110100000Y-107351000D02*
X110066000Y-107317000D01*
X114141051Y-106017000D02*
X114866000Y-106741949D01*
X110790949Y-106017000D02*
X114141051Y-106017000D01*
X110100000Y-108500000D02*
X110100000Y-107351000D01*
X114866000Y-106741949D02*
X114866000Y-107317000D01*
X110066000Y-106741949D02*
X110790949Y-106017000D01*
X110066000Y-107317000D02*
X110066000Y-106741949D01*
D32*
%TO.N,GND*%
X157626000Y-101500000D02*
X157750000Y-101624000D01*
X142010000Y-101490000D02*
X155990000Y-101490000D01*
X123665000Y-108278000D02*
X127171000Y-108278000D01*
X140374000Y-101500000D02*
X140250000Y-101624000D01*
X142000000Y-101500000D02*
X140374000Y-101500000D01*
X156000000Y-101500000D02*
X156010000Y-101490000D01*
X127171000Y-108278000D02*
X127171000Y-109395000D01*
X156000000Y-101500000D02*
X157626000Y-101500000D01*
X142000000Y-101500000D02*
X142010000Y-101490000D01*
X155990000Y-101490000D02*
X156000000Y-101500000D01*
X141990000Y-101490000D02*
X142000000Y-101500000D01*
X127171000Y-109395000D02*
X127196000Y-109420000D01*
D33*
%TO.N,+3.3V*%
X126942000Y-113484000D02*
X126942000Y-111757000D01*
X137942000Y-102894000D02*
X140250000Y-102894000D01*
X140160000Y-102850000D02*
X140250000Y-102760000D01*
D31*
X113940000Y-139700000D02*
X111740000Y-137500000D01*
X126942000Y-113484000D02*
X129033000Y-115575000D01*
X144860000Y-137500000D02*
X142660000Y-139700000D01*
D33*
X137356000Y-102308000D02*
X137942000Y-102894000D01*
X126942000Y-111757000D02*
X127171000Y-111528000D01*
D31*
X140344000Y-102800000D02*
X140250000Y-102894000D01*
X129033000Y-115575000D02*
X131100000Y-115575000D01*
X142000000Y-102800000D02*
X140344000Y-102800000D01*
D33*
X126688000Y-102308000D02*
X137356000Y-102308000D01*
D31*
X142660000Y-139700000D02*
X113940000Y-139700000D01*
D33*
%TO.N,+5V*%
X124148000Y-112011000D02*
X123665000Y-111528000D01*
X124148000Y-113484000D02*
X124148000Y-112011000D01*
D31*
%TO.N,/HSYNC*%
X130752000Y-107388000D02*
X130364000Y-107000000D01*
X130364000Y-107000000D02*
X118244726Y-107000000D01*
X108566547Y-109400000D02*
X105792547Y-106626000D01*
X105792547Y-106626000D02*
X97478000Y-106626000D01*
X115844726Y-109400000D02*
X108566547Y-109400000D01*
X132724299Y-114324000D02*
X130752000Y-112351701D01*
X140250000Y-114324000D02*
X132724299Y-114324000D01*
X130752000Y-112351701D02*
X130752000Y-107388000D01*
X118244726Y-107000000D02*
X115844726Y-109400000D01*
X88579000Y-106626000D02*
X86245000Y-108960000D01*
X92906000Y-106626000D02*
X88579000Y-106626000D01*
%TO.N,/VSYNC*%
X129490208Y-105367000D02*
X130561604Y-106438396D01*
X98933000Y-105367000D02*
X98600000Y-105700000D01*
X138320000Y-112920000D02*
X140250000Y-112920000D01*
X131260000Y-112223305D02*
X131260000Y-107136792D01*
X88846806Y-108960000D02*
X88525000Y-108960000D01*
X131260000Y-107136792D02*
X130561604Y-106438396D01*
X99100000Y-105367000D02*
X129490208Y-105367000D01*
X137500000Y-113740000D02*
X138320000Y-112920000D01*
X137500000Y-113740000D02*
X132776695Y-113740000D01*
X132776695Y-113740000D02*
X131260000Y-112223305D01*
X99100000Y-105367000D02*
X98933000Y-105367000D01*
D34*
%TO.N,/USB_DN*%
X112948410Y-106442000D02*
X112358000Y-106442000D01*
X113200000Y-107333000D02*
X113216000Y-107317000D01*
X140328000Y-116786000D02*
X140250000Y-116864000D01*
X112358000Y-106442000D02*
X112216000Y-106584000D01*
X113200000Y-108500000D02*
X113200000Y-107333000D01*
X113714000Y-115445500D02*
X115132500Y-116864000D01*
X116100000Y-116864000D02*
X140250000Y-116864000D01*
X113216000Y-106709590D02*
X112948410Y-106442000D01*
X115132500Y-116864000D02*
X116100000Y-116864000D01*
X113216000Y-107317000D02*
X113216000Y-106709590D01*
X112216000Y-106584000D02*
X112216000Y-107317000D01*
D31*
%TO.N,/B1*%
X141700000Y-105500000D02*
X140316000Y-105500000D01*
X140316000Y-105500000D02*
X140250000Y-105434000D01*
%TO.N,/B2*%
X138450000Y-106704000D02*
X138372000Y-106626000D01*
X140250000Y-106704000D02*
X138450000Y-106704000D01*
%TO.N,/G1*%
X140276000Y-108000000D02*
X140250000Y-107974000D01*
X141700000Y-108000000D02*
X140276000Y-108000000D01*
%TO.N,/G2*%
X140250000Y-109244000D02*
X138450000Y-109244000D01*
X138450000Y-109244000D02*
X138372000Y-109166000D01*
%TO.N,/R1*%
X141700000Y-111700000D02*
X140334000Y-111700000D01*
X140334000Y-111700000D02*
X140250000Y-111784000D01*
%TO.N,/R2*%
X140250000Y-110514000D02*
X138548000Y-110514000D01*
X138548000Y-110514000D02*
X138372000Y-110690000D01*
%TO.N,/TP_11*%
X159500000Y-122900000D02*
X149611000Y-122900000D01*
X164040000Y-127440000D02*
X159500000Y-122900000D01*
X147095000Y-120384000D02*
X147095000Y-119384000D01*
X164925000Y-127440000D02*
X164040000Y-127440000D01*
X149611000Y-122900000D02*
X147095000Y-120384000D01*
D34*
%TO.N,/USB_DP*%
X111716000Y-108416000D02*
X111716000Y-107317000D01*
X140074000Y-118310000D02*
X140250000Y-118134000D01*
X112140410Y-108500000D02*
X111800000Y-108500000D01*
X138800000Y-118700000D02*
X113600000Y-118700000D01*
X112716000Y-107924410D02*
X112140410Y-108500000D01*
X139366000Y-118134000D02*
X138800000Y-118700000D01*
X111800000Y-108500000D02*
X111716000Y-108416000D01*
X112500000Y-114659500D02*
X113714000Y-113445500D01*
X140250000Y-118134000D02*
X139366000Y-118134000D01*
X112716000Y-107317000D02*
X112716000Y-107924410D01*
X113600000Y-118700000D02*
X112500000Y-117600000D01*
X112500000Y-117600000D02*
X112500000Y-114659500D01*
D31*
%TO.N,/K_LEFT*%
X155746000Y-113054000D02*
X157750000Y-113054000D01*
X145200000Y-115800000D02*
X153000000Y-115800000D01*
X143100000Y-117900000D02*
X145200000Y-115800000D01*
X153000000Y-115800000D02*
X155746000Y-113054000D01*
%TO.N,/K_RIGHT*%
X142775000Y-114499695D02*
X143199695Y-114075000D01*
X157056000Y-109244000D02*
X157750000Y-109244000D01*
X152225000Y-114075000D02*
X157056000Y-109244000D01*
X143199695Y-114075000D02*
X152225000Y-114075000D01*
X143000000Y-115800000D02*
X143000000Y-115724695D01*
X142775000Y-115499695D02*
X142775000Y-114499695D01*
X143000000Y-115724695D02*
X142775000Y-115499695D01*
%TO.N,/K_UP*%
X144600000Y-115300000D02*
X152863604Y-115300000D01*
X143000000Y-116900000D02*
X144600000Y-115300000D01*
X156379604Y-111784000D02*
X157750000Y-111784000D01*
X152863604Y-115300000D02*
X156379604Y-111784000D01*
%TO.N,/VIDEO*%
X153000000Y-125500000D02*
X152950000Y-125450000D01*
X115365000Y-136135000D02*
X112915000Y-136135000D01*
X115645000Y-128355000D02*
X115645000Y-135855000D01*
X152950000Y-125450000D02*
X118550000Y-125450000D01*
X153500000Y-117500000D02*
X153500000Y-119195000D01*
X153000000Y-125500000D02*
X158783299Y-125500000D01*
X118550000Y-125450000D02*
X115645000Y-128355000D01*
X153500000Y-119195000D02*
X153445000Y-119250000D01*
X115645000Y-135855000D02*
X115365000Y-136135000D01*
X164483299Y-131200000D02*
X166245000Y-131200000D01*
X112915000Y-136135000D02*
X111740000Y-134960000D01*
X158783299Y-125500000D02*
X164483299Y-131200000D01*
X166245000Y-131200000D02*
X167465000Y-129980000D01*
%TO.N,/K_DOWN*%
X156686000Y-110514000D02*
X157750000Y-110514000D01*
X152400000Y-114800000D02*
X156686000Y-110514000D01*
X143500000Y-114800000D02*
X152400000Y-114800000D01*
%TO.N,/INTENS*%
X154500000Y-118000000D02*
X154500000Y-119035000D01*
X164925000Y-129980000D02*
X159445000Y-124500000D01*
X154500000Y-119035000D02*
X154715000Y-119250000D01*
X117712500Y-124500000D02*
X114280000Y-127932500D01*
X154000000Y-124500000D02*
X117712500Y-124500000D01*
X114280000Y-127932500D02*
X114280000Y-134960000D01*
X159445000Y-124500000D02*
X154000000Y-124500000D01*
%TO.N,/BSYNC*%
X152175000Y-117149695D02*
X152175000Y-119250000D01*
X160446903Y-127800000D02*
X145100000Y-127800000D01*
X152259000Y-120459000D02*
X152175000Y-120375000D01*
X152175000Y-120375000D02*
X152175000Y-119384000D01*
X164925000Y-132520000D02*
X164925000Y-132278097D01*
X155910000Y-120459000D02*
X152259000Y-120459000D01*
X164925000Y-132278097D02*
X160446903Y-127800000D01*
X145094621Y-117696394D02*
X146516015Y-116275000D01*
X122260000Y-127800000D02*
X119360000Y-130700000D01*
X145100000Y-127800000D02*
X122260000Y-127800000D01*
X151300305Y-116275000D02*
X152175000Y-117149695D01*
X155985000Y-119384000D02*
X155985000Y-120384000D01*
X146516015Y-116275000D02*
X151300305Y-116275000D01*
X119360000Y-130700000D02*
X119360000Y-134960000D01*
X155985000Y-120384000D02*
X155910000Y-120459000D01*
%TO.N,/TP_CPY*%
X165365000Y-122800000D02*
X167465000Y-124900000D01*
X150905000Y-119384000D02*
X150905000Y-120384000D01*
X151000000Y-119155000D02*
X150905000Y-119250000D01*
X160900000Y-121000000D02*
X162700000Y-122800000D01*
X162700000Y-122800000D02*
X165365000Y-122800000D01*
X151521000Y-121000000D02*
X160900000Y-121000000D01*
X150905000Y-120384000D02*
X151521000Y-121000000D01*
%TO.N,/TP_SPI*%
X163900000Y-124900000D02*
X164925000Y-124900000D01*
X150951000Y-121700000D02*
X160700000Y-121700000D01*
X160700000Y-121700000D02*
X163900000Y-124900000D01*
X149500000Y-119115000D02*
X149635000Y-119250000D01*
X149635000Y-120384000D02*
X150951000Y-121700000D01*
X149635000Y-119384000D02*
X149635000Y-120384000D01*
%TO.N,/TP_12*%
X166100000Y-126075000D02*
X163775000Y-126075000D01*
X159850000Y-122150000D02*
X150131000Y-122150000D01*
X150131000Y-122150000D02*
X148365000Y-120384000D01*
X167465000Y-127440000D02*
X166100000Y-126075000D01*
X148365000Y-120384000D02*
X148365000Y-119384000D01*
X163775000Y-126075000D02*
X159850000Y-122150000D01*
%TO.N,/RST*%
X141964000Y-104164000D02*
X142000000Y-104200000D01*
X140250000Y-104164000D02*
X141964000Y-104164000D01*
%TO.N,Net-(JP1-A)*%
X162659000Y-118134000D02*
X164825000Y-120300000D01*
X157750000Y-118134000D02*
X157270396Y-118134000D01*
X157750000Y-118134000D02*
X162659000Y-118134000D01*
%TO.N,Net-(U2-GPIO46)*%
X143285000Y-119384000D02*
X143285000Y-120384000D01*
X143801000Y-120900000D02*
X146500000Y-120900000D01*
X143285000Y-120384000D02*
X143801000Y-120900000D01*
%TO.N,Net-(U2-MTMS{slash}GPIO42)*%
X152038604Y-113625000D02*
X149725000Y-113625000D01*
X156750000Y-107974000D02*
X156400000Y-108324000D01*
X156400000Y-109263604D02*
X152038604Y-113625000D01*
X157750000Y-107974000D02*
X156750000Y-107974000D01*
X149725000Y-113625000D02*
X149400000Y-113300000D01*
X156400000Y-108324000D02*
X156400000Y-109263604D01*
%TO.N,Net-(D2-K)*%
X131175000Y-117700000D02*
X131100000Y-117625000D01*
X132800000Y-117700000D02*
X131175000Y-117700000D01*
%TD*%
%TA.AperFunction,Conductor*%
%TO.N,GND*%
G36*
X116354075Y-137692993D02*
G01*
X116419901Y-137807007D01*
X116512993Y-137900099D01*
X116627007Y-137965925D01*
X116690590Y-137982962D01*
X116058625Y-138614925D01*
X116142421Y-138673599D01*
X116356507Y-138773429D01*
X116356516Y-138773433D01*
X116570333Y-138830725D01*
X116629994Y-138867090D01*
X116660523Y-138929937D01*
X116652228Y-138999312D01*
X116607743Y-139053190D01*
X116541191Y-139074465D01*
X116538240Y-139074500D01*
X114561760Y-139074500D01*
X114494721Y-139054815D01*
X114448966Y-139002011D01*
X114439022Y-138932853D01*
X114468047Y-138869297D01*
X114526825Y-138831523D01*
X114529667Y-138830725D01*
X114743483Y-138773433D01*
X114743492Y-138773429D01*
X114957578Y-138673600D01*
X114957582Y-138673598D01*
X115041373Y-138614926D01*
X115041373Y-138614925D01*
X114409410Y-137982962D01*
X114472993Y-137965925D01*
X114587007Y-137900099D01*
X114680099Y-137807007D01*
X114745925Y-137692993D01*
X114762962Y-137629410D01*
X115394925Y-138261373D01*
X115448425Y-138184968D01*
X115503002Y-138141344D01*
X115572501Y-138134151D01*
X115634855Y-138165673D01*
X115651576Y-138184969D01*
X115705073Y-138261372D01*
X116337037Y-137629408D01*
X116354075Y-137692993D01*
G37*
%TD.AperFunction*%
%TA.AperFunction,Conductor*%
G36*
X118894075Y-137692993D02*
G01*
X118959901Y-137807007D01*
X119052993Y-137900099D01*
X119167007Y-137965925D01*
X119230590Y-137982962D01*
X118598625Y-138614925D01*
X118682421Y-138673599D01*
X118896507Y-138773429D01*
X118896516Y-138773433D01*
X119110333Y-138830725D01*
X119169994Y-138867090D01*
X119200523Y-138929937D01*
X119192228Y-138999312D01*
X119147743Y-139053190D01*
X119081191Y-139074465D01*
X119078240Y-139074500D01*
X117101760Y-139074500D01*
X117034721Y-139054815D01*
X116988966Y-139002011D01*
X116979022Y-138932853D01*
X117008047Y-138869297D01*
X117066825Y-138831523D01*
X117069667Y-138830725D01*
X117283483Y-138773433D01*
X117283492Y-138773429D01*
X117497578Y-138673600D01*
X117497582Y-138673598D01*
X117581373Y-138614926D01*
X117581373Y-138614925D01*
X116949409Y-137982962D01*
X117012993Y-137965925D01*
X117127007Y-137900099D01*
X117220099Y-137807007D01*
X117285925Y-137692993D01*
X117302962Y-137629410D01*
X117934925Y-138261373D01*
X117988425Y-138184968D01*
X118043002Y-138141344D01*
X118112501Y-138134151D01*
X118174855Y-138165673D01*
X118191576Y-138184969D01*
X118245073Y-138261372D01*
X118877037Y-137629409D01*
X118894075Y-137692993D01*
G37*
%TD.AperFunction*%
%TA.AperFunction,Conductor*%
G36*
X117934925Y-135721373D02*
G01*
X117988119Y-135645405D01*
X118042696Y-135601781D01*
X118112195Y-135594588D01*
X118174549Y-135626110D01*
X118191269Y-135645405D01*
X118321505Y-135831401D01*
X118488599Y-135998495D01*
X118673721Y-136128119D01*
X118674594Y-136128730D01*
X118718218Y-136183307D01*
X118725411Y-136252806D01*
X118693889Y-136315160D01*
X118674593Y-136331880D01*
X118598626Y-136385072D01*
X118598625Y-136385072D01*
X119230590Y-137017037D01*
X119167007Y-137034075D01*
X119052993Y-137099901D01*
X118959901Y-137192993D01*
X118894075Y-137307007D01*
X118877037Y-137370590D01*
X118245072Y-136738625D01*
X118245072Y-136738626D01*
X118191574Y-136815030D01*
X118136998Y-136858655D01*
X118067499Y-136865849D01*
X118005144Y-136834326D01*
X117988424Y-136815030D01*
X117934925Y-136738626D01*
X117934925Y-136738625D01*
X117302962Y-137370589D01*
X117285925Y-137307007D01*
X117220099Y-137192993D01*
X117127007Y-137099901D01*
X117012993Y-137034075D01*
X116949408Y-137017037D01*
X117581373Y-136385073D01*
X117504969Y-136331576D01*
X117461344Y-136276999D01*
X117454150Y-136207501D01*
X117485672Y-136145146D01*
X117504968Y-136128425D01*
X117581373Y-136074925D01*
X116949410Y-135442962D01*
X117012993Y-135425925D01*
X117127007Y-135360099D01*
X117220099Y-135267007D01*
X117285925Y-135152993D01*
X117302962Y-135089410D01*
X117934925Y-135721373D01*
G37*
%TD.AperFunction*%
%TA.AperFunction,Conductor*%
G36*
X144394075Y-135152993D02*
G01*
X144459901Y-135267007D01*
X144552993Y-135360099D01*
X144667007Y-135425925D01*
X144730590Y-135442962D01*
X144098625Y-136074925D01*
X144174594Y-136128119D01*
X144218219Y-136182696D01*
X144225413Y-136252194D01*
X144193890Y-136314549D01*
X144174595Y-136331269D01*
X143988594Y-136461508D01*
X143821505Y-136628597D01*
X143691575Y-136814158D01*
X143636998Y-136857783D01*
X143567500Y-136864977D01*
X143505145Y-136833454D01*
X143488425Y-136814158D01*
X143358494Y-136628597D01*
X143191402Y-136461506D01*
X143191396Y-136461501D01*
X143005842Y-136331575D01*
X142962217Y-136276998D01*
X142955023Y-136207500D01*
X142986546Y-136145145D01*
X143005842Y-136128425D01*
X143135766Y-136037451D01*
X143191401Y-135998495D01*
X143358495Y-135831401D01*
X143488732Y-135645403D01*
X143543307Y-135601780D01*
X143612805Y-135594586D01*
X143675160Y-135626109D01*
X143691880Y-135645405D01*
X143745073Y-135721373D01*
X144377037Y-135089409D01*
X144394075Y-135152993D01*
G37*
%TD.AperFunction*%
%TA.AperFunction,Conductor*%
G36*
X152318271Y-126095185D02*
G01*
X152343382Y-126116528D01*
X152394129Y-126172888D01*
X152394135Y-126172893D01*
X152547265Y-126284148D01*
X152547270Y-126284151D01*
X152720192Y-126361142D01*
X152720197Y-126361144D01*
X152905354Y-126400500D01*
X152905355Y-126400500D01*
X153094644Y-126400500D01*
X153094646Y-126400500D01*
X153279803Y-126361144D01*
X153452730Y-126284151D01*
X153605871Y-126172888D01*
X153608788Y-126169647D01*
X153611600Y-126166526D01*
X153671087Y-126129879D01*
X153703748Y-126125500D01*
X158472847Y-126125500D01*
X158539886Y-126145185D01*
X158560528Y-126161819D01*
X159361528Y-126962819D01*
X159395013Y-127024142D01*
X159390029Y-127093834D01*
X159348157Y-127149767D01*
X159282693Y-127174184D01*
X159273847Y-127174500D01*
X145803748Y-127174500D01*
X145736709Y-127154815D01*
X145711600Y-127133474D01*
X145705873Y-127127114D01*
X145705869Y-127127110D01*
X145552734Y-127015851D01*
X145552729Y-127015848D01*
X145379807Y-126938857D01*
X145379802Y-126938855D01*
X145234001Y-126907865D01*
X145194646Y-126899500D01*
X145005354Y-126899500D01*
X144972897Y-126906398D01*
X144820197Y-126938855D01*
X144820192Y-126938857D01*
X144647270Y-127015848D01*
X144647265Y-127015851D01*
X144494130Y-127127110D01*
X144494126Y-127127114D01*
X144488400Y-127133474D01*
X144428913Y-127170121D01*
X144396252Y-127174500D01*
X122198389Y-127174500D01*
X122137971Y-127186518D01*
X122094743Y-127195116D01*
X122077546Y-127198537D01*
X121963712Y-127245689D01*
X121963706Y-127245693D01*
X121861266Y-127314142D01*
X121861262Y-127314145D01*
X118961269Y-130214140D01*
X118874144Y-130301264D01*
X118874138Y-130301272D01*
X118805690Y-130403708D01*
X118805688Y-130403713D01*
X118789141Y-130443662D01*
X118758538Y-130517544D01*
X118758535Y-130517556D01*
X118734500Y-130638389D01*
X118734500Y-133684773D01*
X118714815Y-133751812D01*
X118681623Y-133786348D01*
X118488597Y-133921505D01*
X118321505Y-134088597D01*
X118191269Y-134274595D01*
X118136692Y-134318220D01*
X118067194Y-134325414D01*
X118004839Y-134293891D01*
X117988119Y-134274595D01*
X117934925Y-134198626D01*
X117934925Y-134198625D01*
X117302962Y-134830589D01*
X117285925Y-134767007D01*
X117220099Y-134652993D01*
X117127007Y-134559901D01*
X117012993Y-134494075D01*
X116949409Y-134477037D01*
X117581373Y-133845073D01*
X117581373Y-133845072D01*
X117497583Y-133786402D01*
X117497579Y-133786400D01*
X117283492Y-133686570D01*
X117283483Y-133686566D01*
X117055326Y-133625432D01*
X117055315Y-133625430D01*
X116820002Y-133604843D01*
X116819998Y-133604843D01*
X116584684Y-133625430D01*
X116584673Y-133625432D01*
X116426593Y-133667789D01*
X116356743Y-133666126D01*
X116298881Y-133626963D01*
X116271377Y-133562734D01*
X116270500Y-133548014D01*
X116270500Y-128665452D01*
X116290185Y-128598413D01*
X116306819Y-128577771D01*
X118772772Y-126111819D01*
X118834095Y-126078334D01*
X118860453Y-126075500D01*
X152251232Y-126075500D01*
X152318271Y-126095185D01*
G37*
%TD.AperFunction*%
%TA.AperFunction,Conductor*%
G36*
X151056892Y-116920185D02*
G01*
X151077534Y-116936819D01*
X151513181Y-117372466D01*
X151546666Y-117433789D01*
X151549500Y-117460147D01*
X151549500Y-118011218D01*
X151529815Y-118078257D01*
X151477011Y-118124012D01*
X151412250Y-118134508D01*
X151408975Y-118134156D01*
X151402873Y-118133500D01*
X151402870Y-118133500D01*
X150407129Y-118133500D01*
X150407123Y-118133501D01*
X150347518Y-118139908D01*
X150313331Y-118152659D01*
X150243639Y-118157642D01*
X150226669Y-118152659D01*
X150192480Y-118139908D01*
X150192482Y-118139908D01*
X150132883Y-118133501D01*
X150132881Y-118133500D01*
X150132873Y-118133500D01*
X150132864Y-118133500D01*
X149137129Y-118133500D01*
X149137123Y-118133501D01*
X149077518Y-118139908D01*
X149043331Y-118152659D01*
X148973639Y-118157642D01*
X148956669Y-118152659D01*
X148922480Y-118139908D01*
X148922482Y-118139908D01*
X148862883Y-118133501D01*
X148862881Y-118133500D01*
X148862873Y-118133500D01*
X148862864Y-118133500D01*
X147867129Y-118133500D01*
X147867123Y-118133501D01*
X147807518Y-118139908D01*
X147773331Y-118152659D01*
X147703639Y-118157642D01*
X147686669Y-118152659D01*
X147652480Y-118139908D01*
X147652482Y-118139908D01*
X147592883Y-118133501D01*
X147592881Y-118133500D01*
X147592873Y-118133500D01*
X147592864Y-118133500D01*
X146597129Y-118133500D01*
X146597123Y-118133501D01*
X146537518Y-118139908D01*
X146503331Y-118152659D01*
X146433639Y-118157642D01*
X146416669Y-118152659D01*
X146382480Y-118139908D01*
X146382482Y-118139908D01*
X146322883Y-118133501D01*
X146322881Y-118133500D01*
X146322873Y-118133500D01*
X146322865Y-118133500D01*
X146070110Y-118133500D01*
X146003071Y-118113815D01*
X145957316Y-118061011D01*
X145947372Y-117991853D01*
X145952179Y-117971182D01*
X145965002Y-117931716D01*
X145980295Y-117884650D01*
X145997942Y-117716738D01*
X146024525Y-117652128D01*
X146033571Y-117642033D01*
X146738787Y-116936819D01*
X146800110Y-116903334D01*
X146826468Y-116900500D01*
X150989853Y-116900500D01*
X151056892Y-116920185D01*
G37*
%TD.AperFunction*%
%TA.AperFunction,Conductor*%
G36*
X156444258Y-113699185D02*
G01*
X156490013Y-113751989D01*
X156500507Y-113816756D01*
X156499500Y-113826127D01*
X156499500Y-113826129D01*
X156499500Y-114821870D01*
X156499501Y-114821876D01*
X156505908Y-114881481D01*
X156518659Y-114915669D01*
X156523642Y-114985361D01*
X156518659Y-115002331D01*
X156505908Y-115036518D01*
X156502483Y-115068378D01*
X156499501Y-115096123D01*
X156499500Y-115096135D01*
X156499500Y-116091870D01*
X156499501Y-116091876D01*
X156505908Y-116151481D01*
X156518659Y-116185669D01*
X156523642Y-116255361D01*
X156518659Y-116272331D01*
X156505908Y-116306518D01*
X156499501Y-116366116D01*
X156499501Y-116366123D01*
X156499500Y-116366135D01*
X156499500Y-117361870D01*
X156499501Y-117361876D01*
X156505908Y-117421481D01*
X156518659Y-117455669D01*
X156523642Y-117525361D01*
X156518659Y-117542331D01*
X156505908Y-117576518D01*
X156499785Y-117633474D01*
X156499501Y-117636123D01*
X156499500Y-117636135D01*
X156499500Y-118009500D01*
X156479815Y-118076539D01*
X156427011Y-118122294D01*
X156375500Y-118133500D01*
X155529144Y-118133500D01*
X155462105Y-118113815D01*
X155416350Y-118061011D01*
X155407455Y-118006499D01*
X155405460Y-118006499D01*
X155405460Y-118000002D01*
X155405096Y-117996540D01*
X155385674Y-117811744D01*
X155327179Y-117631716D01*
X155232533Y-117467784D01*
X155105871Y-117327112D01*
X155068421Y-117299903D01*
X154952734Y-117215851D01*
X154952729Y-117215848D01*
X154779807Y-117138857D01*
X154779802Y-117138855D01*
X154597840Y-117100179D01*
X154594646Y-117099500D01*
X154405354Y-117099500D01*
X154405349Y-117099500D01*
X154398886Y-117100179D01*
X154398703Y-117098440D01*
X154337586Y-117093763D01*
X154281862Y-117051613D01*
X154274111Y-117039799D01*
X154260246Y-117015784D01*
X154232533Y-116967784D01*
X154105871Y-116827112D01*
X154105870Y-116827111D01*
X153952734Y-116715851D01*
X153952729Y-116715848D01*
X153779807Y-116638857D01*
X153779802Y-116638855D01*
X153611333Y-116603047D01*
X153594646Y-116599500D01*
X153405354Y-116599500D01*
X153405353Y-116599500D01*
X153285444Y-116624987D01*
X153231745Y-116620889D01*
X153207594Y-116644196D01*
X153200549Y-116647603D01*
X153047270Y-116715848D01*
X153047265Y-116715851D01*
X152894131Y-116827110D01*
X152889300Y-116831460D01*
X152887939Y-116829948D01*
X152836609Y-116861562D01*
X152766752Y-116860222D01*
X152708709Y-116821328D01*
X152700860Y-116810828D01*
X152660858Y-116750962D01*
X152660855Y-116750958D01*
X152547078Y-116637181D01*
X152513593Y-116575858D01*
X152518577Y-116506166D01*
X152560449Y-116450233D01*
X152625913Y-116425816D01*
X152634759Y-116425500D01*
X153061607Y-116425500D01*
X153122029Y-116413481D01*
X153125915Y-116412708D01*
X153177774Y-116417346D01*
X153200756Y-116394583D01*
X153212207Y-116389138D01*
X153214134Y-116388339D01*
X153225785Y-116383513D01*
X153225788Y-116383513D01*
X153248373Y-116374157D01*
X153296286Y-116354312D01*
X153362636Y-116309977D01*
X153398733Y-116285858D01*
X153485858Y-116198733D01*
X153485858Y-116198731D01*
X153496066Y-116188524D01*
X153496067Y-116188521D01*
X155968772Y-113715819D01*
X156030095Y-113682334D01*
X156056453Y-113679500D01*
X156377219Y-113679500D01*
X156444258Y-113699185D01*
G37*
%TD.AperFunction*%
%TA.AperFunction,Conductor*%
G36*
X113262268Y-116670859D02*
G01*
X113262274Y-116670838D01*
X113263624Y-116671199D01*
X113266934Y-116672031D01*
X113267498Y-116672236D01*
X113267504Y-116672239D01*
X113487308Y-116731135D01*
X113649230Y-116745301D01*
X113713998Y-116750968D01*
X113714000Y-116750968D01*
X113714002Y-116750968D01*
X113770807Y-116745998D01*
X113940692Y-116731135D01*
X114036932Y-116705347D01*
X114106781Y-116707010D01*
X114156706Y-116737441D01*
X114647639Y-117228374D01*
X114647649Y-117228385D01*
X114651979Y-117232715D01*
X114651980Y-117232716D01*
X114763784Y-117344520D01*
X114838164Y-117387463D01*
X114900715Y-117423577D01*
X115053443Y-117464501D01*
X115053446Y-117464501D01*
X115219153Y-117464501D01*
X115219169Y-117464500D01*
X116020943Y-117464500D01*
X129775500Y-117464500D01*
X129842539Y-117484185D01*
X129888294Y-117536989D01*
X129899500Y-117588500D01*
X129899501Y-117975500D01*
X129879817Y-118042539D01*
X129827013Y-118088294D01*
X129775501Y-118099500D01*
X113900097Y-118099500D01*
X113833058Y-118079815D01*
X113812416Y-118063181D01*
X113136819Y-117387584D01*
X113103334Y-117326261D01*
X113100500Y-117299903D01*
X113100500Y-116788544D01*
X113120185Y-116721505D01*
X113172989Y-116675750D01*
X113242147Y-116665806D01*
X113262268Y-116670859D01*
G37*
%TD.AperFunction*%
%TA.AperFunction,Conductor*%
G36*
X138946945Y-117484185D02*
G01*
X138992700Y-117536989D01*
X139003195Y-117601762D01*
X139002352Y-117609599D01*
X138975610Y-117674148D01*
X138966745Y-117684017D01*
X138885481Y-117765283D01*
X138885480Y-117765284D01*
X138885478Y-117765286D01*
X138719043Y-117931722D01*
X138587584Y-118063181D01*
X138526261Y-118096666D01*
X138499903Y-118099500D01*
X133787708Y-118099500D01*
X133720669Y-118079815D01*
X133674914Y-118027011D01*
X133664970Y-117957853D01*
X133669777Y-117937182D01*
X133671553Y-117931715D01*
X133685674Y-117888256D01*
X133705460Y-117700000D01*
X133695103Y-117601459D01*
X133707673Y-117532732D01*
X133755405Y-117481708D01*
X133818424Y-117464500D01*
X138879906Y-117464500D01*
X138946945Y-117484185D01*
G37*
%TD.AperFunction*%
%TA.AperFunction,Conductor*%
G36*
X89984471Y-112878398D02*
G01*
X90023198Y-112904645D01*
X90598022Y-113479469D01*
X90575339Y-113485548D01*
X90439662Y-113563882D01*
X90328882Y-113674662D01*
X90250548Y-113810339D01*
X90244469Y-113833022D01*
X89703331Y-113291884D01*
X89687203Y-113272025D01*
X89671365Y-113247783D01*
X89628040Y-113181469D01*
X89553486Y-113100482D01*
X89522565Y-113037828D01*
X89530425Y-112968402D01*
X89574572Y-112914247D01*
X89640990Y-112892556D01*
X89644717Y-112892500D01*
X89780381Y-112892500D01*
X89780387Y-112892499D01*
X89915106Y-112870017D01*
X89984471Y-112878398D01*
G37*
%TD.AperFunction*%
%TA.AperFunction,Conductor*%
G36*
X137060809Y-103078185D02*
G01*
X137081451Y-103094819D01*
X137463580Y-103476948D01*
X137463584Y-103476951D01*
X137586498Y-103559080D01*
X137586511Y-103559087D01*
X137701021Y-103606518D01*
X137723087Y-103615658D01*
X137723091Y-103615658D01*
X137723092Y-103615659D01*
X137868079Y-103644500D01*
X137868082Y-103644500D01*
X138015917Y-103644500D01*
X138875500Y-103644500D01*
X138942539Y-103664185D01*
X138988294Y-103716989D01*
X138999500Y-103768500D01*
X138999500Y-104661870D01*
X138999501Y-104661876D01*
X139005908Y-104721481D01*
X139018659Y-104755669D01*
X139023642Y-104825361D01*
X139018659Y-104842331D01*
X139005908Y-104876518D01*
X139000801Y-104924026D01*
X138999501Y-104936123D01*
X138999500Y-104936135D01*
X138999500Y-105728719D01*
X138979815Y-105795758D01*
X138927011Y-105841513D01*
X138857853Y-105851457D01*
X138825064Y-105841998D01*
X138824731Y-105841849D01*
X138824730Y-105841849D01*
X138744495Y-105806125D01*
X138651806Y-105764857D01*
X138651802Y-105764855D01*
X138481790Y-105728719D01*
X138466646Y-105725500D01*
X138277354Y-105725500D01*
X138262210Y-105728719D01*
X138092197Y-105764855D01*
X138092192Y-105764857D01*
X137919270Y-105841848D01*
X137919265Y-105841851D01*
X137766129Y-105953111D01*
X137639466Y-106093785D01*
X137544821Y-106257715D01*
X137544818Y-106257722D01*
X137488952Y-106429661D01*
X137486326Y-106437744D01*
X137466540Y-106626000D01*
X137486326Y-106814256D01*
X137486327Y-106814259D01*
X137544818Y-106994277D01*
X137544821Y-106994284D01*
X137639467Y-107158216D01*
X137756162Y-107287819D01*
X137766129Y-107298888D01*
X137919265Y-107410148D01*
X137919270Y-107410151D01*
X138092192Y-107487142D01*
X138092197Y-107487144D01*
X138277354Y-107526500D01*
X138277355Y-107526500D01*
X138466644Y-107526500D01*
X138466646Y-107526500D01*
X138651803Y-107487144D01*
X138824730Y-107410151D01*
X138824731Y-107410150D01*
X138825064Y-107410002D01*
X138894314Y-107400717D01*
X138957590Y-107430345D01*
X138994804Y-107489479D01*
X138999500Y-107523281D01*
X138999500Y-108268719D01*
X138979815Y-108335758D01*
X138927011Y-108381513D01*
X138857853Y-108391457D01*
X138825064Y-108381998D01*
X138824731Y-108381849D01*
X138824730Y-108381849D01*
X138721209Y-108335758D01*
X138651806Y-108304857D01*
X138651802Y-108304855D01*
X138481790Y-108268719D01*
X138466646Y-108265500D01*
X138277354Y-108265500D01*
X138262210Y-108268719D01*
X138092197Y-108304855D01*
X138092192Y-108304857D01*
X137919270Y-108381848D01*
X137919265Y-108381851D01*
X137766129Y-108493111D01*
X137639466Y-108633785D01*
X137544821Y-108797715D01*
X137544818Y-108797722D01*
X137486327Y-108977740D01*
X137486326Y-108977744D01*
X137466540Y-109166000D01*
X137486326Y-109354256D01*
X137486327Y-109354259D01*
X137544818Y-109534277D01*
X137544821Y-109534284D01*
X137639467Y-109698216D01*
X137747800Y-109818532D01*
X137770478Y-109843718D01*
X137768633Y-109845378D01*
X137799413Y-109895374D01*
X137798061Y-109965230D01*
X137768796Y-110010767D01*
X137770478Y-110012282D01*
X137639466Y-110157785D01*
X137544821Y-110321715D01*
X137544818Y-110321722D01*
X137487436Y-110498328D01*
X137486326Y-110501744D01*
X137466540Y-110690000D01*
X137486326Y-110878256D01*
X137486327Y-110878259D01*
X137544818Y-111058277D01*
X137544821Y-111058284D01*
X137639467Y-111222216D01*
X137766129Y-111362888D01*
X137919265Y-111474148D01*
X137919270Y-111474151D01*
X138092192Y-111551142D01*
X138092197Y-111551144D01*
X138277354Y-111590500D01*
X138277355Y-111590500D01*
X138466644Y-111590500D01*
X138466646Y-111590500D01*
X138651803Y-111551144D01*
X138824730Y-111474151D01*
X138824731Y-111474150D01*
X138825064Y-111474002D01*
X138894314Y-111464717D01*
X138957590Y-111494345D01*
X138994804Y-111553479D01*
X138999500Y-111587281D01*
X138999501Y-112170500D01*
X138979817Y-112237539D01*
X138927013Y-112283294D01*
X138875501Y-112294500D01*
X138258389Y-112294500D01*
X138197971Y-112306518D01*
X138137548Y-112318537D01*
X138137546Y-112318537D01*
X138137545Y-112318538D01*
X138137543Y-112318538D01*
X138120737Y-112325500D01*
X138023718Y-112365685D01*
X138023714Y-112365687D01*
X137994120Y-112385463D01*
X137994118Y-112385464D01*
X137921268Y-112434140D01*
X137893075Y-112462334D01*
X137834142Y-112521267D01*
X137834139Y-112521270D01*
X137546931Y-112808479D01*
X137277229Y-113078181D01*
X137215906Y-113111666D01*
X137189548Y-113114500D01*
X133087148Y-113114500D01*
X133020109Y-113094815D01*
X132999467Y-113078181D01*
X132719471Y-112798185D01*
X132433465Y-112512180D01*
X132399981Y-112450858D01*
X132404965Y-112381167D01*
X132446836Y-112325233D01*
X132512301Y-112300816D01*
X132521147Y-112300500D01*
X132594644Y-112300500D01*
X132594646Y-112300500D01*
X132779803Y-112261144D01*
X132952730Y-112184151D01*
X133105871Y-112072888D01*
X133232533Y-111932216D01*
X133327179Y-111768284D01*
X133385674Y-111588256D01*
X133405460Y-111400000D01*
X133385674Y-111211744D01*
X133327179Y-111031716D01*
X133232533Y-110867784D01*
X133105871Y-110727112D01*
X133087209Y-110713553D01*
X132952734Y-110615851D01*
X132952729Y-110615848D01*
X132779807Y-110538857D01*
X132779802Y-110538855D01*
X132605184Y-110501740D01*
X132594646Y-110499500D01*
X132594645Y-110499500D01*
X132535453Y-110499500D01*
X132468414Y-110479815D01*
X132447771Y-110463181D01*
X132371818Y-110387227D01*
X132338334Y-110325903D01*
X132335500Y-110299546D01*
X132335500Y-109724500D01*
X132355185Y-109657461D01*
X132407989Y-109611706D01*
X132459500Y-109600500D01*
X132594644Y-109600500D01*
X132594646Y-109600500D01*
X132779803Y-109561144D01*
X132952730Y-109484151D01*
X133105871Y-109372888D01*
X133232533Y-109232216D01*
X133327179Y-109068284D01*
X133385674Y-108888256D01*
X133405460Y-108700000D01*
X133385674Y-108511744D01*
X133327179Y-108331716D01*
X133232533Y-108167784D01*
X133157350Y-108084284D01*
X133127120Y-108021292D01*
X133125500Y-108001312D01*
X133125500Y-107042394D01*
X133117839Y-107003882D01*
X133117124Y-107000286D01*
X133101463Y-106921548D01*
X133054311Y-106807714D01*
X133026175Y-106765606D01*
X133026175Y-106765605D01*
X133026173Y-106765604D01*
X132989105Y-106710126D01*
X132985859Y-106705268D01*
X132953095Y-106672504D01*
X132898733Y-106618142D01*
X132898732Y-106618141D01*
X132897200Y-106616609D01*
X132863715Y-106555286D01*
X132868699Y-106485594D01*
X132910571Y-106429661D01*
X132934445Y-106415649D01*
X132982730Y-106394151D01*
X133135871Y-106282888D01*
X133262533Y-106142216D01*
X133357179Y-105978284D01*
X133415674Y-105798256D01*
X133435460Y-105610000D01*
X133415674Y-105421744D01*
X133357179Y-105241716D01*
X133262533Y-105077784D01*
X133135871Y-104937112D01*
X133135870Y-104937111D01*
X132982734Y-104825851D01*
X132982729Y-104825848D01*
X132809807Y-104748857D01*
X132809802Y-104748855D01*
X132664001Y-104717865D01*
X132624646Y-104709500D01*
X132624645Y-104709500D01*
X132565453Y-104709500D01*
X132498414Y-104689815D01*
X132477772Y-104673181D01*
X131362928Y-103558338D01*
X131362925Y-103558334D01*
X131362925Y-103558335D01*
X131355858Y-103551268D01*
X131355858Y-103551267D01*
X131268733Y-103464142D01*
X131268732Y-103464141D01*
X131268731Y-103464140D01*
X131196458Y-103415849D01*
X131166292Y-103395692D01*
X131166285Y-103395687D01*
X131118925Y-103376071D01*
X131071565Y-103356454D01*
X131052453Y-103348537D01*
X131042427Y-103346543D01*
X130992029Y-103336518D01*
X130931610Y-103324500D01*
X130931607Y-103324500D01*
X130931606Y-103324500D01*
X127201064Y-103324500D01*
X127134025Y-103304815D01*
X127088270Y-103252011D01*
X127078326Y-103182853D01*
X127107351Y-103119297D01*
X127135521Y-103096038D01*
X127135473Y-103095971D01*
X127136557Y-103095182D01*
X127139066Y-103093112D01*
X127140726Y-103092152D01*
X127140730Y-103092151D01*
X127145363Y-103088784D01*
X127154452Y-103082182D01*
X127220258Y-103058702D01*
X127227337Y-103058500D01*
X136993770Y-103058500D01*
X137060809Y-103078185D01*
G37*
%TD.AperFunction*%
%TA.AperFunction,Conductor*%
G36*
X84550548Y-111729661D02*
G01*
X84628882Y-111865338D01*
X84739662Y-111976118D01*
X84875339Y-112054452D01*
X84898022Y-112060529D01*
X84323632Y-112634918D01*
X84262309Y-112668403D01*
X84215542Y-112669546D01*
X84080427Y-112647000D01*
X83849573Y-112647000D01*
X83811167Y-112653409D01*
X83714457Y-112669547D01*
X83645092Y-112661165D01*
X83606366Y-112634919D01*
X83031977Y-112060530D01*
X83054661Y-112054452D01*
X83190338Y-111976118D01*
X83301118Y-111865338D01*
X83379452Y-111729661D01*
X83385530Y-111706977D01*
X83965000Y-112286447D01*
X84544469Y-111706977D01*
X84550548Y-111729661D01*
G37*
%TD.AperFunction*%
%TA.AperFunction,Conductor*%
G36*
X86206670Y-112248117D02*
G01*
X86222797Y-112267976D01*
X86255831Y-112318538D01*
X86281960Y-112358531D01*
X86356053Y-112439018D01*
X86386975Y-112501672D01*
X86379115Y-112571098D01*
X86334968Y-112625253D01*
X86268550Y-112646944D01*
X86264823Y-112647000D01*
X86129573Y-112647000D01*
X86091167Y-112653409D01*
X85994457Y-112669547D01*
X85925092Y-112661165D01*
X85886366Y-112634919D01*
X85311977Y-112060530D01*
X85334661Y-112054452D01*
X85470338Y-111976118D01*
X85581118Y-111865338D01*
X85659452Y-111729661D01*
X85665530Y-111706977D01*
X86206670Y-112248117D01*
G37*
%TD.AperFunction*%
%TA.AperFunction,Conductor*%
G36*
X89110548Y-111729661D02*
G01*
X89188882Y-111865338D01*
X89299662Y-111976118D01*
X89435339Y-112054452D01*
X89458022Y-112060529D01*
X88883632Y-112634918D01*
X88822309Y-112668403D01*
X88775542Y-112669546D01*
X88640427Y-112647000D01*
X88505177Y-112647000D01*
X88438138Y-112627315D01*
X88392383Y-112574511D01*
X88382439Y-112505353D01*
X88411464Y-112441797D01*
X88413947Y-112439018D01*
X88450325Y-112399500D01*
X88488040Y-112358531D01*
X88547210Y-112267964D01*
X88563329Y-112248116D01*
X89104469Y-111706976D01*
X89110548Y-111729661D01*
G37*
%TD.AperFunction*%
%TA.AperFunction,Conductor*%
G36*
X82270548Y-111729661D02*
G01*
X82348882Y-111865338D01*
X82459662Y-111976118D01*
X82595339Y-112054452D01*
X82618022Y-112060530D01*
X82067871Y-112610681D01*
X82006548Y-112644166D01*
X81980190Y-112647000D01*
X81389809Y-112647000D01*
X81322770Y-112627315D01*
X81302128Y-112610681D01*
X80751977Y-112060530D01*
X80774661Y-112054452D01*
X80910338Y-111976118D01*
X81021118Y-111865338D01*
X81099452Y-111729661D01*
X81105530Y-111706977D01*
X81685000Y-112286447D01*
X82264469Y-111706977D01*
X82270548Y-111729661D01*
G37*
%TD.AperFunction*%
%TA.AperFunction,Conductor*%
G36*
X82004907Y-110338834D02*
G01*
X82043633Y-110365080D01*
X82618022Y-110939469D01*
X82595339Y-110945548D01*
X82459662Y-111023882D01*
X82348882Y-111134662D01*
X82270548Y-111270339D01*
X82264469Y-111293022D01*
X81685000Y-110713553D01*
X81105530Y-111293022D01*
X81099452Y-111270339D01*
X81021118Y-111134662D01*
X80910338Y-111023882D01*
X80774661Y-110945548D01*
X80751977Y-110939469D01*
X81326366Y-110365080D01*
X81387689Y-110331595D01*
X81434453Y-110330452D01*
X81569573Y-110353000D01*
X81569575Y-110353000D01*
X81800425Y-110353000D01*
X81800427Y-110353000D01*
X81935544Y-110330452D01*
X82004907Y-110338834D01*
G37*
%TD.AperFunction*%
%TA.AperFunction,Conductor*%
G36*
X84284907Y-110338834D02*
G01*
X84323633Y-110365080D01*
X84898022Y-110939469D01*
X84875339Y-110945548D01*
X84739662Y-111023882D01*
X84628882Y-111134662D01*
X84550548Y-111270339D01*
X84544469Y-111293022D01*
X83965000Y-110713553D01*
X83385530Y-111293022D01*
X83379452Y-111270339D01*
X83301118Y-111134662D01*
X83190338Y-111023882D01*
X83054661Y-110945548D01*
X83031977Y-110939469D01*
X83606366Y-110365080D01*
X83667689Y-110331595D01*
X83714453Y-110330452D01*
X83849573Y-110353000D01*
X83849575Y-110353000D01*
X84080425Y-110353000D01*
X84080427Y-110353000D01*
X84215544Y-110330452D01*
X84284907Y-110338834D01*
G37*
%TD.AperFunction*%
%TA.AperFunction,Conductor*%
G36*
X88844907Y-110338834D02*
G01*
X88883633Y-110365080D01*
X89458022Y-110939469D01*
X89435339Y-110945548D01*
X89299662Y-111023882D01*
X89188882Y-111134662D01*
X89110548Y-111270339D01*
X89104469Y-111293022D01*
X88563331Y-110751884D01*
X88547203Y-110732025D01*
X88547202Y-110732023D01*
X88488040Y-110641469D01*
X88413946Y-110560981D01*
X88383025Y-110498328D01*
X88390885Y-110428902D01*
X88435032Y-110374747D01*
X88501450Y-110353056D01*
X88505177Y-110353000D01*
X88640425Y-110353000D01*
X88640427Y-110353000D01*
X88775544Y-110330452D01*
X88844907Y-110338834D01*
G37*
%TD.AperFunction*%
%TA.AperFunction,Conductor*%
G36*
X86129573Y-110353000D02*
G01*
X86129575Y-110353000D01*
X86264823Y-110353000D01*
X86331862Y-110372685D01*
X86377617Y-110425489D01*
X86387561Y-110494647D01*
X86358536Y-110558203D01*
X86356071Y-110560961D01*
X86333489Y-110585494D01*
X86281959Y-110641469D01*
X86222797Y-110732023D01*
X86206670Y-110751881D01*
X85665529Y-111293021D01*
X85659452Y-111270339D01*
X85581118Y-111134662D01*
X85470338Y-111023882D01*
X85334661Y-110945548D01*
X85311977Y-110939469D01*
X85886366Y-110365080D01*
X85947689Y-110331595D01*
X85994453Y-110330452D01*
X86129573Y-110353000D01*
G37*
%TD.AperFunction*%
%TA.AperFunction,Conductor*%
G36*
X115835334Y-106679060D02*
G01*
X115891267Y-106720932D01*
X115915684Y-106786396D01*
X115916000Y-106795242D01*
X115916000Y-108392773D01*
X115896315Y-108459812D01*
X115879681Y-108480454D01*
X115621955Y-108738181D01*
X115560632Y-108771666D01*
X115534274Y-108774500D01*
X114214325Y-108774500D01*
X114147286Y-108754815D01*
X114101531Y-108702011D01*
X114091004Y-108637539D01*
X114105088Y-108503537D01*
X114131673Y-108438924D01*
X114188970Y-108398939D01*
X114228409Y-108392500D01*
X114328713Y-108392500D01*
X114328720Y-108392500D01*
X114441236Y-108377687D01*
X114455086Y-108371949D01*
X114524553Y-108364477D01*
X114537120Y-108367427D01*
X114613431Y-108389598D01*
X114650306Y-108392500D01*
X114650314Y-108392500D01*
X115081686Y-108392500D01*
X115081694Y-108392500D01*
X115118569Y-108389598D01*
X115232303Y-108356555D01*
X115301491Y-108356555D01*
X115413508Y-108389100D01*
X115415998Y-108389295D01*
X115416000Y-108389295D01*
X115416000Y-108313308D01*
X115435685Y-108246269D01*
X115452314Y-108225631D01*
X115534081Y-108143865D01*
X115617744Y-108002398D01*
X115663598Y-107844569D01*
X115666500Y-107807694D01*
X115666500Y-106826306D01*
X115665036Y-106807704D01*
X115679397Y-106739327D01*
X115704802Y-106709446D01*
X115703618Y-106708262D01*
X115704319Y-106707561D01*
X115708213Y-106705434D01*
X115713198Y-106699572D01*
X115715844Y-106697543D01*
X115717857Y-106700168D01*
X115765642Y-106674076D01*
X115835334Y-106679060D01*
G37*
%TD.AperFunction*%
%TA.AperFunction,Conductor*%
G36*
X109215222Y-106698797D02*
G01*
X109216174Y-106697557D01*
X109218819Y-106699586D01*
X109219755Y-106700867D01*
X109221203Y-106701529D01*
X109227681Y-106707561D01*
X109228382Y-106708262D01*
X109226517Y-106710126D01*
X109260029Y-106756008D01*
X109266964Y-106807699D01*
X109265500Y-106826295D01*
X109265500Y-107443000D01*
X109245815Y-107510039D01*
X109193011Y-107555794D01*
X109141500Y-107567000D01*
X108547000Y-107567000D01*
X108479961Y-107547315D01*
X108434206Y-107494511D01*
X108423000Y-107443000D01*
X108423000Y-107412223D01*
X108425556Y-107407796D01*
X108446000Y-107331496D01*
X108446000Y-107121088D01*
X108495489Y-107078206D01*
X108547000Y-107067000D01*
X109016000Y-107067000D01*
X109016000Y-106795242D01*
X109035685Y-106728203D01*
X109088489Y-106682448D01*
X109157647Y-106672504D01*
X109215222Y-106698797D01*
G37*
%TD.AperFunction*%
%TA.AperFunction,Conductor*%
G36*
X107089039Y-106012185D02*
G01*
X107134794Y-106064989D01*
X107146000Y-106116500D01*
X107146000Y-106492000D01*
X107846000Y-106492000D01*
X107846000Y-106992000D01*
X107094638Y-106992000D01*
X107094638Y-106987420D01*
X107050400Y-106983936D01*
X107006887Y-106955750D01*
X106285475Y-106234338D01*
X106285473Y-106234335D01*
X106255319Y-106204181D01*
X106221834Y-106142858D01*
X106226818Y-106073166D01*
X106268690Y-106017233D01*
X106334154Y-105992816D01*
X106343000Y-105992500D01*
X107022000Y-105992500D01*
X107089039Y-106012185D01*
G37*
%TD.AperFunction*%
%TA.AperFunction,Conductor*%
G36*
X80754075Y-135152993D02*
G01*
X80819901Y-135267007D01*
X80912993Y-135360099D01*
X81027007Y-135425925D01*
X81090590Y-135442962D01*
X80458625Y-136074925D01*
X80535031Y-136128425D01*
X80578655Y-136183002D01*
X80585848Y-136252501D01*
X80554326Y-136314855D01*
X80535029Y-136331576D01*
X80458625Y-136385072D01*
X81090590Y-137017037D01*
X81027007Y-137034075D01*
X80912993Y-137099901D01*
X80819901Y-137192993D01*
X80754075Y-137307007D01*
X80737037Y-137370590D01*
X80105073Y-136738626D01*
X80051881Y-136814594D01*
X79997304Y-136858219D01*
X79927806Y-136865413D01*
X79865451Y-136833891D01*
X79848730Y-136814594D01*
X79718494Y-136628597D01*
X79551402Y-136461506D01*
X79551396Y-136461501D01*
X79365842Y-136331575D01*
X79322217Y-136276998D01*
X79315023Y-136207500D01*
X79346546Y-136145145D01*
X79365842Y-136128425D01*
X79495766Y-136037451D01*
X79551401Y-135998495D01*
X79718495Y-135831401D01*
X79848732Y-135645403D01*
X79903307Y-135601780D01*
X79972805Y-135594586D01*
X80035160Y-135626109D01*
X80051880Y-135645405D01*
X80105073Y-135721373D01*
X80737037Y-135089409D01*
X80754075Y-135152993D01*
G37*
%TD.AperFunction*%
%TA.AperFunction,Conductor*%
G36*
X83294075Y-135152993D02*
G01*
X83359901Y-135267007D01*
X83452993Y-135360099D01*
X83567007Y-135425925D01*
X83630590Y-135442962D01*
X82998625Y-136074925D01*
X83075031Y-136128425D01*
X83118655Y-136183002D01*
X83125848Y-136252501D01*
X83094326Y-136314855D01*
X83075029Y-136331576D01*
X82998625Y-136385072D01*
X83630590Y-137017037D01*
X83567007Y-137034075D01*
X83452993Y-137099901D01*
X83359901Y-137192993D01*
X83294075Y-137307007D01*
X83277037Y-137370590D01*
X82645072Y-136738625D01*
X82645072Y-136738626D01*
X82591574Y-136815030D01*
X82536998Y-136858655D01*
X82467499Y-136865849D01*
X82405144Y-136834326D01*
X82388424Y-136815030D01*
X82334925Y-136738626D01*
X82334925Y-136738625D01*
X81702962Y-137370589D01*
X81685925Y-137307007D01*
X81620099Y-137192993D01*
X81527007Y-137099901D01*
X81412993Y-137034075D01*
X81349410Y-137017037D01*
X81981373Y-136385073D01*
X81904969Y-136331576D01*
X81861344Y-136276999D01*
X81854150Y-136207501D01*
X81885672Y-136145146D01*
X81904968Y-136128425D01*
X81981373Y-136074925D01*
X81349409Y-135442962D01*
X81412993Y-135425925D01*
X81527007Y-135360099D01*
X81620099Y-135267007D01*
X81685925Y-135152993D01*
X81702962Y-135089410D01*
X82334925Y-135721373D01*
X82388425Y-135644968D01*
X82443002Y-135601344D01*
X82512501Y-135594151D01*
X82574855Y-135625673D01*
X82591576Y-135644969D01*
X82645073Y-135721372D01*
X83277037Y-135089409D01*
X83294075Y-135152993D01*
G37*
%TD.AperFunction*%
%TA.AperFunction,Conductor*%
G36*
X85834075Y-135152993D02*
G01*
X85899901Y-135267007D01*
X85992993Y-135360099D01*
X86107007Y-135425925D01*
X86170590Y-135442962D01*
X85538625Y-136074925D01*
X85615031Y-136128425D01*
X85658655Y-136183002D01*
X85665848Y-136252501D01*
X85634326Y-136314855D01*
X85615029Y-136331576D01*
X85538625Y-136385072D01*
X86170590Y-137017037D01*
X86107007Y-137034075D01*
X85992993Y-137099901D01*
X85899901Y-137192993D01*
X85834075Y-137307007D01*
X85817037Y-137370590D01*
X85185072Y-136738625D01*
X85185072Y-136738626D01*
X85131574Y-136815030D01*
X85076998Y-136858655D01*
X85007499Y-136865849D01*
X84945144Y-136834326D01*
X84928424Y-136815030D01*
X84874925Y-136738626D01*
X84874925Y-136738625D01*
X84242962Y-137370589D01*
X84225925Y-137307007D01*
X84160099Y-137192993D01*
X84067007Y-137099901D01*
X83952993Y-137034075D01*
X83889410Y-137017037D01*
X84521373Y-136385073D01*
X84444969Y-136331576D01*
X84401344Y-136276999D01*
X84394150Y-136207501D01*
X84425672Y-136145146D01*
X84444968Y-136128425D01*
X84521373Y-136074925D01*
X83889409Y-135442962D01*
X83952993Y-135425925D01*
X84067007Y-135360099D01*
X84160099Y-135267007D01*
X84225925Y-135152993D01*
X84242962Y-135089410D01*
X84874925Y-135721373D01*
X84928425Y-135644968D01*
X84983002Y-135601344D01*
X85052501Y-135594151D01*
X85114855Y-135625673D01*
X85131576Y-135644969D01*
X85185073Y-135721372D01*
X85817037Y-135089409D01*
X85834075Y-135152993D01*
G37*
%TD.AperFunction*%
%TA.AperFunction,Conductor*%
G36*
X87414925Y-135721373D02*
G01*
X87468119Y-135645405D01*
X87522696Y-135601781D01*
X87592195Y-135594588D01*
X87654549Y-135626110D01*
X87671269Y-135645405D01*
X87801505Y-135831401D01*
X87801506Y-135831402D01*
X87968597Y-135998493D01*
X87968603Y-135998498D01*
X88154158Y-136128425D01*
X88197783Y-136183002D01*
X88204977Y-136252500D01*
X88173454Y-136314855D01*
X88154158Y-136331575D01*
X87968597Y-136461505D01*
X87801505Y-136628597D01*
X87671269Y-136814595D01*
X87616692Y-136858220D01*
X87547194Y-136865414D01*
X87484839Y-136833891D01*
X87468119Y-136814595D01*
X87414925Y-136738626D01*
X87414925Y-136738625D01*
X86782962Y-137370589D01*
X86765925Y-137307007D01*
X86700099Y-137192993D01*
X86607007Y-137099901D01*
X86492993Y-137034075D01*
X86429410Y-137017037D01*
X87061373Y-136385073D01*
X86984969Y-136331576D01*
X86941344Y-136276999D01*
X86934150Y-136207501D01*
X86965672Y-136145146D01*
X86984968Y-136128425D01*
X87061373Y-136074925D01*
X86429409Y-135442962D01*
X86492993Y-135425925D01*
X86607007Y-135360099D01*
X86700099Y-135267007D01*
X86765925Y-135152993D01*
X86782962Y-135089410D01*
X87414925Y-135721373D01*
G37*
%TD.AperFunction*%
%TA.AperFunction,Conductor*%
G36*
X139220423Y-100549685D02*
G01*
X139266178Y-100602489D01*
X139276122Y-100671647D01*
X139247097Y-100735203D01*
X139227695Y-100753266D01*
X139142812Y-100816809D01*
X139142809Y-100816812D01*
X139056649Y-100931906D01*
X139056645Y-100931913D01*
X139006403Y-101066620D01*
X139006401Y-101066627D01*
X139000000Y-101126155D01*
X139000000Y-101374000D01*
X141500000Y-101374000D01*
X141500000Y-101126172D01*
X141499999Y-101126155D01*
X141493598Y-101066627D01*
X141493596Y-101066620D01*
X141443354Y-100931913D01*
X141443350Y-100931906D01*
X141357190Y-100816812D01*
X141357187Y-100816809D01*
X141272305Y-100753266D01*
X141230434Y-100697332D01*
X141225450Y-100627641D01*
X141258936Y-100566318D01*
X141320259Y-100532834D01*
X141346616Y-100530000D01*
X156653384Y-100530000D01*
X156720423Y-100549685D01*
X156766178Y-100602489D01*
X156776122Y-100671647D01*
X156747097Y-100735203D01*
X156727695Y-100753266D01*
X156642812Y-100816809D01*
X156642809Y-100816812D01*
X156556649Y-100931906D01*
X156556645Y-100931913D01*
X156506403Y-101066620D01*
X156506401Y-101066627D01*
X156500000Y-101126155D01*
X156500000Y-101374000D01*
X159000000Y-101374000D01*
X159000000Y-101126172D01*
X158999999Y-101126155D01*
X158993598Y-101066627D01*
X158993596Y-101066620D01*
X158943354Y-100931913D01*
X158943350Y-100931906D01*
X158857190Y-100816812D01*
X158857187Y-100816809D01*
X158772305Y-100753266D01*
X158730434Y-100697332D01*
X158725450Y-100627641D01*
X158758936Y-100566318D01*
X158820259Y-100532834D01*
X158846616Y-100530000D01*
X171340638Y-100530000D01*
X171407677Y-100549685D01*
X171428319Y-100566319D01*
X171609681Y-100747681D01*
X171643166Y-100809004D01*
X171646000Y-100835362D01*
X171646000Y-144290000D01*
X171626315Y-144357039D01*
X171573511Y-144402794D01*
X171522000Y-144414000D01*
X60550000Y-144414000D01*
X60482961Y-144394315D01*
X60437206Y-144341511D01*
X60426000Y-144290000D01*
X60426000Y-138999997D01*
X62644579Y-138999997D01*
X62644579Y-139000002D01*
X62664248Y-139362782D01*
X62664250Y-139362799D01*
X62723024Y-139721303D01*
X62723030Y-139721329D01*
X62820221Y-140071381D01*
X62820226Y-140071396D01*
X62954700Y-140408901D01*
X62954706Y-140408913D01*
X63124878Y-140729892D01*
X63124881Y-140729897D01*
X63124883Y-140729900D01*
X63328773Y-141030614D01*
X63563979Y-141307521D01*
X63827746Y-141557375D01*
X64116981Y-141777245D01*
X64428292Y-141964555D01*
X64428294Y-141964556D01*
X64428296Y-141964557D01*
X64428300Y-141964559D01*
X64758020Y-142117103D01*
X64758031Y-142117108D01*
X65102330Y-142233116D01*
X65457153Y-142311218D01*
X65818341Y-142350500D01*
X65818347Y-142350500D01*
X66181653Y-142350500D01*
X66181659Y-142350500D01*
X66542847Y-142311218D01*
X66897670Y-142233116D01*
X67241969Y-142117108D01*
X67571708Y-141964555D01*
X67883019Y-141777245D01*
X68172254Y-141557375D01*
X68436021Y-141307521D01*
X68671227Y-141030614D01*
X68875117Y-140729900D01*
X69045298Y-140408905D01*
X69179775Y-140071391D01*
X69276973Y-139721316D01*
X69335751Y-139362785D01*
X69355421Y-139000000D01*
X69335751Y-138637215D01*
X69324511Y-138568656D01*
X69276975Y-138278696D01*
X69276974Y-138278695D01*
X69276973Y-138278684D01*
X69199597Y-138000000D01*
X69179778Y-137928618D01*
X69179773Y-137928603D01*
X69045299Y-137591098D01*
X69045298Y-137591095D01*
X68875117Y-137270100D01*
X68671227Y-136969386D01*
X68436021Y-136692479D01*
X68172254Y-136442625D01*
X68172244Y-136442617D01*
X68096544Y-136385072D01*
X67883019Y-136222755D01*
X67571708Y-136035445D01*
X67571707Y-136035444D01*
X67571703Y-136035442D01*
X67571699Y-136035440D01*
X67241979Y-135882896D01*
X67241974Y-135882894D01*
X67241969Y-135882892D01*
X67074143Y-135826344D01*
X66897669Y-135766883D01*
X66542845Y-135688781D01*
X66181660Y-135649500D01*
X66181659Y-135649500D01*
X65818341Y-135649500D01*
X65818339Y-135649500D01*
X65457154Y-135688781D01*
X65102330Y-135766883D01*
X64836178Y-135856560D01*
X64758031Y-135882892D01*
X64758028Y-135882893D01*
X64758020Y-135882896D01*
X64428300Y-136035440D01*
X64428296Y-136035442D01*
X64238730Y-136149501D01*
X64116981Y-136222755D01*
X64076230Y-136253733D01*
X63827755Y-136442617D01*
X63827745Y-136442625D01*
X63563978Y-136692479D01*
X63328772Y-136969386D01*
X63124884Y-137270098D01*
X63124878Y-137270107D01*
X62954706Y-137591086D01*
X62954700Y-137591098D01*
X62820226Y-137928603D01*
X62820221Y-137928618D01*
X62723030Y-138278670D01*
X62723024Y-138278696D01*
X62664250Y-138637200D01*
X62664248Y-138637217D01*
X62644579Y-138999997D01*
X60426000Y-138999997D01*
X60426000Y-134959999D01*
X74784341Y-134959999D01*
X74784341Y-134960000D01*
X74804936Y-135195403D01*
X74804938Y-135195413D01*
X74866094Y-135423655D01*
X74866096Y-135423659D01*
X74866097Y-135423663D01*
X74945597Y-135594151D01*
X74965965Y-135637830D01*
X74965967Y-135637834D01*
X75024462Y-135721373D01*
X75101505Y-135831401D01*
X75268599Y-135998495D01*
X75268604Y-135998499D01*
X75269968Y-135999643D01*
X75270407Y-136000303D01*
X75272427Y-136002323D01*
X75272021Y-136002728D01*
X75308669Y-136057815D01*
X75309776Y-136127676D01*
X75272937Y-136187046D01*
X75229267Y-136212336D01*
X75220669Y-136215184D01*
X75220663Y-136215187D01*
X75071342Y-136307289D01*
X74947289Y-136431342D01*
X74855187Y-136580663D01*
X74855185Y-136580668D01*
X74838701Y-136630414D01*
X74800001Y-136747203D01*
X74800001Y-136747204D01*
X74800000Y-136747204D01*
X74789500Y-136849983D01*
X74789500Y-138150001D01*
X74789501Y-138150018D01*
X74800000Y-138252796D01*
X74800001Y-138252799D01*
X74839303Y-138371402D01*
X74855186Y-138419334D01*
X74947288Y-138568656D01*
X75071344Y-138692712D01*
X75220666Y-138784814D01*
X75387203Y-138839999D01*
X75489991Y-138850500D01*
X76790008Y-138850499D01*
X76892797Y-138839999D01*
X77059334Y-138784814D01*
X77208656Y-138692712D01*
X77332712Y-138568656D01*
X77424814Y-138419334D01*
X77427662Y-138410738D01*
X77467429Y-138353294D01*
X77531944Y-138326468D01*
X77600720Y-138338779D01*
X77637483Y-138367766D01*
X77637677Y-138367573D01*
X77639313Y-138369209D01*
X77640354Y-138370030D01*
X77641501Y-138371397D01*
X77641504Y-138371400D01*
X77641505Y-138371401D01*
X77808599Y-138538495D01*
X77851675Y-138568657D01*
X78002165Y-138674032D01*
X78002167Y-138674033D01*
X78002170Y-138674035D01*
X78216337Y-138773903D01*
X78444592Y-138835063D01*
X78621034Y-138850500D01*
X78679999Y-138855659D01*
X78680000Y-138855659D01*
X78680001Y-138855659D01*
X78738966Y-138850500D01*
X78915408Y-138835063D01*
X79143663Y-138773903D01*
X79357830Y-138674035D01*
X79551401Y-138538495D01*
X79718495Y-138371401D01*
X79848732Y-138185403D01*
X79903307Y-138141780D01*
X79972805Y-138134586D01*
X80035160Y-138166109D01*
X80051880Y-138185405D01*
X80105073Y-138261373D01*
X80737037Y-137629409D01*
X80754075Y-137692993D01*
X80819901Y-137807007D01*
X80912993Y-137900099D01*
X81027007Y-137965925D01*
X81090590Y-137982962D01*
X80458625Y-138614925D01*
X80542421Y-138673599D01*
X80756507Y-138773429D01*
X80756516Y-138773433D01*
X80984673Y-138834567D01*
X80984684Y-138834569D01*
X81219998Y-138855157D01*
X81220002Y-138855157D01*
X81455315Y-138834569D01*
X81455326Y-138834567D01*
X81683483Y-138773433D01*
X81683492Y-138773429D01*
X81897578Y-138673600D01*
X81897582Y-138673598D01*
X81981373Y-138614926D01*
X81981373Y-138614925D01*
X81349409Y-137982962D01*
X81412993Y-137965925D01*
X81527007Y-137900099D01*
X81620099Y-137807007D01*
X81685925Y-137692993D01*
X81702962Y-137629410D01*
X82334925Y-138261373D01*
X82388425Y-138184968D01*
X82443002Y-138141344D01*
X82512501Y-138134151D01*
X82574855Y-138165673D01*
X82591576Y-138184969D01*
X82645073Y-138261372D01*
X83277037Y-137629409D01*
X83294075Y-137692993D01*
X83359901Y-137807007D01*
X83452993Y-137900099D01*
X83567007Y-137965925D01*
X83630590Y-137982962D01*
X82998625Y-138614925D01*
X83082421Y-138673599D01*
X83296507Y-138773429D01*
X83296516Y-138773433D01*
X83524673Y-138834567D01*
X83524684Y-138834569D01*
X83759998Y-138855157D01*
X83760002Y-138855157D01*
X83995315Y-138834569D01*
X83995326Y-138834567D01*
X84223483Y-138773433D01*
X84223492Y-138773429D01*
X84437578Y-138673600D01*
X84437582Y-138673598D01*
X84521373Y-138614926D01*
X84521373Y-138614925D01*
X83889409Y-137982962D01*
X83952993Y-137965925D01*
X84067007Y-137900099D01*
X84160099Y-137807007D01*
X84225925Y-137692993D01*
X84242962Y-137629410D01*
X84874925Y-138261373D01*
X84928425Y-138184968D01*
X84983002Y-138141344D01*
X85052501Y-138134151D01*
X85114855Y-138165673D01*
X85131576Y-138184969D01*
X85185073Y-138261372D01*
X85817037Y-137629409D01*
X85834075Y-137692993D01*
X85899901Y-137807007D01*
X85992993Y-137900099D01*
X86107007Y-137965925D01*
X86170590Y-137982962D01*
X85538625Y-138614925D01*
X85622421Y-138673599D01*
X85836507Y-138773429D01*
X85836516Y-138773433D01*
X86064673Y-138834567D01*
X86064684Y-138834569D01*
X86299998Y-138855157D01*
X86300002Y-138855157D01*
X86535315Y-138834569D01*
X86535326Y-138834567D01*
X86763483Y-138773433D01*
X86763492Y-138773429D01*
X86977578Y-138673600D01*
X86977582Y-138673598D01*
X87061373Y-138614926D01*
X87061373Y-138614925D01*
X86429409Y-137982962D01*
X86492993Y-137965925D01*
X86607007Y-137900099D01*
X86700099Y-137807007D01*
X86765925Y-137692993D01*
X86782962Y-137629410D01*
X87414925Y-138261373D01*
X87468119Y-138185405D01*
X87522696Y-138141781D01*
X87592195Y-138134588D01*
X87654549Y-138166110D01*
X87671269Y-138185405D01*
X87801505Y-138371401D01*
X87968599Y-138538495D01*
X88011675Y-138568657D01*
X88162165Y-138674032D01*
X88162167Y-138674033D01*
X88162170Y-138674035D01*
X88376337Y-138773903D01*
X88604592Y-138835063D01*
X88781034Y-138850500D01*
X88839999Y-138855659D01*
X88840000Y-138855659D01*
X88840001Y-138855659D01*
X88898966Y-138850500D01*
X89075408Y-138835063D01*
X89303663Y-138773903D01*
X89517830Y-138674035D01*
X89711401Y-138538495D01*
X89878495Y-138371401D01*
X90008425Y-138185842D01*
X90063002Y-138142217D01*
X90132500Y-138135023D01*
X90194855Y-138166546D01*
X90211575Y-138185842D01*
X90341500Y-138371395D01*
X90341505Y-138371401D01*
X90508599Y-138538495D01*
X90551675Y-138568657D01*
X90702165Y-138674032D01*
X90702167Y-138674033D01*
X90702170Y-138674035D01*
X90916337Y-138773903D01*
X91144592Y-138835063D01*
X91321034Y-138850500D01*
X91379999Y-138855659D01*
X91380000Y-138855659D01*
X91380001Y-138855659D01*
X91438966Y-138850500D01*
X91615408Y-138835063D01*
X91843663Y-138773903D01*
X92057830Y-138674035D01*
X92251401Y-138538495D01*
X92418495Y-138371401D01*
X92548425Y-138185842D01*
X92603002Y-138142217D01*
X92672500Y-138135023D01*
X92734855Y-138166546D01*
X92751575Y-138185842D01*
X92881500Y-138371395D01*
X92881505Y-138371401D01*
X93048599Y-138538495D01*
X93091675Y-138568657D01*
X93242165Y-138674032D01*
X93242167Y-138674033D01*
X93242170Y-138674035D01*
X93456337Y-138773903D01*
X93684592Y-138835063D01*
X93861034Y-138850500D01*
X93919999Y-138855659D01*
X93920000Y-138855659D01*
X93920001Y-138855659D01*
X93978966Y-138850500D01*
X94155408Y-138835063D01*
X94383663Y-138773903D01*
X94597830Y-138674035D01*
X94791401Y-138538495D01*
X94958495Y-138371401D01*
X95094035Y-138177830D01*
X95193903Y-137963663D01*
X95255063Y-137735408D01*
X95275659Y-137500000D01*
X95255063Y-137264592D01*
X95193903Y-137036337D01*
X95094035Y-136822171D01*
X95088731Y-136814595D01*
X94958494Y-136628597D01*
X94791402Y-136461506D01*
X94791396Y-136461501D01*
X94605842Y-136331575D01*
X94562217Y-136276998D01*
X94555023Y-136207500D01*
X94586546Y-136145145D01*
X94605842Y-136128425D01*
X94735766Y-136037451D01*
X94791401Y-135998495D01*
X94958495Y-135831401D01*
X95094035Y-135637830D01*
X95193903Y-135423663D01*
X95255063Y-135195408D01*
X95275659Y-134960000D01*
X95255063Y-134724592D01*
X95193903Y-134496337D01*
X95094035Y-134282171D01*
X95088731Y-134274595D01*
X94958494Y-134088597D01*
X94791402Y-133921506D01*
X94791395Y-133921501D01*
X94597834Y-133785967D01*
X94597830Y-133785965D01*
X94545500Y-133761563D01*
X94383663Y-133686097D01*
X94383659Y-133686096D01*
X94383655Y-133686094D01*
X94155413Y-133624938D01*
X94155403Y-133624936D01*
X93920001Y-133604341D01*
X93919999Y-133604341D01*
X93684596Y-133624936D01*
X93684586Y-133624938D01*
X93456344Y-133686094D01*
X93456335Y-133686098D01*
X93242171Y-133785964D01*
X93242169Y-133785965D01*
X93048597Y-133921505D01*
X92881505Y-134088597D01*
X92751575Y-134274158D01*
X92696998Y-134317783D01*
X92627500Y-134324977D01*
X92565145Y-134293454D01*
X92548425Y-134274158D01*
X92418494Y-134088597D01*
X92251402Y-133921506D01*
X92251395Y-133921501D01*
X92057834Y-133785967D01*
X92057830Y-133785965D01*
X92005500Y-133761563D01*
X91843663Y-133686097D01*
X91843659Y-133686096D01*
X91843655Y-133686094D01*
X91615413Y-133624938D01*
X91615403Y-133624936D01*
X91380001Y-133604341D01*
X91379999Y-133604341D01*
X91144596Y-133624936D01*
X91144586Y-133624938D01*
X90916344Y-133686094D01*
X90916335Y-133686098D01*
X90702171Y-133785964D01*
X90702169Y-133785965D01*
X90508597Y-133921505D01*
X90341505Y-134088597D01*
X90211575Y-134274158D01*
X90156998Y-134317783D01*
X90087500Y-134324977D01*
X90025145Y-134293454D01*
X90008425Y-134274158D01*
X89878494Y-134088597D01*
X89711402Y-133921506D01*
X89711395Y-133921501D01*
X89517834Y-133785967D01*
X89517830Y-133785965D01*
X89465500Y-133761563D01*
X89303663Y-133686097D01*
X89303659Y-133686096D01*
X89303655Y-133686094D01*
X89075413Y-133624938D01*
X89075403Y-133624936D01*
X88840001Y-133604341D01*
X88839999Y-133604341D01*
X88604596Y-133624936D01*
X88604586Y-133624938D01*
X88376344Y-133686094D01*
X88376335Y-133686098D01*
X88162171Y-133785964D01*
X88162169Y-133785965D01*
X87968597Y-133921505D01*
X87801505Y-134088597D01*
X87671269Y-134274595D01*
X87616692Y-134318220D01*
X87547194Y-134325414D01*
X87484839Y-134293891D01*
X87468119Y-134274595D01*
X87414925Y-134198626D01*
X87414925Y-134198625D01*
X86782962Y-134830589D01*
X86765925Y-134767007D01*
X86700099Y-134652993D01*
X86607007Y-134559901D01*
X86492993Y-134494075D01*
X86429410Y-134477037D01*
X87061373Y-133845073D01*
X87061373Y-133845072D01*
X86977583Y-133786402D01*
X86977579Y-133786400D01*
X86763492Y-133686570D01*
X86763483Y-133686566D01*
X86535326Y-133625432D01*
X86535315Y-133625430D01*
X86300002Y-133604843D01*
X86299998Y-133604843D01*
X86064684Y-133625430D01*
X86064673Y-133625432D01*
X85836516Y-133686566D01*
X85836507Y-133686570D01*
X85622419Y-133786401D01*
X85538625Y-133845072D01*
X86170590Y-134477037D01*
X86107007Y-134494075D01*
X85992993Y-134559901D01*
X85899901Y-134652993D01*
X85834075Y-134767007D01*
X85817037Y-134830590D01*
X85185072Y-134198625D01*
X85185072Y-134198626D01*
X85131574Y-134275030D01*
X85076998Y-134318655D01*
X85007499Y-134325849D01*
X84945144Y-134294326D01*
X84928424Y-134275030D01*
X84874925Y-134198626D01*
X84874925Y-134198625D01*
X84242962Y-134830589D01*
X84225925Y-134767007D01*
X84160099Y-134652993D01*
X84067007Y-134559901D01*
X83952993Y-134494075D01*
X83889410Y-134477037D01*
X84521373Y-133845073D01*
X84521373Y-133845072D01*
X84437583Y-133786402D01*
X84437579Y-133786400D01*
X84223492Y-133686570D01*
X84223483Y-133686566D01*
X83995326Y-133625432D01*
X83995315Y-133625430D01*
X83760002Y-133604843D01*
X83759998Y-133604843D01*
X83524684Y-133625430D01*
X83524673Y-133625432D01*
X83296516Y-133686566D01*
X83296507Y-133686570D01*
X83082419Y-133786401D01*
X82998625Y-133845072D01*
X83630590Y-134477037D01*
X83567007Y-134494075D01*
X83452993Y-134559901D01*
X83359901Y-134652993D01*
X83294075Y-134767007D01*
X83277037Y-134830590D01*
X82645072Y-134198625D01*
X82645072Y-134198626D01*
X82591574Y-134275030D01*
X82536998Y-134318655D01*
X82467499Y-134325849D01*
X82405144Y-134294326D01*
X82388424Y-134275030D01*
X82334925Y-134198626D01*
X82334925Y-134198625D01*
X81702962Y-134830589D01*
X81685925Y-134767007D01*
X81620099Y-134652993D01*
X81527007Y-134559901D01*
X81412993Y-134494075D01*
X81349410Y-134477037D01*
X81981373Y-133845073D01*
X81981373Y-133845072D01*
X81897583Y-133786402D01*
X81897579Y-133786400D01*
X81683492Y-133686570D01*
X81683483Y-133686566D01*
X81455326Y-133625432D01*
X81455315Y-133625430D01*
X81220002Y-133604843D01*
X81219998Y-133604843D01*
X80984684Y-133625430D01*
X80984673Y-133625432D01*
X80756516Y-133686566D01*
X80756507Y-133686570D01*
X80542419Y-133786401D01*
X80458625Y-133845072D01*
X81090590Y-134477037D01*
X81027007Y-134494075D01*
X80912993Y-134559901D01*
X80819901Y-134652993D01*
X80754075Y-134767007D01*
X80737037Y-134830590D01*
X80105073Y-134198626D01*
X80051881Y-134274594D01*
X79997304Y-134318219D01*
X79927806Y-134325413D01*
X79865451Y-134293891D01*
X79848730Y-134274594D01*
X79718494Y-134088597D01*
X79551402Y-133921506D01*
X79551395Y-133921501D01*
X79357834Y-133785967D01*
X79357830Y-133785965D01*
X79305500Y-133761563D01*
X79143663Y-133686097D01*
X79143659Y-133686096D01*
X79143655Y-133686094D01*
X78915413Y-133624938D01*
X78915403Y-133624936D01*
X78680001Y-133604341D01*
X78679999Y-133604341D01*
X78444596Y-133624936D01*
X78444586Y-133624938D01*
X78216344Y-133686094D01*
X78216335Y-133686098D01*
X78002171Y-133785964D01*
X78002169Y-133785965D01*
X77808597Y-133921505D01*
X77641505Y-134088597D01*
X77511575Y-134274158D01*
X77456998Y-134317783D01*
X77387500Y-134324977D01*
X77325145Y-134293454D01*
X77308425Y-134274158D01*
X77178494Y-134088597D01*
X77011402Y-133921506D01*
X77011395Y-133921501D01*
X76817834Y-133785967D01*
X76817830Y-133785965D01*
X76765500Y-133761563D01*
X76603663Y-133686097D01*
X76603659Y-133686096D01*
X76603655Y-133686094D01*
X76375413Y-133624938D01*
X76375403Y-133624936D01*
X76140001Y-133604341D01*
X76139999Y-133604341D01*
X75904596Y-133624936D01*
X75904586Y-133624938D01*
X75676344Y-133686094D01*
X75676335Y-133686098D01*
X75462171Y-133785964D01*
X75462169Y-133785965D01*
X75268597Y-133921505D01*
X75101505Y-134088597D01*
X74965965Y-134282169D01*
X74965964Y-134282171D01*
X74866098Y-134496335D01*
X74866094Y-134496344D01*
X74804938Y-134724586D01*
X74804936Y-134724596D01*
X74784341Y-134959999D01*
X60426000Y-134959999D01*
X60426000Y-111500000D01*
X70896751Y-111500000D01*
X70915731Y-111813781D01*
X70915731Y-111813786D01*
X70915732Y-111813787D01*
X70972397Y-112122998D01*
X70972398Y-112123002D01*
X70972399Y-112123006D01*
X71065913Y-112423106D01*
X71065917Y-112423118D01*
X71065920Y-112423125D01*
X71194937Y-112709790D01*
X71337638Y-112945846D01*
X71357567Y-112978812D01*
X71357573Y-112978821D01*
X71551442Y-113226276D01*
X71773723Y-113448557D01*
X71981682Y-113611483D01*
X72021186Y-113642432D01*
X72290210Y-113805063D01*
X72576875Y-113934080D01*
X72576888Y-113934084D01*
X72576893Y-113934086D01*
X72776959Y-113996428D01*
X72877002Y-114027603D01*
X73186213Y-114084268D01*
X73500000Y-114103249D01*
X73813787Y-114084268D01*
X74122998Y-114027603D01*
X74423125Y-113934080D01*
X74709790Y-113805063D01*
X74978814Y-113642432D01*
X75226273Y-113448560D01*
X75448560Y-113226273D01*
X75642432Y-112978814D01*
X75805063Y-112709790D01*
X75934080Y-112423125D01*
X76027603Y-112122998D01*
X76084268Y-111813787D01*
X76103249Y-111500000D01*
X76103249Y-111499994D01*
X79147728Y-111499994D01*
X79147728Y-111500005D01*
X79166784Y-111729979D01*
X79223435Y-111953691D01*
X79316135Y-112165027D01*
X79399230Y-112292214D01*
X79984469Y-111706976D01*
X79990548Y-111729661D01*
X80068882Y-111865338D01*
X80179662Y-111976118D01*
X80315339Y-112054452D01*
X80338022Y-112060529D01*
X79751544Y-112647006D01*
X79751545Y-112647007D01*
X79780762Y-112669747D01*
X79780764Y-112669748D01*
X79983720Y-112779583D01*
X79983729Y-112779586D01*
X80201987Y-112854515D01*
X80209570Y-112855781D01*
X80272455Y-112886231D01*
X80308895Y-112945846D01*
X80307320Y-113015698D01*
X80305344Y-113021420D01*
X80298409Y-113040015D01*
X80298408Y-113040016D01*
X80292001Y-113099616D01*
X80292000Y-113099635D01*
X80292000Y-114980370D01*
X80292001Y-114980376D01*
X80298408Y-115039983D01*
X80348702Y-115174828D01*
X80348706Y-115174835D01*
X80434952Y-115290044D01*
X80434955Y-115290047D01*
X80550164Y-115376293D01*
X80550171Y-115376297D01*
X80685017Y-115426591D01*
X80685016Y-115426591D01*
X80691944Y-115427335D01*
X80744627Y-115433000D01*
X82625372Y-115432999D01*
X82684983Y-115426591D01*
X82819831Y-115376296D01*
X82935046Y-115290046D01*
X82994831Y-115210182D01*
X83050763Y-115168312D01*
X83120455Y-115163328D01*
X83170260Y-115186641D01*
X83199947Y-115209748D01*
X83200490Y-115210170D01*
X83403521Y-115320044D01*
X83621867Y-115395002D01*
X83849573Y-115433000D01*
X83849574Y-115433000D01*
X84080426Y-115433000D01*
X84080427Y-115433000D01*
X84308133Y-115395002D01*
X84526479Y-115320044D01*
X84729510Y-115210170D01*
X84730054Y-115209747D01*
X84876031Y-115096128D01*
X84911687Y-115068376D01*
X85013772Y-114957481D01*
X85073656Y-114921492D01*
X85143495Y-114923591D01*
X85196227Y-114957481D01*
X85278308Y-115046644D01*
X85298310Y-115068373D01*
X85298319Y-115068381D01*
X85480481Y-115210164D01*
X85480488Y-115210168D01*
X85480490Y-115210170D01*
X85683521Y-115320044D01*
X85901867Y-115395002D01*
X86129573Y-115433000D01*
X86129574Y-115433000D01*
X86360426Y-115433000D01*
X86360427Y-115433000D01*
X86588133Y-115395002D01*
X86806479Y-115320044D01*
X87009510Y-115210170D01*
X87010054Y-115209747D01*
X87156031Y-115096128D01*
X87191687Y-115068376D01*
X87293772Y-114957481D01*
X87353656Y-114921492D01*
X87423495Y-114923591D01*
X87476227Y-114957481D01*
X87558308Y-115046644D01*
X87578310Y-115068373D01*
X87578319Y-115068381D01*
X87760481Y-115210164D01*
X87760488Y-115210168D01*
X87760490Y-115210170D01*
X87963521Y-115320044D01*
X88181867Y-115395002D01*
X88409573Y-115433000D01*
X88409574Y-115433000D01*
X88640426Y-115433000D01*
X88640427Y-115433000D01*
X88868133Y-115395002D01*
X89086479Y-115320044D01*
X89289510Y-115210170D01*
X89290054Y-115209747D01*
X89436031Y-115096128D01*
X89471687Y-115068376D01*
X89628040Y-114898531D01*
X89687210Y-114807964D01*
X89703329Y-114788116D01*
X90244469Y-114246976D01*
X90250548Y-114269661D01*
X90328882Y-114405338D01*
X90439662Y-114516118D01*
X90575339Y-114594452D01*
X90598022Y-114600529D01*
X90011544Y-115187006D01*
X90011545Y-115187007D01*
X90040762Y-115209747D01*
X90040764Y-115209748D01*
X90243720Y-115319583D01*
X90243729Y-115319586D01*
X90461987Y-115394515D01*
X90689615Y-115432500D01*
X90920385Y-115432500D01*
X91148012Y-115394515D01*
X91366270Y-115319586D01*
X91366279Y-115319583D01*
X91569237Y-115209747D01*
X91598453Y-115187007D01*
X91598453Y-115187006D01*
X91011977Y-114600530D01*
X91034661Y-114594452D01*
X91170338Y-114516118D01*
X91281118Y-114405338D01*
X91359452Y-114269661D01*
X91365529Y-114246977D01*
X91950767Y-114832215D01*
X92033863Y-114705029D01*
X92126564Y-114493691D01*
X92183215Y-114269979D01*
X92202272Y-114040005D01*
X92202272Y-114039994D01*
X92183215Y-113810020D01*
X92126564Y-113586308D01*
X92033865Y-113374975D01*
X91950767Y-113247783D01*
X91365529Y-113833021D01*
X91359452Y-113810339D01*
X91281118Y-113674662D01*
X91170338Y-113563882D01*
X91034661Y-113485548D01*
X91011977Y-113479470D01*
X91598453Y-112892993D01*
X91598453Y-112892991D01*
X91569239Y-112870254D01*
X91366278Y-112760416D01*
X91366270Y-112760413D01*
X91148012Y-112685484D01*
X90920385Y-112647500D01*
X90689614Y-112647500D01*
X90554890Y-112669981D01*
X90485525Y-112661599D01*
X90446800Y-112635353D01*
X89871977Y-112060530D01*
X89894661Y-112054452D01*
X90030338Y-111976118D01*
X90141118Y-111865338D01*
X90219452Y-111729661D01*
X90225529Y-111706977D01*
X90810767Y-112292215D01*
X90893863Y-112165029D01*
X90986564Y-111953691D01*
X91043215Y-111729979D01*
X91062272Y-111500005D01*
X91062272Y-111499994D01*
X91043215Y-111270020D01*
X90986564Y-111046308D01*
X90893865Y-110834975D01*
X90810767Y-110707783D01*
X90225529Y-111293021D01*
X90219452Y-111270339D01*
X90141118Y-111134662D01*
X90030338Y-111023882D01*
X89894661Y-110945548D01*
X89871977Y-110939469D01*
X90446366Y-110365080D01*
X90507689Y-110331595D01*
X90554453Y-110330452D01*
X90689573Y-110353000D01*
X90689575Y-110353000D01*
X90920426Y-110353000D01*
X90920427Y-110353000D01*
X91148133Y-110315002D01*
X91366479Y-110240044D01*
X91569510Y-110130170D01*
X91598637Y-110107500D01*
X91646354Y-110070360D01*
X91751687Y-109988376D01*
X91908040Y-109818531D01*
X92034306Y-109625267D01*
X92127039Y-109413856D01*
X92183710Y-109190066D01*
X92196076Y-109040832D01*
X92202774Y-108960005D01*
X92202774Y-108959994D01*
X92183710Y-108729937D01*
X92183710Y-108729934D01*
X92127039Y-108506144D01*
X92034306Y-108294733D01*
X92011403Y-108259678D01*
X91945000Y-108158040D01*
X91908040Y-108101469D01*
X91751687Y-107931624D01*
X91751682Y-107931620D01*
X91751680Y-107931618D01*
X91569518Y-107789835D01*
X91569507Y-107789828D01*
X91366485Y-107679959D01*
X91366482Y-107679957D01*
X91366479Y-107679956D01*
X91366476Y-107679955D01*
X91366474Y-107679954D01*
X91148135Y-107604998D01*
X90996329Y-107579666D01*
X90920427Y-107567000D01*
X90689573Y-107567000D01*
X90632646Y-107576499D01*
X90461864Y-107604998D01*
X90243525Y-107679954D01*
X90243514Y-107679959D01*
X90040492Y-107789828D01*
X90040481Y-107789835D01*
X89858319Y-107931618D01*
X89858315Y-107931621D01*
X89756230Y-108042516D01*
X89696343Y-108078507D01*
X89626504Y-108076406D01*
X89573770Y-108042516D01*
X89562912Y-108030721D01*
X89471687Y-107931624D01*
X89471686Y-107931623D01*
X89471684Y-107931621D01*
X89471680Y-107931618D01*
X89289518Y-107789835D01*
X89289507Y-107789828D01*
X89086485Y-107679959D01*
X89086482Y-107679957D01*
X89086479Y-107679956D01*
X89086476Y-107679955D01*
X89086474Y-107679954D01*
X88868135Y-107604998D01*
X88777052Y-107589799D01*
X88714167Y-107559348D01*
X88677727Y-107499733D01*
X88679303Y-107429882D01*
X88709777Y-107379813D01*
X88801774Y-107287816D01*
X88863096Y-107254334D01*
X88889453Y-107251500D01*
X92202252Y-107251500D01*
X92269291Y-107271185D01*
X92294400Y-107292526D01*
X92300126Y-107298885D01*
X92300130Y-107298889D01*
X92453265Y-107410148D01*
X92453270Y-107410151D01*
X92626192Y-107487142D01*
X92626197Y-107487144D01*
X92811354Y-107526500D01*
X92811355Y-107526500D01*
X93000644Y-107526500D01*
X93000646Y-107526500D01*
X93185803Y-107487144D01*
X93358730Y-107410151D01*
X93358733Y-107410148D01*
X93364363Y-107406899D01*
X93365904Y-107409569D01*
X93418948Y-107390415D01*
X93487062Y-107405980D01*
X93535948Y-107455900D01*
X93550500Y-107514185D01*
X93550500Y-113561353D01*
X93530815Y-113628392D01*
X93514181Y-113649034D01*
X91039034Y-116124181D01*
X90977711Y-116157666D01*
X90951353Y-116160500D01*
X86948748Y-116160500D01*
X86881709Y-116140815D01*
X86856600Y-116119474D01*
X86850873Y-116113114D01*
X86850869Y-116113110D01*
X86697734Y-116001851D01*
X86697729Y-116001848D01*
X86524807Y-115924857D01*
X86524802Y-115924855D01*
X86379001Y-115893865D01*
X86339646Y-115885500D01*
X86150354Y-115885500D01*
X86117897Y-115892398D01*
X85965197Y-115924855D01*
X85965192Y-115924857D01*
X85792270Y-116001848D01*
X85792265Y-116001851D01*
X85639129Y-116113111D01*
X85512466Y-116253785D01*
X85417821Y-116417715D01*
X85417818Y-116417722D01*
X85359327Y-116597740D01*
X85359326Y-116597744D01*
X85343744Y-116745999D01*
X85339540Y-116786002D01*
X85339540Y-116792498D01*
X85338218Y-116792498D01*
X85326924Y-116854265D01*
X85279193Y-116905290D01*
X85216171Y-116922500D01*
X84668748Y-116922500D01*
X84601709Y-116902815D01*
X84576600Y-116881474D01*
X84570873Y-116875114D01*
X84570869Y-116875110D01*
X84417734Y-116763851D01*
X84417729Y-116763848D01*
X84244807Y-116686857D01*
X84244802Y-116686855D01*
X84099001Y-116655865D01*
X84059646Y-116647500D01*
X83870354Y-116647500D01*
X83837897Y-116654398D01*
X83685197Y-116686855D01*
X83685192Y-116686857D01*
X83512270Y-116763848D01*
X83512265Y-116763851D01*
X83359129Y-116875111D01*
X83232466Y-117015785D01*
X83137821Y-117179715D01*
X83137818Y-117179722D01*
X83084272Y-117344521D01*
X83079326Y-117359744D01*
X83060136Y-117542331D01*
X83059540Y-117548002D01*
X83059540Y-117550500D01*
X83059131Y-117551892D01*
X83058861Y-117554463D01*
X83058390Y-117554413D01*
X83039855Y-117617539D01*
X82987051Y-117663294D01*
X82935540Y-117674500D01*
X82403748Y-117674500D01*
X82336709Y-117654815D01*
X82311600Y-117633474D01*
X82305873Y-117627114D01*
X82305869Y-117627110D01*
X82152734Y-117515851D01*
X82152729Y-117515848D01*
X81979807Y-117438857D01*
X81979802Y-117438855D01*
X81834001Y-117407865D01*
X81794646Y-117399500D01*
X81605354Y-117399500D01*
X81572897Y-117406398D01*
X81420197Y-117438855D01*
X81420192Y-117438857D01*
X81247270Y-117515848D01*
X81247265Y-117515851D01*
X81094129Y-117627111D01*
X80967466Y-117767785D01*
X80872821Y-117931715D01*
X80872818Y-117931722D01*
X80821945Y-118088294D01*
X80814326Y-118111744D01*
X80794540Y-118300000D01*
X80814326Y-118488256D01*
X80814327Y-118488259D01*
X80872818Y-118668277D01*
X80872821Y-118668284D01*
X80967467Y-118832216D01*
X81068425Y-118944341D01*
X81094129Y-118972888D01*
X81247265Y-119084148D01*
X81247270Y-119084151D01*
X81420192Y-119161142D01*
X81420197Y-119161144D01*
X81605354Y-119200500D01*
X81605355Y-119200500D01*
X81794644Y-119200500D01*
X81794646Y-119200500D01*
X81979803Y-119161144D01*
X82152730Y-119084151D01*
X82305871Y-118972888D01*
X82308788Y-118969647D01*
X82311600Y-118966526D01*
X82371087Y-118929879D01*
X82403748Y-118925500D01*
X91161608Y-118925500D01*
X91161608Y-118925499D01*
X91237013Y-118910501D01*
X91237014Y-118910501D01*
X91248450Y-118908226D01*
X91282452Y-118901463D01*
X91332496Y-118880734D01*
X91396286Y-118854312D01*
X91455120Y-118814999D01*
X91498733Y-118785858D01*
X91585858Y-118698733D01*
X91585859Y-118698731D01*
X91592925Y-118691665D01*
X91592928Y-118691661D01*
X95474729Y-114809860D01*
X95474733Y-114809858D01*
X95561858Y-114722733D01*
X95596084Y-114671509D01*
X95630312Y-114620286D01*
X95639702Y-114597616D01*
X95664357Y-114538093D01*
X95664370Y-114538059D01*
X95664388Y-114538017D01*
X95677463Y-114506452D01*
X95701500Y-114385606D01*
X95701500Y-112009318D01*
X95721185Y-111942279D01*
X95773989Y-111896524D01*
X95843147Y-111886580D01*
X95906703Y-111915605D01*
X95944477Y-111974383D01*
X95947465Y-111986951D01*
X95972397Y-112122998D01*
X95972398Y-112123002D01*
X95972399Y-112123006D01*
X96065913Y-112423106D01*
X96065917Y-112423118D01*
X96065920Y-112423125D01*
X96194937Y-112709790D01*
X96337638Y-112945846D01*
X96357567Y-112978812D01*
X96357573Y-112978821D01*
X96551442Y-113226276D01*
X96773723Y-113448557D01*
X96981682Y-113611483D01*
X97021186Y-113642432D01*
X97290210Y-113805063D01*
X97576875Y-113934080D01*
X97576888Y-113934084D01*
X97576893Y-113934086D01*
X97776959Y-113996428D01*
X97877002Y-114027603D01*
X98186213Y-114084268D01*
X98500000Y-114103249D01*
X98813787Y-114084268D01*
X99122998Y-114027603D01*
X99423125Y-113934080D01*
X99709790Y-113805063D01*
X99978814Y-113642432D01*
X100226273Y-113448560D01*
X100448560Y-113226273D01*
X100642432Y-112978814D01*
X100805063Y-112709790D01*
X100934080Y-112423125D01*
X101027603Y-112122998D01*
X101084268Y-111813787D01*
X101103249Y-111500000D01*
X101084268Y-111186213D01*
X101027603Y-110877002D01*
X100980864Y-110727011D01*
X100934086Y-110576893D01*
X100934084Y-110576888D01*
X100934080Y-110576875D01*
X100805063Y-110290210D01*
X100642432Y-110021186D01*
X100639655Y-110017642D01*
X100448557Y-109773723D01*
X100226276Y-109551442D01*
X99978821Y-109357573D01*
X99978816Y-109357570D01*
X99978814Y-109357568D01*
X99709790Y-109194937D01*
X99423125Y-109065920D01*
X99423118Y-109065917D01*
X99423106Y-109065913D01*
X99123006Y-108972399D01*
X99123002Y-108972398D01*
X99122998Y-108972397D01*
X98813787Y-108915732D01*
X98813786Y-108915731D01*
X98813781Y-108915731D01*
X98500000Y-108896751D01*
X98186218Y-108915731D01*
X98186213Y-108915732D01*
X97877002Y-108972397D01*
X97876999Y-108972397D01*
X97876993Y-108972399D01*
X97576893Y-109065913D01*
X97576877Y-109065919D01*
X97576875Y-109065920D01*
X97514484Y-109094000D01*
X97301042Y-109190062D01*
X97290210Y-109194937D01*
X97228543Y-109232216D01*
X97021187Y-109357567D01*
X97021178Y-109357573D01*
X96773723Y-109551442D01*
X96551442Y-109773723D01*
X96357573Y-110021178D01*
X96357567Y-110021187D01*
X96305423Y-110107444D01*
X96196273Y-110288001D01*
X96194936Y-110290212D01*
X96194935Y-110290214D01*
X96171094Y-110343187D01*
X96073073Y-110560983D01*
X96065919Y-110576878D01*
X96065913Y-110576893D01*
X95972399Y-110876993D01*
X95972397Y-110876999D01*
X95972397Y-110877002D01*
X95947468Y-111013034D01*
X95916022Y-111075426D01*
X95855836Y-111110913D01*
X95786018Y-111108227D01*
X95728735Y-111068222D01*
X95702175Y-111003597D01*
X95701500Y-110990681D01*
X95701500Y-107055244D01*
X95721185Y-106988205D01*
X95737819Y-106967563D01*
X96032878Y-106672504D01*
X96383965Y-106321416D01*
X96445286Y-106287933D01*
X96514977Y-106292917D01*
X96570911Y-106334788D01*
X96595328Y-106400253D01*
X96592937Y-106434868D01*
X96592327Y-106437737D01*
X96592327Y-106437740D01*
X96592326Y-106437744D01*
X96572540Y-106626000D01*
X96592326Y-106814256D01*
X96592327Y-106814259D01*
X96650818Y-106994277D01*
X96650821Y-106994284D01*
X96745467Y-107158216D01*
X96862162Y-107287819D01*
X96872129Y-107298888D01*
X97025265Y-107410148D01*
X97025270Y-107410151D01*
X97198192Y-107487142D01*
X97198197Y-107487144D01*
X97383354Y-107526500D01*
X97383355Y-107526500D01*
X97572644Y-107526500D01*
X97572646Y-107526500D01*
X97757803Y-107487144D01*
X97930730Y-107410151D01*
X98083871Y-107298888D01*
X98086788Y-107295647D01*
X98089600Y-107292526D01*
X98149087Y-107255879D01*
X98181748Y-107251500D01*
X105482095Y-107251500D01*
X105549134Y-107271185D01*
X105569776Y-107287819D01*
X106181663Y-107899706D01*
X106215148Y-107961029D01*
X106210164Y-108030721D01*
X106168292Y-108086654D01*
X106109524Y-108110409D01*
X105994627Y-108124924D01*
X105994620Y-108124926D01*
X105689926Y-108203159D01*
X105397455Y-108318955D01*
X105397447Y-108318959D01*
X105121787Y-108470504D01*
X105121782Y-108470507D01*
X104878972Y-108646918D01*
X104878971Y-108646919D01*
X105845466Y-109613413D01*
X105714825Y-109708329D01*
X105586829Y-109836325D01*
X105491913Y-109966965D01*
X104528286Y-109003338D01*
X104528285Y-109003338D01*
X104437459Y-109113129D01*
X104437457Y-109113132D01*
X104268903Y-109378732D01*
X104268900Y-109378738D01*
X104134965Y-109663362D01*
X104134963Y-109663367D01*
X104037755Y-109962541D01*
X103978808Y-110271550D01*
X103978807Y-110271557D01*
X103959057Y-110585494D01*
X103959057Y-110585505D01*
X103978807Y-110899442D01*
X103978808Y-110899449D01*
X104037755Y-111208458D01*
X104134963Y-111507632D01*
X104134965Y-111507637D01*
X104268900Y-111792261D01*
X104268903Y-111792267D01*
X104437457Y-112057867D01*
X104437460Y-112057871D01*
X104528286Y-112167660D01*
X105491913Y-111204033D01*
X105586829Y-111334675D01*
X105714825Y-111462671D01*
X105845465Y-111557586D01*
X104878971Y-112524079D01*
X104878972Y-112524081D01*
X105121772Y-112700485D01*
X105121790Y-112700496D01*
X105397447Y-112852040D01*
X105397455Y-112852044D01*
X105689926Y-112967840D01*
X105994620Y-113046073D01*
X105994629Y-113046075D01*
X106306701Y-113085499D01*
X106306715Y-113085500D01*
X106621285Y-113085500D01*
X106621298Y-113085499D01*
X106933370Y-113046075D01*
X106933379Y-113046073D01*
X107238073Y-112967840D01*
X107530544Y-112852044D01*
X107530552Y-112852040D01*
X107806209Y-112700496D01*
X107806219Y-112700490D01*
X108049026Y-112524079D01*
X108049027Y-112524079D01*
X107082533Y-111557586D01*
X107213175Y-111462671D01*
X107341171Y-111334675D01*
X107436086Y-111204034D01*
X108399712Y-112167660D01*
X108490544Y-112057864D01*
X108659096Y-111792267D01*
X108659099Y-111792261D01*
X108793034Y-111507637D01*
X108793036Y-111507632D01*
X108890244Y-111208458D01*
X108949191Y-110899449D01*
X108949192Y-110899442D01*
X108968943Y-110585505D01*
X108968943Y-110585494D01*
X108949192Y-110271557D01*
X108949191Y-110271553D01*
X108930341Y-110172736D01*
X108937115Y-110103195D01*
X108980410Y-110048356D01*
X109046480Y-110025629D01*
X109052145Y-110025500D01*
X115875854Y-110025500D01*
X115942893Y-110045185D01*
X115988648Y-110097989D01*
X115998592Y-110167147D01*
X115997658Y-110172735D01*
X115978808Y-110271550D01*
X115978807Y-110271557D01*
X115959057Y-110585494D01*
X115959057Y-110585505D01*
X115978807Y-110899442D01*
X115978808Y-110899449D01*
X116037755Y-111208458D01*
X116134963Y-111507632D01*
X116134965Y-111507637D01*
X116268900Y-111792261D01*
X116268903Y-111792267D01*
X116437457Y-112057867D01*
X116437460Y-112057871D01*
X116528286Y-112167660D01*
X117491912Y-111204033D01*
X117586829Y-111334675D01*
X117714825Y-111462671D01*
X117845465Y-111557586D01*
X116878971Y-112524079D01*
X116878972Y-112524081D01*
X117121772Y-112700485D01*
X117121790Y-112700496D01*
X117397447Y-112852040D01*
X117397455Y-112852044D01*
X117689926Y-112967840D01*
X117994620Y-113046073D01*
X117994629Y-113046075D01*
X118306701Y-113085499D01*
X118306715Y-113085500D01*
X118621285Y-113085500D01*
X118621298Y-113085499D01*
X118933370Y-113046075D01*
X118933379Y-113046073D01*
X119238073Y-112967840D01*
X119530544Y-112852044D01*
X119530552Y-112852040D01*
X119806209Y-112700496D01*
X119806219Y-112700490D01*
X120049026Y-112524079D01*
X120049027Y-112524079D01*
X119082533Y-111557586D01*
X119213175Y-111462671D01*
X119341171Y-111334675D01*
X119436086Y-111204034D01*
X120399712Y-112167660D01*
X120490544Y-112057864D01*
X120659096Y-111792267D01*
X120659099Y-111792261D01*
X120793034Y-111507637D01*
X120793036Y-111507632D01*
X120890244Y-111208458D01*
X120949191Y-110899449D01*
X120949192Y-110899442D01*
X120968943Y-110585505D01*
X120968943Y-110585494D01*
X120949192Y-110271557D01*
X120949191Y-110271550D01*
X120890244Y-109962541D01*
X120793036Y-109663367D01*
X120793034Y-109663362D01*
X120659099Y-109378738D01*
X120659096Y-109378732D01*
X120490542Y-109113132D01*
X120490539Y-109113128D01*
X120399712Y-109003338D01*
X119436085Y-109966964D01*
X119341171Y-109836325D01*
X119213175Y-109708329D01*
X119082533Y-109613412D01*
X119867961Y-108827985D01*
X121990000Y-108827985D01*
X122000493Y-108930689D01*
X122000494Y-108930696D01*
X122055641Y-109097118D01*
X122055643Y-109097123D01*
X122147684Y-109246344D01*
X122271655Y-109370315D01*
X122420876Y-109462356D01*
X122420881Y-109462358D01*
X122587303Y-109517505D01*
X122587310Y-109517506D01*
X122690014Y-109527999D01*
X122690027Y-109528000D01*
X123415000Y-109528000D01*
X123415000Y-108528000D01*
X121990000Y-108528000D01*
X121990000Y-108827985D01*
X119867961Y-108827985D01*
X120049027Y-108646919D01*
X120049026Y-108646917D01*
X119806227Y-108470514D01*
X119806209Y-108470503D01*
X119530552Y-108318959D01*
X119530544Y-108318955D01*
X119238073Y-108203159D01*
X118933379Y-108124926D01*
X118933370Y-108124924D01*
X118621298Y-108085500D01*
X118343179Y-108085500D01*
X118276140Y-108065815D01*
X118230385Y-108013011D01*
X118220441Y-107943853D01*
X118249466Y-107880297D01*
X118255498Y-107873819D01*
X118467498Y-107661819D01*
X118528821Y-107628334D01*
X118555179Y-107625500D01*
X121866000Y-107625500D01*
X121933039Y-107645185D01*
X121978794Y-107697989D01*
X121990000Y-107749500D01*
X121990000Y-108028000D01*
X123791000Y-108028000D01*
X123858039Y-108047685D01*
X123903794Y-108100489D01*
X123915000Y-108152000D01*
X123915000Y-109528000D01*
X124639973Y-109528000D01*
X124639985Y-109527999D01*
X124742689Y-109517506D01*
X124742696Y-109517505D01*
X124909118Y-109462358D01*
X124909123Y-109462356D01*
X125058344Y-109370315D01*
X125182315Y-109246344D01*
X125274356Y-109097123D01*
X125274358Y-109097118D01*
X125300294Y-109018849D01*
X125340066Y-108961404D01*
X125404582Y-108934581D01*
X125473358Y-108946896D01*
X125524558Y-108994439D01*
X125535706Y-109018849D01*
X125561641Y-109097118D01*
X125561643Y-109097123D01*
X125653684Y-109246344D01*
X125777655Y-109370315D01*
X125926876Y-109462356D01*
X125926881Y-109462358D01*
X126093303Y-109517505D01*
X126093310Y-109517506D01*
X126196014Y-109527999D01*
X126196027Y-109528000D01*
X126921000Y-109528000D01*
X127421000Y-109528000D01*
X128145973Y-109528000D01*
X128145985Y-109527999D01*
X128248689Y-109517506D01*
X128248696Y-109517505D01*
X128415118Y-109462358D01*
X128415123Y-109462356D01*
X128564344Y-109370315D01*
X128688315Y-109246344D01*
X128780356Y-109097123D01*
X128780358Y-109097118D01*
X128835505Y-108930696D01*
X128835506Y-108930689D01*
X128845999Y-108827985D01*
X128846000Y-108827972D01*
X128846000Y-108528000D01*
X127421000Y-108528000D01*
X127421000Y-109528000D01*
X126921000Y-109528000D01*
X126921000Y-108152000D01*
X126940685Y-108084961D01*
X126993489Y-108039206D01*
X127045000Y-108028000D01*
X128846000Y-108028000D01*
X128846000Y-107749500D01*
X128865685Y-107682461D01*
X128918489Y-107636706D01*
X128970000Y-107625500D01*
X130002500Y-107625500D01*
X130069539Y-107645185D01*
X130115294Y-107697989D01*
X130126500Y-107749500D01*
X130126500Y-112413311D01*
X130149388Y-112528376D01*
X130150537Y-112534153D01*
X130159640Y-112556129D01*
X130161718Y-112561146D01*
X130161717Y-112561146D01*
X130197685Y-112647982D01*
X130197690Y-112647991D01*
X130222419Y-112684999D01*
X130222420Y-112685000D01*
X130266141Y-112750433D01*
X130266144Y-112750437D01*
X130357586Y-112841879D01*
X130357608Y-112841899D01*
X132002733Y-114487024D01*
X132036218Y-114548347D01*
X132031234Y-114618039D01*
X131989362Y-114673972D01*
X131923898Y-114698389D01*
X131876048Y-114692411D01*
X131869334Y-114690186D01*
X131702797Y-114635001D01*
X131702795Y-114635000D01*
X131600010Y-114624500D01*
X130599998Y-114624500D01*
X130599980Y-114624501D01*
X130497203Y-114635000D01*
X130497200Y-114635001D01*
X130330668Y-114690185D01*
X130330663Y-114690187D01*
X130181342Y-114782289D01*
X130052181Y-114911451D01*
X130050294Y-114909564D01*
X130003375Y-114942788D01*
X129963132Y-114949500D01*
X129343453Y-114949500D01*
X129276414Y-114929815D01*
X129255772Y-114913181D01*
X127880960Y-113538369D01*
X127847475Y-113477046D01*
X127845323Y-113463668D01*
X127827674Y-113295744D01*
X127769179Y-113115716D01*
X127766886Y-113111744D01*
X127709113Y-113011677D01*
X127692500Y-112949677D01*
X127692500Y-112902500D01*
X127712185Y-112835461D01*
X127764989Y-112789706D01*
X127816500Y-112778500D01*
X128146003Y-112778500D01*
X128146008Y-112778500D01*
X128248797Y-112767999D01*
X128415334Y-112712814D01*
X128564655Y-112620711D01*
X128688711Y-112496655D01*
X128780814Y-112347334D01*
X128835999Y-112180797D01*
X128846500Y-112078008D01*
X128846500Y-110977992D01*
X128835999Y-110875203D01*
X128780814Y-110708666D01*
X128780269Y-110707783D01*
X128688713Y-110559348D01*
X128688710Y-110559344D01*
X128564655Y-110435289D01*
X128564651Y-110435286D01*
X128415337Y-110343187D01*
X128415335Y-110343186D01*
X128283637Y-110299546D01*
X128248797Y-110288001D01*
X128248795Y-110288000D01*
X128146015Y-110277500D01*
X128146008Y-110277500D01*
X126195992Y-110277500D01*
X126195984Y-110277500D01*
X126093204Y-110288000D01*
X126093203Y-110288001D01*
X125926664Y-110343186D01*
X125926662Y-110343187D01*
X125777348Y-110435286D01*
X125777344Y-110435289D01*
X125653289Y-110559344D01*
X125653286Y-110559348D01*
X125561187Y-110708662D01*
X125561186Y-110708664D01*
X125535706Y-110785560D01*
X125495933Y-110843005D01*
X125431418Y-110869828D01*
X125362642Y-110857513D01*
X125311442Y-110809970D01*
X125300294Y-110785560D01*
X125282554Y-110732025D01*
X125274814Y-110708666D01*
X125274269Y-110707783D01*
X125182713Y-110559348D01*
X125182710Y-110559344D01*
X125058655Y-110435289D01*
X125058651Y-110435286D01*
X124909337Y-110343187D01*
X124909335Y-110343186D01*
X124777637Y-110299546D01*
X124742797Y-110288001D01*
X124742795Y-110288000D01*
X124640015Y-110277500D01*
X124640008Y-110277500D01*
X122689992Y-110277500D01*
X122689984Y-110277500D01*
X122587204Y-110288000D01*
X122587203Y-110288001D01*
X122420664Y-110343186D01*
X122420662Y-110343187D01*
X122271348Y-110435286D01*
X122271344Y-110435289D01*
X122147289Y-110559344D01*
X122147286Y-110559348D01*
X122055187Y-110708662D01*
X122055186Y-110708664D01*
X122000001Y-110875203D01*
X122000000Y-110875204D01*
X121989500Y-110977984D01*
X121989500Y-112078015D01*
X122000000Y-112180795D01*
X122000001Y-112180797D01*
X122022308Y-112248116D01*
X122055186Y-112347335D01*
X122055187Y-112347337D01*
X122147286Y-112496651D01*
X122147289Y-112496655D01*
X122271344Y-112620710D01*
X122271348Y-112620713D01*
X122420662Y-112712812D01*
X122420664Y-112712813D01*
X122420666Y-112712814D01*
X122587203Y-112767999D01*
X122689992Y-112778500D01*
X123273500Y-112778500D01*
X123340539Y-112798185D01*
X123386294Y-112850989D01*
X123397500Y-112902500D01*
X123397500Y-112949677D01*
X123380887Y-113011677D01*
X123320821Y-113115714D01*
X123263580Y-113291884D01*
X123262326Y-113295744D01*
X123242540Y-113484000D01*
X123262326Y-113672256D01*
X123262327Y-113672259D01*
X123320818Y-113852277D01*
X123320821Y-113852284D01*
X123415467Y-114016216D01*
X123489315Y-114098232D01*
X123542129Y-114156888D01*
X123695265Y-114268148D01*
X123695270Y-114268151D01*
X123868192Y-114345142D01*
X123868195Y-114345143D01*
X123868197Y-114345144D01*
X124053354Y-114384500D01*
X124053355Y-114384500D01*
X124242644Y-114384500D01*
X124242646Y-114384500D01*
X124427803Y-114345144D01*
X124600730Y-114268151D01*
X124753871Y-114156888D01*
X124880533Y-114016216D01*
X124975179Y-113852284D01*
X125033674Y-113672256D01*
X125053460Y-113484000D01*
X125033674Y-113295744D01*
X124975179Y-113115716D01*
X124972886Y-113111744D01*
X124915113Y-113011677D01*
X124898500Y-112949677D01*
X124898500Y-112788702D01*
X124918185Y-112721663D01*
X124957399Y-112683166D01*
X125058655Y-112620711D01*
X125182711Y-112496655D01*
X125274814Y-112347334D01*
X125300294Y-112270439D01*
X125340066Y-112212994D01*
X125404582Y-112186171D01*
X125473358Y-112198486D01*
X125524558Y-112246028D01*
X125535706Y-112270440D01*
X125561185Y-112347332D01*
X125561187Y-112347337D01*
X125653286Y-112496651D01*
X125653289Y-112496655D01*
X125777344Y-112620710D01*
X125777348Y-112620713D01*
X125926662Y-112712812D01*
X125926664Y-112712813D01*
X125926666Y-112712814D01*
X126093203Y-112767999D01*
X126093216Y-112768000D01*
X126093448Y-112768050D01*
X126093588Y-112768125D01*
X126099630Y-112770128D01*
X126099273Y-112771205D01*
X126154884Y-112801328D01*
X126188576Y-112862537D01*
X126191500Y-112889305D01*
X126191500Y-112949677D01*
X126174887Y-113011677D01*
X126114821Y-113115714D01*
X126057580Y-113291884D01*
X126056326Y-113295744D01*
X126036540Y-113484000D01*
X126056326Y-113672256D01*
X126056327Y-113672259D01*
X126114818Y-113852277D01*
X126114821Y-113852284D01*
X126209467Y-114016216D01*
X126283315Y-114098232D01*
X126336129Y-114156888D01*
X126489265Y-114268148D01*
X126489270Y-114268151D01*
X126662192Y-114345142D01*
X126662195Y-114345143D01*
X126662197Y-114345144D01*
X126847354Y-114384500D01*
X126906548Y-114384500D01*
X126973587Y-114404185D01*
X126994229Y-114420819D01*
X128625227Y-116051819D01*
X128658712Y-116113142D01*
X128653728Y-116182834D01*
X128611856Y-116238767D01*
X128546392Y-116263184D01*
X128537546Y-116263500D01*
X115432597Y-116263500D01*
X115365558Y-116243815D01*
X115344916Y-116227181D01*
X115005941Y-115888206D01*
X114972456Y-115826883D01*
X114973847Y-115768431D01*
X114999635Y-115672192D01*
X115019468Y-115445500D01*
X115018374Y-115433000D01*
X115008492Y-115320044D01*
X114999635Y-115218808D01*
X114941631Y-115002334D01*
X114940741Y-114999011D01*
X114940738Y-114999002D01*
X114934377Y-114985361D01*
X114844568Y-114792766D01*
X114723799Y-114620288D01*
X114714048Y-114606362D01*
X114702138Y-114594452D01*
X114640865Y-114533179D01*
X114607382Y-114471859D01*
X114612366Y-114402167D01*
X114640865Y-114357820D01*
X114714047Y-114284639D01*
X114844568Y-114098234D01*
X114940739Y-113891996D01*
X114999635Y-113672192D01*
X115019468Y-113445500D01*
X115018312Y-113432292D01*
X115006366Y-113295744D01*
X114999635Y-113218808D01*
X114940739Y-112999004D01*
X114844568Y-112792766D01*
X114724094Y-112620710D01*
X114714045Y-112606358D01*
X114553141Y-112445454D01*
X114366734Y-112314932D01*
X114366732Y-112314931D01*
X114160497Y-112218761D01*
X114160488Y-112218758D01*
X113940697Y-112159866D01*
X113940693Y-112159865D01*
X113940692Y-112159865D01*
X113940691Y-112159864D01*
X113940686Y-112159864D01*
X113714002Y-112140032D01*
X113713998Y-112140032D01*
X113487313Y-112159864D01*
X113487302Y-112159866D01*
X113267511Y-112218758D01*
X113267502Y-112218761D01*
X113061267Y-112314931D01*
X113061265Y-112314932D01*
X112874858Y-112445454D01*
X112713954Y-112606358D01*
X112583432Y-112792765D01*
X112583429Y-112792770D01*
X112576104Y-112808479D01*
X112529929Y-112860917D01*
X112462735Y-112880066D01*
X112395855Y-112859847D01*
X112351341Y-112808473D01*
X112344133Y-112793015D01*
X112344132Y-112793013D01*
X112293025Y-112720026D01*
X111676550Y-113336500D01*
X111656630Y-113262157D01*
X111594095Y-113153843D01*
X111505657Y-113065405D01*
X111397343Y-113002870D01*
X111322998Y-112982949D01*
X111939472Y-112366474D01*
X111866478Y-112315363D01*
X111660331Y-112219235D01*
X111660317Y-112219230D01*
X111440610Y-112160360D01*
X111440599Y-112160358D01*
X111214002Y-112140534D01*
X111213998Y-112140534D01*
X110987400Y-112160358D01*
X110987389Y-112160360D01*
X110767682Y-112219230D01*
X110767673Y-112219234D01*
X110561516Y-112315366D01*
X110561512Y-112315368D01*
X110488526Y-112366473D01*
X110488526Y-112366474D01*
X111105002Y-112982949D01*
X111030657Y-113002870D01*
X110922343Y-113065405D01*
X110833905Y-113153843D01*
X110771370Y-113262157D01*
X110751449Y-113336502D01*
X110134974Y-112720026D01*
X110134973Y-112720026D01*
X110083868Y-112793012D01*
X110083866Y-112793016D01*
X109987734Y-112999173D01*
X109987730Y-112999182D01*
X109928860Y-113218889D01*
X109928858Y-113218900D01*
X109909034Y-113445497D01*
X109909034Y-113445502D01*
X109928858Y-113672099D01*
X109928860Y-113672110D01*
X109987730Y-113891817D01*
X109987734Y-113891826D01*
X110083865Y-114097981D01*
X110083868Y-114097985D01*
X110092812Y-114110760D01*
X110115138Y-114176967D01*
X110098125Y-114244734D01*
X110065549Y-114281145D01*
X110056456Y-114287952D01*
X110056451Y-114287957D01*
X109970206Y-114403164D01*
X109970202Y-114403171D01*
X109919910Y-114538013D01*
X109919908Y-114538016D01*
X109913501Y-114597616D01*
X109913500Y-114597635D01*
X109913500Y-116293370D01*
X109913501Y-116293376D01*
X109919908Y-116352983D01*
X109970202Y-116487828D01*
X109970206Y-116487835D01*
X110056452Y-116603044D01*
X110056455Y-116603047D01*
X110171664Y-116689293D01*
X110171671Y-116689297D01*
X110306517Y-116739591D01*
X110306516Y-116739591D01*
X110313444Y-116740335D01*
X110366127Y-116746000D01*
X111775500Y-116745999D01*
X111842539Y-116765684D01*
X111888294Y-116818487D01*
X111899500Y-116869999D01*
X111899500Y-117513330D01*
X111899499Y-117513348D01*
X111899499Y-117679054D01*
X111899498Y-117679054D01*
X111940423Y-117831786D01*
X111940424Y-117831787D01*
X111965910Y-117875930D01*
X112019480Y-117968716D01*
X112019482Y-117968718D01*
X112138349Y-118087585D01*
X112138355Y-118087590D01*
X113115139Y-119064374D01*
X113115149Y-119064385D01*
X113119479Y-119068715D01*
X113119480Y-119068716D01*
X113231284Y-119180520D01*
X113295251Y-119217451D01*
X113368215Y-119259577D01*
X113520943Y-119300501D01*
X113520946Y-119300501D01*
X113686653Y-119300501D01*
X113686669Y-119300500D01*
X138713331Y-119300500D01*
X138713347Y-119300501D01*
X138720943Y-119300501D01*
X138879054Y-119300501D01*
X138879057Y-119300501D01*
X139031785Y-119259577D01*
X139104749Y-119217451D01*
X139168716Y-119180520D01*
X139247769Y-119101466D01*
X139309088Y-119067984D01*
X139378780Y-119072968D01*
X139389983Y-119077145D01*
X139392517Y-119078091D01*
X139452127Y-119084500D01*
X140940500Y-119084499D01*
X141007539Y-119104184D01*
X141053294Y-119156987D01*
X141064500Y-119208499D01*
X141064500Y-120181870D01*
X141064501Y-120181876D01*
X141070908Y-120241483D01*
X141121202Y-120376328D01*
X141121206Y-120376335D01*
X141207452Y-120491544D01*
X141207455Y-120491547D01*
X141322664Y-120577793D01*
X141322671Y-120577797D01*
X141457517Y-120628091D01*
X141457516Y-120628091D01*
X141464444Y-120628835D01*
X141517127Y-120634500D01*
X142512872Y-120634499D01*
X142572483Y-120628091D01*
X142579543Y-120625457D01*
X142649231Y-120620470D01*
X142710556Y-120653952D01*
X142726651Y-120675653D01*
X142727302Y-120675219D01*
X142730688Y-120680286D01*
X142755585Y-120717546D01*
X142755586Y-120717549D01*
X142755587Y-120717549D01*
X142799141Y-120782732D01*
X142799144Y-120782736D01*
X142890586Y-120874178D01*
X142890608Y-120874198D01*
X143312016Y-121295606D01*
X143312045Y-121295637D01*
X143402263Y-121385855D01*
X143402267Y-121385858D01*
X143504707Y-121454307D01*
X143504713Y-121454310D01*
X143504714Y-121454311D01*
X143618548Y-121501463D01*
X143678971Y-121513481D01*
X143739393Y-121525500D01*
X143739394Y-121525500D01*
X145796252Y-121525500D01*
X145863291Y-121545185D01*
X145888400Y-121566526D01*
X145894126Y-121572885D01*
X145894130Y-121572889D01*
X146047265Y-121684148D01*
X146047270Y-121684151D01*
X146220192Y-121761142D01*
X146220197Y-121761144D01*
X146405354Y-121800500D01*
X146405355Y-121800500D01*
X146594644Y-121800500D01*
X146594646Y-121800500D01*
X146779803Y-121761144D01*
X146952730Y-121684151D01*
X147105871Y-121572888D01*
X147157462Y-121515590D01*
X147216947Y-121478942D01*
X147286804Y-121480272D01*
X147337292Y-121510882D01*
X149122016Y-123295606D01*
X149122045Y-123295637D01*
X149212263Y-123385855D01*
X149212267Y-123385858D01*
X149314707Y-123454307D01*
X149314713Y-123454310D01*
X149314714Y-123454311D01*
X149428548Y-123501463D01*
X149488971Y-123513481D01*
X149549393Y-123525500D01*
X149549394Y-123525500D01*
X153427630Y-123525500D01*
X153494669Y-123545185D01*
X153540424Y-123597989D01*
X153550368Y-123667147D01*
X153521343Y-123730703D01*
X153500515Y-123749818D01*
X153394130Y-123827110D01*
X153394126Y-123827114D01*
X153388400Y-123833474D01*
X153328913Y-123870121D01*
X153296252Y-123874500D01*
X117650889Y-123874500D01*
X117590471Y-123886518D01*
X117552759Y-123894019D01*
X117530050Y-123898536D01*
X117530048Y-123898537D01*
X117496707Y-123912347D01*
X117416219Y-123945684D01*
X117416205Y-123945692D01*
X117313772Y-124014138D01*
X117313764Y-124014144D01*
X113794144Y-127533764D01*
X113794138Y-127533772D01*
X113759914Y-127584989D01*
X113759915Y-127584990D01*
X113725691Y-127636208D01*
X113725684Y-127636220D01*
X113709454Y-127675407D01*
X113709454Y-127675408D01*
X113678538Y-127750045D01*
X113678535Y-127750055D01*
X113654500Y-127870889D01*
X113654500Y-133684773D01*
X113634815Y-133751812D01*
X113601623Y-133786348D01*
X113408597Y-133921505D01*
X113241505Y-134088597D01*
X113111575Y-134274158D01*
X113056998Y-134317783D01*
X112987500Y-134324977D01*
X112925145Y-134293454D01*
X112908425Y-134274158D01*
X112778494Y-134088597D01*
X112611402Y-133921506D01*
X112611395Y-133921501D01*
X112417834Y-133785967D01*
X112417830Y-133785965D01*
X112365500Y-133761563D01*
X112203663Y-133686097D01*
X112203659Y-133686096D01*
X112203655Y-133686094D01*
X111975413Y-133624938D01*
X111975403Y-133624936D01*
X111740001Y-133604341D01*
X111739999Y-133604341D01*
X111504596Y-133624936D01*
X111504586Y-133624938D01*
X111276344Y-133686094D01*
X111276335Y-133686098D01*
X111062171Y-133785964D01*
X111062169Y-133785965D01*
X110868597Y-133921505D01*
X110701505Y-134088597D01*
X110571575Y-134274158D01*
X110516998Y-134317783D01*
X110447500Y-134324977D01*
X110385145Y-134293454D01*
X110368425Y-134274158D01*
X110238494Y-134088597D01*
X110071402Y-133921506D01*
X110071395Y-133921501D01*
X109877834Y-133785967D01*
X109877830Y-133785965D01*
X109825500Y-133761563D01*
X109663663Y-133686097D01*
X109663659Y-133686096D01*
X109663655Y-133686094D01*
X109435413Y-133624938D01*
X109435403Y-133624936D01*
X109200001Y-133604341D01*
X109199999Y-133604341D01*
X108964596Y-133624936D01*
X108964586Y-133624938D01*
X108736344Y-133686094D01*
X108736335Y-133686098D01*
X108522171Y-133785964D01*
X108522169Y-133785965D01*
X108328597Y-133921505D01*
X108161505Y-134088597D01*
X108025965Y-134282169D01*
X108025964Y-134282171D01*
X107926098Y-134496335D01*
X107926094Y-134496344D01*
X107864938Y-134724586D01*
X107864936Y-134724596D01*
X107844341Y-134959999D01*
X107844341Y-134960000D01*
X107864936Y-135195403D01*
X107864938Y-135195413D01*
X107926094Y-135423655D01*
X107926096Y-135423659D01*
X107926097Y-135423663D01*
X108005597Y-135594151D01*
X108025965Y-135637830D01*
X108025967Y-135637834D01*
X108084462Y-135721373D01*
X108161505Y-135831401D01*
X108328599Y-135998495D01*
X108328604Y-135998499D01*
X108329968Y-135999643D01*
X108330407Y-136000303D01*
X108332427Y-136002323D01*
X108332021Y-136002728D01*
X108368669Y-136057815D01*
X108369776Y-136127676D01*
X108332937Y-136187046D01*
X108289267Y-136212336D01*
X108280669Y-136215184D01*
X108280663Y-136215187D01*
X108131342Y-136307289D01*
X108007289Y-136431342D01*
X107915187Y-136580663D01*
X107915185Y-136580668D01*
X107898701Y-136630414D01*
X107860001Y-136747203D01*
X107860001Y-136747204D01*
X107860000Y-136747204D01*
X107849500Y-136849983D01*
X107849500Y-138150001D01*
X107849501Y-138150018D01*
X107860000Y-138252796D01*
X107860001Y-138252799D01*
X107899303Y-138371402D01*
X107915186Y-138419334D01*
X108007288Y-138568656D01*
X108131344Y-138692712D01*
X108280666Y-138784814D01*
X108447203Y-138839999D01*
X108549991Y-138850500D01*
X109850008Y-138850499D01*
X109952797Y-138839999D01*
X110119334Y-138784814D01*
X110268656Y-138692712D01*
X110392712Y-138568656D01*
X110484814Y-138419334D01*
X110487662Y-138410738D01*
X110527429Y-138353294D01*
X110591944Y-138326468D01*
X110660720Y-138338779D01*
X110697483Y-138367766D01*
X110697677Y-138367573D01*
X110699313Y-138369209D01*
X110700354Y-138370030D01*
X110701501Y-138371397D01*
X110701504Y-138371400D01*
X110701505Y-138371401D01*
X110868599Y-138538495D01*
X110911675Y-138568657D01*
X111062165Y-138674032D01*
X111062167Y-138674033D01*
X111062170Y-138674035D01*
X111276337Y-138773903D01*
X111504592Y-138835063D01*
X111681034Y-138850500D01*
X111739999Y-138855659D01*
X111740000Y-138855659D01*
X111740001Y-138855659D01*
X111798966Y-138850500D01*
X111975408Y-138835063D01*
X112075873Y-138808143D01*
X112145722Y-138809806D01*
X112195647Y-138840237D01*
X113451016Y-140095606D01*
X113451045Y-140095637D01*
X113541264Y-140185856D01*
X113541267Y-140185858D01*
X113618190Y-140237256D01*
X113643710Y-140254309D01*
X113643712Y-140254310D01*
X113643715Y-140254312D01*
X113710396Y-140281931D01*
X113710398Y-140281933D01*
X113750640Y-140298601D01*
X113757548Y-140301463D01*
X113817971Y-140313481D01*
X113878393Y-140325500D01*
X142721607Y-140325500D01*
X142782029Y-140313481D01*
X142842452Y-140301463D01*
X142842455Y-140301461D01*
X142842458Y-140301461D01*
X142875787Y-140287654D01*
X142875786Y-140287654D01*
X142875792Y-140287652D01*
X142956286Y-140254312D01*
X143007509Y-140220084D01*
X143058733Y-140185858D01*
X143145858Y-140098733D01*
X143145859Y-140098731D01*
X143152925Y-140091665D01*
X143152928Y-140091661D01*
X144244591Y-138999997D01*
X162644579Y-138999997D01*
X162644579Y-139000002D01*
X162664248Y-139362782D01*
X162664250Y-139362799D01*
X162723024Y-139721303D01*
X162723030Y-139721329D01*
X162820221Y-140071381D01*
X162820226Y-140071396D01*
X162954700Y-140408901D01*
X162954706Y-140408913D01*
X163124878Y-140729892D01*
X163124881Y-140729897D01*
X163124883Y-140729900D01*
X163328773Y-141030614D01*
X163563979Y-141307521D01*
X163827746Y-141557375D01*
X164116981Y-141777245D01*
X164428292Y-141964555D01*
X164428294Y-141964556D01*
X164428296Y-141964557D01*
X164428300Y-141964559D01*
X164758020Y-142117103D01*
X164758031Y-142117108D01*
X165102330Y-142233116D01*
X165457153Y-142311218D01*
X165818341Y-142350500D01*
X165818347Y-142350500D01*
X166181653Y-142350500D01*
X166181659Y-142350500D01*
X166542847Y-142311218D01*
X166897670Y-142233116D01*
X167241969Y-142117108D01*
X167571708Y-141964555D01*
X167883019Y-141777245D01*
X168172254Y-141557375D01*
X168436021Y-141307521D01*
X168671227Y-141030614D01*
X168875117Y-140729900D01*
X169045298Y-140408905D01*
X169179775Y-140071391D01*
X169276973Y-139721316D01*
X169335751Y-139362785D01*
X169355421Y-139000000D01*
X169335751Y-138637215D01*
X169324511Y-138568656D01*
X169276975Y-138278696D01*
X169276974Y-138278695D01*
X169276973Y-138278684D01*
X169199597Y-138000000D01*
X169179778Y-137928618D01*
X169179773Y-137928603D01*
X169045299Y-137591098D01*
X169045298Y-137591095D01*
X168875117Y-137270100D01*
X168671227Y-136969386D01*
X168436021Y-136692479D01*
X168172254Y-136442625D01*
X168172244Y-136442617D01*
X168096544Y-136385072D01*
X167883019Y-136222755D01*
X167571708Y-136035445D01*
X167571707Y-136035444D01*
X167571703Y-136035442D01*
X167571699Y-136035440D01*
X167241979Y-135882896D01*
X167241974Y-135882894D01*
X167241969Y-135882892D01*
X167074143Y-135826344D01*
X166897669Y-135766883D01*
X166542845Y-135688781D01*
X166181660Y-135649500D01*
X166181659Y-135649500D01*
X165818341Y-135649500D01*
X165818339Y-135649500D01*
X165457154Y-135688781D01*
X165102330Y-135766883D01*
X164836178Y-135856560D01*
X164758031Y-135882892D01*
X164758028Y-135882893D01*
X164758020Y-135882896D01*
X164428300Y-136035440D01*
X164428296Y-136035442D01*
X164238730Y-136149501D01*
X164116981Y-136222755D01*
X164076230Y-136253733D01*
X163827755Y-136442617D01*
X163827745Y-136442625D01*
X163563978Y-136692479D01*
X163328772Y-136969386D01*
X163124884Y-137270098D01*
X163124878Y-137270107D01*
X162954706Y-137591086D01*
X162954700Y-137591098D01*
X162820226Y-137928603D01*
X162820221Y-137928618D01*
X162723030Y-138278670D01*
X162723024Y-138278696D01*
X162664250Y-138637200D01*
X162664248Y-138637217D01*
X162644579Y-138999997D01*
X144244591Y-138999997D01*
X144404353Y-138840235D01*
X144465674Y-138806752D01*
X144524125Y-138808143D01*
X144530332Y-138809806D01*
X144624592Y-138835063D01*
X144801034Y-138850500D01*
X144859999Y-138855659D01*
X144860000Y-138855659D01*
X144860001Y-138855659D01*
X144918966Y-138850500D01*
X145095408Y-138835063D01*
X145323663Y-138773903D01*
X145537830Y-138674035D01*
X145731401Y-138538495D01*
X145898495Y-138371401D01*
X146034035Y-138177830D01*
X146133903Y-137963663D01*
X146195063Y-137735408D01*
X146215659Y-137500000D01*
X146195063Y-137264592D01*
X146133903Y-137036337D01*
X146034035Y-136822171D01*
X146028731Y-136814595D01*
X145898494Y-136628597D01*
X145731402Y-136461506D01*
X145731401Y-136461505D01*
X145559099Y-136340858D01*
X145545405Y-136331269D01*
X145501781Y-136276692D01*
X145494588Y-136207193D01*
X145526110Y-136144839D01*
X145545405Y-136128119D01*
X145621373Y-136074925D01*
X144989409Y-135442962D01*
X145052993Y-135425925D01*
X145167007Y-135360099D01*
X145260099Y-135267007D01*
X145325925Y-135152993D01*
X145342962Y-135089410D01*
X145974925Y-135721373D01*
X145974926Y-135721373D01*
X146033598Y-135637582D01*
X146033600Y-135637578D01*
X146133429Y-135423492D01*
X146133433Y-135423483D01*
X146194567Y-135195326D01*
X146194569Y-135195315D01*
X146215157Y-134960001D01*
X146215157Y-134959998D01*
X146194569Y-134724684D01*
X146194567Y-134724673D01*
X146133433Y-134496516D01*
X146133429Y-134496507D01*
X146033600Y-134282423D01*
X146033599Y-134282421D01*
X145974925Y-134198626D01*
X145974925Y-134198625D01*
X145342962Y-134830589D01*
X145325925Y-134767007D01*
X145260099Y-134652993D01*
X145167007Y-134559901D01*
X145052993Y-134494075D01*
X144989410Y-134477037D01*
X145621373Y-133845073D01*
X145621373Y-133845072D01*
X145537583Y-133786402D01*
X145537579Y-133786400D01*
X145323492Y-133686570D01*
X145323483Y-133686566D01*
X145095326Y-133625432D01*
X145095315Y-133625430D01*
X144860002Y-133604843D01*
X144859998Y-133604843D01*
X144624684Y-133625430D01*
X144624673Y-133625432D01*
X144396516Y-133686566D01*
X144396507Y-133686570D01*
X144182419Y-133786401D01*
X144098625Y-133845072D01*
X144730590Y-134477037D01*
X144667007Y-134494075D01*
X144552993Y-134559901D01*
X144459901Y-134652993D01*
X144394075Y-134767007D01*
X144377037Y-134830589D01*
X143745073Y-134198626D01*
X143691881Y-134274594D01*
X143637304Y-134318219D01*
X143567806Y-134325413D01*
X143505451Y-134293891D01*
X143488730Y-134274594D01*
X143358494Y-134088597D01*
X143191402Y-133921506D01*
X143191395Y-133921501D01*
X142997834Y-133785967D01*
X142997830Y-133785965D01*
X142945500Y-133761563D01*
X142783663Y-133686097D01*
X142783659Y-133686096D01*
X142783655Y-133686094D01*
X142555413Y-133624938D01*
X142555403Y-133624936D01*
X142320001Y-133604341D01*
X142319999Y-133604341D01*
X142084596Y-133624936D01*
X142084586Y-133624938D01*
X141856344Y-133686094D01*
X141856335Y-133686098D01*
X141642171Y-133785964D01*
X141642169Y-133785965D01*
X141448597Y-133921505D01*
X141281505Y-134088597D01*
X141151575Y-134274158D01*
X141096998Y-134317783D01*
X141027500Y-134324977D01*
X140965145Y-134293454D01*
X140948425Y-134274158D01*
X140818494Y-134088597D01*
X140651402Y-133921506D01*
X140651395Y-133921501D01*
X140457834Y-133785967D01*
X140457830Y-133785965D01*
X140405500Y-133761563D01*
X140243663Y-133686097D01*
X140243659Y-133686096D01*
X140243655Y-133686094D01*
X140015413Y-133624938D01*
X140015403Y-133624936D01*
X139780001Y-133604341D01*
X139779999Y-133604341D01*
X139544596Y-133624936D01*
X139544586Y-133624938D01*
X139316344Y-133686094D01*
X139316335Y-133686098D01*
X139102171Y-133785964D01*
X139102169Y-133785965D01*
X138908597Y-133921505D01*
X138741505Y-134088597D01*
X138611575Y-134274158D01*
X138556998Y-134317783D01*
X138487500Y-134324977D01*
X138425145Y-134293454D01*
X138408425Y-134274158D01*
X138278494Y-134088597D01*
X138111402Y-133921506D01*
X138111395Y-133921501D01*
X137917834Y-133785967D01*
X137917830Y-133785965D01*
X137865500Y-133761563D01*
X137703663Y-133686097D01*
X137703659Y-133686096D01*
X137703655Y-133686094D01*
X137475413Y-133624938D01*
X137475403Y-133624936D01*
X137240001Y-133604341D01*
X137239999Y-133604341D01*
X137004596Y-133624936D01*
X137004586Y-133624938D01*
X136776344Y-133686094D01*
X136776335Y-133686098D01*
X136562171Y-133785964D01*
X136562169Y-133785965D01*
X136368597Y-133921505D01*
X136201505Y-134088597D01*
X136071575Y-134274158D01*
X136016998Y-134317783D01*
X135947500Y-134324977D01*
X135885145Y-134293454D01*
X135868425Y-134274158D01*
X135738494Y-134088597D01*
X135571402Y-133921506D01*
X135571395Y-133921501D01*
X135377834Y-133785967D01*
X135377830Y-133785965D01*
X135325500Y-133761563D01*
X135163663Y-133686097D01*
X135163659Y-133686096D01*
X135163655Y-133686094D01*
X134935413Y-133624938D01*
X134935403Y-133624936D01*
X134700001Y-133604341D01*
X134699999Y-133604341D01*
X134464596Y-133624936D01*
X134464586Y-133624938D01*
X134236344Y-133686094D01*
X134236335Y-133686098D01*
X134022171Y-133785964D01*
X134022169Y-133785965D01*
X133828597Y-133921505D01*
X133661505Y-134088597D01*
X133525965Y-134282169D01*
X133525964Y-134282171D01*
X133426098Y-134496335D01*
X133426094Y-134496344D01*
X133364938Y-134724586D01*
X133364936Y-134724596D01*
X133344341Y-134959999D01*
X133344341Y-134960000D01*
X133364936Y-135195403D01*
X133364938Y-135195413D01*
X133426094Y-135423655D01*
X133426096Y-135423659D01*
X133426097Y-135423663D01*
X133505597Y-135594151D01*
X133525965Y-135637830D01*
X133525967Y-135637834D01*
X133584462Y-135721373D01*
X133661505Y-135831401D01*
X133828599Y-135998495D01*
X133828604Y-135998499D01*
X133829968Y-135999643D01*
X133830407Y-136000303D01*
X133832427Y-136002323D01*
X133832021Y-136002728D01*
X133868669Y-136057815D01*
X133869776Y-136127676D01*
X133832937Y-136187046D01*
X133789267Y-136212336D01*
X133780669Y-136215184D01*
X133780663Y-136215187D01*
X133631342Y-136307289D01*
X133507289Y-136431342D01*
X133415187Y-136580663D01*
X133415185Y-136580668D01*
X133398701Y-136630414D01*
X133360001Y-136747203D01*
X133360001Y-136747204D01*
X133360000Y-136747204D01*
X133349500Y-136849983D01*
X133349500Y-138150001D01*
X133349501Y-138150018D01*
X133360000Y-138252796D01*
X133360001Y-138252799D01*
X133399303Y-138371402D01*
X133415186Y-138419334D01*
X133507288Y-138568656D01*
X133631344Y-138692712D01*
X133780666Y-138784814D01*
X133925462Y-138832794D01*
X133982906Y-138872567D01*
X134009729Y-138937082D01*
X133997414Y-139005858D01*
X133949871Y-139057058D01*
X133886457Y-139074500D01*
X119641760Y-139074500D01*
X119574721Y-139054815D01*
X119528966Y-139002011D01*
X119519022Y-138932853D01*
X119548047Y-138869297D01*
X119606825Y-138831523D01*
X119609667Y-138830725D01*
X119823483Y-138773433D01*
X119823492Y-138773429D01*
X120037578Y-138673600D01*
X120037582Y-138673598D01*
X120121373Y-138614926D01*
X120121373Y-138614925D01*
X119489409Y-137982962D01*
X119552993Y-137965925D01*
X119667007Y-137900099D01*
X119760099Y-137807007D01*
X119825925Y-137692993D01*
X119842962Y-137629410D01*
X120474925Y-138261373D01*
X120474926Y-138261373D01*
X120533598Y-138177582D01*
X120533600Y-138177578D01*
X120633429Y-137963492D01*
X120633433Y-137963483D01*
X120694567Y-137735326D01*
X120694569Y-137735315D01*
X120715157Y-137500001D01*
X120715157Y-137499998D01*
X120694569Y-137264684D01*
X120694567Y-137264673D01*
X120633433Y-137036516D01*
X120633429Y-137036507D01*
X120533600Y-136822423D01*
X120533599Y-136822421D01*
X120474925Y-136738626D01*
X120474925Y-136738625D01*
X119842962Y-137370589D01*
X119825925Y-137307007D01*
X119760099Y-137192993D01*
X119667007Y-137099901D01*
X119552993Y-137034075D01*
X119489410Y-137017037D01*
X120121373Y-136385073D01*
X120121373Y-136385072D01*
X120045405Y-136331880D01*
X120001780Y-136277304D01*
X119994586Y-136207805D01*
X120026108Y-136145451D01*
X120045399Y-136128734D01*
X120231401Y-135998495D01*
X120398495Y-135831401D01*
X120534035Y-135637830D01*
X120633903Y-135423663D01*
X120695063Y-135195408D01*
X120715659Y-134960000D01*
X120695063Y-134724592D01*
X120633903Y-134496337D01*
X120534035Y-134282171D01*
X120528731Y-134274595D01*
X120398494Y-134088597D01*
X120231402Y-133921506D01*
X120231401Y-133921505D01*
X120098093Y-133828161D01*
X120038376Y-133786347D01*
X119994751Y-133731770D01*
X119985500Y-133684772D01*
X119985500Y-131010452D01*
X120005185Y-130943413D01*
X120021819Y-130922771D01*
X122482772Y-128461819D01*
X122544095Y-128428334D01*
X122570453Y-128425500D01*
X144396252Y-128425500D01*
X144463291Y-128445185D01*
X144488400Y-128466526D01*
X144494126Y-128472885D01*
X144494130Y-128472889D01*
X144647265Y-128584148D01*
X144647270Y-128584151D01*
X144820192Y-128661142D01*
X144820197Y-128661144D01*
X145005354Y-128700500D01*
X145005355Y-128700500D01*
X145194644Y-128700500D01*
X145194646Y-128700500D01*
X145379803Y-128661144D01*
X145552730Y-128584151D01*
X145705871Y-128472888D01*
X145708788Y-128469647D01*
X145711600Y-128466526D01*
X145771087Y-128429879D01*
X145803748Y-128425500D01*
X160136451Y-128425500D01*
X160203490Y-128445185D01*
X160224132Y-128461819D01*
X163642985Y-131880673D01*
X163676470Y-131941996D01*
X163671486Y-132011688D01*
X163667688Y-132020755D01*
X163651098Y-132056334D01*
X163651094Y-132056344D01*
X163589938Y-132284586D01*
X163589936Y-132284596D01*
X163569341Y-132519999D01*
X163569341Y-132520000D01*
X163589936Y-132755403D01*
X163589938Y-132755413D01*
X163651094Y-132983655D01*
X163651096Y-132983659D01*
X163651097Y-132983663D01*
X163734155Y-133161781D01*
X163750965Y-133197830D01*
X163750967Y-133197834D01*
X163859281Y-133352521D01*
X163886505Y-133391401D01*
X164053599Y-133558495D01*
X164148488Y-133624937D01*
X164247165Y-133694032D01*
X164247167Y-133694033D01*
X164247170Y-133694035D01*
X164461337Y-133793903D01*
X164689592Y-133855063D01*
X164877918Y-133871539D01*
X164924999Y-133875659D01*
X164925000Y-133875659D01*
X164925001Y-133875659D01*
X164964234Y-133872226D01*
X165160408Y-133855063D01*
X165388663Y-133793903D01*
X165602830Y-133694035D01*
X165796401Y-133558495D01*
X165963495Y-133391401D01*
X166093730Y-133205405D01*
X166148307Y-133161781D01*
X166217805Y-133154587D01*
X166280160Y-133186110D01*
X166296879Y-133205405D01*
X166426890Y-133391078D01*
X166593917Y-133558105D01*
X166787421Y-133693600D01*
X167001507Y-133793429D01*
X167001516Y-133793433D01*
X167215000Y-133850634D01*
X167215000Y-132953012D01*
X167272007Y-132985925D01*
X167399174Y-133020000D01*
X167530826Y-133020000D01*
X167657993Y-132985925D01*
X167715000Y-132953012D01*
X167715000Y-133850633D01*
X167928483Y-133793433D01*
X167928492Y-133793429D01*
X168142578Y-133693600D01*
X168336082Y-133558105D01*
X168503105Y-133391082D01*
X168638600Y-133197578D01*
X168738429Y-132983492D01*
X168738432Y-132983486D01*
X168795636Y-132770000D01*
X167898012Y-132770000D01*
X167930925Y-132712993D01*
X167965000Y-132585826D01*
X167965000Y-132454174D01*
X167930925Y-132327007D01*
X167898012Y-132270000D01*
X168795636Y-132270000D01*
X168795635Y-132269999D01*
X168738432Y-132056513D01*
X168738429Y-132056507D01*
X168638600Y-131842422D01*
X168638599Y-131842420D01*
X168503113Y-131648926D01*
X168503108Y-131648920D01*
X168336078Y-131481890D01*
X168150405Y-131351879D01*
X168106780Y-131297302D01*
X168099588Y-131227804D01*
X168131110Y-131165449D01*
X168150406Y-131148730D01*
X168336401Y-131018495D01*
X168503495Y-130851401D01*
X168639035Y-130657830D01*
X168738903Y-130443663D01*
X168800063Y-130215408D01*
X168820659Y-129980000D01*
X168800063Y-129744592D01*
X168738903Y-129516337D01*
X168639035Y-129302171D01*
X168633425Y-129294158D01*
X168503494Y-129108597D01*
X168336402Y-128941506D01*
X168336396Y-128941501D01*
X168150842Y-128811575D01*
X168107217Y-128756998D01*
X168100023Y-128687500D01*
X168131546Y-128625145D01*
X168150842Y-128608425D01*
X168194620Y-128577771D01*
X168336401Y-128478495D01*
X168503495Y-128311401D01*
X168639035Y-128117830D01*
X168738903Y-127903663D01*
X168800063Y-127675408D01*
X168820659Y-127440000D01*
X168800063Y-127204592D01*
X168738903Y-126976337D01*
X168639035Y-126762171D01*
X168503495Y-126568599D01*
X168503494Y-126568597D01*
X168336402Y-126401506D01*
X168336396Y-126401501D01*
X168150842Y-126271575D01*
X168107217Y-126216998D01*
X168100023Y-126147500D01*
X168131546Y-126085145D01*
X168150842Y-126068425D01*
X168173026Y-126052891D01*
X168336401Y-125938495D01*
X168503495Y-125771401D01*
X168639035Y-125577830D01*
X168738903Y-125363663D01*
X168800063Y-125135408D01*
X168820659Y-124900000D01*
X168800063Y-124664592D01*
X168738903Y-124436337D01*
X168639035Y-124222171D01*
X168554378Y-124101267D01*
X168503494Y-124028597D01*
X168336402Y-123861506D01*
X168336395Y-123861501D01*
X168326846Y-123854815D01*
X168176896Y-123749818D01*
X168142834Y-123725967D01*
X168142830Y-123725965D01*
X168121136Y-123715849D01*
X167928663Y-123626097D01*
X167928659Y-123626096D01*
X167928655Y-123626094D01*
X167700413Y-123564938D01*
X167700403Y-123564936D01*
X167465001Y-123544341D01*
X167464999Y-123544341D01*
X167229596Y-123564936D01*
X167229586Y-123564938D01*
X167129126Y-123591856D01*
X167059276Y-123590193D01*
X167009352Y-123559762D01*
X165857928Y-122408338D01*
X165857925Y-122408334D01*
X165857925Y-122408335D01*
X165850858Y-122401268D01*
X165850858Y-122401267D01*
X165763733Y-122314142D01*
X165763732Y-122314141D01*
X165763731Y-122314140D01*
X165704405Y-122274500D01*
X165661286Y-122245688D01*
X165579003Y-122211606D01*
X165547452Y-122198537D01*
X165547448Y-122198536D01*
X165547444Y-122198535D01*
X165483702Y-122185856D01*
X165483701Y-122185856D01*
X165426611Y-122174500D01*
X165426607Y-122174500D01*
X165426606Y-122174500D01*
X163010453Y-122174500D01*
X162943414Y-122154815D01*
X162922772Y-122138181D01*
X161392928Y-120608338D01*
X161392925Y-120608334D01*
X161392925Y-120608335D01*
X161385858Y-120601268D01*
X161385858Y-120601267D01*
X161298733Y-120514142D01*
X161298732Y-120514141D01*
X161298731Y-120514140D01*
X161247509Y-120479915D01*
X161196287Y-120445689D01*
X161196286Y-120445688D01*
X161196283Y-120445686D01*
X161196280Y-120445685D01*
X161115792Y-120412347D01*
X161082453Y-120398537D01*
X161072427Y-120396543D01*
X161022029Y-120386518D01*
X160961610Y-120374500D01*
X160961607Y-120374500D01*
X160961606Y-120374500D01*
X157052836Y-120374500D01*
X156985797Y-120354815D01*
X156940042Y-120302011D01*
X156929546Y-120237247D01*
X156935500Y-120181873D01*
X156935499Y-119208498D01*
X156955183Y-119141460D01*
X157007987Y-119095705D01*
X157059494Y-119084499D01*
X158547872Y-119084499D01*
X158607483Y-119078091D01*
X158742331Y-119027796D01*
X158857546Y-118941546D01*
X158943796Y-118826331D01*
X158943798Y-118826323D01*
X158945027Y-118824076D01*
X158946849Y-118822253D01*
X158949112Y-118819231D01*
X158949546Y-118819556D01*
X158994431Y-118774669D01*
X159053861Y-118759500D01*
X162348548Y-118759500D01*
X162415587Y-118779185D01*
X162436229Y-118795819D01*
X163438181Y-119797771D01*
X163471666Y-119859094D01*
X163474500Y-119885452D01*
X163474500Y-121197870D01*
X163474501Y-121197876D01*
X163480908Y-121257483D01*
X163531202Y-121392328D01*
X163531206Y-121392335D01*
X163617452Y-121507544D01*
X163617455Y-121507547D01*
X163732664Y-121593793D01*
X163732671Y-121593797D01*
X163867517Y-121644091D01*
X163867516Y-121644091D01*
X163874444Y-121644835D01*
X163927127Y-121650500D01*
X165722872Y-121650499D01*
X165782483Y-121644091D01*
X165917331Y-121593796D01*
X166032546Y-121507546D01*
X166118796Y-121392331D01*
X166167810Y-121260916D01*
X166209681Y-121204984D01*
X166275145Y-121180566D01*
X166343418Y-121195417D01*
X166371673Y-121216569D01*
X166493599Y-121338495D01*
X166590384Y-121406265D01*
X166687165Y-121474032D01*
X166687167Y-121474033D01*
X166687170Y-121474035D01*
X166901337Y-121573903D01*
X167129592Y-121635063D01*
X167306034Y-121650500D01*
X167364999Y-121655659D01*
X167365000Y-121655659D01*
X167365001Y-121655659D01*
X167423966Y-121650500D01*
X167600408Y-121635063D01*
X167828663Y-121573903D01*
X168042830Y-121474035D01*
X168236401Y-121338495D01*
X168403495Y-121171401D01*
X168539035Y-120977830D01*
X168638903Y-120763663D01*
X168700063Y-120535408D01*
X168720659Y-120300000D01*
X168700063Y-120064592D01*
X168638903Y-119836337D01*
X168539035Y-119622171D01*
X168403495Y-119428599D01*
X168403494Y-119428597D01*
X168236402Y-119261506D01*
X168236395Y-119261501D01*
X168233647Y-119259577D01*
X168197521Y-119234281D01*
X168042834Y-119125967D01*
X168042830Y-119125965D01*
X168042828Y-119125964D01*
X167828663Y-119026097D01*
X167828659Y-119026096D01*
X167828655Y-119026094D01*
X167600413Y-118964938D01*
X167600403Y-118964936D01*
X167365001Y-118944341D01*
X167364999Y-118944341D01*
X167129596Y-118964936D01*
X167129586Y-118964938D01*
X166901344Y-119026094D01*
X166901335Y-119026098D01*
X166687171Y-119125964D01*
X166687169Y-119125965D01*
X166493600Y-119261503D01*
X166371673Y-119383430D01*
X166310350Y-119416914D01*
X166240658Y-119411930D01*
X166184725Y-119370058D01*
X166167810Y-119339081D01*
X166118797Y-119207671D01*
X166118793Y-119207664D01*
X166032547Y-119092455D01*
X166032544Y-119092452D01*
X165917335Y-119006206D01*
X165917328Y-119006202D01*
X165782482Y-118955908D01*
X165782483Y-118955908D01*
X165722883Y-118949501D01*
X165722881Y-118949500D01*
X165722873Y-118949500D01*
X165722865Y-118949500D01*
X164410453Y-118949500D01*
X164343414Y-118929815D01*
X164322772Y-118913181D01*
X163151928Y-117742338D01*
X163151925Y-117742334D01*
X163151925Y-117742335D01*
X163144858Y-117735268D01*
X163144858Y-117735267D01*
X163057733Y-117648142D01*
X163057732Y-117648141D01*
X163057731Y-117648140D01*
X163006509Y-117613915D01*
X162987871Y-117601461D01*
X162955286Y-117579688D01*
X162955283Y-117579686D01*
X162955280Y-117579685D01*
X162874792Y-117546347D01*
X162865104Y-117542334D01*
X162841452Y-117532537D01*
X162841448Y-117532536D01*
X162841444Y-117532535D01*
X162757552Y-117515848D01*
X162757551Y-117515848D01*
X162720611Y-117508500D01*
X162720607Y-117508500D01*
X162720606Y-117508500D01*
X159122781Y-117508500D01*
X159055742Y-117488815D01*
X159009987Y-117436011D01*
X158999492Y-117371243D01*
X159000500Y-117361873D01*
X159000499Y-116366128D01*
X158994091Y-116306517D01*
X158981340Y-116272332D01*
X158976357Y-116202642D01*
X158981340Y-116185669D01*
X158994091Y-116151483D01*
X159000500Y-116091873D01*
X159000499Y-115096128D01*
X158994091Y-115036517D01*
X158981340Y-115002332D01*
X158976357Y-114932642D01*
X158981340Y-114915669D01*
X158994091Y-114881483D01*
X159000500Y-114821873D01*
X159000499Y-113826128D01*
X158994091Y-113766517D01*
X158981340Y-113732332D01*
X158976357Y-113662642D01*
X158981338Y-113645672D01*
X158994091Y-113611483D01*
X159000500Y-113551873D01*
X159000499Y-112556128D01*
X158994091Y-112496517D01*
X158981340Y-112462332D01*
X158976357Y-112392642D01*
X158981338Y-112375672D01*
X158994091Y-112341483D01*
X159000500Y-112281873D01*
X159000499Y-111286128D01*
X158994091Y-111226517D01*
X158981340Y-111192332D01*
X158976357Y-111122642D01*
X158981338Y-111105672D01*
X158994091Y-111071483D01*
X159000500Y-111011873D01*
X159000499Y-110016128D01*
X158994091Y-109956517D01*
X158981340Y-109922332D01*
X158976357Y-109852642D01*
X158981338Y-109835672D01*
X158994091Y-109801483D01*
X159000500Y-109741873D01*
X159000499Y-108746128D01*
X158994091Y-108686517D01*
X158981340Y-108652332D01*
X158976357Y-108582642D01*
X158981338Y-108565672D01*
X158994091Y-108531483D01*
X159000500Y-108471873D01*
X159000499Y-107476128D01*
X158994091Y-107416517D01*
X158981340Y-107382332D01*
X158976357Y-107312642D01*
X158981338Y-107295672D01*
X158994091Y-107261483D01*
X159000500Y-107201873D01*
X159000499Y-106206128D01*
X158994091Y-106146517D01*
X158981340Y-106112332D01*
X158976357Y-106042642D01*
X158981340Y-106025669D01*
X158990915Y-105999997D01*
X162644579Y-105999997D01*
X162644579Y-106000002D01*
X162664248Y-106362782D01*
X162664250Y-106362799D01*
X162723024Y-106721303D01*
X162723030Y-106721329D01*
X162820221Y-107071381D01*
X162820226Y-107071396D01*
X162954700Y-107408901D01*
X162954706Y-107408913D01*
X163124878Y-107729892D01*
X163124881Y-107729897D01*
X163124883Y-107729900D01*
X163202631Y-107844569D01*
X163328772Y-108030613D01*
X163525650Y-108262396D01*
X163563979Y-108307521D01*
X163827746Y-108557375D01*
X164116981Y-108777245D01*
X164428292Y-108964555D01*
X164428294Y-108964556D01*
X164428296Y-108964557D01*
X164428300Y-108964559D01*
X164749437Y-109113132D01*
X164758031Y-109117108D01*
X165102330Y-109233116D01*
X165457153Y-109311218D01*
X165818341Y-109350500D01*
X165818347Y-109350500D01*
X166181653Y-109350500D01*
X166181659Y-109350500D01*
X166542847Y-109311218D01*
X166897670Y-109233116D01*
X167241969Y-109117108D01*
X167571708Y-108964555D01*
X167883019Y-108777245D01*
X168172254Y-108557375D01*
X168436021Y-108307521D01*
X168671227Y-108030614D01*
X168875117Y-107729900D01*
X169045298Y-107408905D01*
X169179775Y-107071391D01*
X169203090Y-106987420D01*
X169236246Y-106868000D01*
X169276973Y-106721316D01*
X169316318Y-106481323D01*
X169335749Y-106362799D01*
X169335751Y-106362782D01*
X169344246Y-106206116D01*
X169349330Y-106112334D01*
X169355421Y-106000002D01*
X169355421Y-105999997D01*
X169335751Y-105637217D01*
X169335749Y-105637200D01*
X169276975Y-105278696D01*
X169276974Y-105278695D01*
X169276973Y-105278684D01*
X169236169Y-105131722D01*
X169179778Y-104928618D01*
X169179773Y-104928603D01*
X169073502Y-104661883D01*
X169045298Y-104591095D01*
X168937761Y-104388259D01*
X168875121Y-104270107D01*
X168875119Y-104270104D01*
X168875117Y-104270100D01*
X168671227Y-103969386D01*
X168436021Y-103692479D01*
X168172254Y-103442625D01*
X168172244Y-103442617D01*
X168058899Y-103356455D01*
X167883019Y-103222755D01*
X167571708Y-103035445D01*
X167571707Y-103035444D01*
X167571703Y-103035442D01*
X167571699Y-103035440D01*
X167241979Y-102882896D01*
X167241974Y-102882894D01*
X167241969Y-102882892D01*
X167074143Y-102826344D01*
X166897669Y-102766883D01*
X166542845Y-102688781D01*
X166181660Y-102649500D01*
X166181659Y-102649500D01*
X165818341Y-102649500D01*
X165818339Y-102649500D01*
X165457154Y-102688781D01*
X165102330Y-102766883D01*
X164836178Y-102856560D01*
X164758031Y-102882892D01*
X164758028Y-102882893D01*
X164758020Y-102882896D01*
X164428300Y-103035440D01*
X164428296Y-103035442D01*
X164326841Y-103096486D01*
X164116981Y-103222755D01*
X164027332Y-103290903D01*
X163827755Y-103442617D01*
X163827745Y-103442625D01*
X163563978Y-103692479D01*
X163328772Y-103969386D01*
X163124884Y-104270098D01*
X163124878Y-104270107D01*
X162954706Y-104591086D01*
X162954700Y-104591098D01*
X162820226Y-104928603D01*
X162820221Y-104928618D01*
X162723030Y-105278670D01*
X162723024Y-105278696D01*
X162664250Y-105637200D01*
X162664248Y-105637217D01*
X162644579Y-105999997D01*
X158990915Y-105999997D01*
X158994091Y-105991483D01*
X159000500Y-105931873D01*
X159000499Y-104936128D01*
X158994091Y-104876517D01*
X158981340Y-104842332D01*
X158976357Y-104772642D01*
X158981340Y-104755669D01*
X158994091Y-104721483D01*
X159000500Y-104661873D01*
X159000499Y-103666128D01*
X158994091Y-103606517D01*
X158981340Y-103572332D01*
X158976357Y-103502642D01*
X158981340Y-103485669D01*
X158994091Y-103451483D01*
X159000500Y-103391873D01*
X159000499Y-102396128D01*
X158994091Y-102336517D01*
X158981073Y-102301616D01*
X158976090Y-102231926D01*
X158981075Y-102214949D01*
X158993597Y-102181375D01*
X158993598Y-102181372D01*
X158999999Y-102121844D01*
X159000000Y-102121827D01*
X159000000Y-101874000D01*
X156500000Y-101874000D01*
X156500000Y-102121844D01*
X156506401Y-102181372D01*
X156506403Y-102181379D01*
X156518925Y-102214952D01*
X156523909Y-102284643D01*
X156518925Y-102301617D01*
X156505909Y-102336514D01*
X156505908Y-102336516D01*
X156499501Y-102396116D01*
X156499501Y-102396123D01*
X156499500Y-102396135D01*
X156499500Y-103391870D01*
X156499501Y-103391876D01*
X156505908Y-103451481D01*
X156518659Y-103485669D01*
X156523642Y-103555361D01*
X156518659Y-103572331D01*
X156505908Y-103606518D01*
X156501825Y-103644500D01*
X156499501Y-103666123D01*
X156499500Y-103666135D01*
X156499500Y-104661870D01*
X156499501Y-104661876D01*
X156505908Y-104721481D01*
X156518659Y-104755669D01*
X156523642Y-104825361D01*
X156518659Y-104842331D01*
X156505908Y-104876518D01*
X156500801Y-104924026D01*
X156499501Y-104936123D01*
X156499500Y-104936135D01*
X156499500Y-105931870D01*
X156499501Y-105931876D01*
X156505908Y-105991481D01*
X156518659Y-106025669D01*
X156523642Y-106095361D01*
X156518659Y-106112331D01*
X156505908Y-106146518D01*
X156499709Y-106204181D01*
X156499501Y-106206123D01*
X156499500Y-106206135D01*
X156499500Y-107201870D01*
X156499501Y-107201876D01*
X156505908Y-107261482D01*
X156508447Y-107268289D01*
X156513426Y-107337981D01*
X156479937Y-107399302D01*
X156461156Y-107414715D01*
X156443563Y-107426471D01*
X156443449Y-107426547D01*
X156351268Y-107488140D01*
X156329370Y-107510039D01*
X156264142Y-107575267D01*
X156264139Y-107575270D01*
X156001270Y-107838139D01*
X156001267Y-107838142D01*
X155965590Y-107873819D01*
X155914142Y-107925266D01*
X155886099Y-107967236D01*
X155886098Y-107967235D01*
X155845689Y-108027712D01*
X155845685Y-108027719D01*
X155815540Y-108100498D01*
X155798538Y-108141543D01*
X155798538Y-108141545D01*
X155798537Y-108141548D01*
X155775039Y-108259685D01*
X155774500Y-108262396D01*
X155774500Y-108953151D01*
X155754815Y-109020190D01*
X155738181Y-109040832D01*
X151815833Y-112963181D01*
X151754510Y-112996666D01*
X151728152Y-112999500D01*
X150337885Y-112999500D01*
X150270846Y-112979815D01*
X150232838Y-112935952D01*
X150230429Y-112937344D01*
X150132534Y-112767785D01*
X150044641Y-112670170D01*
X150005871Y-112627112D01*
X150005870Y-112627111D01*
X149852734Y-112515851D01*
X149852729Y-112515848D01*
X149679807Y-112438857D01*
X149679802Y-112438855D01*
X149534001Y-112407865D01*
X149494646Y-112399500D01*
X149305354Y-112399500D01*
X149272897Y-112406398D01*
X149120197Y-112438855D01*
X149120192Y-112438857D01*
X148947270Y-112515848D01*
X148947265Y-112515851D01*
X148794129Y-112627111D01*
X148667466Y-112767785D01*
X148572821Y-112931715D01*
X148572818Y-112931722D01*
X148518263Y-113099627D01*
X148514326Y-113111744D01*
X148503073Y-113218813D01*
X148494540Y-113300000D01*
X148495858Y-113312539D01*
X148483288Y-113381269D01*
X148435556Y-113432292D01*
X148372537Y-113449500D01*
X143261301Y-113449500D01*
X143138088Y-113449500D01*
X143055975Y-113465833D01*
X143055974Y-113465832D01*
X143017249Y-113473535D01*
X143017240Y-113473538D01*
X142903411Y-113520687D01*
X142856741Y-113551872D01*
X142856740Y-113551872D01*
X142800965Y-113589139D01*
X142800957Y-113589145D01*
X142469604Y-113920500D01*
X142376269Y-114013835D01*
X142376267Y-114013837D01*
X142350110Y-114039994D01*
X142289142Y-114100961D01*
X142262023Y-114141548D01*
X142262022Y-114141547D01*
X142220689Y-114203407D01*
X142220687Y-114203411D01*
X142192882Y-114270537D01*
X142192883Y-114270538D01*
X142173537Y-114317243D01*
X142167987Y-114345144D01*
X142150767Y-114431717D01*
X142149500Y-114438086D01*
X142149500Y-115483850D01*
X142143430Y-115522168D01*
X142114326Y-115611744D01*
X142094540Y-115800000D01*
X142114326Y-115988256D01*
X142114327Y-115988259D01*
X142172818Y-116168277D01*
X142172821Y-116168284D01*
X142232892Y-116272331D01*
X142241939Y-116288000D01*
X142258412Y-116355900D01*
X142241939Y-116412000D01*
X142172821Y-116531715D01*
X142172818Y-116531722D01*
X142115864Y-116707010D01*
X142114326Y-116711744D01*
X142094540Y-116900000D01*
X142114326Y-117088256D01*
X142114327Y-117088259D01*
X142172818Y-117268277D01*
X142172820Y-117268281D01*
X142172821Y-117268284D01*
X142220730Y-117351265D01*
X142263976Y-117426170D01*
X142280448Y-117494070D01*
X142274519Y-117526487D01*
X142218142Y-117699999D01*
X142214326Y-117711744D01*
X142197070Y-117875930D01*
X142194540Y-117900000D01*
X142204686Y-117996540D01*
X142192116Y-118065269D01*
X142144384Y-118116293D01*
X142081365Y-118133500D01*
X141624499Y-118133500D01*
X141557460Y-118113815D01*
X141511705Y-118061011D01*
X141500499Y-118009500D01*
X141500499Y-117636129D01*
X141500498Y-117636123D01*
X141500497Y-117636116D01*
X141494091Y-117576517D01*
X141481340Y-117542332D01*
X141476357Y-117472642D01*
X141481340Y-117455669D01*
X141494091Y-117421483D01*
X141500500Y-117361873D01*
X141500499Y-116366128D01*
X141494091Y-116306517D01*
X141481340Y-116272332D01*
X141476357Y-116202642D01*
X141481340Y-116185669D01*
X141494091Y-116151483D01*
X141500500Y-116091873D01*
X141500499Y-115096128D01*
X141494091Y-115036517D01*
X141481340Y-115002332D01*
X141476357Y-114932642D01*
X141481340Y-114915669D01*
X141494091Y-114881483D01*
X141500500Y-114821873D01*
X141500499Y-113826128D01*
X141494091Y-113766517D01*
X141481340Y-113732332D01*
X141476357Y-113662642D01*
X141481338Y-113645672D01*
X141494091Y-113611483D01*
X141500500Y-113551873D01*
X141500499Y-112724499D01*
X141520183Y-112657461D01*
X141572987Y-112611706D01*
X141624499Y-112600500D01*
X141794644Y-112600500D01*
X141794646Y-112600500D01*
X141979803Y-112561144D01*
X142152730Y-112484151D01*
X142305871Y-112372888D01*
X142432533Y-112232216D01*
X142527179Y-112068284D01*
X142585674Y-111888256D01*
X142605460Y-111700000D01*
X142585674Y-111511744D01*
X142527179Y-111331716D01*
X142475291Y-111241844D01*
X145150000Y-111241844D01*
X145156401Y-111301372D01*
X145156403Y-111301379D01*
X145206645Y-111436086D01*
X145206649Y-111436093D01*
X145292809Y-111551187D01*
X145292812Y-111551190D01*
X145407906Y-111637350D01*
X145407913Y-111637354D01*
X145542620Y-111687596D01*
X145542627Y-111687598D01*
X145602155Y-111693999D01*
X145602172Y-111694000D01*
X145850000Y-111694000D01*
X146350000Y-111694000D01*
X146597828Y-111694000D01*
X146597844Y-111693999D01*
X146657372Y-111687598D01*
X146657376Y-111687597D01*
X146756666Y-111650564D01*
X146826358Y-111645580D01*
X146843334Y-111650564D01*
X146942623Y-111687597D01*
X146942627Y-111687598D01*
X147002155Y-111693999D01*
X147002172Y-111694000D01*
X147250000Y-111694000D01*
X147750000Y-111694000D01*
X147997828Y-111694000D01*
X147997844Y-111693999D01*
X148057372Y-111687598D01*
X148057376Y-111687597D01*
X148156666Y-111650564D01*
X148226358Y-111645580D01*
X148243334Y-111650564D01*
X148342623Y-111687597D01*
X148342627Y-111687598D01*
X148402155Y-111693999D01*
X148402172Y-111694000D01*
X148650000Y-111694000D01*
X149150000Y-111694000D01*
X149397828Y-111694000D01*
X149397844Y-111693999D01*
X149457372Y-111687598D01*
X149457379Y-111687596D01*
X149592086Y-111637354D01*
X149592093Y-111637350D01*
X149707187Y-111551190D01*
X149707190Y-111551187D01*
X149793350Y-111436093D01*
X149793354Y-111436086D01*
X149843596Y-111301379D01*
X149843598Y-111301372D01*
X149849999Y-111241844D01*
X149850000Y-111241827D01*
X149850000Y-110994000D01*
X149150000Y-110994000D01*
X149150000Y-111694000D01*
X148650000Y-111694000D01*
X148650000Y-110994000D01*
X147750000Y-110994000D01*
X147750000Y-111694000D01*
X147250000Y-111694000D01*
X147250000Y-110994000D01*
X146350000Y-110994000D01*
X146350000Y-111694000D01*
X145850000Y-111694000D01*
X145850000Y-110994000D01*
X145150000Y-110994000D01*
X145150000Y-111241844D01*
X142475291Y-111241844D01*
X142432533Y-111167784D01*
X142305871Y-111027112D01*
X142305644Y-111026947D01*
X142152734Y-110915851D01*
X142152729Y-110915848D01*
X141979807Y-110838857D01*
X141979802Y-110838855D01*
X141834001Y-110807865D01*
X141794646Y-110799500D01*
X141624499Y-110799500D01*
X141557460Y-110779815D01*
X141511705Y-110727011D01*
X141500499Y-110675500D01*
X141500499Y-110016129D01*
X141500498Y-110016123D01*
X141500085Y-110012282D01*
X141494091Y-109956517D01*
X141481340Y-109922332D01*
X141476357Y-109852642D01*
X141479526Y-109841844D01*
X145150000Y-109841844D01*
X145156401Y-109901372D01*
X145156403Y-109901383D01*
X145193434Y-110000668D01*
X145198418Y-110070360D01*
X145193434Y-110087332D01*
X145156403Y-110186616D01*
X145156401Y-110186627D01*
X145150000Y-110246155D01*
X145150000Y-110494000D01*
X145850000Y-110494000D01*
X146350000Y-110494000D01*
X147250000Y-110494000D01*
X147750000Y-110494000D01*
X148650000Y-110494000D01*
X149150000Y-110494000D01*
X149850000Y-110494000D01*
X149850000Y-110246172D01*
X149849999Y-110246155D01*
X149843598Y-110186627D01*
X149843597Y-110186623D01*
X149806564Y-110087334D01*
X149801580Y-110017642D01*
X149806564Y-110000666D01*
X149843597Y-109901376D01*
X149843598Y-109901372D01*
X149849999Y-109841844D01*
X149850000Y-109841827D01*
X149850000Y-109594000D01*
X149150000Y-109594000D01*
X149150000Y-110494000D01*
X148650000Y-110494000D01*
X148650000Y-109594000D01*
X147750000Y-109594000D01*
X147750000Y-110494000D01*
X147250000Y-110494000D01*
X147250000Y-109594000D01*
X146350000Y-109594000D01*
X146350000Y-110494000D01*
X145850000Y-110494000D01*
X145850000Y-109594000D01*
X145150000Y-109594000D01*
X145150000Y-109841844D01*
X141479526Y-109841844D01*
X141481338Y-109835672D01*
X141494091Y-109801483D01*
X141500500Y-109741873D01*
X141500499Y-109024499D01*
X141520183Y-108957461D01*
X141572987Y-108911706D01*
X141624499Y-108900500D01*
X141794644Y-108900500D01*
X141794646Y-108900500D01*
X141979803Y-108861144D01*
X142152730Y-108784151D01*
X142305871Y-108672888D01*
X142432533Y-108532216D01*
X142484709Y-108441844D01*
X145150000Y-108441844D01*
X145156401Y-108501372D01*
X145156403Y-108501383D01*
X145193434Y-108600668D01*
X145198418Y-108670360D01*
X145193434Y-108687332D01*
X145156403Y-108786616D01*
X145156401Y-108786627D01*
X145150000Y-108846155D01*
X145150000Y-109094000D01*
X145850000Y-109094000D01*
X146350000Y-109094000D01*
X147250000Y-109094000D01*
X147750000Y-109094000D01*
X148650000Y-109094000D01*
X149150000Y-109094000D01*
X149850000Y-109094000D01*
X149850000Y-108846172D01*
X149849999Y-108846155D01*
X149843598Y-108786627D01*
X149843597Y-108786623D01*
X149806564Y-108687334D01*
X149801580Y-108617642D01*
X149806564Y-108600666D01*
X149843597Y-108501376D01*
X149843598Y-108501372D01*
X149849999Y-108441844D01*
X149850000Y-108441827D01*
X149850000Y-108194000D01*
X149150000Y-108194000D01*
X149150000Y-109094000D01*
X148650000Y-109094000D01*
X148650000Y-108194000D01*
X147750000Y-108194000D01*
X147750000Y-109094000D01*
X147250000Y-109094000D01*
X147250000Y-108194000D01*
X146350000Y-108194000D01*
X146350000Y-109094000D01*
X145850000Y-109094000D01*
X145850000Y-108194000D01*
X145150000Y-108194000D01*
X145150000Y-108441844D01*
X142484709Y-108441844D01*
X142527179Y-108368284D01*
X142585674Y-108188256D01*
X142605460Y-108000000D01*
X142585674Y-107811744D01*
X142527179Y-107631716D01*
X142432533Y-107467784D01*
X142413058Y-107446155D01*
X145150000Y-107446155D01*
X145150000Y-107694000D01*
X145850000Y-107694000D01*
X146350000Y-107694000D01*
X147250000Y-107694000D01*
X147750000Y-107694000D01*
X148650000Y-107694000D01*
X149150000Y-107694000D01*
X149850000Y-107694000D01*
X149850000Y-107446172D01*
X149849999Y-107446155D01*
X149843598Y-107386627D01*
X149843596Y-107386620D01*
X149793354Y-107251913D01*
X149793350Y-107251906D01*
X149707190Y-107136812D01*
X149707187Y-107136809D01*
X149592093Y-107050649D01*
X149592086Y-107050645D01*
X149457379Y-107000403D01*
X149457372Y-107000401D01*
X149397844Y-106994000D01*
X149150000Y-106994000D01*
X149150000Y-107694000D01*
X148650000Y-107694000D01*
X148650000Y-106994000D01*
X148402155Y-106994000D01*
X148342627Y-107000401D01*
X148342616Y-107000403D01*
X148243332Y-107037434D01*
X148173640Y-107042418D01*
X148156668Y-107037434D01*
X148057383Y-107000403D01*
X148057372Y-107000401D01*
X147997844Y-106994000D01*
X147750000Y-106994000D01*
X147750000Y-107694000D01*
X147250000Y-107694000D01*
X147250000Y-106994000D01*
X147002155Y-106994000D01*
X146942627Y-107000401D01*
X146942616Y-107000403D01*
X146843332Y-107037434D01*
X146773640Y-107042418D01*
X146756668Y-107037434D01*
X146657383Y-107000403D01*
X146657372Y-107000401D01*
X146597844Y-106994000D01*
X146350000Y-106994000D01*
X146350000Y-107694000D01*
X145850000Y-107694000D01*
X145850000Y-106994000D01*
X145602155Y-106994000D01*
X145542627Y-107000401D01*
X145542620Y-107000403D01*
X145407913Y-107050645D01*
X145407906Y-107050649D01*
X145292812Y-107136809D01*
X145292809Y-107136812D01*
X145206649Y-107251906D01*
X145206645Y-107251913D01*
X145156403Y-107386620D01*
X145156401Y-107386627D01*
X145150000Y-107446155D01*
X142413058Y-107446155D01*
X142305871Y-107327112D01*
X142285955Y-107312642D01*
X142152734Y-107215851D01*
X142152729Y-107215848D01*
X141979807Y-107138857D01*
X141979802Y-107138855D01*
X141834001Y-107107865D01*
X141794646Y-107099500D01*
X141624499Y-107099500D01*
X141557460Y-107079815D01*
X141511705Y-107027011D01*
X141500499Y-106975500D01*
X141500499Y-106524500D01*
X141520184Y-106457461D01*
X141572988Y-106411706D01*
X141624499Y-106400500D01*
X141794644Y-106400500D01*
X141794646Y-106400500D01*
X141979803Y-106361144D01*
X142152730Y-106284151D01*
X142305871Y-106172888D01*
X142432533Y-106032216D01*
X142527179Y-105868284D01*
X142585674Y-105688256D01*
X142605460Y-105500000D01*
X142585674Y-105311744D01*
X142527179Y-105131716D01*
X142500982Y-105086342D01*
X142484510Y-105018444D01*
X142507362Y-104952417D01*
X142535485Y-104924026D01*
X142605871Y-104872888D01*
X142732533Y-104732216D01*
X142827179Y-104568284D01*
X142885674Y-104388256D01*
X142905460Y-104200000D01*
X142885674Y-104011744D01*
X142827179Y-103831716D01*
X142732533Y-103667784D01*
X142656165Y-103582969D01*
X142625937Y-103519981D01*
X142634562Y-103450646D01*
X142656162Y-103417033D01*
X142732533Y-103332216D01*
X142827179Y-103168284D01*
X142885674Y-102988256D01*
X142905460Y-102800000D01*
X142885674Y-102611744D01*
X142827179Y-102431716D01*
X142732533Y-102267784D01*
X142605871Y-102127112D01*
X142599529Y-102122504D01*
X142452734Y-102015851D01*
X142452729Y-102015848D01*
X142279807Y-101938857D01*
X142279802Y-101938855D01*
X142134001Y-101907865D01*
X142094646Y-101899500D01*
X141905354Y-101899500D01*
X141872897Y-101906398D01*
X141720197Y-101938855D01*
X141720196Y-101938855D01*
X141674435Y-101959230D01*
X141605184Y-101968514D01*
X141541908Y-101938885D01*
X141504695Y-101879750D01*
X141504524Y-101878524D01*
X141500000Y-101874000D01*
X139000000Y-101874000D01*
X139000000Y-102019500D01*
X138980315Y-102086539D01*
X138927511Y-102132294D01*
X138876000Y-102143500D01*
X138304229Y-102143500D01*
X138237190Y-102123815D01*
X138216548Y-102107181D01*
X137834421Y-101725052D01*
X137834414Y-101725046D01*
X137760729Y-101675812D01*
X137760729Y-101675813D01*
X137711491Y-101642913D01*
X137574917Y-101586343D01*
X137574907Y-101586340D01*
X137429920Y-101557500D01*
X137429918Y-101557500D01*
X127227337Y-101557500D01*
X127160298Y-101537815D01*
X127154452Y-101533818D01*
X127140734Y-101523851D01*
X127140729Y-101523848D01*
X126967807Y-101446857D01*
X126967802Y-101446855D01*
X126822001Y-101415865D01*
X126782646Y-101407500D01*
X126593354Y-101407500D01*
X126560897Y-101414398D01*
X126408197Y-101446855D01*
X126408192Y-101446857D01*
X126235270Y-101523848D01*
X126235265Y-101523851D01*
X126082129Y-101635111D01*
X125955466Y-101775785D01*
X125860821Y-101939715D01*
X125860818Y-101939722D01*
X125813115Y-102086539D01*
X125802326Y-102119744D01*
X125782540Y-102308000D01*
X125802326Y-102496256D01*
X125802327Y-102496259D01*
X125860818Y-102676277D01*
X125860821Y-102676284D01*
X125955467Y-102840216D01*
X126082129Y-102980888D01*
X126235268Y-103092150D01*
X126236934Y-103093112D01*
X126237705Y-103093920D01*
X126240527Y-103095971D01*
X126240152Y-103096486D01*
X126285150Y-103143678D01*
X126298375Y-103212285D01*
X126272408Y-103277150D01*
X126215495Y-103317679D01*
X126174936Y-103324500D01*
X117884580Y-103324500D01*
X117817541Y-103304815D01*
X117771786Y-103252011D01*
X117761842Y-103182853D01*
X117762963Y-103176309D01*
X117785999Y-103060495D01*
X117786000Y-103060492D01*
X117786000Y-102812000D01*
X117086000Y-102812000D01*
X117086000Y-102312000D01*
X117786000Y-102312000D01*
X117786000Y-102063508D01*
X117785999Y-102063504D01*
X117747572Y-101870318D01*
X117747569Y-101870306D01*
X117672192Y-101688328D01*
X117672185Y-101688315D01*
X117562751Y-101524537D01*
X117562748Y-101524533D01*
X117423466Y-101385251D01*
X117423462Y-101385248D01*
X117259684Y-101275814D01*
X117259671Y-101275807D01*
X117077691Y-101200429D01*
X117077683Y-101200427D01*
X117036000Y-101192135D01*
X117036000Y-101995011D01*
X117026060Y-101977795D01*
X116970205Y-101921940D01*
X116901796Y-101882444D01*
X116825496Y-101862000D01*
X116746504Y-101862000D01*
X116670204Y-101882444D01*
X116601795Y-101921940D01*
X116545940Y-101977795D01*
X116536000Y-101995011D01*
X116536000Y-101192136D01*
X116535999Y-101192135D01*
X116494316Y-101200427D01*
X116494308Y-101200429D01*
X116312328Y-101275807D01*
X116312315Y-101275814D01*
X116148537Y-101385248D01*
X116148533Y-101385251D01*
X116009251Y-101524533D01*
X116009248Y-101524537D01*
X115899814Y-101688315D01*
X115899807Y-101688328D01*
X115824430Y-101870306D01*
X115824427Y-101870318D01*
X115786000Y-102063504D01*
X115786000Y-102312000D01*
X116486000Y-102312000D01*
X116486000Y-102812000D01*
X115786000Y-102812000D01*
X115786000Y-103060495D01*
X115809037Y-103176309D01*
X115802810Y-103245901D01*
X115759947Y-103301078D01*
X115694057Y-103324322D01*
X115687420Y-103324500D01*
X109244580Y-103324500D01*
X109177541Y-103304815D01*
X109131786Y-103252011D01*
X109121842Y-103182853D01*
X109122963Y-103176309D01*
X109145999Y-103060495D01*
X109146000Y-103060492D01*
X109146000Y-102812000D01*
X108446000Y-102812000D01*
X108446000Y-102312000D01*
X109146000Y-102312000D01*
X109146000Y-102063508D01*
X109145999Y-102063504D01*
X109107572Y-101870318D01*
X109107569Y-101870306D01*
X109032192Y-101688328D01*
X109032185Y-101688315D01*
X108922751Y-101524537D01*
X108922748Y-101524533D01*
X108783466Y-101385251D01*
X108783462Y-101385248D01*
X108619684Y-101275814D01*
X108619671Y-101275807D01*
X108437691Y-101200429D01*
X108437683Y-101200427D01*
X108396000Y-101192135D01*
X108396000Y-101995011D01*
X108386060Y-101977795D01*
X108330205Y-101921940D01*
X108261796Y-101882444D01*
X108185496Y-101862000D01*
X108106504Y-101862000D01*
X108030204Y-101882444D01*
X107961795Y-101921940D01*
X107905940Y-101977795D01*
X107896000Y-101995011D01*
X107896000Y-101192136D01*
X107895999Y-101192135D01*
X107854316Y-101200427D01*
X107854308Y-101200429D01*
X107672328Y-101275807D01*
X107672315Y-101275814D01*
X107508537Y-101385248D01*
X107508533Y-101385251D01*
X107369251Y-101524533D01*
X107369248Y-101524537D01*
X107259814Y-101688315D01*
X107259807Y-101688328D01*
X107184430Y-101870306D01*
X107184427Y-101870318D01*
X107146000Y-102063504D01*
X107146000Y-102312000D01*
X107846000Y-102312000D01*
X107846000Y-102812000D01*
X107146000Y-102812000D01*
X107146000Y-103060495D01*
X107169037Y-103176309D01*
X107162810Y-103245901D01*
X107119947Y-103301078D01*
X107054057Y-103324322D01*
X107047420Y-103324500D01*
X96536389Y-103324500D01*
X96475971Y-103336518D01*
X96432743Y-103345116D01*
X96415546Y-103348537D01*
X96301716Y-103395687D01*
X96301707Y-103395692D01*
X96199268Y-103464140D01*
X96163409Y-103500000D01*
X96112142Y-103551267D01*
X93777266Y-105886143D01*
X93698279Y-105965128D01*
X93636956Y-105998613D01*
X93567264Y-105993627D01*
X93518448Y-105960417D01*
X93511869Y-105953110D01*
X93358734Y-105841851D01*
X93358729Y-105841848D01*
X93185807Y-105764857D01*
X93185802Y-105764855D01*
X93015790Y-105728719D01*
X93000646Y-105725500D01*
X92811354Y-105725500D01*
X92796210Y-105728719D01*
X92626197Y-105764855D01*
X92626192Y-105764857D01*
X92453270Y-105841848D01*
X92453265Y-105841851D01*
X92300130Y-105953110D01*
X92300126Y-105953114D01*
X92294400Y-105959474D01*
X92234913Y-105996121D01*
X92202252Y-106000500D01*
X88517389Y-106000500D01*
X88433268Y-106017233D01*
X88420036Y-106019865D01*
X88396548Y-106024537D01*
X88396547Y-106024537D01*
X88282716Y-106071687D01*
X88202182Y-106125499D01*
X88180266Y-106140142D01*
X88180260Y-106140147D01*
X86737616Y-107582791D01*
X86676293Y-107616276D01*
X86609676Y-107612393D01*
X86588132Y-107604997D01*
X86387729Y-107571556D01*
X86360427Y-107567000D01*
X86129573Y-107567000D01*
X86072646Y-107576499D01*
X85901864Y-107604998D01*
X85683525Y-107679954D01*
X85683514Y-107679959D01*
X85480492Y-107789828D01*
X85480481Y-107789835D01*
X85298319Y-107931618D01*
X85298315Y-107931621D01*
X85196230Y-108042516D01*
X85136343Y-108078507D01*
X85066504Y-108076406D01*
X85013770Y-108042516D01*
X85002912Y-108030721D01*
X84911687Y-107931624D01*
X84911686Y-107931623D01*
X84911684Y-107931621D01*
X84911680Y-107931618D01*
X84729518Y-107789835D01*
X84729507Y-107789828D01*
X84526485Y-107679959D01*
X84526482Y-107679957D01*
X84526479Y-107679956D01*
X84526476Y-107679955D01*
X84526474Y-107679954D01*
X84308135Y-107604998D01*
X84156329Y-107579666D01*
X84080427Y-107567000D01*
X83849573Y-107567000D01*
X83792646Y-107576499D01*
X83621864Y-107604998D01*
X83403525Y-107679954D01*
X83403514Y-107679959D01*
X83200492Y-107789828D01*
X83200481Y-107789835D01*
X83018319Y-107931618D01*
X83018315Y-107931621D01*
X82916230Y-108042516D01*
X82856343Y-108078507D01*
X82786504Y-108076406D01*
X82733770Y-108042516D01*
X82722912Y-108030721D01*
X82631687Y-107931624D01*
X82631686Y-107931623D01*
X82631684Y-107931621D01*
X82631680Y-107931618D01*
X82449518Y-107789835D01*
X82449507Y-107789828D01*
X82246485Y-107679959D01*
X82246482Y-107679957D01*
X82246479Y-107679956D01*
X82246476Y-107679955D01*
X82246474Y-107679954D01*
X82028135Y-107604998D01*
X81876329Y-107579666D01*
X81800427Y-107567000D01*
X81569573Y-107567000D01*
X81512646Y-107576499D01*
X81341864Y-107604998D01*
X81123525Y-107679954D01*
X81123514Y-107679959D01*
X80920492Y-107789828D01*
X80920481Y-107789835D01*
X80738319Y-107931618D01*
X80738316Y-107931621D01*
X80738313Y-107931623D01*
X80738313Y-107931624D01*
X80711244Y-107961029D01*
X80581961Y-108101467D01*
X80581958Y-108101471D01*
X80455694Y-108294731D01*
X80362960Y-108506145D01*
X80306289Y-108729937D01*
X80287226Y-108959994D01*
X80287226Y-108960005D01*
X80306289Y-109190062D01*
X80362960Y-109413854D01*
X80455694Y-109625268D01*
X80552685Y-109773723D01*
X80581960Y-109818531D01*
X80606674Y-109845378D01*
X80656513Y-109899517D01*
X80687435Y-109962172D01*
X80679575Y-110031598D01*
X80635428Y-110085753D01*
X80569010Y-110107444D01*
X80565283Y-110107500D01*
X80429615Y-110107500D01*
X80201987Y-110145484D01*
X79983729Y-110220413D01*
X79983721Y-110220416D01*
X79780760Y-110330254D01*
X79751545Y-110352991D01*
X79751545Y-110352992D01*
X80338022Y-110939469D01*
X80315339Y-110945548D01*
X80179662Y-111023882D01*
X80068882Y-111134662D01*
X79990548Y-111270339D01*
X79984470Y-111293022D01*
X79399230Y-110707783D01*
X79316135Y-110834972D01*
X79223435Y-111046308D01*
X79166784Y-111270020D01*
X79147728Y-111499994D01*
X76103249Y-111499994D01*
X76084268Y-111186213D01*
X76027603Y-110877002D01*
X75980864Y-110727011D01*
X75934086Y-110576893D01*
X75934084Y-110576888D01*
X75934080Y-110576875D01*
X75805063Y-110290210D01*
X75642432Y-110021186D01*
X75639655Y-110017642D01*
X75448557Y-109773723D01*
X75226276Y-109551442D01*
X74978821Y-109357573D01*
X74978816Y-109357570D01*
X74978814Y-109357568D01*
X74709790Y-109194937D01*
X74423125Y-109065920D01*
X74423118Y-109065917D01*
X74423106Y-109065913D01*
X74123006Y-108972399D01*
X74123002Y-108972398D01*
X74122998Y-108972397D01*
X73813787Y-108915732D01*
X73813786Y-108915731D01*
X73813781Y-108915731D01*
X73500000Y-108896751D01*
X73186218Y-108915731D01*
X73186213Y-108915732D01*
X72877002Y-108972397D01*
X72876999Y-108972397D01*
X72876993Y-108972399D01*
X72576893Y-109065913D01*
X72576877Y-109065919D01*
X72576875Y-109065920D01*
X72514484Y-109094000D01*
X72301042Y-109190062D01*
X72290210Y-109194937D01*
X72228543Y-109232216D01*
X72021187Y-109357567D01*
X72021178Y-109357573D01*
X71773723Y-109551442D01*
X71551442Y-109773723D01*
X71357573Y-110021178D01*
X71357567Y-110021187D01*
X71305423Y-110107444D01*
X71196273Y-110288001D01*
X71194936Y-110290212D01*
X71194935Y-110290214D01*
X71171094Y-110343187D01*
X71073073Y-110560983D01*
X71065919Y-110576878D01*
X71065913Y-110576893D01*
X70972399Y-110876993D01*
X70972397Y-110876999D01*
X70972397Y-110877002D01*
X70930493Y-111105666D01*
X70915731Y-111186218D01*
X70896751Y-111500000D01*
X60426000Y-111500000D01*
X60426000Y-105999997D01*
X62644579Y-105999997D01*
X62644579Y-106000002D01*
X62664248Y-106362782D01*
X62664250Y-106362799D01*
X62723024Y-106721303D01*
X62723030Y-106721329D01*
X62820221Y-107071381D01*
X62820226Y-107071396D01*
X62954700Y-107408901D01*
X62954706Y-107408913D01*
X63124878Y-107729892D01*
X63124881Y-107729897D01*
X63124883Y-107729900D01*
X63202631Y-107844569D01*
X63328772Y-108030613D01*
X63525650Y-108262396D01*
X63563979Y-108307521D01*
X63827746Y-108557375D01*
X64116981Y-108777245D01*
X64428292Y-108964555D01*
X64428294Y-108964556D01*
X64428296Y-108964557D01*
X64428300Y-108964559D01*
X64749437Y-109113132D01*
X64758031Y-109117108D01*
X65102330Y-109233116D01*
X65457153Y-109311218D01*
X65818341Y-109350500D01*
X65818347Y-109350500D01*
X66181653Y-109350500D01*
X66181659Y-109350500D01*
X66542847Y-109311218D01*
X66897670Y-109233116D01*
X67241969Y-109117108D01*
X67571708Y-108964555D01*
X67883019Y-108777245D01*
X68172254Y-108557375D01*
X68436021Y-108307521D01*
X68671227Y-108030614D01*
X68875117Y-107729900D01*
X69045298Y-107408905D01*
X69179775Y-107071391D01*
X69203090Y-106987420D01*
X69236246Y-106868000D01*
X69276973Y-106721316D01*
X69316318Y-106481323D01*
X69335749Y-106362799D01*
X69335751Y-106362782D01*
X69344246Y-106206116D01*
X69349330Y-106112334D01*
X69355421Y-106000002D01*
X69355421Y-105999997D01*
X69335751Y-105637217D01*
X69335749Y-105637200D01*
X69276975Y-105278696D01*
X69276974Y-105278695D01*
X69276973Y-105278684D01*
X69236169Y-105131722D01*
X69179778Y-104928618D01*
X69179773Y-104928603D01*
X69073502Y-104661883D01*
X69045298Y-104591095D01*
X68937761Y-104388259D01*
X68875121Y-104270107D01*
X68875119Y-104270104D01*
X68875117Y-104270100D01*
X68671227Y-103969386D01*
X68436021Y-103692479D01*
X68172254Y-103442625D01*
X68172244Y-103442617D01*
X68058899Y-103356455D01*
X67883019Y-103222755D01*
X67571708Y-103035445D01*
X67571707Y-103035444D01*
X67571703Y-103035442D01*
X67571699Y-103035440D01*
X67241979Y-102882896D01*
X67241974Y-102882894D01*
X67241969Y-102882892D01*
X67074143Y-102826344D01*
X66897669Y-102766883D01*
X66542845Y-102688781D01*
X66181660Y-102649500D01*
X66181659Y-102649500D01*
X65818341Y-102649500D01*
X65818339Y-102649500D01*
X65457154Y-102688781D01*
X65102330Y-102766883D01*
X64836178Y-102856560D01*
X64758031Y-102882892D01*
X64758028Y-102882893D01*
X64758020Y-102882896D01*
X64428300Y-103035440D01*
X64428296Y-103035442D01*
X64326841Y-103096486D01*
X64116981Y-103222755D01*
X64027332Y-103290903D01*
X63827755Y-103442617D01*
X63827745Y-103442625D01*
X63563978Y-103692479D01*
X63328772Y-103969386D01*
X63124884Y-104270098D01*
X63124878Y-104270107D01*
X62954706Y-104591086D01*
X62954700Y-104591098D01*
X62820226Y-104928603D01*
X62820221Y-104928618D01*
X62723030Y-105278670D01*
X62723024Y-105278696D01*
X62664250Y-105637200D01*
X62664248Y-105637217D01*
X62644579Y-105999997D01*
X60426000Y-105999997D01*
X60426000Y-100654000D01*
X60445685Y-100586961D01*
X60498489Y-100541206D01*
X60550000Y-100530000D01*
X139153384Y-100530000D01*
X139220423Y-100549685D01*
G37*
%TD.AperFunction*%
%TD*%
M02*
