%TF.GenerationSoftware,KiCad,Pcbnew,8.0.4*%
%TF.CreationDate,2024-08-04T15:04:29+02:00*%
%TF.ProjectId,pc1715-esp32vga,70633137-3135-42d6-9573-703332766761,2*%
%TF.SameCoordinates,Original*%
%TF.FileFunction,Drillmap*%
%TF.FilePolarity,Positive*%
%FSLAX45Y45*%
G04 Gerber Fmt 4.5, Leading zero omitted, Abs format (unit mm)*
G04 Created by KiCad (PCBNEW 8.0.4) date 2024-08-04 15:04:29*
%MOMM*%
%LPD*%
G01*
G04 APERTURE LIST*
%ADD10C,0.100000*%
%ADD11C,0.200000*%
%ADD12C,0.119000*%
%ADD13C,0.230000*%
%ADD14C,0.318000*%
%ADD15C,0.320000*%
G04 APERTURE END LIST*
D10*
X6000000Y-10000000D02*
X17200000Y-10000000D01*
X17200000Y-13800000D01*
X6000000Y-13800000D01*
X6000000Y-10000000D01*
D11*
D10*
X6857600Y-11226800D02*
X6897600Y-11266800D01*
X6897600Y-11226800D02*
X6857600Y-11266800D01*
X6857600Y-12014200D02*
X6897600Y-12054200D01*
X6897600Y-12014200D02*
X6857600Y-12054200D01*
X7289400Y-13131800D02*
X7329400Y-13171800D01*
X7329400Y-13131800D02*
X7289400Y-13171800D01*
X7619600Y-10388600D02*
X7659600Y-10428600D01*
X7659600Y-10388600D02*
X7619600Y-10428600D01*
X8148500Y-11811000D02*
X8188500Y-11851000D01*
X8188500Y-11811000D02*
X8148500Y-11851000D01*
X8270000Y-12030000D02*
X8310000Y-12070000D01*
X8310000Y-12030000D02*
X8270000Y-12070000D01*
X8376500Y-11734800D02*
X8416500Y-11774800D01*
X8416500Y-11734800D02*
X8376500Y-11774800D01*
X8510000Y-12030000D02*
X8550000Y-12070000D01*
X8550000Y-12030000D02*
X8510000Y-12070000D01*
X8604500Y-11658600D02*
X8644500Y-11698600D01*
X8644500Y-11658600D02*
X8604500Y-11698600D01*
X8920000Y-12030000D02*
X8960000Y-12070000D01*
X8960000Y-12030000D02*
X8920000Y-12070000D01*
X9270600Y-10642600D02*
X9310600Y-10682600D01*
X9310600Y-10642600D02*
X9270600Y-10682600D01*
X9703005Y-10541605D02*
X9743005Y-10581605D01*
X9743005Y-10541605D02*
X9703005Y-10581605D01*
X9727800Y-10642600D02*
X9767800Y-10682600D01*
X9767800Y-10642600D02*
X9727800Y-10682600D01*
X10032600Y-13131800D02*
X10072600Y-13171800D01*
X10072600Y-13131800D02*
X10032600Y-13171800D01*
X10235800Y-11684000D02*
X10275800Y-11724000D01*
X10275800Y-11684000D02*
X10235800Y-11724000D01*
X10660000Y-10620000D02*
X10700000Y-10660000D01*
X10700000Y-10620000D02*
X10660000Y-10660000D01*
X10940000Y-12030000D02*
X10980000Y-12070000D01*
X10980000Y-12030000D02*
X10940000Y-12070000D01*
X10990000Y-10830000D02*
X11030000Y-10870000D01*
X11030000Y-10830000D02*
X10990000Y-10870000D01*
X11160000Y-10830000D02*
X11200000Y-10870000D01*
X11200000Y-10830000D02*
X11160000Y-10870000D01*
X11240000Y-10170000D02*
X11280000Y-10210000D01*
X11280000Y-10170000D02*
X11240000Y-10210000D01*
X11300000Y-10830000D02*
X11340000Y-10870000D01*
X11340000Y-10830000D02*
X11300000Y-10870000D01*
X11500000Y-10830000D02*
X11540000Y-10870000D01*
X11540000Y-10830000D02*
X11500000Y-10870000D01*
X12210000Y-12850000D02*
X12250000Y-12890000D01*
X12250000Y-12850000D02*
X12210000Y-12890000D01*
X12390000Y-13580000D02*
X12430000Y-13620000D01*
X12430000Y-13580000D02*
X12390000Y-13620000D01*
X12394800Y-11328400D02*
X12434800Y-11368400D01*
X12434800Y-11328400D02*
X12394800Y-11368400D01*
X12400000Y-11760000D02*
X12440000Y-11800000D01*
X12440000Y-11760000D02*
X12400000Y-11800000D01*
X12400000Y-12030000D02*
X12440000Y-12070000D01*
X12440000Y-12030000D02*
X12400000Y-12070000D01*
X12400000Y-12440000D02*
X12440000Y-12480000D01*
X12440000Y-12440000D02*
X12400000Y-12480000D01*
X12400000Y-12630000D02*
X12440000Y-12670000D01*
X12440000Y-12630000D02*
X12400000Y-12670000D01*
X12590000Y-12840000D02*
X12630000Y-12880000D01*
X12630000Y-12840000D02*
X12590000Y-12880000D01*
X12590000Y-13090000D02*
X12630000Y-13130000D01*
X12630000Y-13090000D02*
X12590000Y-13130000D01*
X12590000Y-13350000D02*
X12630000Y-13390000D01*
X12630000Y-13350000D02*
X12590000Y-13390000D01*
X12648800Y-10210800D02*
X12688800Y-10250800D01*
X12688800Y-10210800D02*
X12648800Y-10250800D01*
X12674200Y-11328400D02*
X12714200Y-11368400D01*
X12714200Y-11328400D02*
X12674200Y-11368400D01*
X12699600Y-10922000D02*
X12739600Y-10962000D01*
X12739600Y-10922000D02*
X12699600Y-10962000D01*
X12750400Y-10972800D02*
X12790400Y-11012800D01*
X12790400Y-10972800D02*
X12750400Y-11012800D01*
X13004400Y-11379200D02*
X13044400Y-11419200D01*
X13044400Y-11379200D02*
X13004400Y-11419200D01*
X13190000Y-12940000D02*
X13230000Y-12980000D01*
X13230000Y-12940000D02*
X13190000Y-12980000D01*
X13230000Y-10350000D02*
X13270000Y-10390000D01*
X13270000Y-10350000D02*
X13230000Y-10390000D01*
X13233000Y-10541000D02*
X13273000Y-10581000D01*
X13273000Y-10541000D02*
X13233000Y-10581000D01*
X13233000Y-10896600D02*
X13273000Y-10936600D01*
X13273000Y-10896600D02*
X13233000Y-10936600D01*
X13233000Y-11226800D02*
X13273000Y-11266800D01*
X13273000Y-11226800D02*
X13233000Y-11266800D01*
X13440000Y-11760000D02*
X13480000Y-11800000D01*
X13480000Y-11760000D02*
X13440000Y-11800000D01*
X13440000Y-12030000D02*
X13480000Y-12070000D01*
X13480000Y-12030000D02*
X13440000Y-12070000D01*
X13440000Y-12930000D02*
X13480000Y-12970000D01*
X13480000Y-12930000D02*
X13440000Y-12970000D01*
X13440000Y-13170000D02*
X13480000Y-13210000D01*
X13480000Y-13170000D02*
X13440000Y-13210000D01*
X13440000Y-13580000D02*
X13480000Y-13620000D01*
X13480000Y-13580000D02*
X13440000Y-13620000D01*
X13817200Y-10642600D02*
X13857200Y-10682600D01*
X13857200Y-10642600D02*
X13817200Y-10682600D01*
X13817200Y-10896600D02*
X13857200Y-10936600D01*
X13857200Y-10896600D02*
X13817200Y-10936600D01*
X13817200Y-11049000D02*
X13857200Y-11089000D01*
X13857200Y-11049000D02*
X13817200Y-11089000D01*
X13910000Y-12440000D02*
X13950000Y-12480000D01*
X13950000Y-12440000D02*
X13910000Y-12480000D01*
X13920000Y-13460000D02*
X13960000Y-13500000D01*
X13960000Y-13460000D02*
X13920000Y-13500000D01*
X13940000Y-12660000D02*
X13980000Y-12700000D01*
X13980000Y-12660000D02*
X13940000Y-12700000D01*
X14180000Y-10130000D02*
X14220000Y-10170000D01*
X14220000Y-10130000D02*
X14180000Y-10170000D01*
X14180000Y-10260000D02*
X14220000Y-10300000D01*
X14220000Y-10260000D02*
X14180000Y-10300000D01*
X14220000Y-13170000D02*
X14260000Y-13210000D01*
X14260000Y-13170000D02*
X14220000Y-13210000D01*
X14223600Y-10541000D02*
X14263600Y-10581000D01*
X14263600Y-10541000D02*
X14223600Y-10581000D01*
X14223600Y-10871200D02*
X14263600Y-10911200D01*
X14263600Y-10871200D02*
X14223600Y-10911200D01*
X14223600Y-11226800D02*
X14263600Y-11266800D01*
X14263600Y-11226800D02*
X14223600Y-11266800D01*
X14280000Y-12190000D02*
X14320000Y-12230000D01*
X14320000Y-12190000D02*
X14280000Y-12230000D01*
X14390000Y-11650000D02*
X14430000Y-11690000D01*
X14430000Y-11650000D02*
X14390000Y-11690000D01*
X14390000Y-11760000D02*
X14430000Y-11800000D01*
X14430000Y-11760000D02*
X14390000Y-11800000D01*
X14390000Y-13170000D02*
X14430000Y-13210000D01*
X14430000Y-13170000D02*
X14390000Y-13210000D01*
X14426800Y-11531600D02*
X14466800Y-11571600D01*
X14466800Y-11531600D02*
X14426800Y-11571600D01*
X14486000Y-12820000D02*
X14526000Y-12860000D01*
X14526000Y-12820000D02*
X14486000Y-12860000D01*
X14490000Y-12440000D02*
X14530000Y-12480000D01*
X14530000Y-12440000D02*
X14490000Y-12480000D01*
X14510000Y-12190000D02*
X14550000Y-12230000D01*
X14550000Y-12190000D02*
X14510000Y-12230000D01*
X14690000Y-11780000D02*
X14730000Y-11820000D01*
X14730000Y-11780000D02*
X14690000Y-11820000D01*
X14740000Y-12190000D02*
X14780000Y-12230000D01*
X14780000Y-12190000D02*
X14740000Y-12230000D01*
X14740000Y-12530000D02*
X14780000Y-12570000D01*
X14780000Y-12530000D02*
X14740000Y-12570000D01*
X14807800Y-10566400D02*
X14847800Y-10606400D01*
X14847800Y-10566400D02*
X14807800Y-10606400D01*
X14820000Y-11780000D02*
X14860000Y-11820000D01*
X14860000Y-11780000D02*
X14820000Y-11820000D01*
X14930000Y-11680000D02*
X14970000Y-11720000D01*
X14970000Y-11680000D02*
X14930000Y-11720000D01*
X15080000Y-11680000D02*
X15120000Y-11720000D01*
X15120000Y-11680000D02*
X15080000Y-11720000D01*
X15080000Y-13210000D02*
X15120000Y-13250000D01*
X15120000Y-13210000D02*
X15080000Y-13250000D01*
X15110000Y-13110000D02*
X15150000Y-13150000D01*
X15150000Y-13110000D02*
X15110000Y-13150000D01*
X15152500Y-12430000D02*
X15192500Y-12470000D01*
X15192500Y-12430000D02*
X15152500Y-12470000D01*
X15188800Y-10388600D02*
X15228800Y-10428600D01*
X15228800Y-10388600D02*
X15188800Y-10428600D01*
X15197500Y-11712500D02*
X15237500Y-11752500D01*
X15237500Y-11712500D02*
X15197500Y-11752500D01*
X15200000Y-11450000D02*
X15240000Y-11490000D01*
X15240000Y-11450000D02*
X15200000Y-11490000D01*
X15230000Y-12760000D02*
X15270000Y-12800000D01*
X15270000Y-12760000D02*
X15230000Y-12800000D01*
X15280000Y-12530000D02*
X15320000Y-12570000D01*
X15320000Y-12530000D02*
X15280000Y-12570000D01*
X15330000Y-11730000D02*
X15370000Y-11770000D01*
X15370000Y-11730000D02*
X15330000Y-11770000D01*
X15380000Y-12430000D02*
X15420000Y-12470000D01*
X15420000Y-12430000D02*
X15380000Y-12470000D01*
X15430000Y-11780000D02*
X15470000Y-11820000D01*
X15470000Y-11780000D02*
X15430000Y-11820000D01*
X15490000Y-12760000D02*
X15530000Y-12800000D01*
X15530000Y-12760000D02*
X15490000Y-12800000D01*
X15544400Y-10515600D02*
X15584400Y-10555600D01*
X15584400Y-10515600D02*
X15544400Y-10555600D01*
X15580000Y-10130000D02*
X15620000Y-10170000D01*
X15620000Y-10130000D02*
X15580000Y-10170000D01*
X15616900Y-10780000D02*
X15656900Y-10820000D01*
X15656900Y-10780000D02*
X15616900Y-10820000D01*
X15620600Y-12192000D02*
X15660600Y-12232000D01*
X15660600Y-12192000D02*
X15620600Y-12232000D01*
X16170000Y-11080000D02*
X16210000Y-11120000D01*
X16210000Y-11080000D02*
X16170000Y-11120000D01*
X16170000Y-13020000D02*
X16210000Y-13060000D01*
X16210000Y-13020000D02*
X16170000Y-13060000D01*
X10844600Y-10256200D02*
G75*
G02*
X10784600Y-10256200I-30000J0D01*
G01*
X10784600Y-10256200D02*
G75*
G02*
X10844600Y-10256200I30000J0D01*
G01*
X10844600Y-10296200D02*
X10844600Y-10216200D01*
X10784600Y-10216200D02*
G75*
G02*
X10844600Y-10216200I30000J0D01*
G01*
X10784600Y-10216200D02*
X10784600Y-10296200D01*
X10784600Y-10296200D02*
G75*
G03*
X10844600Y-10296200I30000J0D01*
G01*
X10844600Y-10674200D02*
G75*
G02*
X10784600Y-10674200I-30000J0D01*
G01*
X10784600Y-10674200D02*
G75*
G02*
X10844600Y-10674200I30000J0D01*
G01*
X10844600Y-10729200D02*
X10844600Y-10619200D01*
X10784600Y-10619200D02*
G75*
G02*
X10844600Y-10619200I30000J0D01*
G01*
X10784600Y-10619200D02*
X10784600Y-10729200D01*
X10784600Y-10729200D02*
G75*
G03*
X10844600Y-10729200I30000J0D01*
G01*
X11708600Y-10256200D02*
G75*
G02*
X11648600Y-10256200I-30000J0D01*
G01*
X11648600Y-10256200D02*
G75*
G02*
X11708600Y-10256200I30000J0D01*
G01*
X11708600Y-10296200D02*
X11708600Y-10216200D01*
X11648600Y-10216200D02*
G75*
G02*
X11708600Y-10216200I30000J0D01*
G01*
X11648600Y-10216200D02*
X11648600Y-10296200D01*
X11648600Y-10296200D02*
G75*
G03*
X11708600Y-10296200I30000J0D01*
G01*
X11708600Y-10674200D02*
G75*
G02*
X11648600Y-10674200I-30000J0D01*
G01*
X11648600Y-10674200D02*
G75*
G02*
X11708600Y-10674200I30000J0D01*
G01*
X11708600Y-10729200D02*
X11708600Y-10619200D01*
X11648600Y-10619200D02*
G75*
G02*
X11708600Y-10619200I30000J0D01*
G01*
X11648600Y-10619200D02*
X11648600Y-10729200D01*
X11648600Y-10729200D02*
G75*
G03*
X11708600Y-10729200I30000J0D01*
G01*
X11121400Y-11297050D02*
X11121400Y-11392050D01*
X11073900Y-11344550D02*
X11168900Y-11344550D01*
X11121400Y-11497050D02*
X11121400Y-11592050D01*
X11073900Y-11544550D02*
X11168900Y-11544550D01*
X11371400Y-11297050D02*
X11371400Y-11392050D01*
X11323900Y-11344550D02*
X11418900Y-11344550D01*
X11371400Y-11497050D02*
X11371400Y-11592050D01*
X11323900Y-11544550D02*
X11418900Y-11544550D01*
X7673356Y-12985356D02*
X7673356Y-12914644D01*
X7602644Y-12914644D01*
X7602644Y-12985356D01*
X7673356Y-12985356D01*
X7673356Y-13239356D02*
X7673356Y-13168644D01*
X7602644Y-13168644D01*
X7602644Y-13239356D01*
X7673356Y-13239356D01*
X7927356Y-12985356D02*
X7927356Y-12914644D01*
X7856644Y-12914644D01*
X7856644Y-12985356D01*
X7927356Y-12985356D01*
X7927356Y-13239356D02*
X7927356Y-13168644D01*
X7856644Y-13168644D01*
X7856644Y-13239356D01*
X7927356Y-13239356D01*
X8181356Y-12985356D02*
X8181356Y-12914644D01*
X8110644Y-12914644D01*
X8110644Y-12985356D01*
X8181356Y-12985356D01*
X8181356Y-13239356D02*
X8181356Y-13168644D01*
X8110644Y-13168644D01*
X8110644Y-13239356D01*
X8181356Y-13239356D01*
X8435356Y-12985356D02*
X8435356Y-12914644D01*
X8364644Y-12914644D01*
X8364644Y-12985356D01*
X8435356Y-12985356D01*
X8435356Y-13239356D02*
X8435356Y-13168644D01*
X8364644Y-13168644D01*
X8364644Y-13239356D01*
X8435356Y-13239356D01*
X8689356Y-12985356D02*
X8689356Y-12914644D01*
X8618644Y-12914644D01*
X8618644Y-12985356D01*
X8689356Y-12985356D01*
X8689356Y-13239356D02*
X8689356Y-13168644D01*
X8618644Y-13168644D01*
X8618644Y-13239356D01*
X8689356Y-13239356D01*
X8943356Y-12985356D02*
X8943356Y-12914644D01*
X8872644Y-12914644D01*
X8872644Y-12985356D01*
X8943356Y-12985356D01*
X8943356Y-13239356D02*
X8943356Y-13168644D01*
X8872644Y-13168644D01*
X8872644Y-13239356D01*
X8943356Y-13239356D01*
X9197356Y-12985356D02*
X9197356Y-12914644D01*
X9126644Y-12914644D01*
X9126644Y-12985356D01*
X9197356Y-12985356D01*
X9197356Y-13239356D02*
X9197356Y-13168644D01*
X9126644Y-13168644D01*
X9126644Y-13239356D01*
X9197356Y-13239356D01*
X9451356Y-12985356D02*
X9451356Y-12914644D01*
X9380644Y-12914644D01*
X9380644Y-12985356D01*
X9451356Y-12985356D01*
X9451356Y-13239356D02*
X9451356Y-13168644D01*
X9380644Y-13168644D01*
X9380644Y-13239356D01*
X9451356Y-13239356D01*
X10802606Y-12981356D02*
X10802606Y-12910644D01*
X10731894Y-12910644D01*
X10731894Y-12981356D01*
X10802606Y-12981356D01*
X10802606Y-13235356D02*
X10802606Y-13164644D01*
X10731894Y-13164644D01*
X10731894Y-13235356D01*
X10802606Y-13235356D01*
X11056606Y-12981356D02*
X11056606Y-12910644D01*
X10985894Y-12910644D01*
X10985894Y-12981356D01*
X11056606Y-12981356D01*
X11056606Y-13235356D02*
X11056606Y-13164644D01*
X10985894Y-13164644D01*
X10985894Y-13235356D01*
X11056606Y-13235356D01*
X11310606Y-12981356D02*
X11310606Y-12910644D01*
X11239894Y-12910644D01*
X11239894Y-12981356D01*
X11310606Y-12981356D01*
X11310606Y-13235356D02*
X11310606Y-13164644D01*
X11239894Y-13164644D01*
X11239894Y-13235356D01*
X11310606Y-13235356D01*
X11564606Y-12981356D02*
X11564606Y-12910644D01*
X11493894Y-12910644D01*
X11493894Y-12981356D01*
X11564606Y-12981356D01*
X11564606Y-13235356D02*
X11564606Y-13164644D01*
X11493894Y-13164644D01*
X11493894Y-13235356D01*
X11564606Y-13235356D01*
X11818606Y-12981356D02*
X11818606Y-12910644D01*
X11747894Y-12910644D01*
X11747894Y-12981356D01*
X11818606Y-12981356D01*
X11818606Y-13235356D02*
X11818606Y-13164644D01*
X11747894Y-13164644D01*
X11747894Y-13235356D01*
X11818606Y-13235356D01*
X14541356Y-13445356D02*
X14541356Y-13374644D01*
X14470644Y-13374644D01*
X14470644Y-13445356D01*
X14541356Y-13445356D01*
X14795356Y-13445356D02*
X14795356Y-13374644D01*
X14724644Y-13374644D01*
X14724644Y-13445356D01*
X14795356Y-13445356D01*
X15049356Y-13445356D02*
X15049356Y-13374644D01*
X14978644Y-13374644D01*
X14978644Y-13445356D01*
X15049356Y-13445356D01*
X15303356Y-13445356D02*
X15303356Y-13374644D01*
X15232644Y-13374644D01*
X15232644Y-13445356D01*
X15303356Y-13445356D01*
X15557356Y-13445356D02*
X15557356Y-13374644D01*
X15486644Y-13374644D01*
X15486644Y-13445356D01*
X15557356Y-13445356D01*
X15811356Y-13445356D02*
X15811356Y-13374644D01*
X15740644Y-13374644D01*
X15740644Y-13445356D01*
X15811356Y-13445356D01*
X16065356Y-13445356D02*
X16065356Y-13374644D01*
X15994644Y-13374644D01*
X15994644Y-13445356D01*
X16065356Y-13445356D01*
X16133156Y-10316956D02*
X16133156Y-10246244D01*
X16062444Y-10246244D01*
X16062444Y-10316956D01*
X16133156Y-10316956D01*
X16133156Y-10570956D02*
X16133156Y-10500244D01*
X16062444Y-10500244D01*
X16062444Y-10570956D01*
X16133156Y-10570956D01*
X16195356Y-11365356D02*
X16195356Y-11294644D01*
X16124644Y-11294644D01*
X16124644Y-11365356D01*
X16195356Y-11365356D01*
X16195356Y-11619356D02*
X16195356Y-11548644D01*
X16124644Y-11548644D01*
X16124644Y-11619356D01*
X16195356Y-11619356D01*
X16195356Y-11873356D02*
X16195356Y-11802644D01*
X16124644Y-11802644D01*
X16124644Y-11873356D01*
X16195356Y-11873356D01*
X16195356Y-12127356D02*
X16195356Y-12056644D01*
X16124644Y-12056644D01*
X16124644Y-12127356D01*
X16195356Y-12127356D01*
X16195356Y-12381356D02*
X16195356Y-12310644D01*
X16124644Y-12310644D01*
X16124644Y-12381356D01*
X16195356Y-12381356D01*
D12*
X8054500Y-11209500D02*
X8114000Y-11150000D01*
X8054500Y-11090500D01*
X7995000Y-11150000D01*
X8054500Y-11209500D01*
X8168500Y-10955500D02*
X8228000Y-10896000D01*
X8168500Y-10836500D01*
X8109000Y-10896000D01*
X8168500Y-10955500D01*
X8168500Y-11463500D02*
X8228000Y-11404000D01*
X8168500Y-11344500D01*
X8109000Y-11404000D01*
X8168500Y-11463500D01*
X8282500Y-11209500D02*
X8342000Y-11150000D01*
X8282500Y-11090500D01*
X8223000Y-11150000D01*
X8282500Y-11209500D01*
X8396500Y-10955500D02*
X8456000Y-10896000D01*
X8396500Y-10836500D01*
X8337000Y-10896000D01*
X8396500Y-10955500D01*
X8396500Y-11463500D02*
X8456000Y-11404000D01*
X8396500Y-11344500D01*
X8337000Y-11404000D01*
X8396500Y-11463500D01*
X8510500Y-11209500D02*
X8570000Y-11150000D01*
X8510500Y-11090500D01*
X8451000Y-11150000D01*
X8510500Y-11209500D01*
X8624500Y-10955500D02*
X8684000Y-10896000D01*
X8624500Y-10836500D01*
X8565000Y-10896000D01*
X8624500Y-10955500D01*
X8624500Y-11463500D02*
X8684000Y-11404000D01*
X8624500Y-11344500D01*
X8565000Y-11404000D01*
X8624500Y-11463500D01*
X8738500Y-11209500D02*
X8798000Y-11150000D01*
X8738500Y-11090500D01*
X8679000Y-11150000D01*
X8738500Y-11209500D01*
X8852500Y-10955500D02*
X8912000Y-10896000D01*
X8852500Y-10836500D01*
X8793000Y-10896000D01*
X8852500Y-10955500D01*
X8852500Y-11463500D02*
X8912000Y-11404000D01*
X8852500Y-11344500D01*
X8793000Y-11404000D01*
X8852500Y-11463500D01*
X8966500Y-11209500D02*
X9026000Y-11150000D01*
X8966500Y-11090500D01*
X8907000Y-11150000D01*
X8966500Y-11209500D01*
X9080500Y-10955500D02*
X9140000Y-10896000D01*
X9080500Y-10836500D01*
X9021000Y-10896000D01*
X9080500Y-10955500D01*
X9080500Y-11463500D02*
X9140000Y-11404000D01*
X9080500Y-11344500D01*
X9021000Y-11404000D01*
X9080500Y-11463500D01*
D13*
X10531400Y-10943550D02*
X10761400Y-11173550D01*
X10761400Y-10943550D02*
X10531400Y-11173550D01*
X10761400Y-11058550D02*
G75*
G02*
X10531400Y-11058550I-115000J0D01*
G01*
X10531400Y-11058550D02*
G75*
G02*
X10761400Y-11058550I115000J0D01*
G01*
X11731400Y-10943550D02*
X11961400Y-11173550D01*
X11961400Y-10943550D02*
X11731400Y-11173550D01*
X11961400Y-11058550D02*
G75*
G02*
X11731400Y-11058550I-115000J0D01*
G01*
X11731400Y-11058550D02*
G75*
G02*
X11961400Y-11058550I115000J0D01*
G01*
D14*
X7191000Y-10991000D02*
X7509000Y-11309000D01*
X7509000Y-10991000D02*
X7191000Y-11309000D01*
X7350000Y-10991000D02*
X7350000Y-11309000D01*
X7191000Y-11150000D02*
X7509000Y-11150000D01*
X9691000Y-10991000D02*
X10009000Y-11309000D01*
X10009000Y-10991000D02*
X9691000Y-11309000D01*
X9850000Y-10991000D02*
X9850000Y-11309000D01*
X9691000Y-11150000D02*
X10009000Y-11150000D01*
D15*
X6440000Y-10440000D02*
X6760000Y-10760000D01*
X6760000Y-10440000D02*
X6440000Y-10760000D01*
X6713138Y-10713138D02*
X6713138Y-10486862D01*
X6486862Y-10486862D01*
X6486862Y-10713138D01*
X6713138Y-10713138D01*
X6440000Y-12940000D02*
X6760000Y-13260000D01*
X6760000Y-12940000D02*
X6440000Y-13260000D01*
X6713138Y-13213138D02*
X6713138Y-12986862D01*
X6486862Y-12986862D01*
X6486862Y-13213138D01*
X6713138Y-13213138D01*
X16440000Y-10440000D02*
X16760000Y-10760000D01*
X16760000Y-10440000D02*
X16440000Y-10760000D01*
X16713138Y-10713138D02*
X16713138Y-10486862D01*
X16486862Y-10486862D01*
X16486862Y-10713138D01*
X16713138Y-10713138D01*
X16440000Y-12940000D02*
X16760000Y-13260000D01*
X16760000Y-12940000D02*
X16440000Y-13260000D01*
X16713138Y-13213138D02*
X16713138Y-12986862D01*
X16486862Y-12986862D01*
X16486862Y-13213138D01*
X16713138Y-13213138D01*
D11*
X6255777Y-14116484D02*
X6255777Y-13916484D01*
X6255777Y-13916484D02*
X6303396Y-13916484D01*
X6303396Y-13916484D02*
X6331967Y-13926008D01*
X6331967Y-13926008D02*
X6351015Y-13945055D01*
X6351015Y-13945055D02*
X6360539Y-13964103D01*
X6360539Y-13964103D02*
X6370062Y-14002198D01*
X6370062Y-14002198D02*
X6370062Y-14030769D01*
X6370062Y-14030769D02*
X6360539Y-14068865D01*
X6360539Y-14068865D02*
X6351015Y-14087912D01*
X6351015Y-14087912D02*
X6331967Y-14106960D01*
X6331967Y-14106960D02*
X6303396Y-14116484D01*
X6303396Y-14116484D02*
X6255777Y-14116484D01*
X6455777Y-14116484D02*
X6455777Y-13983150D01*
X6455777Y-14021246D02*
X6465301Y-14002198D01*
X6465301Y-14002198D02*
X6474824Y-13992674D01*
X6474824Y-13992674D02*
X6493872Y-13983150D01*
X6493872Y-13983150D02*
X6512920Y-13983150D01*
X6579586Y-14116484D02*
X6579586Y-13983150D01*
X6579586Y-13916484D02*
X6570062Y-13926008D01*
X6570062Y-13926008D02*
X6579586Y-13935531D01*
X6579586Y-13935531D02*
X6589110Y-13926008D01*
X6589110Y-13926008D02*
X6579586Y-13916484D01*
X6579586Y-13916484D02*
X6579586Y-13935531D01*
X6703396Y-14116484D02*
X6684348Y-14106960D01*
X6684348Y-14106960D02*
X6674824Y-14087912D01*
X6674824Y-14087912D02*
X6674824Y-13916484D01*
X6808158Y-14116484D02*
X6789110Y-14106960D01*
X6789110Y-14106960D02*
X6779586Y-14087912D01*
X6779586Y-14087912D02*
X6779586Y-13916484D01*
X7036729Y-14116484D02*
X7036729Y-13916484D01*
X7036729Y-13916484D02*
X7103396Y-14059341D01*
X7103396Y-14059341D02*
X7170062Y-13916484D01*
X7170062Y-13916484D02*
X7170062Y-14116484D01*
X7351015Y-14116484D02*
X7351015Y-14011722D01*
X7351015Y-14011722D02*
X7341491Y-13992674D01*
X7341491Y-13992674D02*
X7322443Y-13983150D01*
X7322443Y-13983150D02*
X7284348Y-13983150D01*
X7284348Y-13983150D02*
X7265301Y-13992674D01*
X7351015Y-14106960D02*
X7331967Y-14116484D01*
X7331967Y-14116484D02*
X7284348Y-14116484D01*
X7284348Y-14116484D02*
X7265301Y-14106960D01*
X7265301Y-14106960D02*
X7255777Y-14087912D01*
X7255777Y-14087912D02*
X7255777Y-14068865D01*
X7255777Y-14068865D02*
X7265301Y-14049817D01*
X7265301Y-14049817D02*
X7284348Y-14040293D01*
X7284348Y-14040293D02*
X7331967Y-14040293D01*
X7331967Y-14040293D02*
X7351015Y-14030769D01*
X7446253Y-13983150D02*
X7446253Y-14183150D01*
X7446253Y-13992674D02*
X7465301Y-13983150D01*
X7465301Y-13983150D02*
X7503396Y-13983150D01*
X7503396Y-13983150D02*
X7522443Y-13992674D01*
X7522443Y-13992674D02*
X7531967Y-14002198D01*
X7531967Y-14002198D02*
X7541491Y-14021246D01*
X7541491Y-14021246D02*
X7541491Y-14078388D01*
X7541491Y-14078388D02*
X7531967Y-14097436D01*
X7531967Y-14097436D02*
X7522443Y-14106960D01*
X7522443Y-14106960D02*
X7503396Y-14116484D01*
X7503396Y-14116484D02*
X7465301Y-14116484D01*
X7465301Y-14116484D02*
X7446253Y-14106960D01*
X7627205Y-14097436D02*
X7636729Y-14106960D01*
X7636729Y-14106960D02*
X7627205Y-14116484D01*
X7627205Y-14116484D02*
X7617682Y-14106960D01*
X7617682Y-14106960D02*
X7627205Y-14097436D01*
X7627205Y-14097436D02*
X7627205Y-14116484D01*
X7627205Y-13992674D02*
X7636729Y-14002198D01*
X7636729Y-14002198D02*
X7627205Y-14011722D01*
X7627205Y-14011722D02*
X7617682Y-14002198D01*
X7617682Y-14002198D02*
X7627205Y-13992674D01*
X7627205Y-13992674D02*
X7627205Y-14011722D01*
D10*
X5955000Y-14425000D02*
X5995000Y-14465000D01*
X5995000Y-14425000D02*
X5955000Y-14465000D01*
D11*
X6293872Y-14336484D02*
X6312920Y-14336484D01*
X6312920Y-14336484D02*
X6331967Y-14346008D01*
X6331967Y-14346008D02*
X6341491Y-14355531D01*
X6341491Y-14355531D02*
X6351015Y-14374579D01*
X6351015Y-14374579D02*
X6360539Y-14412674D01*
X6360539Y-14412674D02*
X6360539Y-14460293D01*
X6360539Y-14460293D02*
X6351015Y-14498388D01*
X6351015Y-14498388D02*
X6341491Y-14517436D01*
X6341491Y-14517436D02*
X6331967Y-14526960D01*
X6331967Y-14526960D02*
X6312920Y-14536484D01*
X6312920Y-14536484D02*
X6293872Y-14536484D01*
X6293872Y-14536484D02*
X6274824Y-14526960D01*
X6274824Y-14526960D02*
X6265301Y-14517436D01*
X6265301Y-14517436D02*
X6255777Y-14498388D01*
X6255777Y-14498388D02*
X6246253Y-14460293D01*
X6246253Y-14460293D02*
X6246253Y-14412674D01*
X6246253Y-14412674D02*
X6255777Y-14374579D01*
X6255777Y-14374579D02*
X6265301Y-14355531D01*
X6265301Y-14355531D02*
X6274824Y-14346008D01*
X6274824Y-14346008D02*
X6293872Y-14336484D01*
X6446253Y-14517436D02*
X6455777Y-14526960D01*
X6455777Y-14526960D02*
X6446253Y-14536484D01*
X6446253Y-14536484D02*
X6436729Y-14526960D01*
X6436729Y-14526960D02*
X6446253Y-14517436D01*
X6446253Y-14517436D02*
X6446253Y-14536484D01*
X6627205Y-14403150D02*
X6627205Y-14536484D01*
X6579586Y-14326960D02*
X6531967Y-14469817D01*
X6531967Y-14469817D02*
X6655777Y-14469817D01*
X6770062Y-14336484D02*
X6789110Y-14336484D01*
X6789110Y-14336484D02*
X6808158Y-14346008D01*
X6808158Y-14346008D02*
X6817682Y-14355531D01*
X6817682Y-14355531D02*
X6827205Y-14374579D01*
X6827205Y-14374579D02*
X6836729Y-14412674D01*
X6836729Y-14412674D02*
X6836729Y-14460293D01*
X6836729Y-14460293D02*
X6827205Y-14498388D01*
X6827205Y-14498388D02*
X6817682Y-14517436D01*
X6817682Y-14517436D02*
X6808158Y-14526960D01*
X6808158Y-14526960D02*
X6789110Y-14536484D01*
X6789110Y-14536484D02*
X6770062Y-14536484D01*
X6770062Y-14536484D02*
X6751015Y-14526960D01*
X6751015Y-14526960D02*
X6741491Y-14517436D01*
X6741491Y-14517436D02*
X6731967Y-14498388D01*
X6731967Y-14498388D02*
X6722443Y-14460293D01*
X6722443Y-14460293D02*
X6722443Y-14412674D01*
X6722443Y-14412674D02*
X6731967Y-14374579D01*
X6731967Y-14374579D02*
X6741491Y-14355531D01*
X6741491Y-14355531D02*
X6751015Y-14346008D01*
X6751015Y-14346008D02*
X6770062Y-14336484D01*
X6960539Y-14336484D02*
X6979586Y-14336484D01*
X6979586Y-14336484D02*
X6998634Y-14346008D01*
X6998634Y-14346008D02*
X7008158Y-14355531D01*
X7008158Y-14355531D02*
X7017682Y-14374579D01*
X7017682Y-14374579D02*
X7027205Y-14412674D01*
X7027205Y-14412674D02*
X7027205Y-14460293D01*
X7027205Y-14460293D02*
X7017682Y-14498388D01*
X7017682Y-14498388D02*
X7008158Y-14517436D01*
X7008158Y-14517436D02*
X6998634Y-14526960D01*
X6998634Y-14526960D02*
X6979586Y-14536484D01*
X6979586Y-14536484D02*
X6960539Y-14536484D01*
X6960539Y-14536484D02*
X6941491Y-14526960D01*
X6941491Y-14526960D02*
X6931967Y-14517436D01*
X6931967Y-14517436D02*
X6922443Y-14498388D01*
X6922443Y-14498388D02*
X6912920Y-14460293D01*
X6912920Y-14460293D02*
X6912920Y-14412674D01*
X6912920Y-14412674D02*
X6922443Y-14374579D01*
X6922443Y-14374579D02*
X6931967Y-14355531D01*
X6931967Y-14355531D02*
X6941491Y-14346008D01*
X6941491Y-14346008D02*
X6960539Y-14336484D01*
X7112920Y-14536484D02*
X7112920Y-14403150D01*
X7112920Y-14422198D02*
X7122443Y-14412674D01*
X7122443Y-14412674D02*
X7141491Y-14403150D01*
X7141491Y-14403150D02*
X7170063Y-14403150D01*
X7170063Y-14403150D02*
X7189110Y-14412674D01*
X7189110Y-14412674D02*
X7198634Y-14431722D01*
X7198634Y-14431722D02*
X7198634Y-14536484D01*
X7198634Y-14431722D02*
X7208158Y-14412674D01*
X7208158Y-14412674D02*
X7227205Y-14403150D01*
X7227205Y-14403150D02*
X7255777Y-14403150D01*
X7255777Y-14403150D02*
X7274824Y-14412674D01*
X7274824Y-14412674D02*
X7284348Y-14431722D01*
X7284348Y-14431722D02*
X7284348Y-14536484D01*
X7379586Y-14536484D02*
X7379586Y-14403150D01*
X7379586Y-14422198D02*
X7389110Y-14412674D01*
X7389110Y-14412674D02*
X7408158Y-14403150D01*
X7408158Y-14403150D02*
X7436729Y-14403150D01*
X7436729Y-14403150D02*
X7455777Y-14412674D01*
X7455777Y-14412674D02*
X7465301Y-14431722D01*
X7465301Y-14431722D02*
X7465301Y-14536484D01*
X7465301Y-14431722D02*
X7474824Y-14412674D01*
X7474824Y-14412674D02*
X7493872Y-14403150D01*
X7493872Y-14403150D02*
X7522443Y-14403150D01*
X7522443Y-14403150D02*
X7541491Y-14412674D01*
X7541491Y-14412674D02*
X7551015Y-14431722D01*
X7551015Y-14431722D02*
X7551015Y-14536484D01*
X7941491Y-14326960D02*
X7770063Y-14584103D01*
X8198634Y-14336484D02*
X8217682Y-14336484D01*
X8217682Y-14336484D02*
X8236729Y-14346008D01*
X8236729Y-14346008D02*
X8246253Y-14355531D01*
X8246253Y-14355531D02*
X8255777Y-14374579D01*
X8255777Y-14374579D02*
X8265301Y-14412674D01*
X8265301Y-14412674D02*
X8265301Y-14460293D01*
X8265301Y-14460293D02*
X8255777Y-14498388D01*
X8255777Y-14498388D02*
X8246253Y-14517436D01*
X8246253Y-14517436D02*
X8236729Y-14526960D01*
X8236729Y-14526960D02*
X8217682Y-14536484D01*
X8217682Y-14536484D02*
X8198634Y-14536484D01*
X8198634Y-14536484D02*
X8179586Y-14526960D01*
X8179586Y-14526960D02*
X8170063Y-14517436D01*
X8170063Y-14517436D02*
X8160539Y-14498388D01*
X8160539Y-14498388D02*
X8151015Y-14460293D01*
X8151015Y-14460293D02*
X8151015Y-14412674D01*
X8151015Y-14412674D02*
X8160539Y-14374579D01*
X8160539Y-14374579D02*
X8170063Y-14355531D01*
X8170063Y-14355531D02*
X8179586Y-14346008D01*
X8179586Y-14346008D02*
X8198634Y-14336484D01*
X8351015Y-14517436D02*
X8360539Y-14526960D01*
X8360539Y-14526960D02*
X8351015Y-14536484D01*
X8351015Y-14536484D02*
X8341491Y-14526960D01*
X8341491Y-14526960D02*
X8351015Y-14517436D01*
X8351015Y-14517436D02*
X8351015Y-14536484D01*
X8484348Y-14336484D02*
X8503396Y-14336484D01*
X8503396Y-14336484D02*
X8522444Y-14346008D01*
X8522444Y-14346008D02*
X8531968Y-14355531D01*
X8531968Y-14355531D02*
X8541491Y-14374579D01*
X8541491Y-14374579D02*
X8551015Y-14412674D01*
X8551015Y-14412674D02*
X8551015Y-14460293D01*
X8551015Y-14460293D02*
X8541491Y-14498388D01*
X8541491Y-14498388D02*
X8531968Y-14517436D01*
X8531968Y-14517436D02*
X8522444Y-14526960D01*
X8522444Y-14526960D02*
X8503396Y-14536484D01*
X8503396Y-14536484D02*
X8484348Y-14536484D01*
X8484348Y-14536484D02*
X8465301Y-14526960D01*
X8465301Y-14526960D02*
X8455777Y-14517436D01*
X8455777Y-14517436D02*
X8446253Y-14498388D01*
X8446253Y-14498388D02*
X8436729Y-14460293D01*
X8436729Y-14460293D02*
X8436729Y-14412674D01*
X8436729Y-14412674D02*
X8446253Y-14374579D01*
X8446253Y-14374579D02*
X8455777Y-14355531D01*
X8455777Y-14355531D02*
X8465301Y-14346008D01*
X8465301Y-14346008D02*
X8484348Y-14336484D01*
X8741491Y-14536484D02*
X8627206Y-14536484D01*
X8684348Y-14536484D02*
X8684348Y-14336484D01*
X8684348Y-14336484D02*
X8665301Y-14365055D01*
X8665301Y-14365055D02*
X8646253Y-14384103D01*
X8646253Y-14384103D02*
X8627206Y-14393627D01*
X8922444Y-14336484D02*
X8827206Y-14336484D01*
X8827206Y-14336484D02*
X8817682Y-14431722D01*
X8817682Y-14431722D02*
X8827206Y-14422198D01*
X8827206Y-14422198D02*
X8846253Y-14412674D01*
X8846253Y-14412674D02*
X8893872Y-14412674D01*
X8893872Y-14412674D02*
X8912920Y-14422198D01*
X8912920Y-14422198D02*
X8922444Y-14431722D01*
X8922444Y-14431722D02*
X8931968Y-14450769D01*
X8931968Y-14450769D02*
X8931968Y-14498388D01*
X8931968Y-14498388D02*
X8922444Y-14517436D01*
X8922444Y-14517436D02*
X8912920Y-14526960D01*
X8912920Y-14526960D02*
X8893872Y-14536484D01*
X8893872Y-14536484D02*
X8846253Y-14536484D01*
X8846253Y-14536484D02*
X8827206Y-14526960D01*
X8827206Y-14526960D02*
X8817682Y-14517436D01*
X8998634Y-14336484D02*
X9131968Y-14336484D01*
X9131968Y-14336484D02*
X9046253Y-14536484D01*
X9198634Y-14336484D02*
X9198634Y-14374579D01*
X9274825Y-14336484D02*
X9274825Y-14374579D01*
X9570063Y-14612674D02*
X9560539Y-14603150D01*
X9560539Y-14603150D02*
X9541491Y-14574579D01*
X9541491Y-14574579D02*
X9531968Y-14555531D01*
X9531968Y-14555531D02*
X9522444Y-14526960D01*
X9522444Y-14526960D02*
X9512920Y-14479341D01*
X9512920Y-14479341D02*
X9512920Y-14441246D01*
X9512920Y-14441246D02*
X9522444Y-14393627D01*
X9522444Y-14393627D02*
X9531968Y-14365055D01*
X9531968Y-14365055D02*
X9541491Y-14346008D01*
X9541491Y-14346008D02*
X9560539Y-14317436D01*
X9560539Y-14317436D02*
X9570063Y-14307912D01*
X9655777Y-14536484D02*
X9693872Y-14536484D01*
X9693872Y-14536484D02*
X9712920Y-14526960D01*
X9712920Y-14526960D02*
X9722444Y-14517436D01*
X9722444Y-14517436D02*
X9741491Y-14488865D01*
X9741491Y-14488865D02*
X9751015Y-14450769D01*
X9751015Y-14450769D02*
X9751015Y-14374579D01*
X9751015Y-14374579D02*
X9741491Y-14355531D01*
X9741491Y-14355531D02*
X9731968Y-14346008D01*
X9731968Y-14346008D02*
X9712920Y-14336484D01*
X9712920Y-14336484D02*
X9674825Y-14336484D01*
X9674825Y-14336484D02*
X9655777Y-14346008D01*
X9655777Y-14346008D02*
X9646253Y-14355531D01*
X9646253Y-14355531D02*
X9636730Y-14374579D01*
X9636730Y-14374579D02*
X9636730Y-14422198D01*
X9636730Y-14422198D02*
X9646253Y-14441246D01*
X9646253Y-14441246D02*
X9655777Y-14450769D01*
X9655777Y-14450769D02*
X9674825Y-14460293D01*
X9674825Y-14460293D02*
X9712920Y-14460293D01*
X9712920Y-14460293D02*
X9731968Y-14450769D01*
X9731968Y-14450769D02*
X9741491Y-14441246D01*
X9741491Y-14441246D02*
X9751015Y-14422198D01*
X9827206Y-14355531D02*
X9836730Y-14346008D01*
X9836730Y-14346008D02*
X9855777Y-14336484D01*
X9855777Y-14336484D02*
X9903396Y-14336484D01*
X9903396Y-14336484D02*
X9922444Y-14346008D01*
X9922444Y-14346008D02*
X9931968Y-14355531D01*
X9931968Y-14355531D02*
X9941491Y-14374579D01*
X9941491Y-14374579D02*
X9941491Y-14393627D01*
X9941491Y-14393627D02*
X9931968Y-14422198D01*
X9931968Y-14422198D02*
X9817682Y-14536484D01*
X9817682Y-14536484D02*
X9941491Y-14536484D01*
X10179587Y-14536484D02*
X10179587Y-14336484D01*
X10265301Y-14536484D02*
X10265301Y-14431722D01*
X10265301Y-14431722D02*
X10255777Y-14412674D01*
X10255777Y-14412674D02*
X10236730Y-14403150D01*
X10236730Y-14403150D02*
X10208158Y-14403150D01*
X10208158Y-14403150D02*
X10189111Y-14412674D01*
X10189111Y-14412674D02*
X10179587Y-14422198D01*
X10389111Y-14536484D02*
X10370063Y-14526960D01*
X10370063Y-14526960D02*
X10360539Y-14517436D01*
X10360539Y-14517436D02*
X10351015Y-14498388D01*
X10351015Y-14498388D02*
X10351015Y-14441246D01*
X10351015Y-14441246D02*
X10360539Y-14422198D01*
X10360539Y-14422198D02*
X10370063Y-14412674D01*
X10370063Y-14412674D02*
X10389111Y-14403150D01*
X10389111Y-14403150D02*
X10417682Y-14403150D01*
X10417682Y-14403150D02*
X10436730Y-14412674D01*
X10436730Y-14412674D02*
X10446253Y-14422198D01*
X10446253Y-14422198D02*
X10455777Y-14441246D01*
X10455777Y-14441246D02*
X10455777Y-14498388D01*
X10455777Y-14498388D02*
X10446253Y-14517436D01*
X10446253Y-14517436D02*
X10436730Y-14526960D01*
X10436730Y-14526960D02*
X10417682Y-14536484D01*
X10417682Y-14536484D02*
X10389111Y-14536484D01*
X10570063Y-14536484D02*
X10551015Y-14526960D01*
X10551015Y-14526960D02*
X10541492Y-14507912D01*
X10541492Y-14507912D02*
X10541492Y-14336484D01*
X10722444Y-14526960D02*
X10703396Y-14536484D01*
X10703396Y-14536484D02*
X10665301Y-14536484D01*
X10665301Y-14536484D02*
X10646253Y-14526960D01*
X10646253Y-14526960D02*
X10636730Y-14507912D01*
X10636730Y-14507912D02*
X10636730Y-14431722D01*
X10636730Y-14431722D02*
X10646253Y-14412674D01*
X10646253Y-14412674D02*
X10665301Y-14403150D01*
X10665301Y-14403150D02*
X10703396Y-14403150D01*
X10703396Y-14403150D02*
X10722444Y-14412674D01*
X10722444Y-14412674D02*
X10731968Y-14431722D01*
X10731968Y-14431722D02*
X10731968Y-14450769D01*
X10731968Y-14450769D02*
X10636730Y-14469817D01*
X10808158Y-14526960D02*
X10827206Y-14536484D01*
X10827206Y-14536484D02*
X10865301Y-14536484D01*
X10865301Y-14536484D02*
X10884349Y-14526960D01*
X10884349Y-14526960D02*
X10893873Y-14507912D01*
X10893873Y-14507912D02*
X10893873Y-14498388D01*
X10893873Y-14498388D02*
X10884349Y-14479341D01*
X10884349Y-14479341D02*
X10865301Y-14469817D01*
X10865301Y-14469817D02*
X10836730Y-14469817D01*
X10836730Y-14469817D02*
X10817682Y-14460293D01*
X10817682Y-14460293D02*
X10808158Y-14441246D01*
X10808158Y-14441246D02*
X10808158Y-14431722D01*
X10808158Y-14431722D02*
X10817682Y-14412674D01*
X10817682Y-14412674D02*
X10836730Y-14403150D01*
X10836730Y-14403150D02*
X10865301Y-14403150D01*
X10865301Y-14403150D02*
X10884349Y-14412674D01*
X10960539Y-14612674D02*
X10970063Y-14603150D01*
X10970063Y-14603150D02*
X10989111Y-14574579D01*
X10989111Y-14574579D02*
X10998634Y-14555531D01*
X10998634Y-14555531D02*
X11008158Y-14526960D01*
X11008158Y-14526960D02*
X11017682Y-14479341D01*
X11017682Y-14479341D02*
X11017682Y-14441246D01*
X11017682Y-14441246D02*
X11008158Y-14393627D01*
X11008158Y-14393627D02*
X10998634Y-14365055D01*
X10998634Y-14365055D02*
X10989111Y-14346008D01*
X10989111Y-14346008D02*
X10970063Y-14317436D01*
X10970063Y-14317436D02*
X10960539Y-14307912D01*
D10*
X5995000Y-14709000D02*
G75*
G02*
X5935000Y-14709000I-30000J0D01*
G01*
X5935000Y-14709000D02*
G75*
G02*
X5995000Y-14709000I30000J0D01*
G01*
D11*
X6293872Y-14600484D02*
X6312920Y-14600484D01*
X6312920Y-14600484D02*
X6331967Y-14610008D01*
X6331967Y-14610008D02*
X6341491Y-14619531D01*
X6341491Y-14619531D02*
X6351015Y-14638579D01*
X6351015Y-14638579D02*
X6360539Y-14676674D01*
X6360539Y-14676674D02*
X6360539Y-14724293D01*
X6360539Y-14724293D02*
X6351015Y-14762388D01*
X6351015Y-14762388D02*
X6341491Y-14781436D01*
X6341491Y-14781436D02*
X6331967Y-14790960D01*
X6331967Y-14790960D02*
X6312920Y-14800484D01*
X6312920Y-14800484D02*
X6293872Y-14800484D01*
X6293872Y-14800484D02*
X6274824Y-14790960D01*
X6274824Y-14790960D02*
X6265301Y-14781436D01*
X6265301Y-14781436D02*
X6255777Y-14762388D01*
X6255777Y-14762388D02*
X6246253Y-14724293D01*
X6246253Y-14724293D02*
X6246253Y-14676674D01*
X6246253Y-14676674D02*
X6255777Y-14638579D01*
X6255777Y-14638579D02*
X6265301Y-14619531D01*
X6265301Y-14619531D02*
X6274824Y-14610008D01*
X6274824Y-14610008D02*
X6293872Y-14600484D01*
X6446253Y-14781436D02*
X6455777Y-14790960D01*
X6455777Y-14790960D02*
X6446253Y-14800484D01*
X6446253Y-14800484D02*
X6436729Y-14790960D01*
X6436729Y-14790960D02*
X6446253Y-14781436D01*
X6446253Y-14781436D02*
X6446253Y-14800484D01*
X6627205Y-14600484D02*
X6589110Y-14600484D01*
X6589110Y-14600484D02*
X6570062Y-14610008D01*
X6570062Y-14610008D02*
X6560539Y-14619531D01*
X6560539Y-14619531D02*
X6541491Y-14648103D01*
X6541491Y-14648103D02*
X6531967Y-14686198D01*
X6531967Y-14686198D02*
X6531967Y-14762388D01*
X6531967Y-14762388D02*
X6541491Y-14781436D01*
X6541491Y-14781436D02*
X6551015Y-14790960D01*
X6551015Y-14790960D02*
X6570062Y-14800484D01*
X6570062Y-14800484D02*
X6608158Y-14800484D01*
X6608158Y-14800484D02*
X6627205Y-14790960D01*
X6627205Y-14790960D02*
X6636729Y-14781436D01*
X6636729Y-14781436D02*
X6646253Y-14762388D01*
X6646253Y-14762388D02*
X6646253Y-14714769D01*
X6646253Y-14714769D02*
X6636729Y-14695722D01*
X6636729Y-14695722D02*
X6627205Y-14686198D01*
X6627205Y-14686198D02*
X6608158Y-14676674D01*
X6608158Y-14676674D02*
X6570062Y-14676674D01*
X6570062Y-14676674D02*
X6551015Y-14686198D01*
X6551015Y-14686198D02*
X6541491Y-14695722D01*
X6541491Y-14695722D02*
X6531967Y-14714769D01*
X6770062Y-14600484D02*
X6789110Y-14600484D01*
X6789110Y-14600484D02*
X6808158Y-14610008D01*
X6808158Y-14610008D02*
X6817682Y-14619531D01*
X6817682Y-14619531D02*
X6827205Y-14638579D01*
X6827205Y-14638579D02*
X6836729Y-14676674D01*
X6836729Y-14676674D02*
X6836729Y-14724293D01*
X6836729Y-14724293D02*
X6827205Y-14762388D01*
X6827205Y-14762388D02*
X6817682Y-14781436D01*
X6817682Y-14781436D02*
X6808158Y-14790960D01*
X6808158Y-14790960D02*
X6789110Y-14800484D01*
X6789110Y-14800484D02*
X6770062Y-14800484D01*
X6770062Y-14800484D02*
X6751015Y-14790960D01*
X6751015Y-14790960D02*
X6741491Y-14781436D01*
X6741491Y-14781436D02*
X6731967Y-14762388D01*
X6731967Y-14762388D02*
X6722443Y-14724293D01*
X6722443Y-14724293D02*
X6722443Y-14676674D01*
X6722443Y-14676674D02*
X6731967Y-14638579D01*
X6731967Y-14638579D02*
X6741491Y-14619531D01*
X6741491Y-14619531D02*
X6751015Y-14610008D01*
X6751015Y-14610008D02*
X6770062Y-14600484D01*
X6960539Y-14600484D02*
X6979586Y-14600484D01*
X6979586Y-14600484D02*
X6998634Y-14610008D01*
X6998634Y-14610008D02*
X7008158Y-14619531D01*
X7008158Y-14619531D02*
X7017682Y-14638579D01*
X7017682Y-14638579D02*
X7027205Y-14676674D01*
X7027205Y-14676674D02*
X7027205Y-14724293D01*
X7027205Y-14724293D02*
X7017682Y-14762388D01*
X7017682Y-14762388D02*
X7008158Y-14781436D01*
X7008158Y-14781436D02*
X6998634Y-14790960D01*
X6998634Y-14790960D02*
X6979586Y-14800484D01*
X6979586Y-14800484D02*
X6960539Y-14800484D01*
X6960539Y-14800484D02*
X6941491Y-14790960D01*
X6941491Y-14790960D02*
X6931967Y-14781436D01*
X6931967Y-14781436D02*
X6922443Y-14762388D01*
X6922443Y-14762388D02*
X6912920Y-14724293D01*
X6912920Y-14724293D02*
X6912920Y-14676674D01*
X6912920Y-14676674D02*
X6922443Y-14638579D01*
X6922443Y-14638579D02*
X6931967Y-14619531D01*
X6931967Y-14619531D02*
X6941491Y-14610008D01*
X6941491Y-14610008D02*
X6960539Y-14600484D01*
X7112920Y-14800484D02*
X7112920Y-14667150D01*
X7112920Y-14686198D02*
X7122443Y-14676674D01*
X7122443Y-14676674D02*
X7141491Y-14667150D01*
X7141491Y-14667150D02*
X7170063Y-14667150D01*
X7170063Y-14667150D02*
X7189110Y-14676674D01*
X7189110Y-14676674D02*
X7198634Y-14695722D01*
X7198634Y-14695722D02*
X7198634Y-14800484D01*
X7198634Y-14695722D02*
X7208158Y-14676674D01*
X7208158Y-14676674D02*
X7227205Y-14667150D01*
X7227205Y-14667150D02*
X7255777Y-14667150D01*
X7255777Y-14667150D02*
X7274824Y-14676674D01*
X7274824Y-14676674D02*
X7284348Y-14695722D01*
X7284348Y-14695722D02*
X7284348Y-14800484D01*
X7379586Y-14800484D02*
X7379586Y-14667150D01*
X7379586Y-14686198D02*
X7389110Y-14676674D01*
X7389110Y-14676674D02*
X7408158Y-14667150D01*
X7408158Y-14667150D02*
X7436729Y-14667150D01*
X7436729Y-14667150D02*
X7455777Y-14676674D01*
X7455777Y-14676674D02*
X7465301Y-14695722D01*
X7465301Y-14695722D02*
X7465301Y-14800484D01*
X7465301Y-14695722D02*
X7474824Y-14676674D01*
X7474824Y-14676674D02*
X7493872Y-14667150D01*
X7493872Y-14667150D02*
X7522443Y-14667150D01*
X7522443Y-14667150D02*
X7541491Y-14676674D01*
X7541491Y-14676674D02*
X7551015Y-14695722D01*
X7551015Y-14695722D02*
X7551015Y-14800484D01*
X7941491Y-14590960D02*
X7770063Y-14848103D01*
X8198634Y-14600484D02*
X8217682Y-14600484D01*
X8217682Y-14600484D02*
X8236729Y-14610008D01*
X8236729Y-14610008D02*
X8246253Y-14619531D01*
X8246253Y-14619531D02*
X8255777Y-14638579D01*
X8255777Y-14638579D02*
X8265301Y-14676674D01*
X8265301Y-14676674D02*
X8265301Y-14724293D01*
X8265301Y-14724293D02*
X8255777Y-14762388D01*
X8255777Y-14762388D02*
X8246253Y-14781436D01*
X8246253Y-14781436D02*
X8236729Y-14790960D01*
X8236729Y-14790960D02*
X8217682Y-14800484D01*
X8217682Y-14800484D02*
X8198634Y-14800484D01*
X8198634Y-14800484D02*
X8179586Y-14790960D01*
X8179586Y-14790960D02*
X8170063Y-14781436D01*
X8170063Y-14781436D02*
X8160539Y-14762388D01*
X8160539Y-14762388D02*
X8151015Y-14724293D01*
X8151015Y-14724293D02*
X8151015Y-14676674D01*
X8151015Y-14676674D02*
X8160539Y-14638579D01*
X8160539Y-14638579D02*
X8170063Y-14619531D01*
X8170063Y-14619531D02*
X8179586Y-14610008D01*
X8179586Y-14610008D02*
X8198634Y-14600484D01*
X8351015Y-14781436D02*
X8360539Y-14790960D01*
X8360539Y-14790960D02*
X8351015Y-14800484D01*
X8351015Y-14800484D02*
X8341491Y-14790960D01*
X8341491Y-14790960D02*
X8351015Y-14781436D01*
X8351015Y-14781436D02*
X8351015Y-14800484D01*
X8484348Y-14600484D02*
X8503396Y-14600484D01*
X8503396Y-14600484D02*
X8522444Y-14610008D01*
X8522444Y-14610008D02*
X8531968Y-14619531D01*
X8531968Y-14619531D02*
X8541491Y-14638579D01*
X8541491Y-14638579D02*
X8551015Y-14676674D01*
X8551015Y-14676674D02*
X8551015Y-14724293D01*
X8551015Y-14724293D02*
X8541491Y-14762388D01*
X8541491Y-14762388D02*
X8531968Y-14781436D01*
X8531968Y-14781436D02*
X8522444Y-14790960D01*
X8522444Y-14790960D02*
X8503396Y-14800484D01*
X8503396Y-14800484D02*
X8484348Y-14800484D01*
X8484348Y-14800484D02*
X8465301Y-14790960D01*
X8465301Y-14790960D02*
X8455777Y-14781436D01*
X8455777Y-14781436D02*
X8446253Y-14762388D01*
X8446253Y-14762388D02*
X8436729Y-14724293D01*
X8436729Y-14724293D02*
X8436729Y-14676674D01*
X8436729Y-14676674D02*
X8446253Y-14638579D01*
X8446253Y-14638579D02*
X8455777Y-14619531D01*
X8455777Y-14619531D02*
X8465301Y-14610008D01*
X8465301Y-14610008D02*
X8484348Y-14600484D01*
X8627206Y-14619531D02*
X8636729Y-14610008D01*
X8636729Y-14610008D02*
X8655777Y-14600484D01*
X8655777Y-14600484D02*
X8703396Y-14600484D01*
X8703396Y-14600484D02*
X8722444Y-14610008D01*
X8722444Y-14610008D02*
X8731968Y-14619531D01*
X8731968Y-14619531D02*
X8741491Y-14638579D01*
X8741491Y-14638579D02*
X8741491Y-14657627D01*
X8741491Y-14657627D02*
X8731968Y-14686198D01*
X8731968Y-14686198D02*
X8617682Y-14800484D01*
X8617682Y-14800484D02*
X8741491Y-14800484D01*
X8808158Y-14600484D02*
X8931968Y-14600484D01*
X8931968Y-14600484D02*
X8865301Y-14676674D01*
X8865301Y-14676674D02*
X8893872Y-14676674D01*
X8893872Y-14676674D02*
X8912920Y-14686198D01*
X8912920Y-14686198D02*
X8922444Y-14695722D01*
X8922444Y-14695722D02*
X8931968Y-14714769D01*
X8931968Y-14714769D02*
X8931968Y-14762388D01*
X8931968Y-14762388D02*
X8922444Y-14781436D01*
X8922444Y-14781436D02*
X8912920Y-14790960D01*
X8912920Y-14790960D02*
X8893872Y-14800484D01*
X8893872Y-14800484D02*
X8836729Y-14800484D01*
X8836729Y-14800484D02*
X8817682Y-14790960D01*
X8817682Y-14790960D02*
X8808158Y-14781436D01*
X9103396Y-14600484D02*
X9065301Y-14600484D01*
X9065301Y-14600484D02*
X9046253Y-14610008D01*
X9046253Y-14610008D02*
X9036729Y-14619531D01*
X9036729Y-14619531D02*
X9017682Y-14648103D01*
X9017682Y-14648103D02*
X9008158Y-14686198D01*
X9008158Y-14686198D02*
X9008158Y-14762388D01*
X9008158Y-14762388D02*
X9017682Y-14781436D01*
X9017682Y-14781436D02*
X9027206Y-14790960D01*
X9027206Y-14790960D02*
X9046253Y-14800484D01*
X9046253Y-14800484D02*
X9084349Y-14800484D01*
X9084349Y-14800484D02*
X9103396Y-14790960D01*
X9103396Y-14790960D02*
X9112920Y-14781436D01*
X9112920Y-14781436D02*
X9122444Y-14762388D01*
X9122444Y-14762388D02*
X9122444Y-14714769D01*
X9122444Y-14714769D02*
X9112920Y-14695722D01*
X9112920Y-14695722D02*
X9103396Y-14686198D01*
X9103396Y-14686198D02*
X9084349Y-14676674D01*
X9084349Y-14676674D02*
X9046253Y-14676674D01*
X9046253Y-14676674D02*
X9027206Y-14686198D01*
X9027206Y-14686198D02*
X9017682Y-14695722D01*
X9017682Y-14695722D02*
X9008158Y-14714769D01*
X9198634Y-14600484D02*
X9198634Y-14638579D01*
X9274825Y-14600484D02*
X9274825Y-14638579D01*
X9570063Y-14876674D02*
X9560539Y-14867150D01*
X9560539Y-14867150D02*
X9541491Y-14838579D01*
X9541491Y-14838579D02*
X9531968Y-14819531D01*
X9531968Y-14819531D02*
X9522444Y-14790960D01*
X9522444Y-14790960D02*
X9512920Y-14743341D01*
X9512920Y-14743341D02*
X9512920Y-14705246D01*
X9512920Y-14705246D02*
X9522444Y-14657627D01*
X9522444Y-14657627D02*
X9531968Y-14629055D01*
X9531968Y-14629055D02*
X9541491Y-14610008D01*
X9541491Y-14610008D02*
X9560539Y-14581436D01*
X9560539Y-14581436D02*
X9570063Y-14571912D01*
X9684349Y-14600484D02*
X9703396Y-14600484D01*
X9703396Y-14600484D02*
X9722444Y-14610008D01*
X9722444Y-14610008D02*
X9731968Y-14619531D01*
X9731968Y-14619531D02*
X9741491Y-14638579D01*
X9741491Y-14638579D02*
X9751015Y-14676674D01*
X9751015Y-14676674D02*
X9751015Y-14724293D01*
X9751015Y-14724293D02*
X9741491Y-14762388D01*
X9741491Y-14762388D02*
X9731968Y-14781436D01*
X9731968Y-14781436D02*
X9722444Y-14790960D01*
X9722444Y-14790960D02*
X9703396Y-14800484D01*
X9703396Y-14800484D02*
X9684349Y-14800484D01*
X9684349Y-14800484D02*
X9665301Y-14790960D01*
X9665301Y-14790960D02*
X9655777Y-14781436D01*
X9655777Y-14781436D02*
X9646253Y-14762388D01*
X9646253Y-14762388D02*
X9636730Y-14724293D01*
X9636730Y-14724293D02*
X9636730Y-14676674D01*
X9636730Y-14676674D02*
X9646253Y-14638579D01*
X9646253Y-14638579D02*
X9655777Y-14619531D01*
X9655777Y-14619531D02*
X9665301Y-14610008D01*
X9665301Y-14610008D02*
X9684349Y-14600484D01*
X9989111Y-14800484D02*
X9989111Y-14600484D01*
X10074825Y-14800484D02*
X10074825Y-14695722D01*
X10074825Y-14695722D02*
X10065301Y-14676674D01*
X10065301Y-14676674D02*
X10046253Y-14667150D01*
X10046253Y-14667150D02*
X10017682Y-14667150D01*
X10017682Y-14667150D02*
X9998634Y-14676674D01*
X9998634Y-14676674D02*
X9989111Y-14686198D01*
X10198634Y-14800484D02*
X10179587Y-14790960D01*
X10179587Y-14790960D02*
X10170063Y-14781436D01*
X10170063Y-14781436D02*
X10160539Y-14762388D01*
X10160539Y-14762388D02*
X10160539Y-14705246D01*
X10160539Y-14705246D02*
X10170063Y-14686198D01*
X10170063Y-14686198D02*
X10179587Y-14676674D01*
X10179587Y-14676674D02*
X10198634Y-14667150D01*
X10198634Y-14667150D02*
X10227206Y-14667150D01*
X10227206Y-14667150D02*
X10246253Y-14676674D01*
X10246253Y-14676674D02*
X10255777Y-14686198D01*
X10255777Y-14686198D02*
X10265301Y-14705246D01*
X10265301Y-14705246D02*
X10265301Y-14762388D01*
X10265301Y-14762388D02*
X10255777Y-14781436D01*
X10255777Y-14781436D02*
X10246253Y-14790960D01*
X10246253Y-14790960D02*
X10227206Y-14800484D01*
X10227206Y-14800484D02*
X10198634Y-14800484D01*
X10379587Y-14800484D02*
X10360539Y-14790960D01*
X10360539Y-14790960D02*
X10351015Y-14771912D01*
X10351015Y-14771912D02*
X10351015Y-14600484D01*
X10531968Y-14790960D02*
X10512920Y-14800484D01*
X10512920Y-14800484D02*
X10474825Y-14800484D01*
X10474825Y-14800484D02*
X10455777Y-14790960D01*
X10455777Y-14790960D02*
X10446253Y-14771912D01*
X10446253Y-14771912D02*
X10446253Y-14695722D01*
X10446253Y-14695722D02*
X10455777Y-14676674D01*
X10455777Y-14676674D02*
X10474825Y-14667150D01*
X10474825Y-14667150D02*
X10512920Y-14667150D01*
X10512920Y-14667150D02*
X10531968Y-14676674D01*
X10531968Y-14676674D02*
X10541492Y-14695722D01*
X10541492Y-14695722D02*
X10541492Y-14714769D01*
X10541492Y-14714769D02*
X10446253Y-14733817D01*
X10617682Y-14790960D02*
X10636730Y-14800484D01*
X10636730Y-14800484D02*
X10674825Y-14800484D01*
X10674825Y-14800484D02*
X10693873Y-14790960D01*
X10693873Y-14790960D02*
X10703396Y-14771912D01*
X10703396Y-14771912D02*
X10703396Y-14762388D01*
X10703396Y-14762388D02*
X10693873Y-14743341D01*
X10693873Y-14743341D02*
X10674825Y-14733817D01*
X10674825Y-14733817D02*
X10646253Y-14733817D01*
X10646253Y-14733817D02*
X10627206Y-14724293D01*
X10627206Y-14724293D02*
X10617682Y-14705246D01*
X10617682Y-14705246D02*
X10617682Y-14695722D01*
X10617682Y-14695722D02*
X10627206Y-14676674D01*
X10627206Y-14676674D02*
X10646253Y-14667150D01*
X10646253Y-14667150D02*
X10674825Y-14667150D01*
X10674825Y-14667150D02*
X10693873Y-14676674D01*
X10941492Y-14724293D02*
X11093873Y-14724293D01*
X11017682Y-14800484D02*
X11017682Y-14648103D01*
X11427206Y-14667150D02*
X11427206Y-14800484D01*
X11379587Y-14590960D02*
X11331968Y-14733817D01*
X11331968Y-14733817D02*
X11455777Y-14733817D01*
X11674825Y-14790960D02*
X11693873Y-14800484D01*
X11693873Y-14800484D02*
X11731968Y-14800484D01*
X11731968Y-14800484D02*
X11751015Y-14790960D01*
X11751015Y-14790960D02*
X11760539Y-14771912D01*
X11760539Y-14771912D02*
X11760539Y-14762388D01*
X11760539Y-14762388D02*
X11751015Y-14743341D01*
X11751015Y-14743341D02*
X11731968Y-14733817D01*
X11731968Y-14733817D02*
X11703396Y-14733817D01*
X11703396Y-14733817D02*
X11684349Y-14724293D01*
X11684349Y-14724293D02*
X11674825Y-14705246D01*
X11674825Y-14705246D02*
X11674825Y-14695722D01*
X11674825Y-14695722D02*
X11684349Y-14676674D01*
X11684349Y-14676674D02*
X11703396Y-14667150D01*
X11703396Y-14667150D02*
X11731968Y-14667150D01*
X11731968Y-14667150D02*
X11751015Y-14676674D01*
X11874825Y-14800484D02*
X11855777Y-14790960D01*
X11855777Y-14790960D02*
X11846254Y-14771912D01*
X11846254Y-14771912D02*
X11846254Y-14600484D01*
X11979587Y-14800484D02*
X11960539Y-14790960D01*
X11960539Y-14790960D02*
X11951015Y-14781436D01*
X11951015Y-14781436D02*
X11941492Y-14762388D01*
X11941492Y-14762388D02*
X11941492Y-14705246D01*
X11941492Y-14705246D02*
X11951015Y-14686198D01*
X11951015Y-14686198D02*
X11960539Y-14676674D01*
X11960539Y-14676674D02*
X11979587Y-14667150D01*
X11979587Y-14667150D02*
X12008158Y-14667150D01*
X12008158Y-14667150D02*
X12027206Y-14676674D01*
X12027206Y-14676674D02*
X12036730Y-14686198D01*
X12036730Y-14686198D02*
X12046254Y-14705246D01*
X12046254Y-14705246D02*
X12046254Y-14762388D01*
X12046254Y-14762388D02*
X12036730Y-14781436D01*
X12036730Y-14781436D02*
X12027206Y-14790960D01*
X12027206Y-14790960D02*
X12008158Y-14800484D01*
X12008158Y-14800484D02*
X11979587Y-14800484D01*
X12103396Y-14667150D02*
X12179587Y-14667150D01*
X12131968Y-14600484D02*
X12131968Y-14771912D01*
X12131968Y-14771912D02*
X12141492Y-14790960D01*
X12141492Y-14790960D02*
X12160539Y-14800484D01*
X12160539Y-14800484D02*
X12179587Y-14800484D01*
X12236730Y-14790960D02*
X12255777Y-14800484D01*
X12255777Y-14800484D02*
X12293873Y-14800484D01*
X12293873Y-14800484D02*
X12312920Y-14790960D01*
X12312920Y-14790960D02*
X12322444Y-14771912D01*
X12322444Y-14771912D02*
X12322444Y-14762388D01*
X12322444Y-14762388D02*
X12312920Y-14743341D01*
X12312920Y-14743341D02*
X12293873Y-14733817D01*
X12293873Y-14733817D02*
X12265301Y-14733817D01*
X12265301Y-14733817D02*
X12246254Y-14724293D01*
X12246254Y-14724293D02*
X12236730Y-14705246D01*
X12236730Y-14705246D02*
X12236730Y-14695722D01*
X12236730Y-14695722D02*
X12246254Y-14676674D01*
X12246254Y-14676674D02*
X12265301Y-14667150D01*
X12265301Y-14667150D02*
X12293873Y-14667150D01*
X12293873Y-14667150D02*
X12312920Y-14676674D01*
X12389111Y-14876674D02*
X12398635Y-14867150D01*
X12398635Y-14867150D02*
X12417682Y-14838579D01*
X12417682Y-14838579D02*
X12427206Y-14819531D01*
X12427206Y-14819531D02*
X12436730Y-14790960D01*
X12436730Y-14790960D02*
X12446254Y-14743341D01*
X12446254Y-14743341D02*
X12446254Y-14705246D01*
X12446254Y-14705246D02*
X12436730Y-14657627D01*
X12436730Y-14657627D02*
X12427206Y-14629055D01*
X12427206Y-14629055D02*
X12417682Y-14610008D01*
X12417682Y-14610008D02*
X12398635Y-14581436D01*
X12398635Y-14581436D02*
X12389111Y-14571912D01*
D10*
X5947500Y-14925500D02*
X5947500Y-15020500D01*
X5900000Y-14973000D02*
X5995000Y-14973000D01*
D11*
X6293872Y-14864484D02*
X6312920Y-14864484D01*
X6312920Y-14864484D02*
X6331967Y-14874008D01*
X6331967Y-14874008D02*
X6341491Y-14883531D01*
X6341491Y-14883531D02*
X6351015Y-14902579D01*
X6351015Y-14902579D02*
X6360539Y-14940674D01*
X6360539Y-14940674D02*
X6360539Y-14988293D01*
X6360539Y-14988293D02*
X6351015Y-15026388D01*
X6351015Y-15026388D02*
X6341491Y-15045436D01*
X6341491Y-15045436D02*
X6331967Y-15054960D01*
X6331967Y-15054960D02*
X6312920Y-15064484D01*
X6312920Y-15064484D02*
X6293872Y-15064484D01*
X6293872Y-15064484D02*
X6274824Y-15054960D01*
X6274824Y-15054960D02*
X6265301Y-15045436D01*
X6265301Y-15045436D02*
X6255777Y-15026388D01*
X6255777Y-15026388D02*
X6246253Y-14988293D01*
X6246253Y-14988293D02*
X6246253Y-14940674D01*
X6246253Y-14940674D02*
X6255777Y-14902579D01*
X6255777Y-14902579D02*
X6265301Y-14883531D01*
X6265301Y-14883531D02*
X6274824Y-14874008D01*
X6274824Y-14874008D02*
X6293872Y-14864484D01*
X6446253Y-15045436D02*
X6455777Y-15054960D01*
X6455777Y-15054960D02*
X6446253Y-15064484D01*
X6446253Y-15064484D02*
X6436729Y-15054960D01*
X6436729Y-15054960D02*
X6446253Y-15045436D01*
X6446253Y-15045436D02*
X6446253Y-15064484D01*
X6551015Y-15064484D02*
X6589110Y-15064484D01*
X6589110Y-15064484D02*
X6608158Y-15054960D01*
X6608158Y-15054960D02*
X6617682Y-15045436D01*
X6617682Y-15045436D02*
X6636729Y-15016865D01*
X6636729Y-15016865D02*
X6646253Y-14978769D01*
X6646253Y-14978769D02*
X6646253Y-14902579D01*
X6646253Y-14902579D02*
X6636729Y-14883531D01*
X6636729Y-14883531D02*
X6627205Y-14874008D01*
X6627205Y-14874008D02*
X6608158Y-14864484D01*
X6608158Y-14864484D02*
X6570062Y-14864484D01*
X6570062Y-14864484D02*
X6551015Y-14874008D01*
X6551015Y-14874008D02*
X6541491Y-14883531D01*
X6541491Y-14883531D02*
X6531967Y-14902579D01*
X6531967Y-14902579D02*
X6531967Y-14950198D01*
X6531967Y-14950198D02*
X6541491Y-14969246D01*
X6541491Y-14969246D02*
X6551015Y-14978769D01*
X6551015Y-14978769D02*
X6570062Y-14988293D01*
X6570062Y-14988293D02*
X6608158Y-14988293D01*
X6608158Y-14988293D02*
X6627205Y-14978769D01*
X6627205Y-14978769D02*
X6636729Y-14969246D01*
X6636729Y-14969246D02*
X6646253Y-14950198D01*
X6827205Y-14864484D02*
X6731967Y-14864484D01*
X6731967Y-14864484D02*
X6722443Y-14959722D01*
X6722443Y-14959722D02*
X6731967Y-14950198D01*
X6731967Y-14950198D02*
X6751015Y-14940674D01*
X6751015Y-14940674D02*
X6798634Y-14940674D01*
X6798634Y-14940674D02*
X6817682Y-14950198D01*
X6817682Y-14950198D02*
X6827205Y-14959722D01*
X6827205Y-14959722D02*
X6836729Y-14978769D01*
X6836729Y-14978769D02*
X6836729Y-15026388D01*
X6836729Y-15026388D02*
X6827205Y-15045436D01*
X6827205Y-15045436D02*
X6817682Y-15054960D01*
X6817682Y-15054960D02*
X6798634Y-15064484D01*
X6798634Y-15064484D02*
X6751015Y-15064484D01*
X6751015Y-15064484D02*
X6731967Y-15054960D01*
X6731967Y-15054960D02*
X6722443Y-15045436D01*
X6960539Y-14864484D02*
X6979586Y-14864484D01*
X6979586Y-14864484D02*
X6998634Y-14874008D01*
X6998634Y-14874008D02*
X7008158Y-14883531D01*
X7008158Y-14883531D02*
X7017682Y-14902579D01*
X7017682Y-14902579D02*
X7027205Y-14940674D01*
X7027205Y-14940674D02*
X7027205Y-14988293D01*
X7027205Y-14988293D02*
X7017682Y-15026388D01*
X7017682Y-15026388D02*
X7008158Y-15045436D01*
X7008158Y-15045436D02*
X6998634Y-15054960D01*
X6998634Y-15054960D02*
X6979586Y-15064484D01*
X6979586Y-15064484D02*
X6960539Y-15064484D01*
X6960539Y-15064484D02*
X6941491Y-15054960D01*
X6941491Y-15054960D02*
X6931967Y-15045436D01*
X6931967Y-15045436D02*
X6922443Y-15026388D01*
X6922443Y-15026388D02*
X6912920Y-14988293D01*
X6912920Y-14988293D02*
X6912920Y-14940674D01*
X6912920Y-14940674D02*
X6922443Y-14902579D01*
X6922443Y-14902579D02*
X6931967Y-14883531D01*
X6931967Y-14883531D02*
X6941491Y-14874008D01*
X6941491Y-14874008D02*
X6960539Y-14864484D01*
X7112920Y-15064484D02*
X7112920Y-14931150D01*
X7112920Y-14950198D02*
X7122443Y-14940674D01*
X7122443Y-14940674D02*
X7141491Y-14931150D01*
X7141491Y-14931150D02*
X7170063Y-14931150D01*
X7170063Y-14931150D02*
X7189110Y-14940674D01*
X7189110Y-14940674D02*
X7198634Y-14959722D01*
X7198634Y-14959722D02*
X7198634Y-15064484D01*
X7198634Y-14959722D02*
X7208158Y-14940674D01*
X7208158Y-14940674D02*
X7227205Y-14931150D01*
X7227205Y-14931150D02*
X7255777Y-14931150D01*
X7255777Y-14931150D02*
X7274824Y-14940674D01*
X7274824Y-14940674D02*
X7284348Y-14959722D01*
X7284348Y-14959722D02*
X7284348Y-15064484D01*
X7379586Y-15064484D02*
X7379586Y-14931150D01*
X7379586Y-14950198D02*
X7389110Y-14940674D01*
X7389110Y-14940674D02*
X7408158Y-14931150D01*
X7408158Y-14931150D02*
X7436729Y-14931150D01*
X7436729Y-14931150D02*
X7455777Y-14940674D01*
X7455777Y-14940674D02*
X7465301Y-14959722D01*
X7465301Y-14959722D02*
X7465301Y-15064484D01*
X7465301Y-14959722D02*
X7474824Y-14940674D01*
X7474824Y-14940674D02*
X7493872Y-14931150D01*
X7493872Y-14931150D02*
X7522443Y-14931150D01*
X7522443Y-14931150D02*
X7541491Y-14940674D01*
X7541491Y-14940674D02*
X7551015Y-14959722D01*
X7551015Y-14959722D02*
X7551015Y-15064484D01*
X7941491Y-14854960D02*
X7770063Y-15112103D01*
X8198634Y-14864484D02*
X8217682Y-14864484D01*
X8217682Y-14864484D02*
X8236729Y-14874008D01*
X8236729Y-14874008D02*
X8246253Y-14883531D01*
X8246253Y-14883531D02*
X8255777Y-14902579D01*
X8255777Y-14902579D02*
X8265301Y-14940674D01*
X8265301Y-14940674D02*
X8265301Y-14988293D01*
X8265301Y-14988293D02*
X8255777Y-15026388D01*
X8255777Y-15026388D02*
X8246253Y-15045436D01*
X8246253Y-15045436D02*
X8236729Y-15054960D01*
X8236729Y-15054960D02*
X8217682Y-15064484D01*
X8217682Y-15064484D02*
X8198634Y-15064484D01*
X8198634Y-15064484D02*
X8179586Y-15054960D01*
X8179586Y-15054960D02*
X8170063Y-15045436D01*
X8170063Y-15045436D02*
X8160539Y-15026388D01*
X8160539Y-15026388D02*
X8151015Y-14988293D01*
X8151015Y-14988293D02*
X8151015Y-14940674D01*
X8151015Y-14940674D02*
X8160539Y-14902579D01*
X8160539Y-14902579D02*
X8170063Y-14883531D01*
X8170063Y-14883531D02*
X8179586Y-14874008D01*
X8179586Y-14874008D02*
X8198634Y-14864484D01*
X8351015Y-15045436D02*
X8360539Y-15054960D01*
X8360539Y-15054960D02*
X8351015Y-15064484D01*
X8351015Y-15064484D02*
X8341491Y-15054960D01*
X8341491Y-15054960D02*
X8351015Y-15045436D01*
X8351015Y-15045436D02*
X8351015Y-15064484D01*
X8484348Y-14864484D02*
X8503396Y-14864484D01*
X8503396Y-14864484D02*
X8522444Y-14874008D01*
X8522444Y-14874008D02*
X8531968Y-14883531D01*
X8531968Y-14883531D02*
X8541491Y-14902579D01*
X8541491Y-14902579D02*
X8551015Y-14940674D01*
X8551015Y-14940674D02*
X8551015Y-14988293D01*
X8551015Y-14988293D02*
X8541491Y-15026388D01*
X8541491Y-15026388D02*
X8531968Y-15045436D01*
X8531968Y-15045436D02*
X8522444Y-15054960D01*
X8522444Y-15054960D02*
X8503396Y-15064484D01*
X8503396Y-15064484D02*
X8484348Y-15064484D01*
X8484348Y-15064484D02*
X8465301Y-15054960D01*
X8465301Y-15054960D02*
X8455777Y-15045436D01*
X8455777Y-15045436D02*
X8446253Y-15026388D01*
X8446253Y-15026388D02*
X8436729Y-14988293D01*
X8436729Y-14988293D02*
X8436729Y-14940674D01*
X8436729Y-14940674D02*
X8446253Y-14902579D01*
X8446253Y-14902579D02*
X8455777Y-14883531D01*
X8455777Y-14883531D02*
X8465301Y-14874008D01*
X8465301Y-14874008D02*
X8484348Y-14864484D01*
X8617682Y-14864484D02*
X8741491Y-14864484D01*
X8741491Y-14864484D02*
X8674825Y-14940674D01*
X8674825Y-14940674D02*
X8703396Y-14940674D01*
X8703396Y-14940674D02*
X8722444Y-14950198D01*
X8722444Y-14950198D02*
X8731968Y-14959722D01*
X8731968Y-14959722D02*
X8741491Y-14978769D01*
X8741491Y-14978769D02*
X8741491Y-15026388D01*
X8741491Y-15026388D02*
X8731968Y-15045436D01*
X8731968Y-15045436D02*
X8722444Y-15054960D01*
X8722444Y-15054960D02*
X8703396Y-15064484D01*
X8703396Y-15064484D02*
X8646253Y-15064484D01*
X8646253Y-15064484D02*
X8627206Y-15054960D01*
X8627206Y-15054960D02*
X8617682Y-15045436D01*
X8808158Y-14864484D02*
X8941491Y-14864484D01*
X8941491Y-14864484D02*
X8855777Y-15064484D01*
X9103396Y-14931150D02*
X9103396Y-15064484D01*
X9055777Y-14854960D02*
X9008158Y-14997817D01*
X9008158Y-14997817D02*
X9131968Y-14997817D01*
X9198634Y-14864484D02*
X9198634Y-14902579D01*
X9274825Y-14864484D02*
X9274825Y-14902579D01*
X9570063Y-15140674D02*
X9560539Y-15131150D01*
X9560539Y-15131150D02*
X9541491Y-15102579D01*
X9541491Y-15102579D02*
X9531968Y-15083531D01*
X9531968Y-15083531D02*
X9522444Y-15054960D01*
X9522444Y-15054960D02*
X9512920Y-15007341D01*
X9512920Y-15007341D02*
X9512920Y-14969246D01*
X9512920Y-14969246D02*
X9522444Y-14921627D01*
X9522444Y-14921627D02*
X9531968Y-14893055D01*
X9531968Y-14893055D02*
X9541491Y-14874008D01*
X9541491Y-14874008D02*
X9560539Y-14845436D01*
X9560539Y-14845436D02*
X9570063Y-14835912D01*
X9731968Y-14931150D02*
X9731968Y-15064484D01*
X9684349Y-14854960D02*
X9636730Y-14997817D01*
X9636730Y-14997817D02*
X9760539Y-14997817D01*
X9989111Y-15064484D02*
X9989111Y-14864484D01*
X10074825Y-15064484D02*
X10074825Y-14959722D01*
X10074825Y-14959722D02*
X10065301Y-14940674D01*
X10065301Y-14940674D02*
X10046253Y-14931150D01*
X10046253Y-14931150D02*
X10017682Y-14931150D01*
X10017682Y-14931150D02*
X9998634Y-14940674D01*
X9998634Y-14940674D02*
X9989111Y-14950198D01*
X10198634Y-15064484D02*
X10179587Y-15054960D01*
X10179587Y-15054960D02*
X10170063Y-15045436D01*
X10170063Y-15045436D02*
X10160539Y-15026388D01*
X10160539Y-15026388D02*
X10160539Y-14969246D01*
X10160539Y-14969246D02*
X10170063Y-14950198D01*
X10170063Y-14950198D02*
X10179587Y-14940674D01*
X10179587Y-14940674D02*
X10198634Y-14931150D01*
X10198634Y-14931150D02*
X10227206Y-14931150D01*
X10227206Y-14931150D02*
X10246253Y-14940674D01*
X10246253Y-14940674D02*
X10255777Y-14950198D01*
X10255777Y-14950198D02*
X10265301Y-14969246D01*
X10265301Y-14969246D02*
X10265301Y-15026388D01*
X10265301Y-15026388D02*
X10255777Y-15045436D01*
X10255777Y-15045436D02*
X10246253Y-15054960D01*
X10246253Y-15054960D02*
X10227206Y-15064484D01*
X10227206Y-15064484D02*
X10198634Y-15064484D01*
X10379587Y-15064484D02*
X10360539Y-15054960D01*
X10360539Y-15054960D02*
X10351015Y-15035912D01*
X10351015Y-15035912D02*
X10351015Y-14864484D01*
X10531968Y-15054960D02*
X10512920Y-15064484D01*
X10512920Y-15064484D02*
X10474825Y-15064484D01*
X10474825Y-15064484D02*
X10455777Y-15054960D01*
X10455777Y-15054960D02*
X10446253Y-15035912D01*
X10446253Y-15035912D02*
X10446253Y-14959722D01*
X10446253Y-14959722D02*
X10455777Y-14940674D01*
X10455777Y-14940674D02*
X10474825Y-14931150D01*
X10474825Y-14931150D02*
X10512920Y-14931150D01*
X10512920Y-14931150D02*
X10531968Y-14940674D01*
X10531968Y-14940674D02*
X10541492Y-14959722D01*
X10541492Y-14959722D02*
X10541492Y-14978769D01*
X10541492Y-14978769D02*
X10446253Y-14997817D01*
X10617682Y-15054960D02*
X10636730Y-15064484D01*
X10636730Y-15064484D02*
X10674825Y-15064484D01*
X10674825Y-15064484D02*
X10693873Y-15054960D01*
X10693873Y-15054960D02*
X10703396Y-15035912D01*
X10703396Y-15035912D02*
X10703396Y-15026388D01*
X10703396Y-15026388D02*
X10693873Y-15007341D01*
X10693873Y-15007341D02*
X10674825Y-14997817D01*
X10674825Y-14997817D02*
X10646253Y-14997817D01*
X10646253Y-14997817D02*
X10627206Y-14988293D01*
X10627206Y-14988293D02*
X10617682Y-14969246D01*
X10617682Y-14969246D02*
X10617682Y-14959722D01*
X10617682Y-14959722D02*
X10627206Y-14940674D01*
X10627206Y-14940674D02*
X10646253Y-14931150D01*
X10646253Y-14931150D02*
X10674825Y-14931150D01*
X10674825Y-14931150D02*
X10693873Y-14940674D01*
X10770063Y-15140674D02*
X10779587Y-15131150D01*
X10779587Y-15131150D02*
X10798634Y-15102579D01*
X10798634Y-15102579D02*
X10808158Y-15083531D01*
X10808158Y-15083531D02*
X10817682Y-15054960D01*
X10817682Y-15054960D02*
X10827206Y-15007341D01*
X10827206Y-15007341D02*
X10827206Y-14969246D01*
X10827206Y-14969246D02*
X10817682Y-14921627D01*
X10817682Y-14921627D02*
X10808158Y-14893055D01*
X10808158Y-14893055D02*
X10798634Y-14874008D01*
X10798634Y-14874008D02*
X10779587Y-14845436D01*
X10779587Y-14845436D02*
X10770063Y-14835912D01*
D10*
X5980356Y-15272356D02*
X5980356Y-15201644D01*
X5909644Y-15201644D01*
X5909644Y-15272356D01*
X5980356Y-15272356D01*
D11*
X6360539Y-15328484D02*
X6246253Y-15328484D01*
X6303396Y-15328484D02*
X6303396Y-15128484D01*
X6303396Y-15128484D02*
X6284348Y-15157055D01*
X6284348Y-15157055D02*
X6265301Y-15176103D01*
X6265301Y-15176103D02*
X6246253Y-15185627D01*
X6446253Y-15309436D02*
X6455777Y-15318960D01*
X6455777Y-15318960D02*
X6446253Y-15328484D01*
X6446253Y-15328484D02*
X6436729Y-15318960D01*
X6436729Y-15318960D02*
X6446253Y-15309436D01*
X6446253Y-15309436D02*
X6446253Y-15328484D01*
X6579586Y-15128484D02*
X6598634Y-15128484D01*
X6598634Y-15128484D02*
X6617682Y-15138008D01*
X6617682Y-15138008D02*
X6627205Y-15147531D01*
X6627205Y-15147531D02*
X6636729Y-15166579D01*
X6636729Y-15166579D02*
X6646253Y-15204674D01*
X6646253Y-15204674D02*
X6646253Y-15252293D01*
X6646253Y-15252293D02*
X6636729Y-15290388D01*
X6636729Y-15290388D02*
X6627205Y-15309436D01*
X6627205Y-15309436D02*
X6617682Y-15318960D01*
X6617682Y-15318960D02*
X6598634Y-15328484D01*
X6598634Y-15328484D02*
X6579586Y-15328484D01*
X6579586Y-15328484D02*
X6560539Y-15318960D01*
X6560539Y-15318960D02*
X6551015Y-15309436D01*
X6551015Y-15309436D02*
X6541491Y-15290388D01*
X6541491Y-15290388D02*
X6531967Y-15252293D01*
X6531967Y-15252293D02*
X6531967Y-15204674D01*
X6531967Y-15204674D02*
X6541491Y-15166579D01*
X6541491Y-15166579D02*
X6551015Y-15147531D01*
X6551015Y-15147531D02*
X6560539Y-15138008D01*
X6560539Y-15138008D02*
X6579586Y-15128484D01*
X6770062Y-15128484D02*
X6789110Y-15128484D01*
X6789110Y-15128484D02*
X6808158Y-15138008D01*
X6808158Y-15138008D02*
X6817682Y-15147531D01*
X6817682Y-15147531D02*
X6827205Y-15166579D01*
X6827205Y-15166579D02*
X6836729Y-15204674D01*
X6836729Y-15204674D02*
X6836729Y-15252293D01*
X6836729Y-15252293D02*
X6827205Y-15290388D01*
X6827205Y-15290388D02*
X6817682Y-15309436D01*
X6817682Y-15309436D02*
X6808158Y-15318960D01*
X6808158Y-15318960D02*
X6789110Y-15328484D01*
X6789110Y-15328484D02*
X6770062Y-15328484D01*
X6770062Y-15328484D02*
X6751015Y-15318960D01*
X6751015Y-15318960D02*
X6741491Y-15309436D01*
X6741491Y-15309436D02*
X6731967Y-15290388D01*
X6731967Y-15290388D02*
X6722443Y-15252293D01*
X6722443Y-15252293D02*
X6722443Y-15204674D01*
X6722443Y-15204674D02*
X6731967Y-15166579D01*
X6731967Y-15166579D02*
X6741491Y-15147531D01*
X6741491Y-15147531D02*
X6751015Y-15138008D01*
X6751015Y-15138008D02*
X6770062Y-15128484D01*
X6960539Y-15128484D02*
X6979586Y-15128484D01*
X6979586Y-15128484D02*
X6998634Y-15138008D01*
X6998634Y-15138008D02*
X7008158Y-15147531D01*
X7008158Y-15147531D02*
X7017682Y-15166579D01*
X7017682Y-15166579D02*
X7027205Y-15204674D01*
X7027205Y-15204674D02*
X7027205Y-15252293D01*
X7027205Y-15252293D02*
X7017682Y-15290388D01*
X7017682Y-15290388D02*
X7008158Y-15309436D01*
X7008158Y-15309436D02*
X6998634Y-15318960D01*
X6998634Y-15318960D02*
X6979586Y-15328484D01*
X6979586Y-15328484D02*
X6960539Y-15328484D01*
X6960539Y-15328484D02*
X6941491Y-15318960D01*
X6941491Y-15318960D02*
X6931967Y-15309436D01*
X6931967Y-15309436D02*
X6922443Y-15290388D01*
X6922443Y-15290388D02*
X6912920Y-15252293D01*
X6912920Y-15252293D02*
X6912920Y-15204674D01*
X6912920Y-15204674D02*
X6922443Y-15166579D01*
X6922443Y-15166579D02*
X6931967Y-15147531D01*
X6931967Y-15147531D02*
X6941491Y-15138008D01*
X6941491Y-15138008D02*
X6960539Y-15128484D01*
X7112920Y-15328484D02*
X7112920Y-15195150D01*
X7112920Y-15214198D02*
X7122443Y-15204674D01*
X7122443Y-15204674D02*
X7141491Y-15195150D01*
X7141491Y-15195150D02*
X7170063Y-15195150D01*
X7170063Y-15195150D02*
X7189110Y-15204674D01*
X7189110Y-15204674D02*
X7198634Y-15223722D01*
X7198634Y-15223722D02*
X7198634Y-15328484D01*
X7198634Y-15223722D02*
X7208158Y-15204674D01*
X7208158Y-15204674D02*
X7227205Y-15195150D01*
X7227205Y-15195150D02*
X7255777Y-15195150D01*
X7255777Y-15195150D02*
X7274824Y-15204674D01*
X7274824Y-15204674D02*
X7284348Y-15223722D01*
X7284348Y-15223722D02*
X7284348Y-15328484D01*
X7379586Y-15328484D02*
X7379586Y-15195150D01*
X7379586Y-15214198D02*
X7389110Y-15204674D01*
X7389110Y-15204674D02*
X7408158Y-15195150D01*
X7408158Y-15195150D02*
X7436729Y-15195150D01*
X7436729Y-15195150D02*
X7455777Y-15204674D01*
X7455777Y-15204674D02*
X7465301Y-15223722D01*
X7465301Y-15223722D02*
X7465301Y-15328484D01*
X7465301Y-15223722D02*
X7474824Y-15204674D01*
X7474824Y-15204674D02*
X7493872Y-15195150D01*
X7493872Y-15195150D02*
X7522443Y-15195150D01*
X7522443Y-15195150D02*
X7541491Y-15204674D01*
X7541491Y-15204674D02*
X7551015Y-15223722D01*
X7551015Y-15223722D02*
X7551015Y-15328484D01*
X7941491Y-15118960D02*
X7770063Y-15376103D01*
X8198634Y-15128484D02*
X8217682Y-15128484D01*
X8217682Y-15128484D02*
X8236729Y-15138008D01*
X8236729Y-15138008D02*
X8246253Y-15147531D01*
X8246253Y-15147531D02*
X8255777Y-15166579D01*
X8255777Y-15166579D02*
X8265301Y-15204674D01*
X8265301Y-15204674D02*
X8265301Y-15252293D01*
X8265301Y-15252293D02*
X8255777Y-15290388D01*
X8255777Y-15290388D02*
X8246253Y-15309436D01*
X8246253Y-15309436D02*
X8236729Y-15318960D01*
X8236729Y-15318960D02*
X8217682Y-15328484D01*
X8217682Y-15328484D02*
X8198634Y-15328484D01*
X8198634Y-15328484D02*
X8179586Y-15318960D01*
X8179586Y-15318960D02*
X8170063Y-15309436D01*
X8170063Y-15309436D02*
X8160539Y-15290388D01*
X8160539Y-15290388D02*
X8151015Y-15252293D01*
X8151015Y-15252293D02*
X8151015Y-15204674D01*
X8151015Y-15204674D02*
X8160539Y-15166579D01*
X8160539Y-15166579D02*
X8170063Y-15147531D01*
X8170063Y-15147531D02*
X8179586Y-15138008D01*
X8179586Y-15138008D02*
X8198634Y-15128484D01*
X8351015Y-15309436D02*
X8360539Y-15318960D01*
X8360539Y-15318960D02*
X8351015Y-15328484D01*
X8351015Y-15328484D02*
X8341491Y-15318960D01*
X8341491Y-15318960D02*
X8351015Y-15309436D01*
X8351015Y-15309436D02*
X8351015Y-15328484D01*
X8484348Y-15128484D02*
X8503396Y-15128484D01*
X8503396Y-15128484D02*
X8522444Y-15138008D01*
X8522444Y-15138008D02*
X8531968Y-15147531D01*
X8531968Y-15147531D02*
X8541491Y-15166579D01*
X8541491Y-15166579D02*
X8551015Y-15204674D01*
X8551015Y-15204674D02*
X8551015Y-15252293D01*
X8551015Y-15252293D02*
X8541491Y-15290388D01*
X8541491Y-15290388D02*
X8531968Y-15309436D01*
X8531968Y-15309436D02*
X8522444Y-15318960D01*
X8522444Y-15318960D02*
X8503396Y-15328484D01*
X8503396Y-15328484D02*
X8484348Y-15328484D01*
X8484348Y-15328484D02*
X8465301Y-15318960D01*
X8465301Y-15318960D02*
X8455777Y-15309436D01*
X8455777Y-15309436D02*
X8446253Y-15290388D01*
X8446253Y-15290388D02*
X8436729Y-15252293D01*
X8436729Y-15252293D02*
X8436729Y-15204674D01*
X8436729Y-15204674D02*
X8446253Y-15166579D01*
X8446253Y-15166579D02*
X8455777Y-15147531D01*
X8455777Y-15147531D02*
X8465301Y-15138008D01*
X8465301Y-15138008D02*
X8484348Y-15128484D01*
X8617682Y-15128484D02*
X8741491Y-15128484D01*
X8741491Y-15128484D02*
X8674825Y-15204674D01*
X8674825Y-15204674D02*
X8703396Y-15204674D01*
X8703396Y-15204674D02*
X8722444Y-15214198D01*
X8722444Y-15214198D02*
X8731968Y-15223722D01*
X8731968Y-15223722D02*
X8741491Y-15242769D01*
X8741491Y-15242769D02*
X8741491Y-15290388D01*
X8741491Y-15290388D02*
X8731968Y-15309436D01*
X8731968Y-15309436D02*
X8722444Y-15318960D01*
X8722444Y-15318960D02*
X8703396Y-15328484D01*
X8703396Y-15328484D02*
X8646253Y-15328484D01*
X8646253Y-15328484D02*
X8627206Y-15318960D01*
X8627206Y-15318960D02*
X8617682Y-15309436D01*
X8836729Y-15328484D02*
X8874825Y-15328484D01*
X8874825Y-15328484D02*
X8893872Y-15318960D01*
X8893872Y-15318960D02*
X8903396Y-15309436D01*
X8903396Y-15309436D02*
X8922444Y-15280865D01*
X8922444Y-15280865D02*
X8931968Y-15242769D01*
X8931968Y-15242769D02*
X8931968Y-15166579D01*
X8931968Y-15166579D02*
X8922444Y-15147531D01*
X8922444Y-15147531D02*
X8912920Y-15138008D01*
X8912920Y-15138008D02*
X8893872Y-15128484D01*
X8893872Y-15128484D02*
X8855777Y-15128484D01*
X8855777Y-15128484D02*
X8836729Y-15138008D01*
X8836729Y-15138008D02*
X8827206Y-15147531D01*
X8827206Y-15147531D02*
X8817682Y-15166579D01*
X8817682Y-15166579D02*
X8817682Y-15214198D01*
X8817682Y-15214198D02*
X8827206Y-15233246D01*
X8827206Y-15233246D02*
X8836729Y-15242769D01*
X8836729Y-15242769D02*
X8855777Y-15252293D01*
X8855777Y-15252293D02*
X8893872Y-15252293D01*
X8893872Y-15252293D02*
X8912920Y-15242769D01*
X8912920Y-15242769D02*
X8922444Y-15233246D01*
X8922444Y-15233246D02*
X8931968Y-15214198D01*
X9103396Y-15195150D02*
X9103396Y-15328484D01*
X9055777Y-15118960D02*
X9008158Y-15261817D01*
X9008158Y-15261817D02*
X9131968Y-15261817D01*
X9198634Y-15128484D02*
X9198634Y-15166579D01*
X9274825Y-15128484D02*
X9274825Y-15166579D01*
X9570063Y-15404674D02*
X9560539Y-15395150D01*
X9560539Y-15395150D02*
X9541491Y-15366579D01*
X9541491Y-15366579D02*
X9531968Y-15347531D01*
X9531968Y-15347531D02*
X9522444Y-15318960D01*
X9522444Y-15318960D02*
X9512920Y-15271341D01*
X9512920Y-15271341D02*
X9512920Y-15233246D01*
X9512920Y-15233246D02*
X9522444Y-15185627D01*
X9522444Y-15185627D02*
X9531968Y-15157055D01*
X9531968Y-15157055D02*
X9541491Y-15138008D01*
X9541491Y-15138008D02*
X9560539Y-15109436D01*
X9560539Y-15109436D02*
X9570063Y-15099912D01*
X9731968Y-15195150D02*
X9731968Y-15328484D01*
X9684349Y-15118960D02*
X9636730Y-15261817D01*
X9636730Y-15261817D02*
X9760539Y-15261817D01*
X9874825Y-15128484D02*
X9893872Y-15128484D01*
X9893872Y-15128484D02*
X9912920Y-15138008D01*
X9912920Y-15138008D02*
X9922444Y-15147531D01*
X9922444Y-15147531D02*
X9931968Y-15166579D01*
X9931968Y-15166579D02*
X9941491Y-15204674D01*
X9941491Y-15204674D02*
X9941491Y-15252293D01*
X9941491Y-15252293D02*
X9931968Y-15290388D01*
X9931968Y-15290388D02*
X9922444Y-15309436D01*
X9922444Y-15309436D02*
X9912920Y-15318960D01*
X9912920Y-15318960D02*
X9893872Y-15328484D01*
X9893872Y-15328484D02*
X9874825Y-15328484D01*
X9874825Y-15328484D02*
X9855777Y-15318960D01*
X9855777Y-15318960D02*
X9846253Y-15309436D01*
X9846253Y-15309436D02*
X9836730Y-15290388D01*
X9836730Y-15290388D02*
X9827206Y-15252293D01*
X9827206Y-15252293D02*
X9827206Y-15204674D01*
X9827206Y-15204674D02*
X9836730Y-15166579D01*
X9836730Y-15166579D02*
X9846253Y-15147531D01*
X9846253Y-15147531D02*
X9855777Y-15138008D01*
X9855777Y-15138008D02*
X9874825Y-15128484D01*
X10179587Y-15328484D02*
X10179587Y-15128484D01*
X10265301Y-15328484D02*
X10265301Y-15223722D01*
X10265301Y-15223722D02*
X10255777Y-15204674D01*
X10255777Y-15204674D02*
X10236730Y-15195150D01*
X10236730Y-15195150D02*
X10208158Y-15195150D01*
X10208158Y-15195150D02*
X10189111Y-15204674D01*
X10189111Y-15204674D02*
X10179587Y-15214198D01*
X10389111Y-15328484D02*
X10370063Y-15318960D01*
X10370063Y-15318960D02*
X10360539Y-15309436D01*
X10360539Y-15309436D02*
X10351015Y-15290388D01*
X10351015Y-15290388D02*
X10351015Y-15233246D01*
X10351015Y-15233246D02*
X10360539Y-15214198D01*
X10360539Y-15214198D02*
X10370063Y-15204674D01*
X10370063Y-15204674D02*
X10389111Y-15195150D01*
X10389111Y-15195150D02*
X10417682Y-15195150D01*
X10417682Y-15195150D02*
X10436730Y-15204674D01*
X10436730Y-15204674D02*
X10446253Y-15214198D01*
X10446253Y-15214198D02*
X10455777Y-15233246D01*
X10455777Y-15233246D02*
X10455777Y-15290388D01*
X10455777Y-15290388D02*
X10446253Y-15309436D01*
X10446253Y-15309436D02*
X10436730Y-15318960D01*
X10436730Y-15318960D02*
X10417682Y-15328484D01*
X10417682Y-15328484D02*
X10389111Y-15328484D01*
X10570063Y-15328484D02*
X10551015Y-15318960D01*
X10551015Y-15318960D02*
X10541492Y-15299912D01*
X10541492Y-15299912D02*
X10541492Y-15128484D01*
X10722444Y-15318960D02*
X10703396Y-15328484D01*
X10703396Y-15328484D02*
X10665301Y-15328484D01*
X10665301Y-15328484D02*
X10646253Y-15318960D01*
X10646253Y-15318960D02*
X10636730Y-15299912D01*
X10636730Y-15299912D02*
X10636730Y-15223722D01*
X10636730Y-15223722D02*
X10646253Y-15204674D01*
X10646253Y-15204674D02*
X10665301Y-15195150D01*
X10665301Y-15195150D02*
X10703396Y-15195150D01*
X10703396Y-15195150D02*
X10722444Y-15204674D01*
X10722444Y-15204674D02*
X10731968Y-15223722D01*
X10731968Y-15223722D02*
X10731968Y-15242769D01*
X10731968Y-15242769D02*
X10636730Y-15261817D01*
X10808158Y-15318960D02*
X10827206Y-15328484D01*
X10827206Y-15328484D02*
X10865301Y-15328484D01*
X10865301Y-15328484D02*
X10884349Y-15318960D01*
X10884349Y-15318960D02*
X10893873Y-15299912D01*
X10893873Y-15299912D02*
X10893873Y-15290388D01*
X10893873Y-15290388D02*
X10884349Y-15271341D01*
X10884349Y-15271341D02*
X10865301Y-15261817D01*
X10865301Y-15261817D02*
X10836730Y-15261817D01*
X10836730Y-15261817D02*
X10817682Y-15252293D01*
X10817682Y-15252293D02*
X10808158Y-15233246D01*
X10808158Y-15233246D02*
X10808158Y-15223722D01*
X10808158Y-15223722D02*
X10817682Y-15204674D01*
X10817682Y-15204674D02*
X10836730Y-15195150D01*
X10836730Y-15195150D02*
X10865301Y-15195150D01*
X10865301Y-15195150D02*
X10884349Y-15204674D01*
X10960539Y-15404674D02*
X10970063Y-15395150D01*
X10970063Y-15395150D02*
X10989111Y-15366579D01*
X10989111Y-15366579D02*
X10998634Y-15347531D01*
X10998634Y-15347531D02*
X11008158Y-15318960D01*
X11008158Y-15318960D02*
X11017682Y-15271341D01*
X11017682Y-15271341D02*
X11017682Y-15233246D01*
X11017682Y-15233246D02*
X11008158Y-15185627D01*
X11008158Y-15185627D02*
X10998634Y-15157055D01*
X10998634Y-15157055D02*
X10989111Y-15138008D01*
X10989111Y-15138008D02*
X10970063Y-15109436D01*
X10970063Y-15109436D02*
X10960539Y-15099912D01*
D12*
X5935500Y-15560500D02*
X5995000Y-15501000D01*
X5935500Y-15441500D01*
X5876000Y-15501000D01*
X5935500Y-15560500D01*
D11*
X6360539Y-15592484D02*
X6246253Y-15592484D01*
X6303396Y-15592484D02*
X6303396Y-15392484D01*
X6303396Y-15392484D02*
X6284348Y-15421055D01*
X6284348Y-15421055D02*
X6265301Y-15440103D01*
X6265301Y-15440103D02*
X6246253Y-15449627D01*
X6446253Y-15573436D02*
X6455777Y-15582960D01*
X6455777Y-15582960D02*
X6446253Y-15592484D01*
X6446253Y-15592484D02*
X6436729Y-15582960D01*
X6436729Y-15582960D02*
X6446253Y-15573436D01*
X6446253Y-15573436D02*
X6446253Y-15592484D01*
X6646253Y-15592484D02*
X6531967Y-15592484D01*
X6589110Y-15592484D02*
X6589110Y-15392484D01*
X6589110Y-15392484D02*
X6570062Y-15421055D01*
X6570062Y-15421055D02*
X6551015Y-15440103D01*
X6551015Y-15440103D02*
X6531967Y-15449627D01*
X6741491Y-15592484D02*
X6779586Y-15592484D01*
X6779586Y-15592484D02*
X6798634Y-15582960D01*
X6798634Y-15582960D02*
X6808158Y-15573436D01*
X6808158Y-15573436D02*
X6827205Y-15544865D01*
X6827205Y-15544865D02*
X6836729Y-15506769D01*
X6836729Y-15506769D02*
X6836729Y-15430579D01*
X6836729Y-15430579D02*
X6827205Y-15411531D01*
X6827205Y-15411531D02*
X6817682Y-15402008D01*
X6817682Y-15402008D02*
X6798634Y-15392484D01*
X6798634Y-15392484D02*
X6760539Y-15392484D01*
X6760539Y-15392484D02*
X6741491Y-15402008D01*
X6741491Y-15402008D02*
X6731967Y-15411531D01*
X6731967Y-15411531D02*
X6722443Y-15430579D01*
X6722443Y-15430579D02*
X6722443Y-15478198D01*
X6722443Y-15478198D02*
X6731967Y-15497246D01*
X6731967Y-15497246D02*
X6741491Y-15506769D01*
X6741491Y-15506769D02*
X6760539Y-15516293D01*
X6760539Y-15516293D02*
X6798634Y-15516293D01*
X6798634Y-15516293D02*
X6817682Y-15506769D01*
X6817682Y-15506769D02*
X6827205Y-15497246D01*
X6827205Y-15497246D02*
X6836729Y-15478198D01*
X6960539Y-15392484D02*
X6979586Y-15392484D01*
X6979586Y-15392484D02*
X6998634Y-15402008D01*
X6998634Y-15402008D02*
X7008158Y-15411531D01*
X7008158Y-15411531D02*
X7017682Y-15430579D01*
X7017682Y-15430579D02*
X7027205Y-15468674D01*
X7027205Y-15468674D02*
X7027205Y-15516293D01*
X7027205Y-15516293D02*
X7017682Y-15554388D01*
X7017682Y-15554388D02*
X7008158Y-15573436D01*
X7008158Y-15573436D02*
X6998634Y-15582960D01*
X6998634Y-15582960D02*
X6979586Y-15592484D01*
X6979586Y-15592484D02*
X6960539Y-15592484D01*
X6960539Y-15592484D02*
X6941491Y-15582960D01*
X6941491Y-15582960D02*
X6931967Y-15573436D01*
X6931967Y-15573436D02*
X6922443Y-15554388D01*
X6922443Y-15554388D02*
X6912920Y-15516293D01*
X6912920Y-15516293D02*
X6912920Y-15468674D01*
X6912920Y-15468674D02*
X6922443Y-15430579D01*
X6922443Y-15430579D02*
X6931967Y-15411531D01*
X6931967Y-15411531D02*
X6941491Y-15402008D01*
X6941491Y-15402008D02*
X6960539Y-15392484D01*
X7112920Y-15592484D02*
X7112920Y-15459150D01*
X7112920Y-15478198D02*
X7122443Y-15468674D01*
X7122443Y-15468674D02*
X7141491Y-15459150D01*
X7141491Y-15459150D02*
X7170063Y-15459150D01*
X7170063Y-15459150D02*
X7189110Y-15468674D01*
X7189110Y-15468674D02*
X7198634Y-15487722D01*
X7198634Y-15487722D02*
X7198634Y-15592484D01*
X7198634Y-15487722D02*
X7208158Y-15468674D01*
X7208158Y-15468674D02*
X7227205Y-15459150D01*
X7227205Y-15459150D02*
X7255777Y-15459150D01*
X7255777Y-15459150D02*
X7274824Y-15468674D01*
X7274824Y-15468674D02*
X7284348Y-15487722D01*
X7284348Y-15487722D02*
X7284348Y-15592484D01*
X7379586Y-15592484D02*
X7379586Y-15459150D01*
X7379586Y-15478198D02*
X7389110Y-15468674D01*
X7389110Y-15468674D02*
X7408158Y-15459150D01*
X7408158Y-15459150D02*
X7436729Y-15459150D01*
X7436729Y-15459150D02*
X7455777Y-15468674D01*
X7455777Y-15468674D02*
X7465301Y-15487722D01*
X7465301Y-15487722D02*
X7465301Y-15592484D01*
X7465301Y-15487722D02*
X7474824Y-15468674D01*
X7474824Y-15468674D02*
X7493872Y-15459150D01*
X7493872Y-15459150D02*
X7522443Y-15459150D01*
X7522443Y-15459150D02*
X7541491Y-15468674D01*
X7541491Y-15468674D02*
X7551015Y-15487722D01*
X7551015Y-15487722D02*
X7551015Y-15592484D01*
X7941491Y-15382960D02*
X7770063Y-15640103D01*
X8198634Y-15392484D02*
X8217682Y-15392484D01*
X8217682Y-15392484D02*
X8236729Y-15402008D01*
X8236729Y-15402008D02*
X8246253Y-15411531D01*
X8246253Y-15411531D02*
X8255777Y-15430579D01*
X8255777Y-15430579D02*
X8265301Y-15468674D01*
X8265301Y-15468674D02*
X8265301Y-15516293D01*
X8265301Y-15516293D02*
X8255777Y-15554388D01*
X8255777Y-15554388D02*
X8246253Y-15573436D01*
X8246253Y-15573436D02*
X8236729Y-15582960D01*
X8236729Y-15582960D02*
X8217682Y-15592484D01*
X8217682Y-15592484D02*
X8198634Y-15592484D01*
X8198634Y-15592484D02*
X8179586Y-15582960D01*
X8179586Y-15582960D02*
X8170063Y-15573436D01*
X8170063Y-15573436D02*
X8160539Y-15554388D01*
X8160539Y-15554388D02*
X8151015Y-15516293D01*
X8151015Y-15516293D02*
X8151015Y-15468674D01*
X8151015Y-15468674D02*
X8160539Y-15430579D01*
X8160539Y-15430579D02*
X8170063Y-15411531D01*
X8170063Y-15411531D02*
X8179586Y-15402008D01*
X8179586Y-15402008D02*
X8198634Y-15392484D01*
X8351015Y-15573436D02*
X8360539Y-15582960D01*
X8360539Y-15582960D02*
X8351015Y-15592484D01*
X8351015Y-15592484D02*
X8341491Y-15582960D01*
X8341491Y-15582960D02*
X8351015Y-15573436D01*
X8351015Y-15573436D02*
X8351015Y-15592484D01*
X8484348Y-15392484D02*
X8503396Y-15392484D01*
X8503396Y-15392484D02*
X8522444Y-15402008D01*
X8522444Y-15402008D02*
X8531968Y-15411531D01*
X8531968Y-15411531D02*
X8541491Y-15430579D01*
X8541491Y-15430579D02*
X8551015Y-15468674D01*
X8551015Y-15468674D02*
X8551015Y-15516293D01*
X8551015Y-15516293D02*
X8541491Y-15554388D01*
X8541491Y-15554388D02*
X8531968Y-15573436D01*
X8531968Y-15573436D02*
X8522444Y-15582960D01*
X8522444Y-15582960D02*
X8503396Y-15592484D01*
X8503396Y-15592484D02*
X8484348Y-15592484D01*
X8484348Y-15592484D02*
X8465301Y-15582960D01*
X8465301Y-15582960D02*
X8455777Y-15573436D01*
X8455777Y-15573436D02*
X8446253Y-15554388D01*
X8446253Y-15554388D02*
X8436729Y-15516293D01*
X8436729Y-15516293D02*
X8436729Y-15468674D01*
X8436729Y-15468674D02*
X8446253Y-15430579D01*
X8446253Y-15430579D02*
X8455777Y-15411531D01*
X8455777Y-15411531D02*
X8465301Y-15402008D01*
X8465301Y-15402008D02*
X8484348Y-15392484D01*
X8722444Y-15459150D02*
X8722444Y-15592484D01*
X8674825Y-15382960D02*
X8627206Y-15525817D01*
X8627206Y-15525817D02*
X8751015Y-15525817D01*
X8912920Y-15392484D02*
X8874825Y-15392484D01*
X8874825Y-15392484D02*
X8855777Y-15402008D01*
X8855777Y-15402008D02*
X8846253Y-15411531D01*
X8846253Y-15411531D02*
X8827206Y-15440103D01*
X8827206Y-15440103D02*
X8817682Y-15478198D01*
X8817682Y-15478198D02*
X8817682Y-15554388D01*
X8817682Y-15554388D02*
X8827206Y-15573436D01*
X8827206Y-15573436D02*
X8836729Y-15582960D01*
X8836729Y-15582960D02*
X8855777Y-15592484D01*
X8855777Y-15592484D02*
X8893872Y-15592484D01*
X8893872Y-15592484D02*
X8912920Y-15582960D01*
X8912920Y-15582960D02*
X8922444Y-15573436D01*
X8922444Y-15573436D02*
X8931968Y-15554388D01*
X8931968Y-15554388D02*
X8931968Y-15506769D01*
X8931968Y-15506769D02*
X8922444Y-15487722D01*
X8922444Y-15487722D02*
X8912920Y-15478198D01*
X8912920Y-15478198D02*
X8893872Y-15468674D01*
X8893872Y-15468674D02*
X8855777Y-15468674D01*
X8855777Y-15468674D02*
X8836729Y-15478198D01*
X8836729Y-15478198D02*
X8827206Y-15487722D01*
X8827206Y-15487722D02*
X8817682Y-15506769D01*
X9027206Y-15592484D02*
X9065301Y-15592484D01*
X9065301Y-15592484D02*
X9084349Y-15582960D01*
X9084349Y-15582960D02*
X9093872Y-15573436D01*
X9093872Y-15573436D02*
X9112920Y-15544865D01*
X9112920Y-15544865D02*
X9122444Y-15506769D01*
X9122444Y-15506769D02*
X9122444Y-15430579D01*
X9122444Y-15430579D02*
X9112920Y-15411531D01*
X9112920Y-15411531D02*
X9103396Y-15402008D01*
X9103396Y-15402008D02*
X9084349Y-15392484D01*
X9084349Y-15392484D02*
X9046253Y-15392484D01*
X9046253Y-15392484D02*
X9027206Y-15402008D01*
X9027206Y-15402008D02*
X9017682Y-15411531D01*
X9017682Y-15411531D02*
X9008158Y-15430579D01*
X9008158Y-15430579D02*
X9008158Y-15478198D01*
X9008158Y-15478198D02*
X9017682Y-15497246D01*
X9017682Y-15497246D02*
X9027206Y-15506769D01*
X9027206Y-15506769D02*
X9046253Y-15516293D01*
X9046253Y-15516293D02*
X9084349Y-15516293D01*
X9084349Y-15516293D02*
X9103396Y-15506769D01*
X9103396Y-15506769D02*
X9112920Y-15497246D01*
X9112920Y-15497246D02*
X9122444Y-15478198D01*
X9198634Y-15392484D02*
X9198634Y-15430579D01*
X9274825Y-15392484D02*
X9274825Y-15430579D01*
X9570063Y-15668674D02*
X9560539Y-15659150D01*
X9560539Y-15659150D02*
X9541491Y-15630579D01*
X9541491Y-15630579D02*
X9531968Y-15611531D01*
X9531968Y-15611531D02*
X9522444Y-15582960D01*
X9522444Y-15582960D02*
X9512920Y-15535341D01*
X9512920Y-15535341D02*
X9512920Y-15497246D01*
X9512920Y-15497246D02*
X9522444Y-15449627D01*
X9522444Y-15449627D02*
X9531968Y-15421055D01*
X9531968Y-15421055D02*
X9541491Y-15402008D01*
X9541491Y-15402008D02*
X9560539Y-15373436D01*
X9560539Y-15373436D02*
X9570063Y-15363912D01*
X9751015Y-15592484D02*
X9636730Y-15592484D01*
X9693872Y-15592484D02*
X9693872Y-15392484D01*
X9693872Y-15392484D02*
X9674825Y-15421055D01*
X9674825Y-15421055D02*
X9655777Y-15440103D01*
X9655777Y-15440103D02*
X9636730Y-15449627D01*
X9931968Y-15392484D02*
X9836730Y-15392484D01*
X9836730Y-15392484D02*
X9827206Y-15487722D01*
X9827206Y-15487722D02*
X9836730Y-15478198D01*
X9836730Y-15478198D02*
X9855777Y-15468674D01*
X9855777Y-15468674D02*
X9903396Y-15468674D01*
X9903396Y-15468674D02*
X9922444Y-15478198D01*
X9922444Y-15478198D02*
X9931968Y-15487722D01*
X9931968Y-15487722D02*
X9941491Y-15506769D01*
X9941491Y-15506769D02*
X9941491Y-15554388D01*
X9941491Y-15554388D02*
X9931968Y-15573436D01*
X9931968Y-15573436D02*
X9922444Y-15582960D01*
X9922444Y-15582960D02*
X9903396Y-15592484D01*
X9903396Y-15592484D02*
X9855777Y-15592484D01*
X9855777Y-15592484D02*
X9836730Y-15582960D01*
X9836730Y-15582960D02*
X9827206Y-15573436D01*
X10179587Y-15592484D02*
X10179587Y-15392484D01*
X10265301Y-15592484D02*
X10265301Y-15487722D01*
X10265301Y-15487722D02*
X10255777Y-15468674D01*
X10255777Y-15468674D02*
X10236730Y-15459150D01*
X10236730Y-15459150D02*
X10208158Y-15459150D01*
X10208158Y-15459150D02*
X10189111Y-15468674D01*
X10189111Y-15468674D02*
X10179587Y-15478198D01*
X10389111Y-15592484D02*
X10370063Y-15582960D01*
X10370063Y-15582960D02*
X10360539Y-15573436D01*
X10360539Y-15573436D02*
X10351015Y-15554388D01*
X10351015Y-15554388D02*
X10351015Y-15497246D01*
X10351015Y-15497246D02*
X10360539Y-15478198D01*
X10360539Y-15478198D02*
X10370063Y-15468674D01*
X10370063Y-15468674D02*
X10389111Y-15459150D01*
X10389111Y-15459150D02*
X10417682Y-15459150D01*
X10417682Y-15459150D02*
X10436730Y-15468674D01*
X10436730Y-15468674D02*
X10446253Y-15478198D01*
X10446253Y-15478198D02*
X10455777Y-15497246D01*
X10455777Y-15497246D02*
X10455777Y-15554388D01*
X10455777Y-15554388D02*
X10446253Y-15573436D01*
X10446253Y-15573436D02*
X10436730Y-15582960D01*
X10436730Y-15582960D02*
X10417682Y-15592484D01*
X10417682Y-15592484D02*
X10389111Y-15592484D01*
X10570063Y-15592484D02*
X10551015Y-15582960D01*
X10551015Y-15582960D02*
X10541492Y-15563912D01*
X10541492Y-15563912D02*
X10541492Y-15392484D01*
X10722444Y-15582960D02*
X10703396Y-15592484D01*
X10703396Y-15592484D02*
X10665301Y-15592484D01*
X10665301Y-15592484D02*
X10646253Y-15582960D01*
X10646253Y-15582960D02*
X10636730Y-15563912D01*
X10636730Y-15563912D02*
X10636730Y-15487722D01*
X10636730Y-15487722D02*
X10646253Y-15468674D01*
X10646253Y-15468674D02*
X10665301Y-15459150D01*
X10665301Y-15459150D02*
X10703396Y-15459150D01*
X10703396Y-15459150D02*
X10722444Y-15468674D01*
X10722444Y-15468674D02*
X10731968Y-15487722D01*
X10731968Y-15487722D02*
X10731968Y-15506769D01*
X10731968Y-15506769D02*
X10636730Y-15525817D01*
X10808158Y-15582960D02*
X10827206Y-15592484D01*
X10827206Y-15592484D02*
X10865301Y-15592484D01*
X10865301Y-15592484D02*
X10884349Y-15582960D01*
X10884349Y-15582960D02*
X10893873Y-15563912D01*
X10893873Y-15563912D02*
X10893873Y-15554388D01*
X10893873Y-15554388D02*
X10884349Y-15535341D01*
X10884349Y-15535341D02*
X10865301Y-15525817D01*
X10865301Y-15525817D02*
X10836730Y-15525817D01*
X10836730Y-15525817D02*
X10817682Y-15516293D01*
X10817682Y-15516293D02*
X10808158Y-15497246D01*
X10808158Y-15497246D02*
X10808158Y-15487722D01*
X10808158Y-15487722D02*
X10817682Y-15468674D01*
X10817682Y-15468674D02*
X10836730Y-15459150D01*
X10836730Y-15459150D02*
X10865301Y-15459150D01*
X10865301Y-15459150D02*
X10884349Y-15468674D01*
X10960539Y-15668674D02*
X10970063Y-15659150D01*
X10970063Y-15659150D02*
X10989111Y-15630579D01*
X10989111Y-15630579D02*
X10998634Y-15611531D01*
X10998634Y-15611531D02*
X11008158Y-15582960D01*
X11008158Y-15582960D02*
X11017682Y-15535341D01*
X11017682Y-15535341D02*
X11017682Y-15497246D01*
X11017682Y-15497246D02*
X11008158Y-15449627D01*
X11008158Y-15449627D02*
X10998634Y-15421055D01*
X10998634Y-15421055D02*
X10989111Y-15402008D01*
X10989111Y-15402008D02*
X10970063Y-15373436D01*
X10970063Y-15373436D02*
X10960539Y-15363912D01*
X5795000Y-15665000D02*
X5995000Y-15865000D01*
X5995000Y-15665000D02*
X5795000Y-15865000D01*
X5995000Y-15765000D02*
G75*
G02*
X5795000Y-15765000I-100000J0D01*
G01*
X5795000Y-15765000D02*
G75*
G02*
X5995000Y-15765000I100000J0D01*
G01*
X6246253Y-15675531D02*
X6255777Y-15666008D01*
X6255777Y-15666008D02*
X6274824Y-15656484D01*
X6274824Y-15656484D02*
X6322443Y-15656484D01*
X6322443Y-15656484D02*
X6341491Y-15666008D01*
X6341491Y-15666008D02*
X6351015Y-15675531D01*
X6351015Y-15675531D02*
X6360539Y-15694579D01*
X6360539Y-15694579D02*
X6360539Y-15713627D01*
X6360539Y-15713627D02*
X6351015Y-15742198D01*
X6351015Y-15742198D02*
X6236729Y-15856484D01*
X6236729Y-15856484D02*
X6360539Y-15856484D01*
X6446253Y-15837436D02*
X6455777Y-15846960D01*
X6455777Y-15846960D02*
X6446253Y-15856484D01*
X6446253Y-15856484D02*
X6436729Y-15846960D01*
X6436729Y-15846960D02*
X6446253Y-15837436D01*
X6446253Y-15837436D02*
X6446253Y-15856484D01*
X6522443Y-15656484D02*
X6646253Y-15656484D01*
X6646253Y-15656484D02*
X6579586Y-15732674D01*
X6579586Y-15732674D02*
X6608158Y-15732674D01*
X6608158Y-15732674D02*
X6627205Y-15742198D01*
X6627205Y-15742198D02*
X6636729Y-15751722D01*
X6636729Y-15751722D02*
X6646253Y-15770769D01*
X6646253Y-15770769D02*
X6646253Y-15818388D01*
X6646253Y-15818388D02*
X6636729Y-15837436D01*
X6636729Y-15837436D02*
X6627205Y-15846960D01*
X6627205Y-15846960D02*
X6608158Y-15856484D01*
X6608158Y-15856484D02*
X6551015Y-15856484D01*
X6551015Y-15856484D02*
X6531967Y-15846960D01*
X6531967Y-15846960D02*
X6522443Y-15837436D01*
X6770062Y-15656484D02*
X6789110Y-15656484D01*
X6789110Y-15656484D02*
X6808158Y-15666008D01*
X6808158Y-15666008D02*
X6817682Y-15675531D01*
X6817682Y-15675531D02*
X6827205Y-15694579D01*
X6827205Y-15694579D02*
X6836729Y-15732674D01*
X6836729Y-15732674D02*
X6836729Y-15780293D01*
X6836729Y-15780293D02*
X6827205Y-15818388D01*
X6827205Y-15818388D02*
X6817682Y-15837436D01*
X6817682Y-15837436D02*
X6808158Y-15846960D01*
X6808158Y-15846960D02*
X6789110Y-15856484D01*
X6789110Y-15856484D02*
X6770062Y-15856484D01*
X6770062Y-15856484D02*
X6751015Y-15846960D01*
X6751015Y-15846960D02*
X6741491Y-15837436D01*
X6741491Y-15837436D02*
X6731967Y-15818388D01*
X6731967Y-15818388D02*
X6722443Y-15780293D01*
X6722443Y-15780293D02*
X6722443Y-15732674D01*
X6722443Y-15732674D02*
X6731967Y-15694579D01*
X6731967Y-15694579D02*
X6741491Y-15675531D01*
X6741491Y-15675531D02*
X6751015Y-15666008D01*
X6751015Y-15666008D02*
X6770062Y-15656484D01*
X6960539Y-15656484D02*
X6979586Y-15656484D01*
X6979586Y-15656484D02*
X6998634Y-15666008D01*
X6998634Y-15666008D02*
X7008158Y-15675531D01*
X7008158Y-15675531D02*
X7017682Y-15694579D01*
X7017682Y-15694579D02*
X7027205Y-15732674D01*
X7027205Y-15732674D02*
X7027205Y-15780293D01*
X7027205Y-15780293D02*
X7017682Y-15818388D01*
X7017682Y-15818388D02*
X7008158Y-15837436D01*
X7008158Y-15837436D02*
X6998634Y-15846960D01*
X6998634Y-15846960D02*
X6979586Y-15856484D01*
X6979586Y-15856484D02*
X6960539Y-15856484D01*
X6960539Y-15856484D02*
X6941491Y-15846960D01*
X6941491Y-15846960D02*
X6931967Y-15837436D01*
X6931967Y-15837436D02*
X6922443Y-15818388D01*
X6922443Y-15818388D02*
X6912920Y-15780293D01*
X6912920Y-15780293D02*
X6912920Y-15732674D01*
X6912920Y-15732674D02*
X6922443Y-15694579D01*
X6922443Y-15694579D02*
X6931967Y-15675531D01*
X6931967Y-15675531D02*
X6941491Y-15666008D01*
X6941491Y-15666008D02*
X6960539Y-15656484D01*
X7112920Y-15856484D02*
X7112920Y-15723150D01*
X7112920Y-15742198D02*
X7122443Y-15732674D01*
X7122443Y-15732674D02*
X7141491Y-15723150D01*
X7141491Y-15723150D02*
X7170063Y-15723150D01*
X7170063Y-15723150D02*
X7189110Y-15732674D01*
X7189110Y-15732674D02*
X7198634Y-15751722D01*
X7198634Y-15751722D02*
X7198634Y-15856484D01*
X7198634Y-15751722D02*
X7208158Y-15732674D01*
X7208158Y-15732674D02*
X7227205Y-15723150D01*
X7227205Y-15723150D02*
X7255777Y-15723150D01*
X7255777Y-15723150D02*
X7274824Y-15732674D01*
X7274824Y-15732674D02*
X7284348Y-15751722D01*
X7284348Y-15751722D02*
X7284348Y-15856484D01*
X7379586Y-15856484D02*
X7379586Y-15723150D01*
X7379586Y-15742198D02*
X7389110Y-15732674D01*
X7389110Y-15732674D02*
X7408158Y-15723150D01*
X7408158Y-15723150D02*
X7436729Y-15723150D01*
X7436729Y-15723150D02*
X7455777Y-15732674D01*
X7455777Y-15732674D02*
X7465301Y-15751722D01*
X7465301Y-15751722D02*
X7465301Y-15856484D01*
X7465301Y-15751722D02*
X7474824Y-15732674D01*
X7474824Y-15732674D02*
X7493872Y-15723150D01*
X7493872Y-15723150D02*
X7522443Y-15723150D01*
X7522443Y-15723150D02*
X7541491Y-15732674D01*
X7541491Y-15732674D02*
X7551015Y-15751722D01*
X7551015Y-15751722D02*
X7551015Y-15856484D01*
X7941491Y-15646960D02*
X7770063Y-15904103D01*
X8198634Y-15656484D02*
X8217682Y-15656484D01*
X8217682Y-15656484D02*
X8236729Y-15666008D01*
X8236729Y-15666008D02*
X8246253Y-15675531D01*
X8246253Y-15675531D02*
X8255777Y-15694579D01*
X8255777Y-15694579D02*
X8265301Y-15732674D01*
X8265301Y-15732674D02*
X8265301Y-15780293D01*
X8265301Y-15780293D02*
X8255777Y-15818388D01*
X8255777Y-15818388D02*
X8246253Y-15837436D01*
X8246253Y-15837436D02*
X8236729Y-15846960D01*
X8236729Y-15846960D02*
X8217682Y-15856484D01*
X8217682Y-15856484D02*
X8198634Y-15856484D01*
X8198634Y-15856484D02*
X8179586Y-15846960D01*
X8179586Y-15846960D02*
X8170063Y-15837436D01*
X8170063Y-15837436D02*
X8160539Y-15818388D01*
X8160539Y-15818388D02*
X8151015Y-15780293D01*
X8151015Y-15780293D02*
X8151015Y-15732674D01*
X8151015Y-15732674D02*
X8160539Y-15694579D01*
X8160539Y-15694579D02*
X8170063Y-15675531D01*
X8170063Y-15675531D02*
X8179586Y-15666008D01*
X8179586Y-15666008D02*
X8198634Y-15656484D01*
X8351015Y-15837436D02*
X8360539Y-15846960D01*
X8360539Y-15846960D02*
X8351015Y-15856484D01*
X8351015Y-15856484D02*
X8341491Y-15846960D01*
X8341491Y-15846960D02*
X8351015Y-15837436D01*
X8351015Y-15837436D02*
X8351015Y-15856484D01*
X8484348Y-15656484D02*
X8503396Y-15656484D01*
X8503396Y-15656484D02*
X8522444Y-15666008D01*
X8522444Y-15666008D02*
X8531968Y-15675531D01*
X8531968Y-15675531D02*
X8541491Y-15694579D01*
X8541491Y-15694579D02*
X8551015Y-15732674D01*
X8551015Y-15732674D02*
X8551015Y-15780293D01*
X8551015Y-15780293D02*
X8541491Y-15818388D01*
X8541491Y-15818388D02*
X8531968Y-15837436D01*
X8531968Y-15837436D02*
X8522444Y-15846960D01*
X8522444Y-15846960D02*
X8503396Y-15856484D01*
X8503396Y-15856484D02*
X8484348Y-15856484D01*
X8484348Y-15856484D02*
X8465301Y-15846960D01*
X8465301Y-15846960D02*
X8455777Y-15837436D01*
X8455777Y-15837436D02*
X8446253Y-15818388D01*
X8446253Y-15818388D02*
X8436729Y-15780293D01*
X8436729Y-15780293D02*
X8436729Y-15732674D01*
X8436729Y-15732674D02*
X8446253Y-15694579D01*
X8446253Y-15694579D02*
X8455777Y-15675531D01*
X8455777Y-15675531D02*
X8465301Y-15666008D01*
X8465301Y-15666008D02*
X8484348Y-15656484D01*
X8646253Y-15856484D02*
X8684348Y-15856484D01*
X8684348Y-15856484D02*
X8703396Y-15846960D01*
X8703396Y-15846960D02*
X8712920Y-15837436D01*
X8712920Y-15837436D02*
X8731968Y-15808865D01*
X8731968Y-15808865D02*
X8741491Y-15770769D01*
X8741491Y-15770769D02*
X8741491Y-15694579D01*
X8741491Y-15694579D02*
X8731968Y-15675531D01*
X8731968Y-15675531D02*
X8722444Y-15666008D01*
X8722444Y-15666008D02*
X8703396Y-15656484D01*
X8703396Y-15656484D02*
X8665301Y-15656484D01*
X8665301Y-15656484D02*
X8646253Y-15666008D01*
X8646253Y-15666008D02*
X8636729Y-15675531D01*
X8636729Y-15675531D02*
X8627206Y-15694579D01*
X8627206Y-15694579D02*
X8627206Y-15742198D01*
X8627206Y-15742198D02*
X8636729Y-15761246D01*
X8636729Y-15761246D02*
X8646253Y-15770769D01*
X8646253Y-15770769D02*
X8665301Y-15780293D01*
X8665301Y-15780293D02*
X8703396Y-15780293D01*
X8703396Y-15780293D02*
X8722444Y-15770769D01*
X8722444Y-15770769D02*
X8731968Y-15761246D01*
X8731968Y-15761246D02*
X8741491Y-15742198D01*
X8865301Y-15656484D02*
X8884349Y-15656484D01*
X8884349Y-15656484D02*
X8903396Y-15666008D01*
X8903396Y-15666008D02*
X8912920Y-15675531D01*
X8912920Y-15675531D02*
X8922444Y-15694579D01*
X8922444Y-15694579D02*
X8931968Y-15732674D01*
X8931968Y-15732674D02*
X8931968Y-15780293D01*
X8931968Y-15780293D02*
X8922444Y-15818388D01*
X8922444Y-15818388D02*
X8912920Y-15837436D01*
X8912920Y-15837436D02*
X8903396Y-15846960D01*
X8903396Y-15846960D02*
X8884349Y-15856484D01*
X8884349Y-15856484D02*
X8865301Y-15856484D01*
X8865301Y-15856484D02*
X8846253Y-15846960D01*
X8846253Y-15846960D02*
X8836729Y-15837436D01*
X8836729Y-15837436D02*
X8827206Y-15818388D01*
X8827206Y-15818388D02*
X8817682Y-15780293D01*
X8817682Y-15780293D02*
X8817682Y-15732674D01*
X8817682Y-15732674D02*
X8827206Y-15694579D01*
X8827206Y-15694579D02*
X8836729Y-15675531D01*
X8836729Y-15675531D02*
X8846253Y-15666008D01*
X8846253Y-15666008D02*
X8865301Y-15656484D01*
X9103396Y-15656484D02*
X9065301Y-15656484D01*
X9065301Y-15656484D02*
X9046253Y-15666008D01*
X9046253Y-15666008D02*
X9036729Y-15675531D01*
X9036729Y-15675531D02*
X9017682Y-15704103D01*
X9017682Y-15704103D02*
X9008158Y-15742198D01*
X9008158Y-15742198D02*
X9008158Y-15818388D01*
X9008158Y-15818388D02*
X9017682Y-15837436D01*
X9017682Y-15837436D02*
X9027206Y-15846960D01*
X9027206Y-15846960D02*
X9046253Y-15856484D01*
X9046253Y-15856484D02*
X9084349Y-15856484D01*
X9084349Y-15856484D02*
X9103396Y-15846960D01*
X9103396Y-15846960D02*
X9112920Y-15837436D01*
X9112920Y-15837436D02*
X9122444Y-15818388D01*
X9122444Y-15818388D02*
X9122444Y-15770769D01*
X9122444Y-15770769D02*
X9112920Y-15751722D01*
X9112920Y-15751722D02*
X9103396Y-15742198D01*
X9103396Y-15742198D02*
X9084349Y-15732674D01*
X9084349Y-15732674D02*
X9046253Y-15732674D01*
X9046253Y-15732674D02*
X9027206Y-15742198D01*
X9027206Y-15742198D02*
X9017682Y-15751722D01*
X9017682Y-15751722D02*
X9008158Y-15770769D01*
X9198634Y-15656484D02*
X9198634Y-15694579D01*
X9274825Y-15656484D02*
X9274825Y-15694579D01*
X9570063Y-15932674D02*
X9560539Y-15923150D01*
X9560539Y-15923150D02*
X9541491Y-15894579D01*
X9541491Y-15894579D02*
X9531968Y-15875531D01*
X9531968Y-15875531D02*
X9522444Y-15846960D01*
X9522444Y-15846960D02*
X9512920Y-15799341D01*
X9512920Y-15799341D02*
X9512920Y-15761246D01*
X9512920Y-15761246D02*
X9522444Y-15713627D01*
X9522444Y-15713627D02*
X9531968Y-15685055D01*
X9531968Y-15685055D02*
X9541491Y-15666008D01*
X9541491Y-15666008D02*
X9560539Y-15637436D01*
X9560539Y-15637436D02*
X9570063Y-15627912D01*
X9636730Y-15675531D02*
X9646253Y-15666008D01*
X9646253Y-15666008D02*
X9665301Y-15656484D01*
X9665301Y-15656484D02*
X9712920Y-15656484D01*
X9712920Y-15656484D02*
X9731968Y-15666008D01*
X9731968Y-15666008D02*
X9741491Y-15675531D01*
X9741491Y-15675531D02*
X9751015Y-15694579D01*
X9751015Y-15694579D02*
X9751015Y-15713627D01*
X9751015Y-15713627D02*
X9741491Y-15742198D01*
X9741491Y-15742198D02*
X9627206Y-15856484D01*
X9627206Y-15856484D02*
X9751015Y-15856484D01*
X9989111Y-15856484D02*
X9989111Y-15656484D01*
X10074825Y-15856484D02*
X10074825Y-15751722D01*
X10074825Y-15751722D02*
X10065301Y-15732674D01*
X10065301Y-15732674D02*
X10046253Y-15723150D01*
X10046253Y-15723150D02*
X10017682Y-15723150D01*
X10017682Y-15723150D02*
X9998634Y-15732674D01*
X9998634Y-15732674D02*
X9989111Y-15742198D01*
X10198634Y-15856484D02*
X10179587Y-15846960D01*
X10179587Y-15846960D02*
X10170063Y-15837436D01*
X10170063Y-15837436D02*
X10160539Y-15818388D01*
X10160539Y-15818388D02*
X10160539Y-15761246D01*
X10160539Y-15761246D02*
X10170063Y-15742198D01*
X10170063Y-15742198D02*
X10179587Y-15732674D01*
X10179587Y-15732674D02*
X10198634Y-15723150D01*
X10198634Y-15723150D02*
X10227206Y-15723150D01*
X10227206Y-15723150D02*
X10246253Y-15732674D01*
X10246253Y-15732674D02*
X10255777Y-15742198D01*
X10255777Y-15742198D02*
X10265301Y-15761246D01*
X10265301Y-15761246D02*
X10265301Y-15818388D01*
X10265301Y-15818388D02*
X10255777Y-15837436D01*
X10255777Y-15837436D02*
X10246253Y-15846960D01*
X10246253Y-15846960D02*
X10227206Y-15856484D01*
X10227206Y-15856484D02*
X10198634Y-15856484D01*
X10379587Y-15856484D02*
X10360539Y-15846960D01*
X10360539Y-15846960D02*
X10351015Y-15827912D01*
X10351015Y-15827912D02*
X10351015Y-15656484D01*
X10531968Y-15846960D02*
X10512920Y-15856484D01*
X10512920Y-15856484D02*
X10474825Y-15856484D01*
X10474825Y-15856484D02*
X10455777Y-15846960D01*
X10455777Y-15846960D02*
X10446253Y-15827912D01*
X10446253Y-15827912D02*
X10446253Y-15751722D01*
X10446253Y-15751722D02*
X10455777Y-15732674D01*
X10455777Y-15732674D02*
X10474825Y-15723150D01*
X10474825Y-15723150D02*
X10512920Y-15723150D01*
X10512920Y-15723150D02*
X10531968Y-15732674D01*
X10531968Y-15732674D02*
X10541492Y-15751722D01*
X10541492Y-15751722D02*
X10541492Y-15770769D01*
X10541492Y-15770769D02*
X10446253Y-15789817D01*
X10617682Y-15846960D02*
X10636730Y-15856484D01*
X10636730Y-15856484D02*
X10674825Y-15856484D01*
X10674825Y-15856484D02*
X10693873Y-15846960D01*
X10693873Y-15846960D02*
X10703396Y-15827912D01*
X10703396Y-15827912D02*
X10703396Y-15818388D01*
X10703396Y-15818388D02*
X10693873Y-15799341D01*
X10693873Y-15799341D02*
X10674825Y-15789817D01*
X10674825Y-15789817D02*
X10646253Y-15789817D01*
X10646253Y-15789817D02*
X10627206Y-15780293D01*
X10627206Y-15780293D02*
X10617682Y-15761246D01*
X10617682Y-15761246D02*
X10617682Y-15751722D01*
X10617682Y-15751722D02*
X10627206Y-15732674D01*
X10627206Y-15732674D02*
X10646253Y-15723150D01*
X10646253Y-15723150D02*
X10674825Y-15723150D01*
X10674825Y-15723150D02*
X10693873Y-15732674D01*
X10770063Y-15932674D02*
X10779587Y-15923150D01*
X10779587Y-15923150D02*
X10798634Y-15894579D01*
X10798634Y-15894579D02*
X10808158Y-15875531D01*
X10808158Y-15875531D02*
X10817682Y-15846960D01*
X10817682Y-15846960D02*
X10827206Y-15799341D01*
X10827206Y-15799341D02*
X10827206Y-15761246D01*
X10827206Y-15761246D02*
X10817682Y-15713627D01*
X10817682Y-15713627D02*
X10808158Y-15685055D01*
X10808158Y-15685055D02*
X10798634Y-15666008D01*
X10798634Y-15666008D02*
X10779587Y-15637436D01*
X10779587Y-15637436D02*
X10770063Y-15627912D01*
X5795000Y-15985000D02*
X5995000Y-16185000D01*
X5995000Y-15985000D02*
X5795000Y-16185000D01*
X5895000Y-15985000D02*
X5895000Y-16185000D01*
X5795000Y-16085000D02*
X5995000Y-16085000D01*
X6236729Y-15976484D02*
X6360539Y-15976484D01*
X6360539Y-15976484D02*
X6293872Y-16052674D01*
X6293872Y-16052674D02*
X6322443Y-16052674D01*
X6322443Y-16052674D02*
X6341491Y-16062198D01*
X6341491Y-16062198D02*
X6351015Y-16071722D01*
X6351015Y-16071722D02*
X6360539Y-16090769D01*
X6360539Y-16090769D02*
X6360539Y-16138388D01*
X6360539Y-16138388D02*
X6351015Y-16157436D01*
X6351015Y-16157436D02*
X6341491Y-16166960D01*
X6341491Y-16166960D02*
X6322443Y-16176484D01*
X6322443Y-16176484D02*
X6265301Y-16176484D01*
X6265301Y-16176484D02*
X6246253Y-16166960D01*
X6246253Y-16166960D02*
X6236729Y-16157436D01*
X6446253Y-16157436D02*
X6455777Y-16166960D01*
X6455777Y-16166960D02*
X6446253Y-16176484D01*
X6446253Y-16176484D02*
X6436729Y-16166960D01*
X6436729Y-16166960D02*
X6446253Y-16157436D01*
X6446253Y-16157436D02*
X6446253Y-16176484D01*
X6646253Y-16176484D02*
X6531967Y-16176484D01*
X6589110Y-16176484D02*
X6589110Y-15976484D01*
X6589110Y-15976484D02*
X6570062Y-16005055D01*
X6570062Y-16005055D02*
X6551015Y-16024103D01*
X6551015Y-16024103D02*
X6531967Y-16033627D01*
X6760539Y-16062198D02*
X6741491Y-16052674D01*
X6741491Y-16052674D02*
X6731967Y-16043150D01*
X6731967Y-16043150D02*
X6722443Y-16024103D01*
X6722443Y-16024103D02*
X6722443Y-16014579D01*
X6722443Y-16014579D02*
X6731967Y-15995531D01*
X6731967Y-15995531D02*
X6741491Y-15986008D01*
X6741491Y-15986008D02*
X6760539Y-15976484D01*
X6760539Y-15976484D02*
X6798634Y-15976484D01*
X6798634Y-15976484D02*
X6817682Y-15986008D01*
X6817682Y-15986008D02*
X6827205Y-15995531D01*
X6827205Y-15995531D02*
X6836729Y-16014579D01*
X6836729Y-16014579D02*
X6836729Y-16024103D01*
X6836729Y-16024103D02*
X6827205Y-16043150D01*
X6827205Y-16043150D02*
X6817682Y-16052674D01*
X6817682Y-16052674D02*
X6798634Y-16062198D01*
X6798634Y-16062198D02*
X6760539Y-16062198D01*
X6760539Y-16062198D02*
X6741491Y-16071722D01*
X6741491Y-16071722D02*
X6731967Y-16081246D01*
X6731967Y-16081246D02*
X6722443Y-16100293D01*
X6722443Y-16100293D02*
X6722443Y-16138388D01*
X6722443Y-16138388D02*
X6731967Y-16157436D01*
X6731967Y-16157436D02*
X6741491Y-16166960D01*
X6741491Y-16166960D02*
X6760539Y-16176484D01*
X6760539Y-16176484D02*
X6798634Y-16176484D01*
X6798634Y-16176484D02*
X6817682Y-16166960D01*
X6817682Y-16166960D02*
X6827205Y-16157436D01*
X6827205Y-16157436D02*
X6836729Y-16138388D01*
X6836729Y-16138388D02*
X6836729Y-16100293D01*
X6836729Y-16100293D02*
X6827205Y-16081246D01*
X6827205Y-16081246D02*
X6817682Y-16071722D01*
X6817682Y-16071722D02*
X6798634Y-16062198D01*
X6960539Y-15976484D02*
X6979586Y-15976484D01*
X6979586Y-15976484D02*
X6998634Y-15986008D01*
X6998634Y-15986008D02*
X7008158Y-15995531D01*
X7008158Y-15995531D02*
X7017682Y-16014579D01*
X7017682Y-16014579D02*
X7027205Y-16052674D01*
X7027205Y-16052674D02*
X7027205Y-16100293D01*
X7027205Y-16100293D02*
X7017682Y-16138388D01*
X7017682Y-16138388D02*
X7008158Y-16157436D01*
X7008158Y-16157436D02*
X6998634Y-16166960D01*
X6998634Y-16166960D02*
X6979586Y-16176484D01*
X6979586Y-16176484D02*
X6960539Y-16176484D01*
X6960539Y-16176484D02*
X6941491Y-16166960D01*
X6941491Y-16166960D02*
X6931967Y-16157436D01*
X6931967Y-16157436D02*
X6922443Y-16138388D01*
X6922443Y-16138388D02*
X6912920Y-16100293D01*
X6912920Y-16100293D02*
X6912920Y-16052674D01*
X6912920Y-16052674D02*
X6922443Y-16014579D01*
X6922443Y-16014579D02*
X6931967Y-15995531D01*
X6931967Y-15995531D02*
X6941491Y-15986008D01*
X6941491Y-15986008D02*
X6960539Y-15976484D01*
X7112920Y-16176484D02*
X7112920Y-16043150D01*
X7112920Y-16062198D02*
X7122443Y-16052674D01*
X7122443Y-16052674D02*
X7141491Y-16043150D01*
X7141491Y-16043150D02*
X7170063Y-16043150D01*
X7170063Y-16043150D02*
X7189110Y-16052674D01*
X7189110Y-16052674D02*
X7198634Y-16071722D01*
X7198634Y-16071722D02*
X7198634Y-16176484D01*
X7198634Y-16071722D02*
X7208158Y-16052674D01*
X7208158Y-16052674D02*
X7227205Y-16043150D01*
X7227205Y-16043150D02*
X7255777Y-16043150D01*
X7255777Y-16043150D02*
X7274824Y-16052674D01*
X7274824Y-16052674D02*
X7284348Y-16071722D01*
X7284348Y-16071722D02*
X7284348Y-16176484D01*
X7379586Y-16176484D02*
X7379586Y-16043150D01*
X7379586Y-16062198D02*
X7389110Y-16052674D01*
X7389110Y-16052674D02*
X7408158Y-16043150D01*
X7408158Y-16043150D02*
X7436729Y-16043150D01*
X7436729Y-16043150D02*
X7455777Y-16052674D01*
X7455777Y-16052674D02*
X7465301Y-16071722D01*
X7465301Y-16071722D02*
X7465301Y-16176484D01*
X7465301Y-16071722D02*
X7474824Y-16052674D01*
X7474824Y-16052674D02*
X7493872Y-16043150D01*
X7493872Y-16043150D02*
X7522443Y-16043150D01*
X7522443Y-16043150D02*
X7541491Y-16052674D01*
X7541491Y-16052674D02*
X7551015Y-16071722D01*
X7551015Y-16071722D02*
X7551015Y-16176484D01*
X7941491Y-15966960D02*
X7770063Y-16224103D01*
X8198634Y-15976484D02*
X8217682Y-15976484D01*
X8217682Y-15976484D02*
X8236729Y-15986008D01*
X8236729Y-15986008D02*
X8246253Y-15995531D01*
X8246253Y-15995531D02*
X8255777Y-16014579D01*
X8255777Y-16014579D02*
X8265301Y-16052674D01*
X8265301Y-16052674D02*
X8265301Y-16100293D01*
X8265301Y-16100293D02*
X8255777Y-16138388D01*
X8255777Y-16138388D02*
X8246253Y-16157436D01*
X8246253Y-16157436D02*
X8236729Y-16166960D01*
X8236729Y-16166960D02*
X8217682Y-16176484D01*
X8217682Y-16176484D02*
X8198634Y-16176484D01*
X8198634Y-16176484D02*
X8179586Y-16166960D01*
X8179586Y-16166960D02*
X8170063Y-16157436D01*
X8170063Y-16157436D02*
X8160539Y-16138388D01*
X8160539Y-16138388D02*
X8151015Y-16100293D01*
X8151015Y-16100293D02*
X8151015Y-16052674D01*
X8151015Y-16052674D02*
X8160539Y-16014579D01*
X8160539Y-16014579D02*
X8170063Y-15995531D01*
X8170063Y-15995531D02*
X8179586Y-15986008D01*
X8179586Y-15986008D02*
X8198634Y-15976484D01*
X8351015Y-16157436D02*
X8360539Y-16166960D01*
X8360539Y-16166960D02*
X8351015Y-16176484D01*
X8351015Y-16176484D02*
X8341491Y-16166960D01*
X8341491Y-16166960D02*
X8351015Y-16157436D01*
X8351015Y-16157436D02*
X8351015Y-16176484D01*
X8551015Y-16176484D02*
X8436729Y-16176484D01*
X8493872Y-16176484D02*
X8493872Y-15976484D01*
X8493872Y-15976484D02*
X8474825Y-16005055D01*
X8474825Y-16005055D02*
X8455777Y-16024103D01*
X8455777Y-16024103D02*
X8436729Y-16033627D01*
X8627206Y-15995531D02*
X8636729Y-15986008D01*
X8636729Y-15986008D02*
X8655777Y-15976484D01*
X8655777Y-15976484D02*
X8703396Y-15976484D01*
X8703396Y-15976484D02*
X8722444Y-15986008D01*
X8722444Y-15986008D02*
X8731968Y-15995531D01*
X8731968Y-15995531D02*
X8741491Y-16014579D01*
X8741491Y-16014579D02*
X8741491Y-16033627D01*
X8741491Y-16033627D02*
X8731968Y-16062198D01*
X8731968Y-16062198D02*
X8617682Y-16176484D01*
X8617682Y-16176484D02*
X8741491Y-16176484D01*
X8922444Y-15976484D02*
X8827206Y-15976484D01*
X8827206Y-15976484D02*
X8817682Y-16071722D01*
X8817682Y-16071722D02*
X8827206Y-16062198D01*
X8827206Y-16062198D02*
X8846253Y-16052674D01*
X8846253Y-16052674D02*
X8893872Y-16052674D01*
X8893872Y-16052674D02*
X8912920Y-16062198D01*
X8912920Y-16062198D02*
X8922444Y-16071722D01*
X8922444Y-16071722D02*
X8931968Y-16090769D01*
X8931968Y-16090769D02*
X8931968Y-16138388D01*
X8931968Y-16138388D02*
X8922444Y-16157436D01*
X8922444Y-16157436D02*
X8912920Y-16166960D01*
X8912920Y-16166960D02*
X8893872Y-16176484D01*
X8893872Y-16176484D02*
X8846253Y-16176484D01*
X8846253Y-16176484D02*
X8827206Y-16166960D01*
X8827206Y-16166960D02*
X8817682Y-16157436D01*
X9008158Y-15995531D02*
X9017682Y-15986008D01*
X9017682Y-15986008D02*
X9036729Y-15976484D01*
X9036729Y-15976484D02*
X9084349Y-15976484D01*
X9084349Y-15976484D02*
X9103396Y-15986008D01*
X9103396Y-15986008D02*
X9112920Y-15995531D01*
X9112920Y-15995531D02*
X9122444Y-16014579D01*
X9122444Y-16014579D02*
X9122444Y-16033627D01*
X9122444Y-16033627D02*
X9112920Y-16062198D01*
X9112920Y-16062198D02*
X8998634Y-16176484D01*
X8998634Y-16176484D02*
X9122444Y-16176484D01*
X9198634Y-15976484D02*
X9198634Y-16014579D01*
X9274825Y-15976484D02*
X9274825Y-16014579D01*
X9570063Y-16252674D02*
X9560539Y-16243150D01*
X9560539Y-16243150D02*
X9541491Y-16214579D01*
X9541491Y-16214579D02*
X9531968Y-16195531D01*
X9531968Y-16195531D02*
X9522444Y-16166960D01*
X9522444Y-16166960D02*
X9512920Y-16119341D01*
X9512920Y-16119341D02*
X9512920Y-16081246D01*
X9512920Y-16081246D02*
X9522444Y-16033627D01*
X9522444Y-16033627D02*
X9531968Y-16005055D01*
X9531968Y-16005055D02*
X9541491Y-15986008D01*
X9541491Y-15986008D02*
X9560539Y-15957436D01*
X9560539Y-15957436D02*
X9570063Y-15947912D01*
X9636730Y-15995531D02*
X9646253Y-15986008D01*
X9646253Y-15986008D02*
X9665301Y-15976484D01*
X9665301Y-15976484D02*
X9712920Y-15976484D01*
X9712920Y-15976484D02*
X9731968Y-15986008D01*
X9731968Y-15986008D02*
X9741491Y-15995531D01*
X9741491Y-15995531D02*
X9751015Y-16014579D01*
X9751015Y-16014579D02*
X9751015Y-16033627D01*
X9751015Y-16033627D02*
X9741491Y-16062198D01*
X9741491Y-16062198D02*
X9627206Y-16176484D01*
X9627206Y-16176484D02*
X9751015Y-16176484D01*
X9989111Y-16176484D02*
X9989111Y-15976484D01*
X10074825Y-16176484D02*
X10074825Y-16071722D01*
X10074825Y-16071722D02*
X10065301Y-16052674D01*
X10065301Y-16052674D02*
X10046253Y-16043150D01*
X10046253Y-16043150D02*
X10017682Y-16043150D01*
X10017682Y-16043150D02*
X9998634Y-16052674D01*
X9998634Y-16052674D02*
X9989111Y-16062198D01*
X10198634Y-16176484D02*
X10179587Y-16166960D01*
X10179587Y-16166960D02*
X10170063Y-16157436D01*
X10170063Y-16157436D02*
X10160539Y-16138388D01*
X10160539Y-16138388D02*
X10160539Y-16081246D01*
X10160539Y-16081246D02*
X10170063Y-16062198D01*
X10170063Y-16062198D02*
X10179587Y-16052674D01*
X10179587Y-16052674D02*
X10198634Y-16043150D01*
X10198634Y-16043150D02*
X10227206Y-16043150D01*
X10227206Y-16043150D02*
X10246253Y-16052674D01*
X10246253Y-16052674D02*
X10255777Y-16062198D01*
X10255777Y-16062198D02*
X10265301Y-16081246D01*
X10265301Y-16081246D02*
X10265301Y-16138388D01*
X10265301Y-16138388D02*
X10255777Y-16157436D01*
X10255777Y-16157436D02*
X10246253Y-16166960D01*
X10246253Y-16166960D02*
X10227206Y-16176484D01*
X10227206Y-16176484D02*
X10198634Y-16176484D01*
X10379587Y-16176484D02*
X10360539Y-16166960D01*
X10360539Y-16166960D02*
X10351015Y-16147912D01*
X10351015Y-16147912D02*
X10351015Y-15976484D01*
X10531968Y-16166960D02*
X10512920Y-16176484D01*
X10512920Y-16176484D02*
X10474825Y-16176484D01*
X10474825Y-16176484D02*
X10455777Y-16166960D01*
X10455777Y-16166960D02*
X10446253Y-16147912D01*
X10446253Y-16147912D02*
X10446253Y-16071722D01*
X10446253Y-16071722D02*
X10455777Y-16052674D01*
X10455777Y-16052674D02*
X10474825Y-16043150D01*
X10474825Y-16043150D02*
X10512920Y-16043150D01*
X10512920Y-16043150D02*
X10531968Y-16052674D01*
X10531968Y-16052674D02*
X10541492Y-16071722D01*
X10541492Y-16071722D02*
X10541492Y-16090769D01*
X10541492Y-16090769D02*
X10446253Y-16109817D01*
X10617682Y-16166960D02*
X10636730Y-16176484D01*
X10636730Y-16176484D02*
X10674825Y-16176484D01*
X10674825Y-16176484D02*
X10693873Y-16166960D01*
X10693873Y-16166960D02*
X10703396Y-16147912D01*
X10703396Y-16147912D02*
X10703396Y-16138388D01*
X10703396Y-16138388D02*
X10693873Y-16119341D01*
X10693873Y-16119341D02*
X10674825Y-16109817D01*
X10674825Y-16109817D02*
X10646253Y-16109817D01*
X10646253Y-16109817D02*
X10627206Y-16100293D01*
X10627206Y-16100293D02*
X10617682Y-16081246D01*
X10617682Y-16081246D02*
X10617682Y-16071722D01*
X10617682Y-16071722D02*
X10627206Y-16052674D01*
X10627206Y-16052674D02*
X10646253Y-16043150D01*
X10646253Y-16043150D02*
X10674825Y-16043150D01*
X10674825Y-16043150D02*
X10693873Y-16052674D01*
X10770063Y-16252674D02*
X10779587Y-16243150D01*
X10779587Y-16243150D02*
X10798634Y-16214579D01*
X10798634Y-16214579D02*
X10808158Y-16195531D01*
X10808158Y-16195531D02*
X10817682Y-16166960D01*
X10817682Y-16166960D02*
X10827206Y-16119341D01*
X10827206Y-16119341D02*
X10827206Y-16081246D01*
X10827206Y-16081246D02*
X10817682Y-16033627D01*
X10817682Y-16033627D02*
X10808158Y-16005055D01*
X10808158Y-16005055D02*
X10798634Y-15986008D01*
X10798634Y-15986008D02*
X10779587Y-15957436D01*
X10779587Y-15957436D02*
X10770063Y-15947912D01*
X5795000Y-16305000D02*
X5995000Y-16505000D01*
X5995000Y-16305000D02*
X5795000Y-16505000D01*
X5965711Y-16475711D02*
X5965711Y-16334289D01*
X5824289Y-16334289D01*
X5824289Y-16475711D01*
X5965711Y-16475711D01*
X6236729Y-16296484D02*
X6360539Y-16296484D01*
X6360539Y-16296484D02*
X6293872Y-16372674D01*
X6293872Y-16372674D02*
X6322443Y-16372674D01*
X6322443Y-16372674D02*
X6341491Y-16382198D01*
X6341491Y-16382198D02*
X6351015Y-16391722D01*
X6351015Y-16391722D02*
X6360539Y-16410769D01*
X6360539Y-16410769D02*
X6360539Y-16458388D01*
X6360539Y-16458388D02*
X6351015Y-16477436D01*
X6351015Y-16477436D02*
X6341491Y-16486960D01*
X6341491Y-16486960D02*
X6322443Y-16496484D01*
X6322443Y-16496484D02*
X6265301Y-16496484D01*
X6265301Y-16496484D02*
X6246253Y-16486960D01*
X6246253Y-16486960D02*
X6236729Y-16477436D01*
X6446253Y-16477436D02*
X6455777Y-16486960D01*
X6455777Y-16486960D02*
X6446253Y-16496484D01*
X6446253Y-16496484D02*
X6436729Y-16486960D01*
X6436729Y-16486960D02*
X6446253Y-16477436D01*
X6446253Y-16477436D02*
X6446253Y-16496484D01*
X6531967Y-16315531D02*
X6541491Y-16306008D01*
X6541491Y-16306008D02*
X6560539Y-16296484D01*
X6560539Y-16296484D02*
X6608158Y-16296484D01*
X6608158Y-16296484D02*
X6627205Y-16306008D01*
X6627205Y-16306008D02*
X6636729Y-16315531D01*
X6636729Y-16315531D02*
X6646253Y-16334579D01*
X6646253Y-16334579D02*
X6646253Y-16353627D01*
X6646253Y-16353627D02*
X6636729Y-16382198D01*
X6636729Y-16382198D02*
X6522443Y-16496484D01*
X6522443Y-16496484D02*
X6646253Y-16496484D01*
X6770062Y-16296484D02*
X6789110Y-16296484D01*
X6789110Y-16296484D02*
X6808158Y-16306008D01*
X6808158Y-16306008D02*
X6817682Y-16315531D01*
X6817682Y-16315531D02*
X6827205Y-16334579D01*
X6827205Y-16334579D02*
X6836729Y-16372674D01*
X6836729Y-16372674D02*
X6836729Y-16420293D01*
X6836729Y-16420293D02*
X6827205Y-16458388D01*
X6827205Y-16458388D02*
X6817682Y-16477436D01*
X6817682Y-16477436D02*
X6808158Y-16486960D01*
X6808158Y-16486960D02*
X6789110Y-16496484D01*
X6789110Y-16496484D02*
X6770062Y-16496484D01*
X6770062Y-16496484D02*
X6751015Y-16486960D01*
X6751015Y-16486960D02*
X6741491Y-16477436D01*
X6741491Y-16477436D02*
X6731967Y-16458388D01*
X6731967Y-16458388D02*
X6722443Y-16420293D01*
X6722443Y-16420293D02*
X6722443Y-16372674D01*
X6722443Y-16372674D02*
X6731967Y-16334579D01*
X6731967Y-16334579D02*
X6741491Y-16315531D01*
X6741491Y-16315531D02*
X6751015Y-16306008D01*
X6751015Y-16306008D02*
X6770062Y-16296484D01*
X6960539Y-16296484D02*
X6979586Y-16296484D01*
X6979586Y-16296484D02*
X6998634Y-16306008D01*
X6998634Y-16306008D02*
X7008158Y-16315531D01*
X7008158Y-16315531D02*
X7017682Y-16334579D01*
X7017682Y-16334579D02*
X7027205Y-16372674D01*
X7027205Y-16372674D02*
X7027205Y-16420293D01*
X7027205Y-16420293D02*
X7017682Y-16458388D01*
X7017682Y-16458388D02*
X7008158Y-16477436D01*
X7008158Y-16477436D02*
X6998634Y-16486960D01*
X6998634Y-16486960D02*
X6979586Y-16496484D01*
X6979586Y-16496484D02*
X6960539Y-16496484D01*
X6960539Y-16496484D02*
X6941491Y-16486960D01*
X6941491Y-16486960D02*
X6931967Y-16477436D01*
X6931967Y-16477436D02*
X6922443Y-16458388D01*
X6922443Y-16458388D02*
X6912920Y-16420293D01*
X6912920Y-16420293D02*
X6912920Y-16372674D01*
X6912920Y-16372674D02*
X6922443Y-16334579D01*
X6922443Y-16334579D02*
X6931967Y-16315531D01*
X6931967Y-16315531D02*
X6941491Y-16306008D01*
X6941491Y-16306008D02*
X6960539Y-16296484D01*
X7112920Y-16496484D02*
X7112920Y-16363150D01*
X7112920Y-16382198D02*
X7122443Y-16372674D01*
X7122443Y-16372674D02*
X7141491Y-16363150D01*
X7141491Y-16363150D02*
X7170063Y-16363150D01*
X7170063Y-16363150D02*
X7189110Y-16372674D01*
X7189110Y-16372674D02*
X7198634Y-16391722D01*
X7198634Y-16391722D02*
X7198634Y-16496484D01*
X7198634Y-16391722D02*
X7208158Y-16372674D01*
X7208158Y-16372674D02*
X7227205Y-16363150D01*
X7227205Y-16363150D02*
X7255777Y-16363150D01*
X7255777Y-16363150D02*
X7274824Y-16372674D01*
X7274824Y-16372674D02*
X7284348Y-16391722D01*
X7284348Y-16391722D02*
X7284348Y-16496484D01*
X7379586Y-16496484D02*
X7379586Y-16363150D01*
X7379586Y-16382198D02*
X7389110Y-16372674D01*
X7389110Y-16372674D02*
X7408158Y-16363150D01*
X7408158Y-16363150D02*
X7436729Y-16363150D01*
X7436729Y-16363150D02*
X7455777Y-16372674D01*
X7455777Y-16372674D02*
X7465301Y-16391722D01*
X7465301Y-16391722D02*
X7465301Y-16496484D01*
X7465301Y-16391722D02*
X7474824Y-16372674D01*
X7474824Y-16372674D02*
X7493872Y-16363150D01*
X7493872Y-16363150D02*
X7522443Y-16363150D01*
X7522443Y-16363150D02*
X7541491Y-16372674D01*
X7541491Y-16372674D02*
X7551015Y-16391722D01*
X7551015Y-16391722D02*
X7551015Y-16496484D01*
X7941491Y-16286960D02*
X7770063Y-16544103D01*
X8198634Y-16296484D02*
X8217682Y-16296484D01*
X8217682Y-16296484D02*
X8236729Y-16306008D01*
X8236729Y-16306008D02*
X8246253Y-16315531D01*
X8246253Y-16315531D02*
X8255777Y-16334579D01*
X8255777Y-16334579D02*
X8265301Y-16372674D01*
X8265301Y-16372674D02*
X8265301Y-16420293D01*
X8265301Y-16420293D02*
X8255777Y-16458388D01*
X8255777Y-16458388D02*
X8246253Y-16477436D01*
X8246253Y-16477436D02*
X8236729Y-16486960D01*
X8236729Y-16486960D02*
X8217682Y-16496484D01*
X8217682Y-16496484D02*
X8198634Y-16496484D01*
X8198634Y-16496484D02*
X8179586Y-16486960D01*
X8179586Y-16486960D02*
X8170063Y-16477436D01*
X8170063Y-16477436D02*
X8160539Y-16458388D01*
X8160539Y-16458388D02*
X8151015Y-16420293D01*
X8151015Y-16420293D02*
X8151015Y-16372674D01*
X8151015Y-16372674D02*
X8160539Y-16334579D01*
X8160539Y-16334579D02*
X8170063Y-16315531D01*
X8170063Y-16315531D02*
X8179586Y-16306008D01*
X8179586Y-16306008D02*
X8198634Y-16296484D01*
X8351015Y-16477436D02*
X8360539Y-16486960D01*
X8360539Y-16486960D02*
X8351015Y-16496484D01*
X8351015Y-16496484D02*
X8341491Y-16486960D01*
X8341491Y-16486960D02*
X8351015Y-16477436D01*
X8351015Y-16477436D02*
X8351015Y-16496484D01*
X8551015Y-16496484D02*
X8436729Y-16496484D01*
X8493872Y-16496484D02*
X8493872Y-16296484D01*
X8493872Y-16296484D02*
X8474825Y-16325055D01*
X8474825Y-16325055D02*
X8455777Y-16344103D01*
X8455777Y-16344103D02*
X8436729Y-16353627D01*
X8627206Y-16315531D02*
X8636729Y-16306008D01*
X8636729Y-16306008D02*
X8655777Y-16296484D01*
X8655777Y-16296484D02*
X8703396Y-16296484D01*
X8703396Y-16296484D02*
X8722444Y-16306008D01*
X8722444Y-16306008D02*
X8731968Y-16315531D01*
X8731968Y-16315531D02*
X8741491Y-16334579D01*
X8741491Y-16334579D02*
X8741491Y-16353627D01*
X8741491Y-16353627D02*
X8731968Y-16382198D01*
X8731968Y-16382198D02*
X8617682Y-16496484D01*
X8617682Y-16496484D02*
X8741491Y-16496484D01*
X8912920Y-16296484D02*
X8874825Y-16296484D01*
X8874825Y-16296484D02*
X8855777Y-16306008D01*
X8855777Y-16306008D02*
X8846253Y-16315531D01*
X8846253Y-16315531D02*
X8827206Y-16344103D01*
X8827206Y-16344103D02*
X8817682Y-16382198D01*
X8817682Y-16382198D02*
X8817682Y-16458388D01*
X8817682Y-16458388D02*
X8827206Y-16477436D01*
X8827206Y-16477436D02*
X8836729Y-16486960D01*
X8836729Y-16486960D02*
X8855777Y-16496484D01*
X8855777Y-16496484D02*
X8893872Y-16496484D01*
X8893872Y-16496484D02*
X8912920Y-16486960D01*
X8912920Y-16486960D02*
X8922444Y-16477436D01*
X8922444Y-16477436D02*
X8931968Y-16458388D01*
X8931968Y-16458388D02*
X8931968Y-16410769D01*
X8931968Y-16410769D02*
X8922444Y-16391722D01*
X8922444Y-16391722D02*
X8912920Y-16382198D01*
X8912920Y-16382198D02*
X8893872Y-16372674D01*
X8893872Y-16372674D02*
X8855777Y-16372674D01*
X8855777Y-16372674D02*
X8836729Y-16382198D01*
X8836729Y-16382198D02*
X8827206Y-16391722D01*
X8827206Y-16391722D02*
X8817682Y-16410769D01*
X9055777Y-16296484D02*
X9074825Y-16296484D01*
X9074825Y-16296484D02*
X9093872Y-16306008D01*
X9093872Y-16306008D02*
X9103396Y-16315531D01*
X9103396Y-16315531D02*
X9112920Y-16334579D01*
X9112920Y-16334579D02*
X9122444Y-16372674D01*
X9122444Y-16372674D02*
X9122444Y-16420293D01*
X9122444Y-16420293D02*
X9112920Y-16458388D01*
X9112920Y-16458388D02*
X9103396Y-16477436D01*
X9103396Y-16477436D02*
X9093872Y-16486960D01*
X9093872Y-16486960D02*
X9074825Y-16496484D01*
X9074825Y-16496484D02*
X9055777Y-16496484D01*
X9055777Y-16496484D02*
X9036729Y-16486960D01*
X9036729Y-16486960D02*
X9027206Y-16477436D01*
X9027206Y-16477436D02*
X9017682Y-16458388D01*
X9017682Y-16458388D02*
X9008158Y-16420293D01*
X9008158Y-16420293D02*
X9008158Y-16372674D01*
X9008158Y-16372674D02*
X9017682Y-16334579D01*
X9017682Y-16334579D02*
X9027206Y-16315531D01*
X9027206Y-16315531D02*
X9036729Y-16306008D01*
X9036729Y-16306008D02*
X9055777Y-16296484D01*
X9198634Y-16296484D02*
X9198634Y-16334579D01*
X9274825Y-16296484D02*
X9274825Y-16334579D01*
X9570063Y-16572674D02*
X9560539Y-16563150D01*
X9560539Y-16563150D02*
X9541491Y-16534579D01*
X9541491Y-16534579D02*
X9531968Y-16515531D01*
X9531968Y-16515531D02*
X9522444Y-16486960D01*
X9522444Y-16486960D02*
X9512920Y-16439341D01*
X9512920Y-16439341D02*
X9512920Y-16401246D01*
X9512920Y-16401246D02*
X9522444Y-16353627D01*
X9522444Y-16353627D02*
X9531968Y-16325055D01*
X9531968Y-16325055D02*
X9541491Y-16306008D01*
X9541491Y-16306008D02*
X9560539Y-16277436D01*
X9560539Y-16277436D02*
X9570063Y-16267912D01*
X9731968Y-16363150D02*
X9731968Y-16496484D01*
X9684349Y-16286960D02*
X9636730Y-16429817D01*
X9636730Y-16429817D02*
X9760539Y-16429817D01*
X9989111Y-16496484D02*
X9989111Y-16296484D01*
X10074825Y-16496484D02*
X10074825Y-16391722D01*
X10074825Y-16391722D02*
X10065301Y-16372674D01*
X10065301Y-16372674D02*
X10046253Y-16363150D01*
X10046253Y-16363150D02*
X10017682Y-16363150D01*
X10017682Y-16363150D02*
X9998634Y-16372674D01*
X9998634Y-16372674D02*
X9989111Y-16382198D01*
X10198634Y-16496484D02*
X10179587Y-16486960D01*
X10179587Y-16486960D02*
X10170063Y-16477436D01*
X10170063Y-16477436D02*
X10160539Y-16458388D01*
X10160539Y-16458388D02*
X10160539Y-16401246D01*
X10160539Y-16401246D02*
X10170063Y-16382198D01*
X10170063Y-16382198D02*
X10179587Y-16372674D01*
X10179587Y-16372674D02*
X10198634Y-16363150D01*
X10198634Y-16363150D02*
X10227206Y-16363150D01*
X10227206Y-16363150D02*
X10246253Y-16372674D01*
X10246253Y-16372674D02*
X10255777Y-16382198D01*
X10255777Y-16382198D02*
X10265301Y-16401246D01*
X10265301Y-16401246D02*
X10265301Y-16458388D01*
X10265301Y-16458388D02*
X10255777Y-16477436D01*
X10255777Y-16477436D02*
X10246253Y-16486960D01*
X10246253Y-16486960D02*
X10227206Y-16496484D01*
X10227206Y-16496484D02*
X10198634Y-16496484D01*
X10379587Y-16496484D02*
X10360539Y-16486960D01*
X10360539Y-16486960D02*
X10351015Y-16467912D01*
X10351015Y-16467912D02*
X10351015Y-16296484D01*
X10531968Y-16486960D02*
X10512920Y-16496484D01*
X10512920Y-16496484D02*
X10474825Y-16496484D01*
X10474825Y-16496484D02*
X10455777Y-16486960D01*
X10455777Y-16486960D02*
X10446253Y-16467912D01*
X10446253Y-16467912D02*
X10446253Y-16391722D01*
X10446253Y-16391722D02*
X10455777Y-16372674D01*
X10455777Y-16372674D02*
X10474825Y-16363150D01*
X10474825Y-16363150D02*
X10512920Y-16363150D01*
X10512920Y-16363150D02*
X10531968Y-16372674D01*
X10531968Y-16372674D02*
X10541492Y-16391722D01*
X10541492Y-16391722D02*
X10541492Y-16410769D01*
X10541492Y-16410769D02*
X10446253Y-16429817D01*
X10617682Y-16486960D02*
X10636730Y-16496484D01*
X10636730Y-16496484D02*
X10674825Y-16496484D01*
X10674825Y-16496484D02*
X10693873Y-16486960D01*
X10693873Y-16486960D02*
X10703396Y-16467912D01*
X10703396Y-16467912D02*
X10703396Y-16458388D01*
X10703396Y-16458388D02*
X10693873Y-16439341D01*
X10693873Y-16439341D02*
X10674825Y-16429817D01*
X10674825Y-16429817D02*
X10646253Y-16429817D01*
X10646253Y-16429817D02*
X10627206Y-16420293D01*
X10627206Y-16420293D02*
X10617682Y-16401246D01*
X10617682Y-16401246D02*
X10617682Y-16391722D01*
X10617682Y-16391722D02*
X10627206Y-16372674D01*
X10627206Y-16372674D02*
X10646253Y-16363150D01*
X10646253Y-16363150D02*
X10674825Y-16363150D01*
X10674825Y-16363150D02*
X10693873Y-16372674D01*
X10770063Y-16572674D02*
X10779587Y-16563150D01*
X10779587Y-16563150D02*
X10798634Y-16534579D01*
X10798634Y-16534579D02*
X10808158Y-16515531D01*
X10808158Y-16515531D02*
X10817682Y-16486960D01*
X10817682Y-16486960D02*
X10827206Y-16439341D01*
X10827206Y-16439341D02*
X10827206Y-16401246D01*
X10827206Y-16401246D02*
X10817682Y-16353627D01*
X10817682Y-16353627D02*
X10808158Y-16325055D01*
X10808158Y-16325055D02*
X10798634Y-16306008D01*
X10798634Y-16306008D02*
X10779587Y-16277436D01*
X10779587Y-16277436D02*
X10770063Y-16267912D01*
M02*
