%TF.GenerationSoftware,KiCad,Pcbnew,9.0.0*%
%TF.CreationDate,2025-03-02T13:03:40+01:00*%
%TF.ProjectId,pc1715-esp32vga,70633137-3135-42d6-9573-703332766761,2*%
%TF.SameCoordinates,Original*%
%TF.FileFunction,Legend,Bot*%
%TF.FilePolarity,Positive*%
%FSLAX46Y46*%
G04 Gerber Fmt 4.6, Leading zero omitted, Abs format (unit mm)*
G04 Created by KiCad (PCBNEW 9.0.0) date 2025-03-02 13:03:40*
%MOMM*%
%LPD*%
G01*
G04 APERTURE LIST*
%ADD10C,0.250000*%
%ADD11C,0.100000*%
%ADD12C,0.150000*%
%ADD13C,0.120000*%
G04 APERTURE END LIST*
D10*
X118583146Y-133334023D02*
X119297431Y-133334023D01*
X118940288Y-133334023D02*
X118940288Y-132084023D01*
X118940288Y-132084023D02*
X119059336Y-132262595D01*
X119059336Y-132262595D02*
X119178384Y-132381642D01*
X119178384Y-132381642D02*
X119297431Y-132441166D01*
X117809336Y-132084023D02*
X117690289Y-132084023D01*
X117690289Y-132084023D02*
X117571241Y-132143547D01*
X117571241Y-132143547D02*
X117511717Y-132203071D01*
X117511717Y-132203071D02*
X117452193Y-132322119D01*
X117452193Y-132322119D02*
X117392670Y-132560214D01*
X117392670Y-132560214D02*
X117392670Y-132857833D01*
X117392670Y-132857833D02*
X117452193Y-133095928D01*
X117452193Y-133095928D02*
X117511717Y-133214976D01*
X117511717Y-133214976D02*
X117571241Y-133274500D01*
X117571241Y-133274500D02*
X117690289Y-133334023D01*
X117690289Y-133334023D02*
X117809336Y-133334023D01*
X117809336Y-133334023D02*
X117928384Y-133274500D01*
X117928384Y-133274500D02*
X117987908Y-133214976D01*
X117987908Y-133214976D02*
X118047431Y-133095928D01*
X118047431Y-133095928D02*
X118106955Y-132857833D01*
X118106955Y-132857833D02*
X118106955Y-132560214D01*
X118106955Y-132560214D02*
X118047431Y-132322119D01*
X118047431Y-132322119D02*
X117987908Y-132203071D01*
X117987908Y-132203071D02*
X117928384Y-132143547D01*
X117928384Y-132143547D02*
X117809336Y-132084023D01*
X115726003Y-132619738D02*
X115845051Y-132560214D01*
X115845051Y-132560214D02*
X115904574Y-132500690D01*
X115904574Y-132500690D02*
X115964098Y-132381642D01*
X115964098Y-132381642D02*
X115964098Y-132322119D01*
X115964098Y-132322119D02*
X115904574Y-132203071D01*
X115904574Y-132203071D02*
X115845051Y-132143547D01*
X115845051Y-132143547D02*
X115726003Y-132084023D01*
X115726003Y-132084023D02*
X115487908Y-132084023D01*
X115487908Y-132084023D02*
X115368860Y-132143547D01*
X115368860Y-132143547D02*
X115309336Y-132203071D01*
X115309336Y-132203071D02*
X115249813Y-132322119D01*
X115249813Y-132322119D02*
X115249813Y-132381642D01*
X115249813Y-132381642D02*
X115309336Y-132500690D01*
X115309336Y-132500690D02*
X115368860Y-132560214D01*
X115368860Y-132560214D02*
X115487908Y-132619738D01*
X115487908Y-132619738D02*
X115726003Y-132619738D01*
X115726003Y-132619738D02*
X115845051Y-132679261D01*
X115845051Y-132679261D02*
X115904574Y-132738785D01*
X115904574Y-132738785D02*
X115964098Y-132857833D01*
X115964098Y-132857833D02*
X115964098Y-133095928D01*
X115964098Y-133095928D02*
X115904574Y-133214976D01*
X115904574Y-133214976D02*
X115845051Y-133274500D01*
X115845051Y-133274500D02*
X115726003Y-133334023D01*
X115726003Y-133334023D02*
X115487908Y-133334023D01*
X115487908Y-133334023D02*
X115368860Y-133274500D01*
X115368860Y-133274500D02*
X115309336Y-133214976D01*
X115309336Y-133214976D02*
X115249813Y-133095928D01*
X115249813Y-133095928D02*
X115249813Y-132857833D01*
X115249813Y-132857833D02*
X115309336Y-132738785D01*
X115309336Y-132738785D02*
X115368860Y-132679261D01*
X115368860Y-132679261D02*
X115487908Y-132619738D01*
X113226003Y-132084023D02*
X113464098Y-132084023D01*
X113464098Y-132084023D02*
X113583146Y-132143547D01*
X113583146Y-132143547D02*
X113642670Y-132203071D01*
X113642670Y-132203071D02*
X113761717Y-132381642D01*
X113761717Y-132381642D02*
X113821241Y-132619738D01*
X113821241Y-132619738D02*
X113821241Y-133095928D01*
X113821241Y-133095928D02*
X113761717Y-133214976D01*
X113761717Y-133214976D02*
X113702194Y-133274500D01*
X113702194Y-133274500D02*
X113583146Y-133334023D01*
X113583146Y-133334023D02*
X113345051Y-133334023D01*
X113345051Y-133334023D02*
X113226003Y-133274500D01*
X113226003Y-133274500D02*
X113166479Y-133214976D01*
X113166479Y-133214976D02*
X113106956Y-133095928D01*
X113106956Y-133095928D02*
X113106956Y-132798309D01*
X113106956Y-132798309D02*
X113166479Y-132679261D01*
X113166479Y-132679261D02*
X113226003Y-132619738D01*
X113226003Y-132619738D02*
X113345051Y-132560214D01*
X113345051Y-132560214D02*
X113583146Y-132560214D01*
X113583146Y-132560214D02*
X113702194Y-132619738D01*
X113702194Y-132619738D02*
X113761717Y-132679261D01*
X113761717Y-132679261D02*
X113821241Y-132798309D01*
X111083146Y-132500690D02*
X111083146Y-133334023D01*
X111380765Y-132024500D02*
X111678384Y-132917357D01*
X111678384Y-132917357D02*
X110904575Y-132917357D01*
X109535527Y-132203071D02*
X109476003Y-132143547D01*
X109476003Y-132143547D02*
X109356956Y-132084023D01*
X109356956Y-132084023D02*
X109059337Y-132084023D01*
X109059337Y-132084023D02*
X108940289Y-132143547D01*
X108940289Y-132143547D02*
X108880765Y-132203071D01*
X108880765Y-132203071D02*
X108821242Y-132322119D01*
X108821242Y-132322119D02*
X108821242Y-132441166D01*
X108821242Y-132441166D02*
X108880765Y-132619738D01*
X108880765Y-132619738D02*
X109595051Y-133334023D01*
X109595051Y-133334023D02*
X108821242Y-133334023D01*
X119578384Y-140434023D02*
X119340288Y-140434023D01*
X119340288Y-140434023D02*
X119221241Y-140374500D01*
X119221241Y-140374500D02*
X119161717Y-140314976D01*
X119161717Y-140314976D02*
X119042669Y-140136404D01*
X119042669Y-140136404D02*
X118983146Y-139898309D01*
X118983146Y-139898309D02*
X118983146Y-139422119D01*
X118983146Y-139422119D02*
X119042669Y-139303071D01*
X119042669Y-139303071D02*
X119102193Y-139243547D01*
X119102193Y-139243547D02*
X119221241Y-139184023D01*
X119221241Y-139184023D02*
X119459336Y-139184023D01*
X119459336Y-139184023D02*
X119578384Y-139243547D01*
X119578384Y-139243547D02*
X119637907Y-139303071D01*
X119637907Y-139303071D02*
X119697431Y-139422119D01*
X119697431Y-139422119D02*
X119697431Y-139719738D01*
X119697431Y-139719738D02*
X119637907Y-139838785D01*
X119637907Y-139838785D02*
X119578384Y-139898309D01*
X119578384Y-139898309D02*
X119459336Y-139957833D01*
X119459336Y-139957833D02*
X119221241Y-139957833D01*
X119221241Y-139957833D02*
X119102193Y-139898309D01*
X119102193Y-139898309D02*
X119042669Y-139838785D01*
X119042669Y-139838785D02*
X118983146Y-139719738D01*
X117614098Y-139184023D02*
X116780765Y-139184023D01*
X116780765Y-139184023D02*
X117316479Y-140434023D01*
X113804574Y-139184023D02*
X114399812Y-139184023D01*
X114399812Y-139184023D02*
X114459336Y-139779261D01*
X114459336Y-139779261D02*
X114399812Y-139719738D01*
X114399812Y-139719738D02*
X114280765Y-139660214D01*
X114280765Y-139660214D02*
X113983146Y-139660214D01*
X113983146Y-139660214D02*
X113864098Y-139719738D01*
X113864098Y-139719738D02*
X113804574Y-139779261D01*
X113804574Y-139779261D02*
X113745051Y-139898309D01*
X113745051Y-139898309D02*
X113745051Y-140195928D01*
X113745051Y-140195928D02*
X113804574Y-140314976D01*
X113804574Y-140314976D02*
X113864098Y-140374500D01*
X113864098Y-140374500D02*
X113983146Y-140434023D01*
X113983146Y-140434023D02*
X114280765Y-140434023D01*
X114280765Y-140434023D02*
X114399812Y-140374500D01*
X114399812Y-140374500D02*
X114459336Y-140314976D01*
X111423622Y-139184023D02*
X110649813Y-139184023D01*
X110649813Y-139184023D02*
X111066479Y-139660214D01*
X111066479Y-139660214D02*
X110887908Y-139660214D01*
X110887908Y-139660214D02*
X110768860Y-139719738D01*
X110768860Y-139719738D02*
X110709336Y-139779261D01*
X110709336Y-139779261D02*
X110649813Y-139898309D01*
X110649813Y-139898309D02*
X110649813Y-140195928D01*
X110649813Y-140195928D02*
X110709336Y-140314976D01*
X110709336Y-140314976D02*
X110768860Y-140374500D01*
X110768860Y-140374500D02*
X110887908Y-140434023D01*
X110887908Y-140434023D02*
X111245051Y-140434023D01*
X111245051Y-140434023D02*
X111364098Y-140374500D01*
X111364098Y-140374500D02*
X111423622Y-140314976D01*
X108506956Y-140434023D02*
X109221241Y-140434023D01*
X108864098Y-140434023D02*
X108864098Y-139184023D01*
X108864098Y-139184023D02*
X108983146Y-139362595D01*
X108983146Y-139362595D02*
X109102194Y-139481642D01*
X109102194Y-139481642D02*
X109221241Y-139541166D01*
D11*
X126846113Y-113178331D02*
X127322303Y-113178331D01*
X127322303Y-113178331D02*
X127369922Y-113654521D01*
X127369922Y-113654521D02*
X127322303Y-113606902D01*
X127322303Y-113606902D02*
X127227065Y-113559283D01*
X127227065Y-113559283D02*
X126988970Y-113559283D01*
X126988970Y-113559283D02*
X126893732Y-113606902D01*
X126893732Y-113606902D02*
X126846113Y-113654521D01*
X126846113Y-113654521D02*
X126798494Y-113749759D01*
X126798494Y-113749759D02*
X126798494Y-113987854D01*
X126798494Y-113987854D02*
X126846113Y-114083092D01*
X126846113Y-114083092D02*
X126893732Y-114130712D01*
X126893732Y-114130712D02*
X126988970Y-114178331D01*
X126988970Y-114178331D02*
X127227065Y-114178331D01*
X127227065Y-114178331D02*
X127322303Y-114130712D01*
X127322303Y-114130712D02*
X127369922Y-114083092D01*
X126512779Y-113178331D02*
X126179446Y-114178331D01*
X126179446Y-114178331D02*
X125846113Y-113178331D01*
X124798493Y-114130712D02*
X124655636Y-114178331D01*
X124655636Y-114178331D02*
X124417541Y-114178331D01*
X124417541Y-114178331D02*
X124322303Y-114130712D01*
X124322303Y-114130712D02*
X124274684Y-114083092D01*
X124274684Y-114083092D02*
X124227065Y-113987854D01*
X124227065Y-113987854D02*
X124227065Y-113892616D01*
X124227065Y-113892616D02*
X124274684Y-113797378D01*
X124274684Y-113797378D02*
X124322303Y-113749759D01*
X124322303Y-113749759D02*
X124417541Y-113702140D01*
X124417541Y-113702140D02*
X124608017Y-113654521D01*
X124608017Y-113654521D02*
X124703255Y-113606902D01*
X124703255Y-113606902D02*
X124750874Y-113559283D01*
X124750874Y-113559283D02*
X124798493Y-113464045D01*
X124798493Y-113464045D02*
X124798493Y-113368807D01*
X124798493Y-113368807D02*
X124750874Y-113273569D01*
X124750874Y-113273569D02*
X124703255Y-113225950D01*
X124703255Y-113225950D02*
X124608017Y-113178331D01*
X124608017Y-113178331D02*
X124369922Y-113178331D01*
X124369922Y-113178331D02*
X124227065Y-113225950D01*
X123227065Y-114178331D02*
X123560398Y-113702140D01*
X123798493Y-114178331D02*
X123798493Y-113178331D01*
X123798493Y-113178331D02*
X123417541Y-113178331D01*
X123417541Y-113178331D02*
X123322303Y-113225950D01*
X123322303Y-113225950D02*
X123274684Y-113273569D01*
X123274684Y-113273569D02*
X123227065Y-113368807D01*
X123227065Y-113368807D02*
X123227065Y-113511664D01*
X123227065Y-113511664D02*
X123274684Y-113606902D01*
X123274684Y-113606902D02*
X123322303Y-113654521D01*
X123322303Y-113654521D02*
X123417541Y-113702140D01*
X123417541Y-113702140D02*
X123798493Y-113702140D01*
X122227065Y-114083092D02*
X122274684Y-114130712D01*
X122274684Y-114130712D02*
X122417541Y-114178331D01*
X122417541Y-114178331D02*
X122512779Y-114178331D01*
X122512779Y-114178331D02*
X122655636Y-114130712D01*
X122655636Y-114130712D02*
X122750874Y-114035473D01*
X122750874Y-114035473D02*
X122798493Y-113940235D01*
X122798493Y-113940235D02*
X122846112Y-113749759D01*
X122846112Y-113749759D02*
X122846112Y-113606902D01*
X122846112Y-113606902D02*
X122798493Y-113416426D01*
X122798493Y-113416426D02*
X122750874Y-113321188D01*
X122750874Y-113321188D02*
X122655636Y-113225950D01*
X122655636Y-113225950D02*
X122512779Y-113178331D01*
X122512779Y-113178331D02*
X122417541Y-113178331D01*
X122417541Y-113178331D02*
X122274684Y-113225950D01*
X122274684Y-113225950D02*
X122227065Y-113273569D01*
X128703255Y-114788275D02*
X128703255Y-115597798D01*
X128703255Y-115597798D02*
X128655636Y-115693036D01*
X128655636Y-115693036D02*
X128608017Y-115740656D01*
X128608017Y-115740656D02*
X128512779Y-115788275D01*
X128512779Y-115788275D02*
X128322303Y-115788275D01*
X128322303Y-115788275D02*
X128227065Y-115740656D01*
X128227065Y-115740656D02*
X128179446Y-115693036D01*
X128179446Y-115693036D02*
X128131827Y-115597798D01*
X128131827Y-115597798D02*
X128131827Y-114788275D01*
X127703255Y-115740656D02*
X127560398Y-115788275D01*
X127560398Y-115788275D02*
X127322303Y-115788275D01*
X127322303Y-115788275D02*
X127227065Y-115740656D01*
X127227065Y-115740656D02*
X127179446Y-115693036D01*
X127179446Y-115693036D02*
X127131827Y-115597798D01*
X127131827Y-115597798D02*
X127131827Y-115502560D01*
X127131827Y-115502560D02*
X127179446Y-115407322D01*
X127179446Y-115407322D02*
X127227065Y-115359703D01*
X127227065Y-115359703D02*
X127322303Y-115312084D01*
X127322303Y-115312084D02*
X127512779Y-115264465D01*
X127512779Y-115264465D02*
X127608017Y-115216846D01*
X127608017Y-115216846D02*
X127655636Y-115169227D01*
X127655636Y-115169227D02*
X127703255Y-115073989D01*
X127703255Y-115073989D02*
X127703255Y-114978751D01*
X127703255Y-114978751D02*
X127655636Y-114883513D01*
X127655636Y-114883513D02*
X127608017Y-114835894D01*
X127608017Y-114835894D02*
X127512779Y-114788275D01*
X127512779Y-114788275D02*
X127274684Y-114788275D01*
X127274684Y-114788275D02*
X127131827Y-114835894D01*
X126369922Y-115264465D02*
X126227065Y-115312084D01*
X126227065Y-115312084D02*
X126179446Y-115359703D01*
X126179446Y-115359703D02*
X126131827Y-115454941D01*
X126131827Y-115454941D02*
X126131827Y-115597798D01*
X126131827Y-115597798D02*
X126179446Y-115693036D01*
X126179446Y-115693036D02*
X126227065Y-115740656D01*
X126227065Y-115740656D02*
X126322303Y-115788275D01*
X126322303Y-115788275D02*
X126703255Y-115788275D01*
X126703255Y-115788275D02*
X126703255Y-114788275D01*
X126703255Y-114788275D02*
X126369922Y-114788275D01*
X126369922Y-114788275D02*
X126274684Y-114835894D01*
X126274684Y-114835894D02*
X126227065Y-114883513D01*
X126227065Y-114883513D02*
X126179446Y-114978751D01*
X126179446Y-114978751D02*
X126179446Y-115073989D01*
X126179446Y-115073989D02*
X126227065Y-115169227D01*
X126227065Y-115169227D02*
X126274684Y-115216846D01*
X126274684Y-115216846D02*
X126369922Y-115264465D01*
X126369922Y-115264465D02*
X126703255Y-115264465D01*
X124417541Y-115788275D02*
X124988969Y-115788275D01*
X124703255Y-115788275D02*
X124703255Y-114788275D01*
X124703255Y-114788275D02*
X124798493Y-114931132D01*
X124798493Y-114931132D02*
X124893731Y-115026370D01*
X124893731Y-115026370D02*
X124988969Y-115073989D01*
X123988969Y-115407322D02*
X123227065Y-115407322D01*
X122798493Y-114883513D02*
X122750874Y-114835894D01*
X122750874Y-114835894D02*
X122655636Y-114788275D01*
X122655636Y-114788275D02*
X122417541Y-114788275D01*
X122417541Y-114788275D02*
X122322303Y-114835894D01*
X122322303Y-114835894D02*
X122274684Y-114883513D01*
X122274684Y-114883513D02*
X122227065Y-114978751D01*
X122227065Y-114978751D02*
X122227065Y-115073989D01*
X122227065Y-115073989D02*
X122274684Y-115216846D01*
X122274684Y-115216846D02*
X122846112Y-115788275D01*
X122846112Y-115788275D02*
X122227065Y-115788275D01*
X132893730Y-116398219D02*
X132560397Y-117398219D01*
X132560397Y-117398219D02*
X132227064Y-116398219D01*
X131893730Y-117398219D02*
X131893730Y-116398219D01*
X131417540Y-117398219D02*
X131417540Y-116398219D01*
X131417540Y-116398219D02*
X131179445Y-116398219D01*
X131179445Y-116398219D02*
X131036588Y-116445838D01*
X131036588Y-116445838D02*
X130941350Y-116541076D01*
X130941350Y-116541076D02*
X130893731Y-116636314D01*
X130893731Y-116636314D02*
X130846112Y-116826790D01*
X130846112Y-116826790D02*
X130846112Y-116969647D01*
X130846112Y-116969647D02*
X130893731Y-117160123D01*
X130893731Y-117160123D02*
X130941350Y-117255361D01*
X130941350Y-117255361D02*
X131036588Y-117350600D01*
X131036588Y-117350600D02*
X131179445Y-117398219D01*
X131179445Y-117398219D02*
X131417540Y-117398219D01*
X130417540Y-116874409D02*
X130084207Y-116874409D01*
X129941350Y-117398219D02*
X130417540Y-117398219D01*
X130417540Y-117398219D02*
X130417540Y-116398219D01*
X130417540Y-116398219D02*
X129941350Y-116398219D01*
X129322302Y-116398219D02*
X129131826Y-116398219D01*
X129131826Y-116398219D02*
X129036588Y-116445838D01*
X129036588Y-116445838D02*
X128941350Y-116541076D01*
X128941350Y-116541076D02*
X128893731Y-116731552D01*
X128893731Y-116731552D02*
X128893731Y-117064885D01*
X128893731Y-117064885D02*
X128941350Y-117255361D01*
X128941350Y-117255361D02*
X129036588Y-117350600D01*
X129036588Y-117350600D02*
X129131826Y-117398219D01*
X129131826Y-117398219D02*
X129322302Y-117398219D01*
X129322302Y-117398219D02*
X129417540Y-117350600D01*
X129417540Y-117350600D02*
X129512778Y-117255361D01*
X129512778Y-117255361D02*
X129560397Y-117064885D01*
X129560397Y-117064885D02*
X129560397Y-116731552D01*
X129560397Y-116731552D02*
X129512778Y-116541076D01*
X129512778Y-116541076D02*
X129417540Y-116445838D01*
X129417540Y-116445838D02*
X129322302Y-116398219D01*
X128465159Y-117017266D02*
X127703255Y-117017266D01*
X127227064Y-117398219D02*
X127227064Y-116398219D01*
X126750874Y-117398219D02*
X126750874Y-116398219D01*
X126750874Y-116398219D02*
X126179446Y-117398219D01*
X126179446Y-117398219D02*
X126179446Y-116398219D01*
X124988969Y-116493457D02*
X124941350Y-116445838D01*
X124941350Y-116445838D02*
X124846112Y-116398219D01*
X124846112Y-116398219D02*
X124608017Y-116398219D01*
X124608017Y-116398219D02*
X124512779Y-116445838D01*
X124512779Y-116445838D02*
X124465160Y-116493457D01*
X124465160Y-116493457D02*
X124417541Y-116588695D01*
X124417541Y-116588695D02*
X124417541Y-116683933D01*
X124417541Y-116683933D02*
X124465160Y-116826790D01*
X124465160Y-116826790D02*
X125036588Y-117398219D01*
X125036588Y-117398219D02*
X124417541Y-117398219D01*
X123988969Y-117017266D02*
X123227065Y-117017266D01*
X122846112Y-116398219D02*
X122227065Y-116398219D01*
X122227065Y-116398219D02*
X122560398Y-116779171D01*
X122560398Y-116779171D02*
X122417541Y-116779171D01*
X122417541Y-116779171D02*
X122322303Y-116826790D01*
X122322303Y-116826790D02*
X122274684Y-116874409D01*
X122274684Y-116874409D02*
X122227065Y-116969647D01*
X122227065Y-116969647D02*
X122227065Y-117207742D01*
X122227065Y-117207742D02*
X122274684Y-117302980D01*
X122274684Y-117302980D02*
X122322303Y-117350600D01*
X122322303Y-117350600D02*
X122417541Y-117398219D01*
X122417541Y-117398219D02*
X122703255Y-117398219D01*
X122703255Y-117398219D02*
X122798493Y-117350600D01*
X122798493Y-117350600D02*
X122846112Y-117302980D01*
D12*
X119024133Y-116469219D02*
X119024133Y-117183504D01*
X119024133Y-117183504D02*
X119071752Y-117326361D01*
X119071752Y-117326361D02*
X119166990Y-117421600D01*
X119166990Y-117421600D02*
X119309847Y-117469219D01*
X119309847Y-117469219D02*
X119405085Y-117469219D01*
X118547942Y-117469219D02*
X118547942Y-116469219D01*
X118547942Y-116469219D02*
X118166990Y-116469219D01*
X118166990Y-116469219D02*
X118071752Y-116516838D01*
X118071752Y-116516838D02*
X118024133Y-116564457D01*
X118024133Y-116564457D02*
X117976514Y-116659695D01*
X117976514Y-116659695D02*
X117976514Y-116802552D01*
X117976514Y-116802552D02*
X118024133Y-116897790D01*
X118024133Y-116897790D02*
X118071752Y-116945409D01*
X118071752Y-116945409D02*
X118166990Y-116993028D01*
X118166990Y-116993028D02*
X118547942Y-116993028D01*
X117595561Y-116564457D02*
X117547942Y-116516838D01*
X117547942Y-116516838D02*
X117452704Y-116469219D01*
X117452704Y-116469219D02*
X117214609Y-116469219D01*
X117214609Y-116469219D02*
X117119371Y-116516838D01*
X117119371Y-116516838D02*
X117071752Y-116564457D01*
X117071752Y-116564457D02*
X117024133Y-116659695D01*
X117024133Y-116659695D02*
X117024133Y-116754933D01*
X117024133Y-116754933D02*
X117071752Y-116897790D01*
X117071752Y-116897790D02*
X117643180Y-117469219D01*
X117643180Y-117469219D02*
X117024133Y-117469219D01*
X121124132Y-114669219D02*
X120505085Y-114669219D01*
X120505085Y-114669219D02*
X120838418Y-115050171D01*
X120838418Y-115050171D02*
X120695561Y-115050171D01*
X120695561Y-115050171D02*
X120600323Y-115097790D01*
X120600323Y-115097790D02*
X120552704Y-115145409D01*
X120552704Y-115145409D02*
X120505085Y-115240647D01*
X120505085Y-115240647D02*
X120505085Y-115478742D01*
X120505085Y-115478742D02*
X120552704Y-115573980D01*
X120552704Y-115573980D02*
X120600323Y-115621600D01*
X120600323Y-115621600D02*
X120695561Y-115669219D01*
X120695561Y-115669219D02*
X120981275Y-115669219D01*
X120981275Y-115669219D02*
X121076513Y-115621600D01*
X121076513Y-115621600D02*
X121124132Y-115573980D01*
X115305085Y-115669219D02*
X115876513Y-115669219D01*
X115590799Y-115669219D02*
X115590799Y-114669219D01*
X115590799Y-114669219D02*
X115686037Y-114812076D01*
X115686037Y-114812076D02*
X115781275Y-114907314D01*
X115781275Y-114907314D02*
X115876513Y-114954933D01*
D13*
%TO.C,JP2*%
X116140800Y-115514400D02*
X116140800Y-114914400D01*
X116790800Y-114214400D02*
X119590800Y-114214400D01*
X119590800Y-116214400D02*
X116790800Y-116214400D01*
X120240800Y-114914400D02*
X120240800Y-115514400D01*
X116140800Y-114914400D02*
G75*
G02*
X116840800Y-114214400I699999J1D01*
G01*
X116840800Y-116214400D02*
G75*
G02*
X116140800Y-115514400I-1J699999D01*
G01*
X119540800Y-114214400D02*
G75*
G02*
X120240800Y-114914400I0J-700000D01*
G01*
X120240800Y-115514400D02*
G75*
G02*
X119540800Y-116214400I-700000J0D01*
G01*
%TD*%
M02*
