%TF.GenerationSoftware,KiCad,Pcbnew,8.0.4*%
%TF.CreationDate,2024-08-04T15:04:20+02:00*%
%TF.ProjectId,pc1715-esp32vga,70633137-3135-42d6-9573-703332766761,2*%
%TF.SameCoordinates,Original*%
%TF.FileFunction,Soldermask,Top*%
%TF.FilePolarity,Negative*%
%FSLAX46Y46*%
G04 Gerber Fmt 4.6, Leading zero omitted, Abs format (unit mm)*
G04 Created by KiCad (PCBNEW 8.0.4) date 2024-08-04 15:04:20*
%MOMM*%
%LPD*%
G01*
G04 APERTURE LIST*
G04 Aperture macros list*
%AMRoundRect*
0 Rectangle with rounded corners*
0 $1 Rounding radius*
0 $2 $3 $4 $5 $6 $7 $8 $9 X,Y pos of 4 corners*
0 Add a 4 corners polygon primitive as box body*
4,1,4,$2,$3,$4,$5,$6,$7,$8,$9,$2,$3,0*
0 Add four circle primitives for the rounded corners*
1,1,$1+$1,$2,$3*
1,1,$1+$1,$4,$5*
1,1,$1+$1,$6,$7*
1,1,$1+$1,$8,$9*
0 Add four rect primitives between the rounded corners*
20,1,$1+$1,$2,$3,$4,$5,0*
20,1,$1+$1,$4,$5,$6,$7,0*
20,1,$1+$1,$6,$7,$8,$9,0*
20,1,$1+$1,$8,$9,$2,$3,0*%
G04 Aperture macros list end*
%ADD10C,0.650000*%
%ADD11RoundRect,0.150000X0.150000X0.425000X-0.150000X0.425000X-0.150000X-0.425000X0.150000X-0.425000X0*%
%ADD12RoundRect,0.075000X0.075000X0.500000X-0.075000X0.500000X-0.075000X-0.500000X0.075000X-0.500000X0*%
%ADD13O,1.000000X2.100000*%
%ADD14O,1.000000X1.800000*%
%ADD15RoundRect,0.250001X0.924999X-0.499999X0.924999X0.499999X-0.924999X0.499999X-0.924999X-0.499999X0*%
%ADD16RoundRect,0.250001X-0.462499X-0.624999X0.462499X-0.624999X0.462499X0.624999X-0.462499X0.624999X0*%
%ADD17R,1.700000X1.700000*%
%ADD18O,1.700000X1.700000*%
%ADD19R,1.300000X1.550000*%
%ADD20C,5.700000*%
%ADD21RoundRect,0.250000X0.600000X-0.600000X0.600000X0.600000X-0.600000X0.600000X-0.600000X-0.600000X0*%
%ADD22C,1.700000*%
%ADD23R,1.600000X1.600000*%
%ADD24C,1.600000*%
%ADD25C,4.000000*%
%ADD26R,1.500000X0.900000*%
%ADD27R,0.900000X1.500000*%
%ADD28R,0.900000X0.900000*%
%ADD29RoundRect,0.102000X0.892500X0.892500X-0.892500X0.892500X-0.892500X-0.892500X0.892500X-0.892500X0*%
%ADD30C,1.989000*%
%ADD31C,4.400000*%
G04 APERTURE END LIST*
D10*
%TO.C,J6*%
X115356000Y-106242000D03*
X109576000Y-106242000D03*
D11*
X115666000Y-107317000D03*
X114866000Y-107317000D03*
D12*
X113716000Y-107317000D03*
X112716000Y-107317000D03*
X112216000Y-107317000D03*
X111216000Y-107317000D03*
D11*
X110066000Y-107317000D03*
X109266000Y-107317000D03*
X109266000Y-107317000D03*
X110066000Y-107317000D03*
D12*
X110716000Y-107317000D03*
X111716000Y-107317000D03*
X113216000Y-107317000D03*
X114216000Y-107317000D03*
D11*
X114866000Y-107317000D03*
X115666000Y-107317000D03*
D13*
X116786000Y-106742000D03*
D14*
X116786000Y-102562000D03*
D13*
X108146000Y-106742000D03*
D14*
X108146000Y-102562000D03*
%TD*%
D15*
%TO.C,C2*%
X123665000Y-111528000D03*
X123665000Y-108278000D03*
%TD*%
D16*
%TO.C,D2*%
X127825000Y-128620000D03*
X130800000Y-128620000D03*
%TD*%
D17*
%TO.C,J7*%
X160300000Y-134100000D03*
D18*
X157760000Y-134100000D03*
X155220000Y-134100000D03*
X152680000Y-134100000D03*
X150140000Y-134100000D03*
X147600000Y-134100000D03*
X145060000Y-134100000D03*
%TD*%
D19*
%TO.C,SW1*%
X136400000Y-134750000D03*
X136400000Y-126800000D03*
X140900000Y-134750000D03*
X140900000Y-126800000D03*
%TD*%
D20*
%TO.C,H1003*%
X166000000Y-106000000D03*
%TD*%
D21*
%TO.C,J1*%
X107672500Y-132000000D03*
D22*
X107672500Y-129460000D03*
X110212500Y-132000000D03*
X110212500Y-129460000D03*
X112752500Y-132000000D03*
X112752500Y-129460000D03*
X115292500Y-132000000D03*
X115292500Y-129460000D03*
X117832500Y-132000000D03*
X117832500Y-129460000D03*
%TD*%
D20*
%TO.C,H1001*%
X66000000Y-106000000D03*
%TD*%
D23*
%TO.C,J3*%
X111214000Y-115445500D03*
D24*
X113714000Y-115445500D03*
X113714000Y-113445500D03*
X111214000Y-113445500D03*
D25*
X106464000Y-110585500D03*
X118464000Y-110585500D03*
%TD*%
D20*
%TO.C,H1002*%
X66000000Y-131000000D03*
%TD*%
D26*
%TO.C,U2*%
X140250000Y-101624000D03*
X140250000Y-102894000D03*
X140250000Y-104164000D03*
X140250000Y-105434000D03*
X140250000Y-106704000D03*
X140250000Y-107974000D03*
X140250000Y-109244000D03*
X140250000Y-110514000D03*
X140250000Y-111784000D03*
X140250000Y-113054000D03*
X140250000Y-114324000D03*
X140250000Y-115594000D03*
X140250000Y-116864000D03*
X140250000Y-118134000D03*
D27*
X142015000Y-119384000D03*
X143285000Y-119384000D03*
X144555000Y-119384000D03*
X145825000Y-119384000D03*
X147095000Y-119384000D03*
X148365000Y-119384000D03*
X149635000Y-119384000D03*
X150905000Y-119384000D03*
X152175000Y-119384000D03*
X153445000Y-119384000D03*
X154715000Y-119384000D03*
X155985000Y-119384000D03*
D26*
X157750000Y-118134000D03*
X157750000Y-116864000D03*
X157750000Y-115594000D03*
X157750000Y-114324000D03*
X157750000Y-113054000D03*
X157750000Y-111784000D03*
X157750000Y-110514000D03*
X157750000Y-109244000D03*
X157750000Y-107974000D03*
X157750000Y-106704000D03*
X157750000Y-105434000D03*
X157750000Y-104164000D03*
X157750000Y-102894000D03*
X157750000Y-101624000D03*
D28*
X146100000Y-107944000D03*
X146100000Y-109344000D03*
X146100000Y-110744000D03*
X146100000Y-110744000D03*
X147500000Y-107944000D03*
X147500000Y-107944000D03*
X147500000Y-109344000D03*
X147500000Y-110744000D03*
X148900000Y-107944000D03*
X148900000Y-109344000D03*
X148900000Y-110744000D03*
%TD*%
D20*
%TO.C,H1004*%
X166000000Y-131000000D03*
%TD*%
D21*
%TO.C,J5*%
X76380000Y-132040000D03*
D22*
X76380000Y-129500000D03*
X78920000Y-132040000D03*
X78920000Y-129500000D03*
X81460000Y-132040000D03*
X81460000Y-129500000D03*
X84000000Y-132040000D03*
X84000000Y-129500000D03*
X86540000Y-132040000D03*
X86540000Y-129500000D03*
X89080000Y-132040000D03*
X89080000Y-129500000D03*
X91620000Y-132040000D03*
X91620000Y-129500000D03*
X94160000Y-132040000D03*
X94160000Y-129500000D03*
%TD*%
D29*
%TO.C,J2*%
X81685000Y-114040000D03*
D30*
X83965000Y-114040000D03*
X86245000Y-114040000D03*
X88525000Y-114040000D03*
X90805000Y-114040000D03*
X80545000Y-111500000D03*
X82825000Y-111500000D03*
X85105000Y-111500000D03*
X87385000Y-111500000D03*
X89665000Y-111500000D03*
X81685000Y-108960000D03*
X83965000Y-108960000D03*
X86245000Y-108960000D03*
X88525000Y-108960000D03*
X90805000Y-108960000D03*
D31*
X98500000Y-111500000D03*
X73500000Y-111500000D03*
%TD*%
D16*
%TO.C,D4*%
X127825000Y-131160000D03*
X130800000Y-131160000D03*
%TD*%
%TO.C,D3*%
X127825000Y-133700000D03*
X130800000Y-133700000D03*
%TD*%
D15*
%TO.C,C1*%
X127171000Y-111528000D03*
X127171000Y-108278000D03*
%TD*%
D17*
%TO.C,JP1*%
X160978000Y-105356000D03*
D18*
X160978000Y-102816000D03*
%TD*%
D17*
%TO.C,J4*%
X161600000Y-113300000D03*
D18*
X161600000Y-115840000D03*
X161600000Y-118380000D03*
X161600000Y-120920000D03*
X161600000Y-123460000D03*
%TD*%
M02*
