%TF.GenerationSoftware,KiCad,Pcbnew,8.0.4*%
%TF.CreationDate,2024-08-13T19:21:48+02:00*%
%TF.ProjectId,pc1715-esp32vga,70633137-3135-42d6-9573-703332766761,2*%
%TF.SameCoordinates,Original*%
%TF.FileFunction,Drillmap*%
%TF.FilePolarity,Positive*%
%FSLAX45Y45*%
G04 Gerber Fmt 4.5, Leading zero omitted, Abs format (unit mm)*
G04 Created by KiCad (PCBNEW 8.0.4) date 2024-08-13 19:21:48*
%MOMM*%
%LPD*%
G01*
G04 APERTURE LIST*
%ADD10C,0.100000*%
%ADD11C,0.200000*%
G04 APERTURE END LIST*
D10*
X6000000Y-10000000D02*
X17200000Y-10000000D01*
X17200000Y-14500000D01*
X6000000Y-14500000D01*
X6000000Y-10000000D01*
D11*
D10*
X10925100Y-10591700D02*
X10990100Y-10656700D01*
X10990100Y-10591700D02*
X10925100Y-10656700D01*
X11503100Y-10591700D02*
X11568100Y-10656700D01*
X11568100Y-10591700D02*
X11503100Y-10656700D01*
D11*
X6255777Y-14816484D02*
X6255777Y-14616484D01*
X6255777Y-14616484D02*
X6303396Y-14616484D01*
X6303396Y-14616484D02*
X6331967Y-14626008D01*
X6331967Y-14626008D02*
X6351015Y-14645055D01*
X6351015Y-14645055D02*
X6360539Y-14664103D01*
X6360539Y-14664103D02*
X6370062Y-14702198D01*
X6370062Y-14702198D02*
X6370062Y-14730769D01*
X6370062Y-14730769D02*
X6360539Y-14768865D01*
X6360539Y-14768865D02*
X6351015Y-14787912D01*
X6351015Y-14787912D02*
X6331967Y-14806960D01*
X6331967Y-14806960D02*
X6303396Y-14816484D01*
X6303396Y-14816484D02*
X6255777Y-14816484D01*
X6455777Y-14816484D02*
X6455777Y-14683150D01*
X6455777Y-14721246D02*
X6465301Y-14702198D01*
X6465301Y-14702198D02*
X6474824Y-14692674D01*
X6474824Y-14692674D02*
X6493872Y-14683150D01*
X6493872Y-14683150D02*
X6512920Y-14683150D01*
X6579586Y-14816484D02*
X6579586Y-14683150D01*
X6579586Y-14616484D02*
X6570062Y-14626008D01*
X6570062Y-14626008D02*
X6579586Y-14635531D01*
X6579586Y-14635531D02*
X6589110Y-14626008D01*
X6589110Y-14626008D02*
X6579586Y-14616484D01*
X6579586Y-14616484D02*
X6579586Y-14635531D01*
X6703396Y-14816484D02*
X6684348Y-14806960D01*
X6684348Y-14806960D02*
X6674824Y-14787912D01*
X6674824Y-14787912D02*
X6674824Y-14616484D01*
X6808158Y-14816484D02*
X6789110Y-14806960D01*
X6789110Y-14806960D02*
X6779586Y-14787912D01*
X6779586Y-14787912D02*
X6779586Y-14616484D01*
X7036729Y-14816484D02*
X7036729Y-14616484D01*
X7036729Y-14616484D02*
X7103396Y-14759341D01*
X7103396Y-14759341D02*
X7170062Y-14616484D01*
X7170062Y-14616484D02*
X7170062Y-14816484D01*
X7351015Y-14816484D02*
X7351015Y-14711722D01*
X7351015Y-14711722D02*
X7341491Y-14692674D01*
X7341491Y-14692674D02*
X7322443Y-14683150D01*
X7322443Y-14683150D02*
X7284348Y-14683150D01*
X7284348Y-14683150D02*
X7265301Y-14692674D01*
X7351015Y-14806960D02*
X7331967Y-14816484D01*
X7331967Y-14816484D02*
X7284348Y-14816484D01*
X7284348Y-14816484D02*
X7265301Y-14806960D01*
X7265301Y-14806960D02*
X7255777Y-14787912D01*
X7255777Y-14787912D02*
X7255777Y-14768865D01*
X7255777Y-14768865D02*
X7265301Y-14749817D01*
X7265301Y-14749817D02*
X7284348Y-14740293D01*
X7284348Y-14740293D02*
X7331967Y-14740293D01*
X7331967Y-14740293D02*
X7351015Y-14730769D01*
X7446253Y-14683150D02*
X7446253Y-14883150D01*
X7446253Y-14692674D02*
X7465301Y-14683150D01*
X7465301Y-14683150D02*
X7503396Y-14683150D01*
X7503396Y-14683150D02*
X7522443Y-14692674D01*
X7522443Y-14692674D02*
X7531967Y-14702198D01*
X7531967Y-14702198D02*
X7541491Y-14721246D01*
X7541491Y-14721246D02*
X7541491Y-14778388D01*
X7541491Y-14778388D02*
X7531967Y-14797436D01*
X7531967Y-14797436D02*
X7522443Y-14806960D01*
X7522443Y-14806960D02*
X7503396Y-14816484D01*
X7503396Y-14816484D02*
X7465301Y-14816484D01*
X7465301Y-14816484D02*
X7446253Y-14806960D01*
X7627205Y-14797436D02*
X7636729Y-14806960D01*
X7636729Y-14806960D02*
X7627205Y-14816484D01*
X7627205Y-14816484D02*
X7617682Y-14806960D01*
X7617682Y-14806960D02*
X7627205Y-14797436D01*
X7627205Y-14797436D02*
X7627205Y-14816484D01*
X7627205Y-14692674D02*
X7636729Y-14702198D01*
X7636729Y-14702198D02*
X7627205Y-14711722D01*
X7627205Y-14711722D02*
X7617682Y-14702198D01*
X7617682Y-14702198D02*
X7627205Y-14692674D01*
X7627205Y-14692674D02*
X7627205Y-14711722D01*
D10*
X5930000Y-15112500D02*
X5995000Y-15177500D01*
X5995000Y-15112500D02*
X5930000Y-15177500D01*
D11*
X6293872Y-15036484D02*
X6312920Y-15036484D01*
X6312920Y-15036484D02*
X6331967Y-15046008D01*
X6331967Y-15046008D02*
X6341491Y-15055531D01*
X6341491Y-15055531D02*
X6351015Y-15074579D01*
X6351015Y-15074579D02*
X6360539Y-15112674D01*
X6360539Y-15112674D02*
X6360539Y-15160293D01*
X6360539Y-15160293D02*
X6351015Y-15198388D01*
X6351015Y-15198388D02*
X6341491Y-15217436D01*
X6341491Y-15217436D02*
X6331967Y-15226960D01*
X6331967Y-15226960D02*
X6312920Y-15236484D01*
X6312920Y-15236484D02*
X6293872Y-15236484D01*
X6293872Y-15236484D02*
X6274824Y-15226960D01*
X6274824Y-15226960D02*
X6265301Y-15217436D01*
X6265301Y-15217436D02*
X6255777Y-15198388D01*
X6255777Y-15198388D02*
X6246253Y-15160293D01*
X6246253Y-15160293D02*
X6246253Y-15112674D01*
X6246253Y-15112674D02*
X6255777Y-15074579D01*
X6255777Y-15074579D02*
X6265301Y-15055531D01*
X6265301Y-15055531D02*
X6274824Y-15046008D01*
X6274824Y-15046008D02*
X6293872Y-15036484D01*
X6446253Y-15217436D02*
X6455777Y-15226960D01*
X6455777Y-15226960D02*
X6446253Y-15236484D01*
X6446253Y-15236484D02*
X6436729Y-15226960D01*
X6436729Y-15226960D02*
X6446253Y-15217436D01*
X6446253Y-15217436D02*
X6446253Y-15236484D01*
X6627205Y-15036484D02*
X6589110Y-15036484D01*
X6589110Y-15036484D02*
X6570062Y-15046008D01*
X6570062Y-15046008D02*
X6560539Y-15055531D01*
X6560539Y-15055531D02*
X6541491Y-15084103D01*
X6541491Y-15084103D02*
X6531967Y-15122198D01*
X6531967Y-15122198D02*
X6531967Y-15198388D01*
X6531967Y-15198388D02*
X6541491Y-15217436D01*
X6541491Y-15217436D02*
X6551015Y-15226960D01*
X6551015Y-15226960D02*
X6570062Y-15236484D01*
X6570062Y-15236484D02*
X6608158Y-15236484D01*
X6608158Y-15236484D02*
X6627205Y-15226960D01*
X6627205Y-15226960D02*
X6636729Y-15217436D01*
X6636729Y-15217436D02*
X6646253Y-15198388D01*
X6646253Y-15198388D02*
X6646253Y-15150769D01*
X6646253Y-15150769D02*
X6636729Y-15131722D01*
X6636729Y-15131722D02*
X6627205Y-15122198D01*
X6627205Y-15122198D02*
X6608158Y-15112674D01*
X6608158Y-15112674D02*
X6570062Y-15112674D01*
X6570062Y-15112674D02*
X6551015Y-15122198D01*
X6551015Y-15122198D02*
X6541491Y-15131722D01*
X6541491Y-15131722D02*
X6531967Y-15150769D01*
X6827205Y-15036484D02*
X6731967Y-15036484D01*
X6731967Y-15036484D02*
X6722443Y-15131722D01*
X6722443Y-15131722D02*
X6731967Y-15122198D01*
X6731967Y-15122198D02*
X6751015Y-15112674D01*
X6751015Y-15112674D02*
X6798634Y-15112674D01*
X6798634Y-15112674D02*
X6817682Y-15122198D01*
X6817682Y-15122198D02*
X6827205Y-15131722D01*
X6827205Y-15131722D02*
X6836729Y-15150769D01*
X6836729Y-15150769D02*
X6836729Y-15198388D01*
X6836729Y-15198388D02*
X6827205Y-15217436D01*
X6827205Y-15217436D02*
X6817682Y-15226960D01*
X6817682Y-15226960D02*
X6798634Y-15236484D01*
X6798634Y-15236484D02*
X6751015Y-15236484D01*
X6751015Y-15236484D02*
X6731967Y-15226960D01*
X6731967Y-15226960D02*
X6722443Y-15217436D01*
X6960539Y-15036484D02*
X6979586Y-15036484D01*
X6979586Y-15036484D02*
X6998634Y-15046008D01*
X6998634Y-15046008D02*
X7008158Y-15055531D01*
X7008158Y-15055531D02*
X7017682Y-15074579D01*
X7017682Y-15074579D02*
X7027205Y-15112674D01*
X7027205Y-15112674D02*
X7027205Y-15160293D01*
X7027205Y-15160293D02*
X7017682Y-15198388D01*
X7017682Y-15198388D02*
X7008158Y-15217436D01*
X7008158Y-15217436D02*
X6998634Y-15226960D01*
X6998634Y-15226960D02*
X6979586Y-15236484D01*
X6979586Y-15236484D02*
X6960539Y-15236484D01*
X6960539Y-15236484D02*
X6941491Y-15226960D01*
X6941491Y-15226960D02*
X6931967Y-15217436D01*
X6931967Y-15217436D02*
X6922443Y-15198388D01*
X6922443Y-15198388D02*
X6912920Y-15160293D01*
X6912920Y-15160293D02*
X6912920Y-15112674D01*
X6912920Y-15112674D02*
X6922443Y-15074579D01*
X6922443Y-15074579D02*
X6931967Y-15055531D01*
X6931967Y-15055531D02*
X6941491Y-15046008D01*
X6941491Y-15046008D02*
X6960539Y-15036484D01*
X7112920Y-15236484D02*
X7112920Y-15103150D01*
X7112920Y-15122198D02*
X7122443Y-15112674D01*
X7122443Y-15112674D02*
X7141491Y-15103150D01*
X7141491Y-15103150D02*
X7170063Y-15103150D01*
X7170063Y-15103150D02*
X7189110Y-15112674D01*
X7189110Y-15112674D02*
X7198634Y-15131722D01*
X7198634Y-15131722D02*
X7198634Y-15236484D01*
X7198634Y-15131722D02*
X7208158Y-15112674D01*
X7208158Y-15112674D02*
X7227205Y-15103150D01*
X7227205Y-15103150D02*
X7255777Y-15103150D01*
X7255777Y-15103150D02*
X7274824Y-15112674D01*
X7274824Y-15112674D02*
X7284348Y-15131722D01*
X7284348Y-15131722D02*
X7284348Y-15236484D01*
X7379586Y-15236484D02*
X7379586Y-15103150D01*
X7379586Y-15122198D02*
X7389110Y-15112674D01*
X7389110Y-15112674D02*
X7408158Y-15103150D01*
X7408158Y-15103150D02*
X7436729Y-15103150D01*
X7436729Y-15103150D02*
X7455777Y-15112674D01*
X7455777Y-15112674D02*
X7465301Y-15131722D01*
X7465301Y-15131722D02*
X7465301Y-15236484D01*
X7465301Y-15131722D02*
X7474824Y-15112674D01*
X7474824Y-15112674D02*
X7493872Y-15103150D01*
X7493872Y-15103150D02*
X7522443Y-15103150D01*
X7522443Y-15103150D02*
X7541491Y-15112674D01*
X7541491Y-15112674D02*
X7551015Y-15131722D01*
X7551015Y-15131722D02*
X7551015Y-15236484D01*
X7941491Y-15026960D02*
X7770063Y-15284103D01*
X8198634Y-15036484D02*
X8217682Y-15036484D01*
X8217682Y-15036484D02*
X8236729Y-15046008D01*
X8236729Y-15046008D02*
X8246253Y-15055531D01*
X8246253Y-15055531D02*
X8255777Y-15074579D01*
X8255777Y-15074579D02*
X8265301Y-15112674D01*
X8265301Y-15112674D02*
X8265301Y-15160293D01*
X8265301Y-15160293D02*
X8255777Y-15198388D01*
X8255777Y-15198388D02*
X8246253Y-15217436D01*
X8246253Y-15217436D02*
X8236729Y-15226960D01*
X8236729Y-15226960D02*
X8217682Y-15236484D01*
X8217682Y-15236484D02*
X8198634Y-15236484D01*
X8198634Y-15236484D02*
X8179586Y-15226960D01*
X8179586Y-15226960D02*
X8170063Y-15217436D01*
X8170063Y-15217436D02*
X8160539Y-15198388D01*
X8160539Y-15198388D02*
X8151015Y-15160293D01*
X8151015Y-15160293D02*
X8151015Y-15112674D01*
X8151015Y-15112674D02*
X8160539Y-15074579D01*
X8160539Y-15074579D02*
X8170063Y-15055531D01*
X8170063Y-15055531D02*
X8179586Y-15046008D01*
X8179586Y-15046008D02*
X8198634Y-15036484D01*
X8351015Y-15217436D02*
X8360539Y-15226960D01*
X8360539Y-15226960D02*
X8351015Y-15236484D01*
X8351015Y-15236484D02*
X8341491Y-15226960D01*
X8341491Y-15226960D02*
X8351015Y-15217436D01*
X8351015Y-15217436D02*
X8351015Y-15236484D01*
X8484348Y-15036484D02*
X8503396Y-15036484D01*
X8503396Y-15036484D02*
X8522444Y-15046008D01*
X8522444Y-15046008D02*
X8531968Y-15055531D01*
X8531968Y-15055531D02*
X8541491Y-15074579D01*
X8541491Y-15074579D02*
X8551015Y-15112674D01*
X8551015Y-15112674D02*
X8551015Y-15160293D01*
X8551015Y-15160293D02*
X8541491Y-15198388D01*
X8541491Y-15198388D02*
X8531968Y-15217436D01*
X8531968Y-15217436D02*
X8522444Y-15226960D01*
X8522444Y-15226960D02*
X8503396Y-15236484D01*
X8503396Y-15236484D02*
X8484348Y-15236484D01*
X8484348Y-15236484D02*
X8465301Y-15226960D01*
X8465301Y-15226960D02*
X8455777Y-15217436D01*
X8455777Y-15217436D02*
X8446253Y-15198388D01*
X8446253Y-15198388D02*
X8436729Y-15160293D01*
X8436729Y-15160293D02*
X8436729Y-15112674D01*
X8436729Y-15112674D02*
X8446253Y-15074579D01*
X8446253Y-15074579D02*
X8455777Y-15055531D01*
X8455777Y-15055531D02*
X8465301Y-15046008D01*
X8465301Y-15046008D02*
X8484348Y-15036484D01*
X8627206Y-15055531D02*
X8636729Y-15046008D01*
X8636729Y-15046008D02*
X8655777Y-15036484D01*
X8655777Y-15036484D02*
X8703396Y-15036484D01*
X8703396Y-15036484D02*
X8722444Y-15046008D01*
X8722444Y-15046008D02*
X8731968Y-15055531D01*
X8731968Y-15055531D02*
X8741491Y-15074579D01*
X8741491Y-15074579D02*
X8741491Y-15093627D01*
X8741491Y-15093627D02*
X8731968Y-15122198D01*
X8731968Y-15122198D02*
X8617682Y-15236484D01*
X8617682Y-15236484D02*
X8741491Y-15236484D01*
X8922444Y-15036484D02*
X8827206Y-15036484D01*
X8827206Y-15036484D02*
X8817682Y-15131722D01*
X8817682Y-15131722D02*
X8827206Y-15122198D01*
X8827206Y-15122198D02*
X8846253Y-15112674D01*
X8846253Y-15112674D02*
X8893872Y-15112674D01*
X8893872Y-15112674D02*
X8912920Y-15122198D01*
X8912920Y-15122198D02*
X8922444Y-15131722D01*
X8922444Y-15131722D02*
X8931968Y-15150769D01*
X8931968Y-15150769D02*
X8931968Y-15198388D01*
X8931968Y-15198388D02*
X8922444Y-15217436D01*
X8922444Y-15217436D02*
X8912920Y-15226960D01*
X8912920Y-15226960D02*
X8893872Y-15236484D01*
X8893872Y-15236484D02*
X8846253Y-15236484D01*
X8846253Y-15236484D02*
X8827206Y-15226960D01*
X8827206Y-15226960D02*
X8817682Y-15217436D01*
X9103396Y-15036484D02*
X9065301Y-15036484D01*
X9065301Y-15036484D02*
X9046253Y-15046008D01*
X9046253Y-15046008D02*
X9036729Y-15055531D01*
X9036729Y-15055531D02*
X9017682Y-15084103D01*
X9017682Y-15084103D02*
X9008158Y-15122198D01*
X9008158Y-15122198D02*
X9008158Y-15198388D01*
X9008158Y-15198388D02*
X9017682Y-15217436D01*
X9017682Y-15217436D02*
X9027206Y-15226960D01*
X9027206Y-15226960D02*
X9046253Y-15236484D01*
X9046253Y-15236484D02*
X9084349Y-15236484D01*
X9084349Y-15236484D02*
X9103396Y-15226960D01*
X9103396Y-15226960D02*
X9112920Y-15217436D01*
X9112920Y-15217436D02*
X9122444Y-15198388D01*
X9122444Y-15198388D02*
X9122444Y-15150769D01*
X9122444Y-15150769D02*
X9112920Y-15131722D01*
X9112920Y-15131722D02*
X9103396Y-15122198D01*
X9103396Y-15122198D02*
X9084349Y-15112674D01*
X9084349Y-15112674D02*
X9046253Y-15112674D01*
X9046253Y-15112674D02*
X9027206Y-15122198D01*
X9027206Y-15122198D02*
X9017682Y-15131722D01*
X9017682Y-15131722D02*
X9008158Y-15150769D01*
X9198634Y-15036484D02*
X9198634Y-15074579D01*
X9274825Y-15036484D02*
X9274825Y-15074579D01*
X9570063Y-15312674D02*
X9560539Y-15303150D01*
X9560539Y-15303150D02*
X9541491Y-15274579D01*
X9541491Y-15274579D02*
X9531968Y-15255531D01*
X9531968Y-15255531D02*
X9522444Y-15226960D01*
X9522444Y-15226960D02*
X9512920Y-15179341D01*
X9512920Y-15179341D02*
X9512920Y-15141246D01*
X9512920Y-15141246D02*
X9522444Y-15093627D01*
X9522444Y-15093627D02*
X9531968Y-15065055D01*
X9531968Y-15065055D02*
X9541491Y-15046008D01*
X9541491Y-15046008D02*
X9560539Y-15017436D01*
X9560539Y-15017436D02*
X9570063Y-15007912D01*
X9636730Y-15055531D02*
X9646253Y-15046008D01*
X9646253Y-15046008D02*
X9665301Y-15036484D01*
X9665301Y-15036484D02*
X9712920Y-15036484D01*
X9712920Y-15036484D02*
X9731968Y-15046008D01*
X9731968Y-15046008D02*
X9741491Y-15055531D01*
X9741491Y-15055531D02*
X9751015Y-15074579D01*
X9751015Y-15074579D02*
X9751015Y-15093627D01*
X9751015Y-15093627D02*
X9741491Y-15122198D01*
X9741491Y-15122198D02*
X9627206Y-15236484D01*
X9627206Y-15236484D02*
X9751015Y-15236484D01*
X9989111Y-15236484D02*
X9989111Y-15036484D01*
X10074825Y-15236484D02*
X10074825Y-15131722D01*
X10074825Y-15131722D02*
X10065301Y-15112674D01*
X10065301Y-15112674D02*
X10046253Y-15103150D01*
X10046253Y-15103150D02*
X10017682Y-15103150D01*
X10017682Y-15103150D02*
X9998634Y-15112674D01*
X9998634Y-15112674D02*
X9989111Y-15122198D01*
X10198634Y-15236484D02*
X10179587Y-15226960D01*
X10179587Y-15226960D02*
X10170063Y-15217436D01*
X10170063Y-15217436D02*
X10160539Y-15198388D01*
X10160539Y-15198388D02*
X10160539Y-15141246D01*
X10160539Y-15141246D02*
X10170063Y-15122198D01*
X10170063Y-15122198D02*
X10179587Y-15112674D01*
X10179587Y-15112674D02*
X10198634Y-15103150D01*
X10198634Y-15103150D02*
X10227206Y-15103150D01*
X10227206Y-15103150D02*
X10246253Y-15112674D01*
X10246253Y-15112674D02*
X10255777Y-15122198D01*
X10255777Y-15122198D02*
X10265301Y-15141246D01*
X10265301Y-15141246D02*
X10265301Y-15198388D01*
X10265301Y-15198388D02*
X10255777Y-15217436D01*
X10255777Y-15217436D02*
X10246253Y-15226960D01*
X10246253Y-15226960D02*
X10227206Y-15236484D01*
X10227206Y-15236484D02*
X10198634Y-15236484D01*
X10379587Y-15236484D02*
X10360539Y-15226960D01*
X10360539Y-15226960D02*
X10351015Y-15207912D01*
X10351015Y-15207912D02*
X10351015Y-15036484D01*
X10531968Y-15226960D02*
X10512920Y-15236484D01*
X10512920Y-15236484D02*
X10474825Y-15236484D01*
X10474825Y-15236484D02*
X10455777Y-15226960D01*
X10455777Y-15226960D02*
X10446253Y-15207912D01*
X10446253Y-15207912D02*
X10446253Y-15131722D01*
X10446253Y-15131722D02*
X10455777Y-15112674D01*
X10455777Y-15112674D02*
X10474825Y-15103150D01*
X10474825Y-15103150D02*
X10512920Y-15103150D01*
X10512920Y-15103150D02*
X10531968Y-15112674D01*
X10531968Y-15112674D02*
X10541492Y-15131722D01*
X10541492Y-15131722D02*
X10541492Y-15150769D01*
X10541492Y-15150769D02*
X10446253Y-15169817D01*
X10617682Y-15226960D02*
X10636730Y-15236484D01*
X10636730Y-15236484D02*
X10674825Y-15236484D01*
X10674825Y-15236484D02*
X10693873Y-15226960D01*
X10693873Y-15226960D02*
X10703396Y-15207912D01*
X10703396Y-15207912D02*
X10703396Y-15198388D01*
X10703396Y-15198388D02*
X10693873Y-15179341D01*
X10693873Y-15179341D02*
X10674825Y-15169817D01*
X10674825Y-15169817D02*
X10646253Y-15169817D01*
X10646253Y-15169817D02*
X10627206Y-15160293D01*
X10627206Y-15160293D02*
X10617682Y-15141246D01*
X10617682Y-15141246D02*
X10617682Y-15131722D01*
X10617682Y-15131722D02*
X10627206Y-15112674D01*
X10627206Y-15112674D02*
X10646253Y-15103150D01*
X10646253Y-15103150D02*
X10674825Y-15103150D01*
X10674825Y-15103150D02*
X10693873Y-15112674D01*
X10770063Y-15312674D02*
X10779587Y-15303150D01*
X10779587Y-15303150D02*
X10798634Y-15274579D01*
X10798634Y-15274579D02*
X10808158Y-15255531D01*
X10808158Y-15255531D02*
X10817682Y-15226960D01*
X10817682Y-15226960D02*
X10827206Y-15179341D01*
X10827206Y-15179341D02*
X10827206Y-15141246D01*
X10827206Y-15141246D02*
X10817682Y-15093627D01*
X10817682Y-15093627D02*
X10808158Y-15065055D01*
X10808158Y-15065055D02*
X10798634Y-15046008D01*
X10798634Y-15046008D02*
X10779587Y-15017436D01*
X10779587Y-15017436D02*
X10770063Y-15007912D01*
X11131968Y-15312674D02*
X11122444Y-15303150D01*
X11122444Y-15303150D02*
X11103396Y-15274579D01*
X11103396Y-15274579D02*
X11093873Y-15255531D01*
X11093873Y-15255531D02*
X11084349Y-15226960D01*
X11084349Y-15226960D02*
X11074825Y-15179341D01*
X11074825Y-15179341D02*
X11074825Y-15141246D01*
X11074825Y-15141246D02*
X11084349Y-15093627D01*
X11084349Y-15093627D02*
X11093873Y-15065055D01*
X11093873Y-15065055D02*
X11103396Y-15046008D01*
X11103396Y-15046008D02*
X11122444Y-15017436D01*
X11122444Y-15017436D02*
X11131968Y-15007912D01*
X11208158Y-15103150D02*
X11208158Y-15236484D01*
X11208158Y-15122198D02*
X11217682Y-15112674D01*
X11217682Y-15112674D02*
X11236730Y-15103150D01*
X11236730Y-15103150D02*
X11265301Y-15103150D01*
X11265301Y-15103150D02*
X11284349Y-15112674D01*
X11284349Y-15112674D02*
X11293872Y-15131722D01*
X11293872Y-15131722D02*
X11293872Y-15236484D01*
X11417682Y-15236484D02*
X11398634Y-15226960D01*
X11398634Y-15226960D02*
X11389111Y-15217436D01*
X11389111Y-15217436D02*
X11379587Y-15198388D01*
X11379587Y-15198388D02*
X11379587Y-15141246D01*
X11379587Y-15141246D02*
X11389111Y-15122198D01*
X11389111Y-15122198D02*
X11398634Y-15112674D01*
X11398634Y-15112674D02*
X11417682Y-15103150D01*
X11417682Y-15103150D02*
X11446253Y-15103150D01*
X11446253Y-15103150D02*
X11465301Y-15112674D01*
X11465301Y-15112674D02*
X11474825Y-15122198D01*
X11474825Y-15122198D02*
X11484349Y-15141246D01*
X11484349Y-15141246D02*
X11484349Y-15198388D01*
X11484349Y-15198388D02*
X11474825Y-15217436D01*
X11474825Y-15217436D02*
X11465301Y-15226960D01*
X11465301Y-15226960D02*
X11446253Y-15236484D01*
X11446253Y-15236484D02*
X11417682Y-15236484D01*
X11541492Y-15103150D02*
X11617682Y-15103150D01*
X11570063Y-15036484D02*
X11570063Y-15207912D01*
X11570063Y-15207912D02*
X11579587Y-15226960D01*
X11579587Y-15226960D02*
X11598634Y-15236484D01*
X11598634Y-15236484D02*
X11617682Y-15236484D01*
X11836730Y-15103150D02*
X11836730Y-15303150D01*
X11836730Y-15112674D02*
X11855777Y-15103150D01*
X11855777Y-15103150D02*
X11893873Y-15103150D01*
X11893873Y-15103150D02*
X11912920Y-15112674D01*
X11912920Y-15112674D02*
X11922444Y-15122198D01*
X11922444Y-15122198D02*
X11931968Y-15141246D01*
X11931968Y-15141246D02*
X11931968Y-15198388D01*
X11931968Y-15198388D02*
X11922444Y-15217436D01*
X11922444Y-15217436D02*
X11912920Y-15226960D01*
X11912920Y-15226960D02*
X11893873Y-15236484D01*
X11893873Y-15236484D02*
X11855777Y-15236484D01*
X11855777Y-15236484D02*
X11836730Y-15226960D01*
X12046253Y-15236484D02*
X12027206Y-15226960D01*
X12027206Y-15226960D02*
X12017682Y-15207912D01*
X12017682Y-15207912D02*
X12017682Y-15036484D01*
X12208158Y-15236484D02*
X12208158Y-15131722D01*
X12208158Y-15131722D02*
X12198634Y-15112674D01*
X12198634Y-15112674D02*
X12179587Y-15103150D01*
X12179587Y-15103150D02*
X12141492Y-15103150D01*
X12141492Y-15103150D02*
X12122444Y-15112674D01*
X12208158Y-15226960D02*
X12189111Y-15236484D01*
X12189111Y-15236484D02*
X12141492Y-15236484D01*
X12141492Y-15236484D02*
X12122444Y-15226960D01*
X12122444Y-15226960D02*
X12112920Y-15207912D01*
X12112920Y-15207912D02*
X12112920Y-15188865D01*
X12112920Y-15188865D02*
X12122444Y-15169817D01*
X12122444Y-15169817D02*
X12141492Y-15160293D01*
X12141492Y-15160293D02*
X12189111Y-15160293D01*
X12189111Y-15160293D02*
X12208158Y-15150769D01*
X12274825Y-15103150D02*
X12351015Y-15103150D01*
X12303396Y-15036484D02*
X12303396Y-15207912D01*
X12303396Y-15207912D02*
X12312920Y-15226960D01*
X12312920Y-15226960D02*
X12331968Y-15236484D01*
X12331968Y-15236484D02*
X12351015Y-15236484D01*
X12493873Y-15226960D02*
X12474825Y-15236484D01*
X12474825Y-15236484D02*
X12436730Y-15236484D01*
X12436730Y-15236484D02*
X12417682Y-15226960D01*
X12417682Y-15226960D02*
X12408158Y-15207912D01*
X12408158Y-15207912D02*
X12408158Y-15131722D01*
X12408158Y-15131722D02*
X12417682Y-15112674D01*
X12417682Y-15112674D02*
X12436730Y-15103150D01*
X12436730Y-15103150D02*
X12474825Y-15103150D01*
X12474825Y-15103150D02*
X12493873Y-15112674D01*
X12493873Y-15112674D02*
X12503396Y-15131722D01*
X12503396Y-15131722D02*
X12503396Y-15150769D01*
X12503396Y-15150769D02*
X12408158Y-15169817D01*
X12674825Y-15236484D02*
X12674825Y-15036484D01*
X12674825Y-15226960D02*
X12655777Y-15236484D01*
X12655777Y-15236484D02*
X12617682Y-15236484D01*
X12617682Y-15236484D02*
X12598634Y-15226960D01*
X12598634Y-15226960D02*
X12589111Y-15217436D01*
X12589111Y-15217436D02*
X12579587Y-15198388D01*
X12579587Y-15198388D02*
X12579587Y-15141246D01*
X12579587Y-15141246D02*
X12589111Y-15122198D01*
X12589111Y-15122198D02*
X12598634Y-15112674D01*
X12598634Y-15112674D02*
X12617682Y-15103150D01*
X12617682Y-15103150D02*
X12655777Y-15103150D01*
X12655777Y-15103150D02*
X12674825Y-15112674D01*
X12751015Y-15312674D02*
X12760539Y-15303150D01*
X12760539Y-15303150D02*
X12779587Y-15274579D01*
X12779587Y-15274579D02*
X12789111Y-15255531D01*
X12789111Y-15255531D02*
X12798634Y-15226960D01*
X12798634Y-15226960D02*
X12808158Y-15179341D01*
X12808158Y-15179341D02*
X12808158Y-15141246D01*
X12808158Y-15141246D02*
X12798634Y-15093627D01*
X12798634Y-15093627D02*
X12789111Y-15065055D01*
X12789111Y-15065055D02*
X12779587Y-15046008D01*
X12779587Y-15046008D02*
X12760539Y-15017436D01*
X12760539Y-15017436D02*
X12751015Y-15007912D01*
M02*
