%TF.GenerationSoftware,KiCad,Pcbnew,8.0.4*%
%TF.CreationDate,2024-08-13T19:21:43+02:00*%
%TF.ProjectId,pc1715-esp32vga,70633137-3135-42d6-9573-703332766761,2*%
%TF.SameCoordinates,Original*%
%TF.FileFunction,Paste,Top*%
%TF.FilePolarity,Positive*%
%FSLAX46Y46*%
G04 Gerber Fmt 4.6, Leading zero omitted, Abs format (unit mm)*
G04 Created by KiCad (PCBNEW 8.0.4) date 2024-08-13 19:21:43*
%MOMM*%
%LPD*%
G01*
G04 APERTURE LIST*
G04 Aperture macros list*
%AMRoundRect*
0 Rectangle with rounded corners*
0 $1 Rounding radius*
0 $2 $3 $4 $5 $6 $7 $8 $9 X,Y pos of 4 corners*
0 Add a 4 corners polygon primitive as box body*
4,1,4,$2,$3,$4,$5,$6,$7,$8,$9,$2,$3,0*
0 Add four circle primitives for the rounded corners*
1,1,$1+$1,$2,$3*
1,1,$1+$1,$4,$5*
1,1,$1+$1,$6,$7*
1,1,$1+$1,$8,$9*
0 Add four rect primitives between the rounded corners*
20,1,$1+$1,$2,$3,$4,$5,0*
20,1,$1+$1,$4,$5,$6,$7,0*
20,1,$1+$1,$6,$7,$8,$9,0*
20,1,$1+$1,$8,$9,$2,$3,0*%
G04 Aperture macros list end*
%ADD10RoundRect,0.150000X0.150000X0.425000X-0.150000X0.425000X-0.150000X-0.425000X0.150000X-0.425000X0*%
%ADD11RoundRect,0.075000X0.075000X0.500000X-0.075000X0.500000X-0.075000X-0.500000X0.075000X-0.500000X0*%
%ADD12O,1.000000X2.100000*%
%ADD13O,1.000000X1.800000*%
%ADD14RoundRect,0.250001X0.924999X-0.499999X0.924999X0.499999X-0.924999X0.499999X-0.924999X-0.499999X0*%
%ADD15RoundRect,0.250000X0.450000X-0.325000X0.450000X0.325000X-0.450000X0.325000X-0.450000X-0.325000X0*%
%ADD16R,1.500000X0.900000*%
%ADD17R,0.900000X1.500000*%
%ADD18R,0.900000X0.900000*%
G04 APERTURE END LIST*
D10*
%TO.C,J6*%
X115666000Y-107317000D03*
X114866000Y-107317000D03*
D11*
X113716000Y-107317000D03*
X112716000Y-107317000D03*
X112216000Y-107317000D03*
X111216000Y-107317000D03*
D10*
X110066000Y-107317000D03*
X109266000Y-107317000D03*
X109266000Y-107317000D03*
X110066000Y-107317000D03*
D11*
X110716000Y-107317000D03*
X111716000Y-107317000D03*
X113216000Y-107317000D03*
X114216000Y-107317000D03*
D10*
X114866000Y-107317000D03*
X115666000Y-107317000D03*
D12*
X116786000Y-106742000D03*
D13*
X116786000Y-102562000D03*
D12*
X108146000Y-106742000D03*
D13*
X108146000Y-102562000D03*
%TD*%
D14*
%TO.C,C2*%
X123665000Y-111528000D03*
X123665000Y-108278000D03*
%TD*%
D15*
%TO.C,D2*%
X131100000Y-117750000D03*
X131100000Y-115700000D03*
%TD*%
D16*
%TO.C,U2*%
X140250000Y-101624000D03*
X140250000Y-102894000D03*
X140250000Y-104164000D03*
X140250000Y-105434000D03*
X140250000Y-106704000D03*
X140250000Y-107974000D03*
X140250000Y-109244000D03*
X140250000Y-110514000D03*
X140250000Y-111784000D03*
X140250000Y-113054000D03*
X140250000Y-114324000D03*
X140250000Y-115594000D03*
X140250000Y-116864000D03*
X140250000Y-118134000D03*
D17*
X142015000Y-119384000D03*
X143285000Y-119384000D03*
X144555000Y-119384000D03*
X145825000Y-119384000D03*
X147095000Y-119384000D03*
X148365000Y-119384000D03*
X149635000Y-119384000D03*
X150905000Y-119384000D03*
X152175000Y-119384000D03*
X153445000Y-119384000D03*
X154715000Y-119384000D03*
X155985000Y-119384000D03*
D16*
X157750000Y-118134000D03*
X157750000Y-116864000D03*
X157750000Y-115594000D03*
X157750000Y-114324000D03*
X157750000Y-113054000D03*
X157750000Y-111784000D03*
X157750000Y-110514000D03*
X157750000Y-109244000D03*
X157750000Y-107974000D03*
X157750000Y-106704000D03*
X157750000Y-105434000D03*
X157750000Y-104164000D03*
X157750000Y-102894000D03*
X157750000Y-101624000D03*
D18*
X146100000Y-107944000D03*
X146100000Y-109344000D03*
X146100000Y-110744000D03*
X146100000Y-110744000D03*
X147500000Y-107944000D03*
X147500000Y-107944000D03*
X147500000Y-109344000D03*
X147500000Y-110744000D03*
X148900000Y-107944000D03*
X148900000Y-109344000D03*
X148900000Y-110744000D03*
%TD*%
D14*
%TO.C,C1*%
X127171000Y-111528000D03*
X127171000Y-108278000D03*
%TD*%
M02*
