%TF.GenerationSoftware,KiCad,Pcbnew,8.0.4*%
%TF.CreationDate,2024-08-04T15:04:20+02:00*%
%TF.ProjectId,pc1715-esp32vga,70633137-3135-42d6-9573-703332766761,2*%
%TF.SameCoordinates,Original*%
%TF.FileFunction,Soldermask,Bot*%
%TF.FilePolarity,Negative*%
%FSLAX46Y46*%
G04 Gerber Fmt 4.6, Leading zero omitted, Abs format (unit mm)*
G04 Created by KiCad (PCBNEW 8.0.4) date 2024-08-04 15:04:20*
%MOMM*%
%LPD*%
G01*
G04 APERTURE LIST*
G04 Aperture macros list*
%AMRoundRect*
0 Rectangle with rounded corners*
0 $1 Rounding radius*
0 $2 $3 $4 $5 $6 $7 $8 $9 X,Y pos of 4 corners*
0 Add a 4 corners polygon primitive as box body*
4,1,4,$2,$3,$4,$5,$6,$7,$8,$9,$2,$3,0*
0 Add four circle primitives for the rounded corners*
1,1,$1+$1,$2,$3*
1,1,$1+$1,$4,$5*
1,1,$1+$1,$6,$7*
1,1,$1+$1,$8,$9*
0 Add four rect primitives between the rounded corners*
20,1,$1+$1,$2,$3,$4,$5,0*
20,1,$1+$1,$4,$5,$6,$7,0*
20,1,$1+$1,$6,$7,$8,$9,0*
20,1,$1+$1,$8,$9,$2,$3,0*%
G04 Aperture macros list end*
%ADD10C,0.650000*%
%ADD11O,1.000000X2.100000*%
%ADD12O,1.000000X1.800000*%
%ADD13R,1.700000X1.700000*%
%ADD14O,1.700000X1.700000*%
%ADD15C,5.700000*%
%ADD16RoundRect,0.250000X0.600000X-0.600000X0.600000X0.600000X-0.600000X0.600000X-0.600000X-0.600000X0*%
%ADD17C,1.700000*%
%ADD18R,1.600000X1.600000*%
%ADD19C,1.600000*%
%ADD20C,4.000000*%
%ADD21RoundRect,0.102000X0.892500X0.892500X-0.892500X0.892500X-0.892500X-0.892500X0.892500X-0.892500X0*%
%ADD22C,1.989000*%
%ADD23C,4.400000*%
%ADD24RoundRect,0.250000X0.350000X0.450000X-0.350000X0.450000X-0.350000X-0.450000X0.350000X-0.450000X0*%
%ADD25RoundRect,0.250000X-0.350000X-0.450000X0.350000X-0.450000X0.350000X0.450000X-0.350000X0.450000X0*%
%ADD26RoundRect,0.250000X-0.450000X0.350000X-0.450000X-0.350000X0.450000X-0.350000X0.450000X0.350000X0*%
%ADD27RoundRect,0.375000X0.375000X-0.625000X0.375000X0.625000X-0.375000X0.625000X-0.375000X-0.625000X0*%
%ADD28RoundRect,0.500000X1.400000X-0.500000X1.400000X0.500000X-1.400000X0.500000X-1.400000X-0.500000X0*%
%ADD29RoundRect,0.150000X-0.587500X-0.150000X0.587500X-0.150000X0.587500X0.150000X-0.587500X0.150000X0*%
G04 APERTURE END LIST*
D10*
%TO.C,J6*%
X115356000Y-106242000D03*
X109576000Y-106242000D03*
D11*
X116786000Y-106742000D03*
D12*
X116786000Y-102562000D03*
D11*
X108146000Y-106742000D03*
D12*
X108146000Y-102562000D03*
%TD*%
D13*
%TO.C,J7*%
X160300000Y-134100000D03*
D14*
X157760000Y-134100000D03*
X155220000Y-134100000D03*
X152680000Y-134100000D03*
X150140000Y-134100000D03*
X147600000Y-134100000D03*
X145060000Y-134100000D03*
%TD*%
D15*
%TO.C,H1003*%
X166000000Y-106000000D03*
%TD*%
D16*
%TO.C,J1*%
X107672500Y-132000000D03*
D17*
X107672500Y-129460000D03*
X110212500Y-132000000D03*
X110212500Y-129460000D03*
X112752500Y-132000000D03*
X112752500Y-129460000D03*
X115292500Y-132000000D03*
X115292500Y-129460000D03*
X117832500Y-132000000D03*
X117832500Y-129460000D03*
%TD*%
D15*
%TO.C,H1001*%
X66000000Y-106000000D03*
%TD*%
D18*
%TO.C,J3*%
X111214000Y-115445500D03*
D19*
X113714000Y-115445500D03*
X113714000Y-113445500D03*
X111214000Y-113445500D03*
D20*
X106464000Y-110585500D03*
X118464000Y-110585500D03*
%TD*%
D15*
%TO.C,H1002*%
X66000000Y-131000000D03*
%TD*%
%TO.C,H1004*%
X166000000Y-131000000D03*
%TD*%
D16*
%TO.C,J5*%
X76380000Y-132040000D03*
D17*
X76380000Y-129500000D03*
X78920000Y-132040000D03*
X78920000Y-129500000D03*
X81460000Y-132040000D03*
X81460000Y-129500000D03*
X84000000Y-132040000D03*
X84000000Y-129500000D03*
X86540000Y-132040000D03*
X86540000Y-129500000D03*
X89080000Y-132040000D03*
X89080000Y-129500000D03*
X91620000Y-132040000D03*
X91620000Y-129500000D03*
X94160000Y-132040000D03*
X94160000Y-129500000D03*
%TD*%
D21*
%TO.C,J2*%
X81685000Y-114040000D03*
D22*
X83965000Y-114040000D03*
X86245000Y-114040000D03*
X88525000Y-114040000D03*
X90805000Y-114040000D03*
X80545000Y-111500000D03*
X82825000Y-111500000D03*
X85105000Y-111500000D03*
X87385000Y-111500000D03*
X89665000Y-111500000D03*
X81685000Y-108960000D03*
X83965000Y-108960000D03*
X86245000Y-108960000D03*
X88525000Y-108960000D03*
X90805000Y-108960000D03*
D23*
X98500000Y-111500000D03*
X73500000Y-111500000D03*
%TD*%
D13*
%TO.C,JP1*%
X160978000Y-105356000D03*
D14*
X160978000Y-102816000D03*
%TD*%
D24*
%TO.C,R8*%
X136086000Y-109110000D03*
X134086000Y-109110000D03*
%TD*%
%TO.C,R6*%
X136086000Y-105610000D03*
X134086000Y-105610000D03*
%TD*%
%TO.C,R1*%
X138380000Y-130775000D03*
X136380000Y-130775000D03*
%TD*%
D25*
%TO.C,R9*%
X143960000Y-112610000D03*
X145960000Y-112610000D03*
%TD*%
D26*
%TO.C,R13*%
X116274000Y-122914000D03*
X116274000Y-124914000D03*
%TD*%
D27*
%TO.C,U1*%
X128950500Y-111591500D03*
X126650500Y-111591500D03*
D28*
X126650500Y-105291500D03*
D27*
X124350500Y-111591500D03*
%TD*%
D25*
%TO.C,R7*%
X144010000Y-109110000D03*
X146010000Y-109110000D03*
%TD*%
%TO.C,R5*%
X144010000Y-105610000D03*
X146010000Y-105610000D03*
%TD*%
D26*
%TO.C,R12*%
X114086000Y-122914000D03*
X114086000Y-124914000D03*
%TD*%
D24*
%TO.C,R4*%
X129825000Y-131160000D03*
X127825000Y-131160000D03*
%TD*%
%TO.C,R3*%
X129825000Y-133700000D03*
X127825000Y-133700000D03*
%TD*%
%TO.C,R10*%
X136086000Y-112610000D03*
X134086000Y-112610000D03*
%TD*%
D29*
%TO.C,D1*%
X105001000Y-116466000D03*
X105001000Y-114566000D03*
X106876000Y-115516000D03*
%TD*%
D24*
%TO.C,R2*%
X129841000Y-128620000D03*
X127841000Y-128620000D03*
%TD*%
D26*
%TO.C,R11*%
X111956000Y-122898000D03*
X111956000Y-124898000D03*
%TD*%
D13*
%TO.C,J4*%
X161600000Y-113300000D03*
D14*
X161600000Y-115840000D03*
X161600000Y-118380000D03*
X161600000Y-120920000D03*
X161600000Y-123460000D03*
%TD*%
M02*
