%TF.GenerationSoftware,KiCad,Pcbnew,8.0.1*%
%TF.CreationDate,2024-03-28T11:36:41+01:00*%
%TF.ProjectId,pc1715-esp32vga,70633137-3135-42d6-9573-703332766761,rev?*%
%TF.SameCoordinates,Original*%
%TF.FileFunction,Copper,L1,Top*%
%TF.FilePolarity,Positive*%
%FSLAX46Y46*%
G04 Gerber Fmt 4.6, Leading zero omitted, Abs format (unit mm)*
G04 Created by KiCad (PCBNEW 8.0.1) date 2024-03-28 11:36:41*
%MOMM*%
%LPD*%
G01*
G04 APERTURE LIST*
G04 Aperture macros list*
%AMRoundRect*
0 Rectangle with rounded corners*
0 $1 Rounding radius*
0 $2 $3 $4 $5 $6 $7 $8 $9 X,Y pos of 4 corners*
0 Add a 4 corners polygon primitive as box body*
4,1,4,$2,$3,$4,$5,$6,$7,$8,$9,$2,$3,0*
0 Add four circle primitives for the rounded corners*
1,1,$1+$1,$2,$3*
1,1,$1+$1,$4,$5*
1,1,$1+$1,$6,$7*
1,1,$1+$1,$8,$9*
0 Add four rect primitives between the rounded corners*
20,1,$1+$1,$2,$3,$4,$5,0*
20,1,$1+$1,$4,$5,$6,$7,0*
20,1,$1+$1,$6,$7,$8,$9,0*
20,1,$1+$1,$8,$9,$2,$3,0*%
G04 Aperture macros list end*
%TA.AperFunction,SMDPad,CuDef*%
%ADD10RoundRect,0.250001X-0.624999X0.462499X-0.624999X-0.462499X0.624999X-0.462499X0.624999X0.462499X0*%
%TD*%
%TA.AperFunction,SMDPad,CuDef*%
%ADD11RoundRect,0.250001X0.924999X-0.499999X0.924999X0.499999X-0.924999X0.499999X-0.924999X-0.499999X0*%
%TD*%
%TA.AperFunction,SMDPad,CuDef*%
%ADD12R,1.300000X1.550000*%
%TD*%
%TA.AperFunction,SMDPad,CuDef*%
%ADD13R,1.500000X1.500000*%
%TD*%
%TA.AperFunction,SMDPad,CuDef*%
%ADD14RoundRect,0.250000X-0.450000X0.350000X-0.450000X-0.350000X0.450000X-0.350000X0.450000X0.350000X0*%
%TD*%
%TA.AperFunction,SMDPad,CuDef*%
%ADD15RoundRect,0.250000X0.350000X0.450000X-0.350000X0.450000X-0.350000X-0.450000X0.350000X-0.450000X0*%
%TD*%
%TA.AperFunction,ComponentPad*%
%ADD16R,2.200000X2.200000*%
%TD*%
%TA.AperFunction,ComponentPad*%
%ADD17O,2.200000X2.200000*%
%TD*%
%TA.AperFunction,ComponentPad*%
%ADD18C,5.700000*%
%TD*%
%TA.AperFunction,ComponentPad*%
%ADD19RoundRect,0.250000X0.600000X-0.600000X0.600000X0.600000X-0.600000X0.600000X-0.600000X-0.600000X0*%
%TD*%
%TA.AperFunction,ComponentPad*%
%ADD20C,1.700000*%
%TD*%
%TA.AperFunction,SMDPad,CuDef*%
%ADD21RoundRect,0.250000X0.450000X-0.350000X0.450000X0.350000X-0.450000X0.350000X-0.450000X-0.350000X0*%
%TD*%
%TA.AperFunction,ComponentPad*%
%ADD22R,1.600000X1.600000*%
%TD*%
%TA.AperFunction,ComponentPad*%
%ADD23C,1.600000*%
%TD*%
%TA.AperFunction,ComponentPad*%
%ADD24C,4.000000*%
%TD*%
%TA.AperFunction,SMDPad,CuDef*%
%ADD25R,1.500000X0.900000*%
%TD*%
%TA.AperFunction,SMDPad,CuDef*%
%ADD26R,0.900000X1.500000*%
%TD*%
%TA.AperFunction,SMDPad,CuDef*%
%ADD27R,0.900000X0.900000*%
%TD*%
%TA.AperFunction,ComponentPad*%
%ADD28R,1.785000X1.785000*%
%TD*%
%TA.AperFunction,ComponentPad*%
%ADD29C,1.785000*%
%TD*%
%TA.AperFunction,ComponentPad*%
%ADD30C,4.196000*%
%TD*%
%TA.AperFunction,ComponentPad*%
%ADD31R,1.700000X1.700000*%
%TD*%
%TA.AperFunction,ComponentPad*%
%ADD32O,1.700000X1.700000*%
%TD*%
%TA.AperFunction,ViaPad*%
%ADD33C,0.800000*%
%TD*%
%TA.AperFunction,Conductor*%
%ADD34C,0.500000*%
%TD*%
%TA.AperFunction,Conductor*%
%ADD35C,0.250000*%
%TD*%
%TA.AperFunction,Conductor*%
%ADD36C,0.700000*%
%TD*%
%TA.AperFunction,Conductor*%
%ADD37C,0.200000*%
%TD*%
G04 APERTURE END LIST*
D10*
%TO.P,D1003,1,K*%
%TO.N,Net-(D1003-K)*%
X177546000Y-79030500D03*
%TO.P,D1003,2,A*%
%TO.N,+3.3V*%
X177546000Y-82005500D03*
%TD*%
D11*
%TO.P,C1002,1*%
%TO.N,+5V*%
X167665000Y-60528000D03*
%TO.P,C1002,2*%
%TO.N,GND*%
X167665000Y-57278000D03*
%TD*%
D12*
%TO.P,SW1001,1,1*%
%TO.N,GND*%
X186726000Y-83985000D03*
X186726000Y-76035000D03*
%TO.P,SW1001,2,2*%
%TO.N,Net-(U1001-EN)*%
X191226000Y-83985000D03*
X191226000Y-76035000D03*
%TD*%
D13*
%TO.P,TP1002,1,1*%
%TO.N,Net-(U1001-GPIO14{slash}TOUCH14{slash}ADC2_CH3{slash}FSPIWP{slash}FSPIDQS{slash}SUBSPIWP)*%
X204241400Y-81508600D03*
%TD*%
D14*
%TO.P,R1010,1*%
%TO.N,Net-(U1001-EN)*%
X193802000Y-82058000D03*
%TO.P,R1010,2*%
%TO.N,+3.3V*%
X193802000Y-84058000D03*
%TD*%
D15*
%TO.P,R1008,1*%
%TO.N,/R1*%
X180120000Y-61610000D03*
%TO.P,R1008,2*%
%TO.N,/RED*%
X178120000Y-61610000D03*
%TD*%
D16*
%TO.P,D1002,1,K*%
%TO.N,+5V*%
X160528000Y-69596000D03*
D17*
%TO.P,D1002,2,A*%
%TO.N,Net-(D1002-A)*%
X152908000Y-69596000D03*
%TD*%
D18*
%TO.P,H1003,1*%
%TO.N,N/C*%
X210000000Y-55000000D03*
%TD*%
D19*
%TO.P,J1001,1,Pin_1*%
%TO.N,Net-(D1001-A)*%
X151672500Y-81000000D03*
D20*
%TO.P,J1001,2,Pin_2*%
X151672500Y-78460000D03*
%TO.P,J1001,3,Pin_3*%
%TO.N,+3.3V*%
X154212500Y-81000000D03*
%TO.P,J1001,4,Pin_4*%
%TO.N,/VIDEO*%
X154212500Y-78460000D03*
%TO.P,J1001,5,Pin_5*%
%TO.N,GND*%
X156752500Y-81000000D03*
%TO.P,J1001,6,Pin_6*%
%TO.N,/INTENS*%
X156752500Y-78460000D03*
%TO.P,J1001,7,Pin_7*%
%TO.N,GND*%
X159292500Y-81000000D03*
%TO.P,J1001,8,Pin_8*%
X159292500Y-78460000D03*
%TO.P,J1001,9,Pin_9*%
X161832500Y-81000000D03*
%TO.P,J1001,10,Pin_10*%
%TO.N,/BSYNC*%
X161832500Y-78460000D03*
%TD*%
D15*
%TO.P,R1011,1*%
%TO.N,+3.3V*%
X173500000Y-77500000D03*
%TO.P,R1011,2*%
%TO.N,/BSYNC*%
X171500000Y-77500000D03*
%TD*%
D18*
%TO.P,H1001,1*%
%TO.N,N/C*%
X110000000Y-55000000D03*
%TD*%
D21*
%TO.P,R1001,1*%
%TO.N,GND*%
X181102000Y-81495500D03*
%TO.P,R1001,2*%
%TO.N,Net-(D1003-K)*%
X181102000Y-79495500D03*
%TD*%
D22*
%TO.P,J1003,1,VBUS*%
%TO.N,Net-(D1002-A)*%
X155214000Y-64445500D03*
D23*
%TO.P,J1003,2,D-*%
%TO.N,/USB_DN*%
X157714000Y-64445500D03*
%TO.P,J1003,3,D+*%
%TO.N,/USB_DP*%
X157714000Y-62445500D03*
%TO.P,J1003,4,GND*%
%TO.N,GND*%
X155214000Y-62445500D03*
D24*
%TO.P,J1003,5,Shield*%
X150464000Y-59585500D03*
X162464000Y-59585500D03*
%TD*%
D18*
%TO.P,H1002,1*%
%TO.N,N/C*%
X110000000Y-80000000D03*
%TD*%
D25*
%TO.P,U1001,1,GND*%
%TO.N,GND*%
X184250000Y-50624000D03*
%TO.P,U1001,2,3V3*%
%TO.N,+3.3V*%
X184250000Y-51894000D03*
%TO.P,U1001,3,EN*%
%TO.N,Net-(U1001-EN)*%
X184250000Y-53164000D03*
%TO.P,U1001,4,GPIO4/TOUCH4/ADC1_CH3*%
%TO.N,/B1*%
X184250000Y-54434000D03*
%TO.P,U1001,5,GPIO5/TOUCH5/ADC1_CH4*%
%TO.N,/B2*%
X184250000Y-55704000D03*
%TO.P,U1001,6,GPIO6/TOUCH6/ADC1_CH5*%
%TO.N,/G1*%
X184250000Y-56974000D03*
%TO.P,U1001,7,GPIO7/TOUCH7/ADC1_CH6*%
%TO.N,/G2*%
X184250000Y-58244000D03*
%TO.P,U1001,8,GPIO15/U0RTS/ADC2_CH4/XTAL_32K_P*%
%TO.N,/R2*%
X184250000Y-59514000D03*
%TO.P,U1001,9,GPIO16/U0CTS/ADC2_CH5/XTAL_32K_N*%
%TO.N,/R1*%
X184250000Y-60784000D03*
%TO.P,U1001,10,GPIO17/U1TXD/ADC2_CH6*%
%TO.N,/VSYNC*%
X184250000Y-62054000D03*
%TO.P,U1001,11,GPIO18/U1RXD/ADC2_CH7/CLK_OUT3*%
%TO.N,/HSYNC*%
X184250000Y-63324000D03*
%TO.P,U1001,12,GPIO8/TOUCH8/ADC1_CH7/SUBSPICS1*%
%TO.N,unconnected-(U1001-GPIO8{slash}TOUCH8{slash}ADC1_CH7{slash}SUBSPICS1-Pad12)*%
X184250000Y-64594000D03*
%TO.P,U1001,13,GPIO19/U1RTS/ADC2_CH8/CLK_OUT2/USB_D-*%
%TO.N,/USB_DN*%
X184250000Y-65864000D03*
%TO.P,U1001,14,GPIO20/U1CTS/ADC2_CH9/CLK_OUT1/USB_D+*%
%TO.N,/USB_DP*%
X184250000Y-67134000D03*
D26*
%TO.P,U1001,15,GPIO3/TOUCH3/ADC1_CH2*%
%TO.N,unconnected-(U1001-GPIO3{slash}TOUCH3{slash}ADC1_CH2-Pad15)*%
X186015000Y-68384000D03*
%TO.P,U1001,16,GPIO46*%
%TO.N,unconnected-(U1001-GPIO46-Pad16)*%
X187285000Y-68384000D03*
%TO.P,U1001,17,GPIO9/TOUCH9/ADC1_CH8/FSPIHD/SUBSPIHD*%
%TO.N,unconnected-(U1001-GPIO9{slash}TOUCH9{slash}ADC1_CH8{slash}FSPIHD{slash}SUBSPIHD-Pad17)*%
X188555000Y-68384000D03*
%TO.P,U1001,18,GPIO10/TOUCH10/ADC1_CH9/FSPICS0/FSPIIO4/SUBSPICS0*%
%TO.N,unconnected-(U1001-GPIO10{slash}TOUCH10{slash}ADC1_CH9{slash}FSPICS0{slash}FSPIIO4{slash}SUBSPICS0-Pad18)*%
X189825000Y-68384000D03*
%TO.P,U1001,19,GPIO11/TOUCH11/ADC2_CH0/FSPID/FSPIIO5/SUBSPID*%
%TO.N,unconnected-(U1001-GPIO11{slash}TOUCH11{slash}ADC2_CH0{slash}FSPID{slash}FSPIIO5{slash}SUBSPID-Pad19)*%
X191095000Y-68384000D03*
%TO.P,U1001,20,GPIO12/TOUCH12/ADC2_CH1/FSPICLK/FSPIIO6/SUBSPICLK*%
%TO.N,unconnected-(U1001-GPIO12{slash}TOUCH12{slash}ADC2_CH1{slash}FSPICLK{slash}FSPIIO6{slash}SUBSPICLK-Pad20)*%
X192365000Y-68384000D03*
%TO.P,U1001,21,GPIO13/TOUCH13/ADC2_CH2/FSPIQ/FSPIIO7/SUBSPIQ*%
%TO.N,Net-(U1001-GPIO13{slash}TOUCH13{slash}ADC2_CH2{slash}FSPIQ{slash}FSPIIO7{slash}SUBSPIQ)*%
X193635000Y-68384000D03*
%TO.P,U1001,22,GPIO14/TOUCH14/ADC2_CH3/FSPIWP/FSPIDQS/SUBSPIWP*%
%TO.N,Net-(U1001-GPIO14{slash}TOUCH14{slash}ADC2_CH3{slash}FSPIWP{slash}FSPIDQS{slash}SUBSPIWP)*%
X194905000Y-68384000D03*
%TO.P,U1001,23,GPIO21*%
%TO.N,/BSYNC*%
X196175000Y-68384000D03*
%TO.P,U1001,24,GPIO47/SPICLK_P/SUBSPICLK_P_DIFF*%
%TO.N,/VIDEO*%
X197445000Y-68384000D03*
%TO.P,U1001,25,GPIO48/SPICLK_N/SUBSPICLK_N_DIFF*%
%TO.N,/INTENS*%
X198715000Y-68384000D03*
%TO.P,U1001,26,GPIO45*%
%TO.N,/BSYNC*%
X199985000Y-68384000D03*
D25*
%TO.P,U1001,27,GPIO0/BOOT*%
%TO.N,Net-(JP1001-A)*%
X201750000Y-67134000D03*
%TO.P,U1001,28,SPIIO6/GPIO35/FSPID/SUBSPID*%
%TO.N,unconnected-(U1001-SPIIO6{slash}GPIO35{slash}FSPID{slash}SUBSPID-Pad28)*%
X201750000Y-65864000D03*
%TO.P,U1001,29,SPIIO7/GPIO36/FSPICLK/SUBSPICLK*%
%TO.N,unconnected-(U1001-SPIIO7{slash}GPIO36{slash}FSPICLK{slash}SUBSPICLK-Pad29)*%
X201750000Y-64594000D03*
%TO.P,U1001,30,SPIDQS/GPIO37/FSPIQ/SUBSPIQ*%
%TO.N,unconnected-(U1001-SPIDQS{slash}GPIO37{slash}FSPIQ{slash}SUBSPIQ-Pad30)*%
X201750000Y-63324000D03*
%TO.P,U1001,31,GPIO38/FSPIWP/SUBSPIWP*%
%TO.N,/K_LEFT*%
X201750000Y-62054000D03*
%TO.P,U1001,32,MTCK/GPIO39/CLK_OUT3/SUBSPICS1*%
%TO.N,/K_UP*%
X201750000Y-60784000D03*
%TO.P,U1001,33,MTDO/GPIO40/CLK_OUT2*%
%TO.N,/K_DOWN*%
X201750000Y-59514000D03*
%TO.P,U1001,34,MTDI/GPIO41/CLK_OUT1*%
%TO.N,/K_RIGHT*%
X201750000Y-58244000D03*
%TO.P,U1001,35,MTMS/GPIO42*%
%TO.N,unconnected-(U1001-MTMS{slash}GPIO42-Pad35)*%
X201750000Y-56974000D03*
%TO.P,U1001,36,U0RXD/GPIO44/CLK_OUT2*%
%TO.N,unconnected-(U1001-U0RXD{slash}GPIO44{slash}CLK_OUT2-Pad36)*%
X201750000Y-55704000D03*
%TO.P,U1001,37,U0TXD/GPIO43/CLK_OUT1*%
%TO.N,unconnected-(U1001-U0TXD{slash}GPIO43{slash}CLK_OUT1-Pad37)*%
X201750000Y-54434000D03*
%TO.P,U1001,38,GPIO2/TOUCH2/ADC1_CH1*%
%TO.N,unconnected-(U1001-GPIO2{slash}TOUCH2{slash}ADC1_CH1-Pad38)*%
X201750000Y-53164000D03*
%TO.P,U1001,39,GPIO1/TOUCH1/ADC1_CH0*%
%TO.N,unconnected-(U1001-GPIO1{slash}TOUCH1{slash}ADC1_CH0-Pad39)*%
X201750000Y-51894000D03*
%TO.P,U1001,40,GND*%
%TO.N,GND*%
X201750000Y-50624000D03*
D27*
%TO.P,U1001,41,GND*%
X190100000Y-56944000D03*
X190100000Y-58344000D03*
X190100000Y-59744000D03*
X190100000Y-59744000D03*
X191500000Y-56944000D03*
X191500000Y-56944000D03*
X191500000Y-58344000D03*
X191500000Y-59744000D03*
X192900000Y-56944000D03*
X192900000Y-58344000D03*
X192900000Y-59744000D03*
%TD*%
D15*
%TO.P,R1006,1*%
%TO.N,/G1*%
X180070000Y-58110000D03*
%TO.P,R1006,2*%
%TO.N,/GREEN*%
X178070000Y-58110000D03*
%TD*%
D18*
%TO.P,H1004,1*%
%TO.N,N/C*%
X210000000Y-80000000D03*
%TD*%
D19*
%TO.P,J1005,1,Pin_1*%
%TO.N,/RED*%
X120380000Y-81040000D03*
D20*
%TO.P,J1005,2,Pin_2*%
%TO.N,/GREEN*%
X120380000Y-78500000D03*
%TO.P,J1005,3,Pin_3*%
%TO.N,/BLUE*%
X122920000Y-81040000D03*
%TO.P,J1005,4,Pin_4*%
%TO.N,unconnected-(J1005-Pin_4-Pad4)*%
X122920000Y-78500000D03*
%TO.P,J1005,5,Pin_5*%
%TO.N,GND*%
X125460000Y-81040000D03*
%TO.P,J1005,6,Pin_6*%
X125460000Y-78500000D03*
%TO.P,J1005,7,Pin_7*%
X128000000Y-81040000D03*
%TO.P,J1005,8,Pin_8*%
X128000000Y-78500000D03*
%TO.P,J1005,9,Pin_9*%
X130540000Y-81040000D03*
%TO.P,J1005,10,Pin_10*%
X130540000Y-78500000D03*
%TO.P,J1005,11,Pin_11*%
%TO.N,unconnected-(J1005-Pin_11-Pad11)*%
X133080000Y-81040000D03*
%TO.P,J1005,12,Pin_12*%
%TO.N,unconnected-(J1005-Pin_12-Pad12)*%
X133080000Y-78500000D03*
%TO.P,J1005,13,Pin_13*%
%TO.N,/HSYNC*%
X135620000Y-81040000D03*
%TO.P,J1005,14,Pin_14*%
%TO.N,/VSYNC*%
X135620000Y-78500000D03*
%TO.P,J1005,15,Pin_15*%
%TO.N,unconnected-(J1005-Pin_15-Pad15)*%
X138160000Y-81040000D03*
%TO.P,J1005,16,Pin_16*%
%TO.N,unconnected-(J1005-Pin_16-Pad16)*%
X138160000Y-78500000D03*
%TD*%
D15*
%TO.P,R1004,1*%
%TO.N,/B1*%
X180070000Y-54610000D03*
%TO.P,R1004,2*%
%TO.N,/BLUE*%
X178070000Y-54610000D03*
%TD*%
%TO.P,R1003,1*%
%TO.N,+3.3V*%
X173500000Y-80000000D03*
%TO.P,R1003,2*%
%TO.N,/INTENS*%
X171500000Y-80000000D03*
%TD*%
%TO.P,R1002,1*%
%TO.N,+3.3V*%
X173500000Y-82500000D03*
%TO.P,R1002,2*%
%TO.N,/VIDEO*%
X171500000Y-82500000D03*
%TD*%
D28*
%TO.P,J1002,1*%
%TO.N,/RED*%
X125685000Y-63040000D03*
D29*
%TO.P,J1002,2*%
%TO.N,/GREEN*%
X127965000Y-63040000D03*
%TO.P,J1002,3*%
%TO.N,/BLUE*%
X130245000Y-63040000D03*
%TO.P,J1002,4*%
%TO.N,unconnected-(J1002-Pad4)*%
X132525000Y-63040000D03*
%TO.P,J1002,5*%
%TO.N,GND*%
X134805000Y-63040000D03*
%TO.P,J1002,6*%
X124545000Y-60500000D03*
%TO.P,J1002,7*%
X126825000Y-60500000D03*
%TO.P,J1002,8*%
X129105000Y-60500000D03*
%TO.P,J1002,9*%
%TO.N,unconnected-(J1002-Pad9)*%
X131385000Y-60500000D03*
%TO.P,J1002,10*%
%TO.N,GND*%
X133665000Y-60500000D03*
%TO.P,J1002,11*%
%TO.N,unconnected-(J1002-Pad11)*%
X125685000Y-57960000D03*
%TO.P,J1002,12*%
%TO.N,unconnected-(J1002-Pad12)*%
X127965000Y-57960000D03*
%TO.P,J1002,13*%
%TO.N,/HSYNC*%
X130245000Y-57960000D03*
%TO.P,J1002,14*%
%TO.N,/VSYNC*%
X132525000Y-57960000D03*
%TO.P,J1002,15*%
%TO.N,unconnected-(J1002-Pad15)*%
X134805000Y-57960000D03*
D30*
%TO.P,J1002,SH1*%
%TO.N,N/C*%
X142500000Y-60500000D03*
%TO.P,J1002,SH2*%
X117500000Y-60500000D03*
%TD*%
D16*
%TO.P,D1001,1,K*%
%TO.N,+5V*%
X160528000Y-72898000D03*
D17*
%TO.P,D1001,2,A*%
%TO.N,Net-(D1001-A)*%
X152908000Y-72898000D03*
%TD*%
D11*
%TO.P,C1001,1*%
%TO.N,+3.3V*%
X171171000Y-60528000D03*
%TO.P,C1001,2*%
%TO.N,GND*%
X171171000Y-57278000D03*
%TD*%
D31*
%TO.P,J1004,1,Pin_1*%
%TO.N,/K_LEFT*%
X209500000Y-72075000D03*
D32*
%TO.P,J1004,2,Pin_2*%
%TO.N,/K_UP*%
X209500000Y-69535000D03*
%TO.P,J1004,3,Pin_3*%
%TO.N,GND*%
X209500000Y-66995000D03*
%TO.P,J1004,4,Pin_4*%
%TO.N,/K_DOWN*%
X209500000Y-64455000D03*
%TO.P,J1004,5,Pin_5*%
%TO.N,/K_RIGHT*%
X209500000Y-61915000D03*
%TD*%
D31*
%TO.P,JP1001,1,A*%
%TO.N,Net-(JP1001-A)*%
X202750000Y-74025000D03*
D32*
%TO.P,JP1001,2,B*%
%TO.N,+3.3V*%
X200210000Y-74025000D03*
%TD*%
D13*
%TO.P,TP1001,1,1*%
%TO.N,Net-(U1001-GPIO13{slash}TOUCH13{slash}ADC2_CH2{slash}FSPIQ{slash}FSPIIO7{slash}SUBSPIQ)*%
X199898000Y-81500000D03*
%TD*%
D33*
%TO.N,/RED*%
X176530000Y-61468000D03*
X125685000Y-67310000D03*
%TO.N,/GREEN*%
X176530000Y-58166000D03*
X127965000Y-66548000D03*
%TO.N,/BLUE*%
X176530000Y-54610000D03*
X130245000Y-65786000D03*
%TO.N,GND*%
X144526000Y-80518000D03*
X192278000Y-54864000D03*
X168656000Y-70866000D03*
X188214000Y-78486000D03*
X167894000Y-83566000D03*
X182626000Y-75184000D03*
X146812000Y-67818000D03*
X174244000Y-62992000D03*
X171196000Y-58420000D03*
X120396000Y-53086000D03*
X182626000Y-70866000D03*
X186000000Y-50500000D03*
X112776000Y-69342000D03*
X117094000Y-80518000D03*
X112776000Y-61468000D03*
X164592000Y-81026000D03*
X156464000Y-57912000D03*
X171704000Y-58928000D03*
X188468000Y-64516000D03*
X207772000Y-65532000D03*
X200000000Y-50500000D03*
X196088000Y-53086000D03*
X200406000Y-71120000D03*
%TO.N,+3.3V*%
X196342000Y-83820000D03*
X170942000Y-62484000D03*
X170688000Y-51308000D03*
X175000000Y-82500000D03*
X175000000Y-77500000D03*
X175000000Y-80000000D03*
%TO.N,+5V*%
X168148000Y-62484000D03*
%TO.N,/HSYNC*%
X141478000Y-55626000D03*
X136906000Y-55626000D03*
%TO.N,/VSYNC*%
X141230049Y-54616049D03*
%TO.N,/B2*%
X182372000Y-55626000D03*
%TO.N,/G2*%
X182372000Y-58166000D03*
%TO.N,/R2*%
X182372000Y-59690000D03*
%TO.N,Net-(U1001-GPIO14{slash}TOUCH14{slash}ADC2_CH3{slash}FSPIWP{slash}FSPIDQS{slash}SUBSPIWP)*%
X195000000Y-66000000D03*
X195000000Y-78000000D03*
%TO.N,Net-(U1001-GPIO13{slash}TOUCH13{slash}ADC2_CH2{slash}FSPIQ{slash}FSPIIO7{slash}SUBSPIQ)*%
X195326000Y-79502000D03*
X193500000Y-66000000D03*
%TO.N,/VIDEO*%
X197500000Y-66500000D03*
X197000000Y-74500000D03*
%TO.N,/INTENS*%
X198000000Y-73500000D03*
X198500000Y-67000000D03*
%TO.N,/BSYNC*%
X196175000Y-66325000D03*
X195725000Y-73500000D03*
%TO.N,Net-(U1001-EN)*%
X191770000Y-66040000D03*
X189992000Y-75946000D03*
X189992000Y-83820000D03*
%TD*%
D34*
%TO.N,Net-(D1001-A)*%
X151672500Y-81000000D02*
X151672500Y-78460000D01*
D35*
%TO.N,/RED*%
X139076000Y-63362000D02*
X135128000Y-67310000D01*
X139076000Y-55744792D02*
X139076000Y-63362000D01*
X175805000Y-60743000D02*
X175805000Y-56045396D01*
X141284792Y-53536000D02*
X139076000Y-55744792D01*
X176530000Y-61468000D02*
X175805000Y-60743000D01*
X176672000Y-61610000D02*
X176530000Y-61468000D01*
X135128000Y-67310000D02*
X125685000Y-67310000D01*
X173295604Y-53536000D02*
X141284792Y-53536000D01*
X178120000Y-61610000D02*
X176672000Y-61610000D01*
X175805000Y-56045396D02*
X173295604Y-53536000D01*
%TO.N,/GREEN*%
X138626000Y-55558396D02*
X138626000Y-63058201D01*
X173482000Y-53086000D02*
X141098396Y-53086000D01*
X138626000Y-63058201D02*
X135136201Y-66548000D01*
X141098396Y-53086000D02*
X138626000Y-55558396D01*
X176530000Y-56134000D02*
X173482000Y-53086000D01*
X178070000Y-58110000D02*
X176586000Y-58110000D01*
X176586000Y-58110000D02*
X176530000Y-58166000D01*
X135136201Y-66548000D02*
X127965000Y-66548000D01*
X176530000Y-58166000D02*
X176530000Y-56134000D01*
%TO.N,/BLUE*%
X178070000Y-54610000D02*
X176530000Y-54610000D01*
X176530000Y-54610000D02*
X174498000Y-52578000D01*
X174498000Y-52578000D02*
X140970000Y-52578000D01*
X138176000Y-55372000D02*
X138176000Y-62871805D01*
X138176000Y-62871805D02*
X135261805Y-65786000D01*
X135261805Y-65786000D02*
X130245000Y-65786000D01*
X140970000Y-52578000D02*
X138176000Y-55372000D01*
D36*
%TO.N,GND*%
X201626000Y-50500000D02*
X201750000Y-50624000D01*
X186010000Y-50490000D02*
X199990000Y-50490000D01*
X167665000Y-57278000D02*
X171171000Y-57278000D01*
X184374000Y-50500000D02*
X184250000Y-50624000D01*
X186000000Y-50500000D02*
X184374000Y-50500000D01*
X200000000Y-50500000D02*
X200010000Y-50490000D01*
X171171000Y-57278000D02*
X171171000Y-58395000D01*
X200000000Y-50500000D02*
X201626000Y-50500000D01*
X186000000Y-50500000D02*
X186010000Y-50490000D01*
X199990000Y-50490000D02*
X200000000Y-50500000D01*
X185990000Y-50490000D02*
X186000000Y-50500000D01*
X171171000Y-58395000D02*
X171196000Y-58420000D01*
D34*
%TO.N,+3.3V*%
X193802000Y-84058000D02*
X196104000Y-84058000D01*
X173500000Y-77500000D02*
X175000000Y-77500000D01*
X170942000Y-62484000D02*
X170942000Y-60757000D01*
X181942000Y-51894000D02*
X184250000Y-51894000D01*
X175000000Y-84080000D02*
X175000000Y-82500000D01*
X196104000Y-84058000D02*
X196342000Y-83820000D01*
X184160000Y-51850000D02*
X184250000Y-51760000D01*
X192650000Y-85210000D02*
X193802000Y-84058000D01*
X181356000Y-51308000D02*
X181942000Y-51894000D01*
X175000000Y-82500000D02*
X173500000Y-82500000D01*
X175000000Y-82500000D02*
X177051500Y-82500000D01*
X177546000Y-82005500D02*
X180750500Y-85210000D01*
X170942000Y-60757000D02*
X171171000Y-60528000D01*
X173500000Y-80000000D02*
X175000000Y-80000000D01*
X177051500Y-82500000D02*
X177546000Y-82005500D01*
X155956000Y-85090000D02*
X173990000Y-85090000D01*
X180750500Y-85210000D02*
X192650000Y-85210000D01*
X154212500Y-83346500D02*
X155956000Y-85090000D01*
X154212500Y-81000000D02*
X154212500Y-83346500D01*
X170688000Y-51308000D02*
X181356000Y-51308000D01*
X173990000Y-85090000D02*
X175000000Y-84080000D01*
%TO.N,+5V*%
X168148000Y-61011000D02*
X167665000Y-60528000D01*
X168148000Y-62484000D02*
X168148000Y-61011000D01*
D35*
%TO.N,/HSYNC*%
X176724299Y-63324000D02*
X174752000Y-61351701D01*
X151659000Y-54436000D02*
X142668000Y-54436000D01*
X174752000Y-61351701D02*
X174752000Y-58613900D01*
X172800000Y-54436000D02*
X151659000Y-54436000D01*
X174752000Y-56388000D02*
X172800000Y-54436000D01*
X174752000Y-58613900D02*
X174752000Y-56388000D01*
X184250000Y-63324000D02*
X176724299Y-63324000D01*
X142668000Y-54436000D02*
X141478000Y-55626000D01*
X132579000Y-55626000D02*
X130245000Y-57960000D01*
X136906000Y-55626000D02*
X132579000Y-55626000D01*
%TO.N,/VSYNC*%
X141860098Y-53986000D02*
X141230049Y-54616049D01*
X182320000Y-61920000D02*
X184250000Y-61920000D01*
X175260000Y-61223305D02*
X175260000Y-56136792D01*
X132846806Y-57960000D02*
X132525000Y-57960000D01*
X181500000Y-62740000D02*
X182320000Y-61920000D01*
X173109208Y-53986000D02*
X148590000Y-53986000D01*
X181500000Y-62740000D02*
X176776695Y-62740000D01*
X148590000Y-53986000D02*
X141860098Y-53986000D01*
X176776695Y-62740000D02*
X175260000Y-61223305D01*
X175260000Y-56136792D02*
X173109208Y-53986000D01*
%TO.N,Net-(D1003-K)*%
X177546000Y-79030500D02*
X180637000Y-79030500D01*
X180637000Y-79030500D02*
X181102000Y-79495500D01*
D37*
%TO.N,/USB_DN*%
X184328000Y-65786000D02*
X184250000Y-65864000D01*
X157714000Y-64445500D02*
X159132500Y-65864000D01*
X159132500Y-65864000D02*
X184250000Y-65864000D01*
D35*
%TO.N,Net-(JP1001-A)*%
X202750000Y-74025000D02*
X202750000Y-68000000D01*
X202750000Y-68000000D02*
X201750000Y-67000000D01*
%TO.N,/B1*%
X184250000Y-54300000D02*
X182700000Y-54300000D01*
X182700000Y-54300000D02*
X182390000Y-54610000D01*
X182390000Y-54610000D02*
X180070000Y-54610000D01*
%TO.N,/B2*%
X182450000Y-55704000D02*
X182372000Y-55626000D01*
X184250000Y-55704000D02*
X182450000Y-55704000D01*
%TO.N,/G1*%
X181206000Y-56974000D02*
X180070000Y-58110000D01*
X184250000Y-56974000D02*
X181206000Y-56974000D01*
%TO.N,/G2*%
X184250000Y-58244000D02*
X182450000Y-58244000D01*
X182450000Y-58244000D02*
X182372000Y-58166000D01*
%TO.N,/R1*%
X184250000Y-60784000D02*
X180946000Y-60784000D01*
X180946000Y-60784000D02*
X180120000Y-61610000D01*
%TO.N,/R2*%
X184250000Y-59514000D02*
X182548000Y-59514000D01*
X182548000Y-59514000D02*
X182372000Y-59690000D01*
%TO.N,Net-(U1001-GPIO14{slash}TOUCH14{slash}ADC2_CH3{slash}FSPIWP{slash}FSPIDQS{slash}SUBSPIWP)*%
X200732800Y-78000000D02*
X195000000Y-78000000D01*
X195000000Y-68155000D02*
X194905000Y-68250000D01*
X204241400Y-81508600D02*
X200732800Y-78000000D01*
X195000000Y-66000000D02*
X195000000Y-68155000D01*
%TO.N,Net-(U1001-GPIO13{slash}TOUCH13{slash}ADC2_CH2{slash}FSPIQ{slash}FSPIIO7{slash}SUBSPIQ)*%
X193500000Y-68115000D02*
X193635000Y-68250000D01*
X195326000Y-79502000D02*
X195580000Y-79502000D01*
X197578000Y-81500000D02*
X199898000Y-81500000D01*
X195580000Y-79502000D02*
X197578000Y-81500000D01*
X193500000Y-66000000D02*
X193500000Y-68115000D01*
D37*
%TO.N,/USB_DP*%
X184074000Y-67310000D02*
X184250000Y-67134000D01*
X156614000Y-64920000D02*
X158828000Y-67134000D01*
X158828000Y-67134000D02*
X184250000Y-67134000D01*
X156614000Y-63545500D02*
X156614000Y-64920000D01*
X157714000Y-62445500D02*
X156614000Y-63545500D01*
D35*
%TO.N,/K_LEFT*%
X209500000Y-72075000D02*
X206500000Y-69075000D01*
X206500000Y-65670000D02*
X202750000Y-61920000D01*
X206500000Y-69075000D02*
X206500000Y-65670000D01*
X202750000Y-61920000D02*
X201750000Y-61920000D01*
%TO.N,/K_RIGHT*%
X209500000Y-61915000D02*
X205695000Y-58110000D01*
X205695000Y-58110000D02*
X201750000Y-58110000D01*
%TO.N,/K_UP*%
X207000000Y-67035000D02*
X207000000Y-64000000D01*
X209500000Y-69535000D02*
X207000000Y-67035000D01*
X203650000Y-60650000D02*
X201750000Y-60650000D01*
X207000000Y-64000000D02*
X203650000Y-60650000D01*
%TO.N,/VIDEO*%
X156590799Y-82500000D02*
X171500000Y-82500000D01*
X154212500Y-78460000D02*
X155577500Y-79825000D01*
X155577500Y-79825000D02*
X155577500Y-81486701D01*
X171500000Y-82500000D02*
X172525000Y-81475000D01*
X155577500Y-81486701D02*
X156590799Y-82500000D01*
X172525000Y-81475000D02*
X175455000Y-81475000D01*
X197500000Y-66500000D02*
X197500000Y-68195000D01*
X176359500Y-80570500D02*
X190929500Y-80570500D01*
X175455000Y-81475000D02*
X176359500Y-80570500D01*
X197500000Y-68195000D02*
X197445000Y-68250000D01*
X190929500Y-80570500D02*
X197000000Y-74500000D01*
%TO.N,/K_DOWN*%
X204425000Y-59380000D02*
X201750000Y-59380000D01*
X209500000Y-64455000D02*
X204425000Y-59380000D01*
%TO.N,/INTENS*%
X171500000Y-80000000D02*
X172975000Y-78525000D01*
X175983000Y-78525000D02*
X176530000Y-77978000D01*
X190125107Y-74542893D02*
X195931802Y-74542893D01*
X172975000Y-78525000D02*
X175983000Y-78525000D01*
X198500000Y-67000000D02*
X198500000Y-68035000D01*
X195931802Y-74542893D02*
X196974695Y-73500000D01*
X198500000Y-68035000D02*
X198715000Y-68250000D01*
X196974695Y-73500000D02*
X198000000Y-73500000D01*
X176530000Y-77978000D02*
X186690000Y-77978000D01*
X156752500Y-78460000D02*
X157927500Y-79635000D01*
X171135000Y-79635000D02*
X171500000Y-80000000D01*
X186690000Y-77978000D02*
X190125107Y-74542893D01*
X157927500Y-79635000D02*
X171135000Y-79635000D01*
%TO.N,/BSYNC*%
X196175000Y-66325000D02*
X197000000Y-65500000D01*
X199000000Y-65500000D02*
X199985000Y-66485000D01*
X196175000Y-68250000D02*
X196175000Y-66325000D01*
X170540000Y-78460000D02*
X171500000Y-77500000D01*
X161832500Y-78460000D02*
X170540000Y-78460000D01*
X171500000Y-77500000D02*
X175500000Y-73500000D01*
X199985000Y-66485000D02*
X199985000Y-68250000D01*
X197000000Y-65500000D02*
X199000000Y-65500000D01*
X175500000Y-73500000D02*
X195725000Y-73500000D01*
%TO.N,Net-(U1001-EN)*%
X191061000Y-83820000D02*
X191226000Y-83985000D01*
X184250000Y-53164000D02*
X193372000Y-53164000D01*
X193153000Y-82058000D02*
X191226000Y-83985000D01*
X189992000Y-83820000D02*
X191061000Y-83820000D01*
X193802000Y-82058000D02*
X193153000Y-82058000D01*
X191137000Y-75946000D02*
X191226000Y-76035000D01*
X195072000Y-62738000D02*
X191770000Y-66040000D01*
X193372000Y-53164000D02*
X195072000Y-54864000D01*
X195072000Y-54864000D02*
X195072000Y-62738000D01*
X189992000Y-75946000D02*
X191137000Y-75946000D01*
%TD*%
%TA.AperFunction,Conductor*%
%TO.N,GND*%
G36*
X155217271Y-82021179D02*
G01*
X155251681Y-82045472D01*
X156101815Y-82895606D01*
X156101844Y-82895637D01*
X156192062Y-82985855D01*
X156192066Y-82985858D01*
X156294506Y-83054307D01*
X156294512Y-83054310D01*
X156294513Y-83054311D01*
X156408347Y-83101463D01*
X156468770Y-83113481D01*
X156529192Y-83125500D01*
X156529193Y-83125500D01*
X170327983Y-83125500D01*
X170395022Y-83145185D01*
X170440777Y-83197989D01*
X170445686Y-83210489D01*
X170464238Y-83266472D01*
X170465186Y-83269333D01*
X170465187Y-83269336D01*
X170476585Y-83287815D01*
X170557288Y-83418656D01*
X170681344Y-83542712D01*
X170830666Y-83634814D01*
X170997203Y-83689999D01*
X171099991Y-83700500D01*
X171900008Y-83700499D01*
X171900016Y-83700498D01*
X171900019Y-83700498D01*
X171960438Y-83694326D01*
X172002797Y-83689999D01*
X172169334Y-83634814D01*
X172318656Y-83542712D01*
X172412319Y-83449049D01*
X172473642Y-83415564D01*
X172543334Y-83420548D01*
X172587681Y-83449049D01*
X172681344Y-83542712D01*
X172830666Y-83634814D01*
X172997203Y-83689999D01*
X173099991Y-83700500D01*
X173900008Y-83700499D01*
X173900016Y-83700498D01*
X173900019Y-83700498D01*
X173912461Y-83699226D01*
X174002797Y-83689999D01*
X174002803Y-83689996D01*
X174006951Y-83689110D01*
X174076626Y-83694326D01*
X174132420Y-83736383D01*
X174156619Y-83801929D01*
X174141540Y-83870152D01*
X174120587Y-83898044D01*
X173715451Y-84303181D01*
X173654128Y-84336666D01*
X173627770Y-84339500D01*
X156318229Y-84339500D01*
X156251190Y-84319815D01*
X156230548Y-84303181D01*
X154999319Y-83071951D01*
X154965834Y-83010628D01*
X154963000Y-82984270D01*
X154963000Y-82187700D01*
X154982685Y-82120661D01*
X155015875Y-82086126D01*
X155083901Y-82038495D01*
X155083917Y-82038478D01*
X155084274Y-82038180D01*
X155084479Y-82038090D01*
X155088337Y-82035389D01*
X155088879Y-82036163D01*
X155148276Y-82010154D01*
X155217271Y-82021179D01*
G37*
%TD.AperFunction*%
%TA.AperFunction,Conductor*%
G36*
X170342540Y-80280185D02*
G01*
X170388295Y-80332989D01*
X170399501Y-80384500D01*
X170399501Y-80500018D01*
X170410000Y-80602796D01*
X170410001Y-80602799D01*
X170453144Y-80732993D01*
X170465186Y-80769334D01*
X170557288Y-80918656D01*
X170681344Y-81042712D01*
X170830666Y-81134814D01*
X170830667Y-81134814D01*
X170830670Y-81134816D01*
X170836677Y-81137617D01*
X170889117Y-81183788D01*
X170908271Y-81250981D01*
X170888057Y-81317862D01*
X170836677Y-81362383D01*
X170830670Y-81365183D01*
X170681342Y-81457289D01*
X170557289Y-81581342D01*
X170465187Y-81730663D01*
X170465186Y-81730666D01*
X170457853Y-81752797D01*
X170445689Y-81789505D01*
X170405916Y-81846949D01*
X170341400Y-81873772D01*
X170327983Y-81874500D01*
X163106416Y-81874500D01*
X163039377Y-81854815D01*
X162993622Y-81802011D01*
X162983678Y-81732853D01*
X163003639Y-81682414D01*
X163003391Y-81682271D01*
X163004361Y-81680590D01*
X163004843Y-81679373D01*
X163006100Y-81677577D01*
X163105929Y-81463492D01*
X163105933Y-81463483D01*
X163167067Y-81235326D01*
X163167069Y-81235315D01*
X163187657Y-81000001D01*
X163187657Y-80999998D01*
X163167069Y-80764684D01*
X163167067Y-80764673D01*
X163105933Y-80536516D01*
X163105930Y-80536507D01*
X163059484Y-80436905D01*
X163048992Y-80367828D01*
X163077511Y-80304044D01*
X163135988Y-80265804D01*
X163171866Y-80260500D01*
X170275501Y-80260500D01*
X170342540Y-80280185D01*
G37*
%TD.AperFunction*%
%TA.AperFunction,Conductor*%
G36*
X195214693Y-75188078D02*
G01*
X195260448Y-75240882D01*
X195270392Y-75310040D01*
X195241367Y-75373596D01*
X195235335Y-75380074D01*
X190706729Y-79908681D01*
X190645406Y-79942166D01*
X190619048Y-79945000D01*
X182426500Y-79945000D01*
X182359461Y-79925315D01*
X182313706Y-79872511D01*
X182302500Y-79821000D01*
X182302499Y-79095498D01*
X182302498Y-79095480D01*
X182291999Y-78992703D01*
X182291998Y-78992700D01*
X182281162Y-78960000D01*
X182236814Y-78826166D01*
X182216107Y-78792595D01*
X182197668Y-78725204D01*
X182218591Y-78658541D01*
X182272233Y-78613771D01*
X182321647Y-78603500D01*
X186751608Y-78603500D01*
X186751608Y-78603499D01*
X186813972Y-78591095D01*
X186813973Y-78591095D01*
X186828691Y-78588167D01*
X186872452Y-78579463D01*
X186922962Y-78558541D01*
X186986286Y-78532312D01*
X187037509Y-78498084D01*
X187088733Y-78463858D01*
X187175858Y-78376733D01*
X187175859Y-78376731D01*
X187182925Y-78369665D01*
X187182928Y-78369661D01*
X189079375Y-76473213D01*
X189140696Y-76439730D01*
X189210388Y-76444714D01*
X189259204Y-76477924D01*
X189386129Y-76618888D01*
X189539265Y-76730148D01*
X189539270Y-76730151D01*
X189712192Y-76807142D01*
X189712197Y-76807144D01*
X189897354Y-76846500D01*
X189969339Y-76846500D01*
X190036378Y-76866185D01*
X190082133Y-76918989D01*
X190085521Y-76927167D01*
X190132202Y-77052328D01*
X190132206Y-77052335D01*
X190218452Y-77167544D01*
X190218455Y-77167547D01*
X190333664Y-77253793D01*
X190333671Y-77253797D01*
X190468517Y-77304091D01*
X190468516Y-77304091D01*
X190475444Y-77304835D01*
X190528127Y-77310500D01*
X191923872Y-77310499D01*
X191983483Y-77304091D01*
X192118331Y-77253796D01*
X192233546Y-77167546D01*
X192319796Y-77052331D01*
X192370091Y-76917483D01*
X192376500Y-76857873D01*
X192376499Y-75292392D01*
X192396184Y-75225354D01*
X192448987Y-75179599D01*
X192500499Y-75168393D01*
X195147654Y-75168393D01*
X195214693Y-75188078D01*
G37*
%TD.AperFunction*%
%TA.AperFunction,Conductor*%
G36*
X189425586Y-74145185D02*
G01*
X189471341Y-74197989D01*
X189481285Y-74267147D01*
X189452260Y-74330703D01*
X189446228Y-74337181D01*
X188087681Y-75695728D01*
X188026358Y-75729213D01*
X187956666Y-75724229D01*
X187900733Y-75682357D01*
X187876316Y-75616893D01*
X187876000Y-75608047D01*
X187876000Y-75212172D01*
X187875999Y-75212155D01*
X187869598Y-75152627D01*
X187869596Y-75152620D01*
X187819354Y-75017913D01*
X187819350Y-75017906D01*
X187733190Y-74902812D01*
X187733187Y-74902809D01*
X187618093Y-74816649D01*
X187618086Y-74816645D01*
X187483379Y-74766403D01*
X187483372Y-74766401D01*
X187423844Y-74760000D01*
X186976000Y-74760000D01*
X186976000Y-76161000D01*
X186956315Y-76228039D01*
X186903511Y-76273794D01*
X186852000Y-76285000D01*
X185576000Y-76285000D01*
X185576000Y-76857844D01*
X185582401Y-76917372D01*
X185582403Y-76917379D01*
X185632645Y-77052086D01*
X185632647Y-77052089D01*
X185709079Y-77154188D01*
X185733497Y-77219653D01*
X185718646Y-77287926D01*
X185669241Y-77337332D01*
X185609813Y-77352500D01*
X176468389Y-77352500D01*
X176407971Y-77364518D01*
X176357789Y-77374500D01*
X176347543Y-77376538D01*
X176313546Y-77390620D01*
X176300397Y-77396067D01*
X176261094Y-77412347D01*
X176233717Y-77423687D01*
X176233711Y-77423690D01*
X176219043Y-77433491D01*
X176211708Y-77438392D01*
X176211707Y-77438393D01*
X176131271Y-77492138D01*
X176131267Y-77492140D01*
X176110014Y-77513394D01*
X176048690Y-77546878D01*
X175978998Y-77541892D01*
X175923065Y-77500019D01*
X175899014Y-77438676D01*
X175885674Y-77311744D01*
X175827179Y-77131716D01*
X175732533Y-76967784D01*
X175605871Y-76827112D01*
X175605870Y-76827111D01*
X175452734Y-76715851D01*
X175452729Y-76715848D01*
X175279807Y-76638857D01*
X175279802Y-76638855D01*
X175134001Y-76607865D01*
X175094646Y-76599500D01*
X174905354Y-76599500D01*
X174872897Y-76606398D01*
X174720197Y-76638855D01*
X174720192Y-76638857D01*
X174629380Y-76679290D01*
X174560130Y-76688575D01*
X174496853Y-76658947D01*
X174473407Y-76631110D01*
X174442712Y-76581344D01*
X174318656Y-76457288D01*
X174169334Y-76365186D01*
X174002797Y-76310001D01*
X174002795Y-76310000D01*
X173900016Y-76299500D01*
X173900009Y-76299500D01*
X173884451Y-76299500D01*
X173817412Y-76279815D01*
X173771657Y-76227011D01*
X173761713Y-76157853D01*
X173790738Y-76094297D01*
X173796770Y-76087819D01*
X174099589Y-75785000D01*
X185576000Y-75785000D01*
X186476000Y-75785000D01*
X186476000Y-74760000D01*
X186028155Y-74760000D01*
X185968627Y-74766401D01*
X185968620Y-74766403D01*
X185833913Y-74816645D01*
X185833906Y-74816649D01*
X185718812Y-74902809D01*
X185718809Y-74902812D01*
X185632649Y-75017906D01*
X185632645Y-75017913D01*
X185582403Y-75152620D01*
X185582401Y-75152627D01*
X185576000Y-75212155D01*
X185576000Y-75785000D01*
X174099589Y-75785000D01*
X174672418Y-75212172D01*
X175722771Y-74161819D01*
X175784094Y-74128334D01*
X175810452Y-74125500D01*
X189358547Y-74125500D01*
X189425586Y-74145185D01*
G37*
%TD.AperFunction*%
%TA.AperFunction,Conductor*%
G36*
X207727521Y-63585659D02*
G01*
X207776043Y-63615633D01*
X208159762Y-63999352D01*
X208193247Y-64060675D01*
X208191856Y-64119126D01*
X208164938Y-64219586D01*
X208164936Y-64219596D01*
X208144341Y-64454999D01*
X208144341Y-64455000D01*
X208164936Y-64690403D01*
X208164938Y-64690413D01*
X208226094Y-64918655D01*
X208226096Y-64918659D01*
X208226097Y-64918663D01*
X208270619Y-65014140D01*
X208325965Y-65132830D01*
X208325967Y-65132834D01*
X208461501Y-65326395D01*
X208461506Y-65326402D01*
X208628597Y-65493493D01*
X208628603Y-65493498D01*
X208649006Y-65507784D01*
X208785055Y-65603047D01*
X208814594Y-65623730D01*
X208858219Y-65678307D01*
X208865413Y-65747805D01*
X208833890Y-65810160D01*
X208814595Y-65826880D01*
X208628922Y-65956890D01*
X208628920Y-65956891D01*
X208461891Y-66123920D01*
X208461886Y-66123926D01*
X208326400Y-66317420D01*
X208326399Y-66317422D01*
X208226570Y-66531507D01*
X208226567Y-66531513D01*
X208169364Y-66744999D01*
X208169364Y-66745000D01*
X209066988Y-66745000D01*
X209034075Y-66802007D01*
X209000000Y-66929174D01*
X209000000Y-67060826D01*
X209034075Y-67187993D01*
X209066988Y-67245000D01*
X208145952Y-67245000D01*
X208078913Y-67225315D01*
X208058271Y-67208681D01*
X207661819Y-66812229D01*
X207628334Y-66750906D01*
X207625500Y-66724548D01*
X207625500Y-63938393D01*
X207625499Y-63938389D01*
X207614180Y-63881483D01*
X207601463Y-63817548D01*
X207573800Y-63750766D01*
X207566332Y-63681298D01*
X207597607Y-63618818D01*
X207657696Y-63583166D01*
X207727521Y-63585659D01*
G37*
%TD.AperFunction*%
%TA.AperFunction,Conductor*%
G36*
X193128587Y-53809185D02*
G01*
X193149229Y-53825819D01*
X194410181Y-55086771D01*
X194443666Y-55148094D01*
X194446500Y-55174452D01*
X194446500Y-62427548D01*
X194426815Y-62494587D01*
X194410181Y-62515229D01*
X191822229Y-65103181D01*
X191760906Y-65136666D01*
X191734548Y-65139500D01*
X191675354Y-65139500D01*
X191657900Y-65143210D01*
X191490197Y-65178855D01*
X191490192Y-65178857D01*
X191317270Y-65255848D01*
X191317265Y-65255851D01*
X191164129Y-65367111D01*
X191037466Y-65507785D01*
X190942821Y-65671715D01*
X190942818Y-65671722D01*
X190884327Y-65851740D01*
X190884326Y-65851744D01*
X190864540Y-66040000D01*
X190884326Y-66228256D01*
X190884327Y-66228259D01*
X190942818Y-66408277D01*
X190942821Y-66408284D01*
X191037467Y-66572216D01*
X191151342Y-66698687D01*
X191164129Y-66712888D01*
X191317265Y-66824148D01*
X191317270Y-66824151D01*
X191479138Y-66896221D01*
X191532375Y-66941471D01*
X191552696Y-67008321D01*
X191533650Y-67075544D01*
X191481284Y-67121799D01*
X191428702Y-67133500D01*
X190597129Y-67133500D01*
X190597123Y-67133501D01*
X190537518Y-67139908D01*
X190503331Y-67152659D01*
X190433639Y-67157642D01*
X190416669Y-67152659D01*
X190382480Y-67139908D01*
X190382482Y-67139908D01*
X190322883Y-67133501D01*
X190322881Y-67133500D01*
X190322873Y-67133500D01*
X190322864Y-67133500D01*
X189327129Y-67133500D01*
X189327123Y-67133501D01*
X189267518Y-67139908D01*
X189233331Y-67152659D01*
X189163639Y-67157642D01*
X189146669Y-67152659D01*
X189112480Y-67139908D01*
X189112482Y-67139908D01*
X189052883Y-67133501D01*
X189052881Y-67133500D01*
X189052873Y-67133500D01*
X189052864Y-67133500D01*
X188057129Y-67133500D01*
X188057123Y-67133501D01*
X187997518Y-67139908D01*
X187963331Y-67152659D01*
X187893639Y-67157642D01*
X187876669Y-67152659D01*
X187842480Y-67139908D01*
X187842482Y-67139908D01*
X187782883Y-67133501D01*
X187782881Y-67133500D01*
X187782873Y-67133500D01*
X187782864Y-67133500D01*
X186787129Y-67133500D01*
X186787123Y-67133501D01*
X186727518Y-67139908D01*
X186693331Y-67152659D01*
X186623639Y-67157642D01*
X186606669Y-67152659D01*
X186572480Y-67139908D01*
X186572482Y-67139908D01*
X186512883Y-67133501D01*
X186512881Y-67133500D01*
X186512873Y-67133500D01*
X186512865Y-67133500D01*
X185624499Y-67133500D01*
X185557460Y-67113815D01*
X185511705Y-67061011D01*
X185500499Y-67009500D01*
X185500499Y-66636129D01*
X185500498Y-66636123D01*
X185498363Y-66616265D01*
X185494091Y-66576517D01*
X185481340Y-66542332D01*
X185476357Y-66472642D01*
X185481338Y-66455672D01*
X185494091Y-66421483D01*
X185500500Y-66361873D01*
X185500499Y-65366128D01*
X185494091Y-65306517D01*
X185481340Y-65272332D01*
X185476357Y-65202642D01*
X185481340Y-65185669D01*
X185494091Y-65151483D01*
X185500500Y-65091873D01*
X185500499Y-64096128D01*
X185494091Y-64036517D01*
X185481340Y-64002332D01*
X185476357Y-63932642D01*
X185481340Y-63915669D01*
X185494091Y-63881483D01*
X185500500Y-63821873D01*
X185500499Y-62826128D01*
X185494091Y-62766517D01*
X185481340Y-62732332D01*
X185476357Y-62662642D01*
X185481340Y-62645669D01*
X185494091Y-62611483D01*
X185500500Y-62551873D01*
X185500499Y-61556128D01*
X185494091Y-61496517D01*
X185481340Y-61462332D01*
X185476357Y-61392642D01*
X185481340Y-61375669D01*
X185494091Y-61341483D01*
X185500500Y-61281873D01*
X185500499Y-60286128D01*
X185494091Y-60226517D01*
X185481340Y-60192332D01*
X185476357Y-60122642D01*
X185481340Y-60105669D01*
X185494091Y-60071483D01*
X185500500Y-60011873D01*
X185500500Y-59994000D01*
X189150000Y-59994000D01*
X189150000Y-60241844D01*
X189156401Y-60301372D01*
X189156403Y-60301379D01*
X189206645Y-60436086D01*
X189206649Y-60436093D01*
X189292809Y-60551187D01*
X189292812Y-60551190D01*
X189407906Y-60637350D01*
X189407913Y-60637354D01*
X189542620Y-60687596D01*
X189542627Y-60687598D01*
X189602155Y-60693999D01*
X189602172Y-60694000D01*
X189850000Y-60694000D01*
X189850000Y-59994000D01*
X190350000Y-59994000D01*
X190350000Y-60694000D01*
X190597828Y-60694000D01*
X190597844Y-60693999D01*
X190657372Y-60687598D01*
X190657376Y-60687597D01*
X190756666Y-60650564D01*
X190826358Y-60645580D01*
X190843334Y-60650564D01*
X190942623Y-60687597D01*
X190942627Y-60687598D01*
X191002155Y-60693999D01*
X191002172Y-60694000D01*
X191250000Y-60694000D01*
X191250000Y-59994000D01*
X191750000Y-59994000D01*
X191750000Y-60694000D01*
X191997828Y-60694000D01*
X191997844Y-60693999D01*
X192057372Y-60687598D01*
X192057376Y-60687597D01*
X192156666Y-60650564D01*
X192226358Y-60645580D01*
X192243334Y-60650564D01*
X192342623Y-60687597D01*
X192342627Y-60687598D01*
X192402155Y-60693999D01*
X192402172Y-60694000D01*
X192650000Y-60694000D01*
X192650000Y-59994000D01*
X193150000Y-59994000D01*
X193150000Y-60694000D01*
X193397828Y-60694000D01*
X193397844Y-60693999D01*
X193457372Y-60687598D01*
X193457379Y-60687596D01*
X193592086Y-60637354D01*
X193592093Y-60637350D01*
X193707187Y-60551190D01*
X193707190Y-60551187D01*
X193793350Y-60436093D01*
X193793354Y-60436086D01*
X193843596Y-60301379D01*
X193843598Y-60301372D01*
X193849999Y-60241844D01*
X193850000Y-60241827D01*
X193850000Y-59994000D01*
X193150000Y-59994000D01*
X192650000Y-59994000D01*
X191750000Y-59994000D01*
X191250000Y-59994000D01*
X190350000Y-59994000D01*
X189850000Y-59994000D01*
X189150000Y-59994000D01*
X185500500Y-59994000D01*
X185500499Y-59016128D01*
X185494091Y-58956517D01*
X185481340Y-58922332D01*
X185476357Y-58852642D01*
X185481340Y-58835669D01*
X185494091Y-58801483D01*
X185500500Y-58741873D01*
X185500500Y-58594000D01*
X189150000Y-58594000D01*
X189150000Y-58841844D01*
X189156401Y-58901372D01*
X189156403Y-58901383D01*
X189193434Y-59000668D01*
X189198418Y-59070360D01*
X189193434Y-59087332D01*
X189156403Y-59186616D01*
X189156401Y-59186627D01*
X189150000Y-59246155D01*
X189150000Y-59494000D01*
X189850000Y-59494000D01*
X189850000Y-58594000D01*
X190350000Y-58594000D01*
X190350000Y-59494000D01*
X191250000Y-59494000D01*
X191250000Y-58594000D01*
X191750000Y-58594000D01*
X191750000Y-59494000D01*
X192650000Y-59494000D01*
X192650000Y-58594000D01*
X193150000Y-58594000D01*
X193150000Y-59494000D01*
X193850000Y-59494000D01*
X193850000Y-59246172D01*
X193849999Y-59246155D01*
X193843598Y-59186627D01*
X193843597Y-59186623D01*
X193806564Y-59087334D01*
X193801580Y-59017642D01*
X193806564Y-59000666D01*
X193843597Y-58901376D01*
X193843598Y-58901372D01*
X193849999Y-58841844D01*
X193850000Y-58841827D01*
X193850000Y-58594000D01*
X193150000Y-58594000D01*
X192650000Y-58594000D01*
X191750000Y-58594000D01*
X191250000Y-58594000D01*
X190350000Y-58594000D01*
X189850000Y-58594000D01*
X189150000Y-58594000D01*
X185500500Y-58594000D01*
X185500499Y-57746128D01*
X185494091Y-57686517D01*
X185481340Y-57652332D01*
X185476357Y-57582642D01*
X185481340Y-57565669D01*
X185494091Y-57531483D01*
X185500500Y-57471873D01*
X185500500Y-57194000D01*
X189150000Y-57194000D01*
X189150000Y-57441844D01*
X189156401Y-57501372D01*
X189156403Y-57501383D01*
X189193434Y-57600668D01*
X189198418Y-57670360D01*
X189193434Y-57687332D01*
X189156403Y-57786616D01*
X189156401Y-57786627D01*
X189150000Y-57846155D01*
X189150000Y-58094000D01*
X189850000Y-58094000D01*
X189850000Y-57194000D01*
X190350000Y-57194000D01*
X190350000Y-58094000D01*
X191250000Y-58094000D01*
X191250000Y-57194000D01*
X191750000Y-57194000D01*
X191750000Y-58094000D01*
X192650000Y-58094000D01*
X192650000Y-57194000D01*
X193150000Y-57194000D01*
X193150000Y-58094000D01*
X193850000Y-58094000D01*
X193850000Y-57846172D01*
X193849999Y-57846155D01*
X193843598Y-57786627D01*
X193843597Y-57786623D01*
X193806564Y-57687334D01*
X193801580Y-57617642D01*
X193806564Y-57600666D01*
X193843597Y-57501376D01*
X193843598Y-57501372D01*
X193849999Y-57441844D01*
X193850000Y-57441827D01*
X193850000Y-57194000D01*
X193150000Y-57194000D01*
X192650000Y-57194000D01*
X191750000Y-57194000D01*
X191250000Y-57194000D01*
X190350000Y-57194000D01*
X189850000Y-57194000D01*
X189150000Y-57194000D01*
X185500500Y-57194000D01*
X185500499Y-56694000D01*
X189150000Y-56694000D01*
X189850000Y-56694000D01*
X189850000Y-55994000D01*
X190350000Y-55994000D01*
X190350000Y-56694000D01*
X191250000Y-56694000D01*
X191250000Y-55994000D01*
X191750000Y-55994000D01*
X191750000Y-56694000D01*
X192650000Y-56694000D01*
X192650000Y-55994000D01*
X193150000Y-55994000D01*
X193150000Y-56694000D01*
X193850000Y-56694000D01*
X193850000Y-56446172D01*
X193849999Y-56446155D01*
X193843598Y-56386627D01*
X193843596Y-56386620D01*
X193793354Y-56251913D01*
X193793350Y-56251906D01*
X193707190Y-56136812D01*
X193707187Y-56136809D01*
X193592093Y-56050649D01*
X193592086Y-56050645D01*
X193457379Y-56000403D01*
X193457372Y-56000401D01*
X193397844Y-55994000D01*
X193150000Y-55994000D01*
X192650000Y-55994000D01*
X192402155Y-55994000D01*
X192342627Y-56000401D01*
X192342616Y-56000403D01*
X192243332Y-56037434D01*
X192173640Y-56042418D01*
X192156668Y-56037434D01*
X192057383Y-56000403D01*
X192057372Y-56000401D01*
X191997844Y-55994000D01*
X191750000Y-55994000D01*
X191250000Y-55994000D01*
X191002155Y-55994000D01*
X190942627Y-56000401D01*
X190942616Y-56000403D01*
X190843332Y-56037434D01*
X190773640Y-56042418D01*
X190756668Y-56037434D01*
X190657383Y-56000403D01*
X190657372Y-56000401D01*
X190597844Y-55994000D01*
X190350000Y-55994000D01*
X189850000Y-55994000D01*
X189602155Y-55994000D01*
X189542627Y-56000401D01*
X189542620Y-56000403D01*
X189407913Y-56050645D01*
X189407906Y-56050649D01*
X189292812Y-56136809D01*
X189292809Y-56136812D01*
X189206649Y-56251906D01*
X189206645Y-56251913D01*
X189156403Y-56386620D01*
X189156401Y-56386627D01*
X189150000Y-56446155D01*
X189150000Y-56694000D01*
X185500499Y-56694000D01*
X185500499Y-56476128D01*
X185494091Y-56416517D01*
X185481340Y-56382332D01*
X185476357Y-56312642D01*
X185481340Y-56295669D01*
X185494091Y-56261483D01*
X185500500Y-56201873D01*
X185500499Y-55206128D01*
X185494091Y-55146517D01*
X185481340Y-55112332D01*
X185476357Y-55042642D01*
X185481340Y-55025669D01*
X185494091Y-54991483D01*
X185500500Y-54931873D01*
X185500499Y-53936128D01*
X185500498Y-53936126D01*
X185500498Y-53936114D01*
X185499492Y-53926757D01*
X185511896Y-53857997D01*
X185559506Y-53806859D01*
X185622781Y-53789500D01*
X193061548Y-53789500D01*
X193128587Y-53809185D01*
G37*
%TD.AperFunction*%
%TA.AperFunction,Conductor*%
G36*
X133984471Y-61878398D02*
G01*
X134023198Y-61904645D01*
X134598022Y-62479469D01*
X134575339Y-62485548D01*
X134439662Y-62563882D01*
X134328882Y-62674662D01*
X134250548Y-62810339D01*
X134244470Y-62833022D01*
X133703331Y-62291884D01*
X133687203Y-62272025D01*
X133628040Y-62181469D01*
X133553486Y-62100482D01*
X133522565Y-62037828D01*
X133530425Y-61968402D01*
X133574572Y-61914247D01*
X133640990Y-61892556D01*
X133644717Y-61892500D01*
X133780381Y-61892500D01*
X133780387Y-61892499D01*
X133915106Y-61870017D01*
X133984471Y-61878398D01*
G37*
%TD.AperFunction*%
%TA.AperFunction,Conductor*%
G36*
X128550548Y-60729661D02*
G01*
X128628882Y-60865338D01*
X128739662Y-60976118D01*
X128875339Y-61054452D01*
X128898022Y-61060529D01*
X128323632Y-61634918D01*
X128262309Y-61668403D01*
X128215542Y-61669546D01*
X128080427Y-61647000D01*
X127849573Y-61647000D01*
X127811167Y-61653409D01*
X127714457Y-61669547D01*
X127645092Y-61661165D01*
X127606366Y-61634919D01*
X127031977Y-61060530D01*
X127054661Y-61054452D01*
X127190338Y-60976118D01*
X127301118Y-60865338D01*
X127379452Y-60729661D01*
X127385530Y-60706977D01*
X127965000Y-61286447D01*
X128544469Y-60706977D01*
X128550548Y-60729661D01*
G37*
%TD.AperFunction*%
%TA.AperFunction,Conductor*%
G36*
X130206670Y-61248117D02*
G01*
X130222797Y-61267976D01*
X130253475Y-61314932D01*
X130281960Y-61358531D01*
X130356053Y-61439018D01*
X130386975Y-61501672D01*
X130379115Y-61571098D01*
X130334968Y-61625253D01*
X130268550Y-61646944D01*
X130264823Y-61647000D01*
X130129573Y-61647000D01*
X130091167Y-61653409D01*
X129994457Y-61669547D01*
X129925092Y-61661165D01*
X129886366Y-61634919D01*
X129311977Y-61060530D01*
X129334661Y-61054452D01*
X129470338Y-60976118D01*
X129581118Y-60865338D01*
X129659452Y-60729661D01*
X129665530Y-60706977D01*
X130206670Y-61248117D01*
G37*
%TD.AperFunction*%
%TA.AperFunction,Conductor*%
G36*
X133110548Y-60729661D02*
G01*
X133188882Y-60865338D01*
X133299662Y-60976118D01*
X133435339Y-61054452D01*
X133458022Y-61060529D01*
X132883632Y-61634918D01*
X132822309Y-61668403D01*
X132775542Y-61669546D01*
X132640427Y-61647000D01*
X132505177Y-61647000D01*
X132438138Y-61627315D01*
X132392383Y-61574511D01*
X132382439Y-61505353D01*
X132411464Y-61441797D01*
X132413947Y-61439018D01*
X132441120Y-61409500D01*
X132488040Y-61358531D01*
X132547210Y-61267964D01*
X132563329Y-61248116D01*
X133104469Y-60706976D01*
X133110548Y-60729661D01*
G37*
%TD.AperFunction*%
%TA.AperFunction,Conductor*%
G36*
X126270548Y-60729661D02*
G01*
X126348882Y-60865338D01*
X126459662Y-60976118D01*
X126595339Y-61054452D01*
X126618022Y-61060530D01*
X126067871Y-61610681D01*
X126006548Y-61644166D01*
X125980190Y-61647000D01*
X125389809Y-61647000D01*
X125322770Y-61627315D01*
X125302128Y-61610681D01*
X124751977Y-61060530D01*
X124774661Y-61054452D01*
X124910338Y-60976118D01*
X125021118Y-60865338D01*
X125099452Y-60729661D01*
X125105530Y-60706977D01*
X125685000Y-61286447D01*
X126264469Y-60706977D01*
X126270548Y-60729661D01*
G37*
%TD.AperFunction*%
%TA.AperFunction,Conductor*%
G36*
X126004907Y-59338834D02*
G01*
X126043633Y-59365080D01*
X126618022Y-59939469D01*
X126595339Y-59945548D01*
X126459662Y-60023882D01*
X126348882Y-60134662D01*
X126270548Y-60270339D01*
X126264469Y-60293022D01*
X125685000Y-59713553D01*
X125105530Y-60293022D01*
X125099452Y-60270339D01*
X125021118Y-60134662D01*
X124910338Y-60023882D01*
X124774661Y-59945548D01*
X124751977Y-59939469D01*
X125326366Y-59365080D01*
X125387689Y-59331595D01*
X125434453Y-59330452D01*
X125569573Y-59353000D01*
X125569575Y-59353000D01*
X125800425Y-59353000D01*
X125800427Y-59353000D01*
X125935544Y-59330452D01*
X126004907Y-59338834D01*
G37*
%TD.AperFunction*%
%TA.AperFunction,Conductor*%
G36*
X128284907Y-59338834D02*
G01*
X128323633Y-59365080D01*
X128898022Y-59939469D01*
X128875339Y-59945548D01*
X128739662Y-60023882D01*
X128628882Y-60134662D01*
X128550548Y-60270339D01*
X128544469Y-60293022D01*
X127965000Y-59713553D01*
X127385530Y-60293022D01*
X127379452Y-60270339D01*
X127301118Y-60134662D01*
X127190338Y-60023882D01*
X127054661Y-59945548D01*
X127031977Y-59939469D01*
X127606366Y-59365080D01*
X127667689Y-59331595D01*
X127714453Y-59330452D01*
X127849573Y-59353000D01*
X127849575Y-59353000D01*
X128080425Y-59353000D01*
X128080427Y-59353000D01*
X128215544Y-59330452D01*
X128284907Y-59338834D01*
G37*
%TD.AperFunction*%
%TA.AperFunction,Conductor*%
G36*
X132844907Y-59338834D02*
G01*
X132883633Y-59365080D01*
X133458022Y-59939469D01*
X133435339Y-59945548D01*
X133299662Y-60023882D01*
X133188882Y-60134662D01*
X133110548Y-60270339D01*
X133104469Y-60293022D01*
X132563331Y-59751884D01*
X132547203Y-59732025D01*
X132547202Y-59732023D01*
X132488040Y-59641469D01*
X132413946Y-59560981D01*
X132383025Y-59498328D01*
X132390885Y-59428902D01*
X132435032Y-59374747D01*
X132501450Y-59353056D01*
X132505177Y-59353000D01*
X132640425Y-59353000D01*
X132640427Y-59353000D01*
X132775544Y-59330452D01*
X132844907Y-59338834D01*
G37*
%TD.AperFunction*%
%TA.AperFunction,Conductor*%
G36*
X130129573Y-59353000D02*
G01*
X130129575Y-59353000D01*
X130264823Y-59353000D01*
X130331862Y-59372685D01*
X130377617Y-59425489D01*
X130387561Y-59494647D01*
X130358536Y-59558203D01*
X130356071Y-59560961D01*
X130333489Y-59585494D01*
X130281959Y-59641469D01*
X130222797Y-59732023D01*
X130206670Y-59751881D01*
X129665529Y-60293021D01*
X129659452Y-60270339D01*
X129581118Y-60134662D01*
X129470338Y-60023882D01*
X129334661Y-59945548D01*
X129311977Y-59939469D01*
X129886366Y-59365080D01*
X129947689Y-59331595D01*
X129994453Y-59330452D01*
X130129573Y-59353000D01*
G37*
%TD.AperFunction*%
%TA.AperFunction,Conductor*%
G36*
X124994075Y-78692993D02*
G01*
X125059901Y-78807007D01*
X125152993Y-78900099D01*
X125267007Y-78965925D01*
X125330590Y-78982962D01*
X124698625Y-79614925D01*
X124775031Y-79668425D01*
X124818655Y-79723002D01*
X124825848Y-79792501D01*
X124794326Y-79854855D01*
X124775029Y-79871576D01*
X124698625Y-79925072D01*
X125330590Y-80557037D01*
X125267007Y-80574075D01*
X125152993Y-80639901D01*
X125059901Y-80732993D01*
X124994075Y-80847007D01*
X124977037Y-80910590D01*
X124345073Y-80278626D01*
X124291881Y-80354594D01*
X124237304Y-80398219D01*
X124167806Y-80405413D01*
X124105451Y-80373891D01*
X124088730Y-80354594D01*
X123958494Y-80168597D01*
X123791402Y-80001506D01*
X123791396Y-80001501D01*
X123605842Y-79871575D01*
X123562217Y-79816998D01*
X123555023Y-79747500D01*
X123586546Y-79685145D01*
X123605842Y-79668425D01*
X123638161Y-79645795D01*
X123791401Y-79538495D01*
X123958495Y-79371401D01*
X124088732Y-79185403D01*
X124143307Y-79141780D01*
X124212805Y-79134586D01*
X124275160Y-79166109D01*
X124291880Y-79185405D01*
X124345073Y-79261373D01*
X124977037Y-78629409D01*
X124994075Y-78692993D01*
G37*
%TD.AperFunction*%
%TA.AperFunction,Conductor*%
G36*
X127534075Y-78692993D02*
G01*
X127599901Y-78807007D01*
X127692993Y-78900099D01*
X127807007Y-78965925D01*
X127870590Y-78982962D01*
X127238625Y-79614925D01*
X127315031Y-79668425D01*
X127358655Y-79723002D01*
X127365848Y-79792501D01*
X127334326Y-79854855D01*
X127315029Y-79871576D01*
X127238625Y-79925072D01*
X127870590Y-80557037D01*
X127807007Y-80574075D01*
X127692993Y-80639901D01*
X127599901Y-80732993D01*
X127534075Y-80847007D01*
X127517037Y-80910590D01*
X126885072Y-80278625D01*
X126885072Y-80278626D01*
X126831574Y-80355030D01*
X126776998Y-80398655D01*
X126707499Y-80405849D01*
X126645144Y-80374326D01*
X126628424Y-80355030D01*
X126574925Y-80278626D01*
X126574925Y-80278625D01*
X125942962Y-80910589D01*
X125925925Y-80847007D01*
X125860099Y-80732993D01*
X125767007Y-80639901D01*
X125652993Y-80574075D01*
X125589410Y-80557037D01*
X126221373Y-79925073D01*
X126144969Y-79871576D01*
X126101344Y-79816999D01*
X126094150Y-79747501D01*
X126125672Y-79685146D01*
X126144968Y-79668425D01*
X126221373Y-79614925D01*
X125589409Y-78982962D01*
X125652993Y-78965925D01*
X125767007Y-78900099D01*
X125860099Y-78807007D01*
X125925925Y-78692993D01*
X125942962Y-78629410D01*
X126574925Y-79261373D01*
X126628425Y-79184968D01*
X126683002Y-79141344D01*
X126752501Y-79134151D01*
X126814855Y-79165673D01*
X126831576Y-79184969D01*
X126885073Y-79261372D01*
X127517037Y-78629409D01*
X127534075Y-78692993D01*
G37*
%TD.AperFunction*%
%TA.AperFunction,Conductor*%
G36*
X130074075Y-78692993D02*
G01*
X130139901Y-78807007D01*
X130232993Y-78900099D01*
X130347007Y-78965925D01*
X130410590Y-78982962D01*
X129778625Y-79614925D01*
X129855031Y-79668425D01*
X129898655Y-79723002D01*
X129905848Y-79792501D01*
X129874326Y-79854855D01*
X129855029Y-79871576D01*
X129778625Y-79925072D01*
X130410590Y-80557037D01*
X130347007Y-80574075D01*
X130232993Y-80639901D01*
X130139901Y-80732993D01*
X130074075Y-80847007D01*
X130057037Y-80910590D01*
X129425072Y-80278625D01*
X129425072Y-80278626D01*
X129371574Y-80355030D01*
X129316998Y-80398655D01*
X129247499Y-80405849D01*
X129185144Y-80374326D01*
X129168424Y-80355030D01*
X129114925Y-80278626D01*
X129114925Y-80278625D01*
X128482962Y-80910589D01*
X128465925Y-80847007D01*
X128400099Y-80732993D01*
X128307007Y-80639901D01*
X128192993Y-80574075D01*
X128129410Y-80557037D01*
X128761373Y-79925073D01*
X128684969Y-79871576D01*
X128641344Y-79816999D01*
X128634150Y-79747501D01*
X128665672Y-79685146D01*
X128684968Y-79668425D01*
X128761373Y-79614925D01*
X128129409Y-78982962D01*
X128192993Y-78965925D01*
X128307007Y-78900099D01*
X128400099Y-78807007D01*
X128465925Y-78692993D01*
X128482962Y-78629410D01*
X129114925Y-79261373D01*
X129168425Y-79184968D01*
X129223002Y-79141344D01*
X129292501Y-79134151D01*
X129354855Y-79165673D01*
X129371576Y-79184969D01*
X129425073Y-79261372D01*
X130057037Y-78629409D01*
X130074075Y-78692993D01*
G37*
%TD.AperFunction*%
%TA.AperFunction,Conductor*%
G36*
X131654925Y-79261373D02*
G01*
X131708119Y-79185405D01*
X131762696Y-79141781D01*
X131832195Y-79134588D01*
X131894549Y-79166110D01*
X131911269Y-79185405D01*
X132041505Y-79371401D01*
X132041506Y-79371402D01*
X132208597Y-79538493D01*
X132208603Y-79538498D01*
X132394158Y-79668425D01*
X132437783Y-79723002D01*
X132444977Y-79792500D01*
X132413454Y-79854855D01*
X132394158Y-79871575D01*
X132208597Y-80001505D01*
X132041505Y-80168597D01*
X131911269Y-80354595D01*
X131856692Y-80398220D01*
X131787194Y-80405414D01*
X131724839Y-80373891D01*
X131708119Y-80354595D01*
X131654925Y-80278626D01*
X131654925Y-80278625D01*
X131022962Y-80910589D01*
X131005925Y-80847007D01*
X130940099Y-80732993D01*
X130847007Y-80639901D01*
X130732993Y-80574075D01*
X130669410Y-80557037D01*
X131301373Y-79925073D01*
X131224969Y-79871576D01*
X131181344Y-79816999D01*
X131174150Y-79747501D01*
X131205672Y-79685146D01*
X131224968Y-79668425D01*
X131301373Y-79614925D01*
X130669409Y-78982962D01*
X130732993Y-78965925D01*
X130847007Y-78900099D01*
X130940099Y-78807007D01*
X131005925Y-78692993D01*
X131022962Y-78629410D01*
X131654925Y-79261373D01*
G37*
%TD.AperFunction*%
%TA.AperFunction,Conductor*%
G36*
X183220423Y-49549685D02*
G01*
X183266178Y-49602489D01*
X183276122Y-49671647D01*
X183247097Y-49735203D01*
X183227695Y-49753266D01*
X183142812Y-49816809D01*
X183142809Y-49816812D01*
X183056649Y-49931906D01*
X183056645Y-49931913D01*
X183006403Y-50066620D01*
X183006401Y-50066627D01*
X183000000Y-50126155D01*
X183000000Y-50374000D01*
X185500000Y-50374000D01*
X185500000Y-50126172D01*
X185499999Y-50126155D01*
X185493598Y-50066627D01*
X185493596Y-50066620D01*
X185443354Y-49931913D01*
X185443350Y-49931906D01*
X185357190Y-49816812D01*
X185357187Y-49816809D01*
X185272305Y-49753266D01*
X185230434Y-49697332D01*
X185225450Y-49627641D01*
X185258936Y-49566318D01*
X185320259Y-49532834D01*
X185346616Y-49530000D01*
X200653384Y-49530000D01*
X200720423Y-49549685D01*
X200766178Y-49602489D01*
X200776122Y-49671647D01*
X200747097Y-49735203D01*
X200727695Y-49753266D01*
X200642812Y-49816809D01*
X200642809Y-49816812D01*
X200556649Y-49931906D01*
X200556645Y-49931913D01*
X200506403Y-50066620D01*
X200506401Y-50066627D01*
X200500000Y-50126155D01*
X200500000Y-50374000D01*
X203000000Y-50374000D01*
X203000000Y-50126172D01*
X202999999Y-50126155D01*
X202993598Y-50066627D01*
X202993596Y-50066620D01*
X202943354Y-49931913D01*
X202943350Y-49931906D01*
X202857190Y-49816812D01*
X202857187Y-49816809D01*
X202772305Y-49753266D01*
X202730434Y-49697332D01*
X202725450Y-49627641D01*
X202758936Y-49566318D01*
X202820259Y-49532834D01*
X202846616Y-49530000D01*
X215340638Y-49530000D01*
X215407677Y-49549685D01*
X215428319Y-49566319D01*
X215609681Y-49747681D01*
X215643166Y-49809004D01*
X215646000Y-49835362D01*
X215646000Y-86490000D01*
X215626315Y-86557039D01*
X215573511Y-86602794D01*
X215522000Y-86614000D01*
X104550000Y-86614000D01*
X104482961Y-86594315D01*
X104437206Y-86541511D01*
X104426000Y-86490000D01*
X104426000Y-80000002D01*
X106644579Y-80000002D01*
X106664248Y-80362782D01*
X106664250Y-80362799D01*
X106723024Y-80721303D01*
X106723030Y-80721329D01*
X106820221Y-81071381D01*
X106820226Y-81071396D01*
X106954700Y-81408901D01*
X106954706Y-81408913D01*
X107124878Y-81729892D01*
X107124881Y-81729897D01*
X107124883Y-81729900D01*
X107173343Y-81801373D01*
X107328772Y-82030613D01*
X107553028Y-82294628D01*
X107563979Y-82307521D01*
X107598265Y-82339998D01*
X107827745Y-82557374D01*
X107827755Y-82557382D01*
X107855045Y-82578127D01*
X108116981Y-82777245D01*
X108428292Y-82964555D01*
X108428294Y-82964556D01*
X108428296Y-82964557D01*
X108428300Y-82964559D01*
X108750191Y-83113481D01*
X108758031Y-83117108D01*
X109102330Y-83233116D01*
X109457153Y-83311218D01*
X109818341Y-83350500D01*
X109818347Y-83350500D01*
X110181653Y-83350500D01*
X110181659Y-83350500D01*
X110542847Y-83311218D01*
X110897670Y-83233116D01*
X111241969Y-83117108D01*
X111571708Y-82964555D01*
X111883019Y-82777245D01*
X112172254Y-82557375D01*
X112436021Y-82307521D01*
X112671227Y-82030614D01*
X112875117Y-81729900D01*
X113045298Y-81408905D01*
X113179775Y-81071391D01*
X113188491Y-81040001D01*
X113222182Y-80918656D01*
X113276973Y-80721316D01*
X113310589Y-80516269D01*
X113335749Y-80362799D01*
X113335751Y-80362782D01*
X113336445Y-80349992D01*
X113351047Y-80080665D01*
X113355421Y-80000002D01*
X113355421Y-79999997D01*
X113339979Y-79715187D01*
X113335751Y-79637215D01*
X113334850Y-79631722D01*
X113276975Y-79278696D01*
X113276974Y-79278695D01*
X113276973Y-79278684D01*
X113236844Y-79134151D01*
X113179778Y-78928618D01*
X113179773Y-78928603D01*
X113054333Y-78613771D01*
X113045298Y-78591095D01*
X112997002Y-78500000D01*
X119024341Y-78500000D01*
X119044936Y-78735403D01*
X119044938Y-78735413D01*
X119106094Y-78963655D01*
X119106096Y-78963659D01*
X119106097Y-78963663D01*
X119167570Y-79095492D01*
X119205965Y-79177830D01*
X119205967Y-79177834D01*
X119264462Y-79261373D01*
X119341505Y-79371401D01*
X119508599Y-79538495D01*
X119508604Y-79538499D01*
X119509968Y-79539643D01*
X119510407Y-79540303D01*
X119512427Y-79542323D01*
X119512021Y-79542728D01*
X119548669Y-79597815D01*
X119549776Y-79667676D01*
X119512937Y-79727046D01*
X119469267Y-79752336D01*
X119460669Y-79755184D01*
X119460663Y-79755187D01*
X119311342Y-79847289D01*
X119187289Y-79971342D01*
X119095187Y-80120663D01*
X119095185Y-80120668D01*
X119072439Y-80189312D01*
X119040001Y-80287203D01*
X119040001Y-80287204D01*
X119040000Y-80287204D01*
X119029500Y-80389983D01*
X119029500Y-81690001D01*
X119029501Y-81690018D01*
X119040000Y-81792796D01*
X119040001Y-81792799D01*
X119081931Y-81919334D01*
X119095186Y-81959334D01*
X119187288Y-82108656D01*
X119311344Y-82232712D01*
X119460666Y-82324814D01*
X119627203Y-82379999D01*
X119729991Y-82390500D01*
X121030008Y-82390499D01*
X121132797Y-82379999D01*
X121299334Y-82324814D01*
X121448656Y-82232712D01*
X121572712Y-82108656D01*
X121664814Y-81959334D01*
X121667662Y-81950738D01*
X121707429Y-81893294D01*
X121771944Y-81866468D01*
X121840720Y-81878779D01*
X121877483Y-81907766D01*
X121877677Y-81907573D01*
X121879313Y-81909209D01*
X121880354Y-81910030D01*
X121881501Y-81911397D01*
X121881504Y-81911400D01*
X121881505Y-81911401D01*
X122048599Y-82078495D01*
X122137438Y-82140701D01*
X122242165Y-82214032D01*
X122242167Y-82214033D01*
X122242170Y-82214035D01*
X122456337Y-82313903D01*
X122684592Y-82375063D01*
X122861034Y-82390500D01*
X122919999Y-82395659D01*
X122920000Y-82395659D01*
X122920001Y-82395659D01*
X122978966Y-82390500D01*
X123155408Y-82375063D01*
X123383663Y-82313903D01*
X123597830Y-82214035D01*
X123791401Y-82078495D01*
X123958495Y-81911401D01*
X124088732Y-81725403D01*
X124143307Y-81681780D01*
X124212805Y-81674586D01*
X124275160Y-81706109D01*
X124291880Y-81725405D01*
X124345073Y-81801373D01*
X124977037Y-81169409D01*
X124994075Y-81232993D01*
X125059901Y-81347007D01*
X125152993Y-81440099D01*
X125267007Y-81505925D01*
X125330590Y-81522962D01*
X124698625Y-82154925D01*
X124782421Y-82213599D01*
X124996507Y-82313429D01*
X124996516Y-82313433D01*
X125224673Y-82374567D01*
X125224684Y-82374569D01*
X125459998Y-82395157D01*
X125460002Y-82395157D01*
X125695315Y-82374569D01*
X125695326Y-82374567D01*
X125923483Y-82313433D01*
X125923492Y-82313429D01*
X126137578Y-82213600D01*
X126137582Y-82213598D01*
X126221373Y-82154926D01*
X126221373Y-82154925D01*
X125589409Y-81522962D01*
X125652993Y-81505925D01*
X125767007Y-81440099D01*
X125860099Y-81347007D01*
X125925925Y-81232993D01*
X125942962Y-81169410D01*
X126574925Y-81801373D01*
X126628425Y-81724968D01*
X126683002Y-81681344D01*
X126752501Y-81674151D01*
X126814855Y-81705673D01*
X126831576Y-81724969D01*
X126885073Y-81801372D01*
X127517037Y-81169409D01*
X127534075Y-81232993D01*
X127599901Y-81347007D01*
X127692993Y-81440099D01*
X127807007Y-81505925D01*
X127870590Y-81522962D01*
X127238625Y-82154925D01*
X127322421Y-82213599D01*
X127536507Y-82313429D01*
X127536516Y-82313433D01*
X127764673Y-82374567D01*
X127764684Y-82374569D01*
X127999998Y-82395157D01*
X128000002Y-82395157D01*
X128235315Y-82374569D01*
X128235326Y-82374567D01*
X128463483Y-82313433D01*
X128463492Y-82313429D01*
X128677578Y-82213600D01*
X128677582Y-82213598D01*
X128761373Y-82154926D01*
X128761373Y-82154925D01*
X128129409Y-81522962D01*
X128192993Y-81505925D01*
X128307007Y-81440099D01*
X128400099Y-81347007D01*
X128465925Y-81232993D01*
X128482962Y-81169410D01*
X129114925Y-81801373D01*
X129168425Y-81724968D01*
X129223002Y-81681344D01*
X129292501Y-81674151D01*
X129354855Y-81705673D01*
X129371576Y-81724969D01*
X129425073Y-81801372D01*
X130057037Y-81169409D01*
X130074075Y-81232993D01*
X130139901Y-81347007D01*
X130232993Y-81440099D01*
X130347007Y-81505925D01*
X130410590Y-81522962D01*
X129778625Y-82154925D01*
X129862421Y-82213599D01*
X130076507Y-82313429D01*
X130076516Y-82313433D01*
X130304673Y-82374567D01*
X130304684Y-82374569D01*
X130539998Y-82395157D01*
X130540002Y-82395157D01*
X130775315Y-82374569D01*
X130775326Y-82374567D01*
X131003483Y-82313433D01*
X131003492Y-82313429D01*
X131217578Y-82213600D01*
X131217582Y-82213598D01*
X131301373Y-82154926D01*
X131301373Y-82154925D01*
X130669409Y-81522962D01*
X130732993Y-81505925D01*
X130847007Y-81440099D01*
X130940099Y-81347007D01*
X131005925Y-81232993D01*
X131022962Y-81169410D01*
X131654925Y-81801373D01*
X131708119Y-81725405D01*
X131762696Y-81681781D01*
X131832195Y-81674588D01*
X131894549Y-81706110D01*
X131911269Y-81725405D01*
X131914417Y-81729901D01*
X132041505Y-81911401D01*
X132208599Y-82078495D01*
X132297438Y-82140701D01*
X132402165Y-82214032D01*
X132402167Y-82214033D01*
X132402170Y-82214035D01*
X132616337Y-82313903D01*
X132844592Y-82375063D01*
X133021034Y-82390500D01*
X133079999Y-82395659D01*
X133080000Y-82395659D01*
X133080001Y-82395659D01*
X133138966Y-82390500D01*
X133315408Y-82375063D01*
X133543663Y-82313903D01*
X133757830Y-82214035D01*
X133951401Y-82078495D01*
X134118495Y-81911401D01*
X134245583Y-81729901D01*
X134248425Y-81725842D01*
X134303002Y-81682217D01*
X134372500Y-81675023D01*
X134434855Y-81706546D01*
X134451575Y-81725842D01*
X134581500Y-81911395D01*
X134581505Y-81911401D01*
X134748599Y-82078495D01*
X134837438Y-82140701D01*
X134942165Y-82214032D01*
X134942167Y-82214033D01*
X134942170Y-82214035D01*
X135156337Y-82313903D01*
X135384592Y-82375063D01*
X135561034Y-82390500D01*
X135619999Y-82395659D01*
X135620000Y-82395659D01*
X135620001Y-82395659D01*
X135678966Y-82390500D01*
X135855408Y-82375063D01*
X136083663Y-82313903D01*
X136297830Y-82214035D01*
X136491401Y-82078495D01*
X136658495Y-81911401D01*
X136785583Y-81729901D01*
X136788425Y-81725842D01*
X136843002Y-81682217D01*
X136912500Y-81675023D01*
X136974855Y-81706546D01*
X136991575Y-81725842D01*
X137121500Y-81911395D01*
X137121505Y-81911401D01*
X137288599Y-82078495D01*
X137377438Y-82140701D01*
X137482165Y-82214032D01*
X137482167Y-82214033D01*
X137482170Y-82214035D01*
X137696337Y-82313903D01*
X137924592Y-82375063D01*
X138101034Y-82390500D01*
X138159999Y-82395659D01*
X138160000Y-82395659D01*
X138160001Y-82395659D01*
X138218966Y-82390500D01*
X138395408Y-82375063D01*
X138623663Y-82313903D01*
X138837830Y-82214035D01*
X139031401Y-82078495D01*
X139198495Y-81911401D01*
X139334035Y-81717830D01*
X139433903Y-81503663D01*
X139495063Y-81275408D01*
X139515659Y-81040000D01*
X139495063Y-80804592D01*
X139433903Y-80576337D01*
X139334035Y-80362171D01*
X139328731Y-80354595D01*
X139198494Y-80168597D01*
X139031402Y-80001506D01*
X139031396Y-80001501D01*
X138845842Y-79871575D01*
X138802217Y-79816998D01*
X138795023Y-79747500D01*
X138826546Y-79685145D01*
X138845842Y-79668425D01*
X138878161Y-79645795D01*
X139031401Y-79538495D01*
X139198495Y-79371401D01*
X139334035Y-79177830D01*
X139433903Y-78963663D01*
X139495063Y-78735408D01*
X139515659Y-78500000D01*
X139515491Y-78498085D01*
X139498774Y-78307007D01*
X139495063Y-78264592D01*
X139433903Y-78036337D01*
X139334035Y-77822171D01*
X139331269Y-77818220D01*
X139198494Y-77628597D01*
X139031402Y-77461506D01*
X139031395Y-77461501D01*
X138837834Y-77325967D01*
X138837830Y-77325965D01*
X138752985Y-77286401D01*
X138623663Y-77226097D01*
X138623659Y-77226096D01*
X138623655Y-77226094D01*
X138395413Y-77164938D01*
X138395403Y-77164936D01*
X138160001Y-77144341D01*
X138159999Y-77144341D01*
X137924596Y-77164936D01*
X137924586Y-77164938D01*
X137696344Y-77226094D01*
X137696335Y-77226098D01*
X137482171Y-77325964D01*
X137482169Y-77325965D01*
X137288597Y-77461505D01*
X137121505Y-77628597D01*
X136991575Y-77814158D01*
X136936998Y-77857783D01*
X136867500Y-77864977D01*
X136805145Y-77833454D01*
X136788425Y-77814158D01*
X136658494Y-77628597D01*
X136491402Y-77461506D01*
X136491395Y-77461501D01*
X136297834Y-77325967D01*
X136297830Y-77325965D01*
X136212985Y-77286401D01*
X136083663Y-77226097D01*
X136083659Y-77226096D01*
X136083655Y-77226094D01*
X135855413Y-77164938D01*
X135855403Y-77164936D01*
X135620001Y-77144341D01*
X135619999Y-77144341D01*
X135384596Y-77164936D01*
X135384586Y-77164938D01*
X135156344Y-77226094D01*
X135156335Y-77226098D01*
X134942171Y-77325964D01*
X134942169Y-77325965D01*
X134748597Y-77461505D01*
X134581505Y-77628597D01*
X134451575Y-77814158D01*
X134396998Y-77857783D01*
X134327500Y-77864977D01*
X134265145Y-77833454D01*
X134248425Y-77814158D01*
X134118494Y-77628597D01*
X133951402Y-77461506D01*
X133951395Y-77461501D01*
X133757834Y-77325967D01*
X133757830Y-77325965D01*
X133672985Y-77286401D01*
X133543663Y-77226097D01*
X133543659Y-77226096D01*
X133543655Y-77226094D01*
X133315413Y-77164938D01*
X133315403Y-77164936D01*
X133080001Y-77144341D01*
X133079999Y-77144341D01*
X132844596Y-77164936D01*
X132844586Y-77164938D01*
X132616344Y-77226094D01*
X132616335Y-77226098D01*
X132402171Y-77325964D01*
X132402169Y-77325965D01*
X132208597Y-77461505D01*
X132041505Y-77628597D01*
X131911269Y-77814595D01*
X131856692Y-77858220D01*
X131787194Y-77865414D01*
X131724839Y-77833891D01*
X131708119Y-77814595D01*
X131654925Y-77738626D01*
X131654925Y-77738625D01*
X131022962Y-78370589D01*
X131005925Y-78307007D01*
X130940099Y-78192993D01*
X130847007Y-78099901D01*
X130732993Y-78034075D01*
X130669410Y-78017037D01*
X131301373Y-77385073D01*
X131301373Y-77385072D01*
X131217583Y-77326402D01*
X131217579Y-77326400D01*
X131003492Y-77226570D01*
X131003483Y-77226566D01*
X130775326Y-77165432D01*
X130775315Y-77165430D01*
X130540002Y-77144843D01*
X130539998Y-77144843D01*
X130304684Y-77165430D01*
X130304673Y-77165432D01*
X130076516Y-77226566D01*
X130076507Y-77226570D01*
X129862419Y-77326401D01*
X129778625Y-77385072D01*
X130410590Y-78017037D01*
X130347007Y-78034075D01*
X130232993Y-78099901D01*
X130139901Y-78192993D01*
X130074075Y-78307007D01*
X130057037Y-78370590D01*
X129425072Y-77738625D01*
X129425072Y-77738626D01*
X129371574Y-77815030D01*
X129316998Y-77858655D01*
X129247499Y-77865849D01*
X129185144Y-77834326D01*
X129168424Y-77815030D01*
X129114925Y-77738626D01*
X129114925Y-77738625D01*
X128482962Y-78370589D01*
X128465925Y-78307007D01*
X128400099Y-78192993D01*
X128307007Y-78099901D01*
X128192993Y-78034075D01*
X128129410Y-78017037D01*
X128761373Y-77385073D01*
X128761373Y-77385072D01*
X128677583Y-77326402D01*
X128677579Y-77326400D01*
X128463492Y-77226570D01*
X128463483Y-77226566D01*
X128235326Y-77165432D01*
X128235315Y-77165430D01*
X128000002Y-77144843D01*
X127999998Y-77144843D01*
X127764684Y-77165430D01*
X127764673Y-77165432D01*
X127536516Y-77226566D01*
X127536507Y-77226570D01*
X127322419Y-77326401D01*
X127238625Y-77385072D01*
X127870590Y-78017037D01*
X127807007Y-78034075D01*
X127692993Y-78099901D01*
X127599901Y-78192993D01*
X127534075Y-78307007D01*
X127517037Y-78370590D01*
X126885072Y-77738625D01*
X126885072Y-77738626D01*
X126831574Y-77815030D01*
X126776998Y-77858655D01*
X126707499Y-77865849D01*
X126645144Y-77834326D01*
X126628424Y-77815030D01*
X126574925Y-77738626D01*
X126574925Y-77738625D01*
X125942962Y-78370589D01*
X125925925Y-78307007D01*
X125860099Y-78192993D01*
X125767007Y-78099901D01*
X125652993Y-78034075D01*
X125589410Y-78017037D01*
X126221373Y-77385073D01*
X126221373Y-77385072D01*
X126137583Y-77326402D01*
X126137579Y-77326400D01*
X125923492Y-77226570D01*
X125923483Y-77226566D01*
X125695326Y-77165432D01*
X125695315Y-77165430D01*
X125460002Y-77144843D01*
X125459998Y-77144843D01*
X125224684Y-77165430D01*
X125224673Y-77165432D01*
X124996516Y-77226566D01*
X124996507Y-77226570D01*
X124782419Y-77326401D01*
X124698625Y-77385072D01*
X125330590Y-78017037D01*
X125267007Y-78034075D01*
X125152993Y-78099901D01*
X125059901Y-78192993D01*
X124994075Y-78307007D01*
X124977037Y-78370590D01*
X124345073Y-77738626D01*
X124291881Y-77814594D01*
X124237304Y-77858219D01*
X124167806Y-77865413D01*
X124105451Y-77833891D01*
X124088730Y-77814594D01*
X123958494Y-77628597D01*
X123791402Y-77461506D01*
X123791395Y-77461501D01*
X123597834Y-77325967D01*
X123597830Y-77325965D01*
X123512985Y-77286401D01*
X123383663Y-77226097D01*
X123383659Y-77226096D01*
X123383655Y-77226094D01*
X123155413Y-77164938D01*
X123155403Y-77164936D01*
X122920001Y-77144341D01*
X122919999Y-77144341D01*
X122684596Y-77164936D01*
X122684586Y-77164938D01*
X122456344Y-77226094D01*
X122456335Y-77226098D01*
X122242171Y-77325964D01*
X122242169Y-77325965D01*
X122048597Y-77461505D01*
X121881505Y-77628597D01*
X121751575Y-77814158D01*
X121696998Y-77857783D01*
X121627500Y-77864977D01*
X121565145Y-77833454D01*
X121548425Y-77814158D01*
X121418494Y-77628597D01*
X121251402Y-77461506D01*
X121251395Y-77461501D01*
X121057834Y-77325967D01*
X121057830Y-77325965D01*
X120972985Y-77286401D01*
X120843663Y-77226097D01*
X120843659Y-77226096D01*
X120843655Y-77226094D01*
X120615413Y-77164938D01*
X120615403Y-77164936D01*
X120380001Y-77144341D01*
X120379999Y-77144341D01*
X120144596Y-77164936D01*
X120144586Y-77164938D01*
X119916344Y-77226094D01*
X119916335Y-77226098D01*
X119702171Y-77325964D01*
X119702169Y-77325965D01*
X119508597Y-77461505D01*
X119341505Y-77628597D01*
X119205965Y-77822169D01*
X119205964Y-77822171D01*
X119106098Y-78036335D01*
X119106094Y-78036344D01*
X119044938Y-78264586D01*
X119044936Y-78264596D01*
X119024341Y-78499999D01*
X119024341Y-78500000D01*
X112997002Y-78500000D01*
X112875117Y-78270100D01*
X112671227Y-77969386D01*
X112436021Y-77692479D01*
X112172254Y-77442625D01*
X112172244Y-77442617D01*
X112069507Y-77364519D01*
X111883019Y-77222755D01*
X111571708Y-77035445D01*
X111571707Y-77035444D01*
X111571703Y-77035442D01*
X111571699Y-77035440D01*
X111241979Y-76882896D01*
X111241974Y-76882894D01*
X111241969Y-76882892D01*
X111074143Y-76826344D01*
X110897669Y-76766883D01*
X110542845Y-76688781D01*
X110181660Y-76649500D01*
X110181659Y-76649500D01*
X109818341Y-76649500D01*
X109818339Y-76649500D01*
X109457154Y-76688781D01*
X109102330Y-76766883D01*
X108866038Y-76846500D01*
X108758031Y-76882892D01*
X108758028Y-76882893D01*
X108758020Y-76882896D01*
X108428300Y-77035440D01*
X108428296Y-77035442D01*
X108266349Y-77132883D01*
X108116981Y-77222755D01*
X108076151Y-77253793D01*
X107827755Y-77442617D01*
X107827745Y-77442625D01*
X107563978Y-77692479D01*
X107328772Y-77969386D01*
X107124884Y-78270098D01*
X107124878Y-78270107D01*
X106954706Y-78591086D01*
X106954700Y-78591098D01*
X106820226Y-78928603D01*
X106820221Y-78928618D01*
X106723030Y-79278670D01*
X106723024Y-79278696D01*
X106664250Y-79637200D01*
X106664248Y-79637217D01*
X106644579Y-79999997D01*
X106644579Y-80000002D01*
X104426000Y-80000002D01*
X104426000Y-72898000D01*
X151302551Y-72898000D01*
X151307492Y-72960787D01*
X151322317Y-73149151D01*
X151381126Y-73394110D01*
X151477533Y-73626859D01*
X151609160Y-73841653D01*
X151609161Y-73841656D01*
X151609164Y-73841659D01*
X151772776Y-74033224D01*
X151921066Y-74159875D01*
X151964343Y-74196838D01*
X151964346Y-74196839D01*
X152179140Y-74328466D01*
X152353047Y-74400500D01*
X152411889Y-74424873D01*
X152656852Y-74483683D01*
X152908000Y-74503449D01*
X153159148Y-74483683D01*
X153404111Y-74424873D01*
X153636859Y-74328466D01*
X153851659Y-74196836D01*
X154028417Y-74045870D01*
X158927500Y-74045870D01*
X158927501Y-74045876D01*
X158933908Y-74105483D01*
X158984202Y-74240328D01*
X158984206Y-74240335D01*
X159070452Y-74355544D01*
X159070455Y-74355547D01*
X159185664Y-74441793D01*
X159185671Y-74441797D01*
X159320517Y-74492091D01*
X159320516Y-74492091D01*
X159327444Y-74492835D01*
X159380127Y-74498500D01*
X161675872Y-74498499D01*
X161735483Y-74492091D01*
X161870331Y-74441796D01*
X161985546Y-74355546D01*
X162071796Y-74240331D01*
X162122091Y-74105483D01*
X162128500Y-74045873D01*
X162128499Y-71750128D01*
X162122091Y-71690517D01*
X162110877Y-71660452D01*
X162071797Y-71555671D01*
X162071793Y-71555664D01*
X161985547Y-71440455D01*
X161985544Y-71440452D01*
X161863231Y-71348888D01*
X161864574Y-71347092D01*
X161823909Y-71306428D01*
X161809056Y-71238156D01*
X161833472Y-71172691D01*
X161864045Y-71146199D01*
X161863231Y-71145112D01*
X161943136Y-71085293D01*
X161985546Y-71053546D01*
X162071796Y-70938331D01*
X162122091Y-70803483D01*
X162128500Y-70743873D01*
X162128499Y-68448128D01*
X162122091Y-68388517D01*
X162088017Y-68297161D01*
X162071797Y-68253671D01*
X162071793Y-68253664D01*
X161985547Y-68138455D01*
X161985544Y-68138452D01*
X161870335Y-68052206D01*
X161870328Y-68052202D01*
X161735482Y-68001908D01*
X161735483Y-68001908D01*
X161675883Y-67995501D01*
X161675881Y-67995500D01*
X161675873Y-67995500D01*
X161675864Y-67995500D01*
X159380129Y-67995500D01*
X159380123Y-67995501D01*
X159320516Y-68001908D01*
X159185671Y-68052202D01*
X159185664Y-68052206D01*
X159070455Y-68138452D01*
X159070452Y-68138455D01*
X158984206Y-68253664D01*
X158984202Y-68253671D01*
X158933908Y-68388517D01*
X158927501Y-68448116D01*
X158927501Y-68448123D01*
X158927500Y-68448135D01*
X158927500Y-70743870D01*
X158927501Y-70743876D01*
X158933908Y-70803483D01*
X158984202Y-70938328D01*
X158984206Y-70938335D01*
X159070452Y-71053544D01*
X159070455Y-71053547D01*
X159192769Y-71145112D01*
X159191426Y-71146905D01*
X159232096Y-71187581D01*
X159246942Y-71255855D01*
X159222521Y-71321318D01*
X159191956Y-71347802D01*
X159192769Y-71348888D01*
X159070455Y-71440452D01*
X159070452Y-71440455D01*
X158984206Y-71555664D01*
X158984202Y-71555671D01*
X158933908Y-71690517D01*
X158927501Y-71750116D01*
X158927501Y-71750123D01*
X158927500Y-71750135D01*
X158927500Y-74045870D01*
X154028417Y-74045870D01*
X154043224Y-74033224D01*
X154206836Y-73841659D01*
X154338466Y-73626859D01*
X154434873Y-73394111D01*
X154493683Y-73149148D01*
X154513449Y-72898000D01*
X154493683Y-72646852D01*
X154434873Y-72401889D01*
X154338466Y-72169141D01*
X154338466Y-72169140D01*
X154206839Y-71954346D01*
X154206838Y-71954343D01*
X154169875Y-71911066D01*
X154043224Y-71762776D01*
X153863281Y-71609090D01*
X153851656Y-71599161D01*
X153851653Y-71599160D01*
X153636859Y-71467533D01*
X153404109Y-71371126D01*
X153389313Y-71367574D01*
X153328721Y-71332784D01*
X153296556Y-71270758D01*
X153303032Y-71201189D01*
X153346091Y-71146165D01*
X153389313Y-71126426D01*
X153395441Y-71124954D01*
X153404111Y-71122873D01*
X153636859Y-71026466D01*
X153851659Y-70894836D01*
X154043224Y-70731224D01*
X154206836Y-70539659D01*
X154338466Y-70324859D01*
X154434873Y-70092111D01*
X154493683Y-69847148D01*
X154513449Y-69596000D01*
X154493683Y-69344852D01*
X154434873Y-69099889D01*
X154338466Y-68867141D01*
X154338466Y-68867140D01*
X154206839Y-68652346D01*
X154206838Y-68652343D01*
X154073739Y-68496505D01*
X154043224Y-68460776D01*
X153868669Y-68311692D01*
X153851656Y-68297161D01*
X153851653Y-68297160D01*
X153636859Y-68165533D01*
X153404110Y-68069126D01*
X153159151Y-68010317D01*
X152908000Y-67990551D01*
X152656848Y-68010317D01*
X152411889Y-68069126D01*
X152179140Y-68165533D01*
X151964346Y-68297160D01*
X151964343Y-68297161D01*
X151772776Y-68460776D01*
X151609161Y-68652343D01*
X151609160Y-68652346D01*
X151477533Y-68867140D01*
X151381126Y-69099889D01*
X151322317Y-69344848D01*
X151302551Y-69596000D01*
X151322317Y-69847151D01*
X151381126Y-70092110D01*
X151477533Y-70324859D01*
X151609160Y-70539653D01*
X151609161Y-70539656D01*
X151664604Y-70604571D01*
X151772776Y-70731224D01*
X151921066Y-70857875D01*
X151964343Y-70894838D01*
X151964346Y-70894839D01*
X152179140Y-71026466D01*
X152343715Y-71094634D01*
X152411889Y-71122873D01*
X152424312Y-71125855D01*
X152426688Y-71126426D01*
X152487279Y-71161217D01*
X152519443Y-71223243D01*
X152512967Y-71292812D01*
X152469907Y-71347836D01*
X152426688Y-71367574D01*
X152411887Y-71371127D01*
X152179140Y-71467533D01*
X151964346Y-71599160D01*
X151964343Y-71599161D01*
X151772776Y-71762776D01*
X151609161Y-71954343D01*
X151609160Y-71954346D01*
X151477533Y-72169140D01*
X151381126Y-72401889D01*
X151322317Y-72646848D01*
X151302551Y-72897998D01*
X151302551Y-72898000D01*
X104426000Y-72898000D01*
X104426000Y-60500000D01*
X114896751Y-60500000D01*
X114915731Y-60813781D01*
X114915731Y-60813786D01*
X114915732Y-60813787D01*
X114972397Y-61122998D01*
X114972398Y-61123002D01*
X114972399Y-61123006D01*
X115065913Y-61423106D01*
X115065917Y-61423118D01*
X115065920Y-61423125D01*
X115194937Y-61709790D01*
X115319326Y-61915554D01*
X115357567Y-61978812D01*
X115357573Y-61978821D01*
X115551442Y-62226276D01*
X115773723Y-62448557D01*
X115981682Y-62611483D01*
X116021186Y-62642432D01*
X116290210Y-62805063D01*
X116576875Y-62934080D01*
X116576888Y-62934084D01*
X116576893Y-62934086D01*
X116776959Y-62996428D01*
X116877002Y-63027603D01*
X117186213Y-63084268D01*
X117500000Y-63103249D01*
X117813787Y-63084268D01*
X118122998Y-63027603D01*
X118423125Y-62934080D01*
X118709790Y-62805063D01*
X118978814Y-62642432D01*
X119226273Y-62448560D01*
X119448560Y-62226273D01*
X119642432Y-61978814D01*
X119805063Y-61709790D01*
X119934080Y-61423125D01*
X120027603Y-61122998D01*
X120084268Y-60813787D01*
X120103249Y-60500005D01*
X123147728Y-60500005D01*
X123166784Y-60729979D01*
X123223435Y-60953691D01*
X123316135Y-61165027D01*
X123399230Y-61292214D01*
X123984469Y-60706976D01*
X123990548Y-60729661D01*
X124068882Y-60865338D01*
X124179662Y-60976118D01*
X124315339Y-61054452D01*
X124338022Y-61060529D01*
X123751544Y-61647006D01*
X123751545Y-61647007D01*
X123780762Y-61669747D01*
X123780764Y-61669748D01*
X123983720Y-61779583D01*
X123983729Y-61779586D01*
X124201987Y-61854515D01*
X124209570Y-61855781D01*
X124272455Y-61886231D01*
X124308895Y-61945846D01*
X124307320Y-62015698D01*
X124305344Y-62021420D01*
X124298409Y-62040015D01*
X124298408Y-62040016D01*
X124292001Y-62099616D01*
X124292000Y-62099635D01*
X124292000Y-63980370D01*
X124292001Y-63980376D01*
X124298408Y-64039983D01*
X124348702Y-64174828D01*
X124348706Y-64174835D01*
X124434952Y-64290044D01*
X124434955Y-64290047D01*
X124550164Y-64376293D01*
X124550171Y-64376297D01*
X124685017Y-64426591D01*
X124685016Y-64426591D01*
X124691944Y-64427335D01*
X124744627Y-64433000D01*
X126625372Y-64432999D01*
X126684983Y-64426591D01*
X126819831Y-64376296D01*
X126935046Y-64290046D01*
X126994831Y-64210182D01*
X127050763Y-64168312D01*
X127120455Y-64163328D01*
X127170260Y-64186641D01*
X127199947Y-64209748D01*
X127200490Y-64210170D01*
X127403521Y-64320044D01*
X127621867Y-64395002D01*
X127849573Y-64433000D01*
X127849574Y-64433000D01*
X128080426Y-64433000D01*
X128080427Y-64433000D01*
X128308133Y-64395002D01*
X128526479Y-64320044D01*
X128729510Y-64210170D01*
X128730054Y-64209747D01*
X128876031Y-64096128D01*
X128911687Y-64068376D01*
X129013772Y-63957481D01*
X129073656Y-63921492D01*
X129143495Y-63923591D01*
X129196227Y-63957481D01*
X129278308Y-64046644D01*
X129298310Y-64068373D01*
X129298319Y-64068381D01*
X129480481Y-64210164D01*
X129480488Y-64210168D01*
X129480490Y-64210170D01*
X129683521Y-64320044D01*
X129901867Y-64395002D01*
X130129573Y-64433000D01*
X130129574Y-64433000D01*
X130360426Y-64433000D01*
X130360427Y-64433000D01*
X130588133Y-64395002D01*
X130806479Y-64320044D01*
X131009510Y-64210170D01*
X131010054Y-64209747D01*
X131156031Y-64096128D01*
X131191687Y-64068376D01*
X131293772Y-63957481D01*
X131353656Y-63921492D01*
X131423495Y-63923591D01*
X131476227Y-63957481D01*
X131558308Y-64046644D01*
X131578310Y-64068373D01*
X131578319Y-64068381D01*
X131760481Y-64210164D01*
X131760488Y-64210168D01*
X131760490Y-64210170D01*
X131963521Y-64320044D01*
X132181867Y-64395002D01*
X132409573Y-64433000D01*
X132409574Y-64433000D01*
X132640426Y-64433000D01*
X132640427Y-64433000D01*
X132868133Y-64395002D01*
X133086479Y-64320044D01*
X133289510Y-64210170D01*
X133290054Y-64209747D01*
X133436031Y-64096128D01*
X133471687Y-64068376D01*
X133628040Y-63898531D01*
X133687210Y-63807964D01*
X133703329Y-63788116D01*
X134244469Y-63246976D01*
X134250548Y-63269661D01*
X134328882Y-63405338D01*
X134439662Y-63516118D01*
X134575339Y-63594452D01*
X134598022Y-63600529D01*
X134011544Y-64187006D01*
X134011545Y-64187007D01*
X134040762Y-64209747D01*
X134040764Y-64209748D01*
X134243720Y-64319583D01*
X134243729Y-64319586D01*
X134461987Y-64394515D01*
X134689615Y-64432500D01*
X134920385Y-64432500D01*
X135148012Y-64394515D01*
X135366270Y-64319586D01*
X135366279Y-64319583D01*
X135569237Y-64209747D01*
X135598453Y-64187007D01*
X135598453Y-64187006D01*
X135011977Y-63600530D01*
X135034661Y-63594452D01*
X135170338Y-63516118D01*
X135281118Y-63405338D01*
X135359452Y-63269661D01*
X135365529Y-63246977D01*
X135950767Y-63832215D01*
X136033863Y-63705029D01*
X136126564Y-63493691D01*
X136183215Y-63269979D01*
X136202272Y-63040005D01*
X136202272Y-63039994D01*
X136183215Y-62810020D01*
X136126564Y-62586308D01*
X136033865Y-62374975D01*
X135950767Y-62247783D01*
X135365529Y-62833021D01*
X135359452Y-62810339D01*
X135281118Y-62674662D01*
X135170338Y-62563882D01*
X135034661Y-62485548D01*
X135011977Y-62479470D01*
X135598453Y-61892993D01*
X135598453Y-61892991D01*
X135569239Y-61870254D01*
X135366278Y-61760416D01*
X135366270Y-61760413D01*
X135148012Y-61685484D01*
X134920385Y-61647500D01*
X134689614Y-61647500D01*
X134554890Y-61669981D01*
X134485525Y-61661599D01*
X134446800Y-61635353D01*
X133871977Y-61060530D01*
X133894661Y-61054452D01*
X134030338Y-60976118D01*
X134141118Y-60865338D01*
X134219452Y-60729661D01*
X134225529Y-60706977D01*
X134810767Y-61292215D01*
X134893863Y-61165029D01*
X134986564Y-60953691D01*
X135043215Y-60729979D01*
X135062272Y-60500005D01*
X135062272Y-60499994D01*
X135043215Y-60270020D01*
X134986564Y-60046308D01*
X134893865Y-59834975D01*
X134810767Y-59707783D01*
X134225529Y-60293021D01*
X134219452Y-60270339D01*
X134141118Y-60134662D01*
X134030338Y-60023882D01*
X133894661Y-59945548D01*
X133871977Y-59939469D01*
X134446366Y-59365080D01*
X134507689Y-59331595D01*
X134554453Y-59330452D01*
X134689573Y-59353000D01*
X134689575Y-59353000D01*
X134920426Y-59353000D01*
X134920427Y-59353000D01*
X135148133Y-59315002D01*
X135366479Y-59240044D01*
X135569510Y-59130170D01*
X135598637Y-59107500D01*
X135699935Y-59028656D01*
X135751687Y-58988376D01*
X135908040Y-58818531D01*
X136034306Y-58625267D01*
X136127039Y-58413856D01*
X136183710Y-58190066D01*
X136199183Y-58003338D01*
X136202774Y-57960005D01*
X136202774Y-57959994D01*
X136183710Y-57729937D01*
X136183710Y-57729934D01*
X136127039Y-57506144D01*
X136034306Y-57294733D01*
X136027439Y-57284223D01*
X135965522Y-57189452D01*
X135908040Y-57101469D01*
X135751687Y-56931624D01*
X135751682Y-56931620D01*
X135751680Y-56931618D01*
X135569518Y-56789835D01*
X135569507Y-56789828D01*
X135366485Y-56679959D01*
X135366482Y-56679957D01*
X135366479Y-56679956D01*
X135366476Y-56679955D01*
X135366474Y-56679954D01*
X135148135Y-56604998D01*
X134996329Y-56579666D01*
X134920427Y-56567000D01*
X134689573Y-56567000D01*
X134632646Y-56576499D01*
X134461864Y-56604998D01*
X134243525Y-56679954D01*
X134243514Y-56679959D01*
X134040492Y-56789828D01*
X134040481Y-56789835D01*
X133858319Y-56931618D01*
X133858315Y-56931621D01*
X133756230Y-57042516D01*
X133696343Y-57078507D01*
X133626504Y-57076406D01*
X133573770Y-57042516D01*
X133471687Y-56931624D01*
X133471686Y-56931623D01*
X133471684Y-56931621D01*
X133471680Y-56931618D01*
X133289518Y-56789835D01*
X133289507Y-56789828D01*
X133086485Y-56679959D01*
X133086482Y-56679957D01*
X133086479Y-56679956D01*
X133086476Y-56679955D01*
X133086474Y-56679954D01*
X132868135Y-56604998D01*
X132777052Y-56589799D01*
X132714167Y-56559348D01*
X132677727Y-56499733D01*
X132679303Y-56429882D01*
X132709777Y-56379813D01*
X132801774Y-56287816D01*
X132863096Y-56254334D01*
X132889453Y-56251500D01*
X136202252Y-56251500D01*
X136269291Y-56271185D01*
X136294400Y-56292526D01*
X136300126Y-56298885D01*
X136300130Y-56298889D01*
X136453265Y-56410148D01*
X136453270Y-56410151D01*
X136626192Y-56487142D01*
X136626197Y-56487144D01*
X136811354Y-56526500D01*
X136811355Y-56526500D01*
X137000644Y-56526500D01*
X137000646Y-56526500D01*
X137185803Y-56487144D01*
X137358730Y-56410151D01*
X137358733Y-56410148D01*
X137364363Y-56406899D01*
X137365904Y-56409569D01*
X137418948Y-56390415D01*
X137487062Y-56405980D01*
X137535948Y-56455900D01*
X137550500Y-56514185D01*
X137550500Y-62561353D01*
X137530815Y-62628392D01*
X137514181Y-62649034D01*
X135039034Y-65124181D01*
X134977711Y-65157666D01*
X134951353Y-65160500D01*
X130948748Y-65160500D01*
X130881709Y-65140815D01*
X130856600Y-65119474D01*
X130850873Y-65113114D01*
X130850869Y-65113110D01*
X130697734Y-65001851D01*
X130697729Y-65001848D01*
X130524807Y-64924857D01*
X130524802Y-64924855D01*
X130379001Y-64893865D01*
X130339646Y-64885500D01*
X130150354Y-64885500D01*
X130117897Y-64892398D01*
X129965197Y-64924855D01*
X129965192Y-64924857D01*
X129792270Y-65001848D01*
X129792265Y-65001851D01*
X129639129Y-65113111D01*
X129512466Y-65253785D01*
X129417821Y-65417715D01*
X129417818Y-65417722D01*
X129359327Y-65597740D01*
X129359326Y-65597744D01*
X129341868Y-65763848D01*
X129339540Y-65786002D01*
X129339540Y-65792498D01*
X129338218Y-65792498D01*
X129326924Y-65854265D01*
X129279193Y-65905290D01*
X129216171Y-65922500D01*
X128668748Y-65922500D01*
X128601709Y-65902815D01*
X128576600Y-65881474D01*
X128570873Y-65875114D01*
X128570869Y-65875110D01*
X128417734Y-65763851D01*
X128417729Y-65763848D01*
X128244807Y-65686857D01*
X128244802Y-65686855D01*
X128099001Y-65655865D01*
X128059646Y-65647500D01*
X127870354Y-65647500D01*
X127837897Y-65654398D01*
X127685197Y-65686855D01*
X127685192Y-65686857D01*
X127512270Y-65763848D01*
X127512265Y-65763851D01*
X127359129Y-65875111D01*
X127232466Y-66015785D01*
X127137821Y-66179715D01*
X127137818Y-66179722D01*
X127093078Y-66317420D01*
X127079326Y-66359744D01*
X127061273Y-66531513D01*
X127059540Y-66548002D01*
X127059540Y-66554498D01*
X127058218Y-66554498D01*
X127046924Y-66616265D01*
X126999193Y-66667290D01*
X126936171Y-66684500D01*
X126388748Y-66684500D01*
X126321709Y-66664815D01*
X126296600Y-66643474D01*
X126290873Y-66637114D01*
X126290869Y-66637110D01*
X126137734Y-66525851D01*
X126137729Y-66525848D01*
X125964807Y-66448857D01*
X125964802Y-66448855D01*
X125819001Y-66417865D01*
X125779646Y-66409500D01*
X125590354Y-66409500D01*
X125557897Y-66416398D01*
X125405197Y-66448855D01*
X125405192Y-66448857D01*
X125232270Y-66525848D01*
X125232265Y-66525851D01*
X125079129Y-66637111D01*
X124952466Y-66777785D01*
X124857821Y-66941715D01*
X124857818Y-66941722D01*
X124814337Y-67075544D01*
X124799326Y-67121744D01*
X124779540Y-67310000D01*
X124799326Y-67498256D01*
X124799327Y-67498259D01*
X124857818Y-67678277D01*
X124857821Y-67678284D01*
X124952467Y-67842216D01*
X125073401Y-67976526D01*
X125079129Y-67982888D01*
X125232265Y-68094148D01*
X125232270Y-68094151D01*
X125405192Y-68171142D01*
X125405197Y-68171144D01*
X125590354Y-68210500D01*
X125590355Y-68210500D01*
X125779644Y-68210500D01*
X125779646Y-68210500D01*
X125964803Y-68171144D01*
X126137730Y-68094151D01*
X126290871Y-67982888D01*
X126293788Y-67979647D01*
X126296600Y-67976526D01*
X126356087Y-67939879D01*
X126388748Y-67935500D01*
X135189607Y-67935500D01*
X135250029Y-67923481D01*
X135310452Y-67911463D01*
X135360496Y-67890734D01*
X135424286Y-67864312D01*
X135481127Y-67826331D01*
X135481128Y-67826331D01*
X135511322Y-67806154D01*
X135526733Y-67795858D01*
X135613858Y-67708733D01*
X135613859Y-67708730D01*
X135620925Y-67701665D01*
X135620928Y-67701661D01*
X139474729Y-63847860D01*
X139474733Y-63847858D01*
X139561858Y-63760733D01*
X139610604Y-63687780D01*
X139630312Y-63658286D01*
X139664367Y-63576068D01*
X139677463Y-63544452D01*
X139687560Y-63493691D01*
X139692272Y-63470004D01*
X139692272Y-63469998D01*
X139697145Y-63445500D01*
X139701500Y-63423607D01*
X139701500Y-63300393D01*
X139701500Y-61009318D01*
X139721185Y-60942279D01*
X139773989Y-60896524D01*
X139843147Y-60886580D01*
X139906703Y-60915605D01*
X139944477Y-60974383D01*
X139947465Y-60986951D01*
X139972397Y-61122998D01*
X139972398Y-61123002D01*
X139972399Y-61123006D01*
X140065913Y-61423106D01*
X140065917Y-61423118D01*
X140065920Y-61423125D01*
X140194937Y-61709790D01*
X140319326Y-61915554D01*
X140357567Y-61978812D01*
X140357573Y-61978821D01*
X140551442Y-62226276D01*
X140773723Y-62448557D01*
X140981682Y-62611483D01*
X141021186Y-62642432D01*
X141290210Y-62805063D01*
X141576875Y-62934080D01*
X141576888Y-62934084D01*
X141576893Y-62934086D01*
X141776959Y-62996428D01*
X141877002Y-63027603D01*
X142186213Y-63084268D01*
X142500000Y-63103249D01*
X142813787Y-63084268D01*
X143122998Y-63027603D01*
X143423125Y-62934080D01*
X143709790Y-62805063D01*
X143978814Y-62642432D01*
X144226273Y-62448560D01*
X144448560Y-62226273D01*
X144642432Y-61978814D01*
X144805063Y-61709790D01*
X144934080Y-61423125D01*
X145027603Y-61122998D01*
X145084268Y-60813787D01*
X145103249Y-60500000D01*
X145084268Y-60186213D01*
X145027603Y-59877002D01*
X144982426Y-59732023D01*
X144936770Y-59585505D01*
X147959057Y-59585505D01*
X147978807Y-59899442D01*
X147978808Y-59899449D01*
X148037755Y-60208458D01*
X148134963Y-60507632D01*
X148134965Y-60507637D01*
X148268900Y-60792261D01*
X148268903Y-60792267D01*
X148437457Y-61057867D01*
X148437460Y-61057871D01*
X148528286Y-61167660D01*
X149491913Y-60204033D01*
X149586829Y-60334675D01*
X149714825Y-60462671D01*
X149845465Y-60557586D01*
X148878971Y-61524079D01*
X148878972Y-61524081D01*
X149121772Y-61700485D01*
X149121790Y-61700496D01*
X149397447Y-61852040D01*
X149397455Y-61852044D01*
X149689926Y-61967840D01*
X149994620Y-62046073D01*
X149994629Y-62046075D01*
X150306701Y-62085499D01*
X150306715Y-62085500D01*
X150621285Y-62085500D01*
X150621298Y-62085499D01*
X150933370Y-62046075D01*
X150933379Y-62046073D01*
X151238073Y-61967840D01*
X151530544Y-61852044D01*
X151530552Y-61852040D01*
X151806209Y-61700496D01*
X151806219Y-61700490D01*
X152049026Y-61524079D01*
X152049027Y-61524079D01*
X151082533Y-60557586D01*
X151213175Y-60462671D01*
X151341171Y-60334675D01*
X151436086Y-60204034D01*
X152399712Y-61167660D01*
X152490544Y-61057864D01*
X152659096Y-60792267D01*
X152659099Y-60792261D01*
X152793034Y-60507637D01*
X152793036Y-60507632D01*
X152890244Y-60208458D01*
X152949191Y-59899449D01*
X152949192Y-59899442D01*
X152968943Y-59585505D01*
X159959057Y-59585505D01*
X159978807Y-59899442D01*
X159978808Y-59899449D01*
X160037755Y-60208458D01*
X160134963Y-60507632D01*
X160134965Y-60507637D01*
X160268900Y-60792261D01*
X160268903Y-60792267D01*
X160437457Y-61057867D01*
X160437460Y-61057871D01*
X160528286Y-61167660D01*
X161491913Y-60204033D01*
X161586829Y-60334675D01*
X161714825Y-60462671D01*
X161845465Y-60557586D01*
X160878971Y-61524079D01*
X160878972Y-61524081D01*
X161121772Y-61700485D01*
X161121790Y-61700496D01*
X161397447Y-61852040D01*
X161397455Y-61852044D01*
X161689926Y-61967840D01*
X161994620Y-62046073D01*
X161994629Y-62046075D01*
X162306701Y-62085499D01*
X162306715Y-62085500D01*
X162621285Y-62085500D01*
X162621298Y-62085499D01*
X162933370Y-62046075D01*
X162933379Y-62046073D01*
X163238073Y-61967840D01*
X163530544Y-61852044D01*
X163530552Y-61852040D01*
X163806209Y-61700496D01*
X163806219Y-61700490D01*
X164049026Y-61524079D01*
X164049027Y-61524079D01*
X163082533Y-60557586D01*
X163213175Y-60462671D01*
X163341171Y-60334675D01*
X163436086Y-60204034D01*
X164399712Y-61167660D01*
X164473873Y-61078015D01*
X165989500Y-61078015D01*
X166000000Y-61180795D01*
X166000001Y-61180797D01*
X166022308Y-61248116D01*
X166055186Y-61347335D01*
X166055187Y-61347337D01*
X166147286Y-61496651D01*
X166147289Y-61496655D01*
X166271344Y-61620710D01*
X166271348Y-61620713D01*
X166420662Y-61712812D01*
X166420664Y-61712813D01*
X166420666Y-61712814D01*
X166587203Y-61767999D01*
X166689992Y-61778500D01*
X167273500Y-61778500D01*
X167340539Y-61798185D01*
X167386294Y-61850989D01*
X167397500Y-61902500D01*
X167397500Y-61949677D01*
X167380887Y-62011677D01*
X167320821Y-62115714D01*
X167263580Y-62291884D01*
X167262326Y-62295744D01*
X167242540Y-62484000D01*
X167262326Y-62672256D01*
X167262327Y-62672259D01*
X167320818Y-62852277D01*
X167320821Y-62852284D01*
X167415467Y-63016216D01*
X167493831Y-63103248D01*
X167542129Y-63156888D01*
X167695265Y-63268148D01*
X167695270Y-63268151D01*
X167868192Y-63345142D01*
X167868197Y-63345144D01*
X168053354Y-63384500D01*
X168053355Y-63384500D01*
X168242644Y-63384500D01*
X168242646Y-63384500D01*
X168427803Y-63345144D01*
X168600730Y-63268151D01*
X168753871Y-63156888D01*
X168880533Y-63016216D01*
X168975179Y-62852284D01*
X169033674Y-62672256D01*
X169053460Y-62484000D01*
X169033674Y-62295744D01*
X168975179Y-62115716D01*
X168957734Y-62085500D01*
X168915113Y-62011677D01*
X168898500Y-61949677D01*
X168898500Y-61788702D01*
X168918185Y-61721663D01*
X168957399Y-61683166D01*
X169058655Y-61620711D01*
X169182711Y-61496655D01*
X169274814Y-61347334D01*
X169300294Y-61270439D01*
X169340066Y-61212994D01*
X169404582Y-61186171D01*
X169473358Y-61198486D01*
X169524558Y-61246028D01*
X169535706Y-61270440D01*
X169561185Y-61347332D01*
X169561187Y-61347337D01*
X169653286Y-61496651D01*
X169653289Y-61496655D01*
X169777344Y-61620710D01*
X169777348Y-61620713D01*
X169926662Y-61712812D01*
X169926664Y-61712813D01*
X169926666Y-61712814D01*
X170093203Y-61767999D01*
X170093216Y-61768000D01*
X170093448Y-61768050D01*
X170093588Y-61768125D01*
X170099630Y-61770128D01*
X170099273Y-61771205D01*
X170154884Y-61801328D01*
X170188576Y-61862537D01*
X170191500Y-61889305D01*
X170191500Y-61949677D01*
X170174887Y-62011677D01*
X170114821Y-62115714D01*
X170057580Y-62291884D01*
X170056326Y-62295744D01*
X170036540Y-62484000D01*
X170056326Y-62672256D01*
X170056327Y-62672259D01*
X170114818Y-62852277D01*
X170114821Y-62852284D01*
X170209467Y-63016216D01*
X170287831Y-63103248D01*
X170336129Y-63156888D01*
X170489265Y-63268148D01*
X170489270Y-63268151D01*
X170662192Y-63345142D01*
X170662197Y-63345144D01*
X170847354Y-63384500D01*
X170847355Y-63384500D01*
X171036644Y-63384500D01*
X171036646Y-63384500D01*
X171221803Y-63345144D01*
X171394730Y-63268151D01*
X171547871Y-63156888D01*
X171674533Y-63016216D01*
X171769179Y-62852284D01*
X171827674Y-62672256D01*
X171847460Y-62484000D01*
X171827674Y-62295744D01*
X171769179Y-62115716D01*
X171751734Y-62085500D01*
X171709113Y-62011677D01*
X171692500Y-61949677D01*
X171692500Y-61902500D01*
X171712185Y-61835461D01*
X171764989Y-61789706D01*
X171816500Y-61778500D01*
X172146003Y-61778500D01*
X172146008Y-61778500D01*
X172248797Y-61767999D01*
X172415334Y-61712814D01*
X172564655Y-61620711D01*
X172688711Y-61496655D01*
X172780814Y-61347334D01*
X172835999Y-61180797D01*
X172846500Y-61078008D01*
X172846500Y-59977992D01*
X172835999Y-59875203D01*
X172780814Y-59708666D01*
X172780269Y-59707783D01*
X172688713Y-59559348D01*
X172688710Y-59559344D01*
X172564655Y-59435289D01*
X172564651Y-59435286D01*
X172415337Y-59343187D01*
X172415335Y-59343186D01*
X172316688Y-59310498D01*
X172248797Y-59288001D01*
X172248795Y-59288000D01*
X172146015Y-59277500D01*
X172146008Y-59277500D01*
X170195992Y-59277500D01*
X170195984Y-59277500D01*
X170093204Y-59288000D01*
X170093203Y-59288001D01*
X169926664Y-59343186D01*
X169926662Y-59343187D01*
X169777348Y-59435286D01*
X169777344Y-59435289D01*
X169653289Y-59559344D01*
X169653286Y-59559348D01*
X169561187Y-59708662D01*
X169561186Y-59708664D01*
X169535706Y-59785560D01*
X169495933Y-59843005D01*
X169431418Y-59869828D01*
X169362642Y-59857513D01*
X169311442Y-59809970D01*
X169300294Y-59785560D01*
X169282554Y-59732025D01*
X169274814Y-59708666D01*
X169274269Y-59707783D01*
X169182713Y-59559348D01*
X169182710Y-59559344D01*
X169058655Y-59435289D01*
X169058651Y-59435286D01*
X168909337Y-59343187D01*
X168909335Y-59343186D01*
X168810688Y-59310498D01*
X168742797Y-59288001D01*
X168742795Y-59288000D01*
X168640015Y-59277500D01*
X168640008Y-59277500D01*
X166689992Y-59277500D01*
X166689984Y-59277500D01*
X166587204Y-59288000D01*
X166587203Y-59288001D01*
X166420664Y-59343186D01*
X166420662Y-59343187D01*
X166271348Y-59435286D01*
X166271344Y-59435289D01*
X166147289Y-59559344D01*
X166147286Y-59559348D01*
X166055187Y-59708662D01*
X166055186Y-59708664D01*
X166000001Y-59875203D01*
X166000000Y-59875204D01*
X165989500Y-59977984D01*
X165989500Y-61078015D01*
X164473873Y-61078015D01*
X164490544Y-61057864D01*
X164659096Y-60792267D01*
X164659099Y-60792261D01*
X164793034Y-60507637D01*
X164793036Y-60507632D01*
X164890244Y-60208458D01*
X164949191Y-59899449D01*
X164949192Y-59899442D01*
X164968943Y-59585505D01*
X164968943Y-59585494D01*
X164949192Y-59271557D01*
X164949191Y-59271550D01*
X164890244Y-58962541D01*
X164793036Y-58663367D01*
X164793034Y-58663362D01*
X164659099Y-58378738D01*
X164659096Y-58378732D01*
X164490542Y-58113132D01*
X164490539Y-58113128D01*
X164399712Y-58003338D01*
X163436085Y-58966965D01*
X163341171Y-58836325D01*
X163213175Y-58708329D01*
X163082533Y-58613413D01*
X164049027Y-57646919D01*
X164049026Y-57646917D01*
X163885350Y-57528000D01*
X165990000Y-57528000D01*
X165990000Y-57827985D01*
X166000493Y-57930689D01*
X166000494Y-57930696D01*
X166055641Y-58097118D01*
X166055643Y-58097123D01*
X166147684Y-58246344D01*
X166271655Y-58370315D01*
X166420876Y-58462356D01*
X166420881Y-58462358D01*
X166587303Y-58517505D01*
X166587310Y-58517506D01*
X166690014Y-58527999D01*
X166690027Y-58528000D01*
X167415000Y-58528000D01*
X167415000Y-57528000D01*
X165990000Y-57528000D01*
X163885350Y-57528000D01*
X163806227Y-57470514D01*
X163806209Y-57470503D01*
X163530552Y-57318959D01*
X163530544Y-57318955D01*
X163238073Y-57203159D01*
X162933379Y-57124926D01*
X162933370Y-57124924D01*
X162621298Y-57085500D01*
X162306701Y-57085500D01*
X161994629Y-57124924D01*
X161994620Y-57124926D01*
X161689926Y-57203159D01*
X161397455Y-57318955D01*
X161397447Y-57318959D01*
X161121787Y-57470504D01*
X161121782Y-57470507D01*
X160878972Y-57646918D01*
X160878971Y-57646919D01*
X161845466Y-58613413D01*
X161714825Y-58708329D01*
X161586829Y-58836325D01*
X161491913Y-58966965D01*
X160528286Y-58003338D01*
X160528285Y-58003338D01*
X160437459Y-58113129D01*
X160437457Y-58113132D01*
X160268903Y-58378732D01*
X160268900Y-58378738D01*
X160134965Y-58663362D01*
X160134963Y-58663367D01*
X160037755Y-58962541D01*
X159978808Y-59271550D01*
X159978807Y-59271557D01*
X159959057Y-59585494D01*
X159959057Y-59585505D01*
X152968943Y-59585505D01*
X152968943Y-59585494D01*
X152949192Y-59271557D01*
X152949191Y-59271550D01*
X152890244Y-58962541D01*
X152793036Y-58663367D01*
X152793034Y-58663362D01*
X152659099Y-58378738D01*
X152659096Y-58378732D01*
X152490542Y-58113132D01*
X152490539Y-58113128D01*
X152399712Y-58003338D01*
X151436085Y-58966965D01*
X151341171Y-58836325D01*
X151213175Y-58708329D01*
X151082533Y-58613413D01*
X152049027Y-57646919D01*
X152049026Y-57646917D01*
X151806227Y-57470514D01*
X151806209Y-57470503D01*
X151530552Y-57318959D01*
X151530544Y-57318955D01*
X151238073Y-57203159D01*
X150933379Y-57124926D01*
X150933370Y-57124924D01*
X150621298Y-57085500D01*
X150306701Y-57085500D01*
X149994629Y-57124924D01*
X149994620Y-57124926D01*
X149689926Y-57203159D01*
X149397455Y-57318955D01*
X149397447Y-57318959D01*
X149121787Y-57470504D01*
X149121782Y-57470507D01*
X148878972Y-57646918D01*
X148878971Y-57646919D01*
X149845466Y-58613413D01*
X149714825Y-58708329D01*
X149586829Y-58836325D01*
X149491913Y-58966965D01*
X148528286Y-58003338D01*
X148528285Y-58003338D01*
X148437459Y-58113129D01*
X148437457Y-58113132D01*
X148268903Y-58378732D01*
X148268900Y-58378738D01*
X148134965Y-58663362D01*
X148134963Y-58663367D01*
X148037755Y-58962541D01*
X147978808Y-59271550D01*
X147978807Y-59271557D01*
X147959057Y-59585494D01*
X147959057Y-59585505D01*
X144936770Y-59585505D01*
X144934086Y-59576893D01*
X144934084Y-59576888D01*
X144934080Y-59576875D01*
X144805063Y-59290210D01*
X144642432Y-59021186D01*
X144639655Y-59017642D01*
X144448557Y-58773723D01*
X144226276Y-58551442D01*
X143978821Y-58357573D01*
X143978816Y-58357570D01*
X143978814Y-58357568D01*
X143709790Y-58194937D01*
X143423125Y-58065920D01*
X143423118Y-58065917D01*
X143423106Y-58065913D01*
X143123006Y-57972399D01*
X143123002Y-57972398D01*
X143122998Y-57972397D01*
X142813787Y-57915732D01*
X142813786Y-57915731D01*
X142813781Y-57915731D01*
X142500000Y-57896751D01*
X142186218Y-57915731D01*
X142186213Y-57915732D01*
X141877002Y-57972397D01*
X141876999Y-57972397D01*
X141876993Y-57972399D01*
X141576893Y-58065913D01*
X141576877Y-58065919D01*
X141576875Y-58065920D01*
X141514484Y-58094000D01*
X141290214Y-58194935D01*
X141290212Y-58194936D01*
X141021187Y-58357567D01*
X141021178Y-58357573D01*
X140773723Y-58551442D01*
X140551442Y-58773723D01*
X140357573Y-59021178D01*
X140357567Y-59021187D01*
X140305423Y-59107444D01*
X140196273Y-59288001D01*
X140194936Y-59290212D01*
X140194935Y-59290214D01*
X140171094Y-59343187D01*
X140073073Y-59560983D01*
X140065919Y-59576878D01*
X140065913Y-59576893D01*
X139972399Y-59876993D01*
X139972397Y-59876999D01*
X139972397Y-59877002D01*
X139947468Y-60013034D01*
X139916022Y-60075426D01*
X139855836Y-60110913D01*
X139786018Y-60108227D01*
X139728735Y-60068222D01*
X139702175Y-60003597D01*
X139701500Y-59990681D01*
X139701500Y-57028000D01*
X165990000Y-57028000D01*
X167415000Y-57028000D01*
X167415000Y-56028000D01*
X167915000Y-56028000D01*
X167915000Y-58528000D01*
X168639973Y-58528000D01*
X168639985Y-58527999D01*
X168742689Y-58517506D01*
X168742696Y-58517505D01*
X168909118Y-58462358D01*
X168909123Y-58462356D01*
X169058344Y-58370315D01*
X169182315Y-58246344D01*
X169274356Y-58097123D01*
X169274358Y-58097118D01*
X169300294Y-58018849D01*
X169340066Y-57961404D01*
X169404582Y-57934581D01*
X169473358Y-57946896D01*
X169524558Y-57994439D01*
X169535706Y-58018849D01*
X169561641Y-58097118D01*
X169561643Y-58097123D01*
X169653684Y-58246344D01*
X169777655Y-58370315D01*
X169926876Y-58462356D01*
X169926881Y-58462358D01*
X170093303Y-58517505D01*
X170093310Y-58517506D01*
X170196014Y-58527999D01*
X170196027Y-58528000D01*
X170921000Y-58528000D01*
X170921000Y-57528000D01*
X171421000Y-57528000D01*
X171421000Y-58528000D01*
X172145973Y-58528000D01*
X172145985Y-58527999D01*
X172248689Y-58517506D01*
X172248696Y-58517505D01*
X172415118Y-58462358D01*
X172415123Y-58462356D01*
X172564344Y-58370315D01*
X172688315Y-58246344D01*
X172780356Y-58097123D01*
X172780358Y-58097118D01*
X172835505Y-57930696D01*
X172835506Y-57930689D01*
X172845999Y-57827985D01*
X172846000Y-57827972D01*
X172846000Y-57528000D01*
X171421000Y-57528000D01*
X170921000Y-57528000D01*
X170921000Y-56028000D01*
X171421000Y-56028000D01*
X171421000Y-57028000D01*
X172846000Y-57028000D01*
X172846000Y-56728027D01*
X172845999Y-56728014D01*
X172835506Y-56625310D01*
X172835505Y-56625303D01*
X172780358Y-56458881D01*
X172780356Y-56458876D01*
X172688315Y-56309655D01*
X172564344Y-56185684D01*
X172415123Y-56093643D01*
X172415118Y-56093641D01*
X172248696Y-56038494D01*
X172248689Y-56038493D01*
X172145985Y-56028000D01*
X171421000Y-56028000D01*
X170921000Y-56028000D01*
X170196014Y-56028000D01*
X170093310Y-56038493D01*
X170093303Y-56038494D01*
X169926881Y-56093641D01*
X169926876Y-56093643D01*
X169777655Y-56185684D01*
X169653684Y-56309655D01*
X169561643Y-56458876D01*
X169561641Y-56458881D01*
X169535706Y-56537150D01*
X169495933Y-56594595D01*
X169431418Y-56621418D01*
X169362642Y-56609103D01*
X169311442Y-56561560D01*
X169300294Y-56537150D01*
X169274358Y-56458881D01*
X169274356Y-56458876D01*
X169182315Y-56309655D01*
X169058344Y-56185684D01*
X168909123Y-56093643D01*
X168909118Y-56093641D01*
X168742696Y-56038494D01*
X168742689Y-56038493D01*
X168639985Y-56028000D01*
X167915000Y-56028000D01*
X167415000Y-56028000D01*
X166690014Y-56028000D01*
X166587310Y-56038493D01*
X166587303Y-56038494D01*
X166420881Y-56093641D01*
X166420876Y-56093643D01*
X166271655Y-56185684D01*
X166147684Y-56309655D01*
X166055643Y-56458876D01*
X166055641Y-56458881D01*
X166000494Y-56625303D01*
X166000493Y-56625310D01*
X165990000Y-56728014D01*
X165990000Y-57028000D01*
X139701500Y-57028000D01*
X139701500Y-56055243D01*
X139721185Y-55988204D01*
X139737815Y-55967566D01*
X140383965Y-55321415D01*
X140445286Y-55287932D01*
X140514977Y-55292916D01*
X140570911Y-55334787D01*
X140595328Y-55400252D01*
X140592938Y-55434864D01*
X140592327Y-55437739D01*
X140592326Y-55437741D01*
X140592326Y-55437744D01*
X140572540Y-55626000D01*
X140592326Y-55814256D01*
X140592327Y-55814259D01*
X140650818Y-55994277D01*
X140650821Y-55994283D01*
X140650821Y-55994284D01*
X140745467Y-56158216D01*
X140866401Y-56292526D01*
X140872129Y-56298888D01*
X141025265Y-56410148D01*
X141025270Y-56410151D01*
X141198192Y-56487142D01*
X141198197Y-56487144D01*
X141383354Y-56526500D01*
X141383355Y-56526500D01*
X141572644Y-56526500D01*
X141572646Y-56526500D01*
X141757803Y-56487144D01*
X141930730Y-56410151D01*
X142083871Y-56298888D01*
X142210533Y-56158216D01*
X142305179Y-55994284D01*
X142363674Y-55814256D01*
X142381321Y-55646346D01*
X142407905Y-55581733D01*
X142416961Y-55571628D01*
X142890771Y-55097819D01*
X142952094Y-55064334D01*
X142978452Y-55061500D01*
X151597394Y-55061500D01*
X172489548Y-55061500D01*
X172556587Y-55081185D01*
X172577229Y-55097819D01*
X174090181Y-56610771D01*
X174123666Y-56672094D01*
X174126500Y-56698452D01*
X174126500Y-58552294D01*
X174126500Y-61290094D01*
X174126500Y-61413308D01*
X174127972Y-61420706D01*
X174129332Y-61427543D01*
X174129332Y-61427548D01*
X174150407Y-61533500D01*
X174150537Y-61534153D01*
X174159637Y-61556123D01*
X174164347Y-61567493D01*
X174164347Y-61567494D01*
X174197685Y-61647982D01*
X174197690Y-61647991D01*
X174222419Y-61684999D01*
X174222420Y-61685000D01*
X174266141Y-61750433D01*
X174266144Y-61750437D01*
X174357586Y-61841879D01*
X174357608Y-61841899D01*
X176235315Y-63719606D01*
X176235344Y-63719637D01*
X176325563Y-63809856D01*
X176325566Y-63809858D01*
X176376789Y-63844084D01*
X176428013Y-63878312D01*
X176428014Y-63878312D01*
X176428015Y-63878313D01*
X176468259Y-63894982D01*
X176508506Y-63911652D01*
X176541847Y-63925463D01*
X176602270Y-63937481D01*
X176662692Y-63949500D01*
X176662693Y-63949500D01*
X182877219Y-63949500D01*
X182944258Y-63969185D01*
X182990013Y-64021989D01*
X183000507Y-64086756D01*
X182999500Y-64096127D01*
X182999500Y-64096129D01*
X182999500Y-65091870D01*
X182999501Y-65091876D01*
X183003196Y-65126247D01*
X182990789Y-65195006D01*
X182943178Y-65246143D01*
X182879906Y-65263500D01*
X159432597Y-65263500D01*
X159365558Y-65243815D01*
X159344916Y-65227181D01*
X159005941Y-64888206D01*
X158972456Y-64826883D01*
X158973847Y-64768431D01*
X158999635Y-64672192D01*
X159019468Y-64445500D01*
X159018374Y-64433000D01*
X159008492Y-64320044D01*
X158999635Y-64218808D01*
X158941631Y-64002334D01*
X158940741Y-63999011D01*
X158940738Y-63999002D01*
X158934377Y-63985361D01*
X158844568Y-63792766D01*
X158771057Y-63687780D01*
X158714048Y-63606362D01*
X158683754Y-63576068D01*
X158640865Y-63533179D01*
X158607382Y-63471859D01*
X158612366Y-63402167D01*
X158640865Y-63357820D01*
X158714047Y-63284639D01*
X158844568Y-63098234D01*
X158940739Y-62891996D01*
X158999635Y-62672192D01*
X159019468Y-62445500D01*
X159017897Y-62427548D01*
X159006366Y-62295744D01*
X158999635Y-62218808D01*
X158951142Y-62037828D01*
X158940741Y-61999011D01*
X158940738Y-61999002D01*
X158921019Y-61956714D01*
X158844568Y-61792766D01*
X158724094Y-61620710D01*
X158714045Y-61606358D01*
X158553141Y-61445454D01*
X158366734Y-61314932D01*
X158366732Y-61314931D01*
X158160497Y-61218761D01*
X158160488Y-61218758D01*
X157940697Y-61159866D01*
X157940693Y-61159865D01*
X157940692Y-61159865D01*
X157940691Y-61159864D01*
X157940686Y-61159864D01*
X157714002Y-61140032D01*
X157713998Y-61140032D01*
X157487313Y-61159864D01*
X157487302Y-61159866D01*
X157267511Y-61218758D01*
X157267502Y-61218761D01*
X157061267Y-61314931D01*
X157061265Y-61314932D01*
X156874858Y-61445454D01*
X156713954Y-61606358D01*
X156583432Y-61792765D01*
X156583429Y-61792770D01*
X156576104Y-61808479D01*
X156529929Y-61860917D01*
X156462735Y-61880066D01*
X156395855Y-61859847D01*
X156351341Y-61808473D01*
X156344133Y-61793015D01*
X156344132Y-61793013D01*
X156293025Y-61720026D01*
X155676550Y-62336500D01*
X155656630Y-62262157D01*
X155594095Y-62153843D01*
X155505657Y-62065405D01*
X155397343Y-62002870D01*
X155322998Y-61982949D01*
X155939472Y-61366474D01*
X155866478Y-61315363D01*
X155660331Y-61219235D01*
X155660317Y-61219230D01*
X155440610Y-61160360D01*
X155440599Y-61160358D01*
X155214002Y-61140534D01*
X155213998Y-61140534D01*
X154987400Y-61160358D01*
X154987389Y-61160360D01*
X154767682Y-61219230D01*
X154767673Y-61219234D01*
X154561516Y-61315366D01*
X154561512Y-61315368D01*
X154488526Y-61366473D01*
X154488526Y-61366474D01*
X155105002Y-61982949D01*
X155030657Y-62002870D01*
X154922343Y-62065405D01*
X154833905Y-62153843D01*
X154771370Y-62262157D01*
X154751449Y-62336502D01*
X154134974Y-61720026D01*
X154134973Y-61720026D01*
X154083868Y-61793012D01*
X154083866Y-61793016D01*
X153987734Y-61999173D01*
X153987730Y-61999182D01*
X153928860Y-62218889D01*
X153928858Y-62218900D01*
X153909034Y-62445497D01*
X153909034Y-62445502D01*
X153928858Y-62672099D01*
X153928860Y-62672110D01*
X153987730Y-62891817D01*
X153987734Y-62891826D01*
X154083865Y-63097981D01*
X154083868Y-63097985D01*
X154092812Y-63110760D01*
X154115138Y-63176967D01*
X154098125Y-63244734D01*
X154065549Y-63281145D01*
X154056456Y-63287952D01*
X154056451Y-63287957D01*
X153970206Y-63403164D01*
X153970202Y-63403171D01*
X153919908Y-63538017D01*
X153913501Y-63597616D01*
X153913500Y-63597635D01*
X153913500Y-65293370D01*
X153913501Y-65293376D01*
X153919908Y-65352983D01*
X153970202Y-65487828D01*
X153970206Y-65487835D01*
X154056452Y-65603044D01*
X154056455Y-65603047D01*
X154171664Y-65689293D01*
X154171671Y-65689297D01*
X154306517Y-65739591D01*
X154306516Y-65739591D01*
X154313444Y-65740335D01*
X154366127Y-65746000D01*
X156061872Y-65745999D01*
X156121483Y-65739591D01*
X156256331Y-65689296D01*
X156329147Y-65634785D01*
X156394608Y-65610369D01*
X156462881Y-65625220D01*
X156491137Y-65646372D01*
X158343139Y-67498374D01*
X158343149Y-67498385D01*
X158347479Y-67502715D01*
X158347480Y-67502716D01*
X158459284Y-67614520D01*
X158546095Y-67664639D01*
X158546097Y-67664641D01*
X158584151Y-67686611D01*
X158596215Y-67693577D01*
X158748943Y-67734501D01*
X158748946Y-67734501D01*
X158914653Y-67734501D01*
X158914669Y-67734500D01*
X182935859Y-67734500D01*
X183002898Y-67754185D01*
X183048653Y-67806989D01*
X183052030Y-67815140D01*
X183056204Y-67826331D01*
X183056205Y-67826332D01*
X183056206Y-67826335D01*
X183142452Y-67941544D01*
X183142455Y-67941547D01*
X183257664Y-68027793D01*
X183257671Y-68027797D01*
X183392517Y-68078091D01*
X183392516Y-68078091D01*
X183399444Y-68078835D01*
X183452127Y-68084500D01*
X184940500Y-68084499D01*
X185007539Y-68104184D01*
X185053294Y-68156987D01*
X185064500Y-68208499D01*
X185064500Y-69181870D01*
X185064501Y-69181876D01*
X185070908Y-69241483D01*
X185121202Y-69376328D01*
X185121206Y-69376335D01*
X185207452Y-69491544D01*
X185207455Y-69491547D01*
X185322664Y-69577793D01*
X185322671Y-69577797D01*
X185457517Y-69628091D01*
X185457516Y-69628091D01*
X185464444Y-69628835D01*
X185517127Y-69634500D01*
X186512872Y-69634499D01*
X186572483Y-69628091D01*
X186606667Y-69615340D01*
X186676358Y-69610357D01*
X186693327Y-69615338D01*
X186727517Y-69628091D01*
X186787127Y-69634500D01*
X187782872Y-69634499D01*
X187842483Y-69628091D01*
X187876667Y-69615340D01*
X187946358Y-69610357D01*
X187963327Y-69615338D01*
X187997517Y-69628091D01*
X188057127Y-69634500D01*
X189052872Y-69634499D01*
X189112483Y-69628091D01*
X189146667Y-69615340D01*
X189216358Y-69610357D01*
X189233327Y-69615338D01*
X189267517Y-69628091D01*
X189327127Y-69634500D01*
X190322872Y-69634499D01*
X190382483Y-69628091D01*
X190416667Y-69615340D01*
X190486358Y-69610357D01*
X190503327Y-69615338D01*
X190537517Y-69628091D01*
X190597127Y-69634500D01*
X191592872Y-69634499D01*
X191652483Y-69628091D01*
X191686667Y-69615340D01*
X191756358Y-69610357D01*
X191773327Y-69615338D01*
X191807517Y-69628091D01*
X191867127Y-69634500D01*
X192862872Y-69634499D01*
X192922483Y-69628091D01*
X192956667Y-69615340D01*
X193026358Y-69610357D01*
X193043327Y-69615338D01*
X193077517Y-69628091D01*
X193137127Y-69634500D01*
X194132872Y-69634499D01*
X194192483Y-69628091D01*
X194226667Y-69615340D01*
X194296358Y-69610357D01*
X194313327Y-69615338D01*
X194347517Y-69628091D01*
X194407127Y-69634500D01*
X195402872Y-69634499D01*
X195462483Y-69628091D01*
X195496667Y-69615340D01*
X195566358Y-69610357D01*
X195583327Y-69615338D01*
X195617517Y-69628091D01*
X195677127Y-69634500D01*
X196672872Y-69634499D01*
X196732483Y-69628091D01*
X196766667Y-69615340D01*
X196836358Y-69610357D01*
X196853327Y-69615338D01*
X196887517Y-69628091D01*
X196947127Y-69634500D01*
X197942872Y-69634499D01*
X198002483Y-69628091D01*
X198036667Y-69615340D01*
X198106358Y-69610357D01*
X198123327Y-69615338D01*
X198157517Y-69628091D01*
X198217127Y-69634500D01*
X199212872Y-69634499D01*
X199272483Y-69628091D01*
X199306667Y-69615340D01*
X199376358Y-69610357D01*
X199393327Y-69615338D01*
X199427517Y-69628091D01*
X199487127Y-69634500D01*
X200482872Y-69634499D01*
X200542483Y-69628091D01*
X200677331Y-69577796D01*
X200792546Y-69491546D01*
X200878796Y-69376331D01*
X200929091Y-69241483D01*
X200935500Y-69181873D01*
X200935499Y-68208498D01*
X200955183Y-68141460D01*
X201007987Y-68095705D01*
X201059494Y-68084499D01*
X201898546Y-68084499D01*
X201965585Y-68104184D01*
X201986222Y-68120813D01*
X202088182Y-68222772D01*
X202121666Y-68284093D01*
X202124500Y-68310452D01*
X202124500Y-72550500D01*
X202104815Y-72617539D01*
X202052011Y-72663294D01*
X202000501Y-72674500D01*
X201852130Y-72674500D01*
X201852123Y-72674501D01*
X201792516Y-72680908D01*
X201657671Y-72731202D01*
X201657664Y-72731206D01*
X201542455Y-72817452D01*
X201542452Y-72817455D01*
X201456206Y-72932664D01*
X201456203Y-72932669D01*
X201407189Y-73064083D01*
X201365317Y-73120016D01*
X201299853Y-73144433D01*
X201231580Y-73129581D01*
X201203326Y-73108430D01*
X201081402Y-72986506D01*
X201081395Y-72986501D01*
X201061932Y-72972873D01*
X201023107Y-72945687D01*
X200887834Y-72850967D01*
X200887830Y-72850965D01*
X200887828Y-72850964D01*
X200673663Y-72751097D01*
X200673659Y-72751096D01*
X200673655Y-72751094D01*
X200445413Y-72689938D01*
X200445403Y-72689936D01*
X200210001Y-72669341D01*
X200209999Y-72669341D01*
X199974596Y-72689936D01*
X199974586Y-72689938D01*
X199746344Y-72751094D01*
X199746335Y-72751098D01*
X199532171Y-72850964D01*
X199532169Y-72850965D01*
X199338597Y-72986505D01*
X199171508Y-73153594D01*
X199083823Y-73278821D01*
X199029245Y-73322446D01*
X198959747Y-73329638D01*
X198897392Y-73298116D01*
X198864317Y-73246015D01*
X198827181Y-73131721D01*
X198827178Y-73131715D01*
X198825946Y-73129581D01*
X198732533Y-72967784D01*
X198605871Y-72827112D01*
X198605870Y-72827111D01*
X198452734Y-72715851D01*
X198452729Y-72715848D01*
X198279807Y-72638857D01*
X198279802Y-72638855D01*
X198106459Y-72602011D01*
X198094646Y-72599500D01*
X197905354Y-72599500D01*
X197893541Y-72602011D01*
X197720197Y-72638855D01*
X197720192Y-72638857D01*
X197547270Y-72715848D01*
X197547265Y-72715851D01*
X197394130Y-72827110D01*
X197394126Y-72827114D01*
X197388400Y-72833474D01*
X197328913Y-72870121D01*
X197296252Y-72874500D01*
X196913083Y-72874500D01*
X196794948Y-72897998D01*
X196794943Y-72898000D01*
X196793635Y-72898260D01*
X196792247Y-72898536D01*
X196792244Y-72898536D01*
X196792243Y-72898537D01*
X196792241Y-72898537D01*
X196792237Y-72898539D01*
X196678413Y-72945686D01*
X196617311Y-72986513D01*
X196550633Y-73007390D01*
X196483253Y-72988905D01*
X196456271Y-72966382D01*
X196330870Y-72827111D01*
X196177734Y-72715851D01*
X196177729Y-72715848D01*
X196004807Y-72638857D01*
X196004802Y-72638855D01*
X195831459Y-72602011D01*
X195819646Y-72599500D01*
X195630354Y-72599500D01*
X195618541Y-72602011D01*
X195445197Y-72638855D01*
X195445192Y-72638857D01*
X195272270Y-72715848D01*
X195272265Y-72715851D01*
X195119130Y-72827110D01*
X195119126Y-72827114D01*
X195113400Y-72833474D01*
X195053913Y-72870121D01*
X195021252Y-72874500D01*
X175438389Y-72874500D01*
X175377971Y-72886518D01*
X175334743Y-72895116D01*
X175317546Y-72898537D01*
X175203716Y-72945687D01*
X175203707Y-72945692D01*
X175101268Y-73014140D01*
X175057705Y-73057703D01*
X175014142Y-73101267D01*
X175014139Y-73101270D01*
X171852227Y-76263181D01*
X171790904Y-76296666D01*
X171764546Y-76299500D01*
X171099998Y-76299500D01*
X171099980Y-76299501D01*
X170997203Y-76310000D01*
X170997200Y-76310001D01*
X170830668Y-76365185D01*
X170830663Y-76365187D01*
X170681342Y-76457289D01*
X170557289Y-76581342D01*
X170465187Y-76730663D01*
X170465185Y-76730668D01*
X170439844Y-76807142D01*
X170410001Y-76897203D01*
X170410001Y-76897204D01*
X170410000Y-76897204D01*
X170399500Y-76999983D01*
X170399500Y-77664546D01*
X170379815Y-77731585D01*
X170363182Y-77752226D01*
X170317229Y-77798180D01*
X170255906Y-77831666D01*
X170229547Y-77834500D01*
X163107727Y-77834500D01*
X163040688Y-77814815D01*
X163006152Y-77781623D01*
X162870994Y-77588597D01*
X162703902Y-77421506D01*
X162703895Y-77421501D01*
X162510334Y-77285967D01*
X162510330Y-77285965D01*
X162510328Y-77285964D01*
X162296163Y-77186097D01*
X162296159Y-77186096D01*
X162296155Y-77186094D01*
X162067913Y-77124938D01*
X162067903Y-77124936D01*
X161832501Y-77104341D01*
X161832499Y-77104341D01*
X161597096Y-77124936D01*
X161597086Y-77124938D01*
X161368844Y-77186094D01*
X161368835Y-77186098D01*
X161154671Y-77285964D01*
X161154669Y-77285965D01*
X160961097Y-77421505D01*
X160794005Y-77588597D01*
X160663769Y-77774595D01*
X160609192Y-77818220D01*
X160539694Y-77825414D01*
X160477339Y-77793891D01*
X160460619Y-77774595D01*
X160407425Y-77698626D01*
X160407425Y-77698625D01*
X159775461Y-78330588D01*
X159758425Y-78267007D01*
X159692599Y-78152993D01*
X159599507Y-78059901D01*
X159485493Y-77994075D01*
X159421910Y-77977037D01*
X160053873Y-77345073D01*
X160053873Y-77345072D01*
X159970083Y-77286402D01*
X159970079Y-77286400D01*
X159755992Y-77186570D01*
X159755983Y-77186566D01*
X159527826Y-77125432D01*
X159527815Y-77125430D01*
X159292502Y-77104843D01*
X159292498Y-77104843D01*
X159057184Y-77125430D01*
X159057173Y-77125432D01*
X158829016Y-77186566D01*
X158829007Y-77186570D01*
X158614919Y-77286401D01*
X158531125Y-77345072D01*
X159163090Y-77977037D01*
X159099507Y-77994075D01*
X158985493Y-78059901D01*
X158892401Y-78152993D01*
X158826575Y-78267007D01*
X158809537Y-78330590D01*
X158177573Y-77698626D01*
X158124381Y-77774594D01*
X158069804Y-77818219D01*
X158000306Y-77825413D01*
X157937951Y-77793891D01*
X157921230Y-77774594D01*
X157790994Y-77588597D01*
X157623902Y-77421506D01*
X157623895Y-77421501D01*
X157430334Y-77285967D01*
X157430330Y-77285965D01*
X157430328Y-77285964D01*
X157216163Y-77186097D01*
X157216159Y-77186096D01*
X157216155Y-77186094D01*
X156987913Y-77124938D01*
X156987903Y-77124936D01*
X156752501Y-77104341D01*
X156752499Y-77104341D01*
X156517096Y-77124936D01*
X156517086Y-77124938D01*
X156288844Y-77186094D01*
X156288835Y-77186098D01*
X156074671Y-77285964D01*
X156074669Y-77285965D01*
X155881097Y-77421505D01*
X155714005Y-77588597D01*
X155584075Y-77774158D01*
X155529498Y-77817783D01*
X155460000Y-77824977D01*
X155397645Y-77793454D01*
X155380925Y-77774158D01*
X155250994Y-77588597D01*
X155083902Y-77421506D01*
X155083895Y-77421501D01*
X154890334Y-77285967D01*
X154890330Y-77285965D01*
X154890328Y-77285964D01*
X154676163Y-77186097D01*
X154676159Y-77186096D01*
X154676155Y-77186094D01*
X154447913Y-77124938D01*
X154447903Y-77124936D01*
X154212501Y-77104341D01*
X154212499Y-77104341D01*
X153977096Y-77124936D01*
X153977086Y-77124938D01*
X153748844Y-77186094D01*
X153748835Y-77186098D01*
X153534671Y-77285964D01*
X153534669Y-77285965D01*
X153341097Y-77421505D01*
X153174005Y-77588597D01*
X153044075Y-77774158D01*
X152989498Y-77817783D01*
X152920000Y-77824977D01*
X152857645Y-77793454D01*
X152840925Y-77774158D01*
X152710994Y-77588597D01*
X152543902Y-77421506D01*
X152543895Y-77421501D01*
X152350334Y-77285967D01*
X152350330Y-77285965D01*
X152350328Y-77285964D01*
X152136163Y-77186097D01*
X152136159Y-77186096D01*
X152136155Y-77186094D01*
X151907913Y-77124938D01*
X151907903Y-77124936D01*
X151672501Y-77104341D01*
X151672499Y-77104341D01*
X151437096Y-77124936D01*
X151437086Y-77124938D01*
X151208844Y-77186094D01*
X151208835Y-77186098D01*
X150994671Y-77285964D01*
X150994669Y-77285965D01*
X150801097Y-77421505D01*
X150634005Y-77588597D01*
X150498465Y-77782169D01*
X150498464Y-77782171D01*
X150398598Y-77996335D01*
X150398594Y-77996344D01*
X150337438Y-78224586D01*
X150337436Y-78224596D01*
X150316841Y-78459999D01*
X150316841Y-78460000D01*
X150337436Y-78695403D01*
X150337438Y-78695413D01*
X150398594Y-78923655D01*
X150398596Y-78923659D01*
X150398597Y-78923663D01*
X150478725Y-79095498D01*
X150498465Y-79137830D01*
X150498467Y-79137834D01*
X150606781Y-79292521D01*
X150634001Y-79331396D01*
X150634006Y-79331402D01*
X150801097Y-79498494D01*
X150802465Y-79499642D01*
X150802902Y-79500299D01*
X150804927Y-79502324D01*
X150804520Y-79502730D01*
X150841167Y-79557813D01*
X150842275Y-79627674D01*
X150805438Y-79687044D01*
X150761768Y-79712335D01*
X150753173Y-79715183D01*
X150753163Y-79715187D01*
X150603842Y-79807289D01*
X150479789Y-79931342D01*
X150387687Y-80080663D01*
X150387685Y-80080668D01*
X150371201Y-80130414D01*
X150332501Y-80247203D01*
X150332501Y-80247204D01*
X150332500Y-80247204D01*
X150322000Y-80349983D01*
X150322000Y-81650001D01*
X150322001Y-81650018D01*
X150332500Y-81752796D01*
X150332501Y-81752799D01*
X150383789Y-81907573D01*
X150387686Y-81919334D01*
X150479788Y-82068656D01*
X150603844Y-82192712D01*
X150753166Y-82284814D01*
X150919703Y-82339999D01*
X151022491Y-82350500D01*
X152322508Y-82350499D01*
X152425297Y-82339999D01*
X152591834Y-82284814D01*
X152741156Y-82192712D01*
X152865212Y-82068656D01*
X152957314Y-81919334D01*
X152960162Y-81910738D01*
X152999929Y-81853294D01*
X153064444Y-81826468D01*
X153133220Y-81838779D01*
X153169983Y-81867766D01*
X153170177Y-81867573D01*
X153171813Y-81869209D01*
X153172854Y-81870030D01*
X153174001Y-81871398D01*
X153341095Y-82038492D01*
X153341098Y-82038494D01*
X153341099Y-82038495D01*
X153409123Y-82086125D01*
X153452748Y-82140701D01*
X153462000Y-82187700D01*
X153462000Y-83420418D01*
X153462000Y-83420420D01*
X153461999Y-83420420D01*
X153490840Y-83565407D01*
X153490843Y-83565417D01*
X153547413Y-83701990D01*
X153547416Y-83701995D01*
X153562457Y-83724507D01*
X153629546Y-83824914D01*
X153629552Y-83824921D01*
X155477580Y-85672948D01*
X155477584Y-85672951D01*
X155600498Y-85755080D01*
X155600511Y-85755087D01*
X155691929Y-85792953D01*
X155737087Y-85811658D01*
X155737091Y-85811658D01*
X155737092Y-85811659D01*
X155882079Y-85840500D01*
X155882082Y-85840500D01*
X174063920Y-85840500D01*
X174161462Y-85821096D01*
X174208913Y-85811658D01*
X174345495Y-85755084D01*
X174394729Y-85722186D01*
X174468416Y-85672952D01*
X175582952Y-84558416D01*
X175649044Y-84459500D01*
X175665084Y-84435495D01*
X175699579Y-84352216D01*
X175721659Y-84298912D01*
X175750500Y-84153917D01*
X175750500Y-84006082D01*
X175750500Y-83374500D01*
X175770185Y-83307461D01*
X175822989Y-83261706D01*
X175874500Y-83250500D01*
X177125420Y-83250500D01*
X177274311Y-83220883D01*
X177298503Y-83218500D01*
X177646270Y-83218500D01*
X177713309Y-83238185D01*
X177733951Y-83254819D01*
X178972021Y-84492888D01*
X180167548Y-85688415D01*
X180167549Y-85688416D01*
X180234213Y-85755080D01*
X180272085Y-85792952D01*
X180394998Y-85875080D01*
X180395011Y-85875087D01*
X180531582Y-85931656D01*
X180531587Y-85931658D01*
X180531591Y-85931658D01*
X180531592Y-85931659D01*
X180676579Y-85960500D01*
X180676582Y-85960500D01*
X192723920Y-85960500D01*
X192821462Y-85941096D01*
X192868913Y-85931658D01*
X193005495Y-85875084D01*
X193057254Y-85840500D01*
X193057254Y-85840499D01*
X193057256Y-85840499D01*
X193100423Y-85811656D01*
X193128416Y-85792952D01*
X193726549Y-85194817D01*
X193787872Y-85161333D01*
X193814230Y-85158499D01*
X194302002Y-85158499D01*
X194302008Y-85158499D01*
X194404797Y-85147999D01*
X194571334Y-85092814D01*
X194720656Y-85000712D01*
X194844712Y-84876656D01*
X194850420Y-84867402D01*
X194902368Y-84820678D01*
X194955958Y-84808500D01*
X196177920Y-84808500D01*
X196275462Y-84789096D01*
X196322913Y-84779658D01*
X196459495Y-84723084D01*
X196459504Y-84723077D01*
X196464865Y-84720213D01*
X196465506Y-84721413D01*
X196499121Y-84707220D01*
X196621803Y-84681144D01*
X196794730Y-84604151D01*
X196947871Y-84492888D01*
X197074533Y-84352216D01*
X197169179Y-84188284D01*
X197227674Y-84008256D01*
X197247460Y-83820000D01*
X197227674Y-83631744D01*
X197169179Y-83451716D01*
X197074533Y-83287784D01*
X196947871Y-83147112D01*
X196947870Y-83147111D01*
X196794734Y-83035851D01*
X196794729Y-83035848D01*
X196621807Y-82958857D01*
X196621802Y-82958855D01*
X196476001Y-82927865D01*
X196436646Y-82919500D01*
X196247354Y-82919500D01*
X196214897Y-82926398D01*
X196062197Y-82958855D01*
X196062192Y-82958857D01*
X195889270Y-83035848D01*
X195889265Y-83035851D01*
X195736129Y-83147111D01*
X195671851Y-83218500D01*
X195628655Y-83266472D01*
X195569170Y-83303121D01*
X195536507Y-83307500D01*
X194955958Y-83307500D01*
X194888919Y-83287815D01*
X194850420Y-83248598D01*
X194844712Y-83239344D01*
X194751049Y-83145681D01*
X194717564Y-83084358D01*
X194722548Y-83014666D01*
X194751049Y-82970319D01*
X194786902Y-82934466D01*
X194844712Y-82876656D01*
X194936814Y-82727334D01*
X194991999Y-82560797D01*
X195002500Y-82458009D01*
X195002499Y-81657992D01*
X195001684Y-81650018D01*
X194991999Y-81555203D01*
X194991998Y-81555200D01*
X194986961Y-81540000D01*
X194936814Y-81388666D01*
X194844712Y-81239344D01*
X194720656Y-81115288D01*
X194598594Y-81040000D01*
X194571336Y-81023187D01*
X194571331Y-81023185D01*
X194501357Y-80999998D01*
X194404797Y-80968001D01*
X194404795Y-80968000D01*
X194302010Y-80957500D01*
X193301998Y-80957500D01*
X193301980Y-80957501D01*
X193199203Y-80968000D01*
X193199200Y-80968001D01*
X193032668Y-81023185D01*
X193032663Y-81023187D01*
X192883342Y-81115289D01*
X192759289Y-81239342D01*
X192667187Y-81388663D01*
X192667185Y-81388668D01*
X192642394Y-81463483D01*
X192612001Y-81555203D01*
X192612001Y-81555204D01*
X192612000Y-81555204D01*
X192601500Y-81657983D01*
X192601500Y-81673546D01*
X192581815Y-81740585D01*
X192565181Y-81761227D01*
X191653227Y-82673181D01*
X191591904Y-82706666D01*
X191565546Y-82709500D01*
X190528129Y-82709500D01*
X190528123Y-82709501D01*
X190468516Y-82715908D01*
X190333671Y-82766202D01*
X190333664Y-82766206D01*
X190218457Y-82852451D01*
X190218446Y-82852462D01*
X190204504Y-82871085D01*
X190148569Y-82912954D01*
X190092294Y-82920092D01*
X190086655Y-82919500D01*
X190086646Y-82919500D01*
X189897354Y-82919500D01*
X189864897Y-82926398D01*
X189712197Y-82958855D01*
X189712192Y-82958857D01*
X189539270Y-83035848D01*
X189539265Y-83035851D01*
X189386129Y-83147111D01*
X189259466Y-83287785D01*
X189164821Y-83451715D01*
X189164818Y-83451722D01*
X189106327Y-83631740D01*
X189106326Y-83631744D01*
X189086540Y-83820000D01*
X189106326Y-84008256D01*
X189106327Y-84008259D01*
X189164818Y-84188277D01*
X189164820Y-84188281D01*
X189164821Y-84188284D01*
X189214021Y-84273501D01*
X189230493Y-84341401D01*
X189207640Y-84407428D01*
X189152718Y-84450618D01*
X189106633Y-84459500D01*
X188000000Y-84459500D01*
X187932961Y-84439815D01*
X187887206Y-84387011D01*
X187876000Y-84335500D01*
X187876000Y-84235000D01*
X185576000Y-84235000D01*
X185576000Y-84335500D01*
X185556315Y-84402539D01*
X185503511Y-84448294D01*
X185452000Y-84459500D01*
X181112729Y-84459500D01*
X181045690Y-84439815D01*
X181025048Y-84423181D01*
X180336867Y-83735000D01*
X185576000Y-83735000D01*
X186476000Y-83735000D01*
X186476000Y-82710000D01*
X186976000Y-82710000D01*
X186976000Y-83735000D01*
X187876000Y-83735000D01*
X187876000Y-83162172D01*
X187875999Y-83162155D01*
X187869598Y-83102627D01*
X187869596Y-83102620D01*
X187819354Y-82967913D01*
X187819350Y-82967906D01*
X187733190Y-82852812D01*
X187733187Y-82852809D01*
X187618093Y-82766649D01*
X187618086Y-82766645D01*
X187483379Y-82716403D01*
X187483372Y-82716401D01*
X187423844Y-82710000D01*
X186976000Y-82710000D01*
X186476000Y-82710000D01*
X186028155Y-82710000D01*
X185968627Y-82716401D01*
X185968620Y-82716403D01*
X185833913Y-82766645D01*
X185833906Y-82766649D01*
X185718812Y-82852809D01*
X185718809Y-82852812D01*
X185632649Y-82967906D01*
X185632645Y-82967913D01*
X185582403Y-83102620D01*
X185582401Y-83102627D01*
X185576000Y-83162155D01*
X185576000Y-83735000D01*
X180336867Y-83735000D01*
X178957819Y-82355951D01*
X178924334Y-82294628D01*
X178921500Y-82268270D01*
X178921500Y-81745500D01*
X179902001Y-81745500D01*
X179902001Y-81895486D01*
X179912494Y-81998197D01*
X179967641Y-82164619D01*
X179967643Y-82164624D01*
X180059684Y-82313845D01*
X180183654Y-82437815D01*
X180332875Y-82529856D01*
X180332880Y-82529858D01*
X180499302Y-82585005D01*
X180499309Y-82585006D01*
X180602019Y-82595499D01*
X180851999Y-82595499D01*
X180852000Y-82595498D01*
X180852000Y-81745500D01*
X181352000Y-81745500D01*
X181352000Y-82595499D01*
X181601972Y-82595499D01*
X181601986Y-82595498D01*
X181704697Y-82585005D01*
X181871119Y-82529858D01*
X181871124Y-82529856D01*
X182020345Y-82437815D01*
X182144315Y-82313845D01*
X182236356Y-82164624D01*
X182236358Y-82164619D01*
X182291505Y-81998197D01*
X182291506Y-81998190D01*
X182301999Y-81895486D01*
X182302000Y-81895473D01*
X182302000Y-81745500D01*
X181352000Y-81745500D01*
X180852000Y-81745500D01*
X179902001Y-81745500D01*
X178921500Y-81745500D01*
X178921500Y-81492997D01*
X178921499Y-81492984D01*
X178918485Y-81463483D01*
X178910999Y-81390203D01*
X178900659Y-81359001D01*
X178898258Y-81289176D01*
X178933989Y-81229134D01*
X178996510Y-81197941D01*
X179018366Y-81196000D01*
X179801138Y-81196000D01*
X179868177Y-81215685D01*
X179888819Y-81232319D01*
X179902000Y-81245500D01*
X182301999Y-81245500D01*
X182315180Y-81232319D01*
X182376503Y-81198834D01*
X182402861Y-81196000D01*
X190991108Y-81196000D01*
X190991108Y-81195999D01*
X191078011Y-81178714D01*
X191078012Y-81178714D01*
X191089427Y-81176443D01*
X191111952Y-81171963D01*
X191111957Y-81171960D01*
X191111960Y-81171960D01*
X191145287Y-81158154D01*
X191145286Y-81158154D01*
X191145292Y-81158152D01*
X191225786Y-81124812D01*
X191280925Y-81087968D01*
X191328233Y-81056358D01*
X191415358Y-80969233D01*
X191415358Y-80969231D01*
X191425566Y-80959024D01*
X191425568Y-80959021D01*
X194001265Y-78383323D01*
X194062586Y-78349840D01*
X194132278Y-78354824D01*
X194188211Y-78396696D01*
X194196331Y-78409006D01*
X194267466Y-78532214D01*
X194267465Y-78532214D01*
X194394129Y-78672888D01*
X194547265Y-78784148D01*
X194552893Y-78787397D01*
X194551817Y-78789260D01*
X194597431Y-78828033D01*
X194617751Y-78894883D01*
X194598704Y-78962106D01*
X194594083Y-78968935D01*
X194593468Y-78969781D01*
X194498821Y-79133715D01*
X194498818Y-79133722D01*
X194446585Y-79294481D01*
X194440326Y-79313744D01*
X194420540Y-79502000D01*
X194440326Y-79690256D01*
X194440327Y-79690259D01*
X194498818Y-79870277D01*
X194498821Y-79870284D01*
X194593467Y-80034216D01*
X194681532Y-80132022D01*
X194720129Y-80174888D01*
X194873265Y-80286148D01*
X194873270Y-80286151D01*
X195046192Y-80363142D01*
X195046197Y-80363144D01*
X195231354Y-80402500D01*
X195231355Y-80402500D01*
X195420644Y-80402500D01*
X195420646Y-80402500D01*
X195499333Y-80385774D01*
X195568996Y-80391089D01*
X195612792Y-80419383D01*
X197179263Y-81985855D01*
X197179267Y-81985858D01*
X197281710Y-82054309D01*
X197281711Y-82054309D01*
X197281715Y-82054312D01*
X197335193Y-82076463D01*
X197395548Y-82101463D01*
X197415597Y-82105451D01*
X197449196Y-82112134D01*
X197516392Y-82125501D01*
X197516394Y-82125501D01*
X197645721Y-82125501D01*
X197645741Y-82125500D01*
X198523501Y-82125500D01*
X198590540Y-82145185D01*
X198636295Y-82197989D01*
X198647501Y-82249500D01*
X198647501Y-82297876D01*
X198653908Y-82357483D01*
X198704202Y-82492328D01*
X198704206Y-82492335D01*
X198790452Y-82607544D01*
X198790455Y-82607547D01*
X198905664Y-82693793D01*
X198905671Y-82693797D01*
X199040517Y-82744091D01*
X199040516Y-82744091D01*
X199047444Y-82744835D01*
X199100127Y-82750500D01*
X200695872Y-82750499D01*
X200755483Y-82744091D01*
X200890331Y-82693796D01*
X201005546Y-82607546D01*
X201091796Y-82492331D01*
X201142091Y-82357483D01*
X201148500Y-82297873D01*
X201148499Y-80702128D01*
X201142091Y-80642517D01*
X201141115Y-80639901D01*
X201091797Y-80507671D01*
X201091793Y-80507664D01*
X201005547Y-80392455D01*
X201005544Y-80392452D01*
X200890335Y-80306206D01*
X200890328Y-80306202D01*
X200755482Y-80255908D01*
X200755483Y-80255908D01*
X200695883Y-80249501D01*
X200695881Y-80249500D01*
X200695873Y-80249500D01*
X200695864Y-80249500D01*
X199100129Y-80249500D01*
X199100123Y-80249501D01*
X199040516Y-80255908D01*
X198905671Y-80306202D01*
X198905664Y-80306206D01*
X198790455Y-80392452D01*
X198790452Y-80392455D01*
X198704206Y-80507664D01*
X198704202Y-80507671D01*
X198653908Y-80642517D01*
X198648482Y-80692993D01*
X198647501Y-80702123D01*
X198647500Y-80702135D01*
X198647500Y-80750500D01*
X198627815Y-80817539D01*
X198575011Y-80863294D01*
X198523500Y-80874500D01*
X197888453Y-80874500D01*
X197821414Y-80854815D01*
X197800772Y-80838181D01*
X196201602Y-79239012D01*
X196171352Y-79189648D01*
X196153179Y-79133716D01*
X196058533Y-78969784D01*
X195934895Y-78832471D01*
X195904666Y-78769481D01*
X195913291Y-78700146D01*
X195958032Y-78646480D01*
X196024685Y-78625522D01*
X196027046Y-78625500D01*
X200422348Y-78625500D01*
X200489387Y-78645185D01*
X200510029Y-78661819D01*
X202954581Y-81106372D01*
X202988066Y-81167695D01*
X202990900Y-81194053D01*
X202990900Y-82306470D01*
X202990901Y-82306476D01*
X202997308Y-82366083D01*
X203047602Y-82500928D01*
X203047606Y-82500935D01*
X203133852Y-82616144D01*
X203133855Y-82616147D01*
X203249064Y-82702393D01*
X203249071Y-82702397D01*
X203383917Y-82752691D01*
X203383916Y-82752691D01*
X203390844Y-82753435D01*
X203443527Y-82759100D01*
X205039272Y-82759099D01*
X205098883Y-82752691D01*
X205233731Y-82702396D01*
X205348946Y-82616146D01*
X205435196Y-82500931D01*
X205485491Y-82366083D01*
X205491900Y-82306473D01*
X205491899Y-80710728D01*
X205485491Y-80651117D01*
X205482283Y-80642517D01*
X205435197Y-80516271D01*
X205435193Y-80516264D01*
X205348947Y-80401055D01*
X205348944Y-80401052D01*
X205233735Y-80314806D01*
X205233728Y-80314802D01*
X205098882Y-80264508D01*
X205098883Y-80264508D01*
X205039283Y-80258101D01*
X205039281Y-80258100D01*
X205039273Y-80258100D01*
X205039265Y-80258100D01*
X203926853Y-80258100D01*
X203859814Y-80238415D01*
X203839172Y-80221781D01*
X203617393Y-80000002D01*
X206644579Y-80000002D01*
X206664248Y-80362782D01*
X206664250Y-80362799D01*
X206723024Y-80721303D01*
X206723030Y-80721329D01*
X206820221Y-81071381D01*
X206820226Y-81071396D01*
X206954700Y-81408901D01*
X206954706Y-81408913D01*
X207124878Y-81729892D01*
X207124881Y-81729897D01*
X207124883Y-81729900D01*
X207173343Y-81801373D01*
X207328772Y-82030613D01*
X207553028Y-82294628D01*
X207563979Y-82307521D01*
X207598265Y-82339998D01*
X207827745Y-82557374D01*
X207827755Y-82557382D01*
X207855045Y-82578127D01*
X208116981Y-82777245D01*
X208428292Y-82964555D01*
X208428294Y-82964556D01*
X208428296Y-82964557D01*
X208428300Y-82964559D01*
X208750191Y-83113481D01*
X208758031Y-83117108D01*
X209102330Y-83233116D01*
X209457153Y-83311218D01*
X209818341Y-83350500D01*
X209818347Y-83350500D01*
X210181653Y-83350500D01*
X210181659Y-83350500D01*
X210542847Y-83311218D01*
X210897670Y-83233116D01*
X211241969Y-83117108D01*
X211571708Y-82964555D01*
X211883019Y-82777245D01*
X212172254Y-82557375D01*
X212436021Y-82307521D01*
X212671227Y-82030614D01*
X212875117Y-81729900D01*
X213045298Y-81408905D01*
X213179775Y-81071391D01*
X213188491Y-81040001D01*
X213222182Y-80918656D01*
X213276973Y-80721316D01*
X213310589Y-80516269D01*
X213335749Y-80362799D01*
X213335751Y-80362782D01*
X213336445Y-80349992D01*
X213351047Y-80080665D01*
X213355421Y-80000002D01*
X213355421Y-79999997D01*
X213339979Y-79715187D01*
X213335751Y-79637215D01*
X213334850Y-79631722D01*
X213276975Y-79278696D01*
X213276974Y-79278695D01*
X213276973Y-79278684D01*
X213236844Y-79134151D01*
X213179778Y-78928618D01*
X213179773Y-78928603D01*
X213054333Y-78613771D01*
X213045298Y-78591095D01*
X212875117Y-78270100D01*
X212671227Y-77969386D01*
X212436021Y-77692479D01*
X212172254Y-77442625D01*
X212172244Y-77442617D01*
X212069507Y-77364519D01*
X211883019Y-77222755D01*
X211571708Y-77035445D01*
X211571707Y-77035444D01*
X211571703Y-77035442D01*
X211571699Y-77035440D01*
X211241979Y-76882896D01*
X211241974Y-76882894D01*
X211241969Y-76882892D01*
X211074143Y-76826344D01*
X210897669Y-76766883D01*
X210542845Y-76688781D01*
X210181660Y-76649500D01*
X210181659Y-76649500D01*
X209818341Y-76649500D01*
X209818339Y-76649500D01*
X209457154Y-76688781D01*
X209102330Y-76766883D01*
X208866038Y-76846500D01*
X208758031Y-76882892D01*
X208758028Y-76882893D01*
X208758020Y-76882896D01*
X208428300Y-77035440D01*
X208428296Y-77035442D01*
X208266349Y-77132883D01*
X208116981Y-77222755D01*
X208076151Y-77253793D01*
X207827755Y-77442617D01*
X207827745Y-77442625D01*
X207563978Y-77692479D01*
X207328772Y-77969386D01*
X207124884Y-78270098D01*
X207124878Y-78270107D01*
X206954706Y-78591086D01*
X206954700Y-78591098D01*
X206820226Y-78928603D01*
X206820221Y-78928618D01*
X206723030Y-79278670D01*
X206723024Y-79278696D01*
X206664250Y-79637200D01*
X206664248Y-79637217D01*
X206644579Y-79999997D01*
X206644579Y-80000002D01*
X203617393Y-80000002D01*
X201225728Y-77608338D01*
X201225725Y-77608334D01*
X201225725Y-77608335D01*
X201218658Y-77601268D01*
X201218658Y-77601267D01*
X201131533Y-77514142D01*
X201131532Y-77514141D01*
X201131531Y-77514140D01*
X201080309Y-77479915D01*
X201029086Y-77445688D01*
X201029083Y-77445686D01*
X201029080Y-77445685D01*
X200948592Y-77412347D01*
X200915253Y-77398537D01*
X200905227Y-77396543D01*
X200854829Y-77386518D01*
X200847559Y-77385072D01*
X200794410Y-77374500D01*
X200794407Y-77374500D01*
X200794406Y-77374500D01*
X195703748Y-77374500D01*
X195636709Y-77354815D01*
X195611600Y-77333474D01*
X195605873Y-77327114D01*
X195605869Y-77327110D01*
X195452734Y-77215851D01*
X195452729Y-77215848D01*
X195421050Y-77201744D01*
X195367813Y-77156494D01*
X195347492Y-77089645D01*
X195366537Y-77022421D01*
X195383805Y-77000784D01*
X195695808Y-76688782D01*
X196947772Y-75436819D01*
X197009095Y-75403334D01*
X197035453Y-75400500D01*
X197094644Y-75400500D01*
X197094646Y-75400500D01*
X197279803Y-75361144D01*
X197452730Y-75284151D01*
X197605871Y-75172888D01*
X197732533Y-75032216D01*
X197827179Y-74868284D01*
X197885674Y-74688256D01*
X197904247Y-74511536D01*
X197930832Y-74446924D01*
X197988129Y-74406939D01*
X198027568Y-74400500D01*
X198094644Y-74400500D01*
X198094646Y-74400500D01*
X198279803Y-74361144D01*
X198452730Y-74284151D01*
X198605871Y-74172888D01*
X198653307Y-74120204D01*
X198712792Y-74083557D01*
X198782649Y-74084886D01*
X198840697Y-74123772D01*
X198868507Y-74187869D01*
X198868984Y-74192369D01*
X198874936Y-74260403D01*
X198874938Y-74260413D01*
X198936094Y-74488655D01*
X198936096Y-74488659D01*
X198936097Y-74488663D01*
X198942992Y-74503449D01*
X199035965Y-74702830D01*
X199035967Y-74702834D01*
X199080479Y-74766403D01*
X199171505Y-74896401D01*
X199338599Y-75063495D01*
X199435384Y-75131265D01*
X199532165Y-75199032D01*
X199532167Y-75199033D01*
X199532170Y-75199035D01*
X199746337Y-75298903D01*
X199974592Y-75360063D01*
X200151034Y-75375500D01*
X200209999Y-75380659D01*
X200210000Y-75380659D01*
X200210001Y-75380659D01*
X200268966Y-75375500D01*
X200445408Y-75360063D01*
X200673663Y-75298903D01*
X200887830Y-75199035D01*
X201081401Y-75063495D01*
X201203329Y-74941566D01*
X201264648Y-74908084D01*
X201334340Y-74913068D01*
X201390274Y-74954939D01*
X201407189Y-74985917D01*
X201456202Y-75117328D01*
X201456206Y-75117335D01*
X201542452Y-75232544D01*
X201542455Y-75232547D01*
X201657664Y-75318793D01*
X201657671Y-75318797D01*
X201792517Y-75369091D01*
X201792516Y-75369091D01*
X201799444Y-75369835D01*
X201852127Y-75375500D01*
X203647872Y-75375499D01*
X203707483Y-75369091D01*
X203842331Y-75318796D01*
X203957546Y-75232546D01*
X204043796Y-75117331D01*
X204094091Y-74982483D01*
X204100500Y-74922873D01*
X204100499Y-73127128D01*
X204094091Y-73067517D01*
X204092810Y-73064083D01*
X204043797Y-72932671D01*
X204043793Y-72932664D01*
X203957547Y-72817455D01*
X203957544Y-72817452D01*
X203842335Y-72731206D01*
X203842328Y-72731202D01*
X203707482Y-72680908D01*
X203707483Y-72680908D01*
X203647883Y-72674501D01*
X203647881Y-72674500D01*
X203647873Y-72674500D01*
X203647865Y-72674500D01*
X203499500Y-72674500D01*
X203432461Y-72654815D01*
X203386706Y-72602011D01*
X203375500Y-72550500D01*
X203375500Y-68067741D01*
X203375501Y-68067720D01*
X203375501Y-67938391D01*
X203351464Y-67817553D01*
X203351462Y-67817547D01*
X203342489Y-67795883D01*
X203342477Y-67795856D01*
X203306390Y-67708733D01*
X203306387Y-67708726D01*
X203304312Y-67703715D01*
X203304309Y-67703711D01*
X203304308Y-67703708D01*
X203235858Y-67601267D01*
X203235855Y-67601263D01*
X203036818Y-67402226D01*
X203003333Y-67340903D01*
X203000499Y-67314545D01*
X203000499Y-66636129D01*
X203000498Y-66636123D01*
X202998363Y-66616265D01*
X202994091Y-66576517D01*
X202981340Y-66542332D01*
X202976357Y-66472642D01*
X202981338Y-66455672D01*
X202994091Y-66421483D01*
X203000500Y-66361873D01*
X203000499Y-65366128D01*
X202994091Y-65306517D01*
X202981340Y-65272332D01*
X202976357Y-65202642D01*
X202981340Y-65185669D01*
X202994091Y-65151483D01*
X203000500Y-65091873D01*
X203000499Y-64096128D01*
X202994091Y-64036517D01*
X202981340Y-64002332D01*
X202976357Y-63932642D01*
X202981340Y-63915669D01*
X202994091Y-63881483D01*
X203000500Y-63821873D01*
X203000499Y-63354449D01*
X203020183Y-63287412D01*
X203072987Y-63241657D01*
X203142146Y-63231713D01*
X203205702Y-63260738D01*
X203212180Y-63266770D01*
X205838181Y-65892771D01*
X205871666Y-65954094D01*
X205874500Y-65980452D01*
X205874500Y-69136611D01*
X205898535Y-69257444D01*
X205898540Y-69257461D01*
X205945685Y-69371280D01*
X205945690Y-69371289D01*
X205979914Y-69422507D01*
X205979915Y-69422509D01*
X206014140Y-69473731D01*
X206014141Y-69473732D01*
X206014142Y-69473733D01*
X206101267Y-69560858D01*
X206101268Y-69560858D01*
X206108335Y-69567925D01*
X206108334Y-69567925D01*
X206108338Y-69567928D01*
X208113181Y-71572771D01*
X208146666Y-71634094D01*
X208149500Y-71660452D01*
X208149500Y-72972870D01*
X208149501Y-72972876D01*
X208155908Y-73032483D01*
X208206202Y-73167328D01*
X208206206Y-73167335D01*
X208292452Y-73282544D01*
X208292455Y-73282547D01*
X208407664Y-73368793D01*
X208407671Y-73368797D01*
X208542517Y-73419091D01*
X208542516Y-73419091D01*
X208549444Y-73419835D01*
X208602127Y-73425500D01*
X210397872Y-73425499D01*
X210457483Y-73419091D01*
X210592331Y-73368796D01*
X210707546Y-73282546D01*
X210793796Y-73167331D01*
X210844091Y-73032483D01*
X210850500Y-72972873D01*
X210850499Y-71177128D01*
X210844091Y-71117517D01*
X210820231Y-71053546D01*
X210793797Y-70982671D01*
X210793793Y-70982664D01*
X210707547Y-70867455D01*
X210707544Y-70867452D01*
X210592335Y-70781206D01*
X210592328Y-70781202D01*
X210460917Y-70732189D01*
X210404983Y-70690318D01*
X210380566Y-70624853D01*
X210395418Y-70556580D01*
X210416563Y-70528332D01*
X210538495Y-70406401D01*
X210674035Y-70212830D01*
X210773903Y-69998663D01*
X210835063Y-69770408D01*
X210855659Y-69535000D01*
X210835063Y-69299592D01*
X210773903Y-69071337D01*
X210674035Y-68857171D01*
X210645144Y-68815909D01*
X210538494Y-68663597D01*
X210371402Y-68496506D01*
X210371401Y-68496505D01*
X210185405Y-68366269D01*
X210141781Y-68311692D01*
X210134588Y-68242193D01*
X210166110Y-68179839D01*
X210185405Y-68163119D01*
X210371082Y-68033105D01*
X210538105Y-67866082D01*
X210673600Y-67672578D01*
X210773429Y-67458492D01*
X210773432Y-67458486D01*
X210830636Y-67245000D01*
X209933012Y-67245000D01*
X209965925Y-67187993D01*
X210000000Y-67060826D01*
X210000000Y-66929174D01*
X209965925Y-66802007D01*
X209933012Y-66745000D01*
X210830636Y-66745000D01*
X210830635Y-66744999D01*
X210773432Y-66531513D01*
X210773429Y-66531507D01*
X210673600Y-66317422D01*
X210673599Y-66317420D01*
X210538113Y-66123926D01*
X210538108Y-66123920D01*
X210371078Y-65956890D01*
X210185405Y-65826879D01*
X210141780Y-65772302D01*
X210134588Y-65702804D01*
X210166110Y-65640449D01*
X210185406Y-65623730D01*
X210371401Y-65493495D01*
X210538495Y-65326401D01*
X210674035Y-65132830D01*
X210773903Y-64918663D01*
X210835063Y-64690408D01*
X210855659Y-64455000D01*
X210853690Y-64432500D01*
X210843852Y-64320045D01*
X210835063Y-64219592D01*
X210788626Y-64046285D01*
X210773905Y-63991344D01*
X210773904Y-63991343D01*
X210773903Y-63991337D01*
X210674035Y-63777171D01*
X210635918Y-63722733D01*
X210538494Y-63583597D01*
X210371402Y-63416506D01*
X210371396Y-63416501D01*
X210185842Y-63286575D01*
X210142217Y-63231998D01*
X210135023Y-63162500D01*
X210166546Y-63100145D01*
X210185842Y-63083425D01*
X210247859Y-63040000D01*
X210371401Y-62953495D01*
X210538495Y-62786401D01*
X210674035Y-62592830D01*
X210773903Y-62378663D01*
X210835063Y-62150408D01*
X210855659Y-61915000D01*
X210853690Y-61892500D01*
X210845439Y-61798185D01*
X210835063Y-61679592D01*
X210782116Y-61481989D01*
X210773905Y-61451344D01*
X210773904Y-61451343D01*
X210773903Y-61451337D01*
X210674035Y-61237171D01*
X210661477Y-61219235D01*
X210538494Y-61043597D01*
X210371402Y-60876506D01*
X210371395Y-60876501D01*
X210177834Y-60740967D01*
X210177830Y-60740965D01*
X210154457Y-60730066D01*
X209963663Y-60641097D01*
X209963659Y-60641096D01*
X209963655Y-60641094D01*
X209735413Y-60579938D01*
X209735403Y-60579936D01*
X209500001Y-60559341D01*
X209499999Y-60559341D01*
X209264590Y-60579937D01*
X209264589Y-60579937D01*
X209164124Y-60606855D01*
X209094274Y-60605191D01*
X209044352Y-60574761D01*
X206187928Y-57718338D01*
X206187925Y-57718334D01*
X206187925Y-57718335D01*
X206180859Y-57711269D01*
X206180858Y-57711267D01*
X206093733Y-57624142D01*
X206020880Y-57575463D01*
X206006223Y-57565669D01*
X205991285Y-57555687D01*
X205951039Y-57539017D01*
X205910792Y-57522347D01*
X205877452Y-57508537D01*
X205877450Y-57508536D01*
X205877446Y-57508535D01*
X205799910Y-57493112D01*
X205799903Y-57493112D01*
X205756607Y-57484500D01*
X205756606Y-57484500D01*
X203124500Y-57484500D01*
X203057461Y-57464815D01*
X203011706Y-57412011D01*
X203000500Y-57360500D01*
X203000499Y-56476129D01*
X203000498Y-56476123D01*
X203000497Y-56476116D01*
X202994091Y-56416517D01*
X202981340Y-56382332D01*
X202976357Y-56312642D01*
X202981340Y-56295669D01*
X202994091Y-56261483D01*
X203000500Y-56201873D01*
X203000499Y-55206128D01*
X202994091Y-55146517D01*
X202981340Y-55112332D01*
X202976357Y-55042642D01*
X202981340Y-55025669D01*
X202990914Y-55000002D01*
X206644579Y-55000002D01*
X206664248Y-55362782D01*
X206664250Y-55362799D01*
X206723024Y-55721303D01*
X206723030Y-55721329D01*
X206820221Y-56071381D01*
X206820225Y-56071391D01*
X206954700Y-56408901D01*
X206954706Y-56408913D01*
X207124878Y-56729892D01*
X207124881Y-56729897D01*
X207124883Y-56729900D01*
X207165517Y-56789830D01*
X207328772Y-57030613D01*
X207544190Y-57284223D01*
X207563979Y-57307521D01*
X207790768Y-57522347D01*
X207827745Y-57557374D01*
X207827755Y-57557382D01*
X207851540Y-57575463D01*
X208116981Y-57777245D01*
X208428292Y-57964555D01*
X208428294Y-57964556D01*
X208428296Y-57964557D01*
X208428300Y-57964559D01*
X208749437Y-58113132D01*
X208758031Y-58117108D01*
X209102330Y-58233116D01*
X209457153Y-58311218D01*
X209818341Y-58350500D01*
X209818347Y-58350500D01*
X210181653Y-58350500D01*
X210181659Y-58350500D01*
X210542847Y-58311218D01*
X210897670Y-58233116D01*
X211241969Y-58117108D01*
X211571708Y-57964555D01*
X211883019Y-57777245D01*
X212172254Y-57557375D01*
X212436021Y-57307521D01*
X212671227Y-57030614D01*
X212875117Y-56729900D01*
X213045298Y-56408905D01*
X213179775Y-56071391D01*
X213184259Y-56055243D01*
X213215153Y-55943969D01*
X213276973Y-55721316D01*
X213316318Y-55481323D01*
X213335749Y-55362799D01*
X213335751Y-55362782D01*
X213341159Y-55263051D01*
X213349330Y-55112334D01*
X213355421Y-55000002D01*
X213355421Y-54999997D01*
X213338155Y-54681549D01*
X213335751Y-54637215D01*
X213312863Y-54497606D01*
X213276975Y-54278696D01*
X213276974Y-54278695D01*
X213276973Y-54278684D01*
X213195293Y-53984500D01*
X213179778Y-53928618D01*
X213179773Y-53928603D01*
X213078004Y-53673181D01*
X213045298Y-53591095D01*
X212875117Y-53270100D01*
X212671227Y-52969386D01*
X212436021Y-52692479D01*
X212172254Y-52442625D01*
X212172244Y-52442617D01*
X212103635Y-52390462D01*
X211883019Y-52222755D01*
X211571708Y-52035445D01*
X211571707Y-52035444D01*
X211571703Y-52035442D01*
X211571699Y-52035440D01*
X211241979Y-51882896D01*
X211241974Y-51882894D01*
X211241969Y-51882892D01*
X211074143Y-51826344D01*
X210897669Y-51766883D01*
X210542845Y-51688781D01*
X210181660Y-51649500D01*
X210181659Y-51649500D01*
X209818341Y-51649500D01*
X209818339Y-51649500D01*
X209457154Y-51688781D01*
X209102330Y-51766883D01*
X208836178Y-51856560D01*
X208758031Y-51882892D01*
X208758028Y-51882893D01*
X208758020Y-51882896D01*
X208428300Y-52035440D01*
X208428296Y-52035442D01*
X208196453Y-52174937D01*
X208116981Y-52222755D01*
X208054593Y-52270181D01*
X207827755Y-52442617D01*
X207827745Y-52442625D01*
X207563978Y-52692479D01*
X207328772Y-52969386D01*
X207124884Y-53270098D01*
X207124878Y-53270107D01*
X206954706Y-53591086D01*
X206954700Y-53591098D01*
X206820226Y-53928603D01*
X206820221Y-53928618D01*
X206723030Y-54278670D01*
X206723024Y-54278696D01*
X206664250Y-54637200D01*
X206664248Y-54637217D01*
X206644579Y-54999997D01*
X206644579Y-55000002D01*
X202990914Y-55000002D01*
X202994091Y-54991483D01*
X203000500Y-54931873D01*
X203000499Y-53936128D01*
X202994091Y-53876517D01*
X202981340Y-53842332D01*
X202976357Y-53772642D01*
X202981340Y-53755669D01*
X202994091Y-53721483D01*
X203000500Y-53661873D01*
X203000499Y-52666128D01*
X202994091Y-52606517D01*
X202981340Y-52572332D01*
X202976357Y-52502642D01*
X202981340Y-52485669D01*
X202994091Y-52451483D01*
X203000500Y-52391873D01*
X203000499Y-51396128D01*
X202994091Y-51336517D01*
X202981073Y-51301616D01*
X202976090Y-51231926D01*
X202981075Y-51214949D01*
X202993597Y-51181375D01*
X202993598Y-51181372D01*
X202999999Y-51121844D01*
X203000000Y-51121827D01*
X203000000Y-50874000D01*
X200500000Y-50874000D01*
X200500000Y-51121844D01*
X200506401Y-51181372D01*
X200506403Y-51181379D01*
X200518925Y-51214952D01*
X200523909Y-51284643D01*
X200518925Y-51301617D01*
X200505909Y-51336514D01*
X200505908Y-51336516D01*
X200499501Y-51396116D01*
X200499501Y-51396123D01*
X200499500Y-51396135D01*
X200499500Y-52391870D01*
X200499501Y-52391876D01*
X200505908Y-52451481D01*
X200518659Y-52485669D01*
X200523642Y-52555361D01*
X200518659Y-52572331D01*
X200505908Y-52606518D01*
X200501888Y-52643915D01*
X200499501Y-52666123D01*
X200499500Y-52666135D01*
X200499500Y-53661870D01*
X200499501Y-53661876D01*
X200505908Y-53721481D01*
X200518659Y-53755669D01*
X200523642Y-53825361D01*
X200518659Y-53842331D01*
X200505908Y-53876518D01*
X200500507Y-53926757D01*
X200499501Y-53936123D01*
X200499500Y-53936135D01*
X200499500Y-54931870D01*
X200499501Y-54931876D01*
X200505908Y-54991481D01*
X200518659Y-55025669D01*
X200523642Y-55095361D01*
X200518659Y-55112331D01*
X200505908Y-55146518D01*
X200502349Y-55179627D01*
X200499501Y-55206123D01*
X200499500Y-55206135D01*
X200499500Y-56201870D01*
X200499501Y-56201876D01*
X200505908Y-56261481D01*
X200518659Y-56295669D01*
X200523642Y-56365361D01*
X200518659Y-56382331D01*
X200505908Y-56416518D01*
X200501354Y-56458881D01*
X200499501Y-56476123D01*
X200499500Y-56476135D01*
X200499500Y-57471870D01*
X200499501Y-57471876D01*
X200505908Y-57531481D01*
X200518659Y-57565669D01*
X200523642Y-57635361D01*
X200518659Y-57652331D01*
X200505908Y-57686518D01*
X200499501Y-57746116D01*
X200499501Y-57746123D01*
X200499500Y-57746135D01*
X200499500Y-58741870D01*
X200499501Y-58741876D01*
X200505908Y-58801481D01*
X200518659Y-58835669D01*
X200523642Y-58905361D01*
X200518659Y-58922331D01*
X200505908Y-58956518D01*
X200502483Y-58988378D01*
X200499501Y-59016123D01*
X200499500Y-59016135D01*
X200499500Y-60011870D01*
X200499501Y-60011876D01*
X200505908Y-60071481D01*
X200518659Y-60105669D01*
X200523642Y-60175361D01*
X200518659Y-60192331D01*
X200505908Y-60226518D01*
X200501197Y-60270339D01*
X200499501Y-60286123D01*
X200499500Y-60286135D01*
X200499500Y-61281870D01*
X200499501Y-61281876D01*
X200505908Y-61341481D01*
X200518659Y-61375669D01*
X200523642Y-61445361D01*
X200518659Y-61462331D01*
X200505908Y-61496518D01*
X200501862Y-61534155D01*
X200499501Y-61556123D01*
X200499500Y-61556135D01*
X200499500Y-62551870D01*
X200499501Y-62551876D01*
X200505908Y-62611481D01*
X200518659Y-62645669D01*
X200523642Y-62715361D01*
X200518659Y-62732331D01*
X200505908Y-62766518D01*
X200501197Y-62810339D01*
X200499501Y-62826123D01*
X200499500Y-62826135D01*
X200499500Y-63821870D01*
X200499501Y-63821876D01*
X200505908Y-63881481D01*
X200518659Y-63915669D01*
X200523642Y-63985361D01*
X200518659Y-64002331D01*
X200505908Y-64036518D01*
X200502483Y-64068378D01*
X200499501Y-64096123D01*
X200499500Y-64096135D01*
X200499500Y-65091870D01*
X200499501Y-65091876D01*
X200505908Y-65151481D01*
X200518659Y-65185669D01*
X200523642Y-65255361D01*
X200518659Y-65272331D01*
X200505908Y-65306518D01*
X200500913Y-65352983D01*
X200499501Y-65366123D01*
X200499500Y-65366135D01*
X200499500Y-65815547D01*
X200479815Y-65882586D01*
X200427011Y-65928341D01*
X200357853Y-65938285D01*
X200294297Y-65909260D01*
X200287819Y-65903228D01*
X199492928Y-65108338D01*
X199492925Y-65108334D01*
X199492925Y-65108335D01*
X199485858Y-65101268D01*
X199485858Y-65101267D01*
X199398733Y-65014142D01*
X199398732Y-65014141D01*
X199398731Y-65014140D01*
X199347509Y-64979915D01*
X199323522Y-64963887D01*
X199296286Y-64945688D01*
X199296283Y-64945686D01*
X199296280Y-64945685D01*
X199215792Y-64912347D01*
X199182453Y-64898537D01*
X199172427Y-64896543D01*
X199122029Y-64886518D01*
X199116911Y-64885500D01*
X199061610Y-64874500D01*
X199061607Y-64874500D01*
X199061606Y-64874500D01*
X197061607Y-64874500D01*
X196938393Y-64874500D01*
X196938389Y-64874500D01*
X196883089Y-64885500D01*
X196877971Y-64886518D01*
X196834743Y-64895116D01*
X196817546Y-64898537D01*
X196703716Y-64945687D01*
X196703707Y-64945692D01*
X196601268Y-65014140D01*
X196557705Y-65057703D01*
X196514142Y-65101267D01*
X196514139Y-65101270D01*
X196359559Y-65255851D01*
X196227229Y-65388181D01*
X196165906Y-65421666D01*
X196139548Y-65424500D01*
X196080354Y-65424500D01*
X196040999Y-65432865D01*
X195895198Y-65463855D01*
X195895197Y-65463855D01*
X195858857Y-65480035D01*
X195789607Y-65489318D01*
X195726331Y-65459688D01*
X195716274Y-65449727D01*
X195605871Y-65327112D01*
X195604894Y-65326402D01*
X195452734Y-65215851D01*
X195452729Y-65215848D01*
X195279807Y-65138857D01*
X195279802Y-65138855D01*
X195134001Y-65107865D01*
X195094646Y-65099500D01*
X194905354Y-65099500D01*
X194872897Y-65106398D01*
X194720197Y-65138855D01*
X194720192Y-65138857D01*
X194547270Y-65215848D01*
X194547265Y-65215851D01*
X194394132Y-65327109D01*
X194394129Y-65327111D01*
X194394129Y-65327112D01*
X194342148Y-65384841D01*
X194282663Y-65421489D01*
X194212806Y-65420158D01*
X194157851Y-65384841D01*
X194105871Y-65327112D01*
X194104894Y-65326402D01*
X193952734Y-65215851D01*
X193952729Y-65215848D01*
X193789583Y-65143210D01*
X193736346Y-65097960D01*
X193716025Y-65031111D01*
X193735071Y-64963887D01*
X193752334Y-64942254D01*
X195470729Y-63223860D01*
X195470733Y-63223858D01*
X195557858Y-63136733D01*
X195626311Y-63034286D01*
X195673463Y-62920452D01*
X195687024Y-62852277D01*
X195695447Y-62809933D01*
X195697499Y-62799612D01*
X195697500Y-62799607D01*
X195697500Y-54802394D01*
X195697499Y-54802388D01*
X195696726Y-54798503D01*
X195696722Y-54798487D01*
X195690033Y-54764857D01*
X195673463Y-54681549D01*
X195673460Y-54681542D01*
X195673459Y-54681538D01*
X195626314Y-54567718D01*
X195626312Y-54567715D01*
X195626312Y-54567714D01*
X195579466Y-54497606D01*
X195557858Y-54465267D01*
X195557855Y-54465264D01*
X195557853Y-54465261D01*
X195467637Y-54375045D01*
X195467606Y-54375016D01*
X193862198Y-52769608D01*
X193862178Y-52769586D01*
X193770733Y-52678141D01*
X193719509Y-52643915D01*
X193668286Y-52609688D01*
X193660630Y-52606517D01*
X193576472Y-52571658D01*
X193576469Y-52571656D01*
X193576468Y-52571656D01*
X193554455Y-52562538D01*
X193554453Y-52562537D01*
X193554452Y-52562537D01*
X193494029Y-52550518D01*
X193433610Y-52538500D01*
X193433607Y-52538500D01*
X193433606Y-52538500D01*
X185622781Y-52538500D01*
X185555742Y-52518815D01*
X185509987Y-52466011D01*
X185499492Y-52401243D01*
X185500500Y-52391873D01*
X185500499Y-51396128D01*
X185494091Y-51336517D01*
X185481073Y-51301616D01*
X185476090Y-51231926D01*
X185481075Y-51214949D01*
X185493597Y-51181375D01*
X185493598Y-51181372D01*
X185499999Y-51121844D01*
X185500000Y-51121827D01*
X185500000Y-50874000D01*
X183000000Y-50874000D01*
X183000000Y-51019500D01*
X182980315Y-51086539D01*
X182927511Y-51132294D01*
X182876000Y-51143500D01*
X182304229Y-51143500D01*
X182237190Y-51123815D01*
X182216548Y-51107181D01*
X181834421Y-50725052D01*
X181834414Y-50725046D01*
X181760729Y-50675812D01*
X181760729Y-50675813D01*
X181711491Y-50642913D01*
X181574917Y-50586343D01*
X181574907Y-50586340D01*
X181429920Y-50557500D01*
X181429918Y-50557500D01*
X171227337Y-50557500D01*
X171160298Y-50537815D01*
X171154452Y-50533818D01*
X171140734Y-50523851D01*
X171140729Y-50523848D01*
X170967807Y-50446857D01*
X170967802Y-50446855D01*
X170822001Y-50415865D01*
X170782646Y-50407500D01*
X170593354Y-50407500D01*
X170560897Y-50414398D01*
X170408197Y-50446855D01*
X170408192Y-50446857D01*
X170235270Y-50523848D01*
X170235265Y-50523851D01*
X170082129Y-50635111D01*
X169955466Y-50775785D01*
X169860821Y-50939715D01*
X169860818Y-50939722D01*
X169813115Y-51086539D01*
X169802326Y-51119744D01*
X169782540Y-51308000D01*
X169802326Y-51496256D01*
X169802327Y-51496259D01*
X169860818Y-51676277D01*
X169860821Y-51676284D01*
X169912907Y-51766500D01*
X169929380Y-51834401D01*
X169906527Y-51900427D01*
X169851606Y-51943618D01*
X169805520Y-51952500D01*
X141037741Y-51952500D01*
X141037721Y-51952499D01*
X141031607Y-51952499D01*
X140908394Y-51952499D01*
X140807597Y-51972548D01*
X140807592Y-51972548D01*
X140787549Y-51976536D01*
X140787547Y-51976536D01*
X140740397Y-51996067D01*
X140673719Y-52023685D01*
X140673717Y-52023686D01*
X140571266Y-52092141D01*
X140571263Y-52092144D01*
X137777269Y-54886140D01*
X137777266Y-54886143D01*
X137698279Y-54965128D01*
X137636956Y-54998613D01*
X137567264Y-54993627D01*
X137518448Y-54960417D01*
X137511869Y-54953110D01*
X137358734Y-54841851D01*
X137358729Y-54841848D01*
X137185807Y-54764857D01*
X137185802Y-54764855D01*
X137040001Y-54733865D01*
X137000646Y-54725500D01*
X136811354Y-54725500D01*
X136778897Y-54732398D01*
X136626197Y-54764855D01*
X136626192Y-54764857D01*
X136453270Y-54841848D01*
X136453265Y-54841851D01*
X136300130Y-54953110D01*
X136300126Y-54953114D01*
X136294400Y-54959474D01*
X136234913Y-54996121D01*
X136202252Y-55000500D01*
X132517389Y-55000500D01*
X132461241Y-55011669D01*
X132445591Y-55014782D01*
X132406302Y-55022596D01*
X132396547Y-55024537D01*
X132282716Y-55071687D01*
X132211473Y-55119290D01*
X132211472Y-55119292D01*
X132205788Y-55123090D01*
X132180260Y-55140147D01*
X130737616Y-56582791D01*
X130676293Y-56616276D01*
X130609676Y-56612393D01*
X130588132Y-56604997D01*
X130398424Y-56573340D01*
X130360427Y-56567000D01*
X130129573Y-56567000D01*
X130072646Y-56576499D01*
X129901864Y-56604998D01*
X129683525Y-56679954D01*
X129683514Y-56679959D01*
X129480492Y-56789828D01*
X129480481Y-56789835D01*
X129298319Y-56931618D01*
X129298315Y-56931621D01*
X129196230Y-57042516D01*
X129136343Y-57078507D01*
X129066504Y-57076406D01*
X129013770Y-57042516D01*
X128911687Y-56931624D01*
X128911686Y-56931623D01*
X128911684Y-56931621D01*
X128911680Y-56931618D01*
X128729518Y-56789835D01*
X128729507Y-56789828D01*
X128526485Y-56679959D01*
X128526482Y-56679957D01*
X128526479Y-56679956D01*
X128526476Y-56679955D01*
X128526474Y-56679954D01*
X128308135Y-56604998D01*
X128156329Y-56579666D01*
X128080427Y-56567000D01*
X127849573Y-56567000D01*
X127792646Y-56576499D01*
X127621864Y-56604998D01*
X127403525Y-56679954D01*
X127403514Y-56679959D01*
X127200492Y-56789828D01*
X127200481Y-56789835D01*
X127018319Y-56931618D01*
X127018315Y-56931621D01*
X126916230Y-57042516D01*
X126856343Y-57078507D01*
X126786504Y-57076406D01*
X126733770Y-57042516D01*
X126631687Y-56931624D01*
X126631686Y-56931623D01*
X126631684Y-56931621D01*
X126631680Y-56931618D01*
X126449518Y-56789835D01*
X126449507Y-56789828D01*
X126246485Y-56679959D01*
X126246482Y-56679957D01*
X126246479Y-56679956D01*
X126246476Y-56679955D01*
X126246474Y-56679954D01*
X126028135Y-56604998D01*
X125876329Y-56579666D01*
X125800427Y-56567000D01*
X125569573Y-56567000D01*
X125512646Y-56576499D01*
X125341864Y-56604998D01*
X125123525Y-56679954D01*
X125123514Y-56679959D01*
X124920492Y-56789828D01*
X124920481Y-56789835D01*
X124738319Y-56931618D01*
X124738316Y-56931621D01*
X124581961Y-57101467D01*
X124581958Y-57101471D01*
X124455694Y-57294731D01*
X124362960Y-57506145D01*
X124306289Y-57729937D01*
X124287226Y-57959994D01*
X124287226Y-57960005D01*
X124306289Y-58190062D01*
X124362960Y-58413854D01*
X124455694Y-58625268D01*
X124562993Y-58789500D01*
X124581960Y-58818531D01*
X124606674Y-58845378D01*
X124656513Y-58899517D01*
X124687435Y-58962172D01*
X124679575Y-59031598D01*
X124635428Y-59085753D01*
X124569010Y-59107444D01*
X124565283Y-59107500D01*
X124429615Y-59107500D01*
X124201987Y-59145484D01*
X123983729Y-59220413D01*
X123983721Y-59220416D01*
X123780760Y-59330254D01*
X123751545Y-59352991D01*
X123751545Y-59352992D01*
X124338022Y-59939469D01*
X124315339Y-59945548D01*
X124179662Y-60023882D01*
X124068882Y-60134662D01*
X123990548Y-60270339D01*
X123984469Y-60293022D01*
X123399231Y-59707784D01*
X123316135Y-59834972D01*
X123223435Y-60046308D01*
X123166784Y-60270020D01*
X123147728Y-60499994D01*
X123147728Y-60500005D01*
X120103249Y-60500005D01*
X120103249Y-60500000D01*
X120084268Y-60186213D01*
X120027603Y-59877002D01*
X119982426Y-59732023D01*
X119934086Y-59576893D01*
X119934084Y-59576888D01*
X119934080Y-59576875D01*
X119805063Y-59290210D01*
X119642432Y-59021186D01*
X119639655Y-59017642D01*
X119448557Y-58773723D01*
X119226276Y-58551442D01*
X118978821Y-58357573D01*
X118978816Y-58357570D01*
X118978814Y-58357568D01*
X118709790Y-58194937D01*
X118423125Y-58065920D01*
X118423118Y-58065917D01*
X118423106Y-58065913D01*
X118123006Y-57972399D01*
X118123002Y-57972398D01*
X118122998Y-57972397D01*
X117813787Y-57915732D01*
X117813786Y-57915731D01*
X117813781Y-57915731D01*
X117500000Y-57896751D01*
X117186218Y-57915731D01*
X117186213Y-57915732D01*
X116877002Y-57972397D01*
X116876999Y-57972397D01*
X116876993Y-57972399D01*
X116576893Y-58065913D01*
X116576877Y-58065919D01*
X116576875Y-58065920D01*
X116514484Y-58094000D01*
X116290214Y-58194935D01*
X116290212Y-58194936D01*
X116021187Y-58357567D01*
X116021178Y-58357573D01*
X115773723Y-58551442D01*
X115551442Y-58773723D01*
X115357573Y-59021178D01*
X115357567Y-59021187D01*
X115305423Y-59107444D01*
X115196273Y-59288001D01*
X115194936Y-59290212D01*
X115194935Y-59290214D01*
X115171094Y-59343187D01*
X115073073Y-59560983D01*
X115065919Y-59576878D01*
X115065913Y-59576893D01*
X114972399Y-59876993D01*
X114972397Y-59876999D01*
X114972397Y-59877002D01*
X114932321Y-60095688D01*
X114915731Y-60186218D01*
X114896751Y-60500000D01*
X104426000Y-60500000D01*
X104426000Y-55000002D01*
X106644579Y-55000002D01*
X106664248Y-55362782D01*
X106664250Y-55362799D01*
X106723024Y-55721303D01*
X106723030Y-55721329D01*
X106820221Y-56071381D01*
X106820225Y-56071391D01*
X106954700Y-56408901D01*
X106954706Y-56408913D01*
X107124878Y-56729892D01*
X107124881Y-56729897D01*
X107124883Y-56729900D01*
X107165517Y-56789830D01*
X107328772Y-57030613D01*
X107544190Y-57284223D01*
X107563979Y-57307521D01*
X107790768Y-57522347D01*
X107827745Y-57557374D01*
X107827755Y-57557382D01*
X107851540Y-57575463D01*
X108116981Y-57777245D01*
X108428292Y-57964555D01*
X108428294Y-57964556D01*
X108428296Y-57964557D01*
X108428300Y-57964559D01*
X108749437Y-58113132D01*
X108758031Y-58117108D01*
X109102330Y-58233116D01*
X109457153Y-58311218D01*
X109818341Y-58350500D01*
X109818347Y-58350500D01*
X110181653Y-58350500D01*
X110181659Y-58350500D01*
X110542847Y-58311218D01*
X110897670Y-58233116D01*
X111241969Y-58117108D01*
X111571708Y-57964555D01*
X111883019Y-57777245D01*
X112172254Y-57557375D01*
X112436021Y-57307521D01*
X112671227Y-57030614D01*
X112875117Y-56729900D01*
X113045298Y-56408905D01*
X113179775Y-56071391D01*
X113184259Y-56055243D01*
X113215153Y-55943969D01*
X113276973Y-55721316D01*
X113316318Y-55481323D01*
X113335749Y-55362799D01*
X113335751Y-55362782D01*
X113341159Y-55263051D01*
X113349330Y-55112334D01*
X113355421Y-55000002D01*
X113355421Y-54999997D01*
X113338155Y-54681549D01*
X113335751Y-54637215D01*
X113312863Y-54497606D01*
X113276975Y-54278696D01*
X113276974Y-54278695D01*
X113276973Y-54278684D01*
X113195293Y-53984500D01*
X113179778Y-53928618D01*
X113179773Y-53928603D01*
X113078004Y-53673181D01*
X113045298Y-53591095D01*
X112875117Y-53270100D01*
X112671227Y-52969386D01*
X112436021Y-52692479D01*
X112172254Y-52442625D01*
X112172244Y-52442617D01*
X112103635Y-52390462D01*
X111883019Y-52222755D01*
X111571708Y-52035445D01*
X111571707Y-52035444D01*
X111571703Y-52035442D01*
X111571699Y-52035440D01*
X111241979Y-51882896D01*
X111241974Y-51882894D01*
X111241969Y-51882892D01*
X111074143Y-51826344D01*
X110897669Y-51766883D01*
X110542845Y-51688781D01*
X110181660Y-51649500D01*
X110181659Y-51649500D01*
X109818341Y-51649500D01*
X109818339Y-51649500D01*
X109457154Y-51688781D01*
X109102330Y-51766883D01*
X108836178Y-51856560D01*
X108758031Y-51882892D01*
X108758028Y-51882893D01*
X108758020Y-51882896D01*
X108428300Y-52035440D01*
X108428296Y-52035442D01*
X108196453Y-52174937D01*
X108116981Y-52222755D01*
X108054593Y-52270181D01*
X107827755Y-52442617D01*
X107827745Y-52442625D01*
X107563978Y-52692479D01*
X107328772Y-52969386D01*
X107124884Y-53270098D01*
X107124878Y-53270107D01*
X106954706Y-53591086D01*
X106954700Y-53591098D01*
X106820226Y-53928603D01*
X106820221Y-53928618D01*
X106723030Y-54278670D01*
X106723024Y-54278696D01*
X106664250Y-54637200D01*
X106664248Y-54637217D01*
X106644579Y-54999997D01*
X106644579Y-55000002D01*
X104426000Y-55000002D01*
X104426000Y-49654000D01*
X104445685Y-49586961D01*
X104498489Y-49541206D01*
X104550000Y-49530000D01*
X183153384Y-49530000D01*
X183220423Y-49549685D01*
G37*
%TD.AperFunction*%
%TD*%
M02*
