%TF.GenerationSoftware,KiCad,Pcbnew,8.0.1*%
%TF.CreationDate,2024-03-28T11:36:42+01:00*%
%TF.ProjectId,pc1715-esp32vga,70633137-3135-42d6-9573-703332766761,rev?*%
%TF.SameCoordinates,Original*%
%TF.FileFunction,Soldermask,Bot*%
%TF.FilePolarity,Negative*%
%FSLAX46Y46*%
G04 Gerber Fmt 4.6, Leading zero omitted, Abs format (unit mm)*
G04 Created by KiCad (PCBNEW 8.0.1) date 2024-03-28 11:36:42*
%MOMM*%
%LPD*%
G01*
G04 APERTURE LIST*
G04 Aperture macros list*
%AMRoundRect*
0 Rectangle with rounded corners*
0 $1 Rounding radius*
0 $2 $3 $4 $5 $6 $7 $8 $9 X,Y pos of 4 corners*
0 Add a 4 corners polygon primitive as box body*
4,1,4,$2,$3,$4,$5,$6,$7,$8,$9,$2,$3,0*
0 Add four circle primitives for the rounded corners*
1,1,$1+$1,$2,$3*
1,1,$1+$1,$4,$5*
1,1,$1+$1,$6,$7*
1,1,$1+$1,$8,$9*
0 Add four rect primitives between the rounded corners*
20,1,$1+$1,$2,$3,$4,$5,0*
20,1,$1+$1,$4,$5,$6,$7,0*
20,1,$1+$1,$6,$7,$8,$9,0*
20,1,$1+$1,$8,$9,$2,$3,0*%
G04 Aperture macros list end*
%ADD10R,2.200000X2.200000*%
%ADD11O,2.200000X2.200000*%
%ADD12C,5.700000*%
%ADD13RoundRect,0.250000X0.600000X-0.600000X0.600000X0.600000X-0.600000X0.600000X-0.600000X-0.600000X0*%
%ADD14C,1.700000*%
%ADD15R,1.600000X1.600000*%
%ADD16C,1.600000*%
%ADD17C,4.000000*%
%ADD18RoundRect,0.102000X0.892500X0.892500X-0.892500X0.892500X-0.892500X-0.892500X0.892500X-0.892500X0*%
%ADD19C,1.989000*%
%ADD20C,4.400000*%
%ADD21R,1.700000X1.700000*%
%ADD22O,1.700000X1.700000*%
%ADD23RoundRect,0.250000X0.350000X0.450000X-0.350000X0.450000X-0.350000X-0.450000X0.350000X-0.450000X0*%
%ADD24RoundRect,0.375000X0.375000X-0.625000X0.375000X0.625000X-0.375000X0.625000X-0.375000X-0.625000X0*%
%ADD25RoundRect,0.500000X1.400000X-0.500000X1.400000X0.500000X-1.400000X0.500000X-1.400000X-0.500000X0*%
G04 APERTURE END LIST*
D10*
%TO.C,D1002*%
X160528000Y-69596000D03*
D11*
X152908000Y-69596000D03*
%TD*%
D12*
%TO.C,H1003*%
X210000000Y-55000000D03*
%TD*%
D13*
%TO.C,J1001*%
X151672500Y-81000000D03*
D14*
X151672500Y-78460000D03*
X154212500Y-81000000D03*
X154212500Y-78460000D03*
X156752500Y-81000000D03*
X156752500Y-78460000D03*
X159292500Y-81000000D03*
X159292500Y-78460000D03*
X161832500Y-81000000D03*
X161832500Y-78460000D03*
%TD*%
D12*
%TO.C,H1001*%
X110000000Y-55000000D03*
%TD*%
D15*
%TO.C,J1003*%
X155214000Y-64445500D03*
D16*
X157714000Y-64445500D03*
X157714000Y-62445500D03*
X155214000Y-62445500D03*
D17*
X150464000Y-59585500D03*
X162464000Y-59585500D03*
%TD*%
D12*
%TO.C,H1002*%
X110000000Y-80000000D03*
%TD*%
%TO.C,H1004*%
X210000000Y-80000000D03*
%TD*%
D13*
%TO.C,J1005*%
X120380000Y-81040000D03*
D14*
X120380000Y-78500000D03*
X122920000Y-81040000D03*
X122920000Y-78500000D03*
X125460000Y-81040000D03*
X125460000Y-78500000D03*
X128000000Y-81040000D03*
X128000000Y-78500000D03*
X130540000Y-81040000D03*
X130540000Y-78500000D03*
X133080000Y-81040000D03*
X133080000Y-78500000D03*
X135620000Y-81040000D03*
X135620000Y-78500000D03*
X138160000Y-81040000D03*
X138160000Y-78500000D03*
%TD*%
D18*
%TO.C,J1002*%
X125685000Y-63040000D03*
D19*
X127965000Y-63040000D03*
X130245000Y-63040000D03*
X132525000Y-63040000D03*
X134805000Y-63040000D03*
X124545000Y-60500000D03*
X126825000Y-60500000D03*
X129105000Y-60500000D03*
X131385000Y-60500000D03*
X133665000Y-60500000D03*
X125685000Y-57960000D03*
X127965000Y-57960000D03*
X130245000Y-57960000D03*
X132525000Y-57960000D03*
X134805000Y-57960000D03*
D20*
X142500000Y-60500000D03*
X117500000Y-60500000D03*
%TD*%
D10*
%TO.C,D1001*%
X160528000Y-72898000D03*
D11*
X152908000Y-72898000D03*
%TD*%
D21*
%TO.C,J1004*%
X209500000Y-72075000D03*
D22*
X209500000Y-69535000D03*
X209500000Y-66995000D03*
X209500000Y-64455000D03*
X209500000Y-61915000D03*
%TD*%
D21*
%TO.C,JP1001*%
X202750000Y-74025000D03*
D22*
X200210000Y-74025000D03*
%TD*%
D23*
%TO.C,R1007*%
X180086000Y-58110000D03*
X178086000Y-58110000D03*
%TD*%
%TO.C,R1005*%
X180086000Y-54610000D03*
X178086000Y-54610000D03*
%TD*%
D24*
%TO.C,U1002*%
X172950500Y-60591500D03*
X170650500Y-60591500D03*
D25*
X170650500Y-54291500D03*
D24*
X168350500Y-60591500D03*
%TD*%
D23*
%TO.C,R1009*%
X180086000Y-61610000D03*
X178086000Y-61610000D03*
%TD*%
M02*
