M48
; DRILL file {KiCad 8.0.1} date 2024-03-28T11:36:44+0100
; FORMAT={-:-/ absolute / inch / decimal}
; #@! TF.CreationDate,2024-03-28T11:36:44+01:00
; #@! TF.GenerationSoftware,Kicad,Pcbnew,8.0.1
; #@! TF.FileFunction,Plated,1,2,PTH
FMAT,2
INCH
; #@! TA.AperFunction,Plated,PTH,ViaDrill
T1C0.0157
; #@! TA.AperFunction,Plated,PTH,ComponentDrill
T2C0.0374
; #@! TA.AperFunction,Plated,PTH,ComponentDrill
T3C0.0394
; #@! TA.AperFunction,Plated,PTH,ComponentDrill
T4C0.0433
; #@! TA.AperFunction,Plated,PTH,ComponentDrill
T5C0.0469
; #@! TA.AperFunction,Plated,PTH,ComponentDrill
T6C0.0906
; #@! TA.AperFunction,Plated,PTH,ComponentDrill
T7C0.1252
; #@! TA.AperFunction,Plated,PTH,ComponentDrill
T8C0.1260
%
G90
G05
T1
X4.44Y-2.42
X4.44Y-2.73
X4.61Y-3.17
X4.74Y-2.09
X4.9482Y-2.65
X5.038Y-2.62
X5.1278Y-2.59
X5.39Y-2.19
X5.5602Y-2.1502
X5.57Y-2.19
X5.69Y-3.17
X5.78Y-2.67
X6.16Y-2.28
X6.48Y-3.19
X6.61Y-3.29
X6.62Y-2.46
X6.64Y-2.79
X6.72Y-2.02
X6.73Y-2.46
X6.74Y-2.3
X6.76Y-2.32
X6.86Y-2.48
X6.8898Y-3.0512
X6.8898Y-3.1496
X6.8898Y-3.248
X6.95Y-2.15
X6.95Y-2.29
X6.95Y-2.42
X7.18Y-2.19
X7.18Y-2.29
X7.18Y-2.35
X7.19Y-2.79
X7.19Y-2.96
X7.3228Y-1.9882
X7.41Y-3.09
X7.42Y-2.54
X7.48Y-2.99
X7.48Y-3.3
X7.55Y-2.6
X7.57Y-2.16
X7.6181Y-2.5984
X7.6772Y-2.5984
X7.6772Y-3.0709
X7.69Y-3.13
X7.7057Y-2.8937
X7.72Y-2.09
X7.7234Y-2.6112
X7.73Y-3.3
X7.7559Y-2.9331
X7.7756Y-2.6181
X7.7953Y-2.8937
X7.815Y-2.6378
X7.874Y-1.9882
X7.89Y-2.8
X8.18Y-2.58
T2
X6.1108Y-2.4585
X6.1108Y-2.5372
X6.2092Y-2.4585
X6.2092Y-2.5372
T3
X4.7394Y-3.0906
X4.7394Y-3.1906
X4.8394Y-3.0906
X4.8394Y-3.1906
X4.9394Y-3.0906
X4.9394Y-3.1906
X5.0394Y-3.0906
X5.0394Y-3.1906
X5.1394Y-3.0906
X5.1394Y-3.1906
X5.2394Y-3.0906
X5.2394Y-3.1906
X5.3394Y-3.0906
X5.3394Y-3.1906
X5.4394Y-3.0906
X5.4394Y-3.1906
X5.9714Y-3.089
X5.9714Y-3.189
X6.0714Y-3.089
X6.0714Y-3.189
X6.1714Y-3.089
X6.1714Y-3.189
X6.2714Y-3.089
X6.2714Y-3.189
X6.3714Y-3.089
X6.3714Y-3.189
X7.8823Y-2.9144
X7.9823Y-2.9144
X8.248Y-2.4376
X8.248Y-2.5376
X8.248Y-2.6376
X8.248Y-2.7376
X8.248Y-2.8376
T4
X6.02Y-2.74
X6.02Y-2.87
X6.32Y-2.74
X6.32Y-2.87
T5
X4.9033Y-2.3819
X4.9482Y-2.2819
X4.9482Y-2.4819
X4.9931Y-2.3819
X5.038Y-2.2819
X5.038Y-2.4819
X5.0829Y-2.3819
X5.1278Y-2.2819
X5.1278Y-2.4819
X5.1726Y-2.3819
X5.2175Y-2.2819
X5.2175Y-2.4819
X5.2624Y-2.3819
X5.3073Y-2.2819
X5.3073Y-2.4819
T6
X5.9238Y-2.3459
X6.3962Y-2.3459
T7
X4.626Y-2.3819
X5.6102Y-2.3819
T8
X4.3307Y-2.1654
X4.3307Y-3.1496
X8.2677Y-2.1654
X8.2677Y-3.1496
M30
