%TF.GenerationSoftware,KiCad,Pcbnew,8.0.1*%
%TF.CreationDate,2024-03-28T11:36:42+01:00*%
%TF.ProjectId,pc1715-esp32vga,70633137-3135-42d6-9573-703332766761,rev?*%
%TF.SameCoordinates,Original*%
%TF.FileFunction,Legend,Bot*%
%TF.FilePolarity,Positive*%
%FSLAX46Y46*%
G04 Gerber Fmt 4.6, Leading zero omitted, Abs format (unit mm)*
G04 Created by KiCad (PCBNEW 8.0.1) date 2024-03-28 11:36:42*
%MOMM*%
%LPD*%
G01*
G04 APERTURE LIST*
%ADD10C,0.250000*%
%ADD11C,0.150000*%
%ADD12C,0.120000*%
G04 APERTURE END LIST*
D10*
X161443146Y-76542023D02*
X162157431Y-76542023D01*
X161800288Y-76542023D02*
X161800288Y-75292023D01*
X161800288Y-75292023D02*
X161919336Y-75470595D01*
X161919336Y-75470595D02*
X162038384Y-75589642D01*
X162038384Y-75589642D02*
X162157431Y-75649166D01*
X160669336Y-75292023D02*
X160550289Y-75292023D01*
X160550289Y-75292023D02*
X160431241Y-75351547D01*
X160431241Y-75351547D02*
X160371717Y-75411071D01*
X160371717Y-75411071D02*
X160312193Y-75530119D01*
X160312193Y-75530119D02*
X160252670Y-75768214D01*
X160252670Y-75768214D02*
X160252670Y-76065833D01*
X160252670Y-76065833D02*
X160312193Y-76303928D01*
X160312193Y-76303928D02*
X160371717Y-76422976D01*
X160371717Y-76422976D02*
X160431241Y-76482500D01*
X160431241Y-76482500D02*
X160550289Y-76542023D01*
X160550289Y-76542023D02*
X160669336Y-76542023D01*
X160669336Y-76542023D02*
X160788384Y-76482500D01*
X160788384Y-76482500D02*
X160847908Y-76422976D01*
X160847908Y-76422976D02*
X160907431Y-76303928D01*
X160907431Y-76303928D02*
X160966955Y-76065833D01*
X160966955Y-76065833D02*
X160966955Y-75768214D01*
X160966955Y-75768214D02*
X160907431Y-75530119D01*
X160907431Y-75530119D02*
X160847908Y-75411071D01*
X160847908Y-75411071D02*
X160788384Y-75351547D01*
X160788384Y-75351547D02*
X160669336Y-75292023D01*
X158586003Y-75827738D02*
X158705051Y-75768214D01*
X158705051Y-75768214D02*
X158764574Y-75708690D01*
X158764574Y-75708690D02*
X158824098Y-75589642D01*
X158824098Y-75589642D02*
X158824098Y-75530119D01*
X158824098Y-75530119D02*
X158764574Y-75411071D01*
X158764574Y-75411071D02*
X158705051Y-75351547D01*
X158705051Y-75351547D02*
X158586003Y-75292023D01*
X158586003Y-75292023D02*
X158347908Y-75292023D01*
X158347908Y-75292023D02*
X158228860Y-75351547D01*
X158228860Y-75351547D02*
X158169336Y-75411071D01*
X158169336Y-75411071D02*
X158109813Y-75530119D01*
X158109813Y-75530119D02*
X158109813Y-75589642D01*
X158109813Y-75589642D02*
X158169336Y-75708690D01*
X158169336Y-75708690D02*
X158228860Y-75768214D01*
X158228860Y-75768214D02*
X158347908Y-75827738D01*
X158347908Y-75827738D02*
X158586003Y-75827738D01*
X158586003Y-75827738D02*
X158705051Y-75887261D01*
X158705051Y-75887261D02*
X158764574Y-75946785D01*
X158764574Y-75946785D02*
X158824098Y-76065833D01*
X158824098Y-76065833D02*
X158824098Y-76303928D01*
X158824098Y-76303928D02*
X158764574Y-76422976D01*
X158764574Y-76422976D02*
X158705051Y-76482500D01*
X158705051Y-76482500D02*
X158586003Y-76542023D01*
X158586003Y-76542023D02*
X158347908Y-76542023D01*
X158347908Y-76542023D02*
X158228860Y-76482500D01*
X158228860Y-76482500D02*
X158169336Y-76422976D01*
X158169336Y-76422976D02*
X158109813Y-76303928D01*
X158109813Y-76303928D02*
X158109813Y-76065833D01*
X158109813Y-76065833D02*
X158169336Y-75946785D01*
X158169336Y-75946785D02*
X158228860Y-75887261D01*
X158228860Y-75887261D02*
X158347908Y-75827738D01*
X156086003Y-75292023D02*
X156324098Y-75292023D01*
X156324098Y-75292023D02*
X156443146Y-75351547D01*
X156443146Y-75351547D02*
X156502670Y-75411071D01*
X156502670Y-75411071D02*
X156621717Y-75589642D01*
X156621717Y-75589642D02*
X156681241Y-75827738D01*
X156681241Y-75827738D02*
X156681241Y-76303928D01*
X156681241Y-76303928D02*
X156621717Y-76422976D01*
X156621717Y-76422976D02*
X156562194Y-76482500D01*
X156562194Y-76482500D02*
X156443146Y-76542023D01*
X156443146Y-76542023D02*
X156205051Y-76542023D01*
X156205051Y-76542023D02*
X156086003Y-76482500D01*
X156086003Y-76482500D02*
X156026479Y-76422976D01*
X156026479Y-76422976D02*
X155966956Y-76303928D01*
X155966956Y-76303928D02*
X155966956Y-76006309D01*
X155966956Y-76006309D02*
X156026479Y-75887261D01*
X156026479Y-75887261D02*
X156086003Y-75827738D01*
X156086003Y-75827738D02*
X156205051Y-75768214D01*
X156205051Y-75768214D02*
X156443146Y-75768214D01*
X156443146Y-75768214D02*
X156562194Y-75827738D01*
X156562194Y-75827738D02*
X156621717Y-75887261D01*
X156621717Y-75887261D02*
X156681241Y-76006309D01*
X153943146Y-75708690D02*
X153943146Y-76542023D01*
X154240765Y-75232500D02*
X154538384Y-76125357D01*
X154538384Y-76125357D02*
X153764575Y-76125357D01*
X152395527Y-75411071D02*
X152336003Y-75351547D01*
X152336003Y-75351547D02*
X152216956Y-75292023D01*
X152216956Y-75292023D02*
X151919337Y-75292023D01*
X151919337Y-75292023D02*
X151800289Y-75351547D01*
X151800289Y-75351547D02*
X151740765Y-75411071D01*
X151740765Y-75411071D02*
X151681242Y-75530119D01*
X151681242Y-75530119D02*
X151681242Y-75649166D01*
X151681242Y-75649166D02*
X151740765Y-75827738D01*
X151740765Y-75827738D02*
X152455051Y-76542023D01*
X152455051Y-76542023D02*
X151681242Y-76542023D01*
X162038384Y-84416023D02*
X161800288Y-84416023D01*
X161800288Y-84416023D02*
X161681241Y-84356500D01*
X161681241Y-84356500D02*
X161621717Y-84296976D01*
X161621717Y-84296976D02*
X161502669Y-84118404D01*
X161502669Y-84118404D02*
X161443146Y-83880309D01*
X161443146Y-83880309D02*
X161443146Y-83404119D01*
X161443146Y-83404119D02*
X161502669Y-83285071D01*
X161502669Y-83285071D02*
X161562193Y-83225547D01*
X161562193Y-83225547D02*
X161681241Y-83166023D01*
X161681241Y-83166023D02*
X161919336Y-83166023D01*
X161919336Y-83166023D02*
X162038384Y-83225547D01*
X162038384Y-83225547D02*
X162097907Y-83285071D01*
X162097907Y-83285071D02*
X162157431Y-83404119D01*
X162157431Y-83404119D02*
X162157431Y-83701738D01*
X162157431Y-83701738D02*
X162097907Y-83820785D01*
X162097907Y-83820785D02*
X162038384Y-83880309D01*
X162038384Y-83880309D02*
X161919336Y-83939833D01*
X161919336Y-83939833D02*
X161681241Y-83939833D01*
X161681241Y-83939833D02*
X161562193Y-83880309D01*
X161562193Y-83880309D02*
X161502669Y-83820785D01*
X161502669Y-83820785D02*
X161443146Y-83701738D01*
X160074098Y-83166023D02*
X159240765Y-83166023D01*
X159240765Y-83166023D02*
X159776479Y-84416023D01*
X156264574Y-83166023D02*
X156859812Y-83166023D01*
X156859812Y-83166023D02*
X156919336Y-83761261D01*
X156919336Y-83761261D02*
X156859812Y-83701738D01*
X156859812Y-83701738D02*
X156740765Y-83642214D01*
X156740765Y-83642214D02*
X156443146Y-83642214D01*
X156443146Y-83642214D02*
X156324098Y-83701738D01*
X156324098Y-83701738D02*
X156264574Y-83761261D01*
X156264574Y-83761261D02*
X156205051Y-83880309D01*
X156205051Y-83880309D02*
X156205051Y-84177928D01*
X156205051Y-84177928D02*
X156264574Y-84296976D01*
X156264574Y-84296976D02*
X156324098Y-84356500D01*
X156324098Y-84356500D02*
X156443146Y-84416023D01*
X156443146Y-84416023D02*
X156740765Y-84416023D01*
X156740765Y-84416023D02*
X156859812Y-84356500D01*
X156859812Y-84356500D02*
X156919336Y-84296976D01*
X153883622Y-83166023D02*
X153109813Y-83166023D01*
X153109813Y-83166023D02*
X153526479Y-83642214D01*
X153526479Y-83642214D02*
X153347908Y-83642214D01*
X153347908Y-83642214D02*
X153228860Y-83701738D01*
X153228860Y-83701738D02*
X153169336Y-83761261D01*
X153169336Y-83761261D02*
X153109813Y-83880309D01*
X153109813Y-83880309D02*
X153109813Y-84177928D01*
X153109813Y-84177928D02*
X153169336Y-84296976D01*
X153169336Y-84296976D02*
X153228860Y-84356500D01*
X153228860Y-84356500D02*
X153347908Y-84416023D01*
X153347908Y-84416023D02*
X153705051Y-84416023D01*
X153705051Y-84416023D02*
X153824098Y-84356500D01*
X153824098Y-84356500D02*
X153883622Y-84296976D01*
X150966956Y-84416023D02*
X151681241Y-84416023D01*
X151324098Y-84416023D02*
X151324098Y-83166023D01*
X151324098Y-83166023D02*
X151443146Y-83344595D01*
X151443146Y-83344595D02*
X151562194Y-83463642D01*
X151562194Y-83463642D02*
X151681241Y-83523166D01*
D11*
X180681238Y-56914819D02*
X181014571Y-56438628D01*
X181252666Y-56914819D02*
X181252666Y-55914819D01*
X181252666Y-55914819D02*
X180871714Y-55914819D01*
X180871714Y-55914819D02*
X180776476Y-55962438D01*
X180776476Y-55962438D02*
X180728857Y-56010057D01*
X180728857Y-56010057D02*
X180681238Y-56105295D01*
X180681238Y-56105295D02*
X180681238Y-56248152D01*
X180681238Y-56248152D02*
X180728857Y-56343390D01*
X180728857Y-56343390D02*
X180776476Y-56391009D01*
X180776476Y-56391009D02*
X180871714Y-56438628D01*
X180871714Y-56438628D02*
X181252666Y-56438628D01*
X179728857Y-56914819D02*
X180300285Y-56914819D01*
X180014571Y-56914819D02*
X180014571Y-55914819D01*
X180014571Y-55914819D02*
X180109809Y-56057676D01*
X180109809Y-56057676D02*
X180205047Y-56152914D01*
X180205047Y-56152914D02*
X180300285Y-56200533D01*
X179109809Y-55914819D02*
X179014571Y-55914819D01*
X179014571Y-55914819D02*
X178919333Y-55962438D01*
X178919333Y-55962438D02*
X178871714Y-56010057D01*
X178871714Y-56010057D02*
X178824095Y-56105295D01*
X178824095Y-56105295D02*
X178776476Y-56295771D01*
X178776476Y-56295771D02*
X178776476Y-56533866D01*
X178776476Y-56533866D02*
X178824095Y-56724342D01*
X178824095Y-56724342D02*
X178871714Y-56819580D01*
X178871714Y-56819580D02*
X178919333Y-56867200D01*
X178919333Y-56867200D02*
X179014571Y-56914819D01*
X179014571Y-56914819D02*
X179109809Y-56914819D01*
X179109809Y-56914819D02*
X179205047Y-56867200D01*
X179205047Y-56867200D02*
X179252666Y-56819580D01*
X179252666Y-56819580D02*
X179300285Y-56724342D01*
X179300285Y-56724342D02*
X179347904Y-56533866D01*
X179347904Y-56533866D02*
X179347904Y-56295771D01*
X179347904Y-56295771D02*
X179300285Y-56105295D01*
X179300285Y-56105295D02*
X179252666Y-56010057D01*
X179252666Y-56010057D02*
X179205047Y-55962438D01*
X179205047Y-55962438D02*
X179109809Y-55914819D01*
X178157428Y-55914819D02*
X178062190Y-55914819D01*
X178062190Y-55914819D02*
X177966952Y-55962438D01*
X177966952Y-55962438D02*
X177919333Y-56010057D01*
X177919333Y-56010057D02*
X177871714Y-56105295D01*
X177871714Y-56105295D02*
X177824095Y-56295771D01*
X177824095Y-56295771D02*
X177824095Y-56533866D01*
X177824095Y-56533866D02*
X177871714Y-56724342D01*
X177871714Y-56724342D02*
X177919333Y-56819580D01*
X177919333Y-56819580D02*
X177966952Y-56867200D01*
X177966952Y-56867200D02*
X178062190Y-56914819D01*
X178062190Y-56914819D02*
X178157428Y-56914819D01*
X178157428Y-56914819D02*
X178252666Y-56867200D01*
X178252666Y-56867200D02*
X178300285Y-56819580D01*
X178300285Y-56819580D02*
X178347904Y-56724342D01*
X178347904Y-56724342D02*
X178395523Y-56533866D01*
X178395523Y-56533866D02*
X178395523Y-56295771D01*
X178395523Y-56295771D02*
X178347904Y-56105295D01*
X178347904Y-56105295D02*
X178300285Y-56010057D01*
X178300285Y-56010057D02*
X178252666Y-55962438D01*
X178252666Y-55962438D02*
X178157428Y-55914819D01*
X177490761Y-55914819D02*
X176824095Y-55914819D01*
X176824095Y-55914819D02*
X177252666Y-56914819D01*
X180681238Y-53414819D02*
X181014571Y-52938628D01*
X181252666Y-53414819D02*
X181252666Y-52414819D01*
X181252666Y-52414819D02*
X180871714Y-52414819D01*
X180871714Y-52414819D02*
X180776476Y-52462438D01*
X180776476Y-52462438D02*
X180728857Y-52510057D01*
X180728857Y-52510057D02*
X180681238Y-52605295D01*
X180681238Y-52605295D02*
X180681238Y-52748152D01*
X180681238Y-52748152D02*
X180728857Y-52843390D01*
X180728857Y-52843390D02*
X180776476Y-52891009D01*
X180776476Y-52891009D02*
X180871714Y-52938628D01*
X180871714Y-52938628D02*
X181252666Y-52938628D01*
X179728857Y-53414819D02*
X180300285Y-53414819D01*
X180014571Y-53414819D02*
X180014571Y-52414819D01*
X180014571Y-52414819D02*
X180109809Y-52557676D01*
X180109809Y-52557676D02*
X180205047Y-52652914D01*
X180205047Y-52652914D02*
X180300285Y-52700533D01*
X179109809Y-52414819D02*
X179014571Y-52414819D01*
X179014571Y-52414819D02*
X178919333Y-52462438D01*
X178919333Y-52462438D02*
X178871714Y-52510057D01*
X178871714Y-52510057D02*
X178824095Y-52605295D01*
X178824095Y-52605295D02*
X178776476Y-52795771D01*
X178776476Y-52795771D02*
X178776476Y-53033866D01*
X178776476Y-53033866D02*
X178824095Y-53224342D01*
X178824095Y-53224342D02*
X178871714Y-53319580D01*
X178871714Y-53319580D02*
X178919333Y-53367200D01*
X178919333Y-53367200D02*
X179014571Y-53414819D01*
X179014571Y-53414819D02*
X179109809Y-53414819D01*
X179109809Y-53414819D02*
X179205047Y-53367200D01*
X179205047Y-53367200D02*
X179252666Y-53319580D01*
X179252666Y-53319580D02*
X179300285Y-53224342D01*
X179300285Y-53224342D02*
X179347904Y-53033866D01*
X179347904Y-53033866D02*
X179347904Y-52795771D01*
X179347904Y-52795771D02*
X179300285Y-52605295D01*
X179300285Y-52605295D02*
X179252666Y-52510057D01*
X179252666Y-52510057D02*
X179205047Y-52462438D01*
X179205047Y-52462438D02*
X179109809Y-52414819D01*
X178157428Y-52414819D02*
X178062190Y-52414819D01*
X178062190Y-52414819D02*
X177966952Y-52462438D01*
X177966952Y-52462438D02*
X177919333Y-52510057D01*
X177919333Y-52510057D02*
X177871714Y-52605295D01*
X177871714Y-52605295D02*
X177824095Y-52795771D01*
X177824095Y-52795771D02*
X177824095Y-53033866D01*
X177824095Y-53033866D02*
X177871714Y-53224342D01*
X177871714Y-53224342D02*
X177919333Y-53319580D01*
X177919333Y-53319580D02*
X177966952Y-53367200D01*
X177966952Y-53367200D02*
X178062190Y-53414819D01*
X178062190Y-53414819D02*
X178157428Y-53414819D01*
X178157428Y-53414819D02*
X178252666Y-53367200D01*
X178252666Y-53367200D02*
X178300285Y-53319580D01*
X178300285Y-53319580D02*
X178347904Y-53224342D01*
X178347904Y-53224342D02*
X178395523Y-53033866D01*
X178395523Y-53033866D02*
X178395523Y-52795771D01*
X178395523Y-52795771D02*
X178347904Y-52605295D01*
X178347904Y-52605295D02*
X178300285Y-52510057D01*
X178300285Y-52510057D02*
X178252666Y-52462438D01*
X178252666Y-52462438D02*
X178157428Y-52414819D01*
X176919333Y-52414819D02*
X177395523Y-52414819D01*
X177395523Y-52414819D02*
X177443142Y-52891009D01*
X177443142Y-52891009D02*
X177395523Y-52843390D01*
X177395523Y-52843390D02*
X177300285Y-52795771D01*
X177300285Y-52795771D02*
X177062190Y-52795771D01*
X177062190Y-52795771D02*
X176966952Y-52843390D01*
X176966952Y-52843390D02*
X176919333Y-52891009D01*
X176919333Y-52891009D02*
X176871714Y-52986247D01*
X176871714Y-52986247D02*
X176871714Y-53224342D01*
X176871714Y-53224342D02*
X176919333Y-53319580D01*
X176919333Y-53319580D02*
X176966952Y-53367200D01*
X176966952Y-53367200D02*
X177062190Y-53414819D01*
X177062190Y-53414819D02*
X177300285Y-53414819D01*
X177300285Y-53414819D02*
X177395523Y-53367200D01*
X177395523Y-53367200D02*
X177443142Y-53319580D01*
X173176974Y-62626318D02*
X173176974Y-63435841D01*
X173176974Y-63435841D02*
X173129355Y-63531079D01*
X173129355Y-63531079D02*
X173081736Y-63578699D01*
X173081736Y-63578699D02*
X172986498Y-63626318D01*
X172986498Y-63626318D02*
X172796022Y-63626318D01*
X172796022Y-63626318D02*
X172700784Y-63578699D01*
X172700784Y-63578699D02*
X172653165Y-63531079D01*
X172653165Y-63531079D02*
X172605546Y-63435841D01*
X172605546Y-63435841D02*
X172605546Y-62626318D01*
X171605546Y-63626318D02*
X172176974Y-63626318D01*
X171891260Y-63626318D02*
X171891260Y-62626318D01*
X171891260Y-62626318D02*
X171986498Y-62769175D01*
X171986498Y-62769175D02*
X172081736Y-62864413D01*
X172081736Y-62864413D02*
X172176974Y-62912032D01*
X170986498Y-62626318D02*
X170891260Y-62626318D01*
X170891260Y-62626318D02*
X170796022Y-62673937D01*
X170796022Y-62673937D02*
X170748403Y-62721556D01*
X170748403Y-62721556D02*
X170700784Y-62816794D01*
X170700784Y-62816794D02*
X170653165Y-63007270D01*
X170653165Y-63007270D02*
X170653165Y-63245365D01*
X170653165Y-63245365D02*
X170700784Y-63435841D01*
X170700784Y-63435841D02*
X170748403Y-63531079D01*
X170748403Y-63531079D02*
X170796022Y-63578699D01*
X170796022Y-63578699D02*
X170891260Y-63626318D01*
X170891260Y-63626318D02*
X170986498Y-63626318D01*
X170986498Y-63626318D02*
X171081736Y-63578699D01*
X171081736Y-63578699D02*
X171129355Y-63531079D01*
X171129355Y-63531079D02*
X171176974Y-63435841D01*
X171176974Y-63435841D02*
X171224593Y-63245365D01*
X171224593Y-63245365D02*
X171224593Y-63007270D01*
X171224593Y-63007270D02*
X171176974Y-62816794D01*
X171176974Y-62816794D02*
X171129355Y-62721556D01*
X171129355Y-62721556D02*
X171081736Y-62673937D01*
X171081736Y-62673937D02*
X170986498Y-62626318D01*
X170034117Y-62626318D02*
X169938879Y-62626318D01*
X169938879Y-62626318D02*
X169843641Y-62673937D01*
X169843641Y-62673937D02*
X169796022Y-62721556D01*
X169796022Y-62721556D02*
X169748403Y-62816794D01*
X169748403Y-62816794D02*
X169700784Y-63007270D01*
X169700784Y-63007270D02*
X169700784Y-63245365D01*
X169700784Y-63245365D02*
X169748403Y-63435841D01*
X169748403Y-63435841D02*
X169796022Y-63531079D01*
X169796022Y-63531079D02*
X169843641Y-63578699D01*
X169843641Y-63578699D02*
X169938879Y-63626318D01*
X169938879Y-63626318D02*
X170034117Y-63626318D01*
X170034117Y-63626318D02*
X170129355Y-63578699D01*
X170129355Y-63578699D02*
X170176974Y-63531079D01*
X170176974Y-63531079D02*
X170224593Y-63435841D01*
X170224593Y-63435841D02*
X170272212Y-63245365D01*
X170272212Y-63245365D02*
X170272212Y-63007270D01*
X170272212Y-63007270D02*
X170224593Y-62816794D01*
X170224593Y-62816794D02*
X170176974Y-62721556D01*
X170176974Y-62721556D02*
X170129355Y-62673937D01*
X170129355Y-62673937D02*
X170034117Y-62626318D01*
X169319831Y-62721556D02*
X169272212Y-62673937D01*
X169272212Y-62673937D02*
X169176974Y-62626318D01*
X169176974Y-62626318D02*
X168938879Y-62626318D01*
X168938879Y-62626318D02*
X168843641Y-62673937D01*
X168843641Y-62673937D02*
X168796022Y-62721556D01*
X168796022Y-62721556D02*
X168748403Y-62816794D01*
X168748403Y-62816794D02*
X168748403Y-62912032D01*
X168748403Y-62912032D02*
X168796022Y-63054889D01*
X168796022Y-63054889D02*
X169367450Y-63626318D01*
X169367450Y-63626318D02*
X168748403Y-63626318D01*
X175780118Y-52546319D02*
X176256308Y-52546319D01*
X176256308Y-52546319D02*
X176256308Y-51546319D01*
X175446784Y-52546319D02*
X175446784Y-51546319D01*
X175446784Y-51546319D02*
X175113451Y-52260604D01*
X175113451Y-52260604D02*
X174780118Y-51546319D01*
X174780118Y-51546319D02*
X174780118Y-52546319D01*
X173780118Y-52546319D02*
X174351546Y-52546319D01*
X174065832Y-52546319D02*
X174065832Y-51546319D01*
X174065832Y-51546319D02*
X174161070Y-51689176D01*
X174161070Y-51689176D02*
X174256308Y-51784414D01*
X174256308Y-51784414D02*
X174351546Y-51832033D01*
X172827737Y-52546319D02*
X173399165Y-52546319D01*
X173113451Y-52546319D02*
X173113451Y-51546319D01*
X173113451Y-51546319D02*
X173208689Y-51689176D01*
X173208689Y-51689176D02*
X173303927Y-51784414D01*
X173303927Y-51784414D02*
X173399165Y-51832033D01*
X171875356Y-52546319D02*
X172446784Y-52546319D01*
X172161070Y-52546319D02*
X172161070Y-51546319D01*
X172161070Y-51546319D02*
X172256308Y-51689176D01*
X172256308Y-51689176D02*
X172351546Y-51784414D01*
X172351546Y-51784414D02*
X172446784Y-51832033D01*
X171542022Y-51546319D02*
X170875356Y-51546319D01*
X170875356Y-51546319D02*
X171303927Y-52546319D01*
X170494403Y-52546319D02*
X170494403Y-51546319D01*
X170494403Y-51546319D02*
X170161070Y-52260604D01*
X170161070Y-52260604D02*
X169827737Y-51546319D01*
X169827737Y-51546319D02*
X169827737Y-52546319D01*
X169351546Y-52546319D02*
X169351546Y-51546319D01*
X169351546Y-51546319D02*
X168970594Y-51546319D01*
X168970594Y-51546319D02*
X168875356Y-51593938D01*
X168875356Y-51593938D02*
X168827737Y-51641557D01*
X168827737Y-51641557D02*
X168780118Y-51736795D01*
X168780118Y-51736795D02*
X168780118Y-51879652D01*
X168780118Y-51879652D02*
X168827737Y-51974890D01*
X168827737Y-51974890D02*
X168875356Y-52022509D01*
X168875356Y-52022509D02*
X168970594Y-52070128D01*
X168970594Y-52070128D02*
X169351546Y-52070128D01*
X168351546Y-52165366D02*
X167589642Y-52165366D01*
X167208689Y-51546319D02*
X166589642Y-51546319D01*
X166589642Y-51546319D02*
X166922975Y-51927271D01*
X166922975Y-51927271D02*
X166780118Y-51927271D01*
X166780118Y-51927271D02*
X166684880Y-51974890D01*
X166684880Y-51974890D02*
X166637261Y-52022509D01*
X166637261Y-52022509D02*
X166589642Y-52117747D01*
X166589642Y-52117747D02*
X166589642Y-52355842D01*
X166589642Y-52355842D02*
X166637261Y-52451080D01*
X166637261Y-52451080D02*
X166684880Y-52498700D01*
X166684880Y-52498700D02*
X166780118Y-52546319D01*
X166780118Y-52546319D02*
X167065832Y-52546319D01*
X167065832Y-52546319D02*
X167161070Y-52498700D01*
X167161070Y-52498700D02*
X167208689Y-52451080D01*
X166161070Y-52451080D02*
X166113451Y-52498700D01*
X166113451Y-52498700D02*
X166161070Y-52546319D01*
X166161070Y-52546319D02*
X166208689Y-52498700D01*
X166208689Y-52498700D02*
X166161070Y-52451080D01*
X166161070Y-52451080D02*
X166161070Y-52546319D01*
X165780118Y-51546319D02*
X165161071Y-51546319D01*
X165161071Y-51546319D02*
X165494404Y-51927271D01*
X165494404Y-51927271D02*
X165351547Y-51927271D01*
X165351547Y-51927271D02*
X165256309Y-51974890D01*
X165256309Y-51974890D02*
X165208690Y-52022509D01*
X165208690Y-52022509D02*
X165161071Y-52117747D01*
X165161071Y-52117747D02*
X165161071Y-52355842D01*
X165161071Y-52355842D02*
X165208690Y-52451080D01*
X165208690Y-52451080D02*
X165256309Y-52498700D01*
X165256309Y-52498700D02*
X165351547Y-52546319D01*
X165351547Y-52546319D02*
X165637261Y-52546319D01*
X165637261Y-52546319D02*
X165732499Y-52498700D01*
X165732499Y-52498700D02*
X165780118Y-52451080D01*
X180681238Y-60414819D02*
X181014571Y-59938628D01*
X181252666Y-60414819D02*
X181252666Y-59414819D01*
X181252666Y-59414819D02*
X180871714Y-59414819D01*
X180871714Y-59414819D02*
X180776476Y-59462438D01*
X180776476Y-59462438D02*
X180728857Y-59510057D01*
X180728857Y-59510057D02*
X180681238Y-59605295D01*
X180681238Y-59605295D02*
X180681238Y-59748152D01*
X180681238Y-59748152D02*
X180728857Y-59843390D01*
X180728857Y-59843390D02*
X180776476Y-59891009D01*
X180776476Y-59891009D02*
X180871714Y-59938628D01*
X180871714Y-59938628D02*
X181252666Y-59938628D01*
X179728857Y-60414819D02*
X180300285Y-60414819D01*
X180014571Y-60414819D02*
X180014571Y-59414819D01*
X180014571Y-59414819D02*
X180109809Y-59557676D01*
X180109809Y-59557676D02*
X180205047Y-59652914D01*
X180205047Y-59652914D02*
X180300285Y-59700533D01*
X179109809Y-59414819D02*
X179014571Y-59414819D01*
X179014571Y-59414819D02*
X178919333Y-59462438D01*
X178919333Y-59462438D02*
X178871714Y-59510057D01*
X178871714Y-59510057D02*
X178824095Y-59605295D01*
X178824095Y-59605295D02*
X178776476Y-59795771D01*
X178776476Y-59795771D02*
X178776476Y-60033866D01*
X178776476Y-60033866D02*
X178824095Y-60224342D01*
X178824095Y-60224342D02*
X178871714Y-60319580D01*
X178871714Y-60319580D02*
X178919333Y-60367200D01*
X178919333Y-60367200D02*
X179014571Y-60414819D01*
X179014571Y-60414819D02*
X179109809Y-60414819D01*
X179109809Y-60414819D02*
X179205047Y-60367200D01*
X179205047Y-60367200D02*
X179252666Y-60319580D01*
X179252666Y-60319580D02*
X179300285Y-60224342D01*
X179300285Y-60224342D02*
X179347904Y-60033866D01*
X179347904Y-60033866D02*
X179347904Y-59795771D01*
X179347904Y-59795771D02*
X179300285Y-59605295D01*
X179300285Y-59605295D02*
X179252666Y-59510057D01*
X179252666Y-59510057D02*
X179205047Y-59462438D01*
X179205047Y-59462438D02*
X179109809Y-59414819D01*
X178157428Y-59414819D02*
X178062190Y-59414819D01*
X178062190Y-59414819D02*
X177966952Y-59462438D01*
X177966952Y-59462438D02*
X177919333Y-59510057D01*
X177919333Y-59510057D02*
X177871714Y-59605295D01*
X177871714Y-59605295D02*
X177824095Y-59795771D01*
X177824095Y-59795771D02*
X177824095Y-60033866D01*
X177824095Y-60033866D02*
X177871714Y-60224342D01*
X177871714Y-60224342D02*
X177919333Y-60319580D01*
X177919333Y-60319580D02*
X177966952Y-60367200D01*
X177966952Y-60367200D02*
X178062190Y-60414819D01*
X178062190Y-60414819D02*
X178157428Y-60414819D01*
X178157428Y-60414819D02*
X178252666Y-60367200D01*
X178252666Y-60367200D02*
X178300285Y-60319580D01*
X178300285Y-60319580D02*
X178347904Y-60224342D01*
X178347904Y-60224342D02*
X178395523Y-60033866D01*
X178395523Y-60033866D02*
X178395523Y-59795771D01*
X178395523Y-59795771D02*
X178347904Y-59605295D01*
X178347904Y-59605295D02*
X178300285Y-59510057D01*
X178300285Y-59510057D02*
X178252666Y-59462438D01*
X178252666Y-59462438D02*
X178157428Y-59414819D01*
X177347904Y-60414819D02*
X177157428Y-60414819D01*
X177157428Y-60414819D02*
X177062190Y-60367200D01*
X177062190Y-60367200D02*
X177014571Y-60319580D01*
X177014571Y-60319580D02*
X176919333Y-60176723D01*
X176919333Y-60176723D02*
X176871714Y-59986247D01*
X176871714Y-59986247D02*
X176871714Y-59605295D01*
X176871714Y-59605295D02*
X176919333Y-59510057D01*
X176919333Y-59510057D02*
X176966952Y-59462438D01*
X176966952Y-59462438D02*
X177062190Y-59414819D01*
X177062190Y-59414819D02*
X177252666Y-59414819D01*
X177252666Y-59414819D02*
X177347904Y-59462438D01*
X177347904Y-59462438D02*
X177395523Y-59510057D01*
X177395523Y-59510057D02*
X177443142Y-59605295D01*
X177443142Y-59605295D02*
X177443142Y-59843390D01*
X177443142Y-59843390D02*
X177395523Y-59938628D01*
X177395523Y-59938628D02*
X177347904Y-59986247D01*
X177347904Y-59986247D02*
X177252666Y-60033866D01*
X177252666Y-60033866D02*
X177062190Y-60033866D01*
X177062190Y-60033866D02*
X176966952Y-59986247D01*
X176966952Y-59986247D02*
X176919333Y-59938628D01*
X176919333Y-59938628D02*
X176871714Y-59843390D01*
X181924152Y-60848095D02*
X182590819Y-60848095D01*
X181543200Y-60610000D02*
X182257485Y-60371905D01*
X182257485Y-60371905D02*
X182257485Y-60990952D01*
X181590819Y-61276667D02*
X181590819Y-61943333D01*
X181590819Y-61943333D02*
X182590819Y-61514762D01*
X181590819Y-62514762D02*
X181590819Y-62610000D01*
X181590819Y-62610000D02*
X181638438Y-62705238D01*
X181638438Y-62705238D02*
X181686057Y-62752857D01*
X181686057Y-62752857D02*
X181781295Y-62800476D01*
X181781295Y-62800476D02*
X181971771Y-62848095D01*
X181971771Y-62848095D02*
X182209866Y-62848095D01*
X182209866Y-62848095D02*
X182400342Y-62800476D01*
X182400342Y-62800476D02*
X182495580Y-62752857D01*
X182495580Y-62752857D02*
X182543200Y-62705238D01*
X182543200Y-62705238D02*
X182590819Y-62610000D01*
X182590819Y-62610000D02*
X182590819Y-62514762D01*
X182590819Y-62514762D02*
X182543200Y-62419524D01*
X182543200Y-62419524D02*
X182495580Y-62371905D01*
X182495580Y-62371905D02*
X182400342Y-62324286D01*
X182400342Y-62324286D02*
X182209866Y-62276667D01*
X182209866Y-62276667D02*
X181971771Y-62276667D01*
X181971771Y-62276667D02*
X181781295Y-62324286D01*
X181781295Y-62324286D02*
X181686057Y-62371905D01*
X181686057Y-62371905D02*
X181638438Y-62419524D01*
X181638438Y-62419524D02*
X181590819Y-62514762D01*
D12*
%TO.C,R1007*%
X178858936Y-57375000D02*
X179313064Y-57375000D01*
X178858936Y-58845000D02*
X179313064Y-58845000D01*
%TO.C,R1005*%
X178858936Y-53875000D02*
X179313064Y-53875000D01*
X178858936Y-55345000D02*
X179313064Y-55345000D01*
%TO.C,U1002*%
X167240500Y-55531500D02*
X167240500Y-59291500D01*
X168500500Y-55531500D02*
X167240500Y-55531500D01*
X172800500Y-55531500D02*
X174060500Y-55531500D01*
X174060500Y-55531500D02*
X174060500Y-59291500D01*
X174290500Y-60811500D02*
X173960500Y-60571500D01*
X174290500Y-60331500D01*
X174290500Y-60811500D01*
G36*
X174290500Y-60811500D02*
G01*
X173960500Y-60571500D01*
X174290500Y-60331500D01*
X174290500Y-60811500D01*
G37*
%TO.C,R1009*%
X178858936Y-60875000D02*
X179313064Y-60875000D01*
X178858936Y-62345000D02*
X179313064Y-62345000D01*
%TD*%
M02*
