%TF.GenerationSoftware,KiCad,Pcbnew,8.0.1*%
%TF.CreationDate,2024-03-28T11:36:42+01:00*%
%TF.ProjectId,pc1715-esp32vga,70633137-3135-42d6-9573-703332766761,rev?*%
%TF.SameCoordinates,Original*%
%TF.FileFunction,Paste,Top*%
%TF.FilePolarity,Positive*%
%FSLAX46Y46*%
G04 Gerber Fmt 4.6, Leading zero omitted, Abs format (unit mm)*
G04 Created by KiCad (PCBNEW 8.0.1) date 2024-03-28 11:36:42*
%MOMM*%
%LPD*%
G01*
G04 APERTURE LIST*
G04 Aperture macros list*
%AMRoundRect*
0 Rectangle with rounded corners*
0 $1 Rounding radius*
0 $2 $3 $4 $5 $6 $7 $8 $9 X,Y pos of 4 corners*
0 Add a 4 corners polygon primitive as box body*
4,1,4,$2,$3,$4,$5,$6,$7,$8,$9,$2,$3,0*
0 Add four circle primitives for the rounded corners*
1,1,$1+$1,$2,$3*
1,1,$1+$1,$4,$5*
1,1,$1+$1,$6,$7*
1,1,$1+$1,$8,$9*
0 Add four rect primitives between the rounded corners*
20,1,$1+$1,$2,$3,$4,$5,0*
20,1,$1+$1,$4,$5,$6,$7,0*
20,1,$1+$1,$6,$7,$8,$9,0*
20,1,$1+$1,$8,$9,$2,$3,0*%
G04 Aperture macros list end*
%ADD10RoundRect,0.250001X-0.624999X0.462499X-0.624999X-0.462499X0.624999X-0.462499X0.624999X0.462499X0*%
%ADD11RoundRect,0.250001X0.924999X-0.499999X0.924999X0.499999X-0.924999X0.499999X-0.924999X-0.499999X0*%
%ADD12R,1.300000X1.550000*%
%ADD13RoundRect,0.250000X-0.450000X0.350000X-0.450000X-0.350000X0.450000X-0.350000X0.450000X0.350000X0*%
%ADD14RoundRect,0.250000X0.350000X0.450000X-0.350000X0.450000X-0.350000X-0.450000X0.350000X-0.450000X0*%
%ADD15RoundRect,0.250000X0.450000X-0.350000X0.450000X0.350000X-0.450000X0.350000X-0.450000X-0.350000X0*%
%ADD16R,1.500000X0.900000*%
%ADD17R,0.900000X1.500000*%
%ADD18R,0.900000X0.900000*%
G04 APERTURE END LIST*
D10*
%TO.C,D1003*%
X177546000Y-79030500D03*
X177546000Y-82005500D03*
%TD*%
D11*
%TO.C,C1002*%
X167665000Y-60528000D03*
X167665000Y-57278000D03*
%TD*%
D12*
%TO.C,SW1001*%
X186726000Y-83985000D03*
X186726000Y-76035000D03*
X191226000Y-83985000D03*
X191226000Y-76035000D03*
%TD*%
D13*
%TO.C,R1010*%
X193802000Y-82058000D03*
X193802000Y-84058000D03*
%TD*%
D14*
%TO.C,R1008*%
X180120000Y-61610000D03*
X178120000Y-61610000D03*
%TD*%
%TO.C,R1011*%
X173500000Y-77500000D03*
X171500000Y-77500000D03*
%TD*%
D15*
%TO.C,R1001*%
X181102000Y-81495500D03*
X181102000Y-79495500D03*
%TD*%
D16*
%TO.C,U1001*%
X184250000Y-50624000D03*
X184250000Y-51894000D03*
X184250000Y-53164000D03*
X184250000Y-54434000D03*
X184250000Y-55704000D03*
X184250000Y-56974000D03*
X184250000Y-58244000D03*
X184250000Y-59514000D03*
X184250000Y-60784000D03*
X184250000Y-62054000D03*
X184250000Y-63324000D03*
X184250000Y-64594000D03*
X184250000Y-65864000D03*
X184250000Y-67134000D03*
D17*
X186015000Y-68384000D03*
X187285000Y-68384000D03*
X188555000Y-68384000D03*
X189825000Y-68384000D03*
X191095000Y-68384000D03*
X192365000Y-68384000D03*
X193635000Y-68384000D03*
X194905000Y-68384000D03*
X196175000Y-68384000D03*
X197445000Y-68384000D03*
X198715000Y-68384000D03*
X199985000Y-68384000D03*
D16*
X201750000Y-67134000D03*
X201750000Y-65864000D03*
X201750000Y-64594000D03*
X201750000Y-63324000D03*
X201750000Y-62054000D03*
X201750000Y-60784000D03*
X201750000Y-59514000D03*
X201750000Y-58244000D03*
X201750000Y-56974000D03*
X201750000Y-55704000D03*
X201750000Y-54434000D03*
X201750000Y-53164000D03*
X201750000Y-51894000D03*
X201750000Y-50624000D03*
D18*
X190100000Y-56944000D03*
X190100000Y-58344000D03*
X190100000Y-59744000D03*
X190100000Y-59744000D03*
X191500000Y-56944000D03*
X191500000Y-56944000D03*
X191500000Y-58344000D03*
X191500000Y-59744000D03*
X192900000Y-56944000D03*
X192900000Y-58344000D03*
X192900000Y-59744000D03*
%TD*%
D14*
%TO.C,R1006*%
X180070000Y-58110000D03*
X178070000Y-58110000D03*
%TD*%
%TO.C,R1004*%
X180070000Y-54610000D03*
X178070000Y-54610000D03*
%TD*%
%TO.C,R1003*%
X173500000Y-80000000D03*
X171500000Y-80000000D03*
%TD*%
%TO.C,R1002*%
X173500000Y-82500000D03*
X171500000Y-82500000D03*
%TD*%
D11*
%TO.C,C1001*%
X171171000Y-60528000D03*
X171171000Y-57278000D03*
%TD*%
M02*
