%TF.GenerationSoftware,KiCad,Pcbnew,8.0.1*%
%TF.CreationDate,2024-03-28T11:36:41+01:00*%
%TF.ProjectId,pc1715-esp32vga,70633137-3135-42d6-9573-703332766761,rev?*%
%TF.SameCoordinates,Original*%
%TF.FileFunction,Copper,L2,Bot*%
%TF.FilePolarity,Positive*%
%FSLAX46Y46*%
G04 Gerber Fmt 4.6, Leading zero omitted, Abs format (unit mm)*
G04 Created by KiCad (PCBNEW 8.0.1) date 2024-03-28 11:36:41*
%MOMM*%
%LPD*%
G01*
G04 APERTURE LIST*
G04 Aperture macros list*
%AMRoundRect*
0 Rectangle with rounded corners*
0 $1 Rounding radius*
0 $2 $3 $4 $5 $6 $7 $8 $9 X,Y pos of 4 corners*
0 Add a 4 corners polygon primitive as box body*
4,1,4,$2,$3,$4,$5,$6,$7,$8,$9,$2,$3,0*
0 Add four circle primitives for the rounded corners*
1,1,$1+$1,$2,$3*
1,1,$1+$1,$4,$5*
1,1,$1+$1,$6,$7*
1,1,$1+$1,$8,$9*
0 Add four rect primitives between the rounded corners*
20,1,$1+$1,$2,$3,$4,$5,0*
20,1,$1+$1,$4,$5,$6,$7,0*
20,1,$1+$1,$6,$7,$8,$9,0*
20,1,$1+$1,$8,$9,$2,$3,0*%
G04 Aperture macros list end*
%TA.AperFunction,ComponentPad*%
%ADD10R,2.200000X2.200000*%
%TD*%
%TA.AperFunction,ComponentPad*%
%ADD11O,2.200000X2.200000*%
%TD*%
%TA.AperFunction,ComponentPad*%
%ADD12C,5.700000*%
%TD*%
%TA.AperFunction,ComponentPad*%
%ADD13RoundRect,0.250000X0.600000X-0.600000X0.600000X0.600000X-0.600000X0.600000X-0.600000X-0.600000X0*%
%TD*%
%TA.AperFunction,ComponentPad*%
%ADD14C,1.700000*%
%TD*%
%TA.AperFunction,ComponentPad*%
%ADD15R,1.600000X1.600000*%
%TD*%
%TA.AperFunction,ComponentPad*%
%ADD16C,1.600000*%
%TD*%
%TA.AperFunction,ComponentPad*%
%ADD17C,4.000000*%
%TD*%
%TA.AperFunction,ComponentPad*%
%ADD18R,1.785000X1.785000*%
%TD*%
%TA.AperFunction,ComponentPad*%
%ADD19C,1.785000*%
%TD*%
%TA.AperFunction,ComponentPad*%
%ADD20C,4.196000*%
%TD*%
%TA.AperFunction,ComponentPad*%
%ADD21R,1.700000X1.700000*%
%TD*%
%TA.AperFunction,ComponentPad*%
%ADD22O,1.700000X1.700000*%
%TD*%
%TA.AperFunction,SMDPad,CuDef*%
%ADD23RoundRect,0.250000X0.350000X0.450000X-0.350000X0.450000X-0.350000X-0.450000X0.350000X-0.450000X0*%
%TD*%
%TA.AperFunction,SMDPad,CuDef*%
%ADD24RoundRect,0.375000X0.375000X-0.625000X0.375000X0.625000X-0.375000X0.625000X-0.375000X-0.625000X0*%
%TD*%
%TA.AperFunction,SMDPad,CuDef*%
%ADD25RoundRect,0.500000X1.400000X-0.500000X1.400000X0.500000X-1.400000X0.500000X-1.400000X-0.500000X0*%
%TD*%
%TA.AperFunction,ViaPad*%
%ADD26C,0.800000*%
%TD*%
%TA.AperFunction,Conductor*%
%ADD27C,0.250000*%
%TD*%
%TA.AperFunction,Conductor*%
%ADD28C,0.700000*%
%TD*%
%TA.AperFunction,Conductor*%
%ADD29C,0.500000*%
%TD*%
%TA.AperFunction,Conductor*%
%ADD30C,0.750000*%
%TD*%
G04 APERTURE END LIST*
D10*
%TO.P,D1002,1,K*%
%TO.N,+5V*%
X160528000Y-69596000D03*
D11*
%TO.P,D1002,2,A*%
%TO.N,Net-(D1002-A)*%
X152908000Y-69596000D03*
%TD*%
D12*
%TO.P,H1003,1*%
%TO.N,N/C*%
X210000000Y-55000000D03*
%TD*%
D13*
%TO.P,J1001,1,Pin_1*%
%TO.N,Net-(D1001-A)*%
X151672500Y-81000000D03*
D14*
%TO.P,J1001,2,Pin_2*%
X151672500Y-78460000D03*
%TO.P,J1001,3,Pin_3*%
%TO.N,+3.3V*%
X154212500Y-81000000D03*
%TO.P,J1001,4,Pin_4*%
%TO.N,/VIDEO*%
X154212500Y-78460000D03*
%TO.P,J1001,5,Pin_5*%
%TO.N,GND*%
X156752500Y-81000000D03*
%TO.P,J1001,6,Pin_6*%
%TO.N,/INTENS*%
X156752500Y-78460000D03*
%TO.P,J1001,7,Pin_7*%
%TO.N,GND*%
X159292500Y-81000000D03*
%TO.P,J1001,8,Pin_8*%
X159292500Y-78460000D03*
%TO.P,J1001,9,Pin_9*%
X161832500Y-81000000D03*
%TO.P,J1001,10,Pin_10*%
%TO.N,/BSYNC*%
X161832500Y-78460000D03*
%TD*%
D12*
%TO.P,H1001,1*%
%TO.N,N/C*%
X110000000Y-55000000D03*
%TD*%
D15*
%TO.P,J1003,1,VBUS*%
%TO.N,Net-(D1002-A)*%
X155214000Y-64445500D03*
D16*
%TO.P,J1003,2,D-*%
%TO.N,/USB_DN*%
X157714000Y-64445500D03*
%TO.P,J1003,3,D+*%
%TO.N,/USB_DP*%
X157714000Y-62445500D03*
%TO.P,J1003,4,GND*%
%TO.N,GND*%
X155214000Y-62445500D03*
D17*
%TO.P,J1003,5,Shield*%
X150464000Y-59585500D03*
X162464000Y-59585500D03*
%TD*%
D12*
%TO.P,H1002,1*%
%TO.N,N/C*%
X110000000Y-80000000D03*
%TD*%
%TO.P,H1004,1*%
%TO.N,N/C*%
X210000000Y-80000000D03*
%TD*%
D13*
%TO.P,J1005,1,Pin_1*%
%TO.N,/RED*%
X120380000Y-81040000D03*
D14*
%TO.P,J1005,2,Pin_2*%
%TO.N,/GREEN*%
X120380000Y-78500000D03*
%TO.P,J1005,3,Pin_3*%
%TO.N,/BLUE*%
X122920000Y-81040000D03*
%TO.P,J1005,4,Pin_4*%
%TO.N,unconnected-(J1005-Pin_4-Pad4)*%
X122920000Y-78500000D03*
%TO.P,J1005,5,Pin_5*%
%TO.N,GND*%
X125460000Y-81040000D03*
%TO.P,J1005,6,Pin_6*%
X125460000Y-78500000D03*
%TO.P,J1005,7,Pin_7*%
X128000000Y-81040000D03*
%TO.P,J1005,8,Pin_8*%
X128000000Y-78500000D03*
%TO.P,J1005,9,Pin_9*%
X130540000Y-81040000D03*
%TO.P,J1005,10,Pin_10*%
X130540000Y-78500000D03*
%TO.P,J1005,11,Pin_11*%
%TO.N,unconnected-(J1005-Pin_11-Pad11)*%
X133080000Y-81040000D03*
%TO.P,J1005,12,Pin_12*%
%TO.N,unconnected-(J1005-Pin_12-Pad12)*%
X133080000Y-78500000D03*
%TO.P,J1005,13,Pin_13*%
%TO.N,/HSYNC*%
X135620000Y-81040000D03*
%TO.P,J1005,14,Pin_14*%
%TO.N,/VSYNC*%
X135620000Y-78500000D03*
%TO.P,J1005,15,Pin_15*%
%TO.N,unconnected-(J1005-Pin_15-Pad15)*%
X138160000Y-81040000D03*
%TO.P,J1005,16,Pin_16*%
%TO.N,unconnected-(J1005-Pin_16-Pad16)*%
X138160000Y-78500000D03*
%TD*%
D18*
%TO.P,J1002,1*%
%TO.N,/RED*%
X125685000Y-63040000D03*
D19*
%TO.P,J1002,2*%
%TO.N,/GREEN*%
X127965000Y-63040000D03*
%TO.P,J1002,3*%
%TO.N,/BLUE*%
X130245000Y-63040000D03*
%TO.P,J1002,4*%
%TO.N,unconnected-(J1002-Pad4)*%
X132525000Y-63040000D03*
%TO.P,J1002,5*%
%TO.N,GND*%
X134805000Y-63040000D03*
%TO.P,J1002,6*%
X124545000Y-60500000D03*
%TO.P,J1002,7*%
X126825000Y-60500000D03*
%TO.P,J1002,8*%
X129105000Y-60500000D03*
%TO.P,J1002,9*%
%TO.N,unconnected-(J1002-Pad9)*%
X131385000Y-60500000D03*
%TO.P,J1002,10*%
%TO.N,GND*%
X133665000Y-60500000D03*
%TO.P,J1002,11*%
%TO.N,unconnected-(J1002-Pad11)*%
X125685000Y-57960000D03*
%TO.P,J1002,12*%
%TO.N,unconnected-(J1002-Pad12)*%
X127965000Y-57960000D03*
%TO.P,J1002,13*%
%TO.N,/HSYNC*%
X130245000Y-57960000D03*
%TO.P,J1002,14*%
%TO.N,/VSYNC*%
X132525000Y-57960000D03*
%TO.P,J1002,15*%
%TO.N,unconnected-(J1002-Pad15)*%
X134805000Y-57960000D03*
D20*
%TO.P,J1002,SH1*%
%TO.N,N/C*%
X142500000Y-60500000D03*
%TO.P,J1002,SH2*%
X117500000Y-60500000D03*
%TD*%
D10*
%TO.P,D1001,1,K*%
%TO.N,+5V*%
X160528000Y-72898000D03*
D11*
%TO.P,D1001,2,A*%
%TO.N,Net-(D1001-A)*%
X152908000Y-72898000D03*
%TD*%
D21*
%TO.P,J1004,1,Pin_1*%
%TO.N,/K_LEFT*%
X209500000Y-72075000D03*
D22*
%TO.P,J1004,2,Pin_2*%
%TO.N,/K_UP*%
X209500000Y-69535000D03*
%TO.P,J1004,3,Pin_3*%
%TO.N,GND*%
X209500000Y-66995000D03*
%TO.P,J1004,4,Pin_4*%
%TO.N,/K_DOWN*%
X209500000Y-64455000D03*
%TO.P,J1004,5,Pin_5*%
%TO.N,/K_RIGHT*%
X209500000Y-61915000D03*
%TD*%
D21*
%TO.P,JP1001,1,A*%
%TO.N,Net-(JP1001-A)*%
X202750000Y-74025000D03*
D22*
%TO.P,JP1001,2,B*%
%TO.N,+3.3V*%
X200210000Y-74025000D03*
%TD*%
D23*
%TO.P,R1007,1*%
%TO.N,/G2*%
X180086000Y-58110000D03*
%TO.P,R1007,2*%
%TO.N,/GREEN*%
X178086000Y-58110000D03*
%TD*%
%TO.P,R1005,1*%
%TO.N,/B2*%
X180086000Y-54610000D03*
%TO.P,R1005,2*%
%TO.N,/BLUE*%
X178086000Y-54610000D03*
%TD*%
D24*
%TO.P,U1002,1,GND*%
%TO.N,GND*%
X172950500Y-60591500D03*
%TO.P,U1002,2,VO*%
%TO.N,+3.3V*%
X170650500Y-60591500D03*
D25*
X170650500Y-54291500D03*
D24*
%TO.P,U1002,3,VI*%
%TO.N,+5V*%
X168350500Y-60591500D03*
%TD*%
D23*
%TO.P,R1009,1*%
%TO.N,/R2*%
X180086000Y-61610000D03*
%TO.P,R1009,2*%
%TO.N,/RED*%
X178086000Y-61610000D03*
%TD*%
D26*
%TO.N,/RED*%
X176530000Y-61468000D03*
X125685000Y-67310000D03*
%TO.N,/GREEN*%
X176530000Y-58166000D03*
X127965000Y-66548000D03*
%TO.N,/BLUE*%
X176530000Y-54610000D03*
X130245000Y-65786000D03*
%TO.N,GND*%
X144526000Y-80518000D03*
X192278000Y-54864000D03*
X168656000Y-70866000D03*
X188214000Y-78486000D03*
X167894000Y-83566000D03*
X182626000Y-75184000D03*
X146812000Y-67818000D03*
X174244000Y-62992000D03*
X171196000Y-58420000D03*
X120396000Y-53086000D03*
X182626000Y-70866000D03*
X186000000Y-50500000D03*
X112776000Y-69342000D03*
X117094000Y-80518000D03*
X112776000Y-61468000D03*
X164592000Y-81026000D03*
X156464000Y-57912000D03*
X171704000Y-58928000D03*
X188468000Y-64516000D03*
X207772000Y-65532000D03*
X200000000Y-50500000D03*
X196088000Y-53086000D03*
X200406000Y-71120000D03*
%TO.N,+3.3V*%
X196342000Y-83820000D03*
X170942000Y-62484000D03*
X170688000Y-51308000D03*
X175000000Y-82500000D03*
X175000000Y-77500000D03*
X175000000Y-80000000D03*
%TO.N,+5V*%
X168148000Y-62484000D03*
%TO.N,/HSYNC*%
X141478000Y-55626000D03*
X136906000Y-55626000D03*
%TO.N,/VSYNC*%
X141230049Y-54616049D03*
%TO.N,/B2*%
X182372000Y-55626000D03*
%TO.N,/G2*%
X182372000Y-58166000D03*
%TO.N,/R2*%
X182372000Y-59690000D03*
%TO.N,Net-(U1001-GPIO14{slash}TOUCH14{slash}ADC2_CH3{slash}FSPIWP{slash}FSPIDQS{slash}SUBSPIWP)*%
X195000000Y-66000000D03*
X195000000Y-78000000D03*
%TO.N,Net-(U1001-GPIO13{slash}TOUCH13{slash}ADC2_CH2{slash}FSPIQ{slash}FSPIIO7{slash}SUBSPIQ)*%
X195326000Y-79502000D03*
X193500000Y-66000000D03*
%TO.N,/VIDEO*%
X197500000Y-66500000D03*
X197000000Y-74500000D03*
%TO.N,/INTENS*%
X198000000Y-73500000D03*
X198500000Y-67000000D03*
%TO.N,/BSYNC*%
X196175000Y-66325000D03*
X195725000Y-73500000D03*
%TO.N,Net-(U1001-EN)*%
X191770000Y-66040000D03*
X189992000Y-75946000D03*
X189992000Y-83820000D03*
%TD*%
D27*
%TO.N,GND*%
X155500000Y-79250000D02*
X155500000Y-77500000D01*
%TO.N,Net-(D1001-A)*%
X151672500Y-74133500D02*
X152908000Y-72898000D01*
X151672500Y-78460000D02*
X151672500Y-74133500D01*
%TO.N,Net-(D1002-A)*%
X155214000Y-64445500D02*
X155214000Y-67290000D01*
X155214000Y-67290000D02*
X152908000Y-69596000D01*
%TO.N,/RED*%
X176530000Y-61468000D02*
X177944000Y-61468000D01*
X119205000Y-79865000D02*
X119205000Y-78013299D01*
X125685000Y-71533299D02*
X125685000Y-67310000D01*
X120380000Y-81040000D02*
X119205000Y-79865000D01*
X177944000Y-61468000D02*
X178086000Y-61610000D01*
X119205000Y-78013299D02*
X125685000Y-71533299D01*
X125685000Y-67310000D02*
X125685000Y-63040000D01*
%TO.N,/GREEN*%
X127965000Y-70915000D02*
X127965000Y-63040000D01*
X178030000Y-58166000D02*
X178086000Y-58110000D01*
X176530000Y-58166000D02*
X178030000Y-58166000D01*
X120380000Y-78500000D02*
X127965000Y-70915000D01*
%TO.N,/BLUE*%
X176530000Y-54610000D02*
X178086000Y-54610000D01*
X124095000Y-79865000D02*
X124095000Y-78203299D01*
X122920000Y-81040000D02*
X124095000Y-79865000D01*
X130245000Y-65786000D02*
X130245000Y-63040000D01*
X130500000Y-63295000D02*
X130245000Y-63040000D01*
X130245000Y-72053299D02*
X130245000Y-65786000D01*
X124095000Y-78203299D02*
X130245000Y-72053299D01*
%TO.N,GND*%
X133665000Y-61900000D02*
X134805000Y-63040000D01*
X130322500Y-59282500D02*
X132447500Y-59282500D01*
D28*
X171704000Y-58928000D02*
X172950500Y-60174500D01*
D27*
X124545000Y-60500000D02*
X126825000Y-60500000D01*
D28*
X172950500Y-61698500D02*
X174244000Y-62992000D01*
D27*
X132447500Y-59282500D02*
X133665000Y-60500000D01*
D28*
X171196000Y-58420000D02*
X171704000Y-58928000D01*
D27*
X129105000Y-60500000D02*
X130322500Y-59282500D01*
D28*
X172950500Y-60174500D02*
X172950500Y-60591500D01*
D27*
X126825000Y-60500000D02*
X129105000Y-60500000D01*
D28*
X172950500Y-60591500D02*
X172950500Y-61698500D01*
D27*
X133665000Y-60500000D02*
X133665000Y-61900000D01*
D29*
%TO.N,+3.3V*%
X175000000Y-80000000D02*
X175000000Y-82500000D01*
X196342000Y-83820000D02*
X196342000Y-77893000D01*
X175000000Y-77500000D02*
X175000000Y-80000000D01*
X175000000Y-66542000D02*
X175000000Y-77500000D01*
D30*
X170650500Y-54291500D02*
X169650500Y-55291500D01*
D29*
X170942000Y-62484000D02*
X175000000Y-66542000D01*
D27*
X170650500Y-60591500D02*
X170650500Y-62192500D01*
D29*
X170650500Y-51345500D02*
X170688000Y-51308000D01*
D30*
X169650500Y-55291500D02*
X169650500Y-59591500D01*
D29*
X196342000Y-77893000D02*
X200210000Y-74025000D01*
X170650500Y-54291500D02*
X170650500Y-51345500D01*
D30*
X169650500Y-59591500D02*
X170650500Y-60591500D01*
D27*
X170650500Y-62192500D02*
X170942000Y-62484000D01*
D29*
%TO.N,+5V*%
X166878000Y-63246000D02*
X160528000Y-69596000D01*
X160528000Y-69596000D02*
X160528000Y-72898000D01*
X168350500Y-62281500D02*
X168148000Y-62484000D01*
X168350500Y-60591500D02*
X168350500Y-62281500D01*
X168148000Y-63246000D02*
X166878000Y-63246000D01*
X168148000Y-62484000D02*
X168148000Y-63246000D01*
D27*
%TO.N,/HSYNC*%
X141478000Y-55626000D02*
X136906000Y-55626000D01*
X136795000Y-55737000D02*
X136906000Y-55626000D01*
X136795000Y-79865000D02*
X136795000Y-55737000D01*
X135620000Y-81040000D02*
X136795000Y-79865000D01*
%TO.N,/VSYNC*%
X136181000Y-54833049D02*
X136398000Y-54616049D01*
X136398000Y-54616049D02*
X133851951Y-54616049D01*
X132525000Y-55943000D02*
X132525000Y-56134000D01*
X136181000Y-77939000D02*
X136181000Y-54833049D01*
X132525000Y-56134000D02*
X132525000Y-57960000D01*
X135620000Y-78500000D02*
X136181000Y-77939000D01*
X132960000Y-57960000D02*
X132525000Y-57960000D01*
X141230049Y-54616049D02*
X136398000Y-54616049D01*
X133851951Y-54616049D02*
X132525000Y-55943000D01*
%TO.N,/B2*%
X181864000Y-55626000D02*
X180848000Y-54610000D01*
X182372000Y-55626000D02*
X181864000Y-55626000D01*
X180848000Y-54610000D02*
X180086000Y-54610000D01*
%TO.N,/G2*%
X182372000Y-58166000D02*
X180142000Y-58166000D01*
X180142000Y-58166000D02*
X180086000Y-58110000D01*
%TO.N,/R2*%
X182372000Y-59690000D02*
X181864000Y-60198000D01*
X181864000Y-60198000D02*
X181498000Y-60198000D01*
X181498000Y-60198000D02*
X180086000Y-61610000D01*
%TO.N,Net-(U1001-GPIO14{slash}TOUCH14{slash}ADC2_CH3{slash}FSPIWP{slash}FSPIDQS{slash}SUBSPIWP)*%
X195000000Y-78000000D02*
X195000000Y-66000000D01*
%TO.N,Net-(U1001-GPIO13{slash}TOUCH13{slash}ADC2_CH2{slash}FSPIQ{slash}FSPIIO7{slash}SUBSPIQ)*%
X193500000Y-66000000D02*
X193500000Y-77676000D01*
X193500000Y-77676000D02*
X195326000Y-79502000D01*
%TO.N,/VIDEO*%
X197000000Y-74500000D02*
X197000000Y-67000000D01*
X197000000Y-67000000D02*
X197500000Y-66500000D01*
%TO.N,/INTENS*%
X198000000Y-73500000D02*
X198000000Y-67500000D01*
X198000000Y-67500000D02*
X198500000Y-67000000D01*
%TO.N,/BSYNC*%
X195725000Y-66775000D02*
X196175000Y-66325000D01*
X195725000Y-73500000D02*
X195725000Y-66775000D01*
%TO.N,Net-(U1001-EN)*%
X191770000Y-66040000D02*
X191770000Y-74168000D01*
X189992000Y-76200000D02*
X189992000Y-83820000D01*
X191770000Y-74168000D02*
X189992000Y-75946000D01*
X189992000Y-75946000D02*
X189992000Y-76200000D01*
%TD*%
%TA.AperFunction,Conductor*%
%TO.N,GND*%
G36*
X127534075Y-78692993D02*
G01*
X127599901Y-78807007D01*
X127692993Y-78900099D01*
X127807007Y-78965925D01*
X127870590Y-78982962D01*
X127238625Y-79614925D01*
X127315031Y-79668425D01*
X127358655Y-79723002D01*
X127365848Y-79792501D01*
X127334326Y-79854855D01*
X127315029Y-79871576D01*
X127238625Y-79925072D01*
X127870590Y-80557037D01*
X127807007Y-80574075D01*
X127692993Y-80639901D01*
X127599901Y-80732993D01*
X127534075Y-80847007D01*
X127517037Y-80910590D01*
X126885072Y-80278625D01*
X126885072Y-80278626D01*
X126831574Y-80355030D01*
X126776998Y-80398655D01*
X126707499Y-80405849D01*
X126645144Y-80374326D01*
X126628424Y-80355030D01*
X126574925Y-80278626D01*
X126574925Y-80278625D01*
X125942962Y-80910589D01*
X125925925Y-80847007D01*
X125860099Y-80732993D01*
X125767007Y-80639901D01*
X125652993Y-80574075D01*
X125589408Y-80557037D01*
X126221373Y-79925073D01*
X126144969Y-79871576D01*
X126101344Y-79816999D01*
X126094150Y-79747501D01*
X126125672Y-79685146D01*
X126144968Y-79668425D01*
X126221373Y-79614925D01*
X125589410Y-78982962D01*
X125652993Y-78965925D01*
X125767007Y-78900099D01*
X125860099Y-78807007D01*
X125925925Y-78692993D01*
X125942962Y-78629410D01*
X126574925Y-79261373D01*
X126628425Y-79184968D01*
X126683002Y-79141344D01*
X126752501Y-79134151D01*
X126814855Y-79165673D01*
X126831576Y-79184969D01*
X126885073Y-79261372D01*
X127517037Y-78629409D01*
X127534075Y-78692993D01*
G37*
%TD.AperFunction*%
%TA.AperFunction,Conductor*%
G36*
X130074075Y-78692993D02*
G01*
X130139901Y-78807007D01*
X130232993Y-78900099D01*
X130347007Y-78965925D01*
X130410590Y-78982962D01*
X129778625Y-79614925D01*
X129855031Y-79668425D01*
X129898655Y-79723002D01*
X129905848Y-79792501D01*
X129874326Y-79854855D01*
X129855029Y-79871576D01*
X129778625Y-79925072D01*
X130410590Y-80557037D01*
X130347007Y-80574075D01*
X130232993Y-80639901D01*
X130139901Y-80732993D01*
X130074075Y-80847007D01*
X130057037Y-80910590D01*
X129425072Y-80278625D01*
X129425072Y-80278626D01*
X129371574Y-80355030D01*
X129316998Y-80398655D01*
X129247499Y-80405849D01*
X129185144Y-80374326D01*
X129168424Y-80355030D01*
X129114925Y-80278626D01*
X129114925Y-80278625D01*
X128482962Y-80910589D01*
X128465925Y-80847007D01*
X128400099Y-80732993D01*
X128307007Y-80639901D01*
X128192993Y-80574075D01*
X128129410Y-80557037D01*
X128761373Y-79925073D01*
X128684969Y-79871576D01*
X128641344Y-79816999D01*
X128634150Y-79747501D01*
X128665672Y-79685146D01*
X128684968Y-79668425D01*
X128761373Y-79614925D01*
X128129409Y-78982962D01*
X128192993Y-78965925D01*
X128307007Y-78900099D01*
X128400099Y-78807007D01*
X128465925Y-78692993D01*
X128482962Y-78629410D01*
X129114925Y-79261373D01*
X129168425Y-79184968D01*
X129223002Y-79141344D01*
X129292501Y-79134151D01*
X129354855Y-79165673D01*
X129371576Y-79184969D01*
X129425073Y-79261372D01*
X130057037Y-78629409D01*
X130074075Y-78692993D01*
G37*
%TD.AperFunction*%
%TA.AperFunction,Conductor*%
G36*
X131654925Y-79261373D02*
G01*
X131708119Y-79185405D01*
X131762696Y-79141781D01*
X131832195Y-79134588D01*
X131894549Y-79166110D01*
X131911269Y-79185405D01*
X132041505Y-79371401D01*
X132041506Y-79371402D01*
X132208597Y-79538493D01*
X132208603Y-79538498D01*
X132394158Y-79668425D01*
X132437783Y-79723002D01*
X132444977Y-79792500D01*
X132413454Y-79854855D01*
X132394158Y-79871575D01*
X132208597Y-80001505D01*
X132041505Y-80168597D01*
X131911269Y-80354595D01*
X131856692Y-80398220D01*
X131787194Y-80405414D01*
X131724839Y-80373891D01*
X131708119Y-80354595D01*
X131654925Y-80278626D01*
X131654925Y-80278625D01*
X131022962Y-80910589D01*
X131005925Y-80847007D01*
X130940099Y-80732993D01*
X130847007Y-80639901D01*
X130732993Y-80574075D01*
X130669410Y-80557037D01*
X131301373Y-79925073D01*
X131224969Y-79871576D01*
X131181344Y-79816999D01*
X131174150Y-79747501D01*
X131205672Y-79685146D01*
X131224968Y-79668425D01*
X131301373Y-79614925D01*
X130669409Y-78982962D01*
X130732993Y-78965925D01*
X130847007Y-78900099D01*
X130940099Y-78807007D01*
X131005925Y-78692993D01*
X131022962Y-78629410D01*
X131654925Y-79261373D01*
G37*
%TD.AperFunction*%
%TA.AperFunction,Conductor*%
G36*
X134250548Y-63269661D02*
G01*
X134328882Y-63405338D01*
X134439662Y-63516118D01*
X134575339Y-63594452D01*
X134598020Y-63600529D01*
X134011544Y-64187006D01*
X134011545Y-64187007D01*
X134040762Y-64209747D01*
X134040764Y-64209748D01*
X134243720Y-64319583D01*
X134243729Y-64319586D01*
X134461987Y-64394515D01*
X134689615Y-64432500D01*
X134920385Y-64432500D01*
X135148012Y-64394515D01*
X135366270Y-64319586D01*
X135366286Y-64319579D01*
X135372480Y-64316228D01*
X135440808Y-64301631D01*
X135506181Y-64326292D01*
X135547843Y-64382382D01*
X135555500Y-64425281D01*
X135555500Y-77036359D01*
X135535815Y-77103398D01*
X135483011Y-77149153D01*
X135442309Y-77159887D01*
X135384596Y-77164936D01*
X135384586Y-77164938D01*
X135156344Y-77226094D01*
X135156335Y-77226098D01*
X134942171Y-77325964D01*
X134942169Y-77325965D01*
X134748597Y-77461505D01*
X134581505Y-77628597D01*
X134451575Y-77814158D01*
X134396998Y-77857783D01*
X134327500Y-77864977D01*
X134265145Y-77833454D01*
X134248425Y-77814158D01*
X134118494Y-77628597D01*
X133951402Y-77461506D01*
X133951395Y-77461501D01*
X133757834Y-77325967D01*
X133757830Y-77325965D01*
X133707344Y-77302423D01*
X133543663Y-77226097D01*
X133543659Y-77226096D01*
X133543655Y-77226094D01*
X133315413Y-77164938D01*
X133315403Y-77164936D01*
X133080001Y-77144341D01*
X133079999Y-77144341D01*
X132844596Y-77164936D01*
X132844586Y-77164938D01*
X132616344Y-77226094D01*
X132616335Y-77226098D01*
X132402171Y-77325964D01*
X132402169Y-77325965D01*
X132208597Y-77461505D01*
X132041505Y-77628597D01*
X131911269Y-77814595D01*
X131856692Y-77858220D01*
X131787194Y-77865414D01*
X131724839Y-77833891D01*
X131708119Y-77814595D01*
X131654925Y-77738626D01*
X131654925Y-77738625D01*
X131022962Y-78370589D01*
X131005925Y-78307007D01*
X130940099Y-78192993D01*
X130847007Y-78099901D01*
X130732993Y-78034075D01*
X130669410Y-78017037D01*
X131301373Y-77385073D01*
X131301373Y-77385072D01*
X131217583Y-77326402D01*
X131217579Y-77326400D01*
X131003492Y-77226570D01*
X131003483Y-77226566D01*
X130775326Y-77165432D01*
X130775315Y-77165430D01*
X130540002Y-77144843D01*
X130539998Y-77144843D01*
X130304684Y-77165430D01*
X130304673Y-77165432D01*
X130076516Y-77226566D01*
X130076507Y-77226570D01*
X129862419Y-77326401D01*
X129778625Y-77385072D01*
X130410590Y-78017037D01*
X130347007Y-78034075D01*
X130232993Y-78099901D01*
X130139901Y-78192993D01*
X130074075Y-78307007D01*
X130057037Y-78370590D01*
X129425072Y-77738625D01*
X129425072Y-77738626D01*
X129371574Y-77815030D01*
X129316998Y-77858655D01*
X129247499Y-77865849D01*
X129185144Y-77834326D01*
X129168424Y-77815030D01*
X129114925Y-77738626D01*
X129114925Y-77738625D01*
X128482962Y-78370589D01*
X128465925Y-78307007D01*
X128400099Y-78192993D01*
X128307007Y-78099901D01*
X128192993Y-78034075D01*
X128129410Y-78017037D01*
X128761373Y-77385073D01*
X128761373Y-77385072D01*
X128677583Y-77326402D01*
X128677579Y-77326400D01*
X128463492Y-77226570D01*
X128463483Y-77226566D01*
X128235326Y-77165432D01*
X128235315Y-77165430D01*
X128000002Y-77144843D01*
X127999998Y-77144843D01*
X127764684Y-77165430D01*
X127764673Y-77165432D01*
X127536516Y-77226566D01*
X127536507Y-77226570D01*
X127322419Y-77326401D01*
X127238625Y-77385072D01*
X127870590Y-78017037D01*
X127807007Y-78034075D01*
X127692993Y-78099901D01*
X127599901Y-78192993D01*
X127534075Y-78307007D01*
X127517037Y-78370590D01*
X126885072Y-77738625D01*
X126885072Y-77738626D01*
X126831574Y-77815030D01*
X126776998Y-77858655D01*
X126707499Y-77865849D01*
X126645144Y-77834326D01*
X126628424Y-77815030D01*
X126574925Y-77738626D01*
X126574925Y-77738625D01*
X125942962Y-78370589D01*
X125925925Y-78307007D01*
X125860099Y-78192993D01*
X125767007Y-78099901D01*
X125652993Y-78034075D01*
X125589409Y-78017037D01*
X126221373Y-77385073D01*
X126221373Y-77385072D01*
X126137583Y-77326402D01*
X126137573Y-77326397D01*
X126106376Y-77311849D01*
X126053937Y-77265676D01*
X126034786Y-77198483D01*
X126055003Y-77131602D01*
X126071095Y-77111793D01*
X130730857Y-72452033D01*
X130764363Y-72401889D01*
X130799311Y-72349585D01*
X130846463Y-72235751D01*
X130870500Y-72114905D01*
X130870500Y-66484687D01*
X130890185Y-66417648D01*
X130902350Y-66401715D01*
X130932451Y-66368284D01*
X130977533Y-66318216D01*
X131072179Y-66154284D01*
X131130674Y-65974256D01*
X131150460Y-65786000D01*
X131130674Y-65597744D01*
X131072179Y-65417716D01*
X130977533Y-65253784D01*
X130943378Y-65215851D01*
X130902350Y-65170284D01*
X130872120Y-65107292D01*
X130870500Y-65087312D01*
X130870500Y-64359285D01*
X130890185Y-64292246D01*
X130935484Y-64250230D01*
X131009510Y-64210170D01*
X131191687Y-64068376D01*
X131293772Y-63957481D01*
X131353656Y-63921492D01*
X131423495Y-63923591D01*
X131476227Y-63957481D01*
X131558308Y-64046644D01*
X131578310Y-64068373D01*
X131578319Y-64068381D01*
X131760481Y-64210164D01*
X131760488Y-64210168D01*
X131760490Y-64210170D01*
X131963521Y-64320044D01*
X132181867Y-64395002D01*
X132409573Y-64433000D01*
X132409574Y-64433000D01*
X132640426Y-64433000D01*
X132640427Y-64433000D01*
X132868133Y-64395002D01*
X133086479Y-64320044D01*
X133289510Y-64210170D01*
X133290054Y-64209747D01*
X133438603Y-64094126D01*
X133471687Y-64068376D01*
X133628040Y-63898531D01*
X133687210Y-63807964D01*
X133703329Y-63788116D01*
X134244469Y-63246976D01*
X134250548Y-63269661D01*
G37*
%TD.AperFunction*%
%TA.AperFunction,Conductor*%
G36*
X133984471Y-61878398D02*
G01*
X134023198Y-61904645D01*
X134598022Y-62479469D01*
X134575339Y-62485548D01*
X134439662Y-62563882D01*
X134328882Y-62674662D01*
X134250548Y-62810339D01*
X134244470Y-62833022D01*
X133703331Y-62291884D01*
X133687203Y-62272025D01*
X133675496Y-62254106D01*
X133628040Y-62181469D01*
X133553486Y-62100482D01*
X133522565Y-62037828D01*
X133530425Y-61968402D01*
X133574572Y-61914247D01*
X133640990Y-61892556D01*
X133644717Y-61892500D01*
X133780381Y-61892500D01*
X133780387Y-61892499D01*
X133915106Y-61870017D01*
X133984471Y-61878398D01*
G37*
%TD.AperFunction*%
%TA.AperFunction,Conductor*%
G36*
X135506182Y-59246862D02*
G01*
X135547843Y-59302952D01*
X135555500Y-59345850D01*
X135555500Y-61654718D01*
X135535815Y-61721757D01*
X135483011Y-61767512D01*
X135413853Y-61777456D01*
X135372488Y-61763776D01*
X135366284Y-61760419D01*
X135366270Y-61760413D01*
X135148012Y-61685484D01*
X134920385Y-61647500D01*
X134689614Y-61647500D01*
X134554890Y-61669981D01*
X134485525Y-61661599D01*
X134446800Y-61635353D01*
X133871977Y-61060530D01*
X133894661Y-61054452D01*
X134030338Y-60976118D01*
X134141118Y-60865338D01*
X134219452Y-60729661D01*
X134225529Y-60706977D01*
X134810767Y-61292215D01*
X134893863Y-61165029D01*
X134986564Y-60953691D01*
X135043215Y-60729979D01*
X135062272Y-60500005D01*
X135062272Y-60499994D01*
X135043215Y-60270020D01*
X134986564Y-60046308D01*
X134893865Y-59834975D01*
X134810767Y-59707783D01*
X134225529Y-60293021D01*
X134219452Y-60270339D01*
X134141118Y-60134662D01*
X134030338Y-60023882D01*
X133894661Y-59945548D01*
X133871977Y-59939469D01*
X134446366Y-59365080D01*
X134507689Y-59331595D01*
X134554453Y-59330452D01*
X134689573Y-59353000D01*
X134689575Y-59353000D01*
X134920426Y-59353000D01*
X134920427Y-59353000D01*
X135148133Y-59315002D01*
X135366479Y-59240044D01*
X135369314Y-59238509D01*
X135372482Y-59236796D01*
X135440810Y-59222200D01*
X135506182Y-59246862D01*
G37*
%TD.AperFunction*%
%TA.AperFunction,Conductor*%
G36*
X128550548Y-60729661D02*
G01*
X128628882Y-60865338D01*
X128739662Y-60976118D01*
X128875339Y-61054452D01*
X128898022Y-61060529D01*
X128323632Y-61634918D01*
X128262309Y-61668403D01*
X128215542Y-61669546D01*
X128080427Y-61647000D01*
X127849573Y-61647000D01*
X127811167Y-61653409D01*
X127714457Y-61669547D01*
X127645092Y-61661165D01*
X127606366Y-61634919D01*
X127031977Y-61060530D01*
X127054661Y-61054452D01*
X127190338Y-60976118D01*
X127301118Y-60865338D01*
X127379452Y-60729661D01*
X127385530Y-60706977D01*
X127965000Y-61286447D01*
X128544469Y-60706977D01*
X128550548Y-60729661D01*
G37*
%TD.AperFunction*%
%TA.AperFunction,Conductor*%
G36*
X130206670Y-61248117D02*
G01*
X130222797Y-61267976D01*
X130281463Y-61357771D01*
X130281960Y-61358531D01*
X130356053Y-61439018D01*
X130386975Y-61501672D01*
X130379115Y-61571098D01*
X130334968Y-61625253D01*
X130268550Y-61646944D01*
X130264823Y-61647000D01*
X130129573Y-61647000D01*
X130091167Y-61653409D01*
X129994457Y-61669547D01*
X129925092Y-61661165D01*
X129886366Y-61634919D01*
X129311977Y-61060530D01*
X129334661Y-61054452D01*
X129470338Y-60976118D01*
X129581118Y-60865338D01*
X129659452Y-60729661D01*
X129665530Y-60706977D01*
X130206670Y-61248117D01*
G37*
%TD.AperFunction*%
%TA.AperFunction,Conductor*%
G36*
X133110548Y-60729661D02*
G01*
X133188882Y-60865338D01*
X133299662Y-60976118D01*
X133435339Y-61054452D01*
X133458022Y-61060529D01*
X132883632Y-61634918D01*
X132822309Y-61668403D01*
X132775542Y-61669546D01*
X132640427Y-61647000D01*
X132505177Y-61647000D01*
X132438138Y-61627315D01*
X132392383Y-61574511D01*
X132382439Y-61505353D01*
X132411464Y-61441797D01*
X132413947Y-61439018D01*
X132434077Y-61417150D01*
X132488040Y-61358531D01*
X132547210Y-61267964D01*
X132563329Y-61248116D01*
X133104469Y-60706976D01*
X133110548Y-60729661D01*
G37*
%TD.AperFunction*%
%TA.AperFunction,Conductor*%
G36*
X126270548Y-60729661D02*
G01*
X126348882Y-60865338D01*
X126459662Y-60976118D01*
X126595339Y-61054452D01*
X126618022Y-61060530D01*
X126067871Y-61610681D01*
X126006548Y-61644166D01*
X125980190Y-61647000D01*
X125389809Y-61647000D01*
X125322770Y-61627315D01*
X125302128Y-61610681D01*
X124751977Y-61060530D01*
X124774661Y-61054452D01*
X124910338Y-60976118D01*
X125021118Y-60865338D01*
X125099452Y-60729661D01*
X125105530Y-60706977D01*
X125685000Y-61286447D01*
X126264469Y-60706977D01*
X126270548Y-60729661D01*
G37*
%TD.AperFunction*%
%TA.AperFunction,Conductor*%
G36*
X126004907Y-59338834D02*
G01*
X126043633Y-59365080D01*
X126618022Y-59939469D01*
X126595339Y-59945548D01*
X126459662Y-60023882D01*
X126348882Y-60134662D01*
X126270548Y-60270339D01*
X126264469Y-60293022D01*
X125685000Y-59713553D01*
X125105530Y-60293022D01*
X125099452Y-60270339D01*
X125021118Y-60134662D01*
X124910338Y-60023882D01*
X124774661Y-59945548D01*
X124751977Y-59939469D01*
X125326366Y-59365080D01*
X125387689Y-59331595D01*
X125434453Y-59330452D01*
X125569573Y-59353000D01*
X125569575Y-59353000D01*
X125800425Y-59353000D01*
X125800427Y-59353000D01*
X125935544Y-59330452D01*
X126004907Y-59338834D01*
G37*
%TD.AperFunction*%
%TA.AperFunction,Conductor*%
G36*
X128284907Y-59338834D02*
G01*
X128323633Y-59365080D01*
X128898022Y-59939469D01*
X128875339Y-59945548D01*
X128739662Y-60023882D01*
X128628882Y-60134662D01*
X128550548Y-60270339D01*
X128544469Y-60293022D01*
X127965000Y-59713553D01*
X127385530Y-60293022D01*
X127379452Y-60270339D01*
X127301118Y-60134662D01*
X127190338Y-60023882D01*
X127054661Y-59945548D01*
X127031977Y-59939469D01*
X127606366Y-59365080D01*
X127667689Y-59331595D01*
X127714453Y-59330452D01*
X127849573Y-59353000D01*
X127849575Y-59353000D01*
X128080425Y-59353000D01*
X128080427Y-59353000D01*
X128215544Y-59330452D01*
X128284907Y-59338834D01*
G37*
%TD.AperFunction*%
%TA.AperFunction,Conductor*%
G36*
X132844907Y-59338834D02*
G01*
X132883633Y-59365080D01*
X133458022Y-59939469D01*
X133435339Y-59945548D01*
X133299662Y-60023882D01*
X133188882Y-60134662D01*
X133110548Y-60270339D01*
X133104469Y-60293022D01*
X132563331Y-59751884D01*
X132547203Y-59732025D01*
X132547202Y-59732023D01*
X132488040Y-59641469D01*
X132413946Y-59560981D01*
X132383025Y-59498328D01*
X132390885Y-59428902D01*
X132435032Y-59374747D01*
X132501450Y-59353056D01*
X132505177Y-59353000D01*
X132640425Y-59353000D01*
X132640427Y-59353000D01*
X132775544Y-59330452D01*
X132844907Y-59338834D01*
G37*
%TD.AperFunction*%
%TA.AperFunction,Conductor*%
G36*
X130129573Y-59353000D02*
G01*
X130129575Y-59353000D01*
X130264823Y-59353000D01*
X130331862Y-59372685D01*
X130377617Y-59425489D01*
X130387561Y-59494647D01*
X130358536Y-59558203D01*
X130356071Y-59560961D01*
X130337674Y-59580947D01*
X130281959Y-59641469D01*
X130222797Y-59732023D01*
X130206670Y-59751881D01*
X129665529Y-60293021D01*
X129659452Y-60270339D01*
X129581118Y-60134662D01*
X129470338Y-60023882D01*
X129334661Y-59945548D01*
X129311977Y-59939469D01*
X129886366Y-59365080D01*
X129947689Y-59331595D01*
X129994453Y-59330452D01*
X130129573Y-59353000D01*
G37*
%TD.AperFunction*%
%TA.AperFunction,Conductor*%
G36*
X155567355Y-79126546D02*
G01*
X155584075Y-79145842D01*
X155714000Y-79331395D01*
X155714005Y-79331401D01*
X155881099Y-79498495D01*
X156066658Y-79628425D01*
X156067094Y-79628730D01*
X156110718Y-79683307D01*
X156117911Y-79752806D01*
X156086389Y-79815160D01*
X156067093Y-79831880D01*
X155991126Y-79885072D01*
X155991125Y-79885072D01*
X156623090Y-80517037D01*
X156559507Y-80534075D01*
X156445493Y-80599901D01*
X156352401Y-80692993D01*
X156286575Y-80807007D01*
X156269537Y-80870590D01*
X155637573Y-80238626D01*
X155584381Y-80314594D01*
X155529804Y-80358219D01*
X155460306Y-80365413D01*
X155397951Y-80333891D01*
X155381230Y-80314594D01*
X155250994Y-80128597D01*
X155083902Y-79961506D01*
X155083896Y-79961501D01*
X154898342Y-79831575D01*
X154854717Y-79776998D01*
X154847523Y-79707500D01*
X154879046Y-79645145D01*
X154898342Y-79628425D01*
X154927443Y-79608048D01*
X155083901Y-79498495D01*
X155250995Y-79331401D01*
X155380925Y-79145842D01*
X155435502Y-79102217D01*
X155505000Y-79095023D01*
X155567355Y-79126546D01*
G37*
%TD.AperFunction*%
%TA.AperFunction,Conductor*%
G36*
X160407425Y-79221373D02*
G01*
X160460619Y-79145405D01*
X160515196Y-79101781D01*
X160584695Y-79094588D01*
X160647049Y-79126110D01*
X160663769Y-79145405D01*
X160794005Y-79331401D01*
X160961099Y-79498495D01*
X161146658Y-79628425D01*
X161147094Y-79628730D01*
X161190718Y-79683307D01*
X161197911Y-79752806D01*
X161166389Y-79815160D01*
X161147093Y-79831880D01*
X161071126Y-79885072D01*
X161071125Y-79885072D01*
X161703090Y-80517037D01*
X161639507Y-80534075D01*
X161525493Y-80599901D01*
X161432401Y-80692993D01*
X161366575Y-80807007D01*
X161349537Y-80870590D01*
X160717572Y-80238625D01*
X160717572Y-80238626D01*
X160664074Y-80315030D01*
X160609498Y-80358655D01*
X160539999Y-80365849D01*
X160477644Y-80334326D01*
X160460924Y-80315030D01*
X160407425Y-80238626D01*
X160407425Y-80238625D01*
X159775462Y-80870589D01*
X159758425Y-80807007D01*
X159692599Y-80692993D01*
X159599507Y-80599901D01*
X159485493Y-80534075D01*
X159421910Y-80517037D01*
X160053873Y-79885073D01*
X159977469Y-79831576D01*
X159933844Y-79776999D01*
X159926650Y-79707501D01*
X159958172Y-79645146D01*
X159977468Y-79628425D01*
X160053873Y-79574925D01*
X159421909Y-78942962D01*
X159485493Y-78925925D01*
X159599507Y-78860099D01*
X159692599Y-78767007D01*
X159758425Y-78652993D01*
X159775462Y-78589410D01*
X160407425Y-79221373D01*
G37*
%TD.AperFunction*%
%TA.AperFunction,Conductor*%
G36*
X158826575Y-78652993D02*
G01*
X158892401Y-78767007D01*
X158985493Y-78860099D01*
X159099507Y-78925925D01*
X159163090Y-78942962D01*
X158531125Y-79574925D01*
X158607531Y-79628425D01*
X158651155Y-79683002D01*
X158658348Y-79752501D01*
X158626826Y-79814855D01*
X158607529Y-79831576D01*
X158531125Y-79885072D01*
X159163090Y-80517037D01*
X159099507Y-80534075D01*
X158985493Y-80599901D01*
X158892401Y-80692993D01*
X158826575Y-80807007D01*
X158809537Y-80870589D01*
X158177573Y-80238625D01*
X158177572Y-80238626D01*
X158124074Y-80315030D01*
X158069498Y-80358655D01*
X157999999Y-80365849D01*
X157937644Y-80334326D01*
X157920924Y-80315030D01*
X157867425Y-80238626D01*
X157867425Y-80238625D01*
X157235462Y-80870589D01*
X157218425Y-80807007D01*
X157152599Y-80692993D01*
X157059507Y-80599901D01*
X156945493Y-80534075D01*
X156881910Y-80517037D01*
X157513873Y-79885073D01*
X157513873Y-79885072D01*
X157437905Y-79831880D01*
X157394280Y-79777304D01*
X157387086Y-79707805D01*
X157418608Y-79645451D01*
X157437899Y-79628734D01*
X157623901Y-79498495D01*
X157790995Y-79331401D01*
X157921232Y-79145403D01*
X157975807Y-79101780D01*
X158045305Y-79094586D01*
X158107660Y-79126109D01*
X158124380Y-79145405D01*
X158177573Y-79221373D01*
X158809537Y-78589409D01*
X158826575Y-78652993D01*
G37*
%TD.AperFunction*%
%TA.AperFunction,Conductor*%
G36*
X215443039Y-49519685D02*
G01*
X215488794Y-49572489D01*
X215500000Y-49624000D01*
X215500000Y-86376000D01*
X215480315Y-86443039D01*
X215427511Y-86488794D01*
X215376000Y-86500000D01*
X104624000Y-86500000D01*
X104556961Y-86480315D01*
X104511206Y-86427511D01*
X104500000Y-86376000D01*
X104500000Y-83820000D01*
X189086540Y-83820000D01*
X189106326Y-84008256D01*
X189106327Y-84008259D01*
X189164818Y-84188277D01*
X189164821Y-84188284D01*
X189259467Y-84352216D01*
X189386129Y-84492888D01*
X189539265Y-84604148D01*
X189539270Y-84604151D01*
X189712192Y-84681142D01*
X189712197Y-84681144D01*
X189897354Y-84720500D01*
X189897355Y-84720500D01*
X190086644Y-84720500D01*
X190086646Y-84720500D01*
X190271803Y-84681144D01*
X190444730Y-84604151D01*
X190597871Y-84492888D01*
X190724533Y-84352216D01*
X190819179Y-84188284D01*
X190877674Y-84008256D01*
X190897460Y-83820000D01*
X190877674Y-83631744D01*
X190819179Y-83451716D01*
X190724533Y-83287784D01*
X190675310Y-83233116D01*
X190649350Y-83204284D01*
X190619120Y-83141292D01*
X190617500Y-83121312D01*
X190617500Y-76644687D01*
X190637185Y-76577648D01*
X190649350Y-76561715D01*
X190667891Y-76541122D01*
X190724533Y-76478216D01*
X190819179Y-76314284D01*
X190877674Y-76134256D01*
X190895321Y-75966344D01*
X190921904Y-75901734D01*
X190930951Y-75891638D01*
X192255858Y-74566733D01*
X192324312Y-74464285D01*
X192371463Y-74350451D01*
X192375307Y-74331128D01*
X192395500Y-74229606D01*
X192395500Y-66738687D01*
X192415185Y-66671648D01*
X192427350Y-66655715D01*
X192449340Y-66631292D01*
X192502533Y-66572216D01*
X192539160Y-66508775D01*
X192589726Y-66460561D01*
X192658333Y-66447337D01*
X192723198Y-66473305D01*
X192753935Y-66508777D01*
X192767467Y-66532216D01*
X192842650Y-66615715D01*
X192872880Y-66678706D01*
X192874500Y-66698687D01*
X192874500Y-77737609D01*
X192883364Y-77782170D01*
X192893046Y-77830848D01*
X192896698Y-77849207D01*
X192898536Y-77858448D01*
X192898536Y-77858449D01*
X192898537Y-77858451D01*
X192902607Y-77868277D01*
X192945688Y-77972286D01*
X192945690Y-77972290D01*
X192968687Y-78006706D01*
X192968688Y-78006707D01*
X193014141Y-78074732D01*
X193014144Y-78074736D01*
X193105586Y-78166178D01*
X193105608Y-78166198D01*
X194387038Y-79447628D01*
X194420523Y-79508951D01*
X194422678Y-79522347D01*
X194428661Y-79579272D01*
X194440326Y-79690256D01*
X194440327Y-79690259D01*
X194498818Y-79870277D01*
X194498821Y-79870284D01*
X194593467Y-80034216D01*
X194681532Y-80132022D01*
X194720129Y-80174888D01*
X194873265Y-80286148D01*
X194873270Y-80286151D01*
X195046192Y-80363142D01*
X195046197Y-80363144D01*
X195231354Y-80402500D01*
X195231355Y-80402500D01*
X195420642Y-80402500D01*
X195420646Y-80402500D01*
X195441721Y-80398020D01*
X195511384Y-80403335D01*
X195567118Y-80445471D01*
X195591225Y-80511050D01*
X195591500Y-80519310D01*
X195591500Y-83285677D01*
X195574887Y-83347677D01*
X195514821Y-83451714D01*
X195456327Y-83631740D01*
X195456326Y-83631744D01*
X195436540Y-83820000D01*
X195456326Y-84008256D01*
X195456327Y-84008259D01*
X195514818Y-84188277D01*
X195514821Y-84188284D01*
X195609467Y-84352216D01*
X195736129Y-84492888D01*
X195889265Y-84604148D01*
X195889270Y-84604151D01*
X196062192Y-84681142D01*
X196062197Y-84681144D01*
X196247354Y-84720500D01*
X196247355Y-84720500D01*
X196436644Y-84720500D01*
X196436646Y-84720500D01*
X196621803Y-84681144D01*
X196794730Y-84604151D01*
X196947871Y-84492888D01*
X197074533Y-84352216D01*
X197169179Y-84188284D01*
X197227674Y-84008256D01*
X197247460Y-83820000D01*
X197227674Y-83631744D01*
X197169179Y-83451716D01*
X197116887Y-83361142D01*
X197109113Y-83347677D01*
X197092500Y-83285677D01*
X197092500Y-80000002D01*
X206644579Y-80000002D01*
X206664248Y-80362782D01*
X206664250Y-80362799D01*
X206723024Y-80721303D01*
X206723030Y-80721329D01*
X206820221Y-81071381D01*
X206820226Y-81071396D01*
X206954700Y-81408901D01*
X206954706Y-81408913D01*
X207124878Y-81729892D01*
X207124881Y-81729897D01*
X207124883Y-81729900D01*
X207173343Y-81801373D01*
X207328772Y-82030613D01*
X207544692Y-82284814D01*
X207563979Y-82307521D01*
X207827746Y-82557375D01*
X208116981Y-82777245D01*
X208428292Y-82964555D01*
X208428294Y-82964556D01*
X208428296Y-82964557D01*
X208428300Y-82964559D01*
X208574535Y-83032214D01*
X208758031Y-83117108D01*
X209102330Y-83233116D01*
X209457153Y-83311218D01*
X209818341Y-83350500D01*
X209818347Y-83350500D01*
X210181653Y-83350500D01*
X210181659Y-83350500D01*
X210542847Y-83311218D01*
X210897670Y-83233116D01*
X211241969Y-83117108D01*
X211571708Y-82964555D01*
X211883019Y-82777245D01*
X212172254Y-82557375D01*
X212436021Y-82307521D01*
X212671227Y-82030614D01*
X212875117Y-81729900D01*
X213045298Y-81408905D01*
X213179775Y-81071391D01*
X213188491Y-81040001D01*
X213276969Y-80721329D01*
X213276973Y-80721316D01*
X213317794Y-80472321D01*
X213335749Y-80362799D01*
X213335751Y-80362782D01*
X213335999Y-80358219D01*
X213351047Y-80080665D01*
X213355421Y-80000002D01*
X213355421Y-79999997D01*
X213339979Y-79715187D01*
X213335751Y-79637215D01*
X213334849Y-79631716D01*
X213276975Y-79278696D01*
X213276974Y-79278695D01*
X213276973Y-79278684D01*
X213225859Y-79094588D01*
X213179778Y-78928618D01*
X213179773Y-78928603D01*
X213045299Y-78591098D01*
X213045298Y-78591095D01*
X212875117Y-78270100D01*
X212671227Y-77969386D01*
X212436021Y-77692479D01*
X212172254Y-77442625D01*
X212172244Y-77442617D01*
X212092296Y-77381843D01*
X211883019Y-77222755D01*
X211571708Y-77035445D01*
X211571707Y-77035444D01*
X211571703Y-77035442D01*
X211571699Y-77035440D01*
X211241979Y-76882896D01*
X211241974Y-76882894D01*
X211241969Y-76882892D01*
X211074143Y-76826344D01*
X210897669Y-76766883D01*
X210542845Y-76688781D01*
X210181660Y-76649500D01*
X210181659Y-76649500D01*
X209818341Y-76649500D01*
X209818339Y-76649500D01*
X209457154Y-76688781D01*
X209102330Y-76766883D01*
X208836178Y-76856560D01*
X208758031Y-76882892D01*
X208758028Y-76882893D01*
X208758020Y-76882896D01*
X208428300Y-77035440D01*
X208428296Y-77035442D01*
X208249707Y-77142896D01*
X208116981Y-77222755D01*
X208065930Y-77261563D01*
X207827755Y-77442617D01*
X207827745Y-77442625D01*
X207563978Y-77692479D01*
X207328772Y-77969386D01*
X207124884Y-78270098D01*
X207124878Y-78270107D01*
X206954706Y-78591086D01*
X206954700Y-78591098D01*
X206820226Y-78928603D01*
X206820221Y-78928618D01*
X206723030Y-79278670D01*
X206723024Y-79278696D01*
X206664250Y-79637200D01*
X206664248Y-79637217D01*
X206644579Y-79999997D01*
X206644579Y-80000002D01*
X197092500Y-80000002D01*
X197092500Y-78255229D01*
X197112185Y-78188190D01*
X197128814Y-78167553D01*
X199898499Y-75397867D01*
X199959820Y-75364384D01*
X199996984Y-75362022D01*
X200151011Y-75375498D01*
X200209999Y-75380659D01*
X200210000Y-75380659D01*
X200210001Y-75380659D01*
X200268966Y-75375500D01*
X200445408Y-75360063D01*
X200673663Y-75298903D01*
X200887830Y-75199035D01*
X201081401Y-75063495D01*
X201203329Y-74941566D01*
X201264648Y-74908084D01*
X201334340Y-74913068D01*
X201390274Y-74954939D01*
X201407189Y-74985917D01*
X201456202Y-75117328D01*
X201456206Y-75117335D01*
X201542452Y-75232544D01*
X201542455Y-75232547D01*
X201657664Y-75318793D01*
X201657671Y-75318797D01*
X201792517Y-75369091D01*
X201792516Y-75369091D01*
X201799444Y-75369835D01*
X201852127Y-75375500D01*
X203647872Y-75375499D01*
X203707483Y-75369091D01*
X203842331Y-75318796D01*
X203957546Y-75232546D01*
X204043796Y-75117331D01*
X204094091Y-74982483D01*
X204100500Y-74922873D01*
X204100499Y-74025000D01*
X204100499Y-73127129D01*
X204100498Y-73127123D01*
X204094091Y-73067516D01*
X204043797Y-72932671D01*
X204043793Y-72932664D01*
X203957547Y-72817455D01*
X203957544Y-72817452D01*
X203842335Y-72731206D01*
X203842328Y-72731202D01*
X203707482Y-72680908D01*
X203707483Y-72680908D01*
X203647883Y-72674501D01*
X203647881Y-72674500D01*
X203647873Y-72674500D01*
X203647864Y-72674500D01*
X201852129Y-72674500D01*
X201852123Y-72674501D01*
X201792516Y-72680908D01*
X201657671Y-72731202D01*
X201657664Y-72731206D01*
X201542455Y-72817452D01*
X201542452Y-72817455D01*
X201456206Y-72932664D01*
X201456203Y-72932669D01*
X201407189Y-73064083D01*
X201365317Y-73120016D01*
X201299853Y-73144433D01*
X201231580Y-73129581D01*
X201203326Y-73108430D01*
X201081402Y-72986506D01*
X201081395Y-72986501D01*
X201061932Y-72972873D01*
X201004518Y-72932671D01*
X200887834Y-72850967D01*
X200887830Y-72850965D01*
X200824196Y-72821292D01*
X200673663Y-72751097D01*
X200673659Y-72751096D01*
X200673655Y-72751094D01*
X200445413Y-72689938D01*
X200445403Y-72689936D01*
X200210001Y-72669341D01*
X200209999Y-72669341D01*
X199974596Y-72689936D01*
X199974586Y-72689938D01*
X199746344Y-72751094D01*
X199746335Y-72751098D01*
X199532171Y-72850964D01*
X199532169Y-72850965D01*
X199338597Y-72986505D01*
X199171508Y-73153594D01*
X199083823Y-73278821D01*
X199029245Y-73322446D01*
X198959747Y-73329638D01*
X198897392Y-73298116D01*
X198864317Y-73246015D01*
X198827181Y-73131721D01*
X198827178Y-73131715D01*
X198824530Y-73127129D01*
X198732533Y-72967784D01*
X198700917Y-72932671D01*
X198657350Y-72884284D01*
X198627120Y-72821292D01*
X198625500Y-72801312D01*
X198625500Y-69535000D01*
X208144341Y-69535000D01*
X208164936Y-69770403D01*
X208164938Y-69770413D01*
X208226094Y-69998655D01*
X208226096Y-69998659D01*
X208226097Y-69998663D01*
X208269672Y-70092110D01*
X208325965Y-70212830D01*
X208325967Y-70212834D01*
X208434281Y-70367521D01*
X208461501Y-70406396D01*
X208461506Y-70406402D01*
X208583430Y-70528326D01*
X208616915Y-70589649D01*
X208611931Y-70659341D01*
X208570059Y-70715274D01*
X208539083Y-70732189D01*
X208407669Y-70781203D01*
X208407664Y-70781206D01*
X208292455Y-70867452D01*
X208292452Y-70867455D01*
X208206206Y-70982664D01*
X208206202Y-70982671D01*
X208155908Y-71117517D01*
X208149977Y-71172691D01*
X208149501Y-71177123D01*
X208149500Y-71177135D01*
X208149500Y-72972870D01*
X208149501Y-72972876D01*
X208155908Y-73032483D01*
X208206202Y-73167328D01*
X208206206Y-73167335D01*
X208292452Y-73282544D01*
X208292455Y-73282547D01*
X208407664Y-73368793D01*
X208407671Y-73368797D01*
X208542517Y-73419091D01*
X208542516Y-73419091D01*
X208549444Y-73419835D01*
X208602127Y-73425500D01*
X210397872Y-73425499D01*
X210457483Y-73419091D01*
X210592331Y-73368796D01*
X210707546Y-73282546D01*
X210793796Y-73167331D01*
X210844091Y-73032483D01*
X210850500Y-72972873D01*
X210850499Y-71177128D01*
X210844091Y-71117517D01*
X210836607Y-71097452D01*
X210793797Y-70982671D01*
X210793793Y-70982664D01*
X210707547Y-70867455D01*
X210707544Y-70867452D01*
X210592335Y-70781206D01*
X210592328Y-70781202D01*
X210460917Y-70732189D01*
X210404983Y-70690318D01*
X210380566Y-70624853D01*
X210395418Y-70556580D01*
X210416563Y-70528332D01*
X210538495Y-70406401D01*
X210674035Y-70212830D01*
X210773903Y-69998663D01*
X210835063Y-69770408D01*
X210855659Y-69535000D01*
X210835063Y-69299592D01*
X210781552Y-69099884D01*
X210773905Y-69071344D01*
X210773904Y-69071343D01*
X210773903Y-69071337D01*
X210674035Y-68857171D01*
X210538495Y-68663599D01*
X210538494Y-68663597D01*
X210371402Y-68496506D01*
X210371401Y-68496505D01*
X210185405Y-68366269D01*
X210141781Y-68311692D01*
X210134588Y-68242193D01*
X210166110Y-68179839D01*
X210185405Y-68163119D01*
X210371082Y-68033105D01*
X210538105Y-67866082D01*
X210673600Y-67672578D01*
X210773429Y-67458492D01*
X210773432Y-67458486D01*
X210830636Y-67245000D01*
X209933012Y-67245000D01*
X209965925Y-67187993D01*
X210000000Y-67060826D01*
X210000000Y-66929174D01*
X209965925Y-66802007D01*
X209933012Y-66745000D01*
X210830636Y-66745000D01*
X210830635Y-66744999D01*
X210773432Y-66531513D01*
X210773429Y-66531507D01*
X210673600Y-66317422D01*
X210673599Y-66317420D01*
X210538113Y-66123926D01*
X210538108Y-66123920D01*
X210371078Y-65956890D01*
X210185405Y-65826879D01*
X210141780Y-65772302D01*
X210134588Y-65702804D01*
X210166110Y-65640449D01*
X210185406Y-65623730D01*
X210371401Y-65493495D01*
X210538495Y-65326401D01*
X210674035Y-65132830D01*
X210773903Y-64918663D01*
X210835063Y-64690408D01*
X210855659Y-64455000D01*
X210853690Y-64432500D01*
X210843852Y-64320045D01*
X210835063Y-64219592D01*
X210788626Y-64046285D01*
X210773905Y-63991344D01*
X210773904Y-63991343D01*
X210773903Y-63991337D01*
X210674035Y-63777171D01*
X210623688Y-63705267D01*
X210538494Y-63583597D01*
X210371402Y-63416506D01*
X210371396Y-63416501D01*
X210185842Y-63286575D01*
X210142217Y-63231998D01*
X210135023Y-63162500D01*
X210166546Y-63100145D01*
X210185842Y-63083425D01*
X210247859Y-63040000D01*
X210371401Y-62953495D01*
X210538495Y-62786401D01*
X210674035Y-62592830D01*
X210773903Y-62378663D01*
X210835063Y-62150408D01*
X210855659Y-61915000D01*
X210853690Y-61892500D01*
X210845501Y-61798895D01*
X210835063Y-61679592D01*
X210773903Y-61451337D01*
X210674035Y-61237171D01*
X210661477Y-61219235D01*
X210538494Y-61043597D01*
X210371402Y-60876506D01*
X210371395Y-60876501D01*
X210177834Y-60740967D01*
X210177830Y-60740965D01*
X210154457Y-60730066D01*
X209963663Y-60641097D01*
X209963659Y-60641096D01*
X209963655Y-60641094D01*
X209735413Y-60579938D01*
X209735403Y-60579936D01*
X209500001Y-60559341D01*
X209499999Y-60559341D01*
X209264596Y-60579936D01*
X209264586Y-60579938D01*
X209036344Y-60641094D01*
X209036335Y-60641098D01*
X208822171Y-60740964D01*
X208822169Y-60740965D01*
X208628597Y-60876505D01*
X208461505Y-61043597D01*
X208325965Y-61237169D01*
X208325964Y-61237171D01*
X208226098Y-61451335D01*
X208226094Y-61451344D01*
X208164938Y-61679586D01*
X208164936Y-61679596D01*
X208144341Y-61914999D01*
X208144341Y-61915000D01*
X208164936Y-62150403D01*
X208164938Y-62150413D01*
X208226094Y-62378655D01*
X208226096Y-62378659D01*
X208226097Y-62378663D01*
X208294029Y-62524343D01*
X208325965Y-62592830D01*
X208325967Y-62592834D01*
X208461501Y-62786395D01*
X208461506Y-62786402D01*
X208628597Y-62953493D01*
X208628603Y-62953498D01*
X208814158Y-63083425D01*
X208857783Y-63138002D01*
X208864977Y-63207500D01*
X208833454Y-63269855D01*
X208814158Y-63286575D01*
X208628597Y-63416505D01*
X208461505Y-63583597D01*
X208325965Y-63777169D01*
X208325964Y-63777171D01*
X208226098Y-63991335D01*
X208226094Y-63991344D01*
X208164938Y-64219586D01*
X208164936Y-64219596D01*
X208144341Y-64454999D01*
X208144341Y-64455000D01*
X208164936Y-64690403D01*
X208164938Y-64690413D01*
X208226094Y-64918655D01*
X208226096Y-64918659D01*
X208226097Y-64918663D01*
X208304740Y-65087312D01*
X208325965Y-65132830D01*
X208325967Y-65132834D01*
X208461501Y-65326395D01*
X208461506Y-65326402D01*
X208628597Y-65493493D01*
X208628603Y-65493498D01*
X208649006Y-65507784D01*
X208785055Y-65603047D01*
X208814594Y-65623730D01*
X208858219Y-65678307D01*
X208865413Y-65747805D01*
X208833890Y-65810160D01*
X208814595Y-65826880D01*
X208628922Y-65956890D01*
X208628920Y-65956891D01*
X208461891Y-66123920D01*
X208461886Y-66123926D01*
X208326400Y-66317420D01*
X208326399Y-66317422D01*
X208226570Y-66531507D01*
X208226567Y-66531513D01*
X208169364Y-66744999D01*
X208169364Y-66745000D01*
X209066988Y-66745000D01*
X209034075Y-66802007D01*
X209000000Y-66929174D01*
X209000000Y-67060826D01*
X209034075Y-67187993D01*
X209066988Y-67245000D01*
X208169364Y-67245000D01*
X208226567Y-67458486D01*
X208226570Y-67458492D01*
X208326399Y-67672578D01*
X208461894Y-67866082D01*
X208628917Y-68033105D01*
X208814595Y-68163119D01*
X208858219Y-68217696D01*
X208865412Y-68287195D01*
X208833890Y-68349549D01*
X208814595Y-68366269D01*
X208628594Y-68496508D01*
X208461505Y-68663597D01*
X208325965Y-68857169D01*
X208325964Y-68857171D01*
X208226098Y-69071335D01*
X208226094Y-69071344D01*
X208164938Y-69299586D01*
X208164936Y-69299596D01*
X208144341Y-69534999D01*
X208144341Y-69535000D01*
X198625500Y-69535000D01*
X198625500Y-67994354D01*
X198645185Y-67927315D01*
X198697989Y-67881560D01*
X198723710Y-67873066D01*
X198779803Y-67861144D01*
X198779807Y-67861142D01*
X198779808Y-67861142D01*
X198838058Y-67835206D01*
X198952730Y-67784151D01*
X199105871Y-67672888D01*
X199232533Y-67532216D01*
X199327179Y-67368284D01*
X199385674Y-67188256D01*
X199405460Y-67000000D01*
X199385674Y-66811744D01*
X199327179Y-66631716D01*
X199232533Y-66467784D01*
X199105871Y-66327112D01*
X199100342Y-66323095D01*
X198952734Y-66215851D01*
X198952729Y-66215848D01*
X198779807Y-66138857D01*
X198779802Y-66138855D01*
X198597840Y-66100179D01*
X198594646Y-66099500D01*
X198405354Y-66099500D01*
X198405349Y-66099500D01*
X198398886Y-66100179D01*
X198398703Y-66098440D01*
X198337586Y-66093763D01*
X198281862Y-66051613D01*
X198274111Y-66039799D01*
X198236271Y-65974259D01*
X198232533Y-65967784D01*
X198105871Y-65827112D01*
X198105552Y-65826880D01*
X197952734Y-65715851D01*
X197952729Y-65715848D01*
X197779807Y-65638857D01*
X197779802Y-65638855D01*
X197611333Y-65603047D01*
X197594646Y-65599500D01*
X197405354Y-65599500D01*
X197388667Y-65603047D01*
X197220197Y-65638855D01*
X197220192Y-65638857D01*
X197047270Y-65715848D01*
X197047267Y-65715850D01*
X197011241Y-65742024D01*
X196945434Y-65765502D01*
X196877380Y-65749675D01*
X196846208Y-65724676D01*
X196798992Y-65672238D01*
X196780871Y-65652112D01*
X196780870Y-65652111D01*
X196627734Y-65540851D01*
X196627729Y-65540848D01*
X196454807Y-65463857D01*
X196454802Y-65463855D01*
X196309001Y-65432865D01*
X196269646Y-65424500D01*
X196080354Y-65424500D01*
X196040999Y-65432865D01*
X195895198Y-65463855D01*
X195895197Y-65463855D01*
X195858857Y-65480035D01*
X195789607Y-65489318D01*
X195726331Y-65459688D01*
X195716274Y-65449727D01*
X195605871Y-65327112D01*
X195604894Y-65326402D01*
X195452734Y-65215851D01*
X195452729Y-65215848D01*
X195279807Y-65138857D01*
X195279802Y-65138855D01*
X195131305Y-65107292D01*
X195094646Y-65099500D01*
X194905354Y-65099500D01*
X194872897Y-65106398D01*
X194720197Y-65138855D01*
X194720192Y-65138857D01*
X194547270Y-65215848D01*
X194547265Y-65215851D01*
X194394132Y-65327109D01*
X194394129Y-65327111D01*
X194394129Y-65327112D01*
X194342148Y-65384841D01*
X194282663Y-65421489D01*
X194212806Y-65420158D01*
X194157851Y-65384841D01*
X194105871Y-65327112D01*
X194104894Y-65326402D01*
X193952734Y-65215851D01*
X193952729Y-65215848D01*
X193779807Y-65138857D01*
X193779802Y-65138855D01*
X193631305Y-65107292D01*
X193594646Y-65099500D01*
X193405354Y-65099500D01*
X193372897Y-65106398D01*
X193220197Y-65138855D01*
X193220192Y-65138857D01*
X193047270Y-65215848D01*
X193047265Y-65215851D01*
X192894129Y-65327111D01*
X192767465Y-65467785D01*
X192730840Y-65531223D01*
X192680273Y-65579439D01*
X192611666Y-65592661D01*
X192546801Y-65566693D01*
X192516066Y-65531223D01*
X192502534Y-65507785D01*
X192375870Y-65367111D01*
X192222734Y-65255851D01*
X192222729Y-65255848D01*
X192049807Y-65178857D01*
X192049802Y-65178855D01*
X191904001Y-65147865D01*
X191864646Y-65139500D01*
X191675354Y-65139500D01*
X191642897Y-65146398D01*
X191490197Y-65178855D01*
X191490192Y-65178857D01*
X191317270Y-65255848D01*
X191317265Y-65255851D01*
X191164129Y-65367111D01*
X191037466Y-65507785D01*
X190942821Y-65671715D01*
X190942818Y-65671722D01*
X190892329Y-65827112D01*
X190884326Y-65851744D01*
X190864540Y-66040000D01*
X190884326Y-66228256D01*
X190884327Y-66228259D01*
X190942818Y-66408277D01*
X190942820Y-66408282D01*
X190942821Y-66408284D01*
X191037467Y-66572216D01*
X191057893Y-66594901D01*
X191112650Y-66655715D01*
X191142880Y-66718706D01*
X191144500Y-66738687D01*
X191144500Y-73857547D01*
X191124815Y-73924586D01*
X191108181Y-73945228D01*
X190044229Y-75009181D01*
X189982906Y-75042666D01*
X189956548Y-75045500D01*
X189897354Y-75045500D01*
X189864897Y-75052398D01*
X189712197Y-75084855D01*
X189712192Y-75084857D01*
X189539270Y-75161848D01*
X189539265Y-75161851D01*
X189386129Y-75273111D01*
X189259466Y-75413785D01*
X189164821Y-75577715D01*
X189164818Y-75577722D01*
X189106327Y-75757740D01*
X189106326Y-75757744D01*
X189086540Y-75946000D01*
X189106326Y-76134256D01*
X189106327Y-76134259D01*
X189164818Y-76314277D01*
X189164821Y-76314284D01*
X189259467Y-76478216D01*
X189302772Y-76526310D01*
X189334650Y-76561715D01*
X189364880Y-76624706D01*
X189366500Y-76644687D01*
X189366500Y-83121312D01*
X189346815Y-83188351D01*
X189334650Y-83204284D01*
X189259466Y-83287784D01*
X189164821Y-83451715D01*
X189164818Y-83451722D01*
X189106327Y-83631740D01*
X189106326Y-83631744D01*
X189086540Y-83820000D01*
X104500000Y-83820000D01*
X104500000Y-80000002D01*
X106644579Y-80000002D01*
X106664248Y-80362782D01*
X106664250Y-80362799D01*
X106723024Y-80721303D01*
X106723030Y-80721329D01*
X106820221Y-81071381D01*
X106820226Y-81071396D01*
X106954700Y-81408901D01*
X106954706Y-81408913D01*
X107124878Y-81729892D01*
X107124881Y-81729897D01*
X107124883Y-81729900D01*
X107173343Y-81801373D01*
X107328772Y-82030613D01*
X107544692Y-82284814D01*
X107563979Y-82307521D01*
X107827746Y-82557375D01*
X108116981Y-82777245D01*
X108428292Y-82964555D01*
X108428294Y-82964556D01*
X108428296Y-82964557D01*
X108428300Y-82964559D01*
X108574535Y-83032214D01*
X108758031Y-83117108D01*
X109102330Y-83233116D01*
X109457153Y-83311218D01*
X109818341Y-83350500D01*
X109818347Y-83350500D01*
X110181653Y-83350500D01*
X110181659Y-83350500D01*
X110542847Y-83311218D01*
X110897670Y-83233116D01*
X111241969Y-83117108D01*
X111571708Y-82964555D01*
X111883019Y-82777245D01*
X112172254Y-82557375D01*
X112436021Y-82307521D01*
X112671227Y-82030614D01*
X112875117Y-81729900D01*
X113045298Y-81408905D01*
X113179775Y-81071391D01*
X113188491Y-81040001D01*
X113276969Y-80721329D01*
X113276973Y-80721316D01*
X113317794Y-80472321D01*
X113335749Y-80362799D01*
X113335751Y-80362782D01*
X113335999Y-80358219D01*
X113351047Y-80080665D01*
X113355421Y-80000002D01*
X113355421Y-79999997D01*
X113351442Y-79926611D01*
X118579500Y-79926611D01*
X118603535Y-80047444D01*
X118603540Y-80047461D01*
X118650685Y-80161280D01*
X118650687Y-80161283D01*
X118650688Y-80161286D01*
X118667742Y-80186809D01*
X118678226Y-80202498D01*
X118678227Y-80202500D01*
X118719141Y-80263732D01*
X118719144Y-80263736D01*
X118810586Y-80355178D01*
X118810608Y-80355198D01*
X118993181Y-80537771D01*
X119026666Y-80599094D01*
X119029500Y-80625452D01*
X119029500Y-81690001D01*
X119029501Y-81690018D01*
X119040000Y-81792796D01*
X119040001Y-81792799D01*
X119081931Y-81919334D01*
X119095186Y-81959334D01*
X119187288Y-82108656D01*
X119311344Y-82232712D01*
X119460666Y-82324814D01*
X119627203Y-82379999D01*
X119729991Y-82390500D01*
X121030008Y-82390499D01*
X121132797Y-82379999D01*
X121299334Y-82324814D01*
X121448656Y-82232712D01*
X121572712Y-82108656D01*
X121664814Y-81959334D01*
X121667662Y-81950738D01*
X121707429Y-81893294D01*
X121771944Y-81866468D01*
X121840720Y-81878779D01*
X121877483Y-81907766D01*
X121877677Y-81907573D01*
X121879313Y-81909209D01*
X121880354Y-81910030D01*
X121881501Y-81911397D01*
X121881504Y-81911400D01*
X121881505Y-81911401D01*
X122048599Y-82078495D01*
X122145384Y-82146265D01*
X122242165Y-82214032D01*
X122242167Y-82214033D01*
X122242170Y-82214035D01*
X122456337Y-82313903D01*
X122684592Y-82375063D01*
X122861034Y-82390500D01*
X122919999Y-82395659D01*
X122920000Y-82395659D01*
X122920001Y-82395659D01*
X122978966Y-82390500D01*
X123155408Y-82375063D01*
X123383663Y-82313903D01*
X123597830Y-82214035D01*
X123791401Y-82078495D01*
X123958495Y-81911401D01*
X124088732Y-81725403D01*
X124143307Y-81681780D01*
X124212805Y-81674586D01*
X124275160Y-81706109D01*
X124291880Y-81725405D01*
X124345073Y-81801373D01*
X124977037Y-81169408D01*
X124994075Y-81232993D01*
X125059901Y-81347007D01*
X125152993Y-81440099D01*
X125267007Y-81505925D01*
X125330590Y-81522962D01*
X124698625Y-82154925D01*
X124782421Y-82213599D01*
X124996507Y-82313429D01*
X124996516Y-82313433D01*
X125224673Y-82374567D01*
X125224684Y-82374569D01*
X125459998Y-82395157D01*
X125460002Y-82395157D01*
X125695315Y-82374569D01*
X125695326Y-82374567D01*
X125923483Y-82313433D01*
X125923492Y-82313429D01*
X126137578Y-82213600D01*
X126137582Y-82213598D01*
X126221373Y-82154926D01*
X126221373Y-82154925D01*
X125589409Y-81522962D01*
X125652993Y-81505925D01*
X125767007Y-81440099D01*
X125860099Y-81347007D01*
X125925925Y-81232993D01*
X125942962Y-81169410D01*
X126574925Y-81801373D01*
X126628425Y-81724968D01*
X126683002Y-81681344D01*
X126752501Y-81674151D01*
X126814855Y-81705673D01*
X126831576Y-81724969D01*
X126885073Y-81801372D01*
X127517037Y-81169409D01*
X127534075Y-81232993D01*
X127599901Y-81347007D01*
X127692993Y-81440099D01*
X127807007Y-81505925D01*
X127870590Y-81522962D01*
X127238625Y-82154925D01*
X127322421Y-82213599D01*
X127536507Y-82313429D01*
X127536516Y-82313433D01*
X127764673Y-82374567D01*
X127764684Y-82374569D01*
X127999998Y-82395157D01*
X128000002Y-82395157D01*
X128235315Y-82374569D01*
X128235326Y-82374567D01*
X128463483Y-82313433D01*
X128463492Y-82313429D01*
X128677578Y-82213600D01*
X128677582Y-82213598D01*
X128761373Y-82154926D01*
X128761373Y-82154925D01*
X128129409Y-81522962D01*
X128192993Y-81505925D01*
X128307007Y-81440099D01*
X128400099Y-81347007D01*
X128465925Y-81232993D01*
X128482962Y-81169410D01*
X129114925Y-81801373D01*
X129168425Y-81724968D01*
X129223002Y-81681344D01*
X129292501Y-81674151D01*
X129354855Y-81705673D01*
X129371576Y-81724969D01*
X129425073Y-81801372D01*
X130057037Y-81169409D01*
X130074075Y-81232993D01*
X130139901Y-81347007D01*
X130232993Y-81440099D01*
X130347007Y-81505925D01*
X130410590Y-81522962D01*
X129778625Y-82154925D01*
X129862421Y-82213599D01*
X130076507Y-82313429D01*
X130076516Y-82313433D01*
X130304673Y-82374567D01*
X130304684Y-82374569D01*
X130539998Y-82395157D01*
X130540002Y-82395157D01*
X130775315Y-82374569D01*
X130775326Y-82374567D01*
X131003483Y-82313433D01*
X131003492Y-82313429D01*
X131217578Y-82213600D01*
X131217582Y-82213598D01*
X131301373Y-82154926D01*
X131301373Y-82154925D01*
X130669409Y-81522962D01*
X130732993Y-81505925D01*
X130847007Y-81440099D01*
X130940099Y-81347007D01*
X131005925Y-81232993D01*
X131022962Y-81169410D01*
X131654925Y-81801373D01*
X131708119Y-81725405D01*
X131762696Y-81681781D01*
X131832195Y-81674588D01*
X131894549Y-81706110D01*
X131911269Y-81725405D01*
X131914417Y-81729901D01*
X132041505Y-81911401D01*
X132208599Y-82078495D01*
X132305384Y-82146265D01*
X132402165Y-82214032D01*
X132402167Y-82214033D01*
X132402170Y-82214035D01*
X132616337Y-82313903D01*
X132844592Y-82375063D01*
X133021034Y-82390500D01*
X133079999Y-82395659D01*
X133080000Y-82395659D01*
X133080001Y-82395659D01*
X133138966Y-82390500D01*
X133315408Y-82375063D01*
X133543663Y-82313903D01*
X133757830Y-82214035D01*
X133951401Y-82078495D01*
X134118495Y-81911401D01*
X134245583Y-81729901D01*
X134248425Y-81725842D01*
X134303002Y-81682217D01*
X134372500Y-81675023D01*
X134434855Y-81706546D01*
X134451575Y-81725842D01*
X134581500Y-81911395D01*
X134581505Y-81911401D01*
X134748599Y-82078495D01*
X134845384Y-82146265D01*
X134942165Y-82214032D01*
X134942167Y-82214033D01*
X134942170Y-82214035D01*
X135156337Y-82313903D01*
X135384592Y-82375063D01*
X135561034Y-82390500D01*
X135619999Y-82395659D01*
X135620000Y-82395659D01*
X135620001Y-82395659D01*
X135678966Y-82390500D01*
X135855408Y-82375063D01*
X136083663Y-82313903D01*
X136297830Y-82214035D01*
X136491401Y-82078495D01*
X136658495Y-81911401D01*
X136785583Y-81729901D01*
X136788425Y-81725842D01*
X136843002Y-81682217D01*
X136912500Y-81675023D01*
X136974855Y-81706546D01*
X136991575Y-81725842D01*
X137121500Y-81911395D01*
X137121505Y-81911401D01*
X137288599Y-82078495D01*
X137385384Y-82146265D01*
X137482165Y-82214032D01*
X137482167Y-82214033D01*
X137482170Y-82214035D01*
X137696337Y-82313903D01*
X137924592Y-82375063D01*
X138101034Y-82390500D01*
X138159999Y-82395659D01*
X138160000Y-82395659D01*
X138160001Y-82395659D01*
X138218966Y-82390500D01*
X138395408Y-82375063D01*
X138623663Y-82313903D01*
X138837830Y-82214035D01*
X139031401Y-82078495D01*
X139198495Y-81911401D01*
X139334035Y-81717830D01*
X139433903Y-81503663D01*
X139495063Y-81275408D01*
X139515659Y-81040000D01*
X139495063Y-80804592D01*
X139433903Y-80576337D01*
X139334035Y-80362171D01*
X139329153Y-80355198D01*
X139198494Y-80168597D01*
X139031402Y-80001506D01*
X139031396Y-80001501D01*
X138845842Y-79871575D01*
X138802217Y-79816998D01*
X138795023Y-79747500D01*
X138826546Y-79685145D01*
X138845842Y-79668425D01*
X138879089Y-79645145D01*
X139031401Y-79538495D01*
X139198495Y-79371401D01*
X139334035Y-79177830D01*
X139433903Y-78963663D01*
X139495063Y-78735408D01*
X139515659Y-78500000D01*
X139512159Y-78460000D01*
X150316841Y-78460000D01*
X150337436Y-78695403D01*
X150337438Y-78695413D01*
X150398594Y-78923655D01*
X150398596Y-78923659D01*
X150398597Y-78923663D01*
X150421152Y-78972032D01*
X150498465Y-79137830D01*
X150498467Y-79137834D01*
X150606781Y-79292521D01*
X150634005Y-79331401D01*
X150801099Y-79498495D01*
X150801104Y-79498499D01*
X150802468Y-79499643D01*
X150802907Y-79500303D01*
X150804927Y-79502323D01*
X150804521Y-79502728D01*
X150841169Y-79557815D01*
X150842276Y-79627676D01*
X150805437Y-79687046D01*
X150761767Y-79712336D01*
X150753169Y-79715184D01*
X150753163Y-79715187D01*
X150603842Y-79807289D01*
X150479789Y-79931342D01*
X150387687Y-80080663D01*
X150387685Y-80080668D01*
X150371201Y-80130414D01*
X150332501Y-80247203D01*
X150332501Y-80247204D01*
X150332500Y-80247204D01*
X150322000Y-80349983D01*
X150322000Y-81650001D01*
X150322001Y-81650018D01*
X150332500Y-81752796D01*
X150332501Y-81752799D01*
X150371803Y-81871402D01*
X150387686Y-81919334D01*
X150479788Y-82068656D01*
X150603844Y-82192712D01*
X150753166Y-82284814D01*
X150919703Y-82339999D01*
X151022491Y-82350500D01*
X152322508Y-82350499D01*
X152425297Y-82339999D01*
X152591834Y-82284814D01*
X152741156Y-82192712D01*
X152865212Y-82068656D01*
X152957314Y-81919334D01*
X152960162Y-81910738D01*
X152999929Y-81853294D01*
X153064444Y-81826468D01*
X153133220Y-81838779D01*
X153169983Y-81867766D01*
X153170177Y-81867573D01*
X153171813Y-81869209D01*
X153172854Y-81870030D01*
X153174001Y-81871397D01*
X153174005Y-81871401D01*
X153341099Y-82038495D01*
X153384175Y-82068657D01*
X153534665Y-82174032D01*
X153534667Y-82174033D01*
X153534670Y-82174035D01*
X153748837Y-82273903D01*
X153977092Y-82335063D01*
X154153534Y-82350500D01*
X154212499Y-82355659D01*
X154212500Y-82355659D01*
X154212501Y-82355659D01*
X154271466Y-82350500D01*
X154447908Y-82335063D01*
X154676163Y-82273903D01*
X154890330Y-82174035D01*
X155083901Y-82038495D01*
X155250995Y-81871401D01*
X155381232Y-81685403D01*
X155435807Y-81641780D01*
X155505305Y-81634586D01*
X155567660Y-81666109D01*
X155584380Y-81685405D01*
X155637573Y-81761373D01*
X156269537Y-81129409D01*
X156286575Y-81192993D01*
X156352401Y-81307007D01*
X156445493Y-81400099D01*
X156559507Y-81465925D01*
X156623090Y-81482962D01*
X155991125Y-82114925D01*
X156074921Y-82173599D01*
X156289007Y-82273429D01*
X156289016Y-82273433D01*
X156517173Y-82334567D01*
X156517184Y-82334569D01*
X156752498Y-82355157D01*
X156752502Y-82355157D01*
X156987815Y-82334569D01*
X156987826Y-82334567D01*
X157215983Y-82273433D01*
X157215992Y-82273429D01*
X157430078Y-82173600D01*
X157430082Y-82173598D01*
X157513873Y-82114926D01*
X157513873Y-82114925D01*
X156881909Y-81482962D01*
X156945493Y-81465925D01*
X157059507Y-81400099D01*
X157152599Y-81307007D01*
X157218425Y-81192993D01*
X157235462Y-81129410D01*
X157867425Y-81761373D01*
X157920925Y-81684968D01*
X157975502Y-81641344D01*
X158045001Y-81634151D01*
X158107355Y-81665673D01*
X158124076Y-81684969D01*
X158177573Y-81761372D01*
X158809537Y-81129409D01*
X158826575Y-81192993D01*
X158892401Y-81307007D01*
X158985493Y-81400099D01*
X159099507Y-81465925D01*
X159163090Y-81482962D01*
X158531125Y-82114925D01*
X158614921Y-82173599D01*
X158829007Y-82273429D01*
X158829016Y-82273433D01*
X159057173Y-82334567D01*
X159057184Y-82334569D01*
X159292498Y-82355157D01*
X159292502Y-82355157D01*
X159527815Y-82334569D01*
X159527826Y-82334567D01*
X159755983Y-82273433D01*
X159755992Y-82273429D01*
X159970078Y-82173600D01*
X159970082Y-82173598D01*
X160053873Y-82114926D01*
X160053873Y-82114925D01*
X159421909Y-81482962D01*
X159485493Y-81465925D01*
X159599507Y-81400099D01*
X159692599Y-81307007D01*
X159758425Y-81192993D01*
X159775462Y-81129410D01*
X160407425Y-81761373D01*
X160460925Y-81684968D01*
X160515502Y-81641344D01*
X160585001Y-81634151D01*
X160647355Y-81665673D01*
X160664076Y-81684969D01*
X160717573Y-81761372D01*
X161349537Y-81129409D01*
X161366575Y-81192993D01*
X161432401Y-81307007D01*
X161525493Y-81400099D01*
X161639507Y-81465925D01*
X161703090Y-81482962D01*
X161071125Y-82114925D01*
X161154921Y-82173599D01*
X161369007Y-82273429D01*
X161369016Y-82273433D01*
X161597173Y-82334567D01*
X161597184Y-82334569D01*
X161832498Y-82355157D01*
X161832502Y-82355157D01*
X162067815Y-82334569D01*
X162067826Y-82334567D01*
X162295983Y-82273433D01*
X162295992Y-82273429D01*
X162510078Y-82173600D01*
X162510082Y-82173598D01*
X162593873Y-82114926D01*
X162593873Y-82114925D01*
X161961909Y-81482962D01*
X162025493Y-81465925D01*
X162139507Y-81400099D01*
X162232599Y-81307007D01*
X162298425Y-81192993D01*
X162315462Y-81129410D01*
X162947425Y-81761373D01*
X162947426Y-81761373D01*
X163006098Y-81677582D01*
X163006100Y-81677578D01*
X163105929Y-81463492D01*
X163105933Y-81463483D01*
X163167067Y-81235326D01*
X163167069Y-81235315D01*
X163187657Y-81000001D01*
X163187657Y-80999998D01*
X163167069Y-80764684D01*
X163167067Y-80764673D01*
X163105933Y-80536516D01*
X163105929Y-80536507D01*
X163006100Y-80322423D01*
X163006099Y-80322421D01*
X162947425Y-80238626D01*
X162947425Y-80238625D01*
X162315462Y-80870589D01*
X162298425Y-80807007D01*
X162232599Y-80692993D01*
X162139507Y-80599901D01*
X162025493Y-80534075D01*
X161961910Y-80517037D01*
X162593873Y-79885073D01*
X162593873Y-79885072D01*
X162517905Y-79831880D01*
X162474280Y-79777304D01*
X162467086Y-79707805D01*
X162498608Y-79645451D01*
X162517899Y-79628734D01*
X162703901Y-79498495D01*
X162870995Y-79331401D01*
X163006535Y-79137830D01*
X163106403Y-78923663D01*
X163167563Y-78695408D01*
X163188159Y-78460000D01*
X163185899Y-78434174D01*
X163182400Y-78394174D01*
X163167563Y-78224592D01*
X163107678Y-78001096D01*
X163106405Y-77996344D01*
X163106404Y-77996343D01*
X163106403Y-77996337D01*
X163036898Y-77847285D01*
X163006535Y-77782170D01*
X163006534Y-77782169D01*
X162870994Y-77588597D01*
X162703902Y-77421506D01*
X162703895Y-77421501D01*
X162697338Y-77416910D01*
X162647258Y-77381843D01*
X162510334Y-77285967D01*
X162510330Y-77285965D01*
X162442714Y-77254435D01*
X162296163Y-77186097D01*
X162296159Y-77186096D01*
X162296155Y-77186094D01*
X162067913Y-77124938D01*
X162067903Y-77124936D01*
X161832501Y-77104341D01*
X161832499Y-77104341D01*
X161597096Y-77124936D01*
X161597086Y-77124938D01*
X161368844Y-77186094D01*
X161368835Y-77186098D01*
X161154671Y-77285964D01*
X161154669Y-77285965D01*
X160961097Y-77421505D01*
X160794005Y-77588597D01*
X160663769Y-77774595D01*
X160609192Y-77818220D01*
X160539694Y-77825414D01*
X160477339Y-77793891D01*
X160460619Y-77774595D01*
X160407425Y-77698626D01*
X160407425Y-77698625D01*
X159775462Y-78330589D01*
X159758425Y-78267007D01*
X159692599Y-78152993D01*
X159599507Y-78059901D01*
X159485493Y-77994075D01*
X159421910Y-77977037D01*
X160053873Y-77345073D01*
X160053873Y-77345072D01*
X159970083Y-77286402D01*
X159970079Y-77286400D01*
X159755992Y-77186570D01*
X159755983Y-77186566D01*
X159527826Y-77125432D01*
X159527815Y-77125430D01*
X159292502Y-77104843D01*
X159292498Y-77104843D01*
X159057184Y-77125430D01*
X159057173Y-77125432D01*
X158829016Y-77186566D01*
X158829007Y-77186570D01*
X158614919Y-77286401D01*
X158531125Y-77345072D01*
X159163090Y-77977037D01*
X159099507Y-77994075D01*
X158985493Y-78059901D01*
X158892401Y-78152993D01*
X158826575Y-78267007D01*
X158809537Y-78330589D01*
X158177573Y-77698626D01*
X158124381Y-77774594D01*
X158069804Y-77818219D01*
X158000306Y-77825413D01*
X157937951Y-77793891D01*
X157921230Y-77774594D01*
X157790994Y-77588597D01*
X157623902Y-77421506D01*
X157623895Y-77421501D01*
X157617338Y-77416910D01*
X157567258Y-77381843D01*
X157430334Y-77285967D01*
X157430330Y-77285965D01*
X157362714Y-77254435D01*
X157216163Y-77186097D01*
X157216159Y-77186096D01*
X157216155Y-77186094D01*
X156987913Y-77124938D01*
X156987903Y-77124936D01*
X156752501Y-77104341D01*
X156752499Y-77104341D01*
X156517096Y-77124936D01*
X156517086Y-77124938D01*
X156288844Y-77186094D01*
X156288835Y-77186098D01*
X156074671Y-77285964D01*
X156074669Y-77285965D01*
X155881097Y-77421505D01*
X155714005Y-77588597D01*
X155584075Y-77774158D01*
X155529498Y-77817783D01*
X155460000Y-77824977D01*
X155397645Y-77793454D01*
X155380925Y-77774158D01*
X155250994Y-77588597D01*
X155083902Y-77421506D01*
X155083895Y-77421501D01*
X155077338Y-77416910D01*
X155027258Y-77381843D01*
X154890334Y-77285967D01*
X154890330Y-77285965D01*
X154822714Y-77254435D01*
X154676163Y-77186097D01*
X154676159Y-77186096D01*
X154676155Y-77186094D01*
X154447913Y-77124938D01*
X154447903Y-77124936D01*
X154212501Y-77104341D01*
X154212499Y-77104341D01*
X153977096Y-77124936D01*
X153977086Y-77124938D01*
X153748844Y-77186094D01*
X153748835Y-77186098D01*
X153534671Y-77285964D01*
X153534669Y-77285965D01*
X153341097Y-77421505D01*
X153174005Y-77588597D01*
X153044075Y-77774158D01*
X152989498Y-77817783D01*
X152920000Y-77824977D01*
X152857645Y-77793454D01*
X152840925Y-77774158D01*
X152710994Y-77588597D01*
X152543902Y-77421506D01*
X152543901Y-77421505D01*
X152387146Y-77311744D01*
X152350876Y-77286347D01*
X152307251Y-77231770D01*
X152298000Y-77184772D01*
X152298000Y-74554824D01*
X152317685Y-74487785D01*
X152370489Y-74442030D01*
X152439647Y-74432086D01*
X152450947Y-74434250D01*
X152547629Y-74457461D01*
X152656852Y-74483683D01*
X152908000Y-74503449D01*
X153159148Y-74483683D01*
X153404111Y-74424873D01*
X153636859Y-74328466D01*
X153851659Y-74196836D01*
X154028417Y-74045870D01*
X158927500Y-74045870D01*
X158927501Y-74045876D01*
X158933908Y-74105483D01*
X158984202Y-74240328D01*
X158984206Y-74240335D01*
X159070452Y-74355544D01*
X159070455Y-74355547D01*
X159185664Y-74441793D01*
X159185671Y-74441797D01*
X159320517Y-74492091D01*
X159320516Y-74492091D01*
X159327444Y-74492835D01*
X159380127Y-74498500D01*
X161675872Y-74498499D01*
X161735483Y-74492091D01*
X161870331Y-74441796D01*
X161985546Y-74355546D01*
X162071796Y-74240331D01*
X162122091Y-74105483D01*
X162128500Y-74045873D01*
X162128499Y-71750128D01*
X162122091Y-71690517D01*
X162088017Y-71599161D01*
X162071797Y-71555671D01*
X162071793Y-71555664D01*
X161985547Y-71440455D01*
X161985544Y-71440452D01*
X161863231Y-71348888D01*
X161864574Y-71347092D01*
X161823909Y-71306428D01*
X161809056Y-71238156D01*
X161833472Y-71172691D01*
X161864045Y-71146199D01*
X161863231Y-71145112D01*
X161943136Y-71085293D01*
X161985546Y-71053546D01*
X162071796Y-70938331D01*
X162122091Y-70803483D01*
X162128500Y-70743873D01*
X162128499Y-69108228D01*
X162148184Y-69041190D01*
X162164813Y-69020553D01*
X167152548Y-64032819D01*
X167213871Y-63999334D01*
X167240229Y-63996500D01*
X168221920Y-63996500D01*
X168319462Y-63977096D01*
X168366913Y-63967658D01*
X168503495Y-63911084D01*
X168626416Y-63828951D01*
X168730951Y-63724416D01*
X168813084Y-63601495D01*
X168869658Y-63464913D01*
X168879288Y-63416501D01*
X168898500Y-63319920D01*
X168898500Y-63018321D01*
X168915113Y-62956321D01*
X168917424Y-62952318D01*
X168975179Y-62852284D01*
X169033674Y-62672256D01*
X169042911Y-62584361D01*
X169051669Y-62549875D01*
X169072158Y-62500413D01*
X169082370Y-62449076D01*
X169101000Y-62355420D01*
X169101000Y-62084442D01*
X169120685Y-62017403D01*
X169169906Y-61973354D01*
X169170899Y-61972861D01*
X169199796Y-61958530D01*
X169348222Y-61839222D01*
X169403853Y-61770014D01*
X169461196Y-61730095D01*
X169531018Y-61727515D01*
X169591151Y-61763094D01*
X169597147Y-61770014D01*
X169652777Y-61839221D01*
X169652778Y-61839222D01*
X169801204Y-61958530D01*
X169801207Y-61958532D01*
X169956094Y-62035348D01*
X170007407Y-62082769D01*
X170025000Y-62146436D01*
X170025000Y-62254106D01*
X170041170Y-62335402D01*
X170044690Y-62353098D01*
X170046393Y-62390248D01*
X170040586Y-62445500D01*
X170036540Y-62484000D01*
X170056326Y-62672256D01*
X170056327Y-62672259D01*
X170114818Y-62852277D01*
X170114821Y-62852284D01*
X170209467Y-63016216D01*
X170287831Y-63103248D01*
X170336129Y-63156888D01*
X170489265Y-63268148D01*
X170489270Y-63268151D01*
X170662191Y-63345142D01*
X170662193Y-63345142D01*
X170662197Y-63345144D01*
X170727329Y-63358987D01*
X170788809Y-63392178D01*
X170789228Y-63392596D01*
X172503924Y-65107292D01*
X174213181Y-66816548D01*
X174246666Y-66877871D01*
X174249500Y-66904229D01*
X174249500Y-76965677D01*
X174232887Y-77027677D01*
X174172821Y-77131714D01*
X174114327Y-77311740D01*
X174114326Y-77311744D01*
X174094540Y-77500000D01*
X174114326Y-77688256D01*
X174114327Y-77688259D01*
X174172818Y-77868277D01*
X174172821Y-77868284D01*
X174232887Y-77972321D01*
X174249500Y-78034321D01*
X174249500Y-79465677D01*
X174232887Y-79527677D01*
X174172821Y-79631714D01*
X174114327Y-79811740D01*
X174114326Y-79811744D01*
X174094540Y-80000000D01*
X174114326Y-80188256D01*
X174114327Y-80188259D01*
X174172818Y-80368277D01*
X174172821Y-80368284D01*
X174232887Y-80472321D01*
X174249500Y-80534321D01*
X174249500Y-81965677D01*
X174232887Y-82027677D01*
X174172821Y-82131714D01*
X174123076Y-82284814D01*
X174114326Y-82311744D01*
X174094540Y-82500000D01*
X174114326Y-82688256D01*
X174114327Y-82688259D01*
X174172818Y-82868277D01*
X174172821Y-82868284D01*
X174267467Y-83032216D01*
X174347690Y-83121312D01*
X174394129Y-83172888D01*
X174547265Y-83284148D01*
X174547270Y-83284151D01*
X174720192Y-83361142D01*
X174720197Y-83361144D01*
X174905354Y-83400500D01*
X174905355Y-83400500D01*
X175094644Y-83400500D01*
X175094646Y-83400500D01*
X175279803Y-83361144D01*
X175452730Y-83284151D01*
X175605871Y-83172888D01*
X175732533Y-83032216D01*
X175827179Y-82868284D01*
X175885674Y-82688256D01*
X175905460Y-82500000D01*
X175885674Y-82311744D01*
X175827179Y-82131716D01*
X175827178Y-82131714D01*
X175767113Y-82027677D01*
X175750500Y-81965677D01*
X175750500Y-80534321D01*
X175767113Y-80472321D01*
X175782615Y-80445471D01*
X175827179Y-80368284D01*
X175885674Y-80188256D01*
X175905460Y-80000000D01*
X175885674Y-79811744D01*
X175827179Y-79631716D01*
X175817485Y-79614925D01*
X175767113Y-79527677D01*
X175750500Y-79465677D01*
X175750500Y-78034321D01*
X175767113Y-77972321D01*
X175768808Y-77969386D01*
X175827179Y-77868284D01*
X175885674Y-77688256D01*
X175905460Y-77500000D01*
X175885674Y-77311744D01*
X175827179Y-77131716D01*
X175772125Y-77036359D01*
X175767113Y-77027677D01*
X175750500Y-76965677D01*
X175750500Y-66468082D01*
X175744334Y-66437087D01*
X175738605Y-66408284D01*
X175737298Y-66401715D01*
X175721660Y-66323095D01*
X175721659Y-66323088D01*
X175678987Y-66220070D01*
X175678987Y-66220069D01*
X175665085Y-66186506D01*
X175665083Y-66186503D01*
X175582954Y-66063588D01*
X175582953Y-66063587D01*
X175582951Y-66063584D01*
X175478416Y-65959049D01*
X171854770Y-62335402D01*
X171824521Y-62286041D01*
X171769179Y-62115716D01*
X171706717Y-62007528D01*
X171671284Y-61946156D01*
X171672426Y-61945496D01*
X171651325Y-61886344D01*
X171667154Y-61818291D01*
X171678475Y-61801585D01*
X171704173Y-61769614D01*
X171761515Y-61729697D01*
X171831337Y-61727117D01*
X171891470Y-61762695D01*
X171897467Y-61769615D01*
X171953135Y-61838868D01*
X172101474Y-61958107D01*
X172101477Y-61958109D01*
X172271976Y-62042668D01*
X172456675Y-62088602D01*
X172499403Y-62091500D01*
X172700500Y-62091500D01*
X172700500Y-60841500D01*
X173200500Y-60841500D01*
X173200500Y-62091500D01*
X173401597Y-62091500D01*
X173444324Y-62088602D01*
X173629023Y-62042668D01*
X173799522Y-61958109D01*
X173799525Y-61958107D01*
X173947866Y-61838867D01*
X173947867Y-61838866D01*
X174067107Y-61690525D01*
X174067109Y-61690522D01*
X174151668Y-61520023D01*
X174164606Y-61468000D01*
X175624540Y-61468000D01*
X175644326Y-61656256D01*
X175644327Y-61656259D01*
X175702818Y-61836277D01*
X175702821Y-61836284D01*
X175797467Y-62000216D01*
X175924129Y-62140888D01*
X176077265Y-62252148D01*
X176077270Y-62252151D01*
X176250192Y-62329142D01*
X176250197Y-62329144D01*
X176435354Y-62368500D01*
X176435355Y-62368500D01*
X176624644Y-62368500D01*
X176624646Y-62368500D01*
X176809803Y-62329144D01*
X176880585Y-62297629D01*
X176949830Y-62288344D01*
X177013107Y-62317972D01*
X177048722Y-62371900D01*
X177051183Y-62379326D01*
X177051187Y-62379336D01*
X177054349Y-62384462D01*
X177143288Y-62528656D01*
X177267344Y-62652712D01*
X177416666Y-62744814D01*
X177583203Y-62799999D01*
X177685991Y-62810500D01*
X178486008Y-62810499D01*
X178486016Y-62810498D01*
X178486019Y-62810498D01*
X178542302Y-62804748D01*
X178588797Y-62799999D01*
X178755334Y-62744814D01*
X178904656Y-62652712D01*
X178998319Y-62559049D01*
X179059642Y-62525564D01*
X179129334Y-62530548D01*
X179173681Y-62559049D01*
X179267344Y-62652712D01*
X179416666Y-62744814D01*
X179583203Y-62799999D01*
X179685991Y-62810500D01*
X180486008Y-62810499D01*
X180486016Y-62810498D01*
X180486019Y-62810498D01*
X180542302Y-62804748D01*
X180588797Y-62799999D01*
X180755334Y-62744814D01*
X180904656Y-62652712D01*
X181028712Y-62528656D01*
X181120814Y-62379334D01*
X181175999Y-62212797D01*
X181186500Y-62110009D01*
X181186499Y-61445451D01*
X181206183Y-61378413D01*
X181222813Y-61357776D01*
X181720772Y-60859819D01*
X181782095Y-60826334D01*
X181808453Y-60823500D01*
X181925608Y-60823500D01*
X181925608Y-60823499D01*
X182002476Y-60808210D01*
X182002477Y-60808210D01*
X182017268Y-60805267D01*
X182046452Y-60799463D01*
X182046457Y-60799460D01*
X182046460Y-60799460D01*
X182079787Y-60785654D01*
X182079786Y-60785654D01*
X182079792Y-60785652D01*
X182160286Y-60752312D01*
X182211509Y-60718084D01*
X182218873Y-60713164D01*
X182227824Y-60707183D01*
X182262733Y-60683858D01*
X182319773Y-60626817D01*
X182381094Y-60593334D01*
X182407453Y-60590500D01*
X182466644Y-60590500D01*
X182466646Y-60590500D01*
X182651803Y-60551144D01*
X182824730Y-60474151D01*
X182977871Y-60362888D01*
X183104533Y-60222216D01*
X183199179Y-60058284D01*
X183257674Y-59878256D01*
X183277460Y-59690000D01*
X183257674Y-59501744D01*
X183199179Y-59321716D01*
X183104533Y-59157784D01*
X182977871Y-59017112D01*
X182977870Y-59017111D01*
X182973522Y-59012282D01*
X182975372Y-59010616D01*
X182944597Y-58960667D01*
X182945925Y-58890810D01*
X182975211Y-58845239D01*
X182973522Y-58843718D01*
X182995732Y-58819051D01*
X183104533Y-58698216D01*
X183199179Y-58534284D01*
X183257674Y-58354256D01*
X183277460Y-58166000D01*
X183257674Y-57977744D01*
X183199179Y-57797716D01*
X183104533Y-57633784D01*
X182977871Y-57493112D01*
X182977870Y-57493111D01*
X182824734Y-57381851D01*
X182824729Y-57381848D01*
X182651807Y-57304857D01*
X182651802Y-57304855D01*
X182506001Y-57273865D01*
X182466646Y-57265500D01*
X182277354Y-57265500D01*
X182244897Y-57272398D01*
X182092197Y-57304855D01*
X182092192Y-57304857D01*
X181919270Y-57381848D01*
X181919265Y-57381851D01*
X181766130Y-57493110D01*
X181766126Y-57493114D01*
X181760400Y-57499474D01*
X181700913Y-57536121D01*
X181668252Y-57540500D01*
X181276574Y-57540500D01*
X181209535Y-57520815D01*
X181163780Y-57468011D01*
X181158868Y-57455505D01*
X181156961Y-57449751D01*
X181120814Y-57340666D01*
X181028712Y-57191344D01*
X180904656Y-57067288D01*
X180755334Y-56975186D01*
X180588797Y-56920001D01*
X180588795Y-56920000D01*
X180486010Y-56909500D01*
X179685998Y-56909500D01*
X179685980Y-56909501D01*
X179583203Y-56920000D01*
X179583200Y-56920001D01*
X179416668Y-56975185D01*
X179416663Y-56975187D01*
X179267342Y-57067289D01*
X179173681Y-57160951D01*
X179112358Y-57194436D01*
X179042666Y-57189452D01*
X178998319Y-57160951D01*
X178904657Y-57067289D01*
X178904656Y-57067288D01*
X178755334Y-56975186D01*
X178588797Y-56920001D01*
X178588795Y-56920000D01*
X178486010Y-56909500D01*
X177685998Y-56909500D01*
X177685980Y-56909501D01*
X177583203Y-56920000D01*
X177583200Y-56920001D01*
X177416668Y-56975185D01*
X177416663Y-56975187D01*
X177267342Y-57067289D01*
X177143288Y-57191343D01*
X177143285Y-57191347D01*
X177073428Y-57304603D01*
X177021480Y-57351328D01*
X176952518Y-57362549D01*
X176917454Y-57352786D01*
X176809803Y-57304856D01*
X176809801Y-57304855D01*
X176809800Y-57304855D01*
X176693102Y-57280050D01*
X176624646Y-57265500D01*
X176435354Y-57265500D01*
X176402897Y-57272398D01*
X176250197Y-57304855D01*
X176250192Y-57304857D01*
X176077270Y-57381848D01*
X176077265Y-57381851D01*
X175924129Y-57493111D01*
X175797466Y-57633785D01*
X175702821Y-57797715D01*
X175702818Y-57797722D01*
X175644327Y-57977740D01*
X175644326Y-57977744D01*
X175624540Y-58166000D01*
X175644326Y-58354256D01*
X175644327Y-58354259D01*
X175702818Y-58534277D01*
X175702821Y-58534284D01*
X175797467Y-58698216D01*
X175905800Y-58818532D01*
X175924129Y-58838888D01*
X176077265Y-58950148D01*
X176077270Y-58950151D01*
X176250192Y-59027142D01*
X176250197Y-59027144D01*
X176435354Y-59066500D01*
X176435355Y-59066500D01*
X176624644Y-59066500D01*
X176624646Y-59066500D01*
X176809803Y-59027144D01*
X176971656Y-58955081D01*
X177040901Y-58945796D01*
X177104178Y-58975424D01*
X177127626Y-59003264D01*
X177135295Y-59015698D01*
X177143288Y-59028656D01*
X177267344Y-59152712D01*
X177416666Y-59244814D01*
X177583203Y-59299999D01*
X177685991Y-59310500D01*
X178486008Y-59310499D01*
X178486016Y-59310498D01*
X178486019Y-59310498D01*
X178542302Y-59304748D01*
X178588797Y-59299999D01*
X178755334Y-59244814D01*
X178904656Y-59152712D01*
X178998319Y-59059049D01*
X179059642Y-59025564D01*
X179129334Y-59030548D01*
X179173681Y-59059049D01*
X179267344Y-59152712D01*
X179416666Y-59244814D01*
X179583203Y-59299999D01*
X179685991Y-59310500D01*
X180486008Y-59310499D01*
X180486016Y-59310498D01*
X180486019Y-59310498D01*
X180542302Y-59304748D01*
X180588797Y-59299999D01*
X180755334Y-59244814D01*
X180904656Y-59152712D01*
X181028712Y-59028656D01*
X181120814Y-58879334D01*
X181121755Y-58876492D01*
X181122926Y-58874801D01*
X181123864Y-58872791D01*
X181124207Y-58872951D01*
X181161527Y-58819051D01*
X181226043Y-58792228D01*
X181239460Y-58791500D01*
X181668252Y-58791500D01*
X181735291Y-58811185D01*
X181760400Y-58832526D01*
X181770475Y-58843715D01*
X181768625Y-58845380D01*
X181799402Y-58895332D01*
X181798074Y-58965189D01*
X181768802Y-59010773D01*
X181770478Y-59012282D01*
X181639466Y-59157785D01*
X181544821Y-59321715D01*
X181544818Y-59321721D01*
X181487657Y-59497648D01*
X181448220Y-59555324D01*
X181393917Y-59580947D01*
X181335599Y-59592546D01*
X181335600Y-59592547D01*
X181315549Y-59596536D01*
X181315547Y-59596536D01*
X181268397Y-59616067D01*
X181201719Y-59643685D01*
X181201717Y-59643686D01*
X181099266Y-59712141D01*
X181099263Y-59712144D01*
X180438227Y-60373181D01*
X180376904Y-60406666D01*
X180350546Y-60409500D01*
X179685998Y-60409500D01*
X179685980Y-60409501D01*
X179583203Y-60420000D01*
X179583200Y-60420001D01*
X179416668Y-60475185D01*
X179416663Y-60475187D01*
X179267342Y-60567289D01*
X179173681Y-60660951D01*
X179112358Y-60694436D01*
X179042666Y-60689452D01*
X178998319Y-60660951D01*
X178904657Y-60567289D01*
X178904656Y-60567288D01*
X178795563Y-60499999D01*
X178755336Y-60475187D01*
X178755331Y-60475185D01*
X178717566Y-60462671D01*
X178588797Y-60420001D01*
X178588795Y-60420000D01*
X178486010Y-60409500D01*
X177685998Y-60409500D01*
X177685980Y-60409501D01*
X177583203Y-60420000D01*
X177583200Y-60420001D01*
X177416668Y-60475185D01*
X177416663Y-60475187D01*
X177267342Y-60567289D01*
X177154950Y-60679680D01*
X177093627Y-60713164D01*
X177023935Y-60708179D01*
X176994386Y-60692317D01*
X176982733Y-60683851D01*
X176982729Y-60683848D01*
X176809807Y-60606857D01*
X176809802Y-60606855D01*
X176664001Y-60575865D01*
X176624646Y-60567500D01*
X176435354Y-60567500D01*
X176402897Y-60574398D01*
X176250197Y-60606855D01*
X176250192Y-60606857D01*
X176077270Y-60683848D01*
X176077265Y-60683851D01*
X175924129Y-60795111D01*
X175797466Y-60935785D01*
X175702821Y-61099715D01*
X175702818Y-61099722D01*
X175648149Y-61267977D01*
X175644326Y-61279744D01*
X175624540Y-61468000D01*
X174164606Y-61468000D01*
X174197602Y-61335324D01*
X174200500Y-61292596D01*
X174200500Y-60841500D01*
X173200500Y-60841500D01*
X172700500Y-60841500D01*
X172700500Y-59091500D01*
X173200500Y-59091500D01*
X173200500Y-60341500D01*
X174200500Y-60341500D01*
X174200500Y-59890403D01*
X174197602Y-59847675D01*
X174151668Y-59662976D01*
X174067109Y-59492477D01*
X174067107Y-59492474D01*
X173947867Y-59344133D01*
X173947866Y-59344132D01*
X173799525Y-59224892D01*
X173799522Y-59224890D01*
X173629023Y-59140331D01*
X173444324Y-59094397D01*
X173401597Y-59091500D01*
X173200500Y-59091500D01*
X172700500Y-59091500D01*
X172499403Y-59091500D01*
X172456675Y-59094397D01*
X172271976Y-59140331D01*
X172101477Y-59224890D01*
X172101474Y-59224892D01*
X171953135Y-59344131D01*
X171897467Y-59413385D01*
X171840124Y-59453303D01*
X171770301Y-59455883D01*
X171710169Y-59420304D01*
X171704173Y-59413384D01*
X171648222Y-59343778D01*
X171648221Y-59343777D01*
X171499795Y-59224469D01*
X171499792Y-59224467D01*
X171329197Y-59139860D01*
X171144392Y-59093900D01*
X171118729Y-59092160D01*
X171101623Y-59091000D01*
X171101621Y-59091000D01*
X170650000Y-59091000D01*
X170582961Y-59071315D01*
X170537206Y-59018511D01*
X170526000Y-58967000D01*
X170526000Y-55915999D01*
X170545685Y-55848960D01*
X170598489Y-55803205D01*
X170650000Y-55791999D01*
X172108528Y-55791999D01*
X172108536Y-55791999D01*
X172227918Y-55781386D01*
X172423549Y-55725409D01*
X172603907Y-55631198D01*
X172761609Y-55502609D01*
X172890198Y-55344907D01*
X172984409Y-55164549D01*
X173040386Y-54968918D01*
X173051000Y-54849537D01*
X173051000Y-54610000D01*
X175624540Y-54610000D01*
X175644326Y-54798256D01*
X175644327Y-54798259D01*
X175702818Y-54978277D01*
X175702821Y-54978284D01*
X175797467Y-55142216D01*
X175904632Y-55261234D01*
X175924129Y-55282888D01*
X176077265Y-55394148D01*
X176077270Y-55394151D01*
X176250192Y-55471142D01*
X176250197Y-55471144D01*
X176435354Y-55510500D01*
X176435355Y-55510500D01*
X176624644Y-55510500D01*
X176624646Y-55510500D01*
X176809803Y-55471144D01*
X176944555Y-55411147D01*
X177013802Y-55401862D01*
X177077079Y-55431490D01*
X177100526Y-55459328D01*
X177143288Y-55528656D01*
X177267344Y-55652712D01*
X177416666Y-55744814D01*
X177583203Y-55799999D01*
X177685991Y-55810500D01*
X178486008Y-55810499D01*
X178486016Y-55810498D01*
X178486019Y-55810498D01*
X178557412Y-55803205D01*
X178588797Y-55799999D01*
X178755334Y-55744814D01*
X178904656Y-55652712D01*
X178998319Y-55559049D01*
X179059642Y-55525564D01*
X179129334Y-55530548D01*
X179173681Y-55559049D01*
X179267344Y-55652712D01*
X179416666Y-55744814D01*
X179583203Y-55799999D01*
X179685991Y-55810500D01*
X180486008Y-55810499D01*
X180486016Y-55810498D01*
X180486019Y-55810498D01*
X180557412Y-55803205D01*
X180588797Y-55799999D01*
X180755334Y-55744814D01*
X180883966Y-55665473D01*
X180951357Y-55647034D01*
X181018020Y-55667957D01*
X181036742Y-55683332D01*
X181375016Y-56021606D01*
X181375045Y-56021637D01*
X181465264Y-56111856D01*
X181465267Y-56111858D01*
X181516490Y-56146084D01*
X181567714Y-56180312D01*
X181631504Y-56206734D01*
X181631505Y-56206734D01*
X181631506Y-56206735D01*
X181687176Y-56229794D01*
X181686205Y-56232138D01*
X181732539Y-56261583D01*
X181766126Y-56298885D01*
X181766132Y-56298891D01*
X181766135Y-56298893D01*
X181919265Y-56410148D01*
X181919270Y-56410151D01*
X182092192Y-56487142D01*
X182092197Y-56487144D01*
X182277354Y-56526500D01*
X182277355Y-56526500D01*
X182466644Y-56526500D01*
X182466646Y-56526500D01*
X182651803Y-56487144D01*
X182824730Y-56410151D01*
X182977871Y-56298888D01*
X183104533Y-56158216D01*
X183199179Y-55994284D01*
X183257674Y-55814256D01*
X183277460Y-55626000D01*
X183257674Y-55437744D01*
X183199179Y-55257716D01*
X183104533Y-55093784D01*
X183020091Y-55000002D01*
X206644579Y-55000002D01*
X206664248Y-55362782D01*
X206664250Y-55362799D01*
X206723024Y-55721303D01*
X206723030Y-55721329D01*
X206820221Y-56071381D01*
X206820226Y-56071396D01*
X206954700Y-56408901D01*
X206954706Y-56408913D01*
X207124878Y-56729892D01*
X207124881Y-56729897D01*
X207124883Y-56729900D01*
X207165520Y-56789835D01*
X207328772Y-57030613D01*
X207544190Y-57284223D01*
X207563979Y-57307521D01*
X207827746Y-57557375D01*
X208116981Y-57777245D01*
X208428292Y-57964555D01*
X208428294Y-57964556D01*
X208428296Y-57964557D01*
X208428300Y-57964559D01*
X208749437Y-58113132D01*
X208758031Y-58117108D01*
X209102330Y-58233116D01*
X209457153Y-58311218D01*
X209818341Y-58350500D01*
X209818347Y-58350500D01*
X210181653Y-58350500D01*
X210181659Y-58350500D01*
X210542847Y-58311218D01*
X210897670Y-58233116D01*
X211241969Y-58117108D01*
X211571708Y-57964555D01*
X211883019Y-57777245D01*
X212172254Y-57557375D01*
X212436021Y-57307521D01*
X212671227Y-57030614D01*
X212875117Y-56729900D01*
X213045298Y-56408905D01*
X213179775Y-56071391D01*
X213276973Y-55721316D01*
X213309065Y-55525564D01*
X213335749Y-55362799D01*
X213335751Y-55362782D01*
X213355421Y-55000002D01*
X213355421Y-54999997D01*
X213335751Y-54637217D01*
X213335749Y-54637200D01*
X213276975Y-54278696D01*
X213276974Y-54278695D01*
X213276973Y-54278684D01*
X213226241Y-54095964D01*
X213179778Y-53928618D01*
X213179773Y-53928603D01*
X213054458Y-53614086D01*
X213045298Y-53591095D01*
X212875117Y-53270100D01*
X212671227Y-52969386D01*
X212436021Y-52692479D01*
X212172254Y-52442625D01*
X212172244Y-52442617D01*
X212103635Y-52390462D01*
X211883019Y-52222755D01*
X211571708Y-52035445D01*
X211571707Y-52035444D01*
X211571703Y-52035442D01*
X211571699Y-52035440D01*
X211241979Y-51882896D01*
X211241974Y-51882894D01*
X211241969Y-51882892D01*
X211074143Y-51826344D01*
X210897669Y-51766883D01*
X210542845Y-51688781D01*
X210181660Y-51649500D01*
X210181659Y-51649500D01*
X209818341Y-51649500D01*
X209818339Y-51649500D01*
X209457154Y-51688781D01*
X209102330Y-51766883D01*
X208869677Y-51845274D01*
X208758031Y-51882892D01*
X208758028Y-51882893D01*
X208758020Y-51882896D01*
X208428300Y-52035440D01*
X208428296Y-52035442D01*
X208196453Y-52174937D01*
X208116981Y-52222755D01*
X208027332Y-52290903D01*
X207827755Y-52442617D01*
X207827745Y-52442625D01*
X207563978Y-52692479D01*
X207328772Y-52969386D01*
X207124884Y-53270098D01*
X207124878Y-53270107D01*
X206954706Y-53591086D01*
X206954700Y-53591098D01*
X206820226Y-53928603D01*
X206820221Y-53928618D01*
X206723030Y-54278670D01*
X206723024Y-54278696D01*
X206664250Y-54637200D01*
X206664248Y-54637217D01*
X206644579Y-54999997D01*
X206644579Y-55000002D01*
X183020091Y-55000002D01*
X182977871Y-54953112D01*
X182964523Y-54943414D01*
X182824734Y-54841851D01*
X182824729Y-54841848D01*
X182651807Y-54764857D01*
X182651802Y-54764855D01*
X182506001Y-54733865D01*
X182466646Y-54725500D01*
X182277354Y-54725500D01*
X182237999Y-54733865D01*
X182092198Y-54764855D01*
X182092193Y-54764857D01*
X182028376Y-54793270D01*
X181959126Y-54802554D01*
X181895850Y-54772925D01*
X181890261Y-54767671D01*
X181338198Y-54215608D01*
X181338178Y-54215586D01*
X181246736Y-54124144D01*
X181246730Y-54124139D01*
X181232171Y-54114411D01*
X181187367Y-54060799D01*
X181177705Y-54023907D01*
X181175999Y-54007204D01*
X181175998Y-54007200D01*
X181169029Y-53986170D01*
X181120814Y-53840666D01*
X181028712Y-53691344D01*
X180904656Y-53567288D01*
X180755334Y-53475186D01*
X180588797Y-53420001D01*
X180588795Y-53420000D01*
X180486010Y-53409500D01*
X179685998Y-53409500D01*
X179685980Y-53409501D01*
X179583203Y-53420000D01*
X179583200Y-53420001D01*
X179416668Y-53475185D01*
X179416663Y-53475187D01*
X179267342Y-53567289D01*
X179173681Y-53660951D01*
X179112358Y-53694436D01*
X179042666Y-53689452D01*
X178998319Y-53660951D01*
X178904657Y-53567289D01*
X178904656Y-53567288D01*
X178755334Y-53475186D01*
X178588797Y-53420001D01*
X178588795Y-53420000D01*
X178486010Y-53409500D01*
X177685998Y-53409500D01*
X177685980Y-53409501D01*
X177583203Y-53420000D01*
X177583200Y-53420001D01*
X177416668Y-53475185D01*
X177416663Y-53475187D01*
X177267342Y-53567289D01*
X177143288Y-53691343D01*
X177143285Y-53691347D01*
X177100527Y-53760669D01*
X177048579Y-53807394D01*
X176979617Y-53818615D01*
X176944553Y-53808851D01*
X176809807Y-53748857D01*
X176809802Y-53748855D01*
X176664001Y-53717865D01*
X176624646Y-53709500D01*
X176435354Y-53709500D01*
X176402897Y-53716398D01*
X176250197Y-53748855D01*
X176250192Y-53748857D01*
X176077270Y-53825848D01*
X176077265Y-53825851D01*
X175924129Y-53937111D01*
X175797466Y-54077785D01*
X175702821Y-54241715D01*
X175702818Y-54241722D01*
X175690805Y-54278696D01*
X175644326Y-54421744D01*
X175624540Y-54610000D01*
X173051000Y-54610000D01*
X173050999Y-53733464D01*
X173040386Y-53614082D01*
X172984409Y-53418451D01*
X172890198Y-53238093D01*
X172838184Y-53174303D01*
X172761609Y-53080390D01*
X172603909Y-52951804D01*
X172603910Y-52951804D01*
X172603907Y-52951802D01*
X172423549Y-52857591D01*
X172423548Y-52857590D01*
X172423545Y-52857589D01*
X172306329Y-52824050D01*
X172227918Y-52801614D01*
X172227915Y-52801613D01*
X172227913Y-52801613D01*
X172155131Y-52795142D01*
X172108537Y-52791000D01*
X172108533Y-52791000D01*
X171525000Y-52791000D01*
X171457961Y-52771315D01*
X171412206Y-52718511D01*
X171401000Y-52667000D01*
X171401000Y-51907274D01*
X171417613Y-51845274D01*
X171435983Y-51813454D01*
X171515179Y-51676284D01*
X171573674Y-51496256D01*
X171593460Y-51308000D01*
X171573674Y-51119744D01*
X171515179Y-50939716D01*
X171420533Y-50775784D01*
X171293871Y-50635112D01*
X171293870Y-50635111D01*
X171140734Y-50523851D01*
X171140729Y-50523848D01*
X170967807Y-50446857D01*
X170967802Y-50446855D01*
X170822001Y-50415865D01*
X170782646Y-50407500D01*
X170593354Y-50407500D01*
X170560897Y-50414398D01*
X170408197Y-50446855D01*
X170408192Y-50446857D01*
X170235270Y-50523848D01*
X170235265Y-50523851D01*
X170082129Y-50635111D01*
X169955466Y-50775785D01*
X169860821Y-50939715D01*
X169860818Y-50939722D01*
X169802327Y-51119740D01*
X169802326Y-51119744D01*
X169782540Y-51308000D01*
X169802326Y-51496256D01*
X169802327Y-51496259D01*
X169860818Y-51676277D01*
X169860821Y-51676284D01*
X169883387Y-51715369D01*
X169900000Y-51777369D01*
X169900000Y-52667000D01*
X169880315Y-52734039D01*
X169827511Y-52779794D01*
X169776000Y-52791000D01*
X169192471Y-52791000D01*
X169192465Y-52791000D01*
X169192464Y-52791001D01*
X169180816Y-52792036D01*
X169073084Y-52801613D01*
X168877454Y-52857589D01*
X168787272Y-52904696D01*
X168697093Y-52951802D01*
X168697091Y-52951803D01*
X168697090Y-52951804D01*
X168539390Y-53080390D01*
X168410804Y-53238090D01*
X168410802Y-53238093D01*
X168363696Y-53328272D01*
X168316589Y-53418454D01*
X168274003Y-53567288D01*
X168267192Y-53591095D01*
X168260614Y-53614083D01*
X168260613Y-53614086D01*
X168250000Y-53733466D01*
X168250000Y-54849528D01*
X168250001Y-54849534D01*
X168260613Y-54968915D01*
X168316589Y-55164545D01*
X168316590Y-55164548D01*
X168316591Y-55164549D01*
X168410802Y-55344907D01*
X168438874Y-55379334D01*
X168539390Y-55502609D01*
X168608609Y-55559049D01*
X168697093Y-55631198D01*
X168708408Y-55637108D01*
X168758717Y-55685593D01*
X168775000Y-55747018D01*
X168775000Y-58967000D01*
X168755315Y-59034039D01*
X168702511Y-59079794D01*
X168651000Y-59091000D01*
X167899377Y-59091000D01*
X167899374Y-59091001D01*
X167856613Y-59093899D01*
X167856612Y-59093899D01*
X167671803Y-59139860D01*
X167501207Y-59224467D01*
X167501204Y-59224469D01*
X167352778Y-59343777D01*
X167352777Y-59343778D01*
X167233469Y-59492204D01*
X167233467Y-59492207D01*
X167148860Y-59662802D01*
X167102900Y-59847607D01*
X167100000Y-59890379D01*
X167100000Y-61292622D01*
X167100001Y-61292625D01*
X167102899Y-61335386D01*
X167102899Y-61335387D01*
X167129363Y-61441797D01*
X167145168Y-61505353D01*
X167148860Y-61520196D01*
X167233467Y-61690792D01*
X167233469Y-61690795D01*
X167352775Y-61839219D01*
X167352776Y-61839220D01*
X167352778Y-61839222D01*
X167357136Y-61842725D01*
X167397055Y-61900068D01*
X167399635Y-61969890D01*
X167386837Y-62001372D01*
X167320820Y-62115718D01*
X167320818Y-62115722D01*
X167265479Y-62286039D01*
X167262326Y-62295744D01*
X167253159Y-62382965D01*
X167253002Y-62384462D01*
X167226417Y-62449076D01*
X167169120Y-62489061D01*
X167129681Y-62495500D01*
X166804080Y-62495500D01*
X166659092Y-62524340D01*
X166659082Y-62524343D01*
X166522511Y-62580912D01*
X166522498Y-62580919D01*
X166414815Y-62652872D01*
X166414813Y-62652873D01*
X166399585Y-62663047D01*
X166399580Y-62663051D01*
X161103449Y-67959181D01*
X161042126Y-67992666D01*
X161015768Y-67995500D01*
X159380129Y-67995500D01*
X159380123Y-67995501D01*
X159320516Y-68001908D01*
X159185671Y-68052202D01*
X159185664Y-68052206D01*
X159070455Y-68138452D01*
X159070452Y-68138455D01*
X158984206Y-68253664D01*
X158984202Y-68253671D01*
X158933908Y-68388517D01*
X158927501Y-68448116D01*
X158927500Y-68448135D01*
X158927500Y-70743870D01*
X158927501Y-70743876D01*
X158933908Y-70803483D01*
X158984202Y-70938328D01*
X158984206Y-70938335D01*
X159070452Y-71053544D01*
X159070455Y-71053547D01*
X159192769Y-71145112D01*
X159191426Y-71146905D01*
X159232096Y-71187581D01*
X159246942Y-71255855D01*
X159222521Y-71321318D01*
X159191956Y-71347802D01*
X159192769Y-71348888D01*
X159070455Y-71440452D01*
X159070452Y-71440455D01*
X158984206Y-71555664D01*
X158984202Y-71555671D01*
X158933908Y-71690517D01*
X158928283Y-71742846D01*
X158927501Y-71750123D01*
X158927500Y-71750135D01*
X158927500Y-74045870D01*
X154028417Y-74045870D01*
X154043224Y-74033224D01*
X154206836Y-73841659D01*
X154338466Y-73626859D01*
X154434873Y-73394111D01*
X154493683Y-73149148D01*
X154513449Y-72898000D01*
X154493683Y-72646852D01*
X154446912Y-72452035D01*
X154434873Y-72401888D01*
X154338466Y-72169140D01*
X154206839Y-71954346D01*
X154206838Y-71954343D01*
X154169875Y-71911066D01*
X154043224Y-71762776D01*
X153916571Y-71654604D01*
X153851656Y-71599161D01*
X153851653Y-71599160D01*
X153636859Y-71467533D01*
X153404109Y-71371126D01*
X153389313Y-71367574D01*
X153328721Y-71332784D01*
X153296556Y-71270758D01*
X153303032Y-71201189D01*
X153346091Y-71146165D01*
X153389313Y-71126426D01*
X153395441Y-71124954D01*
X153404111Y-71122873D01*
X153636859Y-71026466D01*
X153851659Y-70894836D01*
X154043224Y-70731224D01*
X154206836Y-70539659D01*
X154338466Y-70324859D01*
X154434873Y-70092111D01*
X154493683Y-69847148D01*
X154513449Y-69596000D01*
X154493683Y-69344852D01*
X154434873Y-69099889D01*
X154434872Y-69099884D01*
X154423767Y-69073074D01*
X154416298Y-69003605D01*
X154447573Y-68941126D01*
X154450616Y-68937972D01*
X155699857Y-67688734D01*
X155704056Y-67682451D01*
X155768311Y-67586286D01*
X155815463Y-67472452D01*
X155839500Y-67351606D01*
X155839500Y-65869999D01*
X155859185Y-65802960D01*
X155911989Y-65757205D01*
X155963500Y-65745999D01*
X156061871Y-65745999D01*
X156061872Y-65745999D01*
X156121483Y-65739591D01*
X156256331Y-65689296D01*
X156371546Y-65603046D01*
X156457796Y-65487831D01*
X156508091Y-65352983D01*
X156508092Y-65352972D01*
X156509365Y-65347588D01*
X156543933Y-65286869D01*
X156605841Y-65254478D01*
X156675433Y-65260699D01*
X156717725Y-65288412D01*
X156874858Y-65445545D01*
X156874861Y-65445547D01*
X157061266Y-65576068D01*
X157267504Y-65672239D01*
X157487308Y-65731135D01*
X157649230Y-65745301D01*
X157713998Y-65750968D01*
X157714000Y-65750968D01*
X157714002Y-65750968D01*
X157770807Y-65745998D01*
X157940692Y-65731135D01*
X158160496Y-65672239D01*
X158366734Y-65576068D01*
X158553139Y-65445547D01*
X158714047Y-65284639D01*
X158844568Y-65098234D01*
X158940739Y-64891996D01*
X158999635Y-64672192D01*
X159019468Y-64445500D01*
X159018374Y-64433000D01*
X159011925Y-64359285D01*
X158999635Y-64218808D01*
X158949800Y-64032819D01*
X158940741Y-63999011D01*
X158940738Y-63999002D01*
X158937163Y-63991335D01*
X158844568Y-63792766D01*
X158734100Y-63635000D01*
X158714048Y-63606362D01*
X158691283Y-63583597D01*
X158640865Y-63533179D01*
X158607382Y-63471859D01*
X158612366Y-63402167D01*
X158640865Y-63357820D01*
X158714047Y-63284639D01*
X158844568Y-63098234D01*
X158940739Y-62891996D01*
X158999635Y-62672192D01*
X159019468Y-62445500D01*
X158999635Y-62218808D01*
X158940739Y-61999004D01*
X158844568Y-61792766D01*
X158714047Y-61606361D01*
X158714045Y-61606358D01*
X158553141Y-61445454D01*
X158366734Y-61314932D01*
X158366732Y-61314931D01*
X158160497Y-61218761D01*
X158160488Y-61218758D01*
X157940697Y-61159866D01*
X157940693Y-61159865D01*
X157940692Y-61159865D01*
X157940691Y-61159864D01*
X157940686Y-61159864D01*
X157714002Y-61140032D01*
X157713998Y-61140032D01*
X157487313Y-61159864D01*
X157487302Y-61159866D01*
X157267511Y-61218758D01*
X157267502Y-61218761D01*
X157061267Y-61314931D01*
X157061265Y-61314932D01*
X156874858Y-61445454D01*
X156713954Y-61606358D01*
X156583432Y-61792765D01*
X156583429Y-61792770D01*
X156576104Y-61808479D01*
X156529929Y-61860917D01*
X156462735Y-61880066D01*
X156395855Y-61859847D01*
X156351341Y-61808473D01*
X156344133Y-61793015D01*
X156344132Y-61793013D01*
X156293025Y-61720026D01*
X155676550Y-62336500D01*
X155656630Y-62262157D01*
X155594095Y-62153843D01*
X155505657Y-62065405D01*
X155397343Y-62002870D01*
X155322998Y-61982949D01*
X155939472Y-61366474D01*
X155866478Y-61315363D01*
X155660331Y-61219235D01*
X155660317Y-61219230D01*
X155440610Y-61160360D01*
X155440599Y-61160358D01*
X155214002Y-61140534D01*
X155213998Y-61140534D01*
X154987400Y-61160358D01*
X154987389Y-61160360D01*
X154767682Y-61219230D01*
X154767673Y-61219234D01*
X154561516Y-61315366D01*
X154561512Y-61315368D01*
X154488526Y-61366473D01*
X154488526Y-61366474D01*
X155105002Y-61982949D01*
X155030657Y-62002870D01*
X154922343Y-62065405D01*
X154833905Y-62153843D01*
X154771370Y-62262157D01*
X154751449Y-62336502D01*
X154134974Y-61720026D01*
X154134973Y-61720026D01*
X154083868Y-61793012D01*
X154083866Y-61793016D01*
X153987734Y-61999173D01*
X153987730Y-61999182D01*
X153928860Y-62218889D01*
X153928858Y-62218900D01*
X153909034Y-62445497D01*
X153909034Y-62445502D01*
X153928858Y-62672099D01*
X153928860Y-62672110D01*
X153987730Y-62891817D01*
X153987734Y-62891826D01*
X154083865Y-63097981D01*
X154083868Y-63097985D01*
X154092812Y-63110760D01*
X154115138Y-63176967D01*
X154098125Y-63244734D01*
X154065549Y-63281145D01*
X154056456Y-63287952D01*
X154056451Y-63287957D01*
X153970206Y-63403164D01*
X153970202Y-63403171D01*
X153919908Y-63538017D01*
X153913501Y-63597616D01*
X153913500Y-63597635D01*
X153913500Y-65293370D01*
X153913501Y-65293376D01*
X153919908Y-65352983D01*
X153970202Y-65487828D01*
X153970206Y-65487835D01*
X154056452Y-65603044D01*
X154056455Y-65603047D01*
X154171664Y-65689293D01*
X154171671Y-65689297D01*
X154207886Y-65702804D01*
X154306517Y-65739591D01*
X154366127Y-65746000D01*
X154464500Y-65745999D01*
X154531538Y-65765683D01*
X154577294Y-65818486D01*
X154588500Y-65869999D01*
X154588500Y-66979547D01*
X154568815Y-67046586D01*
X154552181Y-67067228D01*
X153566056Y-68053352D01*
X153504733Y-68086837D01*
X153435041Y-68081853D01*
X153430923Y-68080232D01*
X153404113Y-68069127D01*
X153159151Y-68010317D01*
X152908000Y-67990551D01*
X152656848Y-68010317D01*
X152411889Y-68069126D01*
X152179140Y-68165533D01*
X151964346Y-68297160D01*
X151964343Y-68297161D01*
X151772776Y-68460776D01*
X151609161Y-68652343D01*
X151609160Y-68652346D01*
X151477533Y-68867140D01*
X151381126Y-69099889D01*
X151322317Y-69344848D01*
X151302551Y-69596000D01*
X151322317Y-69847151D01*
X151381126Y-70092110D01*
X151477533Y-70324859D01*
X151609160Y-70539653D01*
X151609161Y-70539656D01*
X151664584Y-70604547D01*
X151772776Y-70731224D01*
X151921066Y-70857875D01*
X151964343Y-70894838D01*
X151964346Y-70894839D01*
X152179140Y-71026466D01*
X152343715Y-71094634D01*
X152411889Y-71122873D01*
X152424312Y-71125855D01*
X152426688Y-71126426D01*
X152487279Y-71161217D01*
X152519443Y-71223243D01*
X152512967Y-71292812D01*
X152469907Y-71347836D01*
X152426688Y-71367574D01*
X152411887Y-71371127D01*
X152179140Y-71467533D01*
X151964346Y-71599160D01*
X151964343Y-71599161D01*
X151772776Y-71762776D01*
X151609161Y-71954343D01*
X151609160Y-71954346D01*
X151477533Y-72169140D01*
X151381127Y-72401888D01*
X151322317Y-72646848D01*
X151302551Y-72898000D01*
X151322317Y-73149151D01*
X151381127Y-73394112D01*
X151381127Y-73394114D01*
X151392232Y-73420923D01*
X151399701Y-73490392D01*
X151368425Y-73552871D01*
X151365353Y-73556056D01*
X151273770Y-73647639D01*
X151273767Y-73647642D01*
X151233153Y-73688256D01*
X151186640Y-73734768D01*
X151163592Y-73769264D01*
X151163590Y-73769267D01*
X151118190Y-73837210D01*
X151118185Y-73837219D01*
X151092706Y-73898732D01*
X151092707Y-73898733D01*
X151072093Y-73948500D01*
X151072090Y-73948507D01*
X151071038Y-73951043D01*
X151071036Y-73951050D01*
X151056328Y-74025000D01*
X151056327Y-74025001D01*
X151047000Y-74071889D01*
X151047000Y-77184773D01*
X151027315Y-77251812D01*
X150994123Y-77286348D01*
X150801097Y-77421505D01*
X150634005Y-77588597D01*
X150498465Y-77782169D01*
X150498465Y-77782170D01*
X150398598Y-77996335D01*
X150398594Y-77996344D01*
X150337438Y-78224586D01*
X150337436Y-78224596D01*
X150316841Y-78459999D01*
X150316841Y-78460000D01*
X139512159Y-78460000D01*
X139495063Y-78264592D01*
X139433903Y-78036337D01*
X139334035Y-77822171D01*
X139331269Y-77818220D01*
X139198494Y-77628597D01*
X139031402Y-77461506D01*
X139031395Y-77461501D01*
X138837834Y-77325967D01*
X138837830Y-77325965D01*
X138787344Y-77302423D01*
X138623663Y-77226097D01*
X138623659Y-77226096D01*
X138623655Y-77226094D01*
X138395413Y-77164938D01*
X138395403Y-77164936D01*
X138160001Y-77144341D01*
X138159999Y-77144341D01*
X137924596Y-77164936D01*
X137924586Y-77164938D01*
X137696344Y-77226094D01*
X137696335Y-77226098D01*
X137596905Y-77272463D01*
X137527827Y-77282955D01*
X137464043Y-77254435D01*
X137425804Y-77195959D01*
X137420500Y-77160081D01*
X137420500Y-60500000D01*
X139896751Y-60500000D01*
X139915731Y-60813781D01*
X139915731Y-60813786D01*
X139915732Y-60813787D01*
X139972397Y-61122998D01*
X139972398Y-61123002D01*
X139972399Y-61123006D01*
X140065913Y-61423106D01*
X140065917Y-61423118D01*
X140065920Y-61423125D01*
X140194937Y-61709790D01*
X140357567Y-61978812D01*
X140357573Y-61978821D01*
X140551442Y-62226276D01*
X140773723Y-62448557D01*
X140949339Y-62586144D01*
X141021186Y-62642432D01*
X141290210Y-62805063D01*
X141576875Y-62934080D01*
X141576888Y-62934084D01*
X141576893Y-62934086D01*
X141776959Y-62996428D01*
X141877002Y-63027603D01*
X142186213Y-63084268D01*
X142500000Y-63103249D01*
X142813787Y-63084268D01*
X143122998Y-63027603D01*
X143423125Y-62934080D01*
X143709790Y-62805063D01*
X143978814Y-62642432D01*
X144226273Y-62448560D01*
X144448560Y-62226273D01*
X144642432Y-61978814D01*
X144805063Y-61709790D01*
X144934080Y-61423125D01*
X145027603Y-61122998D01*
X145084268Y-60813787D01*
X145103249Y-60500000D01*
X145084268Y-60186213D01*
X145027603Y-59877002D01*
X144982426Y-59732023D01*
X144936770Y-59585505D01*
X147959057Y-59585505D01*
X147978807Y-59899442D01*
X147978808Y-59899449D01*
X148037755Y-60208458D01*
X148134963Y-60507632D01*
X148134965Y-60507637D01*
X148268900Y-60792261D01*
X148268903Y-60792267D01*
X148437457Y-61057867D01*
X148437460Y-61057871D01*
X148528286Y-61167660D01*
X149491913Y-60204033D01*
X149586829Y-60334675D01*
X149714825Y-60462671D01*
X149845465Y-60557586D01*
X148878971Y-61524079D01*
X148878972Y-61524081D01*
X149121772Y-61700485D01*
X149121790Y-61700496D01*
X149397447Y-61852040D01*
X149397455Y-61852044D01*
X149689926Y-61967840D01*
X149994620Y-62046073D01*
X149994629Y-62046075D01*
X150306701Y-62085499D01*
X150306715Y-62085500D01*
X150621285Y-62085500D01*
X150621298Y-62085499D01*
X150933370Y-62046075D01*
X150933379Y-62046073D01*
X151238073Y-61967840D01*
X151530544Y-61852044D01*
X151530552Y-61852040D01*
X151806209Y-61700496D01*
X151806219Y-61700490D01*
X152049026Y-61524079D01*
X152049027Y-61524079D01*
X151082533Y-60557586D01*
X151213175Y-60462671D01*
X151341171Y-60334675D01*
X151436086Y-60204034D01*
X152399712Y-61167660D01*
X152490544Y-61057864D01*
X152659096Y-60792267D01*
X152659099Y-60792261D01*
X152793034Y-60507637D01*
X152793036Y-60507632D01*
X152890244Y-60208458D01*
X152949191Y-59899449D01*
X152949192Y-59899442D01*
X152968943Y-59585505D01*
X159959057Y-59585505D01*
X159978807Y-59899442D01*
X159978808Y-59899449D01*
X160037755Y-60208458D01*
X160134963Y-60507632D01*
X160134965Y-60507637D01*
X160268900Y-60792261D01*
X160268903Y-60792267D01*
X160437457Y-61057867D01*
X160437460Y-61057871D01*
X160528286Y-61167660D01*
X161491913Y-60204033D01*
X161586829Y-60334675D01*
X161714825Y-60462671D01*
X161845465Y-60557586D01*
X160878971Y-61524079D01*
X160878972Y-61524081D01*
X161121772Y-61700485D01*
X161121790Y-61700496D01*
X161397447Y-61852040D01*
X161397455Y-61852044D01*
X161689926Y-61967840D01*
X161994620Y-62046073D01*
X161994629Y-62046075D01*
X162306701Y-62085499D01*
X162306715Y-62085500D01*
X162621285Y-62085500D01*
X162621298Y-62085499D01*
X162933370Y-62046075D01*
X162933379Y-62046073D01*
X163238073Y-61967840D01*
X163530544Y-61852044D01*
X163530552Y-61852040D01*
X163806209Y-61700496D01*
X163806219Y-61700490D01*
X164049026Y-61524079D01*
X164049027Y-61524079D01*
X163082533Y-60557586D01*
X163213175Y-60462671D01*
X163341171Y-60334675D01*
X163436086Y-60204034D01*
X164399712Y-61167660D01*
X164490544Y-61057864D01*
X164659096Y-60792267D01*
X164659099Y-60792261D01*
X164793034Y-60507637D01*
X164793036Y-60507632D01*
X164890244Y-60208458D01*
X164949191Y-59899449D01*
X164949192Y-59899442D01*
X164968943Y-59585505D01*
X164968943Y-59585494D01*
X164949192Y-59271557D01*
X164949191Y-59271550D01*
X164890244Y-58962541D01*
X164793036Y-58663367D01*
X164793034Y-58663362D01*
X164659099Y-58378738D01*
X164659096Y-58378732D01*
X164490542Y-58113132D01*
X164490539Y-58113128D01*
X164399712Y-58003338D01*
X163436085Y-58966965D01*
X163341171Y-58836325D01*
X163213175Y-58708329D01*
X163082533Y-58613413D01*
X164049027Y-57646919D01*
X164049026Y-57646917D01*
X163806227Y-57470514D01*
X163806209Y-57470503D01*
X163530552Y-57318959D01*
X163530544Y-57318955D01*
X163238073Y-57203159D01*
X162933379Y-57124926D01*
X162933370Y-57124924D01*
X162621298Y-57085500D01*
X162306701Y-57085500D01*
X161994629Y-57124924D01*
X161994620Y-57124926D01*
X161689926Y-57203159D01*
X161397455Y-57318955D01*
X161397447Y-57318959D01*
X161121787Y-57470504D01*
X161121782Y-57470507D01*
X160878972Y-57646918D01*
X160878971Y-57646919D01*
X161845466Y-58613413D01*
X161714825Y-58708329D01*
X161586829Y-58836325D01*
X161491913Y-58966965D01*
X160528286Y-58003338D01*
X160528285Y-58003338D01*
X160437459Y-58113129D01*
X160437457Y-58113132D01*
X160268903Y-58378732D01*
X160268900Y-58378738D01*
X160134965Y-58663362D01*
X160134963Y-58663367D01*
X160037755Y-58962541D01*
X159978808Y-59271550D01*
X159978807Y-59271557D01*
X159959057Y-59585494D01*
X159959057Y-59585505D01*
X152968943Y-59585505D01*
X152968943Y-59585494D01*
X152949192Y-59271557D01*
X152949191Y-59271550D01*
X152890244Y-58962541D01*
X152793036Y-58663367D01*
X152793034Y-58663362D01*
X152659099Y-58378738D01*
X152659096Y-58378732D01*
X152490542Y-58113132D01*
X152490539Y-58113128D01*
X152399712Y-58003338D01*
X151436085Y-58966965D01*
X151341171Y-58836325D01*
X151213175Y-58708329D01*
X151082533Y-58613413D01*
X152049027Y-57646919D01*
X152049026Y-57646917D01*
X151806227Y-57470514D01*
X151806209Y-57470503D01*
X151530552Y-57318959D01*
X151530544Y-57318955D01*
X151238073Y-57203159D01*
X150933379Y-57124926D01*
X150933370Y-57124924D01*
X150621298Y-57085500D01*
X150306701Y-57085500D01*
X149994629Y-57124924D01*
X149994620Y-57124926D01*
X149689926Y-57203159D01*
X149397455Y-57318955D01*
X149397447Y-57318959D01*
X149121787Y-57470504D01*
X149121782Y-57470507D01*
X148878972Y-57646918D01*
X148878971Y-57646919D01*
X149845466Y-58613413D01*
X149714825Y-58708329D01*
X149586829Y-58836325D01*
X149491913Y-58966965D01*
X148528286Y-58003338D01*
X148528285Y-58003338D01*
X148437459Y-58113129D01*
X148437457Y-58113132D01*
X148268903Y-58378732D01*
X148268900Y-58378738D01*
X148134965Y-58663362D01*
X148134963Y-58663367D01*
X148037755Y-58962541D01*
X147978808Y-59271550D01*
X147978807Y-59271557D01*
X147959057Y-59585494D01*
X147959057Y-59585505D01*
X144936770Y-59585505D01*
X144934086Y-59576893D01*
X144934084Y-59576888D01*
X144934080Y-59576875D01*
X144805063Y-59290210D01*
X144642432Y-59021186D01*
X144640336Y-59018511D01*
X144448557Y-58773723D01*
X144226276Y-58551442D01*
X143978821Y-58357573D01*
X143978816Y-58357570D01*
X143978814Y-58357568D01*
X143709790Y-58194937D01*
X143423125Y-58065920D01*
X143423118Y-58065917D01*
X143423106Y-58065913D01*
X143123006Y-57972399D01*
X143123002Y-57972398D01*
X143122998Y-57972397D01*
X142813787Y-57915732D01*
X142813786Y-57915731D01*
X142813781Y-57915731D01*
X142500000Y-57896751D01*
X142186218Y-57915731D01*
X142186213Y-57915732D01*
X141877002Y-57972397D01*
X141876999Y-57972397D01*
X141876993Y-57972399D01*
X141576893Y-58065913D01*
X141576877Y-58065919D01*
X141576875Y-58065920D01*
X141471983Y-58113128D01*
X141290214Y-58194935D01*
X141290212Y-58194936D01*
X141021187Y-58357567D01*
X141021178Y-58357573D01*
X140773723Y-58551442D01*
X140551442Y-58773723D01*
X140357573Y-59021178D01*
X140357567Y-59021187D01*
X140285827Y-59139860D01*
X140206218Y-59271550D01*
X140194936Y-59290212D01*
X140194935Y-59290214D01*
X140166682Y-59352991D01*
X140067890Y-59572499D01*
X140065919Y-59576878D01*
X140065913Y-59576893D01*
X139972399Y-59876993D01*
X139972397Y-59876999D01*
X139972397Y-59877002D01*
X139945480Y-60023882D01*
X139915731Y-60186218D01*
X139896751Y-60500000D01*
X137420500Y-60500000D01*
X137420500Y-56428453D01*
X137440185Y-56361414D01*
X137471614Y-56328135D01*
X137511871Y-56298888D01*
X137514977Y-56295437D01*
X137517600Y-56292526D01*
X137577087Y-56255879D01*
X137609748Y-56251500D01*
X140774252Y-56251500D01*
X140841291Y-56271185D01*
X140866400Y-56292526D01*
X140872126Y-56298885D01*
X140872130Y-56298889D01*
X141025265Y-56410148D01*
X141025270Y-56410151D01*
X141198192Y-56487142D01*
X141198197Y-56487144D01*
X141383354Y-56526500D01*
X141383355Y-56526500D01*
X141572644Y-56526500D01*
X141572646Y-56526500D01*
X141757803Y-56487144D01*
X141930730Y-56410151D01*
X142083871Y-56298888D01*
X142210533Y-56158216D01*
X142305179Y-55994284D01*
X142363674Y-55814256D01*
X142383460Y-55626000D01*
X142363674Y-55437744D01*
X142305179Y-55257716D01*
X142210533Y-55093784D01*
X142153806Y-55030783D01*
X142119651Y-54992849D01*
X142089421Y-54929857D01*
X142093869Y-54871561D01*
X142115723Y-54804305D01*
X142135509Y-54616049D01*
X142115723Y-54427793D01*
X142057228Y-54247765D01*
X141962582Y-54083833D01*
X141835920Y-53943161D01*
X141835919Y-53943160D01*
X141682783Y-53831900D01*
X141682778Y-53831897D01*
X141509856Y-53754906D01*
X141509851Y-53754904D01*
X141364050Y-53723914D01*
X141324695Y-53715549D01*
X141135403Y-53715549D01*
X141102946Y-53722447D01*
X140950246Y-53754904D01*
X140950241Y-53754906D01*
X140777319Y-53831897D01*
X140777314Y-53831900D01*
X140624179Y-53943159D01*
X140624175Y-53943163D01*
X140618449Y-53949523D01*
X140558962Y-53986170D01*
X140526301Y-53990549D01*
X133790340Y-53990549D01*
X133729922Y-54002567D01*
X133692210Y-54010068D01*
X133669501Y-54014585D01*
X133669499Y-54014586D01*
X133636158Y-54028396D01*
X133555670Y-54061733D01*
X133555656Y-54061741D01*
X133453223Y-54130187D01*
X133453215Y-54130193D01*
X132039141Y-55544267D01*
X132031038Y-55556394D01*
X132025694Y-55564394D01*
X132003660Y-55597367D01*
X131970687Y-55646714D01*
X131970685Y-55646718D01*
X131938092Y-55725406D01*
X131938092Y-55725409D01*
X131929142Y-55747018D01*
X131923537Y-55760549D01*
X131923535Y-55760556D01*
X131899500Y-55881389D01*
X131899500Y-56640713D01*
X131879815Y-56707752D01*
X131834518Y-56749768D01*
X131760487Y-56789831D01*
X131760481Y-56789835D01*
X131578319Y-56931618D01*
X131578315Y-56931621D01*
X131476230Y-57042516D01*
X131416343Y-57078507D01*
X131346504Y-57076406D01*
X131293770Y-57042516D01*
X131191687Y-56931624D01*
X131191686Y-56931623D01*
X131191684Y-56931621D01*
X131191680Y-56931618D01*
X131009518Y-56789835D01*
X131009507Y-56789828D01*
X130806485Y-56679959D01*
X130806482Y-56679957D01*
X130806479Y-56679956D01*
X130806476Y-56679955D01*
X130806474Y-56679954D01*
X130588135Y-56604998D01*
X130403268Y-56574149D01*
X130360427Y-56567000D01*
X130129573Y-56567000D01*
X130086732Y-56574149D01*
X129901864Y-56604998D01*
X129683525Y-56679954D01*
X129683514Y-56679959D01*
X129480492Y-56789828D01*
X129480481Y-56789835D01*
X129298319Y-56931618D01*
X129298315Y-56931621D01*
X129196230Y-57042516D01*
X129136343Y-57078507D01*
X129066504Y-57076406D01*
X129013770Y-57042516D01*
X128911687Y-56931624D01*
X128911686Y-56931623D01*
X128911684Y-56931621D01*
X128911680Y-56931618D01*
X128729518Y-56789835D01*
X128729507Y-56789828D01*
X128526485Y-56679959D01*
X128526482Y-56679957D01*
X128526479Y-56679956D01*
X128526476Y-56679955D01*
X128526474Y-56679954D01*
X128308135Y-56604998D01*
X128123268Y-56574149D01*
X128080427Y-56567000D01*
X127849573Y-56567000D01*
X127806732Y-56574149D01*
X127621864Y-56604998D01*
X127403525Y-56679954D01*
X127403514Y-56679959D01*
X127200492Y-56789828D01*
X127200481Y-56789835D01*
X127018319Y-56931618D01*
X127018315Y-56931621D01*
X126916230Y-57042516D01*
X126856343Y-57078507D01*
X126786504Y-57076406D01*
X126733770Y-57042516D01*
X126631687Y-56931624D01*
X126631686Y-56931623D01*
X126631684Y-56931621D01*
X126631680Y-56931618D01*
X126449518Y-56789835D01*
X126449507Y-56789828D01*
X126246485Y-56679959D01*
X126246482Y-56679957D01*
X126246479Y-56679956D01*
X126246476Y-56679955D01*
X126246474Y-56679954D01*
X126028135Y-56604998D01*
X125843268Y-56574149D01*
X125800427Y-56567000D01*
X125569573Y-56567000D01*
X125526732Y-56574149D01*
X125341864Y-56604998D01*
X125123525Y-56679954D01*
X125123514Y-56679959D01*
X124920492Y-56789828D01*
X124920481Y-56789835D01*
X124738319Y-56931618D01*
X124738316Y-56931621D01*
X124581961Y-57101467D01*
X124581958Y-57101471D01*
X124455694Y-57294731D01*
X124362960Y-57506145D01*
X124306289Y-57729937D01*
X124287226Y-57959994D01*
X124287226Y-57960005D01*
X124306289Y-58190062D01*
X124362960Y-58413854D01*
X124455694Y-58625268D01*
X124552685Y-58773723D01*
X124581960Y-58818531D01*
X124648497Y-58890810D01*
X124656513Y-58899517D01*
X124687435Y-58962172D01*
X124679575Y-59031598D01*
X124635428Y-59085753D01*
X124569010Y-59107444D01*
X124565283Y-59107500D01*
X124429615Y-59107500D01*
X124201987Y-59145484D01*
X123983729Y-59220413D01*
X123983721Y-59220416D01*
X123780760Y-59330254D01*
X123751545Y-59352991D01*
X123751545Y-59352992D01*
X124338022Y-59939469D01*
X124315339Y-59945548D01*
X124179662Y-60023882D01*
X124068882Y-60134662D01*
X123990548Y-60270339D01*
X123984469Y-60293022D01*
X123399231Y-59707784D01*
X123316135Y-59834972D01*
X123223435Y-60046308D01*
X123166784Y-60270020D01*
X123147728Y-60499994D01*
X123147728Y-60500005D01*
X123166784Y-60729979D01*
X123223435Y-60953691D01*
X123316135Y-61165027D01*
X123399230Y-61292214D01*
X123984469Y-60706976D01*
X123990548Y-60729661D01*
X124068882Y-60865338D01*
X124179662Y-60976118D01*
X124315339Y-61054452D01*
X124338022Y-61060529D01*
X123751544Y-61647006D01*
X123751545Y-61647007D01*
X123780762Y-61669747D01*
X123780764Y-61669748D01*
X123983720Y-61779583D01*
X123983729Y-61779586D01*
X124201987Y-61854515D01*
X124209570Y-61855781D01*
X124272455Y-61886231D01*
X124308895Y-61945846D01*
X124307320Y-62015698D01*
X124305344Y-62021420D01*
X124298409Y-62040015D01*
X124298408Y-62040016D01*
X124292001Y-62099616D01*
X124292000Y-62099635D01*
X124292000Y-63980370D01*
X124292001Y-63980376D01*
X124298408Y-64039983D01*
X124348702Y-64174828D01*
X124348706Y-64174835D01*
X124434952Y-64290044D01*
X124434955Y-64290047D01*
X124550164Y-64376293D01*
X124550171Y-64376297D01*
X124566486Y-64382382D01*
X124685017Y-64426591D01*
X124744627Y-64433000D01*
X124935500Y-64432999D01*
X125002539Y-64452683D01*
X125048294Y-64505487D01*
X125059500Y-64556999D01*
X125059500Y-66611312D01*
X125039815Y-66678351D01*
X125027650Y-66694284D01*
X124952466Y-66777784D01*
X124857821Y-66941715D01*
X124857818Y-66941722D01*
X124817039Y-67067228D01*
X124799326Y-67121744D01*
X124779540Y-67310000D01*
X124799326Y-67498256D01*
X124799327Y-67498259D01*
X124857818Y-67678277D01*
X124857821Y-67678284D01*
X124952467Y-67842216D01*
X124980242Y-67873063D01*
X125027650Y-67925715D01*
X125057880Y-67988706D01*
X125059500Y-68008687D01*
X125059500Y-71222846D01*
X125039815Y-71289885D01*
X125023181Y-71310527D01*
X121926769Y-74406939D01*
X118806270Y-77527438D01*
X118806267Y-77527441D01*
X118762703Y-77571004D01*
X118719140Y-77614567D01*
X118709765Y-77628599D01*
X118696142Y-77648988D01*
X118650688Y-77717013D01*
X118623699Y-77782171D01*
X118603537Y-77830845D01*
X118603535Y-77830853D01*
X118598045Y-77858448D01*
X118598046Y-77858449D01*
X118589883Y-77899495D01*
X118589882Y-77899501D01*
X118579500Y-77951691D01*
X118579500Y-79926611D01*
X113351442Y-79926611D01*
X113339979Y-79715187D01*
X113335751Y-79637215D01*
X113334849Y-79631716D01*
X113276975Y-79278696D01*
X113276974Y-79278695D01*
X113276973Y-79278684D01*
X113225859Y-79094588D01*
X113179778Y-78928618D01*
X113179773Y-78928603D01*
X113045299Y-78591098D01*
X113045298Y-78591095D01*
X112875117Y-78270100D01*
X112671227Y-77969386D01*
X112436021Y-77692479D01*
X112172254Y-77442625D01*
X112172244Y-77442617D01*
X112092296Y-77381843D01*
X111883019Y-77222755D01*
X111571708Y-77035445D01*
X111571707Y-77035444D01*
X111571703Y-77035442D01*
X111571699Y-77035440D01*
X111241979Y-76882896D01*
X111241974Y-76882894D01*
X111241969Y-76882892D01*
X111074143Y-76826344D01*
X110897669Y-76766883D01*
X110542845Y-76688781D01*
X110181660Y-76649500D01*
X110181659Y-76649500D01*
X109818341Y-76649500D01*
X109818339Y-76649500D01*
X109457154Y-76688781D01*
X109102330Y-76766883D01*
X108836178Y-76856560D01*
X108758031Y-76882892D01*
X108758028Y-76882893D01*
X108758020Y-76882896D01*
X108428300Y-77035440D01*
X108428296Y-77035442D01*
X108249707Y-77142896D01*
X108116981Y-77222755D01*
X108065930Y-77261563D01*
X107827755Y-77442617D01*
X107827745Y-77442625D01*
X107563978Y-77692479D01*
X107328772Y-77969386D01*
X107124884Y-78270098D01*
X107124878Y-78270107D01*
X106954706Y-78591086D01*
X106954700Y-78591098D01*
X106820226Y-78928603D01*
X106820221Y-78928618D01*
X106723030Y-79278670D01*
X106723024Y-79278696D01*
X106664250Y-79637200D01*
X106664248Y-79637217D01*
X106644579Y-79999997D01*
X106644579Y-80000002D01*
X104500000Y-80000002D01*
X104500000Y-60500000D01*
X114896751Y-60500000D01*
X114915731Y-60813781D01*
X114915731Y-60813786D01*
X114915732Y-60813787D01*
X114972397Y-61122998D01*
X114972398Y-61123002D01*
X114972399Y-61123006D01*
X115065913Y-61423106D01*
X115065917Y-61423118D01*
X115065920Y-61423125D01*
X115194937Y-61709790D01*
X115357567Y-61978812D01*
X115357573Y-61978821D01*
X115551442Y-62226276D01*
X115773723Y-62448557D01*
X115949339Y-62586144D01*
X116021186Y-62642432D01*
X116290210Y-62805063D01*
X116576875Y-62934080D01*
X116576888Y-62934084D01*
X116576893Y-62934086D01*
X116776959Y-62996428D01*
X116877002Y-63027603D01*
X117186213Y-63084268D01*
X117500000Y-63103249D01*
X117813787Y-63084268D01*
X118122998Y-63027603D01*
X118423125Y-62934080D01*
X118709790Y-62805063D01*
X118978814Y-62642432D01*
X119226273Y-62448560D01*
X119448560Y-62226273D01*
X119642432Y-61978814D01*
X119805063Y-61709790D01*
X119934080Y-61423125D01*
X120027603Y-61122998D01*
X120084268Y-60813787D01*
X120103249Y-60500000D01*
X120084268Y-60186213D01*
X120027603Y-59877002D01*
X119982426Y-59732023D01*
X119934086Y-59576893D01*
X119934084Y-59576888D01*
X119934080Y-59576875D01*
X119805063Y-59290210D01*
X119642432Y-59021186D01*
X119640336Y-59018511D01*
X119448557Y-58773723D01*
X119226276Y-58551442D01*
X118978821Y-58357573D01*
X118978816Y-58357570D01*
X118978814Y-58357568D01*
X118709790Y-58194937D01*
X118423125Y-58065920D01*
X118423118Y-58065917D01*
X118423106Y-58065913D01*
X118123006Y-57972399D01*
X118123002Y-57972398D01*
X118122998Y-57972397D01*
X117813787Y-57915732D01*
X117813786Y-57915731D01*
X117813781Y-57915731D01*
X117500000Y-57896751D01*
X117186218Y-57915731D01*
X117186213Y-57915732D01*
X116877002Y-57972397D01*
X116876999Y-57972397D01*
X116876993Y-57972399D01*
X116576893Y-58065913D01*
X116576877Y-58065919D01*
X116576875Y-58065920D01*
X116471983Y-58113128D01*
X116290214Y-58194935D01*
X116290212Y-58194936D01*
X116021187Y-58357567D01*
X116021178Y-58357573D01*
X115773723Y-58551442D01*
X115551442Y-58773723D01*
X115357573Y-59021178D01*
X115357567Y-59021187D01*
X115285827Y-59139860D01*
X115206218Y-59271550D01*
X115194936Y-59290212D01*
X115194935Y-59290214D01*
X115166682Y-59352991D01*
X115067890Y-59572499D01*
X115065919Y-59576878D01*
X115065913Y-59576893D01*
X114972399Y-59876993D01*
X114972397Y-59876999D01*
X114972397Y-59877002D01*
X114945480Y-60023882D01*
X114915731Y-60186218D01*
X114896751Y-60500000D01*
X104500000Y-60500000D01*
X104500000Y-55000002D01*
X106644579Y-55000002D01*
X106664248Y-55362782D01*
X106664250Y-55362799D01*
X106723024Y-55721303D01*
X106723030Y-55721329D01*
X106820221Y-56071381D01*
X106820226Y-56071396D01*
X106954700Y-56408901D01*
X106954706Y-56408913D01*
X107124878Y-56729892D01*
X107124881Y-56729897D01*
X107124883Y-56729900D01*
X107165520Y-56789835D01*
X107328772Y-57030613D01*
X107544190Y-57284223D01*
X107563979Y-57307521D01*
X107827746Y-57557375D01*
X108116981Y-57777245D01*
X108428292Y-57964555D01*
X108428294Y-57964556D01*
X108428296Y-57964557D01*
X108428300Y-57964559D01*
X108749437Y-58113132D01*
X108758031Y-58117108D01*
X109102330Y-58233116D01*
X109457153Y-58311218D01*
X109818341Y-58350500D01*
X109818347Y-58350500D01*
X110181653Y-58350500D01*
X110181659Y-58350500D01*
X110542847Y-58311218D01*
X110897670Y-58233116D01*
X111241969Y-58117108D01*
X111571708Y-57964555D01*
X111883019Y-57777245D01*
X112172254Y-57557375D01*
X112436021Y-57307521D01*
X112671227Y-57030614D01*
X112875117Y-56729900D01*
X113045298Y-56408905D01*
X113179775Y-56071391D01*
X113276973Y-55721316D01*
X113309065Y-55525564D01*
X113335749Y-55362799D01*
X113335751Y-55362782D01*
X113355421Y-55000002D01*
X113355421Y-54999997D01*
X113335751Y-54637217D01*
X113335749Y-54637200D01*
X113276975Y-54278696D01*
X113276974Y-54278695D01*
X113276973Y-54278684D01*
X113226241Y-54095964D01*
X113179778Y-53928618D01*
X113179773Y-53928603D01*
X113054458Y-53614086D01*
X113045298Y-53591095D01*
X112875117Y-53270100D01*
X112671227Y-52969386D01*
X112436021Y-52692479D01*
X112172254Y-52442625D01*
X112172244Y-52442617D01*
X112103635Y-52390462D01*
X111883019Y-52222755D01*
X111571708Y-52035445D01*
X111571707Y-52035444D01*
X111571703Y-52035442D01*
X111571699Y-52035440D01*
X111241979Y-51882896D01*
X111241974Y-51882894D01*
X111241969Y-51882892D01*
X111074143Y-51826344D01*
X110897669Y-51766883D01*
X110542845Y-51688781D01*
X110181660Y-51649500D01*
X110181659Y-51649500D01*
X109818341Y-51649500D01*
X109818339Y-51649500D01*
X109457154Y-51688781D01*
X109102330Y-51766883D01*
X108869677Y-51845274D01*
X108758031Y-51882892D01*
X108758028Y-51882893D01*
X108758020Y-51882896D01*
X108428300Y-52035440D01*
X108428296Y-52035442D01*
X108196453Y-52174937D01*
X108116981Y-52222755D01*
X108027332Y-52290903D01*
X107827755Y-52442617D01*
X107827745Y-52442625D01*
X107563978Y-52692479D01*
X107328772Y-52969386D01*
X107124884Y-53270098D01*
X107124878Y-53270107D01*
X106954706Y-53591086D01*
X106954700Y-53591098D01*
X106820226Y-53928603D01*
X106820221Y-53928618D01*
X106723030Y-54278670D01*
X106723024Y-54278696D01*
X106664250Y-54637200D01*
X106664248Y-54637217D01*
X106644579Y-54999997D01*
X106644579Y-55000002D01*
X104500000Y-55000002D01*
X104500000Y-49624000D01*
X104519685Y-49556961D01*
X104572489Y-49511206D01*
X104624000Y-49500000D01*
X215376000Y-49500000D01*
X215443039Y-49519685D01*
G37*
%TD.AperFunction*%
%TD*%
M02*
