%TF.GenerationSoftware,KiCad,Pcbnew,8.0.1*%
%TF.CreationDate,2024-03-28T11:36:42+01:00*%
%TF.ProjectId,pc1715-esp32vga,70633137-3135-42d6-9573-703332766761,rev?*%
%TF.SameCoordinates,Original*%
%TF.FileFunction,Legend,Top*%
%TF.FilePolarity,Positive*%
%FSLAX46Y46*%
G04 Gerber Fmt 4.6, Leading zero omitted, Abs format (unit mm)*
G04 Created by KiCad (PCBNEW 8.0.1) date 2024-03-28 11:36:42*
%MOMM*%
%LPD*%
G01*
G04 APERTURE LIST*
%ADD10C,0.150000*%
%ADD11C,0.125000*%
%ADD12C,0.120000*%
%ADD13C,0.127000*%
%ADD14C,0.400000*%
G04 APERTURE END LIST*
D10*
X109112207Y-68785931D02*
X108778874Y-68309740D01*
X108540779Y-68785931D02*
X108540779Y-67785931D01*
X108540779Y-67785931D02*
X108921731Y-67785931D01*
X108921731Y-67785931D02*
X109016969Y-67833550D01*
X109016969Y-67833550D02*
X109064588Y-67881169D01*
X109064588Y-67881169D02*
X109112207Y-67976407D01*
X109112207Y-67976407D02*
X109112207Y-68119264D01*
X109112207Y-68119264D02*
X109064588Y-68214502D01*
X109064588Y-68214502D02*
X109016969Y-68262121D01*
X109016969Y-68262121D02*
X108921731Y-68309740D01*
X108921731Y-68309740D02*
X108540779Y-68309740D01*
X109683636Y-68785931D02*
X109588398Y-68738312D01*
X109588398Y-68738312D02*
X109540779Y-68690692D01*
X109540779Y-68690692D02*
X109493160Y-68595454D01*
X109493160Y-68595454D02*
X109493160Y-68309740D01*
X109493160Y-68309740D02*
X109540779Y-68214502D01*
X109540779Y-68214502D02*
X109588398Y-68166883D01*
X109588398Y-68166883D02*
X109683636Y-68119264D01*
X109683636Y-68119264D02*
X109826493Y-68119264D01*
X109826493Y-68119264D02*
X109921731Y-68166883D01*
X109921731Y-68166883D02*
X109969350Y-68214502D01*
X109969350Y-68214502D02*
X110016969Y-68309740D01*
X110016969Y-68309740D02*
X110016969Y-68595454D01*
X110016969Y-68595454D02*
X109969350Y-68690692D01*
X109969350Y-68690692D02*
X109921731Y-68738312D01*
X109921731Y-68738312D02*
X109826493Y-68785931D01*
X109826493Y-68785931D02*
X109683636Y-68785931D01*
X110445541Y-68785931D02*
X110445541Y-67785931D01*
X110445541Y-68166883D02*
X110540779Y-68119264D01*
X110540779Y-68119264D02*
X110731255Y-68119264D01*
X110731255Y-68119264D02*
X110826493Y-68166883D01*
X110826493Y-68166883D02*
X110874112Y-68214502D01*
X110874112Y-68214502D02*
X110921731Y-68309740D01*
X110921731Y-68309740D02*
X110921731Y-68595454D01*
X110921731Y-68595454D02*
X110874112Y-68690692D01*
X110874112Y-68690692D02*
X110826493Y-68738312D01*
X110826493Y-68738312D02*
X110731255Y-68785931D01*
X110731255Y-68785931D02*
X110540779Y-68785931D01*
X110540779Y-68785931D02*
X110445541Y-68738312D01*
X111493160Y-68785931D02*
X111397922Y-68738312D01*
X111397922Y-68738312D02*
X111350303Y-68690692D01*
X111350303Y-68690692D02*
X111302684Y-68595454D01*
X111302684Y-68595454D02*
X111302684Y-68309740D01*
X111302684Y-68309740D02*
X111350303Y-68214502D01*
X111350303Y-68214502D02*
X111397922Y-68166883D01*
X111397922Y-68166883D02*
X111493160Y-68119264D01*
X111493160Y-68119264D02*
X111636017Y-68119264D01*
X111636017Y-68119264D02*
X111731255Y-68166883D01*
X111731255Y-68166883D02*
X111778874Y-68214502D01*
X111778874Y-68214502D02*
X111826493Y-68309740D01*
X111826493Y-68309740D02*
X111826493Y-68595454D01*
X111826493Y-68595454D02*
X111778874Y-68690692D01*
X111778874Y-68690692D02*
X111731255Y-68738312D01*
X111731255Y-68738312D02*
X111636017Y-68785931D01*
X111636017Y-68785931D02*
X111493160Y-68785931D01*
X112112208Y-68119264D02*
X112493160Y-68119264D01*
X112255065Y-67785931D02*
X112255065Y-68643073D01*
X112255065Y-68643073D02*
X112302684Y-68738312D01*
X112302684Y-68738312D02*
X112397922Y-68785931D01*
X112397922Y-68785931D02*
X112493160Y-68785931D01*
X112826494Y-68785931D02*
X112826494Y-68119264D01*
X112826494Y-68309740D02*
X112874113Y-68214502D01*
X112874113Y-68214502D02*
X112921732Y-68166883D01*
X112921732Y-68166883D02*
X113016970Y-68119264D01*
X113016970Y-68119264D02*
X113112208Y-68119264D01*
X113588399Y-68785931D02*
X113493161Y-68738312D01*
X113493161Y-68738312D02*
X113445542Y-68690692D01*
X113445542Y-68690692D02*
X113397923Y-68595454D01*
X113397923Y-68595454D02*
X113397923Y-68309740D01*
X113397923Y-68309740D02*
X113445542Y-68214502D01*
X113445542Y-68214502D02*
X113493161Y-68166883D01*
X113493161Y-68166883D02*
X113588399Y-68119264D01*
X113588399Y-68119264D02*
X113731256Y-68119264D01*
X113731256Y-68119264D02*
X113826494Y-68166883D01*
X113826494Y-68166883D02*
X113874113Y-68214502D01*
X113874113Y-68214502D02*
X113921732Y-68309740D01*
X113921732Y-68309740D02*
X113921732Y-68595454D01*
X113921732Y-68595454D02*
X113874113Y-68690692D01*
X113874113Y-68690692D02*
X113826494Y-68738312D01*
X113826494Y-68738312D02*
X113731256Y-68785931D01*
X113731256Y-68785931D02*
X113588399Y-68785931D01*
X114350304Y-68119264D02*
X114350304Y-68785931D01*
X114350304Y-68214502D02*
X114397923Y-68166883D01*
X114397923Y-68166883D02*
X114493161Y-68119264D01*
X114493161Y-68119264D02*
X114636018Y-68119264D01*
X114636018Y-68119264D02*
X114731256Y-68166883D01*
X114731256Y-68166883D02*
X114778875Y-68262121D01*
X114778875Y-68262121D02*
X114778875Y-68785931D01*
X115874114Y-67785931D02*
X116207447Y-68785931D01*
X116207447Y-68785931D02*
X116540780Y-67785931D01*
X117397923Y-67833550D02*
X117302685Y-67785931D01*
X117302685Y-67785931D02*
X117159828Y-67785931D01*
X117159828Y-67785931D02*
X117016971Y-67833550D01*
X117016971Y-67833550D02*
X116921733Y-67928788D01*
X116921733Y-67928788D02*
X116874114Y-68024026D01*
X116874114Y-68024026D02*
X116826495Y-68214502D01*
X116826495Y-68214502D02*
X116826495Y-68357359D01*
X116826495Y-68357359D02*
X116874114Y-68547835D01*
X116874114Y-68547835D02*
X116921733Y-68643073D01*
X116921733Y-68643073D02*
X117016971Y-68738312D01*
X117016971Y-68738312D02*
X117159828Y-68785931D01*
X117159828Y-68785931D02*
X117255066Y-68785931D01*
X117255066Y-68785931D02*
X117397923Y-68738312D01*
X117397923Y-68738312D02*
X117445542Y-68690692D01*
X117445542Y-68690692D02*
X117445542Y-68357359D01*
X117445542Y-68357359D02*
X117255066Y-68357359D01*
X117826495Y-68500216D02*
X118302685Y-68500216D01*
X117731257Y-68785931D02*
X118064590Y-67785931D01*
X118064590Y-67785931D02*
X118397923Y-68785931D01*
X119445543Y-68500216D02*
X119921733Y-68500216D01*
X119350305Y-68785931D02*
X119683638Y-67785931D01*
X119683638Y-67785931D02*
X120016971Y-68785931D01*
X120778876Y-68785931D02*
X120778876Y-67785931D01*
X120778876Y-68738312D02*
X120683638Y-68785931D01*
X120683638Y-68785931D02*
X120493162Y-68785931D01*
X120493162Y-68785931D02*
X120397924Y-68738312D01*
X120397924Y-68738312D02*
X120350305Y-68690692D01*
X120350305Y-68690692D02*
X120302686Y-68595454D01*
X120302686Y-68595454D02*
X120302686Y-68309740D01*
X120302686Y-68309740D02*
X120350305Y-68214502D01*
X120350305Y-68214502D02*
X120397924Y-68166883D01*
X120397924Y-68166883D02*
X120493162Y-68119264D01*
X120493162Y-68119264D02*
X120683638Y-68119264D01*
X120683638Y-68119264D02*
X120778876Y-68166883D01*
X121683638Y-68785931D02*
X121683638Y-68262121D01*
X121683638Y-68262121D02*
X121636019Y-68166883D01*
X121636019Y-68166883D02*
X121540781Y-68119264D01*
X121540781Y-68119264D02*
X121350305Y-68119264D01*
X121350305Y-68119264D02*
X121255067Y-68166883D01*
X121683638Y-68738312D02*
X121588400Y-68785931D01*
X121588400Y-68785931D02*
X121350305Y-68785931D01*
X121350305Y-68785931D02*
X121255067Y-68738312D01*
X121255067Y-68738312D02*
X121207448Y-68643073D01*
X121207448Y-68643073D02*
X121207448Y-68547835D01*
X121207448Y-68547835D02*
X121255067Y-68452597D01*
X121255067Y-68452597D02*
X121350305Y-68404978D01*
X121350305Y-68404978D02*
X121588400Y-68404978D01*
X121588400Y-68404978D02*
X121683638Y-68357359D01*
X122159829Y-68119264D02*
X122159829Y-69119264D01*
X122159829Y-68166883D02*
X122255067Y-68119264D01*
X122255067Y-68119264D02*
X122445543Y-68119264D01*
X122445543Y-68119264D02*
X122540781Y-68166883D01*
X122540781Y-68166883D02*
X122588400Y-68214502D01*
X122588400Y-68214502D02*
X122636019Y-68309740D01*
X122636019Y-68309740D02*
X122636019Y-68595454D01*
X122636019Y-68595454D02*
X122588400Y-68690692D01*
X122588400Y-68690692D02*
X122540781Y-68738312D01*
X122540781Y-68738312D02*
X122445543Y-68785931D01*
X122445543Y-68785931D02*
X122255067Y-68785931D01*
X122255067Y-68785931D02*
X122159829Y-68738312D01*
X122921734Y-68119264D02*
X123302686Y-68119264D01*
X123064591Y-67785931D02*
X123064591Y-68643073D01*
X123064591Y-68643073D02*
X123112210Y-68738312D01*
X123112210Y-68738312D02*
X123207448Y-68785931D01*
X123207448Y-68785931D02*
X123302686Y-68785931D01*
X124016972Y-68738312D02*
X123921734Y-68785931D01*
X123921734Y-68785931D02*
X123731258Y-68785931D01*
X123731258Y-68785931D02*
X123636020Y-68738312D01*
X123636020Y-68738312D02*
X123588401Y-68643073D01*
X123588401Y-68643073D02*
X123588401Y-68262121D01*
X123588401Y-68262121D02*
X123636020Y-68166883D01*
X123636020Y-68166883D02*
X123731258Y-68119264D01*
X123731258Y-68119264D02*
X123921734Y-68119264D01*
X123921734Y-68119264D02*
X124016972Y-68166883D01*
X124016972Y-68166883D02*
X124064591Y-68262121D01*
X124064591Y-68262121D02*
X124064591Y-68357359D01*
X124064591Y-68357359D02*
X123588401Y-68452597D01*
X124493163Y-68785931D02*
X124493163Y-68119264D01*
X124493163Y-68309740D02*
X124540782Y-68214502D01*
X124540782Y-68214502D02*
X124588401Y-68166883D01*
X124588401Y-68166883D02*
X124683639Y-68119264D01*
X124683639Y-68119264D02*
X124778877Y-68119264D01*
X108540779Y-70395875D02*
X108540779Y-69395875D01*
X108540779Y-69395875D02*
X108778874Y-69395875D01*
X108778874Y-69395875D02*
X108921731Y-69443494D01*
X108921731Y-69443494D02*
X109016969Y-69538732D01*
X109016969Y-69538732D02*
X109064588Y-69633970D01*
X109064588Y-69633970D02*
X109112207Y-69824446D01*
X109112207Y-69824446D02*
X109112207Y-69967303D01*
X109112207Y-69967303D02*
X109064588Y-70157779D01*
X109064588Y-70157779D02*
X109016969Y-70253017D01*
X109016969Y-70253017D02*
X108921731Y-70348256D01*
X108921731Y-70348256D02*
X108778874Y-70395875D01*
X108778874Y-70395875D02*
X108540779Y-70395875D01*
X109921731Y-70348256D02*
X109826493Y-70395875D01*
X109826493Y-70395875D02*
X109636017Y-70395875D01*
X109636017Y-70395875D02*
X109540779Y-70348256D01*
X109540779Y-70348256D02*
X109493160Y-70253017D01*
X109493160Y-70253017D02*
X109493160Y-69872065D01*
X109493160Y-69872065D02*
X109540779Y-69776827D01*
X109540779Y-69776827D02*
X109636017Y-69729208D01*
X109636017Y-69729208D02*
X109826493Y-69729208D01*
X109826493Y-69729208D02*
X109921731Y-69776827D01*
X109921731Y-69776827D02*
X109969350Y-69872065D01*
X109969350Y-69872065D02*
X109969350Y-69967303D01*
X109969350Y-69967303D02*
X109493160Y-70062541D01*
X110350303Y-70348256D02*
X110445541Y-70395875D01*
X110445541Y-70395875D02*
X110636017Y-70395875D01*
X110636017Y-70395875D02*
X110731255Y-70348256D01*
X110731255Y-70348256D02*
X110778874Y-70253017D01*
X110778874Y-70253017D02*
X110778874Y-70205398D01*
X110778874Y-70205398D02*
X110731255Y-70110160D01*
X110731255Y-70110160D02*
X110636017Y-70062541D01*
X110636017Y-70062541D02*
X110493160Y-70062541D01*
X110493160Y-70062541D02*
X110397922Y-70014922D01*
X110397922Y-70014922D02*
X110350303Y-69919684D01*
X110350303Y-69919684D02*
X110350303Y-69872065D01*
X110350303Y-69872065D02*
X110397922Y-69776827D01*
X110397922Y-69776827D02*
X110493160Y-69729208D01*
X110493160Y-69729208D02*
X110636017Y-69729208D01*
X110636017Y-69729208D02*
X110731255Y-69776827D01*
X111207446Y-70395875D02*
X111207446Y-69729208D01*
X111207446Y-69395875D02*
X111159827Y-69443494D01*
X111159827Y-69443494D02*
X111207446Y-69491113D01*
X111207446Y-69491113D02*
X111255065Y-69443494D01*
X111255065Y-69443494D02*
X111207446Y-69395875D01*
X111207446Y-69395875D02*
X111207446Y-69491113D01*
X112112207Y-69729208D02*
X112112207Y-70538732D01*
X112112207Y-70538732D02*
X112064588Y-70633970D01*
X112064588Y-70633970D02*
X112016969Y-70681589D01*
X112016969Y-70681589D02*
X111921731Y-70729208D01*
X111921731Y-70729208D02*
X111778874Y-70729208D01*
X111778874Y-70729208D02*
X111683636Y-70681589D01*
X112112207Y-70348256D02*
X112016969Y-70395875D01*
X112016969Y-70395875D02*
X111826493Y-70395875D01*
X111826493Y-70395875D02*
X111731255Y-70348256D01*
X111731255Y-70348256D02*
X111683636Y-70300636D01*
X111683636Y-70300636D02*
X111636017Y-70205398D01*
X111636017Y-70205398D02*
X111636017Y-69919684D01*
X111636017Y-69919684D02*
X111683636Y-69824446D01*
X111683636Y-69824446D02*
X111731255Y-69776827D01*
X111731255Y-69776827D02*
X111826493Y-69729208D01*
X111826493Y-69729208D02*
X112016969Y-69729208D01*
X112016969Y-69729208D02*
X112112207Y-69776827D01*
X112588398Y-69729208D02*
X112588398Y-70395875D01*
X112588398Y-69824446D02*
X112636017Y-69776827D01*
X112636017Y-69776827D02*
X112731255Y-69729208D01*
X112731255Y-69729208D02*
X112874112Y-69729208D01*
X112874112Y-69729208D02*
X112969350Y-69776827D01*
X112969350Y-69776827D02*
X113016969Y-69872065D01*
X113016969Y-69872065D02*
X113016969Y-70395875D01*
X114540779Y-70776827D02*
X114493160Y-70729208D01*
X114493160Y-70729208D02*
X114397922Y-70586351D01*
X114397922Y-70586351D02*
X114350303Y-70491113D01*
X114350303Y-70491113D02*
X114302684Y-70348256D01*
X114302684Y-70348256D02*
X114255065Y-70110160D01*
X114255065Y-70110160D02*
X114255065Y-69919684D01*
X114255065Y-69919684D02*
X114302684Y-69681589D01*
X114302684Y-69681589D02*
X114350303Y-69538732D01*
X114350303Y-69538732D02*
X114397922Y-69443494D01*
X114397922Y-69443494D02*
X114493160Y-69300636D01*
X114493160Y-69300636D02*
X114540779Y-69253017D01*
X115350303Y-70348256D02*
X115255065Y-70395875D01*
X115255065Y-70395875D02*
X115064589Y-70395875D01*
X115064589Y-70395875D02*
X114969351Y-70348256D01*
X114969351Y-70348256D02*
X114921732Y-70300636D01*
X114921732Y-70300636D02*
X114874113Y-70205398D01*
X114874113Y-70205398D02*
X114874113Y-69919684D01*
X114874113Y-69919684D02*
X114921732Y-69824446D01*
X114921732Y-69824446D02*
X114969351Y-69776827D01*
X114969351Y-69776827D02*
X115064589Y-69729208D01*
X115064589Y-69729208D02*
X115255065Y-69729208D01*
X115255065Y-69729208D02*
X115350303Y-69776827D01*
X115683637Y-70776827D02*
X115731256Y-70729208D01*
X115731256Y-70729208D02*
X115826494Y-70586351D01*
X115826494Y-70586351D02*
X115874113Y-70491113D01*
X115874113Y-70491113D02*
X115921732Y-70348256D01*
X115921732Y-70348256D02*
X115969351Y-70110160D01*
X115969351Y-70110160D02*
X115969351Y-69919684D01*
X115969351Y-69919684D02*
X115921732Y-69681589D01*
X115921732Y-69681589D02*
X115874113Y-69538732D01*
X115874113Y-69538732D02*
X115826494Y-69443494D01*
X115826494Y-69443494D02*
X115731256Y-69300636D01*
X115731256Y-69300636D02*
X115683637Y-69253017D01*
X116397923Y-69491113D02*
X116445542Y-69443494D01*
X116445542Y-69443494D02*
X116540780Y-69395875D01*
X116540780Y-69395875D02*
X116778875Y-69395875D01*
X116778875Y-69395875D02*
X116874113Y-69443494D01*
X116874113Y-69443494D02*
X116921732Y-69491113D01*
X116921732Y-69491113D02*
X116969351Y-69586351D01*
X116969351Y-69586351D02*
X116969351Y-69681589D01*
X116969351Y-69681589D02*
X116921732Y-69824446D01*
X116921732Y-69824446D02*
X116350304Y-70395875D01*
X116350304Y-70395875D02*
X116969351Y-70395875D01*
X117588399Y-69395875D02*
X117683637Y-69395875D01*
X117683637Y-69395875D02*
X117778875Y-69443494D01*
X117778875Y-69443494D02*
X117826494Y-69491113D01*
X117826494Y-69491113D02*
X117874113Y-69586351D01*
X117874113Y-69586351D02*
X117921732Y-69776827D01*
X117921732Y-69776827D02*
X117921732Y-70014922D01*
X117921732Y-70014922D02*
X117874113Y-70205398D01*
X117874113Y-70205398D02*
X117826494Y-70300636D01*
X117826494Y-70300636D02*
X117778875Y-70348256D01*
X117778875Y-70348256D02*
X117683637Y-70395875D01*
X117683637Y-70395875D02*
X117588399Y-70395875D01*
X117588399Y-70395875D02*
X117493161Y-70348256D01*
X117493161Y-70348256D02*
X117445542Y-70300636D01*
X117445542Y-70300636D02*
X117397923Y-70205398D01*
X117397923Y-70205398D02*
X117350304Y-70014922D01*
X117350304Y-70014922D02*
X117350304Y-69776827D01*
X117350304Y-69776827D02*
X117397923Y-69586351D01*
X117397923Y-69586351D02*
X117445542Y-69491113D01*
X117445542Y-69491113D02*
X117493161Y-69443494D01*
X117493161Y-69443494D02*
X117588399Y-69395875D01*
X118302685Y-69491113D02*
X118350304Y-69443494D01*
X118350304Y-69443494D02*
X118445542Y-69395875D01*
X118445542Y-69395875D02*
X118683637Y-69395875D01*
X118683637Y-69395875D02*
X118778875Y-69443494D01*
X118778875Y-69443494D02*
X118826494Y-69491113D01*
X118826494Y-69491113D02*
X118874113Y-69586351D01*
X118874113Y-69586351D02*
X118874113Y-69681589D01*
X118874113Y-69681589D02*
X118826494Y-69824446D01*
X118826494Y-69824446D02*
X118255066Y-70395875D01*
X118255066Y-70395875D02*
X118874113Y-70395875D01*
X119731256Y-69729208D02*
X119731256Y-70395875D01*
X119493161Y-69348256D02*
X119255066Y-70062541D01*
X119255066Y-70062541D02*
X119874113Y-70062541D01*
X121016971Y-70395875D02*
X121016971Y-69395875D01*
X121016971Y-69395875D02*
X121350304Y-70110160D01*
X121350304Y-70110160D02*
X121683637Y-69395875D01*
X121683637Y-69395875D02*
X121683637Y-70395875D01*
X122159828Y-70300636D02*
X122207447Y-70348256D01*
X122207447Y-70348256D02*
X122159828Y-70395875D01*
X122159828Y-70395875D02*
X122112209Y-70348256D01*
X122112209Y-70348256D02*
X122159828Y-70300636D01*
X122159828Y-70300636D02*
X122159828Y-70395875D01*
X123921732Y-69443494D02*
X123826494Y-69395875D01*
X123826494Y-69395875D02*
X123683637Y-69395875D01*
X123683637Y-69395875D02*
X123540780Y-69443494D01*
X123540780Y-69443494D02*
X123445542Y-69538732D01*
X123445542Y-69538732D02*
X123397923Y-69633970D01*
X123397923Y-69633970D02*
X123350304Y-69824446D01*
X123350304Y-69824446D02*
X123350304Y-69967303D01*
X123350304Y-69967303D02*
X123397923Y-70157779D01*
X123397923Y-70157779D02*
X123445542Y-70253017D01*
X123445542Y-70253017D02*
X123540780Y-70348256D01*
X123540780Y-70348256D02*
X123683637Y-70395875D01*
X123683637Y-70395875D02*
X123778875Y-70395875D01*
X123778875Y-70395875D02*
X123921732Y-70348256D01*
X123921732Y-70348256D02*
X123969351Y-70300636D01*
X123969351Y-70300636D02*
X123969351Y-69967303D01*
X123969351Y-69967303D02*
X123778875Y-69967303D01*
X124540780Y-70395875D02*
X124445542Y-70348256D01*
X124445542Y-70348256D02*
X124397923Y-70300636D01*
X124397923Y-70300636D02*
X124350304Y-70205398D01*
X124350304Y-70205398D02*
X124350304Y-69919684D01*
X124350304Y-69919684D02*
X124397923Y-69824446D01*
X124397923Y-69824446D02*
X124445542Y-69776827D01*
X124445542Y-69776827D02*
X124540780Y-69729208D01*
X124540780Y-69729208D02*
X124683637Y-69729208D01*
X124683637Y-69729208D02*
X124778875Y-69776827D01*
X124778875Y-69776827D02*
X124826494Y-69824446D01*
X124826494Y-69824446D02*
X124874113Y-69919684D01*
X124874113Y-69919684D02*
X124874113Y-70205398D01*
X124874113Y-70205398D02*
X124826494Y-70300636D01*
X124826494Y-70300636D02*
X124778875Y-70348256D01*
X124778875Y-70348256D02*
X124683637Y-70395875D01*
X124683637Y-70395875D02*
X124540780Y-70395875D01*
X125683637Y-70348256D02*
X125588399Y-70395875D01*
X125588399Y-70395875D02*
X125397923Y-70395875D01*
X125397923Y-70395875D02*
X125302685Y-70348256D01*
X125302685Y-70348256D02*
X125255066Y-70253017D01*
X125255066Y-70253017D02*
X125255066Y-69872065D01*
X125255066Y-69872065D02*
X125302685Y-69776827D01*
X125302685Y-69776827D02*
X125397923Y-69729208D01*
X125397923Y-69729208D02*
X125588399Y-69729208D01*
X125588399Y-69729208D02*
X125683637Y-69776827D01*
X125683637Y-69776827D02*
X125731256Y-69872065D01*
X125731256Y-69872065D02*
X125731256Y-69967303D01*
X125731256Y-69967303D02*
X125255066Y-70062541D01*
X126588399Y-69729208D02*
X126588399Y-70538732D01*
X126588399Y-70538732D02*
X126540780Y-70633970D01*
X126540780Y-70633970D02*
X126493161Y-70681589D01*
X126493161Y-70681589D02*
X126397923Y-70729208D01*
X126397923Y-70729208D02*
X126255066Y-70729208D01*
X126255066Y-70729208D02*
X126159828Y-70681589D01*
X126588399Y-70348256D02*
X126493161Y-70395875D01*
X126493161Y-70395875D02*
X126302685Y-70395875D01*
X126302685Y-70395875D02*
X126207447Y-70348256D01*
X126207447Y-70348256D02*
X126159828Y-70300636D01*
X126159828Y-70300636D02*
X126112209Y-70205398D01*
X126112209Y-70205398D02*
X126112209Y-69919684D01*
X126112209Y-69919684D02*
X126159828Y-69824446D01*
X126159828Y-69824446D02*
X126207447Y-69776827D01*
X126207447Y-69776827D02*
X126302685Y-69729208D01*
X126302685Y-69729208D02*
X126493161Y-69729208D01*
X126493161Y-69729208D02*
X126588399Y-69776827D01*
X127445542Y-70348256D02*
X127350304Y-70395875D01*
X127350304Y-70395875D02*
X127159828Y-70395875D01*
X127159828Y-70395875D02*
X127064590Y-70348256D01*
X127064590Y-70348256D02*
X127016971Y-70253017D01*
X127016971Y-70253017D02*
X127016971Y-69872065D01*
X127016971Y-69872065D02*
X127064590Y-69776827D01*
X127064590Y-69776827D02*
X127159828Y-69729208D01*
X127159828Y-69729208D02*
X127350304Y-69729208D01*
X127350304Y-69729208D02*
X127445542Y-69776827D01*
X127445542Y-69776827D02*
X127493161Y-69872065D01*
X127493161Y-69872065D02*
X127493161Y-69967303D01*
X127493161Y-69967303D02*
X127016971Y-70062541D01*
X128064590Y-70395875D02*
X127969352Y-70348256D01*
X127969352Y-70348256D02*
X127921733Y-70253017D01*
X127921733Y-70253017D02*
X127921733Y-69395875D01*
X109112207Y-72005819D02*
X108778874Y-71529628D01*
X108540779Y-72005819D02*
X108540779Y-71005819D01*
X108540779Y-71005819D02*
X108921731Y-71005819D01*
X108921731Y-71005819D02*
X109016969Y-71053438D01*
X109016969Y-71053438D02*
X109064588Y-71101057D01*
X109064588Y-71101057D02*
X109112207Y-71196295D01*
X109112207Y-71196295D02*
X109112207Y-71339152D01*
X109112207Y-71339152D02*
X109064588Y-71434390D01*
X109064588Y-71434390D02*
X109016969Y-71482009D01*
X109016969Y-71482009D02*
X108921731Y-71529628D01*
X108921731Y-71529628D02*
X108540779Y-71529628D01*
X109921731Y-71958200D02*
X109826493Y-72005819D01*
X109826493Y-72005819D02*
X109636017Y-72005819D01*
X109636017Y-72005819D02*
X109540779Y-71958200D01*
X109540779Y-71958200D02*
X109493160Y-71862961D01*
X109493160Y-71862961D02*
X109493160Y-71482009D01*
X109493160Y-71482009D02*
X109540779Y-71386771D01*
X109540779Y-71386771D02*
X109636017Y-71339152D01*
X109636017Y-71339152D02*
X109826493Y-71339152D01*
X109826493Y-71339152D02*
X109921731Y-71386771D01*
X109921731Y-71386771D02*
X109969350Y-71482009D01*
X109969350Y-71482009D02*
X109969350Y-71577247D01*
X109969350Y-71577247D02*
X109493160Y-71672485D01*
X110302684Y-71339152D02*
X110540779Y-72005819D01*
X110540779Y-72005819D02*
X110778874Y-71339152D01*
X112445541Y-72005819D02*
X111874113Y-72005819D01*
X112159827Y-72005819D02*
X112159827Y-71005819D01*
X112159827Y-71005819D02*
X112064589Y-71148676D01*
X112064589Y-71148676D02*
X111969351Y-71243914D01*
X111969351Y-71243914D02*
X111874113Y-71291533D01*
X143202207Y-68384520D02*
X142745064Y-68384520D01*
X142973636Y-68384520D02*
X142973636Y-67584520D01*
X142973636Y-67584520D02*
X142897445Y-67698805D01*
X142897445Y-67698805D02*
X142821255Y-67774996D01*
X142821255Y-67774996D02*
X142745064Y-67813091D01*
X143697446Y-67584520D02*
X143773636Y-67584520D01*
X143773636Y-67584520D02*
X143849827Y-67622615D01*
X143849827Y-67622615D02*
X143887922Y-67660710D01*
X143887922Y-67660710D02*
X143926017Y-67736901D01*
X143926017Y-67736901D02*
X143964112Y-67889282D01*
X143964112Y-67889282D02*
X143964112Y-68079758D01*
X143964112Y-68079758D02*
X143926017Y-68232139D01*
X143926017Y-68232139D02*
X143887922Y-68308329D01*
X143887922Y-68308329D02*
X143849827Y-68346425D01*
X143849827Y-68346425D02*
X143773636Y-68384520D01*
X143773636Y-68384520D02*
X143697446Y-68384520D01*
X143697446Y-68384520D02*
X143621255Y-68346425D01*
X143621255Y-68346425D02*
X143583160Y-68308329D01*
X143583160Y-68308329D02*
X143545065Y-68232139D01*
X143545065Y-68232139D02*
X143506969Y-68079758D01*
X143506969Y-68079758D02*
X143506969Y-67889282D01*
X143506969Y-67889282D02*
X143545065Y-67736901D01*
X143545065Y-67736901D02*
X143583160Y-67660710D01*
X143583160Y-67660710D02*
X143621255Y-67622615D01*
X143621255Y-67622615D02*
X143697446Y-67584520D01*
X145183160Y-67965472D02*
X145297446Y-68003567D01*
X145297446Y-68003567D02*
X145335541Y-68041663D01*
X145335541Y-68041663D02*
X145373637Y-68117853D01*
X145373637Y-68117853D02*
X145373637Y-68232139D01*
X145373637Y-68232139D02*
X145335541Y-68308329D01*
X145335541Y-68308329D02*
X145297446Y-68346425D01*
X145297446Y-68346425D02*
X145221256Y-68384520D01*
X145221256Y-68384520D02*
X144916494Y-68384520D01*
X144916494Y-68384520D02*
X144916494Y-67584520D01*
X144916494Y-67584520D02*
X145183160Y-67584520D01*
X145183160Y-67584520D02*
X145259351Y-67622615D01*
X145259351Y-67622615D02*
X145297446Y-67660710D01*
X145297446Y-67660710D02*
X145335541Y-67736901D01*
X145335541Y-67736901D02*
X145335541Y-67813091D01*
X145335541Y-67813091D02*
X145297446Y-67889282D01*
X145297446Y-67889282D02*
X145259351Y-67927377D01*
X145259351Y-67927377D02*
X145183160Y-67965472D01*
X145183160Y-67965472D02*
X144916494Y-67965472D01*
X145678398Y-68346425D02*
X145792684Y-68384520D01*
X145792684Y-68384520D02*
X145983160Y-68384520D01*
X145983160Y-68384520D02*
X146059351Y-68346425D01*
X146059351Y-68346425D02*
X146097446Y-68308329D01*
X146097446Y-68308329D02*
X146135541Y-68232139D01*
X146135541Y-68232139D02*
X146135541Y-68155948D01*
X146135541Y-68155948D02*
X146097446Y-68079758D01*
X146097446Y-68079758D02*
X146059351Y-68041663D01*
X146059351Y-68041663D02*
X145983160Y-68003567D01*
X145983160Y-68003567D02*
X145830779Y-67965472D01*
X145830779Y-67965472D02*
X145754589Y-67927377D01*
X145754589Y-67927377D02*
X145716494Y-67889282D01*
X145716494Y-67889282D02*
X145678398Y-67813091D01*
X145678398Y-67813091D02*
X145678398Y-67736901D01*
X145678398Y-67736901D02*
X145716494Y-67660710D01*
X145716494Y-67660710D02*
X145754589Y-67622615D01*
X145754589Y-67622615D02*
X145830779Y-67584520D01*
X145830779Y-67584520D02*
X146021256Y-67584520D01*
X146021256Y-67584520D02*
X146135541Y-67622615D01*
X146630780Y-68003567D02*
X146630780Y-68384520D01*
X146364113Y-67584520D02*
X146630780Y-68003567D01*
X146630780Y-68003567D02*
X146897446Y-67584520D01*
X147164113Y-68384520D02*
X147164113Y-67584520D01*
X147164113Y-67584520D02*
X147621256Y-68384520D01*
X147621256Y-68384520D02*
X147621256Y-67584520D01*
X148459351Y-68308329D02*
X148421255Y-68346425D01*
X148421255Y-68346425D02*
X148306970Y-68384520D01*
X148306970Y-68384520D02*
X148230779Y-68384520D01*
X148230779Y-68384520D02*
X148116493Y-68346425D01*
X148116493Y-68346425D02*
X148040303Y-68270234D01*
X148040303Y-68270234D02*
X148002208Y-68194044D01*
X148002208Y-68194044D02*
X147964112Y-68041663D01*
X147964112Y-68041663D02*
X147964112Y-67927377D01*
X147964112Y-67927377D02*
X148002208Y-67774996D01*
X148002208Y-67774996D02*
X148040303Y-67698805D01*
X148040303Y-67698805D02*
X148116493Y-67622615D01*
X148116493Y-67622615D02*
X148230779Y-67584520D01*
X148230779Y-67584520D02*
X148306970Y-67584520D01*
X148306970Y-67584520D02*
X148421255Y-67622615D01*
X148421255Y-67622615D02*
X148459351Y-67660710D01*
X143126017Y-68872475D02*
X142973636Y-68872475D01*
X142973636Y-68872475D02*
X142897445Y-68910570D01*
X142897445Y-68910570D02*
X142859350Y-68948665D01*
X142859350Y-68948665D02*
X142783160Y-69062951D01*
X142783160Y-69062951D02*
X142745064Y-69215332D01*
X142745064Y-69215332D02*
X142745064Y-69520094D01*
X142745064Y-69520094D02*
X142783160Y-69596284D01*
X142783160Y-69596284D02*
X142821255Y-69634380D01*
X142821255Y-69634380D02*
X142897445Y-69672475D01*
X142897445Y-69672475D02*
X143049826Y-69672475D01*
X143049826Y-69672475D02*
X143126017Y-69634380D01*
X143126017Y-69634380D02*
X143164112Y-69596284D01*
X143164112Y-69596284D02*
X143202207Y-69520094D01*
X143202207Y-69520094D02*
X143202207Y-69329618D01*
X143202207Y-69329618D02*
X143164112Y-69253427D01*
X143164112Y-69253427D02*
X143126017Y-69215332D01*
X143126017Y-69215332D02*
X143049826Y-69177237D01*
X143049826Y-69177237D02*
X142897445Y-69177237D01*
X142897445Y-69177237D02*
X142821255Y-69215332D01*
X142821255Y-69215332D02*
X142783160Y-69253427D01*
X142783160Y-69253427D02*
X142745064Y-69329618D01*
X144764113Y-69672475D02*
X144764113Y-68872475D01*
X145145065Y-69672475D02*
X145145065Y-68872475D01*
X145145065Y-68872475D02*
X145602208Y-69672475D01*
X145602208Y-69672475D02*
X145602208Y-68872475D01*
X145868874Y-68872475D02*
X146326017Y-68872475D01*
X146097445Y-69672475D02*
X146097445Y-68872475D01*
X146592684Y-69253427D02*
X146859350Y-69253427D01*
X146973636Y-69672475D02*
X146592684Y-69672475D01*
X146592684Y-69672475D02*
X146592684Y-68872475D01*
X146592684Y-68872475D02*
X146973636Y-68872475D01*
X147316494Y-69672475D02*
X147316494Y-68872475D01*
X147316494Y-68872475D02*
X147773637Y-69672475D01*
X147773637Y-69672475D02*
X147773637Y-68872475D01*
X148116493Y-69634380D02*
X148230779Y-69672475D01*
X148230779Y-69672475D02*
X148421255Y-69672475D01*
X148421255Y-69672475D02*
X148497446Y-69634380D01*
X148497446Y-69634380D02*
X148535541Y-69596284D01*
X148535541Y-69596284D02*
X148573636Y-69520094D01*
X148573636Y-69520094D02*
X148573636Y-69443903D01*
X148573636Y-69443903D02*
X148535541Y-69367713D01*
X148535541Y-69367713D02*
X148497446Y-69329618D01*
X148497446Y-69329618D02*
X148421255Y-69291522D01*
X148421255Y-69291522D02*
X148268874Y-69253427D01*
X148268874Y-69253427D02*
X148192684Y-69215332D01*
X148192684Y-69215332D02*
X148154589Y-69177237D01*
X148154589Y-69177237D02*
X148116493Y-69101046D01*
X148116493Y-69101046D02*
X148116493Y-69024856D01*
X148116493Y-69024856D02*
X148154589Y-68948665D01*
X148154589Y-68948665D02*
X148192684Y-68910570D01*
X148192684Y-68910570D02*
X148268874Y-68872475D01*
X148268874Y-68872475D02*
X148459351Y-68872475D01*
X148459351Y-68872475D02*
X148573636Y-68910570D01*
X143126017Y-70427096D02*
X143126017Y-70960430D01*
X142935541Y-70122335D02*
X142745064Y-70693763D01*
X142745064Y-70693763D02*
X143240303Y-70693763D01*
X144649827Y-70160430D02*
X144916494Y-70960430D01*
X144916494Y-70960430D02*
X145183160Y-70160430D01*
X145449827Y-70960430D02*
X145449827Y-70160430D01*
X145830779Y-70960430D02*
X145830779Y-70160430D01*
X145830779Y-70160430D02*
X146021255Y-70160430D01*
X146021255Y-70160430D02*
X146135541Y-70198525D01*
X146135541Y-70198525D02*
X146211731Y-70274715D01*
X146211731Y-70274715D02*
X146249826Y-70350906D01*
X146249826Y-70350906D02*
X146287922Y-70503287D01*
X146287922Y-70503287D02*
X146287922Y-70617573D01*
X146287922Y-70617573D02*
X146249826Y-70769954D01*
X146249826Y-70769954D02*
X146211731Y-70846144D01*
X146211731Y-70846144D02*
X146135541Y-70922335D01*
X146135541Y-70922335D02*
X146021255Y-70960430D01*
X146021255Y-70960430D02*
X145830779Y-70960430D01*
X146630779Y-70541382D02*
X146897445Y-70541382D01*
X147011731Y-70960430D02*
X146630779Y-70960430D01*
X146630779Y-70960430D02*
X146630779Y-70160430D01*
X146630779Y-70160430D02*
X147011731Y-70160430D01*
X147506970Y-70160430D02*
X147659351Y-70160430D01*
X147659351Y-70160430D02*
X147735541Y-70198525D01*
X147735541Y-70198525D02*
X147811732Y-70274715D01*
X147811732Y-70274715D02*
X147849827Y-70427096D01*
X147849827Y-70427096D02*
X147849827Y-70693763D01*
X147849827Y-70693763D02*
X147811732Y-70846144D01*
X147811732Y-70846144D02*
X147735541Y-70922335D01*
X147735541Y-70922335D02*
X147659351Y-70960430D01*
X147659351Y-70960430D02*
X147506970Y-70960430D01*
X147506970Y-70960430D02*
X147430779Y-70922335D01*
X147430779Y-70922335D02*
X147354589Y-70846144D01*
X147354589Y-70846144D02*
X147316493Y-70693763D01*
X147316493Y-70693763D02*
X147316493Y-70427096D01*
X147316493Y-70427096D02*
X147354589Y-70274715D01*
X147354589Y-70274715D02*
X147430779Y-70198525D01*
X147430779Y-70198525D02*
X147506970Y-70160430D01*
X143202207Y-72248385D02*
X142745064Y-72248385D01*
X142973636Y-72248385D02*
X142973636Y-71448385D01*
X142973636Y-71448385D02*
X142897445Y-71562670D01*
X142897445Y-71562670D02*
X142821255Y-71638861D01*
X142821255Y-71638861D02*
X142745064Y-71676956D01*
X143583160Y-72210290D02*
X143583160Y-72248385D01*
X143583160Y-72248385D02*
X143545065Y-72324575D01*
X143545065Y-72324575D02*
X143506969Y-72362670D01*
X143887921Y-71524575D02*
X143926017Y-71486480D01*
X143926017Y-71486480D02*
X144002207Y-71448385D01*
X144002207Y-71448385D02*
X144192683Y-71448385D01*
X144192683Y-71448385D02*
X144268874Y-71486480D01*
X144268874Y-71486480D02*
X144306969Y-71524575D01*
X144306969Y-71524575D02*
X144345064Y-71600766D01*
X144345064Y-71600766D02*
X144345064Y-71676956D01*
X144345064Y-71676956D02*
X144306969Y-71791242D01*
X144306969Y-71791242D02*
X143849826Y-72248385D01*
X143849826Y-72248385D02*
X144345064Y-72248385D01*
X145297446Y-71943623D02*
X145906970Y-71943623D01*
X145602208Y-72248385D02*
X145602208Y-71638861D01*
X146668874Y-71448385D02*
X146287922Y-71448385D01*
X146287922Y-71448385D02*
X146249826Y-71829337D01*
X146249826Y-71829337D02*
X146287922Y-71791242D01*
X146287922Y-71791242D02*
X146364112Y-71753147D01*
X146364112Y-71753147D02*
X146554588Y-71753147D01*
X146554588Y-71753147D02*
X146630779Y-71791242D01*
X146630779Y-71791242D02*
X146668874Y-71829337D01*
X146668874Y-71829337D02*
X146706969Y-71905528D01*
X146706969Y-71905528D02*
X146706969Y-72096004D01*
X146706969Y-72096004D02*
X146668874Y-72172194D01*
X146668874Y-72172194D02*
X146630779Y-72210290D01*
X146630779Y-72210290D02*
X146554588Y-72248385D01*
X146554588Y-72248385D02*
X146364112Y-72248385D01*
X146364112Y-72248385D02*
X146287922Y-72210290D01*
X146287922Y-72210290D02*
X146249826Y-72172194D01*
X146935541Y-71448385D02*
X147202208Y-72248385D01*
X147202208Y-72248385D02*
X147468874Y-71448385D01*
X142706969Y-72736340D02*
X143202207Y-72736340D01*
X143202207Y-72736340D02*
X142935541Y-73041102D01*
X142935541Y-73041102D02*
X143049826Y-73041102D01*
X143049826Y-73041102D02*
X143126017Y-73079197D01*
X143126017Y-73079197D02*
X143164112Y-73117292D01*
X143164112Y-73117292D02*
X143202207Y-73193483D01*
X143202207Y-73193483D02*
X143202207Y-73383959D01*
X143202207Y-73383959D02*
X143164112Y-73460149D01*
X143164112Y-73460149D02*
X143126017Y-73498245D01*
X143126017Y-73498245D02*
X143049826Y-73536340D01*
X143049826Y-73536340D02*
X142821255Y-73536340D01*
X142821255Y-73536340D02*
X142745064Y-73498245D01*
X142745064Y-73498245D02*
X142706969Y-73460149D01*
X145792683Y-73231578D02*
X146402207Y-73231578D01*
X146097445Y-73536340D02*
X146097445Y-72926816D01*
X146706968Y-72736340D02*
X147202206Y-72736340D01*
X147202206Y-72736340D02*
X146935540Y-73041102D01*
X146935540Y-73041102D02*
X147049825Y-73041102D01*
X147049825Y-73041102D02*
X147126016Y-73079197D01*
X147126016Y-73079197D02*
X147164111Y-73117292D01*
X147164111Y-73117292D02*
X147202206Y-73193483D01*
X147202206Y-73193483D02*
X147202206Y-73383959D01*
X147202206Y-73383959D02*
X147164111Y-73460149D01*
X147164111Y-73460149D02*
X147126016Y-73498245D01*
X147126016Y-73498245D02*
X147049825Y-73536340D01*
X147049825Y-73536340D02*
X146821254Y-73536340D01*
X146821254Y-73536340D02*
X146745063Y-73498245D01*
X146745063Y-73498245D02*
X146706968Y-73460149D01*
X147583159Y-73498245D02*
X147583159Y-73536340D01*
X147583159Y-73536340D02*
X147545064Y-73612530D01*
X147545064Y-73612530D02*
X147506968Y-73650625D01*
X147849825Y-72736340D02*
X148345063Y-72736340D01*
X148345063Y-72736340D02*
X148078397Y-73041102D01*
X148078397Y-73041102D02*
X148192682Y-73041102D01*
X148192682Y-73041102D02*
X148268873Y-73079197D01*
X148268873Y-73079197D02*
X148306968Y-73117292D01*
X148306968Y-73117292D02*
X148345063Y-73193483D01*
X148345063Y-73193483D02*
X148345063Y-73383959D01*
X148345063Y-73383959D02*
X148306968Y-73460149D01*
X148306968Y-73460149D02*
X148268873Y-73498245D01*
X148268873Y-73498245D02*
X148192682Y-73536340D01*
X148192682Y-73536340D02*
X147964111Y-73536340D01*
X147964111Y-73536340D02*
X147887920Y-73498245D01*
X147887920Y-73498245D02*
X147849825Y-73460149D01*
X148573635Y-72736340D02*
X148840302Y-73536340D01*
X148840302Y-73536340D02*
X149106968Y-72736340D01*
X143164112Y-74024295D02*
X142783160Y-74024295D01*
X142783160Y-74024295D02*
X142745064Y-74405247D01*
X142745064Y-74405247D02*
X142783160Y-74367152D01*
X142783160Y-74367152D02*
X142859350Y-74329057D01*
X142859350Y-74329057D02*
X143049826Y-74329057D01*
X143049826Y-74329057D02*
X143126017Y-74367152D01*
X143126017Y-74367152D02*
X143164112Y-74405247D01*
X143164112Y-74405247D02*
X143202207Y-74481438D01*
X143202207Y-74481438D02*
X143202207Y-74671914D01*
X143202207Y-74671914D02*
X143164112Y-74748104D01*
X143164112Y-74748104D02*
X143126017Y-74786200D01*
X143126017Y-74786200D02*
X143049826Y-74824295D01*
X143049826Y-74824295D02*
X142859350Y-74824295D01*
X142859350Y-74824295D02*
X142783160Y-74786200D01*
X142783160Y-74786200D02*
X142745064Y-74748104D01*
X143583160Y-74786200D02*
X143583160Y-74824295D01*
X143583160Y-74824295D02*
X143545065Y-74900485D01*
X143545065Y-74900485D02*
X143506969Y-74938580D01*
X143849826Y-74024295D02*
X144383160Y-74024295D01*
X144383160Y-74024295D02*
X144040302Y-74824295D01*
X144726017Y-74786200D02*
X144726017Y-74824295D01*
X144726017Y-74824295D02*
X144687922Y-74900485D01*
X144687922Y-74900485D02*
X144649826Y-74938580D01*
X145183159Y-74367152D02*
X145106969Y-74329057D01*
X145106969Y-74329057D02*
X145068874Y-74290961D01*
X145068874Y-74290961D02*
X145030778Y-74214771D01*
X145030778Y-74214771D02*
X145030778Y-74176676D01*
X145030778Y-74176676D02*
X145068874Y-74100485D01*
X145068874Y-74100485D02*
X145106969Y-74062390D01*
X145106969Y-74062390D02*
X145183159Y-74024295D01*
X145183159Y-74024295D02*
X145335540Y-74024295D01*
X145335540Y-74024295D02*
X145411731Y-74062390D01*
X145411731Y-74062390D02*
X145449826Y-74100485D01*
X145449826Y-74100485D02*
X145487921Y-74176676D01*
X145487921Y-74176676D02*
X145487921Y-74214771D01*
X145487921Y-74214771D02*
X145449826Y-74290961D01*
X145449826Y-74290961D02*
X145411731Y-74329057D01*
X145411731Y-74329057D02*
X145335540Y-74367152D01*
X145335540Y-74367152D02*
X145183159Y-74367152D01*
X145183159Y-74367152D02*
X145106969Y-74405247D01*
X145106969Y-74405247D02*
X145068874Y-74443342D01*
X145068874Y-74443342D02*
X145030778Y-74519533D01*
X145030778Y-74519533D02*
X145030778Y-74671914D01*
X145030778Y-74671914D02*
X145068874Y-74748104D01*
X145068874Y-74748104D02*
X145106969Y-74786200D01*
X145106969Y-74786200D02*
X145183159Y-74824295D01*
X145183159Y-74824295D02*
X145335540Y-74824295D01*
X145335540Y-74824295D02*
X145411731Y-74786200D01*
X145411731Y-74786200D02*
X145449826Y-74748104D01*
X145449826Y-74748104D02*
X145487921Y-74671914D01*
X145487921Y-74671914D02*
X145487921Y-74519533D01*
X145487921Y-74519533D02*
X145449826Y-74443342D01*
X145449826Y-74443342D02*
X145411731Y-74405247D01*
X145411731Y-74405247D02*
X145335540Y-74367152D01*
X145868874Y-74786200D02*
X145868874Y-74824295D01*
X145868874Y-74824295D02*
X145830779Y-74900485D01*
X145830779Y-74900485D02*
X145792683Y-74938580D01*
X146249826Y-74824295D02*
X146402207Y-74824295D01*
X146402207Y-74824295D02*
X146478397Y-74786200D01*
X146478397Y-74786200D02*
X146516493Y-74748104D01*
X146516493Y-74748104D02*
X146592683Y-74633819D01*
X146592683Y-74633819D02*
X146630778Y-74481438D01*
X146630778Y-74481438D02*
X146630778Y-74176676D01*
X146630778Y-74176676D02*
X146592683Y-74100485D01*
X146592683Y-74100485D02*
X146554588Y-74062390D01*
X146554588Y-74062390D02*
X146478397Y-74024295D01*
X146478397Y-74024295D02*
X146326016Y-74024295D01*
X146326016Y-74024295D02*
X146249826Y-74062390D01*
X146249826Y-74062390D02*
X146211731Y-74100485D01*
X146211731Y-74100485D02*
X146173635Y-74176676D01*
X146173635Y-74176676D02*
X146173635Y-74367152D01*
X146173635Y-74367152D02*
X146211731Y-74443342D01*
X146211731Y-74443342D02*
X146249826Y-74481438D01*
X146249826Y-74481438D02*
X146326016Y-74519533D01*
X146326016Y-74519533D02*
X146478397Y-74519533D01*
X146478397Y-74519533D02*
X146554588Y-74481438D01*
X146554588Y-74481438D02*
X146592683Y-74443342D01*
X146592683Y-74443342D02*
X146630778Y-74367152D01*
X148002207Y-74062390D02*
X147926017Y-74024295D01*
X147926017Y-74024295D02*
X147811731Y-74024295D01*
X147811731Y-74024295D02*
X147697445Y-74062390D01*
X147697445Y-74062390D02*
X147621255Y-74138580D01*
X147621255Y-74138580D02*
X147583160Y-74214771D01*
X147583160Y-74214771D02*
X147545064Y-74367152D01*
X147545064Y-74367152D02*
X147545064Y-74481438D01*
X147545064Y-74481438D02*
X147583160Y-74633819D01*
X147583160Y-74633819D02*
X147621255Y-74710009D01*
X147621255Y-74710009D02*
X147697445Y-74786200D01*
X147697445Y-74786200D02*
X147811731Y-74824295D01*
X147811731Y-74824295D02*
X147887922Y-74824295D01*
X147887922Y-74824295D02*
X148002207Y-74786200D01*
X148002207Y-74786200D02*
X148040303Y-74748104D01*
X148040303Y-74748104D02*
X148040303Y-74481438D01*
X148040303Y-74481438D02*
X147887922Y-74481438D01*
X148383160Y-74824295D02*
X148383160Y-74024295D01*
X148383160Y-74024295D02*
X148840303Y-74824295D01*
X148840303Y-74824295D02*
X148840303Y-74024295D01*
X149221255Y-74824295D02*
X149221255Y-74024295D01*
X149221255Y-74024295D02*
X149411731Y-74024295D01*
X149411731Y-74024295D02*
X149526017Y-74062390D01*
X149526017Y-74062390D02*
X149602207Y-74138580D01*
X149602207Y-74138580D02*
X149640302Y-74214771D01*
X149640302Y-74214771D02*
X149678398Y-74367152D01*
X149678398Y-74367152D02*
X149678398Y-74481438D01*
X149678398Y-74481438D02*
X149640302Y-74633819D01*
X149640302Y-74633819D02*
X149602207Y-74710009D01*
X149602207Y-74710009D02*
X149526017Y-74786200D01*
X149526017Y-74786200D02*
X149411731Y-74824295D01*
X149411731Y-74824295D02*
X149221255Y-74824295D01*
X212776017Y-62407845D02*
X213842684Y-62407845D01*
X213576017Y-62674512D02*
X213842684Y-62407845D01*
X213842684Y-62407845D02*
X213576017Y-62141178D01*
X213309350Y-64128434D02*
X213309350Y-65195100D01*
X213576017Y-64928434D02*
X213309350Y-65195100D01*
X213309350Y-65195100D02*
X213042684Y-64928434D01*
X213509350Y-66115689D02*
X213376017Y-66049022D01*
X213376017Y-66049022D02*
X213176017Y-66049022D01*
X213176017Y-66049022D02*
X212976017Y-66115689D01*
X212976017Y-66115689D02*
X212842684Y-66249022D01*
X212842684Y-66249022D02*
X212776017Y-66382356D01*
X212776017Y-66382356D02*
X212709350Y-66649022D01*
X212709350Y-66649022D02*
X212709350Y-66849022D01*
X212709350Y-66849022D02*
X212776017Y-67115689D01*
X212776017Y-67115689D02*
X212842684Y-67249022D01*
X212842684Y-67249022D02*
X212976017Y-67382356D01*
X212976017Y-67382356D02*
X213176017Y-67449022D01*
X213176017Y-67449022D02*
X213309350Y-67449022D01*
X213309350Y-67449022D02*
X213509350Y-67382356D01*
X213509350Y-67382356D02*
X213576017Y-67315689D01*
X213576017Y-67315689D02*
X213576017Y-66849022D01*
X213576017Y-66849022D02*
X213309350Y-66849022D01*
X213309350Y-69702944D02*
X213309350Y-68636278D01*
X213042684Y-68902944D02*
X213309350Y-68636278D01*
X213309350Y-68636278D02*
X213576017Y-68902944D01*
X213842684Y-71423533D02*
X212776017Y-71423533D01*
X213042684Y-71690200D02*
X212776017Y-71423533D01*
X212776017Y-71423533D02*
X213042684Y-71156866D01*
X178508819Y-77858666D02*
X177508819Y-77858666D01*
X177508819Y-77858666D02*
X177508819Y-77620571D01*
X177508819Y-77620571D02*
X177556438Y-77477714D01*
X177556438Y-77477714D02*
X177651676Y-77382476D01*
X177651676Y-77382476D02*
X177746914Y-77334857D01*
X177746914Y-77334857D02*
X177937390Y-77287238D01*
X177937390Y-77287238D02*
X178080247Y-77287238D01*
X178080247Y-77287238D02*
X178270723Y-77334857D01*
X178270723Y-77334857D02*
X178365961Y-77382476D01*
X178365961Y-77382476D02*
X178461200Y-77477714D01*
X178461200Y-77477714D02*
X178508819Y-77620571D01*
X178508819Y-77620571D02*
X178508819Y-77858666D01*
X178508819Y-76334857D02*
X178508819Y-76906285D01*
X178508819Y-76620571D02*
X177508819Y-76620571D01*
X177508819Y-76620571D02*
X177651676Y-76715809D01*
X177651676Y-76715809D02*
X177746914Y-76811047D01*
X177746914Y-76811047D02*
X177794533Y-76906285D01*
X177508819Y-75715809D02*
X177508819Y-75620571D01*
X177508819Y-75620571D02*
X177556438Y-75525333D01*
X177556438Y-75525333D02*
X177604057Y-75477714D01*
X177604057Y-75477714D02*
X177699295Y-75430095D01*
X177699295Y-75430095D02*
X177889771Y-75382476D01*
X177889771Y-75382476D02*
X178127866Y-75382476D01*
X178127866Y-75382476D02*
X178318342Y-75430095D01*
X178318342Y-75430095D02*
X178413580Y-75477714D01*
X178413580Y-75477714D02*
X178461200Y-75525333D01*
X178461200Y-75525333D02*
X178508819Y-75620571D01*
X178508819Y-75620571D02*
X178508819Y-75715809D01*
X178508819Y-75715809D02*
X178461200Y-75811047D01*
X178461200Y-75811047D02*
X178413580Y-75858666D01*
X178413580Y-75858666D02*
X178318342Y-75906285D01*
X178318342Y-75906285D02*
X178127866Y-75953904D01*
X178127866Y-75953904D02*
X177889771Y-75953904D01*
X177889771Y-75953904D02*
X177699295Y-75906285D01*
X177699295Y-75906285D02*
X177604057Y-75858666D01*
X177604057Y-75858666D02*
X177556438Y-75811047D01*
X177556438Y-75811047D02*
X177508819Y-75715809D01*
X177508819Y-74763428D02*
X177508819Y-74668190D01*
X177508819Y-74668190D02*
X177556438Y-74572952D01*
X177556438Y-74572952D02*
X177604057Y-74525333D01*
X177604057Y-74525333D02*
X177699295Y-74477714D01*
X177699295Y-74477714D02*
X177889771Y-74430095D01*
X177889771Y-74430095D02*
X178127866Y-74430095D01*
X178127866Y-74430095D02*
X178318342Y-74477714D01*
X178318342Y-74477714D02*
X178413580Y-74525333D01*
X178413580Y-74525333D02*
X178461200Y-74572952D01*
X178461200Y-74572952D02*
X178508819Y-74668190D01*
X178508819Y-74668190D02*
X178508819Y-74763428D01*
X178508819Y-74763428D02*
X178461200Y-74858666D01*
X178461200Y-74858666D02*
X178413580Y-74906285D01*
X178413580Y-74906285D02*
X178318342Y-74953904D01*
X178318342Y-74953904D02*
X178127866Y-75001523D01*
X178127866Y-75001523D02*
X177889771Y-75001523D01*
X177889771Y-75001523D02*
X177699295Y-74953904D01*
X177699295Y-74953904D02*
X177604057Y-74906285D01*
X177604057Y-74906285D02*
X177556438Y-74858666D01*
X177556438Y-74858666D02*
X177508819Y-74763428D01*
X177508819Y-74096761D02*
X177508819Y-73477714D01*
X177508819Y-73477714D02*
X177889771Y-73811047D01*
X177889771Y-73811047D02*
X177889771Y-73668190D01*
X177889771Y-73668190D02*
X177937390Y-73572952D01*
X177937390Y-73572952D02*
X177985009Y-73525333D01*
X177985009Y-73525333D02*
X178080247Y-73477714D01*
X178080247Y-73477714D02*
X178318342Y-73477714D01*
X178318342Y-73477714D02*
X178413580Y-73525333D01*
X178413580Y-73525333D02*
X178461200Y-73572952D01*
X178461200Y-73572952D02*
X178508819Y-73668190D01*
X178508819Y-73668190D02*
X178508819Y-73953904D01*
X178508819Y-73953904D02*
X178461200Y-74049142D01*
X178461200Y-74049142D02*
X178413580Y-74096761D01*
X167999580Y-66111238D02*
X168047200Y-66158857D01*
X168047200Y-66158857D02*
X168094819Y-66301714D01*
X168094819Y-66301714D02*
X168094819Y-66396952D01*
X168094819Y-66396952D02*
X168047200Y-66539809D01*
X168047200Y-66539809D02*
X167951961Y-66635047D01*
X167951961Y-66635047D02*
X167856723Y-66682666D01*
X167856723Y-66682666D02*
X167666247Y-66730285D01*
X167666247Y-66730285D02*
X167523390Y-66730285D01*
X167523390Y-66730285D02*
X167332914Y-66682666D01*
X167332914Y-66682666D02*
X167237676Y-66635047D01*
X167237676Y-66635047D02*
X167142438Y-66539809D01*
X167142438Y-66539809D02*
X167094819Y-66396952D01*
X167094819Y-66396952D02*
X167094819Y-66301714D01*
X167094819Y-66301714D02*
X167142438Y-66158857D01*
X167142438Y-66158857D02*
X167190057Y-66111238D01*
X168094819Y-65158857D02*
X168094819Y-65730285D01*
X168094819Y-65444571D02*
X167094819Y-65444571D01*
X167094819Y-65444571D02*
X167237676Y-65539809D01*
X167237676Y-65539809D02*
X167332914Y-65635047D01*
X167332914Y-65635047D02*
X167380533Y-65730285D01*
X167094819Y-64539809D02*
X167094819Y-64444571D01*
X167094819Y-64444571D02*
X167142438Y-64349333D01*
X167142438Y-64349333D02*
X167190057Y-64301714D01*
X167190057Y-64301714D02*
X167285295Y-64254095D01*
X167285295Y-64254095D02*
X167475771Y-64206476D01*
X167475771Y-64206476D02*
X167713866Y-64206476D01*
X167713866Y-64206476D02*
X167904342Y-64254095D01*
X167904342Y-64254095D02*
X167999580Y-64301714D01*
X167999580Y-64301714D02*
X168047200Y-64349333D01*
X168047200Y-64349333D02*
X168094819Y-64444571D01*
X168094819Y-64444571D02*
X168094819Y-64539809D01*
X168094819Y-64539809D02*
X168047200Y-64635047D01*
X168047200Y-64635047D02*
X167999580Y-64682666D01*
X167999580Y-64682666D02*
X167904342Y-64730285D01*
X167904342Y-64730285D02*
X167713866Y-64777904D01*
X167713866Y-64777904D02*
X167475771Y-64777904D01*
X167475771Y-64777904D02*
X167285295Y-64730285D01*
X167285295Y-64730285D02*
X167190057Y-64682666D01*
X167190057Y-64682666D02*
X167142438Y-64635047D01*
X167142438Y-64635047D02*
X167094819Y-64539809D01*
X167094819Y-63587428D02*
X167094819Y-63492190D01*
X167094819Y-63492190D02*
X167142438Y-63396952D01*
X167142438Y-63396952D02*
X167190057Y-63349333D01*
X167190057Y-63349333D02*
X167285295Y-63301714D01*
X167285295Y-63301714D02*
X167475771Y-63254095D01*
X167475771Y-63254095D02*
X167713866Y-63254095D01*
X167713866Y-63254095D02*
X167904342Y-63301714D01*
X167904342Y-63301714D02*
X167999580Y-63349333D01*
X167999580Y-63349333D02*
X168047200Y-63396952D01*
X168047200Y-63396952D02*
X168094819Y-63492190D01*
X168094819Y-63492190D02*
X168094819Y-63587428D01*
X168094819Y-63587428D02*
X168047200Y-63682666D01*
X168047200Y-63682666D02*
X167999580Y-63730285D01*
X167999580Y-63730285D02*
X167904342Y-63777904D01*
X167904342Y-63777904D02*
X167713866Y-63825523D01*
X167713866Y-63825523D02*
X167475771Y-63825523D01*
X167475771Y-63825523D02*
X167285295Y-63777904D01*
X167285295Y-63777904D02*
X167190057Y-63730285D01*
X167190057Y-63730285D02*
X167142438Y-63682666D01*
X167142438Y-63682666D02*
X167094819Y-63587428D01*
X167190057Y-62873142D02*
X167142438Y-62825523D01*
X167142438Y-62825523D02*
X167094819Y-62730285D01*
X167094819Y-62730285D02*
X167094819Y-62492190D01*
X167094819Y-62492190D02*
X167142438Y-62396952D01*
X167142438Y-62396952D02*
X167190057Y-62349333D01*
X167190057Y-62349333D02*
X167285295Y-62301714D01*
X167285295Y-62301714D02*
X167380533Y-62301714D01*
X167380533Y-62301714D02*
X167523390Y-62349333D01*
X167523390Y-62349333D02*
X168094819Y-62920761D01*
X168094819Y-62920761D02*
X168094819Y-62301714D01*
X166925714Y-54810819D02*
X166354286Y-54810819D01*
X166640000Y-54810819D02*
X166640000Y-53810819D01*
X166640000Y-53810819D02*
X166544762Y-53953676D01*
X166544762Y-53953676D02*
X166449524Y-54048914D01*
X166449524Y-54048914D02*
X166354286Y-54096533D01*
X167544762Y-53810819D02*
X167640000Y-53810819D01*
X167640000Y-53810819D02*
X167735238Y-53858438D01*
X167735238Y-53858438D02*
X167782857Y-53906057D01*
X167782857Y-53906057D02*
X167830476Y-54001295D01*
X167830476Y-54001295D02*
X167878095Y-54191771D01*
X167878095Y-54191771D02*
X167878095Y-54429866D01*
X167878095Y-54429866D02*
X167830476Y-54620342D01*
X167830476Y-54620342D02*
X167782857Y-54715580D01*
X167782857Y-54715580D02*
X167735238Y-54763200D01*
X167735238Y-54763200D02*
X167640000Y-54810819D01*
X167640000Y-54810819D02*
X167544762Y-54810819D01*
X167544762Y-54810819D02*
X167449524Y-54763200D01*
X167449524Y-54763200D02*
X167401905Y-54715580D01*
X167401905Y-54715580D02*
X167354286Y-54620342D01*
X167354286Y-54620342D02*
X167306667Y-54429866D01*
X167306667Y-54429866D02*
X167306667Y-54191771D01*
X167306667Y-54191771D02*
X167354286Y-54001295D01*
X167354286Y-54001295D02*
X167401905Y-53906057D01*
X167401905Y-53906057D02*
X167449524Y-53858438D01*
X167449524Y-53858438D02*
X167544762Y-53810819D01*
X168306667Y-54144152D02*
X168306667Y-55144152D01*
X168782857Y-54667961D02*
X168830476Y-54763200D01*
X168830476Y-54763200D02*
X168925714Y-54810819D01*
X168306667Y-54667961D02*
X168354286Y-54763200D01*
X168354286Y-54763200D02*
X168449524Y-54810819D01*
X168449524Y-54810819D02*
X168640000Y-54810819D01*
X168640000Y-54810819D02*
X168735238Y-54763200D01*
X168735238Y-54763200D02*
X168782857Y-54667961D01*
X168782857Y-54667961D02*
X168782857Y-54144152D01*
X185333200Y-82771904D02*
X185380819Y-82629047D01*
X185380819Y-82629047D02*
X185380819Y-82390952D01*
X185380819Y-82390952D02*
X185333200Y-82295714D01*
X185333200Y-82295714D02*
X185285580Y-82248095D01*
X185285580Y-82248095D02*
X185190342Y-82200476D01*
X185190342Y-82200476D02*
X185095104Y-82200476D01*
X185095104Y-82200476D02*
X184999866Y-82248095D01*
X184999866Y-82248095D02*
X184952247Y-82295714D01*
X184952247Y-82295714D02*
X184904628Y-82390952D01*
X184904628Y-82390952D02*
X184857009Y-82581428D01*
X184857009Y-82581428D02*
X184809390Y-82676666D01*
X184809390Y-82676666D02*
X184761771Y-82724285D01*
X184761771Y-82724285D02*
X184666533Y-82771904D01*
X184666533Y-82771904D02*
X184571295Y-82771904D01*
X184571295Y-82771904D02*
X184476057Y-82724285D01*
X184476057Y-82724285D02*
X184428438Y-82676666D01*
X184428438Y-82676666D02*
X184380819Y-82581428D01*
X184380819Y-82581428D02*
X184380819Y-82343333D01*
X184380819Y-82343333D02*
X184428438Y-82200476D01*
X184380819Y-81867142D02*
X185380819Y-81629047D01*
X185380819Y-81629047D02*
X184666533Y-81438571D01*
X184666533Y-81438571D02*
X185380819Y-81248095D01*
X185380819Y-81248095D02*
X184380819Y-81010000D01*
X185380819Y-80105238D02*
X185380819Y-80676666D01*
X185380819Y-80390952D02*
X184380819Y-80390952D01*
X184380819Y-80390952D02*
X184523676Y-80486190D01*
X184523676Y-80486190D02*
X184618914Y-80581428D01*
X184618914Y-80581428D02*
X184666533Y-80676666D01*
X184380819Y-79486190D02*
X184380819Y-79390952D01*
X184380819Y-79390952D02*
X184428438Y-79295714D01*
X184428438Y-79295714D02*
X184476057Y-79248095D01*
X184476057Y-79248095D02*
X184571295Y-79200476D01*
X184571295Y-79200476D02*
X184761771Y-79152857D01*
X184761771Y-79152857D02*
X184999866Y-79152857D01*
X184999866Y-79152857D02*
X185190342Y-79200476D01*
X185190342Y-79200476D02*
X185285580Y-79248095D01*
X185285580Y-79248095D02*
X185333200Y-79295714D01*
X185333200Y-79295714D02*
X185380819Y-79390952D01*
X185380819Y-79390952D02*
X185380819Y-79486190D01*
X185380819Y-79486190D02*
X185333200Y-79581428D01*
X185333200Y-79581428D02*
X185285580Y-79629047D01*
X185285580Y-79629047D02*
X185190342Y-79676666D01*
X185190342Y-79676666D02*
X184999866Y-79724285D01*
X184999866Y-79724285D02*
X184761771Y-79724285D01*
X184761771Y-79724285D02*
X184571295Y-79676666D01*
X184571295Y-79676666D02*
X184476057Y-79629047D01*
X184476057Y-79629047D02*
X184428438Y-79581428D01*
X184428438Y-79581428D02*
X184380819Y-79486190D01*
X184380819Y-78533809D02*
X184380819Y-78438571D01*
X184380819Y-78438571D02*
X184428438Y-78343333D01*
X184428438Y-78343333D02*
X184476057Y-78295714D01*
X184476057Y-78295714D02*
X184571295Y-78248095D01*
X184571295Y-78248095D02*
X184761771Y-78200476D01*
X184761771Y-78200476D02*
X184999866Y-78200476D01*
X184999866Y-78200476D02*
X185190342Y-78248095D01*
X185190342Y-78248095D02*
X185285580Y-78295714D01*
X185285580Y-78295714D02*
X185333200Y-78343333D01*
X185333200Y-78343333D02*
X185380819Y-78438571D01*
X185380819Y-78438571D02*
X185380819Y-78533809D01*
X185380819Y-78533809D02*
X185333200Y-78629047D01*
X185333200Y-78629047D02*
X185285580Y-78676666D01*
X185285580Y-78676666D02*
X185190342Y-78724285D01*
X185190342Y-78724285D02*
X184999866Y-78771904D01*
X184999866Y-78771904D02*
X184761771Y-78771904D01*
X184761771Y-78771904D02*
X184571295Y-78724285D01*
X184571295Y-78724285D02*
X184476057Y-78676666D01*
X184476057Y-78676666D02*
X184428438Y-78629047D01*
X184428438Y-78629047D02*
X184380819Y-78533809D01*
X185380819Y-77248095D02*
X185380819Y-77819523D01*
X185380819Y-77533809D02*
X184380819Y-77533809D01*
X184380819Y-77533809D02*
X184523676Y-77629047D01*
X184523676Y-77629047D02*
X184618914Y-77724285D01*
X184618914Y-77724285D02*
X184666533Y-77819523D01*
X183348380Y-76654819D02*
X183015047Y-76178628D01*
X182776952Y-76654819D02*
X182776952Y-75654819D01*
X182776952Y-75654819D02*
X183157904Y-75654819D01*
X183157904Y-75654819D02*
X183253142Y-75702438D01*
X183253142Y-75702438D02*
X183300761Y-75750057D01*
X183300761Y-75750057D02*
X183348380Y-75845295D01*
X183348380Y-75845295D02*
X183348380Y-75988152D01*
X183348380Y-75988152D02*
X183300761Y-76083390D01*
X183300761Y-76083390D02*
X183253142Y-76131009D01*
X183253142Y-76131009D02*
X183157904Y-76178628D01*
X183157904Y-76178628D02*
X182776952Y-76178628D01*
X183729333Y-76607200D02*
X183872190Y-76654819D01*
X183872190Y-76654819D02*
X184110285Y-76654819D01*
X184110285Y-76654819D02*
X184205523Y-76607200D01*
X184205523Y-76607200D02*
X184253142Y-76559580D01*
X184253142Y-76559580D02*
X184300761Y-76464342D01*
X184300761Y-76464342D02*
X184300761Y-76369104D01*
X184300761Y-76369104D02*
X184253142Y-76273866D01*
X184253142Y-76273866D02*
X184205523Y-76226247D01*
X184205523Y-76226247D02*
X184110285Y-76178628D01*
X184110285Y-76178628D02*
X183919809Y-76131009D01*
X183919809Y-76131009D02*
X183824571Y-76083390D01*
X183824571Y-76083390D02*
X183776952Y-76035771D01*
X183776952Y-76035771D02*
X183729333Y-75940533D01*
X183729333Y-75940533D02*
X183729333Y-75845295D01*
X183729333Y-75845295D02*
X183776952Y-75750057D01*
X183776952Y-75750057D02*
X183824571Y-75702438D01*
X183824571Y-75702438D02*
X183919809Y-75654819D01*
X183919809Y-75654819D02*
X184157904Y-75654819D01*
X184157904Y-75654819D02*
X184300761Y-75702438D01*
X184586476Y-75654819D02*
X185157904Y-75654819D01*
X184872190Y-76654819D02*
X184872190Y-75654819D01*
X201525524Y-77686819D02*
X202096952Y-77686819D01*
X201811238Y-78686819D02*
X201811238Y-77686819D01*
X202430286Y-78686819D02*
X202430286Y-77686819D01*
X202430286Y-77686819D02*
X202811238Y-77686819D01*
X202811238Y-77686819D02*
X202906476Y-77734438D01*
X202906476Y-77734438D02*
X202954095Y-77782057D01*
X202954095Y-77782057D02*
X203001714Y-77877295D01*
X203001714Y-77877295D02*
X203001714Y-78020152D01*
X203001714Y-78020152D02*
X202954095Y-78115390D01*
X202954095Y-78115390D02*
X202906476Y-78163009D01*
X202906476Y-78163009D02*
X202811238Y-78210628D01*
X202811238Y-78210628D02*
X202430286Y-78210628D01*
X203954095Y-78686819D02*
X203382667Y-78686819D01*
X203668381Y-78686819D02*
X203668381Y-77686819D01*
X203668381Y-77686819D02*
X203573143Y-77829676D01*
X203573143Y-77829676D02*
X203477905Y-77924914D01*
X203477905Y-77924914D02*
X203382667Y-77972533D01*
X204573143Y-77686819D02*
X204668381Y-77686819D01*
X204668381Y-77686819D02*
X204763619Y-77734438D01*
X204763619Y-77734438D02*
X204811238Y-77782057D01*
X204811238Y-77782057D02*
X204858857Y-77877295D01*
X204858857Y-77877295D02*
X204906476Y-78067771D01*
X204906476Y-78067771D02*
X204906476Y-78305866D01*
X204906476Y-78305866D02*
X204858857Y-78496342D01*
X204858857Y-78496342D02*
X204811238Y-78591580D01*
X204811238Y-78591580D02*
X204763619Y-78639200D01*
X204763619Y-78639200D02*
X204668381Y-78686819D01*
X204668381Y-78686819D02*
X204573143Y-78686819D01*
X204573143Y-78686819D02*
X204477905Y-78639200D01*
X204477905Y-78639200D02*
X204430286Y-78591580D01*
X204430286Y-78591580D02*
X204382667Y-78496342D01*
X204382667Y-78496342D02*
X204335048Y-78305866D01*
X204335048Y-78305866D02*
X204335048Y-78067771D01*
X204335048Y-78067771D02*
X204382667Y-77877295D01*
X204382667Y-77877295D02*
X204430286Y-77782057D01*
X204430286Y-77782057D02*
X204477905Y-77734438D01*
X204477905Y-77734438D02*
X204573143Y-77686819D01*
X205525524Y-77686819D02*
X205620762Y-77686819D01*
X205620762Y-77686819D02*
X205716000Y-77734438D01*
X205716000Y-77734438D02*
X205763619Y-77782057D01*
X205763619Y-77782057D02*
X205811238Y-77877295D01*
X205811238Y-77877295D02*
X205858857Y-78067771D01*
X205858857Y-78067771D02*
X205858857Y-78305866D01*
X205858857Y-78305866D02*
X205811238Y-78496342D01*
X205811238Y-78496342D02*
X205763619Y-78591580D01*
X205763619Y-78591580D02*
X205716000Y-78639200D01*
X205716000Y-78639200D02*
X205620762Y-78686819D01*
X205620762Y-78686819D02*
X205525524Y-78686819D01*
X205525524Y-78686819D02*
X205430286Y-78639200D01*
X205430286Y-78639200D02*
X205382667Y-78591580D01*
X205382667Y-78591580D02*
X205335048Y-78496342D01*
X205335048Y-78496342D02*
X205287429Y-78305866D01*
X205287429Y-78305866D02*
X205287429Y-78067771D01*
X205287429Y-78067771D02*
X205335048Y-77877295D01*
X205335048Y-77877295D02*
X205382667Y-77782057D01*
X205382667Y-77782057D02*
X205430286Y-77734438D01*
X205430286Y-77734438D02*
X205525524Y-77686819D01*
X206239810Y-77782057D02*
X206287429Y-77734438D01*
X206287429Y-77734438D02*
X206382667Y-77686819D01*
X206382667Y-77686819D02*
X206620762Y-77686819D01*
X206620762Y-77686819D02*
X206716000Y-77734438D01*
X206716000Y-77734438D02*
X206763619Y-77782057D01*
X206763619Y-77782057D02*
X206811238Y-77877295D01*
X206811238Y-77877295D02*
X206811238Y-77972533D01*
X206811238Y-77972533D02*
X206763619Y-78115390D01*
X206763619Y-78115390D02*
X206192191Y-78686819D01*
X206192191Y-78686819D02*
X206811238Y-78686819D01*
X202122352Y-82963419D02*
X202693780Y-82963419D01*
X202408066Y-83963419D02*
X202408066Y-82963419D01*
X203027114Y-83963419D02*
X203027114Y-82963419D01*
X203027114Y-82963419D02*
X203408066Y-82963419D01*
X203408066Y-82963419D02*
X203503304Y-83011038D01*
X203503304Y-83011038D02*
X203550923Y-83058657D01*
X203550923Y-83058657D02*
X203598542Y-83153895D01*
X203598542Y-83153895D02*
X203598542Y-83296752D01*
X203598542Y-83296752D02*
X203550923Y-83391990D01*
X203550923Y-83391990D02*
X203503304Y-83439609D01*
X203503304Y-83439609D02*
X203408066Y-83487228D01*
X203408066Y-83487228D02*
X203027114Y-83487228D01*
X203789019Y-84058657D02*
X204550923Y-84058657D01*
X205360447Y-83868180D02*
X205312828Y-83915800D01*
X205312828Y-83915800D02*
X205169971Y-83963419D01*
X205169971Y-83963419D02*
X205074733Y-83963419D01*
X205074733Y-83963419D02*
X204931876Y-83915800D01*
X204931876Y-83915800D02*
X204836638Y-83820561D01*
X204836638Y-83820561D02*
X204789019Y-83725323D01*
X204789019Y-83725323D02*
X204741400Y-83534847D01*
X204741400Y-83534847D02*
X204741400Y-83391990D01*
X204741400Y-83391990D02*
X204789019Y-83201514D01*
X204789019Y-83201514D02*
X204836638Y-83106276D01*
X204836638Y-83106276D02*
X204931876Y-83011038D01*
X204931876Y-83011038D02*
X205074733Y-82963419D01*
X205074733Y-82963419D02*
X205169971Y-82963419D01*
X205169971Y-82963419D02*
X205312828Y-83011038D01*
X205312828Y-83011038D02*
X205360447Y-83058657D01*
X205979495Y-82963419D02*
X206169971Y-82963419D01*
X206169971Y-82963419D02*
X206265209Y-83011038D01*
X206265209Y-83011038D02*
X206360447Y-83106276D01*
X206360447Y-83106276D02*
X206408066Y-83296752D01*
X206408066Y-83296752D02*
X206408066Y-83630085D01*
X206408066Y-83630085D02*
X206360447Y-83820561D01*
X206360447Y-83820561D02*
X206265209Y-83915800D01*
X206265209Y-83915800D02*
X206169971Y-83963419D01*
X206169971Y-83963419D02*
X205979495Y-83963419D01*
X205979495Y-83963419D02*
X205884257Y-83915800D01*
X205884257Y-83915800D02*
X205789019Y-83820561D01*
X205789019Y-83820561D02*
X205741400Y-83630085D01*
X205741400Y-83630085D02*
X205741400Y-83296752D01*
X205741400Y-83296752D02*
X205789019Y-83106276D01*
X205789019Y-83106276D02*
X205884257Y-83011038D01*
X205884257Y-83011038D02*
X205979495Y-82963419D01*
X206836638Y-83963419D02*
X206836638Y-82963419D01*
X206836638Y-82963419D02*
X207217590Y-82963419D01*
X207217590Y-82963419D02*
X207312828Y-83011038D01*
X207312828Y-83011038D02*
X207360447Y-83058657D01*
X207360447Y-83058657D02*
X207408066Y-83153895D01*
X207408066Y-83153895D02*
X207408066Y-83296752D01*
X207408066Y-83296752D02*
X207360447Y-83391990D01*
X207360447Y-83391990D02*
X207312828Y-83439609D01*
X207312828Y-83439609D02*
X207217590Y-83487228D01*
X207217590Y-83487228D02*
X206836638Y-83487228D01*
X208027114Y-83487228D02*
X208027114Y-83963419D01*
X207693781Y-82963419D02*
X208027114Y-83487228D01*
X208027114Y-83487228D02*
X208360447Y-82963419D01*
X195688295Y-84334190D02*
X195307342Y-84600857D01*
X195688295Y-84791333D02*
X194888295Y-84791333D01*
X194888295Y-84791333D02*
X194888295Y-84486571D01*
X194888295Y-84486571D02*
X194926390Y-84410381D01*
X194926390Y-84410381D02*
X194964485Y-84372286D01*
X194964485Y-84372286D02*
X195040676Y-84334190D01*
X195040676Y-84334190D02*
X195154961Y-84334190D01*
X195154961Y-84334190D02*
X195231152Y-84372286D01*
X195231152Y-84372286D02*
X195269247Y-84410381D01*
X195269247Y-84410381D02*
X195307342Y-84486571D01*
X195307342Y-84486571D02*
X195307342Y-84791333D01*
X195688295Y-83572286D02*
X195688295Y-84029429D01*
X195688295Y-83800857D02*
X194888295Y-83800857D01*
X194888295Y-83800857D02*
X195002580Y-83877048D01*
X195002580Y-83877048D02*
X195078771Y-83953238D01*
X195078771Y-83953238D02*
X195116866Y-84029429D01*
X194888295Y-83077047D02*
X194888295Y-83000857D01*
X194888295Y-83000857D02*
X194926390Y-82924666D01*
X194926390Y-82924666D02*
X194964485Y-82886571D01*
X194964485Y-82886571D02*
X195040676Y-82848476D01*
X195040676Y-82848476D02*
X195193057Y-82810381D01*
X195193057Y-82810381D02*
X195383533Y-82810381D01*
X195383533Y-82810381D02*
X195535914Y-82848476D01*
X195535914Y-82848476D02*
X195612104Y-82886571D01*
X195612104Y-82886571D02*
X195650200Y-82924666D01*
X195650200Y-82924666D02*
X195688295Y-83000857D01*
X195688295Y-83000857D02*
X195688295Y-83077047D01*
X195688295Y-83077047D02*
X195650200Y-83153238D01*
X195650200Y-83153238D02*
X195612104Y-83191333D01*
X195612104Y-83191333D02*
X195535914Y-83229428D01*
X195535914Y-83229428D02*
X195383533Y-83267524D01*
X195383533Y-83267524D02*
X195193057Y-83267524D01*
X195193057Y-83267524D02*
X195040676Y-83229428D01*
X195040676Y-83229428D02*
X194964485Y-83191333D01*
X194964485Y-83191333D02*
X194926390Y-83153238D01*
X194926390Y-83153238D02*
X194888295Y-83077047D01*
X195688295Y-82048476D02*
X195688295Y-82505619D01*
X195688295Y-82277047D02*
X194888295Y-82277047D01*
X194888295Y-82277047D02*
X195002580Y-82353238D01*
X195002580Y-82353238D02*
X195078771Y-82429428D01*
X195078771Y-82429428D02*
X195116866Y-82505619D01*
X194888295Y-81553237D02*
X194888295Y-81477047D01*
X194888295Y-81477047D02*
X194926390Y-81400856D01*
X194926390Y-81400856D02*
X194964485Y-81362761D01*
X194964485Y-81362761D02*
X195040676Y-81324666D01*
X195040676Y-81324666D02*
X195193057Y-81286571D01*
X195193057Y-81286571D02*
X195383533Y-81286571D01*
X195383533Y-81286571D02*
X195535914Y-81324666D01*
X195535914Y-81324666D02*
X195612104Y-81362761D01*
X195612104Y-81362761D02*
X195650200Y-81400856D01*
X195650200Y-81400856D02*
X195688295Y-81477047D01*
X195688295Y-81477047D02*
X195688295Y-81553237D01*
X195688295Y-81553237D02*
X195650200Y-81629428D01*
X195650200Y-81629428D02*
X195612104Y-81667523D01*
X195612104Y-81667523D02*
X195535914Y-81705618D01*
X195535914Y-81705618D02*
X195383533Y-81743714D01*
X195383533Y-81743714D02*
X195193057Y-81743714D01*
X195193057Y-81743714D02*
X195040676Y-81705618D01*
X195040676Y-81705618D02*
X194964485Y-81667523D01*
X194964485Y-81667523D02*
X194926390Y-81629428D01*
X194926390Y-81629428D02*
X194888295Y-81553237D01*
D11*
X193249618Y-85961595D02*
X192792475Y-85961595D01*
X193021047Y-85961595D02*
X193021047Y-85161595D01*
X193021047Y-85161595D02*
X192944856Y-85275880D01*
X192944856Y-85275880D02*
X192868666Y-85352071D01*
X192868666Y-85352071D02*
X192792475Y-85390166D01*
X193744857Y-85161595D02*
X193821047Y-85161595D01*
X193821047Y-85161595D02*
X193897238Y-85199690D01*
X193897238Y-85199690D02*
X193935333Y-85237785D01*
X193935333Y-85237785D02*
X193973428Y-85313976D01*
X193973428Y-85313976D02*
X194011523Y-85466357D01*
X194011523Y-85466357D02*
X194011523Y-85656833D01*
X194011523Y-85656833D02*
X193973428Y-85809214D01*
X193973428Y-85809214D02*
X193935333Y-85885404D01*
X193935333Y-85885404D02*
X193897238Y-85923500D01*
X193897238Y-85923500D02*
X193821047Y-85961595D01*
X193821047Y-85961595D02*
X193744857Y-85961595D01*
X193744857Y-85961595D02*
X193668666Y-85923500D01*
X193668666Y-85923500D02*
X193630571Y-85885404D01*
X193630571Y-85885404D02*
X193592476Y-85809214D01*
X193592476Y-85809214D02*
X193554380Y-85656833D01*
X193554380Y-85656833D02*
X193554380Y-85466357D01*
X193554380Y-85466357D02*
X193592476Y-85313976D01*
X193592476Y-85313976D02*
X193630571Y-85237785D01*
X193630571Y-85237785D02*
X193668666Y-85199690D01*
X193668666Y-85199690D02*
X193744857Y-85161595D01*
X194354381Y-85961595D02*
X194354381Y-85161595D01*
X194811524Y-85961595D02*
X194468666Y-85504452D01*
X194811524Y-85161595D02*
X194354381Y-85618738D01*
D10*
X177524761Y-63714819D02*
X177191428Y-63238628D01*
X176953333Y-63714819D02*
X176953333Y-62714819D01*
X176953333Y-62714819D02*
X177334285Y-62714819D01*
X177334285Y-62714819D02*
X177429523Y-62762438D01*
X177429523Y-62762438D02*
X177477142Y-62810057D01*
X177477142Y-62810057D02*
X177524761Y-62905295D01*
X177524761Y-62905295D02*
X177524761Y-63048152D01*
X177524761Y-63048152D02*
X177477142Y-63143390D01*
X177477142Y-63143390D02*
X177429523Y-63191009D01*
X177429523Y-63191009D02*
X177334285Y-63238628D01*
X177334285Y-63238628D02*
X176953333Y-63238628D01*
X178477142Y-63714819D02*
X177905714Y-63714819D01*
X178191428Y-63714819D02*
X178191428Y-62714819D01*
X178191428Y-62714819D02*
X178096190Y-62857676D01*
X178096190Y-62857676D02*
X178000952Y-62952914D01*
X178000952Y-62952914D02*
X177905714Y-63000533D01*
X179096190Y-62714819D02*
X179191428Y-62714819D01*
X179191428Y-62714819D02*
X179286666Y-62762438D01*
X179286666Y-62762438D02*
X179334285Y-62810057D01*
X179334285Y-62810057D02*
X179381904Y-62905295D01*
X179381904Y-62905295D02*
X179429523Y-63095771D01*
X179429523Y-63095771D02*
X179429523Y-63333866D01*
X179429523Y-63333866D02*
X179381904Y-63524342D01*
X179381904Y-63524342D02*
X179334285Y-63619580D01*
X179334285Y-63619580D02*
X179286666Y-63667200D01*
X179286666Y-63667200D02*
X179191428Y-63714819D01*
X179191428Y-63714819D02*
X179096190Y-63714819D01*
X179096190Y-63714819D02*
X179000952Y-63667200D01*
X179000952Y-63667200D02*
X178953333Y-63619580D01*
X178953333Y-63619580D02*
X178905714Y-63524342D01*
X178905714Y-63524342D02*
X178858095Y-63333866D01*
X178858095Y-63333866D02*
X178858095Y-63095771D01*
X178858095Y-63095771D02*
X178905714Y-62905295D01*
X178905714Y-62905295D02*
X178953333Y-62810057D01*
X178953333Y-62810057D02*
X179000952Y-62762438D01*
X179000952Y-62762438D02*
X179096190Y-62714819D01*
X180048571Y-62714819D02*
X180143809Y-62714819D01*
X180143809Y-62714819D02*
X180239047Y-62762438D01*
X180239047Y-62762438D02*
X180286666Y-62810057D01*
X180286666Y-62810057D02*
X180334285Y-62905295D01*
X180334285Y-62905295D02*
X180381904Y-63095771D01*
X180381904Y-63095771D02*
X180381904Y-63333866D01*
X180381904Y-63333866D02*
X180334285Y-63524342D01*
X180334285Y-63524342D02*
X180286666Y-63619580D01*
X180286666Y-63619580D02*
X180239047Y-63667200D01*
X180239047Y-63667200D02*
X180143809Y-63714819D01*
X180143809Y-63714819D02*
X180048571Y-63714819D01*
X180048571Y-63714819D02*
X179953333Y-63667200D01*
X179953333Y-63667200D02*
X179905714Y-63619580D01*
X179905714Y-63619580D02*
X179858095Y-63524342D01*
X179858095Y-63524342D02*
X179810476Y-63333866D01*
X179810476Y-63333866D02*
X179810476Y-63095771D01*
X179810476Y-63095771D02*
X179858095Y-62905295D01*
X179858095Y-62905295D02*
X179905714Y-62810057D01*
X179905714Y-62810057D02*
X179953333Y-62762438D01*
X179953333Y-62762438D02*
X180048571Y-62714819D01*
X180953333Y-63143390D02*
X180858095Y-63095771D01*
X180858095Y-63095771D02*
X180810476Y-63048152D01*
X180810476Y-63048152D02*
X180762857Y-62952914D01*
X180762857Y-62952914D02*
X180762857Y-62905295D01*
X180762857Y-62905295D02*
X180810476Y-62810057D01*
X180810476Y-62810057D02*
X180858095Y-62762438D01*
X180858095Y-62762438D02*
X180953333Y-62714819D01*
X180953333Y-62714819D02*
X181143809Y-62714819D01*
X181143809Y-62714819D02*
X181239047Y-62762438D01*
X181239047Y-62762438D02*
X181286666Y-62810057D01*
X181286666Y-62810057D02*
X181334285Y-62905295D01*
X181334285Y-62905295D02*
X181334285Y-62952914D01*
X181334285Y-62952914D02*
X181286666Y-63048152D01*
X181286666Y-63048152D02*
X181239047Y-63095771D01*
X181239047Y-63095771D02*
X181143809Y-63143390D01*
X181143809Y-63143390D02*
X180953333Y-63143390D01*
X180953333Y-63143390D02*
X180858095Y-63191009D01*
X180858095Y-63191009D02*
X180810476Y-63238628D01*
X180810476Y-63238628D02*
X180762857Y-63333866D01*
X180762857Y-63333866D02*
X180762857Y-63524342D01*
X180762857Y-63524342D02*
X180810476Y-63619580D01*
X180810476Y-63619580D02*
X180858095Y-63667200D01*
X180858095Y-63667200D02*
X180953333Y-63714819D01*
X180953333Y-63714819D02*
X181143809Y-63714819D01*
X181143809Y-63714819D02*
X181239047Y-63667200D01*
X181239047Y-63667200D02*
X181286666Y-63619580D01*
X181286666Y-63619580D02*
X181334285Y-63524342D01*
X181334285Y-63524342D02*
X181334285Y-63333866D01*
X181334285Y-63333866D02*
X181286666Y-63238628D01*
X181286666Y-63238628D02*
X181239047Y-63191009D01*
X181239047Y-63191009D02*
X181143809Y-63143390D01*
X162604666Y-70974295D02*
X162604666Y-70174295D01*
X162604666Y-70174295D02*
X162795142Y-70174295D01*
X162795142Y-70174295D02*
X162909428Y-70212390D01*
X162909428Y-70212390D02*
X162985618Y-70288580D01*
X162985618Y-70288580D02*
X163023713Y-70364771D01*
X163023713Y-70364771D02*
X163061809Y-70517152D01*
X163061809Y-70517152D02*
X163061809Y-70631438D01*
X163061809Y-70631438D02*
X163023713Y-70783819D01*
X163023713Y-70783819D02*
X162985618Y-70860009D01*
X162985618Y-70860009D02*
X162909428Y-70936200D01*
X162909428Y-70936200D02*
X162795142Y-70974295D01*
X162795142Y-70974295D02*
X162604666Y-70974295D01*
X163823713Y-70974295D02*
X163366570Y-70974295D01*
X163595142Y-70974295D02*
X163595142Y-70174295D01*
X163595142Y-70174295D02*
X163518951Y-70288580D01*
X163518951Y-70288580D02*
X163442761Y-70364771D01*
X163442761Y-70364771D02*
X163366570Y-70402866D01*
X164318952Y-70174295D02*
X164395142Y-70174295D01*
X164395142Y-70174295D02*
X164471333Y-70212390D01*
X164471333Y-70212390D02*
X164509428Y-70250485D01*
X164509428Y-70250485D02*
X164547523Y-70326676D01*
X164547523Y-70326676D02*
X164585618Y-70479057D01*
X164585618Y-70479057D02*
X164585618Y-70669533D01*
X164585618Y-70669533D02*
X164547523Y-70821914D01*
X164547523Y-70821914D02*
X164509428Y-70898104D01*
X164509428Y-70898104D02*
X164471333Y-70936200D01*
X164471333Y-70936200D02*
X164395142Y-70974295D01*
X164395142Y-70974295D02*
X164318952Y-70974295D01*
X164318952Y-70974295D02*
X164242761Y-70936200D01*
X164242761Y-70936200D02*
X164204666Y-70898104D01*
X164204666Y-70898104D02*
X164166571Y-70821914D01*
X164166571Y-70821914D02*
X164128475Y-70669533D01*
X164128475Y-70669533D02*
X164128475Y-70479057D01*
X164128475Y-70479057D02*
X164166571Y-70326676D01*
X164166571Y-70326676D02*
X164204666Y-70250485D01*
X164204666Y-70250485D02*
X164242761Y-70212390D01*
X164242761Y-70212390D02*
X164318952Y-70174295D01*
X165080857Y-70174295D02*
X165157047Y-70174295D01*
X165157047Y-70174295D02*
X165233238Y-70212390D01*
X165233238Y-70212390D02*
X165271333Y-70250485D01*
X165271333Y-70250485D02*
X165309428Y-70326676D01*
X165309428Y-70326676D02*
X165347523Y-70479057D01*
X165347523Y-70479057D02*
X165347523Y-70669533D01*
X165347523Y-70669533D02*
X165309428Y-70821914D01*
X165309428Y-70821914D02*
X165271333Y-70898104D01*
X165271333Y-70898104D02*
X165233238Y-70936200D01*
X165233238Y-70936200D02*
X165157047Y-70974295D01*
X165157047Y-70974295D02*
X165080857Y-70974295D01*
X165080857Y-70974295D02*
X165004666Y-70936200D01*
X165004666Y-70936200D02*
X164966571Y-70898104D01*
X164966571Y-70898104D02*
X164928476Y-70821914D01*
X164928476Y-70821914D02*
X164890380Y-70669533D01*
X164890380Y-70669533D02*
X164890380Y-70479057D01*
X164890380Y-70479057D02*
X164928476Y-70326676D01*
X164928476Y-70326676D02*
X164966571Y-70250485D01*
X164966571Y-70250485D02*
X165004666Y-70212390D01*
X165004666Y-70212390D02*
X165080857Y-70174295D01*
X165652285Y-70250485D02*
X165690381Y-70212390D01*
X165690381Y-70212390D02*
X165766571Y-70174295D01*
X165766571Y-70174295D02*
X165957047Y-70174295D01*
X165957047Y-70174295D02*
X166033238Y-70212390D01*
X166033238Y-70212390D02*
X166071333Y-70250485D01*
X166071333Y-70250485D02*
X166109428Y-70326676D01*
X166109428Y-70326676D02*
X166109428Y-70402866D01*
X166109428Y-70402866D02*
X166071333Y-70517152D01*
X166071333Y-70517152D02*
X165614190Y-70974295D01*
X165614190Y-70974295D02*
X166109428Y-70974295D01*
X145027319Y-81491904D02*
X145741604Y-81491904D01*
X145741604Y-81491904D02*
X145884461Y-81539523D01*
X145884461Y-81539523D02*
X145979700Y-81634761D01*
X145979700Y-81634761D02*
X146027319Y-81777618D01*
X146027319Y-81777618D02*
X146027319Y-81872856D01*
X146027319Y-80491904D02*
X146027319Y-81063332D01*
X146027319Y-80777618D02*
X145027319Y-80777618D01*
X145027319Y-80777618D02*
X145170176Y-80872856D01*
X145170176Y-80872856D02*
X145265414Y-80968094D01*
X145265414Y-80968094D02*
X145313033Y-81063332D01*
X145027319Y-79872856D02*
X145027319Y-79777618D01*
X145027319Y-79777618D02*
X145074938Y-79682380D01*
X145074938Y-79682380D02*
X145122557Y-79634761D01*
X145122557Y-79634761D02*
X145217795Y-79587142D01*
X145217795Y-79587142D02*
X145408271Y-79539523D01*
X145408271Y-79539523D02*
X145646366Y-79539523D01*
X145646366Y-79539523D02*
X145836842Y-79587142D01*
X145836842Y-79587142D02*
X145932080Y-79634761D01*
X145932080Y-79634761D02*
X145979700Y-79682380D01*
X145979700Y-79682380D02*
X146027319Y-79777618D01*
X146027319Y-79777618D02*
X146027319Y-79872856D01*
X146027319Y-79872856D02*
X145979700Y-79968094D01*
X145979700Y-79968094D02*
X145932080Y-80015713D01*
X145932080Y-80015713D02*
X145836842Y-80063332D01*
X145836842Y-80063332D02*
X145646366Y-80110951D01*
X145646366Y-80110951D02*
X145408271Y-80110951D01*
X145408271Y-80110951D02*
X145217795Y-80063332D01*
X145217795Y-80063332D02*
X145122557Y-80015713D01*
X145122557Y-80015713D02*
X145074938Y-79968094D01*
X145074938Y-79968094D02*
X145027319Y-79872856D01*
X145027319Y-78920475D02*
X145027319Y-78825237D01*
X145027319Y-78825237D02*
X145074938Y-78729999D01*
X145074938Y-78729999D02*
X145122557Y-78682380D01*
X145122557Y-78682380D02*
X145217795Y-78634761D01*
X145217795Y-78634761D02*
X145408271Y-78587142D01*
X145408271Y-78587142D02*
X145646366Y-78587142D01*
X145646366Y-78587142D02*
X145836842Y-78634761D01*
X145836842Y-78634761D02*
X145932080Y-78682380D01*
X145932080Y-78682380D02*
X145979700Y-78729999D01*
X145979700Y-78729999D02*
X146027319Y-78825237D01*
X146027319Y-78825237D02*
X146027319Y-78920475D01*
X146027319Y-78920475D02*
X145979700Y-79015713D01*
X145979700Y-79015713D02*
X145932080Y-79063332D01*
X145932080Y-79063332D02*
X145836842Y-79110951D01*
X145836842Y-79110951D02*
X145646366Y-79158570D01*
X145646366Y-79158570D02*
X145408271Y-79158570D01*
X145408271Y-79158570D02*
X145217795Y-79110951D01*
X145217795Y-79110951D02*
X145122557Y-79063332D01*
X145122557Y-79063332D02*
X145074938Y-79015713D01*
X145074938Y-79015713D02*
X145027319Y-78920475D01*
X146027319Y-77634761D02*
X146027319Y-78206189D01*
X146027319Y-77920475D02*
X145027319Y-77920475D01*
X145027319Y-77920475D02*
X145170176Y-78015713D01*
X145170176Y-78015713D02*
X145265414Y-78110951D01*
X145265414Y-78110951D02*
X145313033Y-78206189D01*
X170870761Y-74622819D02*
X170537428Y-74146628D01*
X170299333Y-74622819D02*
X170299333Y-73622819D01*
X170299333Y-73622819D02*
X170680285Y-73622819D01*
X170680285Y-73622819D02*
X170775523Y-73670438D01*
X170775523Y-73670438D02*
X170823142Y-73718057D01*
X170823142Y-73718057D02*
X170870761Y-73813295D01*
X170870761Y-73813295D02*
X170870761Y-73956152D01*
X170870761Y-73956152D02*
X170823142Y-74051390D01*
X170823142Y-74051390D02*
X170775523Y-74099009D01*
X170775523Y-74099009D02*
X170680285Y-74146628D01*
X170680285Y-74146628D02*
X170299333Y-74146628D01*
X171823142Y-74622819D02*
X171251714Y-74622819D01*
X171537428Y-74622819D02*
X171537428Y-73622819D01*
X171537428Y-73622819D02*
X171442190Y-73765676D01*
X171442190Y-73765676D02*
X171346952Y-73860914D01*
X171346952Y-73860914D02*
X171251714Y-73908533D01*
X172442190Y-73622819D02*
X172537428Y-73622819D01*
X172537428Y-73622819D02*
X172632666Y-73670438D01*
X172632666Y-73670438D02*
X172680285Y-73718057D01*
X172680285Y-73718057D02*
X172727904Y-73813295D01*
X172727904Y-73813295D02*
X172775523Y-74003771D01*
X172775523Y-74003771D02*
X172775523Y-74241866D01*
X172775523Y-74241866D02*
X172727904Y-74432342D01*
X172727904Y-74432342D02*
X172680285Y-74527580D01*
X172680285Y-74527580D02*
X172632666Y-74575200D01*
X172632666Y-74575200D02*
X172537428Y-74622819D01*
X172537428Y-74622819D02*
X172442190Y-74622819D01*
X172442190Y-74622819D02*
X172346952Y-74575200D01*
X172346952Y-74575200D02*
X172299333Y-74527580D01*
X172299333Y-74527580D02*
X172251714Y-74432342D01*
X172251714Y-74432342D02*
X172204095Y-74241866D01*
X172204095Y-74241866D02*
X172204095Y-74003771D01*
X172204095Y-74003771D02*
X172251714Y-73813295D01*
X172251714Y-73813295D02*
X172299333Y-73718057D01*
X172299333Y-73718057D02*
X172346952Y-73670438D01*
X172346952Y-73670438D02*
X172442190Y-73622819D01*
X173727904Y-74622819D02*
X173156476Y-74622819D01*
X173442190Y-74622819D02*
X173442190Y-73622819D01*
X173442190Y-73622819D02*
X173346952Y-73765676D01*
X173346952Y-73765676D02*
X173251714Y-73860914D01*
X173251714Y-73860914D02*
X173156476Y-73908533D01*
X174680285Y-74622819D02*
X174108857Y-74622819D01*
X174394571Y-74622819D02*
X174394571Y-73622819D01*
X174394571Y-73622819D02*
X174299333Y-73765676D01*
X174299333Y-73765676D02*
X174204095Y-73860914D01*
X174204095Y-73860914D02*
X174108857Y-73908533D01*
X181556819Y-77541238D02*
X181080628Y-77874571D01*
X181556819Y-78112666D02*
X180556819Y-78112666D01*
X180556819Y-78112666D02*
X180556819Y-77731714D01*
X180556819Y-77731714D02*
X180604438Y-77636476D01*
X180604438Y-77636476D02*
X180652057Y-77588857D01*
X180652057Y-77588857D02*
X180747295Y-77541238D01*
X180747295Y-77541238D02*
X180890152Y-77541238D01*
X180890152Y-77541238D02*
X180985390Y-77588857D01*
X180985390Y-77588857D02*
X181033009Y-77636476D01*
X181033009Y-77636476D02*
X181080628Y-77731714D01*
X181080628Y-77731714D02*
X181080628Y-78112666D01*
X181556819Y-76588857D02*
X181556819Y-77160285D01*
X181556819Y-76874571D02*
X180556819Y-76874571D01*
X180556819Y-76874571D02*
X180699676Y-76969809D01*
X180699676Y-76969809D02*
X180794914Y-77065047D01*
X180794914Y-77065047D02*
X180842533Y-77160285D01*
X180556819Y-75969809D02*
X180556819Y-75874571D01*
X180556819Y-75874571D02*
X180604438Y-75779333D01*
X180604438Y-75779333D02*
X180652057Y-75731714D01*
X180652057Y-75731714D02*
X180747295Y-75684095D01*
X180747295Y-75684095D02*
X180937771Y-75636476D01*
X180937771Y-75636476D02*
X181175866Y-75636476D01*
X181175866Y-75636476D02*
X181366342Y-75684095D01*
X181366342Y-75684095D02*
X181461580Y-75731714D01*
X181461580Y-75731714D02*
X181509200Y-75779333D01*
X181509200Y-75779333D02*
X181556819Y-75874571D01*
X181556819Y-75874571D02*
X181556819Y-75969809D01*
X181556819Y-75969809D02*
X181509200Y-76065047D01*
X181509200Y-76065047D02*
X181461580Y-76112666D01*
X181461580Y-76112666D02*
X181366342Y-76160285D01*
X181366342Y-76160285D02*
X181175866Y-76207904D01*
X181175866Y-76207904D02*
X180937771Y-76207904D01*
X180937771Y-76207904D02*
X180747295Y-76160285D01*
X180747295Y-76160285D02*
X180652057Y-76112666D01*
X180652057Y-76112666D02*
X180604438Y-76065047D01*
X180604438Y-76065047D02*
X180556819Y-75969809D01*
X180556819Y-75017428D02*
X180556819Y-74922190D01*
X180556819Y-74922190D02*
X180604438Y-74826952D01*
X180604438Y-74826952D02*
X180652057Y-74779333D01*
X180652057Y-74779333D02*
X180747295Y-74731714D01*
X180747295Y-74731714D02*
X180937771Y-74684095D01*
X180937771Y-74684095D02*
X181175866Y-74684095D01*
X181175866Y-74684095D02*
X181366342Y-74731714D01*
X181366342Y-74731714D02*
X181461580Y-74779333D01*
X181461580Y-74779333D02*
X181509200Y-74826952D01*
X181509200Y-74826952D02*
X181556819Y-74922190D01*
X181556819Y-74922190D02*
X181556819Y-75017428D01*
X181556819Y-75017428D02*
X181509200Y-75112666D01*
X181509200Y-75112666D02*
X181461580Y-75160285D01*
X181461580Y-75160285D02*
X181366342Y-75207904D01*
X181366342Y-75207904D02*
X181175866Y-75255523D01*
X181175866Y-75255523D02*
X180937771Y-75255523D01*
X180937771Y-75255523D02*
X180747295Y-75207904D01*
X180747295Y-75207904D02*
X180652057Y-75160285D01*
X180652057Y-75160285D02*
X180604438Y-75112666D01*
X180604438Y-75112666D02*
X180556819Y-75017428D01*
X181556819Y-73731714D02*
X181556819Y-74303142D01*
X181556819Y-74017428D02*
X180556819Y-74017428D01*
X180556819Y-74017428D02*
X180699676Y-74112666D01*
X180699676Y-74112666D02*
X180794914Y-74207904D01*
X180794914Y-74207904D02*
X180842533Y-74303142D01*
X182334819Y-82057713D02*
X182334819Y-81438666D01*
X182334819Y-81438666D02*
X182715771Y-81771999D01*
X182715771Y-81771999D02*
X182715771Y-81629142D01*
X182715771Y-81629142D02*
X182763390Y-81533904D01*
X182763390Y-81533904D02*
X182811009Y-81486285D01*
X182811009Y-81486285D02*
X182906247Y-81438666D01*
X182906247Y-81438666D02*
X183144342Y-81438666D01*
X183144342Y-81438666D02*
X183239580Y-81486285D01*
X183239580Y-81486285D02*
X183287200Y-81533904D01*
X183287200Y-81533904D02*
X183334819Y-81629142D01*
X183334819Y-81629142D02*
X183334819Y-81914856D01*
X183334819Y-81914856D02*
X183287200Y-82010094D01*
X183287200Y-82010094D02*
X183239580Y-82057713D01*
X182334819Y-80819618D02*
X182334819Y-80724380D01*
X182334819Y-80724380D02*
X182382438Y-80629142D01*
X182382438Y-80629142D02*
X182430057Y-80581523D01*
X182430057Y-80581523D02*
X182525295Y-80533904D01*
X182525295Y-80533904D02*
X182715771Y-80486285D01*
X182715771Y-80486285D02*
X182953866Y-80486285D01*
X182953866Y-80486285D02*
X183144342Y-80533904D01*
X183144342Y-80533904D02*
X183239580Y-80581523D01*
X183239580Y-80581523D02*
X183287200Y-80629142D01*
X183287200Y-80629142D02*
X183334819Y-80724380D01*
X183334819Y-80724380D02*
X183334819Y-80819618D01*
X183334819Y-80819618D02*
X183287200Y-80914856D01*
X183287200Y-80914856D02*
X183239580Y-80962475D01*
X183239580Y-80962475D02*
X183144342Y-81010094D01*
X183144342Y-81010094D02*
X182953866Y-81057713D01*
X182953866Y-81057713D02*
X182715771Y-81057713D01*
X182715771Y-81057713D02*
X182525295Y-81010094D01*
X182525295Y-81010094D02*
X182430057Y-80962475D01*
X182430057Y-80962475D02*
X182382438Y-80914856D01*
X182382438Y-80914856D02*
X182334819Y-80819618D01*
X182334819Y-79867237D02*
X182334819Y-79771999D01*
X182334819Y-79771999D02*
X182382438Y-79676761D01*
X182382438Y-79676761D02*
X182430057Y-79629142D01*
X182430057Y-79629142D02*
X182525295Y-79581523D01*
X182525295Y-79581523D02*
X182715771Y-79533904D01*
X182715771Y-79533904D02*
X182953866Y-79533904D01*
X182953866Y-79533904D02*
X183144342Y-79581523D01*
X183144342Y-79581523D02*
X183239580Y-79629142D01*
X183239580Y-79629142D02*
X183287200Y-79676761D01*
X183287200Y-79676761D02*
X183334819Y-79771999D01*
X183334819Y-79771999D02*
X183334819Y-79867237D01*
X183334819Y-79867237D02*
X183287200Y-79962475D01*
X183287200Y-79962475D02*
X183239580Y-80010094D01*
X183239580Y-80010094D02*
X183144342Y-80057713D01*
X183144342Y-80057713D02*
X182953866Y-80105332D01*
X182953866Y-80105332D02*
X182715771Y-80105332D01*
X182715771Y-80105332D02*
X182525295Y-80057713D01*
X182525295Y-80057713D02*
X182430057Y-80010094D01*
X182430057Y-80010094D02*
X182382438Y-79962475D01*
X182382438Y-79962475D02*
X182334819Y-79867237D01*
X148298819Y-56625904D02*
X149013104Y-56625904D01*
X149013104Y-56625904D02*
X149155961Y-56673523D01*
X149155961Y-56673523D02*
X149251200Y-56768761D01*
X149251200Y-56768761D02*
X149298819Y-56911618D01*
X149298819Y-56911618D02*
X149298819Y-57006856D01*
X149298819Y-55625904D02*
X149298819Y-56197332D01*
X149298819Y-55911618D02*
X148298819Y-55911618D01*
X148298819Y-55911618D02*
X148441676Y-56006856D01*
X148441676Y-56006856D02*
X148536914Y-56102094D01*
X148536914Y-56102094D02*
X148584533Y-56197332D01*
X148298819Y-55006856D02*
X148298819Y-54911618D01*
X148298819Y-54911618D02*
X148346438Y-54816380D01*
X148346438Y-54816380D02*
X148394057Y-54768761D01*
X148394057Y-54768761D02*
X148489295Y-54721142D01*
X148489295Y-54721142D02*
X148679771Y-54673523D01*
X148679771Y-54673523D02*
X148917866Y-54673523D01*
X148917866Y-54673523D02*
X149108342Y-54721142D01*
X149108342Y-54721142D02*
X149203580Y-54768761D01*
X149203580Y-54768761D02*
X149251200Y-54816380D01*
X149251200Y-54816380D02*
X149298819Y-54911618D01*
X149298819Y-54911618D02*
X149298819Y-55006856D01*
X149298819Y-55006856D02*
X149251200Y-55102094D01*
X149251200Y-55102094D02*
X149203580Y-55149713D01*
X149203580Y-55149713D02*
X149108342Y-55197332D01*
X149108342Y-55197332D02*
X148917866Y-55244951D01*
X148917866Y-55244951D02*
X148679771Y-55244951D01*
X148679771Y-55244951D02*
X148489295Y-55197332D01*
X148489295Y-55197332D02*
X148394057Y-55149713D01*
X148394057Y-55149713D02*
X148346438Y-55102094D01*
X148346438Y-55102094D02*
X148298819Y-55006856D01*
X148298819Y-54054475D02*
X148298819Y-53959237D01*
X148298819Y-53959237D02*
X148346438Y-53863999D01*
X148346438Y-53863999D02*
X148394057Y-53816380D01*
X148394057Y-53816380D02*
X148489295Y-53768761D01*
X148489295Y-53768761D02*
X148679771Y-53721142D01*
X148679771Y-53721142D02*
X148917866Y-53721142D01*
X148917866Y-53721142D02*
X149108342Y-53768761D01*
X149108342Y-53768761D02*
X149203580Y-53816380D01*
X149203580Y-53816380D02*
X149251200Y-53863999D01*
X149251200Y-53863999D02*
X149298819Y-53959237D01*
X149298819Y-53959237D02*
X149298819Y-54054475D01*
X149298819Y-54054475D02*
X149251200Y-54149713D01*
X149251200Y-54149713D02*
X149203580Y-54197332D01*
X149203580Y-54197332D02*
X149108342Y-54244951D01*
X149108342Y-54244951D02*
X148917866Y-54292570D01*
X148917866Y-54292570D02*
X148679771Y-54292570D01*
X148679771Y-54292570D02*
X148489295Y-54244951D01*
X148489295Y-54244951D02*
X148394057Y-54197332D01*
X148394057Y-54197332D02*
X148346438Y-54149713D01*
X148346438Y-54149713D02*
X148298819Y-54054475D01*
X148298819Y-53387808D02*
X148298819Y-52768761D01*
X148298819Y-52768761D02*
X148679771Y-53102094D01*
X148679771Y-53102094D02*
X148679771Y-52959237D01*
X148679771Y-52959237D02*
X148727390Y-52863999D01*
X148727390Y-52863999D02*
X148775009Y-52816380D01*
X148775009Y-52816380D02*
X148870247Y-52768761D01*
X148870247Y-52768761D02*
X149108342Y-52768761D01*
X149108342Y-52768761D02*
X149203580Y-52816380D01*
X149203580Y-52816380D02*
X149251200Y-52863999D01*
X149251200Y-52863999D02*
X149298819Y-52959237D01*
X149298819Y-52959237D02*
X149298819Y-53244951D01*
X149298819Y-53244951D02*
X149251200Y-53340189D01*
X149251200Y-53340189D02*
X149203580Y-53387808D01*
X187293524Y-61684819D02*
X187293524Y-62494342D01*
X187293524Y-62494342D02*
X187341143Y-62589580D01*
X187341143Y-62589580D02*
X187388762Y-62637200D01*
X187388762Y-62637200D02*
X187484000Y-62684819D01*
X187484000Y-62684819D02*
X187674476Y-62684819D01*
X187674476Y-62684819D02*
X187769714Y-62637200D01*
X187769714Y-62637200D02*
X187817333Y-62589580D01*
X187817333Y-62589580D02*
X187864952Y-62494342D01*
X187864952Y-62494342D02*
X187864952Y-61684819D01*
X188864952Y-62684819D02*
X188293524Y-62684819D01*
X188579238Y-62684819D02*
X188579238Y-61684819D01*
X188579238Y-61684819D02*
X188484000Y-61827676D01*
X188484000Y-61827676D02*
X188388762Y-61922914D01*
X188388762Y-61922914D02*
X188293524Y-61970533D01*
X189484000Y-61684819D02*
X189579238Y-61684819D01*
X189579238Y-61684819D02*
X189674476Y-61732438D01*
X189674476Y-61732438D02*
X189722095Y-61780057D01*
X189722095Y-61780057D02*
X189769714Y-61875295D01*
X189769714Y-61875295D02*
X189817333Y-62065771D01*
X189817333Y-62065771D02*
X189817333Y-62303866D01*
X189817333Y-62303866D02*
X189769714Y-62494342D01*
X189769714Y-62494342D02*
X189722095Y-62589580D01*
X189722095Y-62589580D02*
X189674476Y-62637200D01*
X189674476Y-62637200D02*
X189579238Y-62684819D01*
X189579238Y-62684819D02*
X189484000Y-62684819D01*
X189484000Y-62684819D02*
X189388762Y-62637200D01*
X189388762Y-62637200D02*
X189341143Y-62589580D01*
X189341143Y-62589580D02*
X189293524Y-62494342D01*
X189293524Y-62494342D02*
X189245905Y-62303866D01*
X189245905Y-62303866D02*
X189245905Y-62065771D01*
X189245905Y-62065771D02*
X189293524Y-61875295D01*
X189293524Y-61875295D02*
X189341143Y-61780057D01*
X189341143Y-61780057D02*
X189388762Y-61732438D01*
X189388762Y-61732438D02*
X189484000Y-61684819D01*
X190436381Y-61684819D02*
X190531619Y-61684819D01*
X190531619Y-61684819D02*
X190626857Y-61732438D01*
X190626857Y-61732438D02*
X190674476Y-61780057D01*
X190674476Y-61780057D02*
X190722095Y-61875295D01*
X190722095Y-61875295D02*
X190769714Y-62065771D01*
X190769714Y-62065771D02*
X190769714Y-62303866D01*
X190769714Y-62303866D02*
X190722095Y-62494342D01*
X190722095Y-62494342D02*
X190674476Y-62589580D01*
X190674476Y-62589580D02*
X190626857Y-62637200D01*
X190626857Y-62637200D02*
X190531619Y-62684819D01*
X190531619Y-62684819D02*
X190436381Y-62684819D01*
X190436381Y-62684819D02*
X190341143Y-62637200D01*
X190341143Y-62637200D02*
X190293524Y-62589580D01*
X190293524Y-62589580D02*
X190245905Y-62494342D01*
X190245905Y-62494342D02*
X190198286Y-62303866D01*
X190198286Y-62303866D02*
X190198286Y-62065771D01*
X190198286Y-62065771D02*
X190245905Y-61875295D01*
X190245905Y-61875295D02*
X190293524Y-61780057D01*
X190293524Y-61780057D02*
X190341143Y-61732438D01*
X190341143Y-61732438D02*
X190436381Y-61684819D01*
X191722095Y-62684819D02*
X191150667Y-62684819D01*
X191436381Y-62684819D02*
X191436381Y-61684819D01*
X191436381Y-61684819D02*
X191341143Y-61827676D01*
X191341143Y-61827676D02*
X191245905Y-61922914D01*
X191245905Y-61922914D02*
X191150667Y-61970533D01*
X203639009Y-66793046D02*
X203639009Y-66459713D01*
X204162819Y-66316856D02*
X204162819Y-66793046D01*
X204162819Y-66793046D02*
X203162819Y-66793046D01*
X203162819Y-66793046D02*
X203162819Y-66316856D01*
X204115200Y-65935903D02*
X204162819Y-65793046D01*
X204162819Y-65793046D02*
X204162819Y-65554951D01*
X204162819Y-65554951D02*
X204115200Y-65459713D01*
X204115200Y-65459713D02*
X204067580Y-65412094D01*
X204067580Y-65412094D02*
X203972342Y-65364475D01*
X203972342Y-65364475D02*
X203877104Y-65364475D01*
X203877104Y-65364475D02*
X203781866Y-65412094D01*
X203781866Y-65412094D02*
X203734247Y-65459713D01*
X203734247Y-65459713D02*
X203686628Y-65554951D01*
X203686628Y-65554951D02*
X203639009Y-65745427D01*
X203639009Y-65745427D02*
X203591390Y-65840665D01*
X203591390Y-65840665D02*
X203543771Y-65888284D01*
X203543771Y-65888284D02*
X203448533Y-65935903D01*
X203448533Y-65935903D02*
X203353295Y-65935903D01*
X203353295Y-65935903D02*
X203258057Y-65888284D01*
X203258057Y-65888284D02*
X203210438Y-65840665D01*
X203210438Y-65840665D02*
X203162819Y-65745427D01*
X203162819Y-65745427D02*
X203162819Y-65507332D01*
X203162819Y-65507332D02*
X203210438Y-65364475D01*
X204162819Y-64935903D02*
X203162819Y-64935903D01*
X203162819Y-64935903D02*
X203162819Y-64554951D01*
X203162819Y-64554951D02*
X203210438Y-64459713D01*
X203210438Y-64459713D02*
X203258057Y-64412094D01*
X203258057Y-64412094D02*
X203353295Y-64364475D01*
X203353295Y-64364475D02*
X203496152Y-64364475D01*
X203496152Y-64364475D02*
X203591390Y-64412094D01*
X203591390Y-64412094D02*
X203639009Y-64459713D01*
X203639009Y-64459713D02*
X203686628Y-64554951D01*
X203686628Y-64554951D02*
X203686628Y-64935903D01*
X203162819Y-64031141D02*
X203162819Y-63412094D01*
X203162819Y-63412094D02*
X203543771Y-63745427D01*
X203543771Y-63745427D02*
X203543771Y-63602570D01*
X203543771Y-63602570D02*
X203591390Y-63507332D01*
X203591390Y-63507332D02*
X203639009Y-63459713D01*
X203639009Y-63459713D02*
X203734247Y-63412094D01*
X203734247Y-63412094D02*
X203972342Y-63412094D01*
X203972342Y-63412094D02*
X204067580Y-63459713D01*
X204067580Y-63459713D02*
X204115200Y-63507332D01*
X204115200Y-63507332D02*
X204162819Y-63602570D01*
X204162819Y-63602570D02*
X204162819Y-63888284D01*
X204162819Y-63888284D02*
X204115200Y-63983522D01*
X204115200Y-63983522D02*
X204067580Y-64031141D01*
X203258057Y-63031141D02*
X203210438Y-62983522D01*
X203210438Y-62983522D02*
X203162819Y-62888284D01*
X203162819Y-62888284D02*
X203162819Y-62650189D01*
X203162819Y-62650189D02*
X203210438Y-62554951D01*
X203210438Y-62554951D02*
X203258057Y-62507332D01*
X203258057Y-62507332D02*
X203353295Y-62459713D01*
X203353295Y-62459713D02*
X203448533Y-62459713D01*
X203448533Y-62459713D02*
X203591390Y-62507332D01*
X203591390Y-62507332D02*
X204162819Y-63078760D01*
X204162819Y-63078760D02*
X204162819Y-62459713D01*
X203781866Y-62031141D02*
X203781866Y-61269237D01*
X204115200Y-60840665D02*
X204162819Y-60697808D01*
X204162819Y-60697808D02*
X204162819Y-60459713D01*
X204162819Y-60459713D02*
X204115200Y-60364475D01*
X204115200Y-60364475D02*
X204067580Y-60316856D01*
X204067580Y-60316856D02*
X203972342Y-60269237D01*
X203972342Y-60269237D02*
X203877104Y-60269237D01*
X203877104Y-60269237D02*
X203781866Y-60316856D01*
X203781866Y-60316856D02*
X203734247Y-60364475D01*
X203734247Y-60364475D02*
X203686628Y-60459713D01*
X203686628Y-60459713D02*
X203639009Y-60650189D01*
X203639009Y-60650189D02*
X203591390Y-60745427D01*
X203591390Y-60745427D02*
X203543771Y-60793046D01*
X203543771Y-60793046D02*
X203448533Y-60840665D01*
X203448533Y-60840665D02*
X203353295Y-60840665D01*
X203353295Y-60840665D02*
X203258057Y-60793046D01*
X203258057Y-60793046D02*
X203210438Y-60745427D01*
X203210438Y-60745427D02*
X203162819Y-60650189D01*
X203162819Y-60650189D02*
X203162819Y-60412094D01*
X203162819Y-60412094D02*
X203210438Y-60269237D01*
X203162819Y-59935903D02*
X203162819Y-59316856D01*
X203162819Y-59316856D02*
X203543771Y-59650189D01*
X203543771Y-59650189D02*
X203543771Y-59507332D01*
X203543771Y-59507332D02*
X203591390Y-59412094D01*
X203591390Y-59412094D02*
X203639009Y-59364475D01*
X203639009Y-59364475D02*
X203734247Y-59316856D01*
X203734247Y-59316856D02*
X203972342Y-59316856D01*
X203972342Y-59316856D02*
X204067580Y-59364475D01*
X204067580Y-59364475D02*
X204115200Y-59412094D01*
X204115200Y-59412094D02*
X204162819Y-59507332D01*
X204162819Y-59507332D02*
X204162819Y-59793046D01*
X204162819Y-59793046D02*
X204115200Y-59888284D01*
X204115200Y-59888284D02*
X204067580Y-59935903D01*
X203781866Y-58888284D02*
X203781866Y-58126380D01*
X203162819Y-57745427D02*
X204162819Y-57507332D01*
X204162819Y-57507332D02*
X203448533Y-57316856D01*
X203448533Y-57316856D02*
X204162819Y-57126380D01*
X204162819Y-57126380D02*
X203162819Y-56888285D01*
X204162819Y-55935904D02*
X203686628Y-56269237D01*
X204162819Y-56507332D02*
X203162819Y-56507332D01*
X203162819Y-56507332D02*
X203162819Y-56126380D01*
X203162819Y-56126380D02*
X203210438Y-56031142D01*
X203210438Y-56031142D02*
X203258057Y-55983523D01*
X203258057Y-55983523D02*
X203353295Y-55935904D01*
X203353295Y-55935904D02*
X203496152Y-55935904D01*
X203496152Y-55935904D02*
X203591390Y-55983523D01*
X203591390Y-55983523D02*
X203639009Y-56031142D01*
X203639009Y-56031142D02*
X203686628Y-56126380D01*
X203686628Y-56126380D02*
X203686628Y-56507332D01*
X203162819Y-55316856D02*
X203162819Y-55126380D01*
X203162819Y-55126380D02*
X203210438Y-55031142D01*
X203210438Y-55031142D02*
X203305676Y-54935904D01*
X203305676Y-54935904D02*
X203496152Y-54888285D01*
X203496152Y-54888285D02*
X203829485Y-54888285D01*
X203829485Y-54888285D02*
X204019961Y-54935904D01*
X204019961Y-54935904D02*
X204115200Y-55031142D01*
X204115200Y-55031142D02*
X204162819Y-55126380D01*
X204162819Y-55126380D02*
X204162819Y-55316856D01*
X204162819Y-55316856D02*
X204115200Y-55412094D01*
X204115200Y-55412094D02*
X204019961Y-55507332D01*
X204019961Y-55507332D02*
X203829485Y-55554951D01*
X203829485Y-55554951D02*
X203496152Y-55554951D01*
X203496152Y-55554951D02*
X203305676Y-55507332D01*
X203305676Y-55507332D02*
X203210438Y-55412094D01*
X203210438Y-55412094D02*
X203162819Y-55316856D01*
X203162819Y-54269237D02*
X203162819Y-54078761D01*
X203162819Y-54078761D02*
X203210438Y-53983523D01*
X203210438Y-53983523D02*
X203305676Y-53888285D01*
X203305676Y-53888285D02*
X203496152Y-53840666D01*
X203496152Y-53840666D02*
X203829485Y-53840666D01*
X203829485Y-53840666D02*
X204019961Y-53888285D01*
X204019961Y-53888285D02*
X204115200Y-53983523D01*
X204115200Y-53983523D02*
X204162819Y-54078761D01*
X204162819Y-54078761D02*
X204162819Y-54269237D01*
X204162819Y-54269237D02*
X204115200Y-54364475D01*
X204115200Y-54364475D02*
X204019961Y-54459713D01*
X204019961Y-54459713D02*
X203829485Y-54507332D01*
X203829485Y-54507332D02*
X203496152Y-54507332D01*
X203496152Y-54507332D02*
X203305676Y-54459713D01*
X203305676Y-54459713D02*
X203210438Y-54364475D01*
X203210438Y-54364475D02*
X203162819Y-54269237D01*
X204162819Y-53412094D02*
X203162819Y-53412094D01*
X203162819Y-53412094D02*
X203877104Y-53078761D01*
X203877104Y-53078761D02*
X203162819Y-52745428D01*
X203162819Y-52745428D02*
X204162819Y-52745428D01*
X203781866Y-52269237D02*
X203781866Y-51507333D01*
X204162819Y-50507333D02*
X204162819Y-51078761D01*
X204162819Y-50793047D02*
X203162819Y-50793047D01*
X203162819Y-50793047D02*
X203305676Y-50888285D01*
X203305676Y-50888285D02*
X203400914Y-50983523D01*
X203400914Y-50983523D02*
X203448533Y-51078761D01*
X188238094Y-46303104D02*
X188714284Y-46303104D01*
X188142856Y-46588819D02*
X188476189Y-45588819D01*
X188476189Y-45588819D02*
X188809522Y-46588819D01*
X189142856Y-45922152D02*
X189142856Y-46588819D01*
X189142856Y-46017390D02*
X189190475Y-45969771D01*
X189190475Y-45969771D02*
X189285713Y-45922152D01*
X189285713Y-45922152D02*
X189428570Y-45922152D01*
X189428570Y-45922152D02*
X189523808Y-45969771D01*
X189523808Y-45969771D02*
X189571427Y-46065009D01*
X189571427Y-46065009D02*
X189571427Y-46588819D01*
X189904761Y-45922152D02*
X190285713Y-45922152D01*
X190047618Y-45588819D02*
X190047618Y-46445961D01*
X190047618Y-46445961D02*
X190095237Y-46541200D01*
X190095237Y-46541200D02*
X190190475Y-46588819D01*
X190190475Y-46588819D02*
X190285713Y-46588819D01*
X190999999Y-46541200D02*
X190904761Y-46588819D01*
X190904761Y-46588819D02*
X190714285Y-46588819D01*
X190714285Y-46588819D02*
X190619047Y-46541200D01*
X190619047Y-46541200D02*
X190571428Y-46445961D01*
X190571428Y-46445961D02*
X190571428Y-46065009D01*
X190571428Y-46065009D02*
X190619047Y-45969771D01*
X190619047Y-45969771D02*
X190714285Y-45922152D01*
X190714285Y-45922152D02*
X190904761Y-45922152D01*
X190904761Y-45922152D02*
X190999999Y-45969771D01*
X190999999Y-45969771D02*
X191047618Y-46065009D01*
X191047618Y-46065009D02*
X191047618Y-46160247D01*
X191047618Y-46160247D02*
X190571428Y-46255485D01*
X191476190Y-45922152D02*
X191476190Y-46588819D01*
X191476190Y-46017390D02*
X191523809Y-45969771D01*
X191523809Y-45969771D02*
X191619047Y-45922152D01*
X191619047Y-45922152D02*
X191761904Y-45922152D01*
X191761904Y-45922152D02*
X191857142Y-45969771D01*
X191857142Y-45969771D02*
X191904761Y-46065009D01*
X191904761Y-46065009D02*
X191904761Y-46588819D01*
X192380952Y-45922152D02*
X192380952Y-46588819D01*
X192380952Y-46017390D02*
X192428571Y-45969771D01*
X192428571Y-45969771D02*
X192523809Y-45922152D01*
X192523809Y-45922152D02*
X192666666Y-45922152D01*
X192666666Y-45922152D02*
X192761904Y-45969771D01*
X192761904Y-45969771D02*
X192809523Y-46065009D01*
X192809523Y-46065009D02*
X192809523Y-46588819D01*
X193714285Y-46588819D02*
X193714285Y-46065009D01*
X193714285Y-46065009D02*
X193666666Y-45969771D01*
X193666666Y-45969771D02*
X193571428Y-45922152D01*
X193571428Y-45922152D02*
X193380952Y-45922152D01*
X193380952Y-45922152D02*
X193285714Y-45969771D01*
X193714285Y-46541200D02*
X193619047Y-46588819D01*
X193619047Y-46588819D02*
X193380952Y-46588819D01*
X193380952Y-46588819D02*
X193285714Y-46541200D01*
X193285714Y-46541200D02*
X193238095Y-46445961D01*
X193238095Y-46445961D02*
X193238095Y-46350723D01*
X193238095Y-46350723D02*
X193285714Y-46255485D01*
X193285714Y-46255485D02*
X193380952Y-46207866D01*
X193380952Y-46207866D02*
X193619047Y-46207866D01*
X193619047Y-46207866D02*
X193714285Y-46160247D01*
X194904762Y-46303104D02*
X195380952Y-46303104D01*
X194809524Y-46588819D02*
X195142857Y-45588819D01*
X195142857Y-45588819D02*
X195476190Y-46588819D01*
X195809524Y-46588819D02*
X195809524Y-45922152D01*
X195809524Y-46112628D02*
X195857143Y-46017390D01*
X195857143Y-46017390D02*
X195904762Y-45969771D01*
X195904762Y-45969771D02*
X196000000Y-45922152D01*
X196000000Y-45922152D02*
X196095238Y-45922152D01*
X196809524Y-46541200D02*
X196714286Y-46588819D01*
X196714286Y-46588819D02*
X196523810Y-46588819D01*
X196523810Y-46588819D02*
X196428572Y-46541200D01*
X196428572Y-46541200D02*
X196380953Y-46445961D01*
X196380953Y-46445961D02*
X196380953Y-46065009D01*
X196380953Y-46065009D02*
X196428572Y-45969771D01*
X196428572Y-45969771D02*
X196523810Y-45922152D01*
X196523810Y-45922152D02*
X196714286Y-45922152D01*
X196714286Y-45922152D02*
X196809524Y-45969771D01*
X196809524Y-45969771D02*
X196857143Y-46065009D01*
X196857143Y-46065009D02*
X196857143Y-46160247D01*
X196857143Y-46160247D02*
X196380953Y-46255485D01*
X197714286Y-46588819D02*
X197714286Y-46065009D01*
X197714286Y-46065009D02*
X197666667Y-45969771D01*
X197666667Y-45969771D02*
X197571429Y-45922152D01*
X197571429Y-45922152D02*
X197380953Y-45922152D01*
X197380953Y-45922152D02*
X197285715Y-45969771D01*
X197714286Y-46541200D02*
X197619048Y-46588819D01*
X197619048Y-46588819D02*
X197380953Y-46588819D01*
X197380953Y-46588819D02*
X197285715Y-46541200D01*
X197285715Y-46541200D02*
X197238096Y-46445961D01*
X197238096Y-46445961D02*
X197238096Y-46350723D01*
X197238096Y-46350723D02*
X197285715Y-46255485D01*
X197285715Y-46255485D02*
X197380953Y-46207866D01*
X197380953Y-46207866D02*
X197619048Y-46207866D01*
X197619048Y-46207866D02*
X197714286Y-46160247D01*
X177474761Y-60214819D02*
X177141428Y-59738628D01*
X176903333Y-60214819D02*
X176903333Y-59214819D01*
X176903333Y-59214819D02*
X177284285Y-59214819D01*
X177284285Y-59214819D02*
X177379523Y-59262438D01*
X177379523Y-59262438D02*
X177427142Y-59310057D01*
X177427142Y-59310057D02*
X177474761Y-59405295D01*
X177474761Y-59405295D02*
X177474761Y-59548152D01*
X177474761Y-59548152D02*
X177427142Y-59643390D01*
X177427142Y-59643390D02*
X177379523Y-59691009D01*
X177379523Y-59691009D02*
X177284285Y-59738628D01*
X177284285Y-59738628D02*
X176903333Y-59738628D01*
X178427142Y-60214819D02*
X177855714Y-60214819D01*
X178141428Y-60214819D02*
X178141428Y-59214819D01*
X178141428Y-59214819D02*
X178046190Y-59357676D01*
X178046190Y-59357676D02*
X177950952Y-59452914D01*
X177950952Y-59452914D02*
X177855714Y-59500533D01*
X179046190Y-59214819D02*
X179141428Y-59214819D01*
X179141428Y-59214819D02*
X179236666Y-59262438D01*
X179236666Y-59262438D02*
X179284285Y-59310057D01*
X179284285Y-59310057D02*
X179331904Y-59405295D01*
X179331904Y-59405295D02*
X179379523Y-59595771D01*
X179379523Y-59595771D02*
X179379523Y-59833866D01*
X179379523Y-59833866D02*
X179331904Y-60024342D01*
X179331904Y-60024342D02*
X179284285Y-60119580D01*
X179284285Y-60119580D02*
X179236666Y-60167200D01*
X179236666Y-60167200D02*
X179141428Y-60214819D01*
X179141428Y-60214819D02*
X179046190Y-60214819D01*
X179046190Y-60214819D02*
X178950952Y-60167200D01*
X178950952Y-60167200D02*
X178903333Y-60119580D01*
X178903333Y-60119580D02*
X178855714Y-60024342D01*
X178855714Y-60024342D02*
X178808095Y-59833866D01*
X178808095Y-59833866D02*
X178808095Y-59595771D01*
X178808095Y-59595771D02*
X178855714Y-59405295D01*
X178855714Y-59405295D02*
X178903333Y-59310057D01*
X178903333Y-59310057D02*
X178950952Y-59262438D01*
X178950952Y-59262438D02*
X179046190Y-59214819D01*
X179998571Y-59214819D02*
X180093809Y-59214819D01*
X180093809Y-59214819D02*
X180189047Y-59262438D01*
X180189047Y-59262438D02*
X180236666Y-59310057D01*
X180236666Y-59310057D02*
X180284285Y-59405295D01*
X180284285Y-59405295D02*
X180331904Y-59595771D01*
X180331904Y-59595771D02*
X180331904Y-59833866D01*
X180331904Y-59833866D02*
X180284285Y-60024342D01*
X180284285Y-60024342D02*
X180236666Y-60119580D01*
X180236666Y-60119580D02*
X180189047Y-60167200D01*
X180189047Y-60167200D02*
X180093809Y-60214819D01*
X180093809Y-60214819D02*
X179998571Y-60214819D01*
X179998571Y-60214819D02*
X179903333Y-60167200D01*
X179903333Y-60167200D02*
X179855714Y-60119580D01*
X179855714Y-60119580D02*
X179808095Y-60024342D01*
X179808095Y-60024342D02*
X179760476Y-59833866D01*
X179760476Y-59833866D02*
X179760476Y-59595771D01*
X179760476Y-59595771D02*
X179808095Y-59405295D01*
X179808095Y-59405295D02*
X179855714Y-59310057D01*
X179855714Y-59310057D02*
X179903333Y-59262438D01*
X179903333Y-59262438D02*
X179998571Y-59214819D01*
X181189047Y-59214819D02*
X180998571Y-59214819D01*
X180998571Y-59214819D02*
X180903333Y-59262438D01*
X180903333Y-59262438D02*
X180855714Y-59310057D01*
X180855714Y-59310057D02*
X180760476Y-59452914D01*
X180760476Y-59452914D02*
X180712857Y-59643390D01*
X180712857Y-59643390D02*
X180712857Y-60024342D01*
X180712857Y-60024342D02*
X180760476Y-60119580D01*
X180760476Y-60119580D02*
X180808095Y-60167200D01*
X180808095Y-60167200D02*
X180903333Y-60214819D01*
X180903333Y-60214819D02*
X181093809Y-60214819D01*
X181093809Y-60214819D02*
X181189047Y-60167200D01*
X181189047Y-60167200D02*
X181236666Y-60119580D01*
X181236666Y-60119580D02*
X181284285Y-60024342D01*
X181284285Y-60024342D02*
X181284285Y-59786247D01*
X181284285Y-59786247D02*
X181236666Y-59691009D01*
X181236666Y-59691009D02*
X181189047Y-59643390D01*
X181189047Y-59643390D02*
X181093809Y-59595771D01*
X181093809Y-59595771D02*
X180903333Y-59595771D01*
X180903333Y-59595771D02*
X180808095Y-59643390D01*
X180808095Y-59643390D02*
X180760476Y-59691009D01*
X180760476Y-59691009D02*
X180712857Y-59786247D01*
X113454819Y-78761904D02*
X114169104Y-78761904D01*
X114169104Y-78761904D02*
X114311961Y-78809523D01*
X114311961Y-78809523D02*
X114407200Y-78904761D01*
X114407200Y-78904761D02*
X114454819Y-79047618D01*
X114454819Y-79047618D02*
X114454819Y-79142856D01*
X114454819Y-77761904D02*
X114454819Y-78333332D01*
X114454819Y-78047618D02*
X113454819Y-78047618D01*
X113454819Y-78047618D02*
X113597676Y-78142856D01*
X113597676Y-78142856D02*
X113692914Y-78238094D01*
X113692914Y-78238094D02*
X113740533Y-78333332D01*
X113454819Y-77142856D02*
X113454819Y-77047618D01*
X113454819Y-77047618D02*
X113502438Y-76952380D01*
X113502438Y-76952380D02*
X113550057Y-76904761D01*
X113550057Y-76904761D02*
X113645295Y-76857142D01*
X113645295Y-76857142D02*
X113835771Y-76809523D01*
X113835771Y-76809523D02*
X114073866Y-76809523D01*
X114073866Y-76809523D02*
X114264342Y-76857142D01*
X114264342Y-76857142D02*
X114359580Y-76904761D01*
X114359580Y-76904761D02*
X114407200Y-76952380D01*
X114407200Y-76952380D02*
X114454819Y-77047618D01*
X114454819Y-77047618D02*
X114454819Y-77142856D01*
X114454819Y-77142856D02*
X114407200Y-77238094D01*
X114407200Y-77238094D02*
X114359580Y-77285713D01*
X114359580Y-77285713D02*
X114264342Y-77333332D01*
X114264342Y-77333332D02*
X114073866Y-77380951D01*
X114073866Y-77380951D02*
X113835771Y-77380951D01*
X113835771Y-77380951D02*
X113645295Y-77333332D01*
X113645295Y-77333332D02*
X113550057Y-77285713D01*
X113550057Y-77285713D02*
X113502438Y-77238094D01*
X113502438Y-77238094D02*
X113454819Y-77142856D01*
X113454819Y-76190475D02*
X113454819Y-76095237D01*
X113454819Y-76095237D02*
X113502438Y-75999999D01*
X113502438Y-75999999D02*
X113550057Y-75952380D01*
X113550057Y-75952380D02*
X113645295Y-75904761D01*
X113645295Y-75904761D02*
X113835771Y-75857142D01*
X113835771Y-75857142D02*
X114073866Y-75857142D01*
X114073866Y-75857142D02*
X114264342Y-75904761D01*
X114264342Y-75904761D02*
X114359580Y-75952380D01*
X114359580Y-75952380D02*
X114407200Y-75999999D01*
X114407200Y-75999999D02*
X114454819Y-76095237D01*
X114454819Y-76095237D02*
X114454819Y-76190475D01*
X114454819Y-76190475D02*
X114407200Y-76285713D01*
X114407200Y-76285713D02*
X114359580Y-76333332D01*
X114359580Y-76333332D02*
X114264342Y-76380951D01*
X114264342Y-76380951D02*
X114073866Y-76428570D01*
X114073866Y-76428570D02*
X113835771Y-76428570D01*
X113835771Y-76428570D02*
X113645295Y-76380951D01*
X113645295Y-76380951D02*
X113550057Y-76333332D01*
X113550057Y-76333332D02*
X113502438Y-76285713D01*
X113502438Y-76285713D02*
X113454819Y-76190475D01*
X113454819Y-74952380D02*
X113454819Y-75428570D01*
X113454819Y-75428570D02*
X113931009Y-75476189D01*
X113931009Y-75476189D02*
X113883390Y-75428570D01*
X113883390Y-75428570D02*
X113835771Y-75333332D01*
X113835771Y-75333332D02*
X113835771Y-75095237D01*
X113835771Y-75095237D02*
X113883390Y-74999999D01*
X113883390Y-74999999D02*
X113931009Y-74952380D01*
X113931009Y-74952380D02*
X114026247Y-74904761D01*
X114026247Y-74904761D02*
X114264342Y-74904761D01*
X114264342Y-74904761D02*
X114359580Y-74952380D01*
X114359580Y-74952380D02*
X114407200Y-74999999D01*
X114407200Y-74999999D02*
X114454819Y-75095237D01*
X114454819Y-75095237D02*
X114454819Y-75333332D01*
X114454819Y-75333332D02*
X114407200Y-75428570D01*
X114407200Y-75428570D02*
X114359580Y-75476189D01*
X124166952Y-74622819D02*
X124166952Y-73622819D01*
X124643142Y-74622819D02*
X124643142Y-73622819D01*
X124643142Y-73622819D02*
X124881237Y-73622819D01*
X124881237Y-73622819D02*
X125024094Y-73670438D01*
X125024094Y-73670438D02*
X125119332Y-73765676D01*
X125119332Y-73765676D02*
X125166951Y-73860914D01*
X125166951Y-73860914D02*
X125214570Y-74051390D01*
X125214570Y-74051390D02*
X125214570Y-74194247D01*
X125214570Y-74194247D02*
X125166951Y-74384723D01*
X125166951Y-74384723D02*
X125119332Y-74479961D01*
X125119332Y-74479961D02*
X125024094Y-74575200D01*
X125024094Y-74575200D02*
X124881237Y-74622819D01*
X124881237Y-74622819D02*
X124643142Y-74622819D01*
X126214570Y-74527580D02*
X126166951Y-74575200D01*
X126166951Y-74575200D02*
X126024094Y-74622819D01*
X126024094Y-74622819D02*
X125928856Y-74622819D01*
X125928856Y-74622819D02*
X125785999Y-74575200D01*
X125785999Y-74575200D02*
X125690761Y-74479961D01*
X125690761Y-74479961D02*
X125643142Y-74384723D01*
X125643142Y-74384723D02*
X125595523Y-74194247D01*
X125595523Y-74194247D02*
X125595523Y-74051390D01*
X125595523Y-74051390D02*
X125643142Y-73860914D01*
X125643142Y-73860914D02*
X125690761Y-73765676D01*
X125690761Y-73765676D02*
X125785999Y-73670438D01*
X125785999Y-73670438D02*
X125928856Y-73622819D01*
X125928856Y-73622819D02*
X126024094Y-73622819D01*
X126024094Y-73622819D02*
X126166951Y-73670438D01*
X126166951Y-73670438D02*
X126214570Y-73718057D01*
X127166951Y-74622819D02*
X126595523Y-74622819D01*
X126881237Y-74622819D02*
X126881237Y-73622819D01*
X126881237Y-73622819D02*
X126785999Y-73765676D01*
X126785999Y-73765676D02*
X126690761Y-73860914D01*
X126690761Y-73860914D02*
X126595523Y-73908533D01*
X128024094Y-73622819D02*
X127833618Y-73622819D01*
X127833618Y-73622819D02*
X127738380Y-73670438D01*
X127738380Y-73670438D02*
X127690761Y-73718057D01*
X127690761Y-73718057D02*
X127595523Y-73860914D01*
X127595523Y-73860914D02*
X127547904Y-74051390D01*
X127547904Y-74051390D02*
X127547904Y-74432342D01*
X127547904Y-74432342D02*
X127595523Y-74527580D01*
X127595523Y-74527580D02*
X127643142Y-74575200D01*
X127643142Y-74575200D02*
X127738380Y-74622819D01*
X127738380Y-74622819D02*
X127928856Y-74622819D01*
X127928856Y-74622819D02*
X128024094Y-74575200D01*
X128024094Y-74575200D02*
X128071713Y-74527580D01*
X128071713Y-74527580D02*
X128119332Y-74432342D01*
X128119332Y-74432342D02*
X128119332Y-74194247D01*
X128119332Y-74194247D02*
X128071713Y-74099009D01*
X128071713Y-74099009D02*
X128024094Y-74051390D01*
X128024094Y-74051390D02*
X127928856Y-74003771D01*
X127928856Y-74003771D02*
X127738380Y-74003771D01*
X127738380Y-74003771D02*
X127643142Y-74051390D01*
X127643142Y-74051390D02*
X127595523Y-74099009D01*
X127595523Y-74099009D02*
X127547904Y-74194247D01*
X128309809Y-74718057D02*
X129071713Y-74718057D01*
X129166952Y-73622819D02*
X129500285Y-74622819D01*
X129500285Y-74622819D02*
X129833618Y-73622819D01*
X130690761Y-73670438D02*
X130595523Y-73622819D01*
X130595523Y-73622819D02*
X130452666Y-73622819D01*
X130452666Y-73622819D02*
X130309809Y-73670438D01*
X130309809Y-73670438D02*
X130214571Y-73765676D01*
X130214571Y-73765676D02*
X130166952Y-73860914D01*
X130166952Y-73860914D02*
X130119333Y-74051390D01*
X130119333Y-74051390D02*
X130119333Y-74194247D01*
X130119333Y-74194247D02*
X130166952Y-74384723D01*
X130166952Y-74384723D02*
X130214571Y-74479961D01*
X130214571Y-74479961D02*
X130309809Y-74575200D01*
X130309809Y-74575200D02*
X130452666Y-74622819D01*
X130452666Y-74622819D02*
X130547904Y-74622819D01*
X130547904Y-74622819D02*
X130690761Y-74575200D01*
X130690761Y-74575200D02*
X130738380Y-74527580D01*
X130738380Y-74527580D02*
X130738380Y-74194247D01*
X130738380Y-74194247D02*
X130547904Y-74194247D01*
X131119333Y-74337104D02*
X131595523Y-74337104D01*
X131024095Y-74622819D02*
X131357428Y-73622819D01*
X131357428Y-73622819D02*
X131690761Y-74622819D01*
X132214571Y-73622819D02*
X132405047Y-73622819D01*
X132405047Y-73622819D02*
X132500285Y-73670438D01*
X132500285Y-73670438D02*
X132595523Y-73765676D01*
X132595523Y-73765676D02*
X132643142Y-73956152D01*
X132643142Y-73956152D02*
X132643142Y-74289485D01*
X132643142Y-74289485D02*
X132595523Y-74479961D01*
X132595523Y-74479961D02*
X132500285Y-74575200D01*
X132500285Y-74575200D02*
X132405047Y-74622819D01*
X132405047Y-74622819D02*
X132214571Y-74622819D01*
X132214571Y-74622819D02*
X132119333Y-74575200D01*
X132119333Y-74575200D02*
X132024095Y-74479961D01*
X132024095Y-74479961D02*
X131976476Y-74289485D01*
X131976476Y-74289485D02*
X131976476Y-73956152D01*
X131976476Y-73956152D02*
X132024095Y-73765676D01*
X132024095Y-73765676D02*
X132119333Y-73670438D01*
X132119333Y-73670438D02*
X132214571Y-73622819D01*
X133071714Y-73622819D02*
X133071714Y-74432342D01*
X133071714Y-74432342D02*
X133119333Y-74527580D01*
X133119333Y-74527580D02*
X133166952Y-74575200D01*
X133166952Y-74575200D02*
X133262190Y-74622819D01*
X133262190Y-74622819D02*
X133452666Y-74622819D01*
X133452666Y-74622819D02*
X133547904Y-74575200D01*
X133547904Y-74575200D02*
X133595523Y-74527580D01*
X133595523Y-74527580D02*
X133643142Y-74432342D01*
X133643142Y-74432342D02*
X133643142Y-73622819D01*
X133976476Y-73622819D02*
X134547904Y-73622819D01*
X134262190Y-74622819D02*
X134262190Y-73622819D01*
X177474761Y-56714819D02*
X177141428Y-56238628D01*
X176903333Y-56714819D02*
X176903333Y-55714819D01*
X176903333Y-55714819D02*
X177284285Y-55714819D01*
X177284285Y-55714819D02*
X177379523Y-55762438D01*
X177379523Y-55762438D02*
X177427142Y-55810057D01*
X177427142Y-55810057D02*
X177474761Y-55905295D01*
X177474761Y-55905295D02*
X177474761Y-56048152D01*
X177474761Y-56048152D02*
X177427142Y-56143390D01*
X177427142Y-56143390D02*
X177379523Y-56191009D01*
X177379523Y-56191009D02*
X177284285Y-56238628D01*
X177284285Y-56238628D02*
X176903333Y-56238628D01*
X178427142Y-56714819D02*
X177855714Y-56714819D01*
X178141428Y-56714819D02*
X178141428Y-55714819D01*
X178141428Y-55714819D02*
X178046190Y-55857676D01*
X178046190Y-55857676D02*
X177950952Y-55952914D01*
X177950952Y-55952914D02*
X177855714Y-56000533D01*
X179046190Y-55714819D02*
X179141428Y-55714819D01*
X179141428Y-55714819D02*
X179236666Y-55762438D01*
X179236666Y-55762438D02*
X179284285Y-55810057D01*
X179284285Y-55810057D02*
X179331904Y-55905295D01*
X179331904Y-55905295D02*
X179379523Y-56095771D01*
X179379523Y-56095771D02*
X179379523Y-56333866D01*
X179379523Y-56333866D02*
X179331904Y-56524342D01*
X179331904Y-56524342D02*
X179284285Y-56619580D01*
X179284285Y-56619580D02*
X179236666Y-56667200D01*
X179236666Y-56667200D02*
X179141428Y-56714819D01*
X179141428Y-56714819D02*
X179046190Y-56714819D01*
X179046190Y-56714819D02*
X178950952Y-56667200D01*
X178950952Y-56667200D02*
X178903333Y-56619580D01*
X178903333Y-56619580D02*
X178855714Y-56524342D01*
X178855714Y-56524342D02*
X178808095Y-56333866D01*
X178808095Y-56333866D02*
X178808095Y-56095771D01*
X178808095Y-56095771D02*
X178855714Y-55905295D01*
X178855714Y-55905295D02*
X178903333Y-55810057D01*
X178903333Y-55810057D02*
X178950952Y-55762438D01*
X178950952Y-55762438D02*
X179046190Y-55714819D01*
X179998571Y-55714819D02*
X180093809Y-55714819D01*
X180093809Y-55714819D02*
X180189047Y-55762438D01*
X180189047Y-55762438D02*
X180236666Y-55810057D01*
X180236666Y-55810057D02*
X180284285Y-55905295D01*
X180284285Y-55905295D02*
X180331904Y-56095771D01*
X180331904Y-56095771D02*
X180331904Y-56333866D01*
X180331904Y-56333866D02*
X180284285Y-56524342D01*
X180284285Y-56524342D02*
X180236666Y-56619580D01*
X180236666Y-56619580D02*
X180189047Y-56667200D01*
X180189047Y-56667200D02*
X180093809Y-56714819D01*
X180093809Y-56714819D02*
X179998571Y-56714819D01*
X179998571Y-56714819D02*
X179903333Y-56667200D01*
X179903333Y-56667200D02*
X179855714Y-56619580D01*
X179855714Y-56619580D02*
X179808095Y-56524342D01*
X179808095Y-56524342D02*
X179760476Y-56333866D01*
X179760476Y-56333866D02*
X179760476Y-56095771D01*
X179760476Y-56095771D02*
X179808095Y-55905295D01*
X179808095Y-55905295D02*
X179855714Y-55810057D01*
X179855714Y-55810057D02*
X179903333Y-55762438D01*
X179903333Y-55762438D02*
X179998571Y-55714819D01*
X181189047Y-56048152D02*
X181189047Y-56714819D01*
X180950952Y-55667200D02*
X180712857Y-56381485D01*
X180712857Y-56381485D02*
X181331904Y-56381485D01*
X178855714Y-53414819D02*
X178284286Y-53414819D01*
X178570000Y-53414819D02*
X178570000Y-52414819D01*
X178570000Y-52414819D02*
X178474762Y-52557676D01*
X178474762Y-52557676D02*
X178379524Y-52652914D01*
X178379524Y-52652914D02*
X178284286Y-52700533D01*
X179284286Y-53414819D02*
X179284286Y-52414819D01*
X179855714Y-53414819D02*
X179427143Y-52843390D01*
X179855714Y-52414819D02*
X179284286Y-52986247D01*
X170870761Y-76146819D02*
X170537428Y-75670628D01*
X170299333Y-76146819D02*
X170299333Y-75146819D01*
X170299333Y-75146819D02*
X170680285Y-75146819D01*
X170680285Y-75146819D02*
X170775523Y-75194438D01*
X170775523Y-75194438D02*
X170823142Y-75242057D01*
X170823142Y-75242057D02*
X170870761Y-75337295D01*
X170870761Y-75337295D02*
X170870761Y-75480152D01*
X170870761Y-75480152D02*
X170823142Y-75575390D01*
X170823142Y-75575390D02*
X170775523Y-75623009D01*
X170775523Y-75623009D02*
X170680285Y-75670628D01*
X170680285Y-75670628D02*
X170299333Y-75670628D01*
X171823142Y-76146819D02*
X171251714Y-76146819D01*
X171537428Y-76146819D02*
X171537428Y-75146819D01*
X171537428Y-75146819D02*
X171442190Y-75289676D01*
X171442190Y-75289676D02*
X171346952Y-75384914D01*
X171346952Y-75384914D02*
X171251714Y-75432533D01*
X172442190Y-75146819D02*
X172537428Y-75146819D01*
X172537428Y-75146819D02*
X172632666Y-75194438D01*
X172632666Y-75194438D02*
X172680285Y-75242057D01*
X172680285Y-75242057D02*
X172727904Y-75337295D01*
X172727904Y-75337295D02*
X172775523Y-75527771D01*
X172775523Y-75527771D02*
X172775523Y-75765866D01*
X172775523Y-75765866D02*
X172727904Y-75956342D01*
X172727904Y-75956342D02*
X172680285Y-76051580D01*
X172680285Y-76051580D02*
X172632666Y-76099200D01*
X172632666Y-76099200D02*
X172537428Y-76146819D01*
X172537428Y-76146819D02*
X172442190Y-76146819D01*
X172442190Y-76146819D02*
X172346952Y-76099200D01*
X172346952Y-76099200D02*
X172299333Y-76051580D01*
X172299333Y-76051580D02*
X172251714Y-75956342D01*
X172251714Y-75956342D02*
X172204095Y-75765866D01*
X172204095Y-75765866D02*
X172204095Y-75527771D01*
X172204095Y-75527771D02*
X172251714Y-75337295D01*
X172251714Y-75337295D02*
X172299333Y-75242057D01*
X172299333Y-75242057D02*
X172346952Y-75194438D01*
X172346952Y-75194438D02*
X172442190Y-75146819D01*
X173394571Y-75146819D02*
X173489809Y-75146819D01*
X173489809Y-75146819D02*
X173585047Y-75194438D01*
X173585047Y-75194438D02*
X173632666Y-75242057D01*
X173632666Y-75242057D02*
X173680285Y-75337295D01*
X173680285Y-75337295D02*
X173727904Y-75527771D01*
X173727904Y-75527771D02*
X173727904Y-75765866D01*
X173727904Y-75765866D02*
X173680285Y-75956342D01*
X173680285Y-75956342D02*
X173632666Y-76051580D01*
X173632666Y-76051580D02*
X173585047Y-76099200D01*
X173585047Y-76099200D02*
X173489809Y-76146819D01*
X173489809Y-76146819D02*
X173394571Y-76146819D01*
X173394571Y-76146819D02*
X173299333Y-76099200D01*
X173299333Y-76099200D02*
X173251714Y-76051580D01*
X173251714Y-76051580D02*
X173204095Y-75956342D01*
X173204095Y-75956342D02*
X173156476Y-75765866D01*
X173156476Y-75765866D02*
X173156476Y-75527771D01*
X173156476Y-75527771D02*
X173204095Y-75337295D01*
X173204095Y-75337295D02*
X173251714Y-75242057D01*
X173251714Y-75242057D02*
X173299333Y-75194438D01*
X173299333Y-75194438D02*
X173394571Y-75146819D01*
X174061238Y-75146819D02*
X174680285Y-75146819D01*
X174680285Y-75146819D02*
X174346952Y-75527771D01*
X174346952Y-75527771D02*
X174489809Y-75527771D01*
X174489809Y-75527771D02*
X174585047Y-75575390D01*
X174585047Y-75575390D02*
X174632666Y-75623009D01*
X174632666Y-75623009D02*
X174680285Y-75718247D01*
X174680285Y-75718247D02*
X174680285Y-75956342D01*
X174680285Y-75956342D02*
X174632666Y-76051580D01*
X174632666Y-76051580D02*
X174585047Y-76099200D01*
X174585047Y-76099200D02*
X174489809Y-76146819D01*
X174489809Y-76146819D02*
X174204095Y-76146819D01*
X174204095Y-76146819D02*
X174108857Y-76099200D01*
X174108857Y-76099200D02*
X174061238Y-76051580D01*
X170904761Y-84604819D02*
X170571428Y-84128628D01*
X170333333Y-84604819D02*
X170333333Y-83604819D01*
X170333333Y-83604819D02*
X170714285Y-83604819D01*
X170714285Y-83604819D02*
X170809523Y-83652438D01*
X170809523Y-83652438D02*
X170857142Y-83700057D01*
X170857142Y-83700057D02*
X170904761Y-83795295D01*
X170904761Y-83795295D02*
X170904761Y-83938152D01*
X170904761Y-83938152D02*
X170857142Y-84033390D01*
X170857142Y-84033390D02*
X170809523Y-84081009D01*
X170809523Y-84081009D02*
X170714285Y-84128628D01*
X170714285Y-84128628D02*
X170333333Y-84128628D01*
X171857142Y-84604819D02*
X171285714Y-84604819D01*
X171571428Y-84604819D02*
X171571428Y-83604819D01*
X171571428Y-83604819D02*
X171476190Y-83747676D01*
X171476190Y-83747676D02*
X171380952Y-83842914D01*
X171380952Y-83842914D02*
X171285714Y-83890533D01*
X172476190Y-83604819D02*
X172571428Y-83604819D01*
X172571428Y-83604819D02*
X172666666Y-83652438D01*
X172666666Y-83652438D02*
X172714285Y-83700057D01*
X172714285Y-83700057D02*
X172761904Y-83795295D01*
X172761904Y-83795295D02*
X172809523Y-83985771D01*
X172809523Y-83985771D02*
X172809523Y-84223866D01*
X172809523Y-84223866D02*
X172761904Y-84414342D01*
X172761904Y-84414342D02*
X172714285Y-84509580D01*
X172714285Y-84509580D02*
X172666666Y-84557200D01*
X172666666Y-84557200D02*
X172571428Y-84604819D01*
X172571428Y-84604819D02*
X172476190Y-84604819D01*
X172476190Y-84604819D02*
X172380952Y-84557200D01*
X172380952Y-84557200D02*
X172333333Y-84509580D01*
X172333333Y-84509580D02*
X172285714Y-84414342D01*
X172285714Y-84414342D02*
X172238095Y-84223866D01*
X172238095Y-84223866D02*
X172238095Y-83985771D01*
X172238095Y-83985771D02*
X172285714Y-83795295D01*
X172285714Y-83795295D02*
X172333333Y-83700057D01*
X172333333Y-83700057D02*
X172380952Y-83652438D01*
X172380952Y-83652438D02*
X172476190Y-83604819D01*
X173428571Y-83604819D02*
X173523809Y-83604819D01*
X173523809Y-83604819D02*
X173619047Y-83652438D01*
X173619047Y-83652438D02*
X173666666Y-83700057D01*
X173666666Y-83700057D02*
X173714285Y-83795295D01*
X173714285Y-83795295D02*
X173761904Y-83985771D01*
X173761904Y-83985771D02*
X173761904Y-84223866D01*
X173761904Y-84223866D02*
X173714285Y-84414342D01*
X173714285Y-84414342D02*
X173666666Y-84509580D01*
X173666666Y-84509580D02*
X173619047Y-84557200D01*
X173619047Y-84557200D02*
X173523809Y-84604819D01*
X173523809Y-84604819D02*
X173428571Y-84604819D01*
X173428571Y-84604819D02*
X173333333Y-84557200D01*
X173333333Y-84557200D02*
X173285714Y-84509580D01*
X173285714Y-84509580D02*
X173238095Y-84414342D01*
X173238095Y-84414342D02*
X173190476Y-84223866D01*
X173190476Y-84223866D02*
X173190476Y-83985771D01*
X173190476Y-83985771D02*
X173238095Y-83795295D01*
X173238095Y-83795295D02*
X173285714Y-83700057D01*
X173285714Y-83700057D02*
X173333333Y-83652438D01*
X173333333Y-83652438D02*
X173428571Y-83604819D01*
X174142857Y-83700057D02*
X174190476Y-83652438D01*
X174190476Y-83652438D02*
X174285714Y-83604819D01*
X174285714Y-83604819D02*
X174523809Y-83604819D01*
X174523809Y-83604819D02*
X174619047Y-83652438D01*
X174619047Y-83652438D02*
X174666666Y-83700057D01*
X174666666Y-83700057D02*
X174714285Y-83795295D01*
X174714285Y-83795295D02*
X174714285Y-83890533D01*
X174714285Y-83890533D02*
X174666666Y-84033390D01*
X174666666Y-84033390D02*
X174095238Y-84604819D01*
X174095238Y-84604819D02*
X174714285Y-84604819D01*
X171214286Y-84954819D02*
X171833333Y-84954819D01*
X171833333Y-84954819D02*
X171500000Y-85335771D01*
X171500000Y-85335771D02*
X171642857Y-85335771D01*
X171642857Y-85335771D02*
X171738095Y-85383390D01*
X171738095Y-85383390D02*
X171785714Y-85431009D01*
X171785714Y-85431009D02*
X171833333Y-85526247D01*
X171833333Y-85526247D02*
X171833333Y-85764342D01*
X171833333Y-85764342D02*
X171785714Y-85859580D01*
X171785714Y-85859580D02*
X171738095Y-85907200D01*
X171738095Y-85907200D02*
X171642857Y-85954819D01*
X171642857Y-85954819D02*
X171357143Y-85954819D01*
X171357143Y-85954819D02*
X171261905Y-85907200D01*
X171261905Y-85907200D02*
X171214286Y-85859580D01*
X172166667Y-84954819D02*
X172785714Y-84954819D01*
X172785714Y-84954819D02*
X172452381Y-85335771D01*
X172452381Y-85335771D02*
X172595238Y-85335771D01*
X172595238Y-85335771D02*
X172690476Y-85383390D01*
X172690476Y-85383390D02*
X172738095Y-85431009D01*
X172738095Y-85431009D02*
X172785714Y-85526247D01*
X172785714Y-85526247D02*
X172785714Y-85764342D01*
X172785714Y-85764342D02*
X172738095Y-85859580D01*
X172738095Y-85859580D02*
X172690476Y-85907200D01*
X172690476Y-85907200D02*
X172595238Y-85954819D01*
X172595238Y-85954819D02*
X172309524Y-85954819D01*
X172309524Y-85954819D02*
X172214286Y-85907200D01*
X172214286Y-85907200D02*
X172166667Y-85859580D01*
X173404762Y-84954819D02*
X173500000Y-84954819D01*
X173500000Y-84954819D02*
X173595238Y-85002438D01*
X173595238Y-85002438D02*
X173642857Y-85050057D01*
X173642857Y-85050057D02*
X173690476Y-85145295D01*
X173690476Y-85145295D02*
X173738095Y-85335771D01*
X173738095Y-85335771D02*
X173738095Y-85573866D01*
X173738095Y-85573866D02*
X173690476Y-85764342D01*
X173690476Y-85764342D02*
X173642857Y-85859580D01*
X173642857Y-85859580D02*
X173595238Y-85907200D01*
X173595238Y-85907200D02*
X173500000Y-85954819D01*
X173500000Y-85954819D02*
X173404762Y-85954819D01*
X173404762Y-85954819D02*
X173309524Y-85907200D01*
X173309524Y-85907200D02*
X173261905Y-85859580D01*
X173261905Y-85859580D02*
X173214286Y-85764342D01*
X173214286Y-85764342D02*
X173166667Y-85573866D01*
X173166667Y-85573866D02*
X173166667Y-85335771D01*
X173166667Y-85335771D02*
X173214286Y-85145295D01*
X173214286Y-85145295D02*
X173261905Y-85050057D01*
X173261905Y-85050057D02*
X173309524Y-85002438D01*
X173309524Y-85002438D02*
X173404762Y-84954819D01*
X137684095Y-63462819D02*
X137684095Y-64177104D01*
X137684095Y-64177104D02*
X137636476Y-64319961D01*
X137636476Y-64319961D02*
X137541238Y-64415200D01*
X137541238Y-64415200D02*
X137398381Y-64462819D01*
X137398381Y-64462819D02*
X137303143Y-64462819D01*
X138684095Y-64462819D02*
X138112667Y-64462819D01*
X138398381Y-64462819D02*
X138398381Y-63462819D01*
X138398381Y-63462819D02*
X138303143Y-63605676D01*
X138303143Y-63605676D02*
X138207905Y-63700914D01*
X138207905Y-63700914D02*
X138112667Y-63748533D01*
X139303143Y-63462819D02*
X139398381Y-63462819D01*
X139398381Y-63462819D02*
X139493619Y-63510438D01*
X139493619Y-63510438D02*
X139541238Y-63558057D01*
X139541238Y-63558057D02*
X139588857Y-63653295D01*
X139588857Y-63653295D02*
X139636476Y-63843771D01*
X139636476Y-63843771D02*
X139636476Y-64081866D01*
X139636476Y-64081866D02*
X139588857Y-64272342D01*
X139588857Y-64272342D02*
X139541238Y-64367580D01*
X139541238Y-64367580D02*
X139493619Y-64415200D01*
X139493619Y-64415200D02*
X139398381Y-64462819D01*
X139398381Y-64462819D02*
X139303143Y-64462819D01*
X139303143Y-64462819D02*
X139207905Y-64415200D01*
X139207905Y-64415200D02*
X139160286Y-64367580D01*
X139160286Y-64367580D02*
X139112667Y-64272342D01*
X139112667Y-64272342D02*
X139065048Y-64081866D01*
X139065048Y-64081866D02*
X139065048Y-63843771D01*
X139065048Y-63843771D02*
X139112667Y-63653295D01*
X139112667Y-63653295D02*
X139160286Y-63558057D01*
X139160286Y-63558057D02*
X139207905Y-63510438D01*
X139207905Y-63510438D02*
X139303143Y-63462819D01*
X140255524Y-63462819D02*
X140350762Y-63462819D01*
X140350762Y-63462819D02*
X140446000Y-63510438D01*
X140446000Y-63510438D02*
X140493619Y-63558057D01*
X140493619Y-63558057D02*
X140541238Y-63653295D01*
X140541238Y-63653295D02*
X140588857Y-63843771D01*
X140588857Y-63843771D02*
X140588857Y-64081866D01*
X140588857Y-64081866D02*
X140541238Y-64272342D01*
X140541238Y-64272342D02*
X140493619Y-64367580D01*
X140493619Y-64367580D02*
X140446000Y-64415200D01*
X140446000Y-64415200D02*
X140350762Y-64462819D01*
X140350762Y-64462819D02*
X140255524Y-64462819D01*
X140255524Y-64462819D02*
X140160286Y-64415200D01*
X140160286Y-64415200D02*
X140112667Y-64367580D01*
X140112667Y-64367580D02*
X140065048Y-64272342D01*
X140065048Y-64272342D02*
X140017429Y-64081866D01*
X140017429Y-64081866D02*
X140017429Y-63843771D01*
X140017429Y-63843771D02*
X140065048Y-63653295D01*
X140065048Y-63653295D02*
X140112667Y-63558057D01*
X140112667Y-63558057D02*
X140160286Y-63510438D01*
X140160286Y-63510438D02*
X140255524Y-63462819D01*
X140969810Y-63558057D02*
X141017429Y-63510438D01*
X141017429Y-63510438D02*
X141112667Y-63462819D01*
X141112667Y-63462819D02*
X141350762Y-63462819D01*
X141350762Y-63462819D02*
X141446000Y-63510438D01*
X141446000Y-63510438D02*
X141493619Y-63558057D01*
X141493619Y-63558057D02*
X141541238Y-63653295D01*
X141541238Y-63653295D02*
X141541238Y-63748533D01*
X141541238Y-63748533D02*
X141493619Y-63891390D01*
X141493619Y-63891390D02*
X140922191Y-64462819D01*
X140922191Y-64462819D02*
X141541238Y-64462819D01*
X118975524Y-65748819D02*
X119308857Y-66748819D01*
X119308857Y-66748819D02*
X119642190Y-65748819D01*
X120499333Y-65796438D02*
X120404095Y-65748819D01*
X120404095Y-65748819D02*
X120261238Y-65748819D01*
X120261238Y-65748819D02*
X120118381Y-65796438D01*
X120118381Y-65796438D02*
X120023143Y-65891676D01*
X120023143Y-65891676D02*
X119975524Y-65986914D01*
X119975524Y-65986914D02*
X119927905Y-66177390D01*
X119927905Y-66177390D02*
X119927905Y-66320247D01*
X119927905Y-66320247D02*
X119975524Y-66510723D01*
X119975524Y-66510723D02*
X120023143Y-66605961D01*
X120023143Y-66605961D02*
X120118381Y-66701200D01*
X120118381Y-66701200D02*
X120261238Y-66748819D01*
X120261238Y-66748819D02*
X120356476Y-66748819D01*
X120356476Y-66748819D02*
X120499333Y-66701200D01*
X120499333Y-66701200D02*
X120546952Y-66653580D01*
X120546952Y-66653580D02*
X120546952Y-66320247D01*
X120546952Y-66320247D02*
X120356476Y-66320247D01*
X120927905Y-66463104D02*
X121404095Y-66463104D01*
X120832667Y-66748819D02*
X121166000Y-65748819D01*
X121166000Y-65748819D02*
X121499333Y-66748819D01*
X122023143Y-65748819D02*
X122213619Y-65748819D01*
X122213619Y-65748819D02*
X122308857Y-65796438D01*
X122308857Y-65796438D02*
X122404095Y-65891676D01*
X122404095Y-65891676D02*
X122451714Y-66082152D01*
X122451714Y-66082152D02*
X122451714Y-66415485D01*
X122451714Y-66415485D02*
X122404095Y-66605961D01*
X122404095Y-66605961D02*
X122308857Y-66701200D01*
X122308857Y-66701200D02*
X122213619Y-66748819D01*
X122213619Y-66748819D02*
X122023143Y-66748819D01*
X122023143Y-66748819D02*
X121927905Y-66701200D01*
X121927905Y-66701200D02*
X121832667Y-66605961D01*
X121832667Y-66605961D02*
X121785048Y-66415485D01*
X121785048Y-66415485D02*
X121785048Y-66082152D01*
X121785048Y-66082152D02*
X121832667Y-65891676D01*
X121832667Y-65891676D02*
X121927905Y-65796438D01*
X121927905Y-65796438D02*
X122023143Y-65748819D01*
X122880286Y-65748819D02*
X122880286Y-66558342D01*
X122880286Y-66558342D02*
X122927905Y-66653580D01*
X122927905Y-66653580D02*
X122975524Y-66701200D01*
X122975524Y-66701200D02*
X123070762Y-66748819D01*
X123070762Y-66748819D02*
X123261238Y-66748819D01*
X123261238Y-66748819D02*
X123356476Y-66701200D01*
X123356476Y-66701200D02*
X123404095Y-66653580D01*
X123404095Y-66653580D02*
X123451714Y-66558342D01*
X123451714Y-66558342D02*
X123451714Y-65748819D01*
X123785048Y-65748819D02*
X124356476Y-65748819D01*
X124070762Y-66748819D02*
X124070762Y-65748819D01*
X162604666Y-74022295D02*
X162604666Y-73222295D01*
X162604666Y-73222295D02*
X162795142Y-73222295D01*
X162795142Y-73222295D02*
X162909428Y-73260390D01*
X162909428Y-73260390D02*
X162985618Y-73336580D01*
X162985618Y-73336580D02*
X163023713Y-73412771D01*
X163023713Y-73412771D02*
X163061809Y-73565152D01*
X163061809Y-73565152D02*
X163061809Y-73679438D01*
X163061809Y-73679438D02*
X163023713Y-73831819D01*
X163023713Y-73831819D02*
X162985618Y-73908009D01*
X162985618Y-73908009D02*
X162909428Y-73984200D01*
X162909428Y-73984200D02*
X162795142Y-74022295D01*
X162795142Y-74022295D02*
X162604666Y-74022295D01*
X163823713Y-74022295D02*
X163366570Y-74022295D01*
X163595142Y-74022295D02*
X163595142Y-73222295D01*
X163595142Y-73222295D02*
X163518951Y-73336580D01*
X163518951Y-73336580D02*
X163442761Y-73412771D01*
X163442761Y-73412771D02*
X163366570Y-73450866D01*
X164318952Y-73222295D02*
X164395142Y-73222295D01*
X164395142Y-73222295D02*
X164471333Y-73260390D01*
X164471333Y-73260390D02*
X164509428Y-73298485D01*
X164509428Y-73298485D02*
X164547523Y-73374676D01*
X164547523Y-73374676D02*
X164585618Y-73527057D01*
X164585618Y-73527057D02*
X164585618Y-73717533D01*
X164585618Y-73717533D02*
X164547523Y-73869914D01*
X164547523Y-73869914D02*
X164509428Y-73946104D01*
X164509428Y-73946104D02*
X164471333Y-73984200D01*
X164471333Y-73984200D02*
X164395142Y-74022295D01*
X164395142Y-74022295D02*
X164318952Y-74022295D01*
X164318952Y-74022295D02*
X164242761Y-73984200D01*
X164242761Y-73984200D02*
X164204666Y-73946104D01*
X164204666Y-73946104D02*
X164166571Y-73869914D01*
X164166571Y-73869914D02*
X164128475Y-73717533D01*
X164128475Y-73717533D02*
X164128475Y-73527057D01*
X164128475Y-73527057D02*
X164166571Y-73374676D01*
X164166571Y-73374676D02*
X164204666Y-73298485D01*
X164204666Y-73298485D02*
X164242761Y-73260390D01*
X164242761Y-73260390D02*
X164318952Y-73222295D01*
X165080857Y-73222295D02*
X165157047Y-73222295D01*
X165157047Y-73222295D02*
X165233238Y-73260390D01*
X165233238Y-73260390D02*
X165271333Y-73298485D01*
X165271333Y-73298485D02*
X165309428Y-73374676D01*
X165309428Y-73374676D02*
X165347523Y-73527057D01*
X165347523Y-73527057D02*
X165347523Y-73717533D01*
X165347523Y-73717533D02*
X165309428Y-73869914D01*
X165309428Y-73869914D02*
X165271333Y-73946104D01*
X165271333Y-73946104D02*
X165233238Y-73984200D01*
X165233238Y-73984200D02*
X165157047Y-74022295D01*
X165157047Y-74022295D02*
X165080857Y-74022295D01*
X165080857Y-74022295D02*
X165004666Y-73984200D01*
X165004666Y-73984200D02*
X164966571Y-73946104D01*
X164966571Y-73946104D02*
X164928476Y-73869914D01*
X164928476Y-73869914D02*
X164890380Y-73717533D01*
X164890380Y-73717533D02*
X164890380Y-73527057D01*
X164890380Y-73527057D02*
X164928476Y-73374676D01*
X164928476Y-73374676D02*
X164966571Y-73298485D01*
X164966571Y-73298485D02*
X165004666Y-73260390D01*
X165004666Y-73260390D02*
X165080857Y-73222295D01*
X166109428Y-74022295D02*
X165652285Y-74022295D01*
X165880857Y-74022295D02*
X165880857Y-73222295D01*
X165880857Y-73222295D02*
X165804666Y-73336580D01*
X165804666Y-73336580D02*
X165728476Y-73412771D01*
X165728476Y-73412771D02*
X165652285Y-73450866D01*
X151076819Y-73008857D02*
X151076819Y-73580285D01*
X151076819Y-73294571D02*
X150076819Y-73294571D01*
X150076819Y-73294571D02*
X150219676Y-73389809D01*
X150219676Y-73389809D02*
X150314914Y-73485047D01*
X150314914Y-73485047D02*
X150362533Y-73580285D01*
X151076819Y-72580285D02*
X150076819Y-72580285D01*
X150076819Y-72580285D02*
X151076819Y-72008857D01*
X151076819Y-72008857D02*
X150076819Y-72008857D01*
X150076819Y-71056476D02*
X150076819Y-71532666D01*
X150076819Y-71532666D02*
X150553009Y-71580285D01*
X150553009Y-71580285D02*
X150505390Y-71532666D01*
X150505390Y-71532666D02*
X150457771Y-71437428D01*
X150457771Y-71437428D02*
X150457771Y-71199333D01*
X150457771Y-71199333D02*
X150505390Y-71104095D01*
X150505390Y-71104095D02*
X150553009Y-71056476D01*
X150553009Y-71056476D02*
X150648247Y-71008857D01*
X150648247Y-71008857D02*
X150886342Y-71008857D01*
X150886342Y-71008857D02*
X150981580Y-71056476D01*
X150981580Y-71056476D02*
X151029200Y-71104095D01*
X151029200Y-71104095D02*
X151076819Y-71199333D01*
X151076819Y-71199333D02*
X151076819Y-71437428D01*
X151076819Y-71437428D02*
X151029200Y-71532666D01*
X151029200Y-71532666D02*
X150981580Y-71580285D01*
X150505390Y-70437428D02*
X150457771Y-70532666D01*
X150457771Y-70532666D02*
X150410152Y-70580285D01*
X150410152Y-70580285D02*
X150314914Y-70627904D01*
X150314914Y-70627904D02*
X150267295Y-70627904D01*
X150267295Y-70627904D02*
X150172057Y-70580285D01*
X150172057Y-70580285D02*
X150124438Y-70532666D01*
X150124438Y-70532666D02*
X150076819Y-70437428D01*
X150076819Y-70437428D02*
X150076819Y-70246952D01*
X150076819Y-70246952D02*
X150124438Y-70151714D01*
X150124438Y-70151714D02*
X150172057Y-70104095D01*
X150172057Y-70104095D02*
X150267295Y-70056476D01*
X150267295Y-70056476D02*
X150314914Y-70056476D01*
X150314914Y-70056476D02*
X150410152Y-70104095D01*
X150410152Y-70104095D02*
X150457771Y-70151714D01*
X150457771Y-70151714D02*
X150505390Y-70246952D01*
X150505390Y-70246952D02*
X150505390Y-70437428D01*
X150505390Y-70437428D02*
X150553009Y-70532666D01*
X150553009Y-70532666D02*
X150600628Y-70580285D01*
X150600628Y-70580285D02*
X150695866Y-70627904D01*
X150695866Y-70627904D02*
X150886342Y-70627904D01*
X150886342Y-70627904D02*
X150981580Y-70580285D01*
X150981580Y-70580285D02*
X151029200Y-70532666D01*
X151029200Y-70532666D02*
X151076819Y-70437428D01*
X151076819Y-70437428D02*
X151076819Y-70246952D01*
X151076819Y-70246952D02*
X151029200Y-70151714D01*
X151029200Y-70151714D02*
X150981580Y-70104095D01*
X150981580Y-70104095D02*
X150886342Y-70056476D01*
X150886342Y-70056476D02*
X150695866Y-70056476D01*
X150695866Y-70056476D02*
X150600628Y-70104095D01*
X150600628Y-70104095D02*
X150553009Y-70151714D01*
X150553009Y-70151714D02*
X150505390Y-70246952D01*
X151076819Y-69104095D02*
X151076819Y-69675523D01*
X151076819Y-69389809D02*
X150076819Y-69389809D01*
X150076819Y-69389809D02*
X150219676Y-69485047D01*
X150219676Y-69485047D02*
X150314914Y-69580285D01*
X150314914Y-69580285D02*
X150362533Y-69675523D01*
X151076819Y-68627904D02*
X151076819Y-68437428D01*
X151076819Y-68437428D02*
X151029200Y-68342190D01*
X151029200Y-68342190D02*
X150981580Y-68294571D01*
X150981580Y-68294571D02*
X150838723Y-68199333D01*
X150838723Y-68199333D02*
X150648247Y-68151714D01*
X150648247Y-68151714D02*
X150267295Y-68151714D01*
X150267295Y-68151714D02*
X150172057Y-68199333D01*
X150172057Y-68199333D02*
X150124438Y-68246952D01*
X150124438Y-68246952D02*
X150076819Y-68342190D01*
X150076819Y-68342190D02*
X150076819Y-68532666D01*
X150076819Y-68532666D02*
X150124438Y-68627904D01*
X150124438Y-68627904D02*
X150172057Y-68675523D01*
X150172057Y-68675523D02*
X150267295Y-68723142D01*
X150267295Y-68723142D02*
X150505390Y-68723142D01*
X150505390Y-68723142D02*
X150600628Y-68675523D01*
X150600628Y-68675523D02*
X150648247Y-68627904D01*
X150648247Y-68627904D02*
X150695866Y-68532666D01*
X150695866Y-68532666D02*
X150695866Y-68342190D01*
X150695866Y-68342190D02*
X150648247Y-68246952D01*
X150648247Y-68246952D02*
X150600628Y-68199333D01*
X150600628Y-68199333D02*
X150505390Y-68151714D01*
X171301580Y-65857238D02*
X171349200Y-65904857D01*
X171349200Y-65904857D02*
X171396819Y-66047714D01*
X171396819Y-66047714D02*
X171396819Y-66142952D01*
X171396819Y-66142952D02*
X171349200Y-66285809D01*
X171349200Y-66285809D02*
X171253961Y-66381047D01*
X171253961Y-66381047D02*
X171158723Y-66428666D01*
X171158723Y-66428666D02*
X170968247Y-66476285D01*
X170968247Y-66476285D02*
X170825390Y-66476285D01*
X170825390Y-66476285D02*
X170634914Y-66428666D01*
X170634914Y-66428666D02*
X170539676Y-66381047D01*
X170539676Y-66381047D02*
X170444438Y-66285809D01*
X170444438Y-66285809D02*
X170396819Y-66142952D01*
X170396819Y-66142952D02*
X170396819Y-66047714D01*
X170396819Y-66047714D02*
X170444438Y-65904857D01*
X170444438Y-65904857D02*
X170492057Y-65857238D01*
X171396819Y-64904857D02*
X171396819Y-65476285D01*
X171396819Y-65190571D02*
X170396819Y-65190571D01*
X170396819Y-65190571D02*
X170539676Y-65285809D01*
X170539676Y-65285809D02*
X170634914Y-65381047D01*
X170634914Y-65381047D02*
X170682533Y-65476285D01*
X170396819Y-64285809D02*
X170396819Y-64190571D01*
X170396819Y-64190571D02*
X170444438Y-64095333D01*
X170444438Y-64095333D02*
X170492057Y-64047714D01*
X170492057Y-64047714D02*
X170587295Y-64000095D01*
X170587295Y-64000095D02*
X170777771Y-63952476D01*
X170777771Y-63952476D02*
X171015866Y-63952476D01*
X171015866Y-63952476D02*
X171206342Y-64000095D01*
X171206342Y-64000095D02*
X171301580Y-64047714D01*
X171301580Y-64047714D02*
X171349200Y-64095333D01*
X171349200Y-64095333D02*
X171396819Y-64190571D01*
X171396819Y-64190571D02*
X171396819Y-64285809D01*
X171396819Y-64285809D02*
X171349200Y-64381047D01*
X171349200Y-64381047D02*
X171301580Y-64428666D01*
X171301580Y-64428666D02*
X171206342Y-64476285D01*
X171206342Y-64476285D02*
X171015866Y-64523904D01*
X171015866Y-64523904D02*
X170777771Y-64523904D01*
X170777771Y-64523904D02*
X170587295Y-64476285D01*
X170587295Y-64476285D02*
X170492057Y-64428666D01*
X170492057Y-64428666D02*
X170444438Y-64381047D01*
X170444438Y-64381047D02*
X170396819Y-64285809D01*
X170396819Y-63333428D02*
X170396819Y-63238190D01*
X170396819Y-63238190D02*
X170444438Y-63142952D01*
X170444438Y-63142952D02*
X170492057Y-63095333D01*
X170492057Y-63095333D02*
X170587295Y-63047714D01*
X170587295Y-63047714D02*
X170777771Y-63000095D01*
X170777771Y-63000095D02*
X171015866Y-63000095D01*
X171015866Y-63000095D02*
X171206342Y-63047714D01*
X171206342Y-63047714D02*
X171301580Y-63095333D01*
X171301580Y-63095333D02*
X171349200Y-63142952D01*
X171349200Y-63142952D02*
X171396819Y-63238190D01*
X171396819Y-63238190D02*
X171396819Y-63333428D01*
X171396819Y-63333428D02*
X171349200Y-63428666D01*
X171349200Y-63428666D02*
X171301580Y-63476285D01*
X171301580Y-63476285D02*
X171206342Y-63523904D01*
X171206342Y-63523904D02*
X171015866Y-63571523D01*
X171015866Y-63571523D02*
X170777771Y-63571523D01*
X170777771Y-63571523D02*
X170587295Y-63523904D01*
X170587295Y-63523904D02*
X170492057Y-63476285D01*
X170492057Y-63476285D02*
X170444438Y-63428666D01*
X170444438Y-63428666D02*
X170396819Y-63333428D01*
X171396819Y-62047714D02*
X171396819Y-62619142D01*
X171396819Y-62333428D02*
X170396819Y-62333428D01*
X170396819Y-62333428D02*
X170539676Y-62428666D01*
X170539676Y-62428666D02*
X170634914Y-62523904D01*
X170634914Y-62523904D02*
X170682533Y-62619142D01*
X170386476Y-54144152D02*
X170386476Y-54810819D01*
X170148381Y-53763200D02*
X169910286Y-54477485D01*
X169910286Y-54477485D02*
X170529333Y-54477485D01*
X170815048Y-53810819D02*
X171481714Y-53810819D01*
X171481714Y-53810819D02*
X171053143Y-54810819D01*
X171862667Y-54144152D02*
X171862667Y-55144152D01*
X172338857Y-54667961D02*
X172386476Y-54763200D01*
X172386476Y-54763200D02*
X172481714Y-54810819D01*
X171862667Y-54667961D02*
X171910286Y-54763200D01*
X171910286Y-54763200D02*
X172005524Y-54810819D01*
X172005524Y-54810819D02*
X172196000Y-54810819D01*
X172196000Y-54810819D02*
X172291238Y-54763200D01*
X172291238Y-54763200D02*
X172338857Y-54667961D01*
X172338857Y-54667961D02*
X172338857Y-54144152D01*
X207738095Y-73859819D02*
X207738095Y-74574104D01*
X207738095Y-74574104D02*
X207690476Y-74716961D01*
X207690476Y-74716961D02*
X207595238Y-74812200D01*
X207595238Y-74812200D02*
X207452381Y-74859819D01*
X207452381Y-74859819D02*
X207357143Y-74859819D01*
X208738095Y-74859819D02*
X208166667Y-74859819D01*
X208452381Y-74859819D02*
X208452381Y-73859819D01*
X208452381Y-73859819D02*
X208357143Y-74002676D01*
X208357143Y-74002676D02*
X208261905Y-74097914D01*
X208261905Y-74097914D02*
X208166667Y-74145533D01*
X209357143Y-73859819D02*
X209452381Y-73859819D01*
X209452381Y-73859819D02*
X209547619Y-73907438D01*
X209547619Y-73907438D02*
X209595238Y-73955057D01*
X209595238Y-73955057D02*
X209642857Y-74050295D01*
X209642857Y-74050295D02*
X209690476Y-74240771D01*
X209690476Y-74240771D02*
X209690476Y-74478866D01*
X209690476Y-74478866D02*
X209642857Y-74669342D01*
X209642857Y-74669342D02*
X209595238Y-74764580D01*
X209595238Y-74764580D02*
X209547619Y-74812200D01*
X209547619Y-74812200D02*
X209452381Y-74859819D01*
X209452381Y-74859819D02*
X209357143Y-74859819D01*
X209357143Y-74859819D02*
X209261905Y-74812200D01*
X209261905Y-74812200D02*
X209214286Y-74764580D01*
X209214286Y-74764580D02*
X209166667Y-74669342D01*
X209166667Y-74669342D02*
X209119048Y-74478866D01*
X209119048Y-74478866D02*
X209119048Y-74240771D01*
X209119048Y-74240771D02*
X209166667Y-74050295D01*
X209166667Y-74050295D02*
X209214286Y-73955057D01*
X209214286Y-73955057D02*
X209261905Y-73907438D01*
X209261905Y-73907438D02*
X209357143Y-73859819D01*
X210309524Y-73859819D02*
X210404762Y-73859819D01*
X210404762Y-73859819D02*
X210500000Y-73907438D01*
X210500000Y-73907438D02*
X210547619Y-73955057D01*
X210547619Y-73955057D02*
X210595238Y-74050295D01*
X210595238Y-74050295D02*
X210642857Y-74240771D01*
X210642857Y-74240771D02*
X210642857Y-74478866D01*
X210642857Y-74478866D02*
X210595238Y-74669342D01*
X210595238Y-74669342D02*
X210547619Y-74764580D01*
X210547619Y-74764580D02*
X210500000Y-74812200D01*
X210500000Y-74812200D02*
X210404762Y-74859819D01*
X210404762Y-74859819D02*
X210309524Y-74859819D01*
X210309524Y-74859819D02*
X210214286Y-74812200D01*
X210214286Y-74812200D02*
X210166667Y-74764580D01*
X210166667Y-74764580D02*
X210119048Y-74669342D01*
X210119048Y-74669342D02*
X210071429Y-74478866D01*
X210071429Y-74478866D02*
X210071429Y-74240771D01*
X210071429Y-74240771D02*
X210119048Y-74050295D01*
X210119048Y-74050295D02*
X210166667Y-73955057D01*
X210166667Y-73955057D02*
X210214286Y-73907438D01*
X210214286Y-73907438D02*
X210309524Y-73859819D01*
X211500000Y-74193152D02*
X211500000Y-74859819D01*
X211261905Y-73812200D02*
X211023810Y-74526485D01*
X211023810Y-74526485D02*
X211642857Y-74526485D01*
X207210819Y-68865428D02*
X206210819Y-68865428D01*
X207210819Y-68294000D02*
X206639390Y-68722571D01*
X206210819Y-68294000D02*
X206782247Y-68865428D01*
X206687009Y-67865428D02*
X206687009Y-67532095D01*
X207210819Y-67389238D02*
X207210819Y-67865428D01*
X207210819Y-67865428D02*
X206210819Y-67865428D01*
X206210819Y-67865428D02*
X206210819Y-67389238D01*
X206734628Y-66770190D02*
X207210819Y-66770190D01*
X206210819Y-67103523D02*
X206734628Y-66770190D01*
X206734628Y-66770190D02*
X206210819Y-66436857D01*
X207210819Y-66103523D02*
X206210819Y-66103523D01*
X206210819Y-66103523D02*
X206210819Y-65722571D01*
X206210819Y-65722571D02*
X206258438Y-65627333D01*
X206258438Y-65627333D02*
X206306057Y-65579714D01*
X206306057Y-65579714D02*
X206401295Y-65532095D01*
X206401295Y-65532095D02*
X206544152Y-65532095D01*
X206544152Y-65532095D02*
X206639390Y-65579714D01*
X206639390Y-65579714D02*
X206687009Y-65627333D01*
X206687009Y-65627333D02*
X206734628Y-65722571D01*
X206734628Y-65722571D02*
X206734628Y-66103523D01*
X206925104Y-65151142D02*
X206925104Y-64674952D01*
X207210819Y-65246380D02*
X206210819Y-64913047D01*
X206210819Y-64913047D02*
X207210819Y-64579714D01*
X207210819Y-64246380D02*
X206210819Y-64246380D01*
X206210819Y-64246380D02*
X206210819Y-64008285D01*
X206210819Y-64008285D02*
X206258438Y-63865428D01*
X206258438Y-63865428D02*
X206353676Y-63770190D01*
X206353676Y-63770190D02*
X206448914Y-63722571D01*
X206448914Y-63722571D02*
X206639390Y-63674952D01*
X206639390Y-63674952D02*
X206782247Y-63674952D01*
X206782247Y-63674952D02*
X206972723Y-63722571D01*
X206972723Y-63722571D02*
X207067961Y-63770190D01*
X207067961Y-63770190D02*
X207163200Y-63865428D01*
X207163200Y-63865428D02*
X207210819Y-64008285D01*
X207210819Y-64008285D02*
X207210819Y-64246380D01*
X199238095Y-75954819D02*
X199238095Y-76669104D01*
X199238095Y-76669104D02*
X199190476Y-76811961D01*
X199190476Y-76811961D02*
X199095238Y-76907200D01*
X199095238Y-76907200D02*
X198952381Y-76954819D01*
X198952381Y-76954819D02*
X198857143Y-76954819D01*
X199714286Y-76954819D02*
X199714286Y-75954819D01*
X199714286Y-75954819D02*
X200095238Y-75954819D01*
X200095238Y-75954819D02*
X200190476Y-76002438D01*
X200190476Y-76002438D02*
X200238095Y-76050057D01*
X200238095Y-76050057D02*
X200285714Y-76145295D01*
X200285714Y-76145295D02*
X200285714Y-76288152D01*
X200285714Y-76288152D02*
X200238095Y-76383390D01*
X200238095Y-76383390D02*
X200190476Y-76431009D01*
X200190476Y-76431009D02*
X200095238Y-76478628D01*
X200095238Y-76478628D02*
X199714286Y-76478628D01*
X201238095Y-76954819D02*
X200666667Y-76954819D01*
X200952381Y-76954819D02*
X200952381Y-75954819D01*
X200952381Y-75954819D02*
X200857143Y-76097676D01*
X200857143Y-76097676D02*
X200761905Y-76192914D01*
X200761905Y-76192914D02*
X200666667Y-76240533D01*
X201857143Y-75954819D02*
X201952381Y-75954819D01*
X201952381Y-75954819D02*
X202047619Y-76002438D01*
X202047619Y-76002438D02*
X202095238Y-76050057D01*
X202095238Y-76050057D02*
X202142857Y-76145295D01*
X202142857Y-76145295D02*
X202190476Y-76335771D01*
X202190476Y-76335771D02*
X202190476Y-76573866D01*
X202190476Y-76573866D02*
X202142857Y-76764342D01*
X202142857Y-76764342D02*
X202095238Y-76859580D01*
X202095238Y-76859580D02*
X202047619Y-76907200D01*
X202047619Y-76907200D02*
X201952381Y-76954819D01*
X201952381Y-76954819D02*
X201857143Y-76954819D01*
X201857143Y-76954819D02*
X201761905Y-76907200D01*
X201761905Y-76907200D02*
X201714286Y-76859580D01*
X201714286Y-76859580D02*
X201666667Y-76764342D01*
X201666667Y-76764342D02*
X201619048Y-76573866D01*
X201619048Y-76573866D02*
X201619048Y-76335771D01*
X201619048Y-76335771D02*
X201666667Y-76145295D01*
X201666667Y-76145295D02*
X201714286Y-76050057D01*
X201714286Y-76050057D02*
X201761905Y-76002438D01*
X201761905Y-76002438D02*
X201857143Y-75954819D01*
X202809524Y-75954819D02*
X202904762Y-75954819D01*
X202904762Y-75954819D02*
X203000000Y-76002438D01*
X203000000Y-76002438D02*
X203047619Y-76050057D01*
X203047619Y-76050057D02*
X203095238Y-76145295D01*
X203095238Y-76145295D02*
X203142857Y-76335771D01*
X203142857Y-76335771D02*
X203142857Y-76573866D01*
X203142857Y-76573866D02*
X203095238Y-76764342D01*
X203095238Y-76764342D02*
X203047619Y-76859580D01*
X203047619Y-76859580D02*
X203000000Y-76907200D01*
X203000000Y-76907200D02*
X202904762Y-76954819D01*
X202904762Y-76954819D02*
X202809524Y-76954819D01*
X202809524Y-76954819D02*
X202714286Y-76907200D01*
X202714286Y-76907200D02*
X202666667Y-76859580D01*
X202666667Y-76859580D02*
X202619048Y-76764342D01*
X202619048Y-76764342D02*
X202571429Y-76573866D01*
X202571429Y-76573866D02*
X202571429Y-76335771D01*
X202571429Y-76335771D02*
X202619048Y-76145295D01*
X202619048Y-76145295D02*
X202666667Y-76050057D01*
X202666667Y-76050057D02*
X202714286Y-76002438D01*
X202714286Y-76002438D02*
X202809524Y-75954819D01*
X204095238Y-76954819D02*
X203523810Y-76954819D01*
X203809524Y-76954819D02*
X203809524Y-75954819D01*
X203809524Y-75954819D02*
X203714286Y-76097676D01*
X203714286Y-76097676D02*
X203619048Y-76192914D01*
X203619048Y-76192914D02*
X203523810Y-76240533D01*
X202142858Y-71431008D02*
X202285715Y-71478627D01*
X202285715Y-71478627D02*
X202333334Y-71526246D01*
X202333334Y-71526246D02*
X202380953Y-71621484D01*
X202380953Y-71621484D02*
X202380953Y-71764341D01*
X202380953Y-71764341D02*
X202333334Y-71859579D01*
X202333334Y-71859579D02*
X202285715Y-71907199D01*
X202285715Y-71907199D02*
X202190477Y-71954818D01*
X202190477Y-71954818D02*
X201809525Y-71954818D01*
X201809525Y-71954818D02*
X201809525Y-70954818D01*
X201809525Y-70954818D02*
X202142858Y-70954818D01*
X202142858Y-70954818D02*
X202238096Y-71002437D01*
X202238096Y-71002437D02*
X202285715Y-71050056D01*
X202285715Y-71050056D02*
X202333334Y-71145294D01*
X202333334Y-71145294D02*
X202333334Y-71240532D01*
X202333334Y-71240532D02*
X202285715Y-71335770D01*
X202285715Y-71335770D02*
X202238096Y-71383389D01*
X202238096Y-71383389D02*
X202142858Y-71431008D01*
X202142858Y-71431008D02*
X201809525Y-71431008D01*
X203000001Y-70954818D02*
X203190477Y-70954818D01*
X203190477Y-70954818D02*
X203285715Y-71002437D01*
X203285715Y-71002437D02*
X203380953Y-71097675D01*
X203380953Y-71097675D02*
X203428572Y-71288151D01*
X203428572Y-71288151D02*
X203428572Y-71621484D01*
X203428572Y-71621484D02*
X203380953Y-71811960D01*
X203380953Y-71811960D02*
X203285715Y-71907199D01*
X203285715Y-71907199D02*
X203190477Y-71954818D01*
X203190477Y-71954818D02*
X203000001Y-71954818D01*
X203000001Y-71954818D02*
X202904763Y-71907199D01*
X202904763Y-71907199D02*
X202809525Y-71811960D01*
X202809525Y-71811960D02*
X202761906Y-71621484D01*
X202761906Y-71621484D02*
X202761906Y-71288151D01*
X202761906Y-71288151D02*
X202809525Y-71097675D01*
X202809525Y-71097675D02*
X202904763Y-71002437D01*
X202904763Y-71002437D02*
X203000001Y-70954818D01*
X204047620Y-70954818D02*
X204238096Y-70954818D01*
X204238096Y-70954818D02*
X204333334Y-71002437D01*
X204333334Y-71002437D02*
X204428572Y-71097675D01*
X204428572Y-71097675D02*
X204476191Y-71288151D01*
X204476191Y-71288151D02*
X204476191Y-71621484D01*
X204476191Y-71621484D02*
X204428572Y-71811960D01*
X204428572Y-71811960D02*
X204333334Y-71907199D01*
X204333334Y-71907199D02*
X204238096Y-71954818D01*
X204238096Y-71954818D02*
X204047620Y-71954818D01*
X204047620Y-71954818D02*
X203952382Y-71907199D01*
X203952382Y-71907199D02*
X203857144Y-71811960D01*
X203857144Y-71811960D02*
X203809525Y-71621484D01*
X203809525Y-71621484D02*
X203809525Y-71288151D01*
X203809525Y-71288151D02*
X203857144Y-71097675D01*
X203857144Y-71097675D02*
X203952382Y-71002437D01*
X203952382Y-71002437D02*
X204047620Y-70954818D01*
X204761906Y-70954818D02*
X205333334Y-70954818D01*
X205047620Y-71954818D02*
X205047620Y-70954818D01*
X196707525Y-78954818D02*
X197278953Y-78954818D01*
X196993239Y-79954818D02*
X196993239Y-78954818D01*
X197612287Y-79954818D02*
X197612287Y-78954818D01*
X197612287Y-78954818D02*
X197993239Y-78954818D01*
X197993239Y-78954818D02*
X198088477Y-79002437D01*
X198088477Y-79002437D02*
X198136096Y-79050056D01*
X198136096Y-79050056D02*
X198183715Y-79145294D01*
X198183715Y-79145294D02*
X198183715Y-79288151D01*
X198183715Y-79288151D02*
X198136096Y-79383389D01*
X198136096Y-79383389D02*
X198088477Y-79431008D01*
X198088477Y-79431008D02*
X197993239Y-79478627D01*
X197993239Y-79478627D02*
X197612287Y-79478627D01*
X199136096Y-79954818D02*
X198564668Y-79954818D01*
X198850382Y-79954818D02*
X198850382Y-78954818D01*
X198850382Y-78954818D02*
X198755144Y-79097675D01*
X198755144Y-79097675D02*
X198659906Y-79192913D01*
X198659906Y-79192913D02*
X198564668Y-79240532D01*
X199755144Y-78954818D02*
X199850382Y-78954818D01*
X199850382Y-78954818D02*
X199945620Y-79002437D01*
X199945620Y-79002437D02*
X199993239Y-79050056D01*
X199993239Y-79050056D02*
X200040858Y-79145294D01*
X200040858Y-79145294D02*
X200088477Y-79335770D01*
X200088477Y-79335770D02*
X200088477Y-79573865D01*
X200088477Y-79573865D02*
X200040858Y-79764341D01*
X200040858Y-79764341D02*
X199993239Y-79859579D01*
X199993239Y-79859579D02*
X199945620Y-79907199D01*
X199945620Y-79907199D02*
X199850382Y-79954818D01*
X199850382Y-79954818D02*
X199755144Y-79954818D01*
X199755144Y-79954818D02*
X199659906Y-79907199D01*
X199659906Y-79907199D02*
X199612287Y-79859579D01*
X199612287Y-79859579D02*
X199564668Y-79764341D01*
X199564668Y-79764341D02*
X199517049Y-79573865D01*
X199517049Y-79573865D02*
X199517049Y-79335770D01*
X199517049Y-79335770D02*
X199564668Y-79145294D01*
X199564668Y-79145294D02*
X199612287Y-79050056D01*
X199612287Y-79050056D02*
X199659906Y-79002437D01*
X199659906Y-79002437D02*
X199755144Y-78954818D01*
X200707525Y-78954818D02*
X200802763Y-78954818D01*
X200802763Y-78954818D02*
X200898001Y-79002437D01*
X200898001Y-79002437D02*
X200945620Y-79050056D01*
X200945620Y-79050056D02*
X200993239Y-79145294D01*
X200993239Y-79145294D02*
X201040858Y-79335770D01*
X201040858Y-79335770D02*
X201040858Y-79573865D01*
X201040858Y-79573865D02*
X200993239Y-79764341D01*
X200993239Y-79764341D02*
X200945620Y-79859579D01*
X200945620Y-79859579D02*
X200898001Y-79907199D01*
X200898001Y-79907199D02*
X200802763Y-79954818D01*
X200802763Y-79954818D02*
X200707525Y-79954818D01*
X200707525Y-79954818D02*
X200612287Y-79907199D01*
X200612287Y-79907199D02*
X200564668Y-79859579D01*
X200564668Y-79859579D02*
X200517049Y-79764341D01*
X200517049Y-79764341D02*
X200469430Y-79573865D01*
X200469430Y-79573865D02*
X200469430Y-79335770D01*
X200469430Y-79335770D02*
X200517049Y-79145294D01*
X200517049Y-79145294D02*
X200564668Y-79050056D01*
X200564668Y-79050056D02*
X200612287Y-79002437D01*
X200612287Y-79002437D02*
X200707525Y-78954818D01*
X201993239Y-79954818D02*
X201421811Y-79954818D01*
X201707525Y-79954818D02*
X201707525Y-78954818D01*
X201707525Y-78954818D02*
X201612287Y-79097675D01*
X201612287Y-79097675D02*
X201517049Y-79192913D01*
X201517049Y-79192913D02*
X201421811Y-79240532D01*
X196755048Y-82954818D02*
X197326476Y-82954818D01*
X197040762Y-83954818D02*
X197040762Y-82954818D01*
X197659810Y-83954818D02*
X197659810Y-82954818D01*
X197659810Y-82954818D02*
X198040762Y-82954818D01*
X198040762Y-82954818D02*
X198136000Y-83002437D01*
X198136000Y-83002437D02*
X198183619Y-83050056D01*
X198183619Y-83050056D02*
X198231238Y-83145294D01*
X198231238Y-83145294D02*
X198231238Y-83288151D01*
X198231238Y-83288151D02*
X198183619Y-83383389D01*
X198183619Y-83383389D02*
X198136000Y-83431008D01*
X198136000Y-83431008D02*
X198040762Y-83478627D01*
X198040762Y-83478627D02*
X197659810Y-83478627D01*
X198421715Y-84050056D02*
X199183619Y-84050056D01*
X199374096Y-83907199D02*
X199516953Y-83954818D01*
X199516953Y-83954818D02*
X199755048Y-83954818D01*
X199755048Y-83954818D02*
X199850286Y-83907199D01*
X199850286Y-83907199D02*
X199897905Y-83859579D01*
X199897905Y-83859579D02*
X199945524Y-83764341D01*
X199945524Y-83764341D02*
X199945524Y-83669103D01*
X199945524Y-83669103D02*
X199897905Y-83573865D01*
X199897905Y-83573865D02*
X199850286Y-83526246D01*
X199850286Y-83526246D02*
X199755048Y-83478627D01*
X199755048Y-83478627D02*
X199564572Y-83431008D01*
X199564572Y-83431008D02*
X199469334Y-83383389D01*
X199469334Y-83383389D02*
X199421715Y-83335770D01*
X199421715Y-83335770D02*
X199374096Y-83240532D01*
X199374096Y-83240532D02*
X199374096Y-83145294D01*
X199374096Y-83145294D02*
X199421715Y-83050056D01*
X199421715Y-83050056D02*
X199469334Y-83002437D01*
X199469334Y-83002437D02*
X199564572Y-82954818D01*
X199564572Y-82954818D02*
X199802667Y-82954818D01*
X199802667Y-82954818D02*
X199945524Y-83002437D01*
X200374096Y-83954818D02*
X200374096Y-82954818D01*
X200374096Y-82954818D02*
X200755048Y-82954818D01*
X200755048Y-82954818D02*
X200850286Y-83002437D01*
X200850286Y-83002437D02*
X200897905Y-83050056D01*
X200897905Y-83050056D02*
X200945524Y-83145294D01*
X200945524Y-83145294D02*
X200945524Y-83288151D01*
X200945524Y-83288151D02*
X200897905Y-83383389D01*
X200897905Y-83383389D02*
X200850286Y-83431008D01*
X200850286Y-83431008D02*
X200755048Y-83478627D01*
X200755048Y-83478627D02*
X200374096Y-83478627D01*
X201374096Y-83954818D02*
X201374096Y-82954818D01*
D12*
%TO.C,D1003*%
X176411000Y-78058000D02*
X176411000Y-82118000D01*
X178681000Y-78058000D02*
X176411000Y-78058000D01*
X178681000Y-82118000D02*
X178681000Y-78058000D01*
%TO.C,C1002*%
X166155000Y-57153000D02*
X166155000Y-61538000D01*
X166155000Y-61538000D02*
X169175000Y-61538000D01*
X169175000Y-61538000D02*
X169175000Y-57153000D01*
%TO.C,SW1001*%
X185746000Y-76780000D02*
X185776000Y-76780000D01*
X185746000Y-83240000D02*
X185746000Y-76780000D01*
X185776000Y-83240000D02*
X185746000Y-83240000D01*
X187676000Y-76780000D02*
X190276000Y-76780000D01*
X187676000Y-83240000D02*
X190276000Y-83240000D01*
X192206000Y-76780000D02*
X192176000Y-76780000D01*
X192206000Y-83240000D02*
X192176000Y-83240000D01*
X192206000Y-83240000D02*
X192206000Y-76780000D01*
%TO.C,TP1002*%
X203291400Y-80558600D02*
X205191400Y-80558600D01*
X203291400Y-82458600D02*
X203291400Y-80558600D01*
X205191400Y-80558600D02*
X205191400Y-82458600D01*
X205191400Y-82458600D02*
X203291400Y-82458600D01*
%TO.C,R1010*%
X193067000Y-82830936D02*
X193067000Y-83285064D01*
X194537000Y-82830936D02*
X194537000Y-83285064D01*
%TO.C,R1008*%
X179347064Y-60875000D02*
X178892936Y-60875000D01*
X179347064Y-62345000D02*
X178892936Y-62345000D01*
%TO.C,D1002*%
X153998000Y-68126000D02*
X153998000Y-68256000D01*
X153998000Y-71066000D02*
X153998000Y-70936000D01*
X158418000Y-71066000D02*
X158418000Y-68126000D01*
X158538000Y-71066000D02*
X158538000Y-68126000D01*
X158658000Y-71066000D02*
X158658000Y-68126000D01*
X159438000Y-68126000D02*
X153998000Y-68126000D01*
X159438000Y-68256000D02*
X159438000Y-68126000D01*
X159438000Y-70936000D02*
X159438000Y-71066000D01*
X159438000Y-71066000D02*
X153998000Y-71066000D01*
%TO.C,J1001*%
X146462500Y-75170000D02*
X167042500Y-75170000D01*
X146462500Y-84290000D02*
X146462500Y-75170000D01*
X147762500Y-76480000D02*
X165742500Y-76480000D01*
X147762500Y-82980000D02*
X147762500Y-76480000D01*
X151172500Y-85680000D02*
X152172500Y-85680000D01*
X151672500Y-84680000D02*
X151172500Y-85680000D01*
X152172500Y-85680000D02*
X151672500Y-84680000D01*
X154702500Y-82980000D02*
X147762500Y-82980000D01*
X154702500Y-84290000D02*
X154702500Y-82980000D01*
X158802500Y-82980000D02*
X158802500Y-82980000D01*
X158802500Y-82980000D02*
X158802500Y-84290000D01*
X165742500Y-76480000D02*
X165742500Y-82980000D01*
X165742500Y-82980000D02*
X158802500Y-82980000D01*
X167042500Y-75170000D02*
X167042500Y-84290000D01*
X167042500Y-84290000D02*
X146462500Y-84290000D01*
%TO.C,R1011*%
X172727064Y-76765000D02*
X172272936Y-76765000D01*
X172727064Y-78235000D02*
X172272936Y-78235000D01*
%TO.C,R1001*%
X180367000Y-80722564D02*
X180367000Y-80268436D01*
X181837000Y-80722564D02*
X181837000Y-80268436D01*
%TO.C,J1003*%
X150354000Y-49175500D02*
X150354000Y-57145500D01*
X150354000Y-65795500D02*
X150354000Y-62045500D01*
X154714000Y-66495500D02*
X155714000Y-66495500D01*
X155214000Y-65995500D02*
X154714000Y-66495500D01*
X155714000Y-66495500D02*
X155214000Y-65995500D01*
X162574000Y-49175500D02*
X150354000Y-49175500D01*
X162574000Y-49175500D02*
X162574000Y-57145500D01*
X162574000Y-65795500D02*
X150354000Y-65795500D01*
X162574000Y-65795500D02*
X162574000Y-62045500D01*
%TO.C,U1001*%
X184000000Y-43134000D02*
X184000000Y-49884000D01*
X184000000Y-43134000D02*
X202000000Y-43134000D01*
X184000000Y-67884000D02*
X184000000Y-68634000D01*
X184000000Y-68634000D02*
X185000000Y-68634000D01*
X202000000Y-43134000D02*
X202000000Y-49884000D01*
X202000000Y-49074000D02*
X184000000Y-49074000D01*
X202000000Y-67884000D02*
X202000000Y-68634000D01*
X202000000Y-68634000D02*
X201000000Y-68634000D01*
%TO.C,R1006*%
X179297064Y-57375000D02*
X178842936Y-57375000D01*
X179297064Y-58845000D02*
X178842936Y-58845000D01*
%TO.C,J1005*%
X115170000Y-75210000D02*
X143370000Y-75210000D01*
X115170000Y-84330000D02*
X115170000Y-75210000D01*
X116470000Y-76520000D02*
X142070000Y-76520000D01*
X116470000Y-83020000D02*
X116470000Y-76520000D01*
X119880000Y-85720000D02*
X120880000Y-85720000D01*
X120380000Y-84720000D02*
X119880000Y-85720000D01*
X120880000Y-85720000D02*
X120380000Y-84720000D01*
X127220000Y-83020000D02*
X116470000Y-83020000D01*
X127220000Y-84330000D02*
X127220000Y-83020000D01*
X131320000Y-83020000D02*
X131320000Y-83020000D01*
X131320000Y-83020000D02*
X131320000Y-84330000D01*
X142070000Y-76520000D02*
X142070000Y-83020000D01*
X142070000Y-83020000D02*
X131320000Y-83020000D01*
X143370000Y-75210000D02*
X143370000Y-84330000D01*
X143370000Y-84330000D02*
X115170000Y-84330000D01*
%TO.C,R1004*%
X179297064Y-53875000D02*
X178842936Y-53875000D01*
X179297064Y-55345000D02*
X178842936Y-55345000D01*
%TO.C,R1003*%
X172727064Y-79265000D02*
X172272936Y-79265000D01*
X172727064Y-80735000D02*
X172272936Y-80735000D01*
%TO.C,R1002*%
X172727064Y-81765000D02*
X172272936Y-81765000D01*
X172727064Y-83235000D02*
X172272936Y-83235000D01*
D13*
%TO.C,J1002*%
X114600000Y-49070000D02*
X145400000Y-49070000D01*
X114600000Y-65070000D02*
X114600000Y-49070000D01*
X145400000Y-49070000D02*
X145400000Y-65070000D01*
X145400000Y-65070000D02*
X114600000Y-65070000D01*
D14*
X125145000Y-66031000D02*
G75*
G02*
X124745000Y-66031000I-200000J0D01*
G01*
X124745000Y-66031000D02*
G75*
G02*
X125145000Y-66031000I200000J0D01*
G01*
D12*
%TO.C,D1001*%
X153998000Y-71428000D02*
X153998000Y-71558000D01*
X153998000Y-74368000D02*
X153998000Y-74238000D01*
X158418000Y-74368000D02*
X158418000Y-71428000D01*
X158538000Y-74368000D02*
X158538000Y-71428000D01*
X158658000Y-74368000D02*
X158658000Y-71428000D01*
X159438000Y-71428000D02*
X153998000Y-71428000D01*
X159438000Y-71558000D02*
X159438000Y-71428000D01*
X159438000Y-74238000D02*
X159438000Y-74368000D01*
X159438000Y-74368000D02*
X153998000Y-74368000D01*
%TO.C,C1001*%
X169661000Y-57153000D02*
X169661000Y-61538000D01*
X169661000Y-61538000D02*
X172681000Y-61538000D01*
X172681000Y-61538000D02*
X172681000Y-57153000D01*
%TO.C,J1004*%
X208170000Y-70805000D02*
X208170000Y-60585000D01*
X210830000Y-60585000D02*
X208170000Y-60585000D01*
X210830000Y-70805000D02*
X208170000Y-70805000D01*
X210830000Y-70805000D02*
X210830000Y-60585000D01*
X210830000Y-72075000D02*
X210830000Y-73405000D01*
X210830000Y-73405000D02*
X209500000Y-73405000D01*
%TO.C,JP1001*%
X198880000Y-72695000D02*
X198880000Y-75355000D01*
X201480000Y-72695000D02*
X198880000Y-72695000D01*
X201480000Y-72695000D02*
X201480000Y-75355000D01*
X201480000Y-75355000D02*
X198880000Y-75355000D01*
X204080000Y-74025000D02*
X204080000Y-75355000D01*
X204080000Y-75355000D02*
X202750000Y-75355000D01*
%TO.C,TP1001*%
X198948000Y-80550000D02*
X200848000Y-80550000D01*
X198948000Y-82450000D02*
X198948000Y-80550000D01*
X200848000Y-80550000D02*
X200848000Y-82450000D01*
X200848000Y-82450000D02*
X198948000Y-82450000D01*
%TD*%
M02*
